<svg width="55" height="55" viewBox="0 0 55 55" fill="none" xmlns="http://www.w3.org/2000/svg">
<path fill-rule="evenodd" clip-rule="evenodd" d="M27.8571 12.5698L25.8083 14.827L27.7083 14.839L29.6083 14.851V15.9046V16.9583H32.0169C34.007 16.9583 34.419 16.9477 34.3887 16.8975C34.2413 16.6528 29.9476 10.3125 29.9292 10.3125C29.9163 10.3125 28.9839 11.3282 27.8571 12.5698ZM19.1933 14.1511L19.1812 15.5605L18.1386 15.5727L17.0958 15.5851V24.067V32.549L17.2219 32.5219C18.4029 32.2685 19.8557 32.1201 20.7438 32.1621L21.3096 32.1887L21.3225 30.2912L21.3355 28.3937L21.4582 28.1317C22.0001 26.9754 23.455 26.7234 24.3101 27.6375C24.8117 28.1737 24.8409 28.3537 24.8413 30.917L24.8417 32.9362L25.2198 33.0888C26.3589 33.5489 27.7194 34.2917 28.5091 34.8846C28.7389 35.0571 28.9461 35.2102 28.9696 35.2247C28.9961 35.2411 29.0125 31.5026 29.0125 25.4173V15.5833H25.1625H21.3125V14.1625V12.7417H20.259H19.2054L19.1933 14.1511ZM21.1186 18.0011L21.1062 19.0437L19.6969 19.0558L18.2875 19.0679V18.0132V16.9583H19.7092H21.1309L21.1186 18.0011ZM24.6125 18.0125V19.0667H23.2145H21.8167V18.0125V16.9583H23.2145H24.6125V18.0125ZM28.1417 18.0125V19.0667H26.7208H25.3V18.0125V16.9583H26.7208H28.1417V18.0125ZM29.6542 19.7083V21.8625H32.0375H34.4208V19.7083V17.5542H32.0375H29.6542V19.7083ZM21.1186 20.8198L21.1309 21.8625H19.7092H18.2875V20.8077V19.7528L19.6969 19.7649L21.1062 19.777L21.1186 20.8198ZM24.6125 20.8083V21.8625H23.2145H21.8167V20.8083V19.7542H23.2145H24.6125V20.8083ZM28.1417 20.8083V21.8625H26.7208H25.3V20.8083V19.7542H26.7208H28.1417V20.8083ZM21.1062 23.627V24.6812H19.7083H18.3105L18.2981 23.6149L18.2858 22.5486L19.696 22.5609L21.1062 22.573V23.627ZM24.6125 23.627V24.7042H23.2145H21.8167V23.627V22.55H23.2145H24.6125V23.627ZM28.131 23.6156L28.1187 24.6812H26.7208H25.323L25.3106 23.6156L25.2983 22.55H26.7208H28.1434L28.131 23.6156ZM29.7 28.1469V33.6981L29.8261 33.6142C31.801 32.3004 35.2818 31.5661 37.95 31.9005C38.4937 31.9686 38.5 31.9715 38.5 32.1531C38.5 32.2968 38.5128 32.3104 38.6719 32.3372C39.6302 32.4984 40.3664 32.7502 41.6988 33.3723C42.2859 33.6465 42.786 33.8708 42.8102 33.8708C42.8378 33.8708 42.8542 32.7649 42.8542 30.8995V27.9282L40.8489 26.6474L38.8437 25.3667L38.8316 23.9812L38.8195 22.5958H34.2598H29.7V28.1469ZM32.5417 24.3375V25.3917H31.4875H30.4333V24.3375V23.2833H31.4875H32.5417V24.3375ZM35.3375 24.3375V25.3917H34.2833H33.2292V24.3375V23.2833H34.2833H35.3375V24.3375ZM12.7996 26.4344L10.6821 28.1645L10.6806 31.551L10.6792 34.9375L10.8969 34.7346C11.4579 34.2115 12.4311 33.7138 14.2427 33.0235L14.9417 32.7572V28.7306C14.9417 26.516 14.9361 24.7042 14.9293 24.7042C14.9226 24.7042 13.9642 25.4827 12.7996 26.4344ZM32.5417 27.1333V28.1875H31.4875H30.4333V27.1333V26.0792H31.4875H32.5417V27.1333ZM35.3375 27.1333V28.1875H34.2833H33.2292V27.1333V26.0792H34.2833H35.3375V27.1333ZM35.5208 33.2563C35.4326 33.2666 35.1645 33.2963 34.925 33.3223C33.5958 33.4665 32.1634 33.9157 30.8928 34.5869C30.394 34.8505 29.3792 35.4956 29.3792 35.5492C29.3792 35.566 29.6112 35.8194 29.8948 36.1124C34.8322 41.2136 34.9427 48.9061 30.1542 54.1771L29.7568 54.6144L29.9111 54.7155C30.1047 54.8424 30.1543 54.8419 31.1931 54.7009C37.2467 53.8803 42.6667 51.172 47.0429 46.7812L48.0462 45.7746L48.0193 44.7384C47.8999 40.1459 45.438 36.3271 41.3201 34.3469C39.6517 33.5446 37.121 33.0686 35.5208 33.2563ZM19.7369 33.5995C12.8094 34.0578 7.89414 40.3652 9.03704 47.33L9.13632 47.9351L9.63874 48.3623C14.0042 52.0739 19.2797 54.2987 24.9892 54.8365C25.975 54.9293 27.182 54.9768 27.2183 54.9242C27.2345 54.9004 27.4641 54.717 27.7285 54.5165C29.7058 53.017 31.2584 50.6573 31.879 48.209C33.8492 40.4367 27.7274 33.0709 19.7369 33.5995Z" fill="#FBFBFB"/>
<path fill-rule="evenodd" clip-rule="evenodd" d="M25.85 0.0275C25.7365 0.03685 25.3756 0.0669625 25.048 0.0941875C13.2198 1.07814 3.1673 9.93025 0.665074 21.5652C-1.13095 29.9167 0.969636 38.5591 6.36857 45.0313C7.30839 46.1578 9.1821 48.0711 9.10496 47.8255C8.70264 46.5429 8.76369 43.9141 9.236 42.1908C11.4376 34.1573 21.0857 30.9077 27.7009 35.9715C33.8151 40.6517 33.7764 50.0116 27.624 54.6288C27.1291 55.0001 27.0678 54.9838 28.6825 54.9105C30.0116 54.8503 30.036 54.8459 29.8545 54.7011L29.7258 54.5985L30.0784 54.2238C34.8917 49.1073 34.8117 41.2133 29.8951 36.1578C29.5861 35.8402 29.3333 35.5675 29.3333 35.552C29.3333 35.4745 30.5438 34.7355 31.1895 34.4189C38.9365 30.6196 48.0007 36.2075 48.051 44.8135C48.0539 45.2987 48.0602 45.6957 48.065 45.6958C48.07 45.6958 48.2941 45.4329 48.5632 45.1114C58.6755 33.0326 56.5675 14.9105 43.9491 5.44445C39.9587 2.45094 35.3757 0.67045 30.2248 0.112613C29.5799 0.0427625 26.4097 -0.018975 25.85 0.0275ZM32.1743 13.5647C33.3965 15.3784 34.4037 16.8839 34.4125 16.9103C34.4235 16.9434 33.6704 16.9583 31.9954 16.9583H29.5625V15.9046V14.851L27.6682 14.839L25.7737 14.827L27.84 12.5484C28.9765 11.2951 29.9166 10.2691 29.9292 10.2684C29.9417 10.2675 30.9521 11.7509 32.1743 13.5647ZM21.3125 14.1395V15.5375H25.1855H29.0583V25.4145C29.0583 30.847 29.0481 35.2917 29.0357 35.2917C29.0232 35.2917 28.8079 35.139 28.5572 34.9524C27.6801 34.2997 26.5754 33.6846 25.3822 33.1848L24.7998 32.9407L24.7864 30.6901L24.773 28.4395L24.6493 28.176C24.1207 27.0478 22.783 26.755 21.9059 27.5755C21.3449 28.1 21.3141 28.2509 21.3132 30.4674L21.3125 32.2201L20.7051 32.1914C19.9525 32.1556 19.1388 32.2241 17.977 32.4207C17.4912 32.5029 17.0839 32.5603 17.0718 32.5483C17.0599 32.5362 17.05 28.704 17.05 24.032V15.5375H18.1042H19.1583V14.1395V12.7417H20.2355H21.3125V14.1395ZM18.3333 17.9895V19.0208H19.7083H21.0833V17.9895V16.9583H19.7083H18.3333V17.9895ZM21.8167 17.9895V19.0208H23.2145H24.6125V17.9895V16.9583H23.2145H21.8167V17.9895ZM25.3458 17.9895V19.0208H26.7208H28.0958V17.9895V16.9583H26.7208H25.3458V17.9895ZM34.4208 19.7313V21.9083H32.0145H29.6083V19.7313V17.5542H32.0145H34.4208V19.7313ZM18.3333 20.8313V21.8625H19.7083H21.0833V20.8313V19.8H19.7083H18.3333V20.8313ZM21.8167 20.8313V21.8625H23.2145H24.6125V20.8313V19.8H23.2145H21.8167V20.8313ZM25.3458 20.8313V21.8625H26.7208H28.0958V20.8313V19.8H26.7208H25.3458V20.8313ZM38.8774 23.9577L38.8895 25.3653L40.8948 26.6464L42.9 27.9275V30.9221C42.9 32.6041 42.8824 33.9167 42.8598 33.9167C42.8035 33.9167 42.4097 33.74 41.4689 33.2929C40.5182 32.8408 39.8955 32.6224 39.0729 32.4525L38.477 32.3294L38.4629 32.1606C38.455 32.0676 38.4344 31.9913 38.4171 31.9908C38.3996 31.9902 38.1379 31.96 37.8354 31.9234C35.3119 31.619 31.844 32.3353 29.9864 33.5448L29.7 33.7314V28.1406V22.55H34.2827H38.8653L38.8774 23.9577ZM18.3333 23.627V24.6583H19.7083H21.0833V23.627V22.5958H19.7083H18.3333V23.627ZM21.8167 23.627V24.6583H23.2145H24.6125V23.627V22.5958H23.2145H21.8167V23.627ZM25.3458 23.627V24.6583H26.7208H28.0958V23.627V22.5958H26.7208H25.3458V23.627ZM30.4333 24.3145V25.3458H31.4645H32.4958V24.3145V23.2833H31.4645H30.4333V24.3145ZM33.275 24.3145V25.3458H34.3062H35.3375V24.3145V23.2833H34.3062H33.275V24.3145ZM14.9875 28.7092V32.7601L14.4261 32.9777C12.4195 33.7553 11.6905 34.1169 10.9886 34.6826L10.6333 34.969L10.6355 31.5667L10.6377 28.1645L12.7783 26.4138C13.9555 25.4508 14.9341 24.662 14.9531 24.6606C14.9721 24.6594 14.9875 26.4813 14.9875 28.7092ZM30.4333 27.1563V28.1875H31.4645H32.4958V27.1563V26.125H31.4645H30.4333V27.1563ZM33.275 27.1563V28.1875H34.3062H35.3375V27.1563V26.125H34.3062H33.275V27.1563Z" fill="#1C647C"/>
<path fill-rule="evenodd" clip-rule="evenodd" d="M25.3197 17.9895C25.3197 18.5694 25.3263 18.8002 25.3342 18.5027C25.3422 18.205 25.3422 17.7306 25.3342 17.4485C25.3261 17.1663 25.3197 17.4098 25.3197 17.9895ZM28.1155 17.9895C28.1155 18.5694 28.1221 18.8002 28.13 18.5027C28.1381 18.205 28.138 17.7306 28.13 17.4485C28.1221 17.1663 28.1155 17.4098 28.1155 17.9895ZM25.3197 20.8312C25.3197 21.4111 25.3263 21.6419 25.3342 21.3443C25.3422 21.0467 25.3422 20.5723 25.3342 20.2902C25.3261 20.0079 25.3197 20.2514 25.3197 20.8312ZM28.1155 20.8312C28.1155 21.4111 28.1221 21.6419 28.13 21.3443C28.1381 21.0467 28.138 20.5723 28.13 20.2902C28.1221 20.0079 28.1155 20.2514 28.1155 20.8312ZM30.8344 21.8969C31.496 21.904 32.5788 21.904 33.2406 21.8969C33.9024 21.8897 33.3609 21.8838 32.0375 21.8838C30.7141 21.8838 30.1727 21.8897 30.8344 21.8969ZM19.0094 22.5842C19.3938 22.5919 20.0229 22.5919 20.4073 22.5842C20.7917 22.5767 20.4772 22.5703 19.7083 22.5703C18.9395 22.5703 18.6249 22.5767 19.0094 22.5842ZM22.5185 22.5842C22.9171 22.5919 23.5565 22.5919 23.9393 22.5842C24.3222 22.5767 23.9961 22.5703 23.2145 22.5703C22.4331 22.5703 22.1199 22.5767 22.5185 22.5842ZM25.3208 22.6077C25.3084 22.6402 25.3041 23.1201 25.3114 23.6741L25.3248 24.6812L25.3353 23.6386L25.3458 22.5958H26.72H28.0941L28.1078 23.6272L28.1214 24.6584L28.1201 23.6156L28.1188 22.573L26.7311 22.5607C25.6325 22.5512 25.3388 22.561 25.3208 22.6077ZM14.9636 28.6917C14.9636 30.9227 14.9692 31.8352 14.9761 30.7198C14.9828 29.6043 14.9828 27.779 14.9761 26.6636C14.9692 25.5481 14.9636 26.4608 14.9636 28.6917ZM10.6552 31.5563C10.6552 33.4217 10.6608 34.1781 10.6677 33.2372C10.6747 32.2964 10.6747 30.7702 10.6677 29.8456C10.6608 28.9211 10.6552 29.6908 10.6552 31.5563ZM36.2901 31.8421C36.4232 31.8515 36.6295 31.8513 36.7484 31.842C36.8673 31.8325 36.7583 31.8249 36.5063 31.8251C36.2542 31.8252 36.1569 31.8329 36.2901 31.8421ZM48.0476 44.9395C48.0477 45.0908 48.0564 45.1472 48.0666 45.0648C48.0767 44.9824 48.0766 44.8587 48.0662 44.7898C48.0556 44.7209 48.0473 44.7883 48.0476 44.9395Z" fill="#8CB4BC"/>
<path fill-rule="evenodd" clip-rule="evenodd" d="M17.614 15.5718C17.9117 15.5797 18.3861 15.5797 18.6682 15.5718C18.9504 15.5637 18.7068 15.5572 18.127 15.5572C17.5473 15.5572 17.3164 15.5638 17.614 15.5718ZM23.2261 15.5719C24.2911 15.5788 26.034 15.5788 27.0989 15.5719C28.164 15.565 27.2926 15.5594 25.1625 15.5594C23.0323 15.5594 22.161 15.565 23.2261 15.5719ZM21.1029 17.9896C21.1029 18.5694 21.1095 18.8003 21.1175 18.5027C21.1256 18.205 21.1255 17.7307 21.1175 17.4485C21.1095 17.1664 21.1029 17.4099 21.1029 17.9896ZM29.6294 19.7083C29.6294 20.9058 29.6354 21.3956 29.6426 20.7969C29.6499 20.1982 29.6499 19.2185 29.6426 18.6199C29.6354 18.0212 29.6294 18.511 29.6294 19.7083ZM21.1029 20.8313C21.1029 21.4111 21.1095 21.642 21.1175 21.3443C21.1256 21.0467 21.1255 20.5724 21.1175 20.2902C21.1095 20.0079 21.1029 20.2514 21.1029 20.8313ZM34.2482 22.5844L38.8195 22.5964L38.8323 23.9825L38.8451 25.3688L38.8558 23.9594L38.8667 22.55L34.2719 22.5613L29.677 22.5724L34.2482 22.5844ZM21.0939 23.615L21.0833 24.6571L19.6968 24.6699L18.3104 24.6827L19.6982 24.6934C20.7879 24.7019 21.091 24.6916 21.1086 24.6458C21.1209 24.6138 21.1249 24.1342 21.1176 23.5802L21.1043 22.573L21.0939 23.615ZM22.5185 24.6927C22.9171 24.7003 23.5565 24.7003 23.9393 24.6927C24.3222 24.685 23.9961 24.6787 23.2145 24.6788C22.4331 24.6788 22.1199 24.685 22.5185 24.6927ZM26.0219 24.6927C26.4063 24.7003 27.0354 24.7003 27.4198 24.6927C27.8043 24.685 27.4897 24.6787 26.7208 24.6787C25.952 24.6787 25.6374 24.685 26.0219 24.6927ZM42.8433 30.9375C42.8367 32.5761 42.8466 33.9167 42.8656 33.9167C42.8845 33.9167 42.9 32.5761 42.9 30.9375C42.9 29.2989 42.89 27.9583 42.8777 27.9583C42.8655 27.9583 42.8501 29.2989 42.8433 30.9375ZM24.8169 30.8688C24.8169 32.0283 24.8229 32.4962 24.8301 31.9083C24.8374 31.3205 24.8374 30.3717 24.8301 29.8C24.8229 29.2283 24.8169 29.7092 24.8169 30.8688ZM20.1102 32.1624C20.1925 32.1726 20.3163 32.1724 20.3852 32.162C20.4541 32.1515 20.3867 32.1431 20.2354 32.1434C20.0842 32.1437 20.0278 32.1522 20.1102 32.1624ZM20.0641 33.5825C20.121 33.5933 20.2035 33.5929 20.2474 33.5815C20.2913 33.5701 20.2445 33.561 20.1437 33.5616C20.0429 33.5621 20.0071 33.5715 20.0641 33.5825ZM20.8891 33.5825C20.946 33.5933 21.0285 33.5929 21.0724 33.5815C21.1163 33.5701 21.0695 33.561 20.9687 33.5616C20.8679 33.5621 20.8321 33.5715 20.8891 33.5825ZM44.5958 36.6438C44.6813 36.732 44.7616 36.8042 44.7743 36.8042C44.7868 36.8042 44.7272 36.732 44.6417 36.6438C44.5562 36.5555 44.4759 36.4833 44.4632 36.4833C44.4507 36.4833 44.5103 36.5555 44.5958 36.6438ZM28.8062 36.9875C28.9813 37.1639 29.1349 37.3083 29.1475 37.3083C29.1602 37.3083 29.0272 37.1639 28.852 36.9875C28.677 36.8111 28.5234 36.6667 28.5107 36.6667C28.4982 36.6667 28.6312 36.8111 28.8062 36.9875ZM32.2315 44.7792C32.2315 44.8674 32.2408 44.9035 32.2524 44.8594C32.2639 44.8153 32.2639 44.7431 32.2524 44.6989C32.2408 44.6548 32.2315 44.691 32.2315 44.7792ZM33.6579 45.2605C33.6578 45.4874 33.6655 45.586 33.6751 45.4795C33.6847 45.3731 33.6849 45.1875 33.6754 45.067C33.6659 44.9466 33.6581 45.0336 33.6579 45.2605ZM32.2315 45.7875C32.2315 45.8758 32.2408 45.9118 32.2524 45.8677C32.2639 45.8236 32.2639 45.7514 32.2524 45.7074C32.2408 45.6632 32.2315 45.6992 32.2315 45.7875Z" fill="#9CBCC4"/>
<path fill-rule="evenodd" clip-rule="evenodd" d="M19.1787 14.1395C19.1786 14.9211 19.1849 15.2472 19.1926 14.8643C19.2002 14.4815 19.2002 13.8421 19.1926 13.4435C19.1849 13.0449 19.1787 13.3581 19.1787 14.1395ZM29.5821 15.9042C29.5821 16.4966 29.5887 16.7388 29.5967 16.4427C29.6047 16.1465 29.6047 15.6618 29.5967 15.3656C29.5887 15.0694 29.5821 15.3117 29.5821 15.9042ZM17.0611 24.0254C17.0549 28.7064 17.0655 32.5458 17.0843 32.5575C17.1154 32.5768 17.1153 26.7525 17.0839 18.5855C17.0775 16.8964 17.0671 19.3445 17.0611 24.0254ZM29.035 25.4145C29.035 30.8595 29.0404 33.0803 29.0468 30.3494C29.0533 27.6187 29.0533 23.1637 29.0468 20.4494C29.0402 17.7353 29.035 19.9695 29.035 25.4145ZM18.309 18.0009L18.3104 19.0437L19.6854 19.0447L21.0604 19.0458L19.6977 19.0326L18.335 19.0195L18.3214 17.9888L18.3077 16.9583L18.309 18.0009ZM22.5185 19.0552C22.9171 19.0627 23.5565 19.0627 23.9393 19.0552C24.3222 19.0475 23.996 19.0411 23.2145 19.0413C22.4331 19.0413 22.1199 19.0475 22.5185 19.0552ZM26.0218 19.0552C26.4063 19.0627 27.0353 19.0627 27.4198 19.0552C27.8042 19.0475 27.4896 19.0411 26.7207 19.0411C25.952 19.0411 25.6374 19.0475 26.0218 19.0552ZM18.3079 19.8125C18.2957 19.8447 18.2916 20.3241 18.2989 20.8781L18.3122 21.8855L18.3228 20.8433L18.3332 19.8014L19.7198 19.7884L21.1062 19.7757L19.7183 19.7649C18.6286 19.7564 18.3255 19.7667 18.3079 19.8125ZM22.5185 19.7884C22.9171 19.7961 23.5565 19.7961 23.9393 19.7884C24.3222 19.7807 23.996 19.7746 23.2145 19.7746C22.4331 19.7746 22.1199 19.7809 22.5185 19.7884ZM26.0218 19.7884C26.4063 19.7961 27.0353 19.7961 27.4198 19.7884C27.8042 19.7807 27.4896 19.7746 26.7207 19.7746C25.952 19.7746 25.6374 19.7807 26.0218 19.7884ZM18.3071 23.627C18.3071 24.2069 18.3137 24.4377 18.3217 24.1402C18.3297 23.8425 18.3297 23.3681 18.3217 23.086C18.3136 22.8038 18.3071 23.0473 18.3071 23.627ZM32.5063 24.3023L32.4957 25.3441L31.4531 25.3573L30.4104 25.3705L31.4545 25.3811C32.2657 25.3894 32.5037 25.3786 32.521 25.3333C32.5334 25.3012 32.5374 24.8216 32.5301 24.2676L32.5168 23.2605L32.5063 24.3023ZM33.2508 24.3259L33.252 25.3687L34.2832 25.37L35.3145 25.3714L34.2956 25.3577L33.2766 25.3441L33.263 24.3137L33.2494 23.2833L33.2508 24.3259ZM31.4637 26.113L32.4941 26.1266L32.5077 27.1457L32.5213 28.1645L32.5199 27.1333L32.5187 26.102L31.4759 26.1008L30.4332 26.0994L31.4637 26.113ZM33.2497 26.1375C33.2374 26.1697 33.2333 26.6491 33.2406 27.2031L33.2539 28.2105L33.2645 27.1686L33.275 26.1268L34.3176 26.1134L35.3604 26.1002L34.3162 26.0897C33.5051 26.0815 33.2671 26.0921 33.2497 26.1375ZM21.8142 27.6261L21.6562 27.798L21.8281 27.64C21.988 27.493 22.021 27.4542 21.9861 27.4542C21.9784 27.4542 21.9011 27.5315 21.8142 27.6261ZM24.2457 27.6145C24.3313 27.7028 24.4116 27.775 24.4242 27.775C24.4367 27.775 24.3772 27.7028 24.2917 27.6145C24.2061 27.5264 24.1258 27.4542 24.1132 27.4542C24.1007 27.4542 24.1602 27.5264 24.2457 27.6145ZM38.4542 32.1494C38.4542 32.2362 38.47 32.3169 38.4894 32.3289C38.5088 32.3408 38.5169 32.2699 38.5074 32.1711C38.4863 31.9495 38.4542 31.9364 38.4542 32.1494ZM36.1281 33.217C36.2478 33.2265 36.4438 33.2265 36.5635 33.217C36.6832 33.2076 36.5853 33.1998 36.3457 33.1998C36.1064 33.1998 36.0083 33.2076 36.1281 33.217ZM29.7687 36.025C29.9437 36.2014 30.0973 36.3458 30.11 36.3458C30.1226 36.3458 29.9897 36.2014 29.8145 36.025C29.6395 35.8486 29.4859 35.7042 29.4732 35.7042C29.4607 35.7042 29.5937 35.8486 29.7687 36.025ZM44.1832 36.2227C44.1832 36.2306 44.2503 36.2977 44.3323 36.3716L44.4812 36.5062L44.3466 36.3573C44.2211 36.2185 44.1832 36.1872 44.1832 36.2227ZM44.9167 36.9645C45.0022 37.0528 45.0824 37.125 45.095 37.125C45.1077 37.125 45.048 37.0528 44.9625 36.9645C44.8769 36.8764 44.7966 36.8042 44.7841 36.8042C44.7715 36.8042 44.8311 36.8764 44.9167 36.9645ZM48.0448 44.527C48.0453 44.628 48.0547 44.6637 48.0657 44.6068C48.0767 44.5497 48.0763 44.4672 48.0647 44.4234C48.0533 44.3796 48.0444 44.4262 48.0448 44.527ZM8.81055 45.2833C8.81055 45.3716 8.82003 45.4076 8.83158 45.3636C8.84313 45.3194 8.84313 45.2473 8.83158 45.2031C8.82003 45.159 8.81055 45.1951 8.81055 45.2833ZM48.0448 45.352C48.0453 45.453 48.0547 45.4887 48.0657 45.4318C48.0767 45.3747 48.0763 45.2922 48.0647 45.2484C48.0533 45.2046 48.0444 45.2512 48.0448 45.352ZM28.8048 53.5906L28.5312 53.877L28.8176 53.6035C28.9752 53.4531 29.1042 53.3241 29.1042 53.317C29.1042 53.2832 29.0589 53.3246 28.8048 53.5906Z" fill="#548C9C"/>
</svg>
