<svg width="36" height="37" viewBox="0 0 36 37" fill="none" xmlns="http://www.w3.org/2000/svg">
<path d="M33 26H27V15.5H33V26ZM34.5 12.5H25.5C25.1022 12.5 24.7206 12.658 24.4393 12.9393C24.158 13.2206 24 13.6022 24 14V29C24 29.3978 24.158 29.7794 24.4393 30.0607C24.7206 30.342 25.1022 30.5 25.5 30.5H34.5C34.8978 30.5 35.2794 30.342 35.5607 30.0607C35.842 29.7794 36 29.3978 36 29V14C36 13.6022 35.842 13.2206 35.5607 12.9393C35.2794 12.658 34.8978 12.5 34.5 12.5ZM6 9.5H33V6.5H6C5.20435 6.5 4.44129 6.81607 3.87868 7.37868C3.31607 7.94129 3 8.70435 3 9.5V26H0V30.5H21V26H6V9.5Z" fill="#082244"/>
</svg>
