<svg width="16" height="17" viewBox="0 0 16 17" fill="none" xmlns="http://www.w3.org/2000/svg">
<path d="M14.6667 11.8334H12V7.16675H14.6667V11.8334ZM15.3333 5.83341H11.3333C11.1565 5.83341 10.987 5.90365 10.8619 6.02868C10.7369 6.1537 10.6667 6.32327 10.6667 6.50008V13.1667C10.6667 13.3436 10.7369 13.5131 10.8619 13.6382C10.987 13.7632 11.1565 13.8334 11.3333 13.8334H15.3333C15.5101 13.8334 15.6797 13.7632 15.8047 13.6382C15.9298 13.5131 16 13.3436 16 13.1667V6.50008C16 6.32327 15.9298 6.1537 15.8047 6.02868C15.6797 5.90365 15.5101 5.83341 15.3333 5.83341ZM2.66667 4.50008H14.6667V3.16675H2.66667C2.31304 3.16675 1.97391 3.30722 1.72386 3.55727C1.47381 3.80732 1.33333 4.14646 1.33333 4.50008V11.8334H0V13.8334H9.33333V11.8334H2.66667V4.50008Z" fill="white"/>
</svg>
