<svg width="218" height="218" viewBox="0 0 218 218" fill="none" xmlns="http://www.w3.org/2000/svg">
<path d="M216 110C216 169.647 167.647 218 108 218C48.3532 218 0 169.647 0 110C0 50.3532 48.3532 2 108 2C167.647 2 216 50.3532 216 110ZM54 110C54 139.823 78.1766 164 108 164C137.823 164 162 139.823 162 110C162 80.1766 137.823 56 108 56C78.1766 56 54 80.1766 54 110Z" fill="#C2D6FF"/>
<mask id="path-2-outside-1" maskUnits="userSpaceOnUse" x="106" y="0" width="112" height="146" fill="black">
<rect fill="white" x="106" width="112" height="146"/>
<path d="M108 2C125.044 2 141.845 6.0337 157.031 13.7713C172.217 21.5089 185.356 32.7307 195.374 46.5192C205.392 60.3077 212.004 76.2714 214.67 93.1051C217.337 109.939 215.981 127.164 210.714 143.374L159.357 126.687C161.99 118.582 162.668 109.969 161.335 101.553C160.002 93.1357 156.696 85.1538 151.687 78.2596C146.678 71.3653 140.108 65.7544 132.515 61.8856C124.923 58.0168 116.522 56 108 56V2Z"/>
</mask>
<path d="M108 2C125.044 2 141.845 6.0337 157.031 13.7713C172.217 21.5089 185.356 32.7307 195.374 46.5192C205.392 60.3077 212.004 76.2714 214.67 93.1051C217.337 109.939 215.981 127.164 210.714 143.374L159.357 126.687C161.99 118.582 162.668 109.969 161.335 101.553C160.002 93.1357 156.696 85.1538 151.687 78.2596C146.678 71.3653 140.108 65.7544 132.515 61.8856C124.923 58.0168 116.522 56 108 56V2Z" fill="#0357FF"/>
<path d="M108 2C125.044 2 141.845 6.0337 157.031 13.7713C172.217 21.5089 185.356 32.7307 195.374 46.5192C205.392 60.3077 212.004 76.2714 214.67 93.1051C217.337 109.939 215.981 127.164 210.714 143.374L159.357 126.687C161.99 118.582 162.668 109.969 161.335 101.553C160.002 93.1357 156.696 85.1538 151.687 78.2596C146.678 71.3653 140.108 65.7544 132.515 61.8856C124.923 58.0168 116.522 56 108 56V2Z" stroke="#F7F9FB" stroke-width="4" mask="url(#path-2-outside-1)"/>
</svg>
