<svg width="220" height="220" viewBox="0 0 220 220" fill="none" xmlns="http://www.w3.org/2000/svg">
<path d="M218 110C218 169.647 169.647 218 110 218C50.3532 218 2 169.647 2 110C2 50.3532 50.3532 2 110 2C169.647 2 218 50.3532 218 110ZM56 110C56 139.823 80.1766 164 110 164C139.823 164 164 139.823 164 110C164 80.1766 139.823 56 110 56C80.1766 56 56 80.1766 56 110Z" fill="#C2D6FF"/>
<mask id="path-2-outside-1" maskUnits="userSpaceOnUse" x="0" y="0" width="221" height="221" fill="black">
<rect fill="white" width="221" height="221"/>
<path d="M110 2C136.299 2 161.694 11.5961 181.422 28.988C201.149 46.3799 213.852 70.3723 217.148 96.464C220.445 122.556 214.107 148.954 199.325 170.705C184.542 192.456 162.331 208.067 136.858 214.607C111.386 221.147 84.4016 218.168 60.969 206.229C37.5364 194.289 19.2655 174.21 9.58413 149.757C-0.0971999 125.305 -0.523611 98.1606 8.38489 73.4163C17.2934 48.672 34.9246 28.0285 57.9706 15.3589L83.9853 62.6794C72.4623 69.0143 63.6467 79.336 59.1924 91.7081C54.7382 104.08 54.9514 117.653 59.7921 129.879C64.6327 142.105 73.7682 152.145 85.4845 158.114C97.2008 164.084 110.693 165.574 123.429 162.303C136.166 159.033 147.271 151.228 154.662 140.353C162.053 129.477 165.222 116.278 163.574 103.232C161.926 90.1862 155.574 78.1899 145.711 69.494C135.847 60.7981 123.15 56 110 56V2Z"/>
</mask>
<path d="M110 2C136.299 2 161.694 11.5961 181.422 28.988C201.149 46.3799 213.852 70.3723 217.148 96.464C220.445 122.556 214.107 148.954 199.325 170.705C184.542 192.456 162.331 208.067 136.858 214.607C111.386 221.147 84.4016 218.168 60.969 206.229C37.5364 194.289 19.2655 174.21 9.58413 149.757C-0.0971999 125.305 -0.523611 98.1606 8.38489 73.4163C17.2934 48.672 34.9246 28.0285 57.9706 15.3589L83.9853 62.6794C72.4623 69.0143 63.6467 79.336 59.1924 91.7081C54.7382 104.08 54.9514 117.653 59.7921 129.879C64.6327 142.105 73.7682 152.145 85.4845 158.114C97.2008 164.084 110.693 165.574 123.429 162.303C136.166 159.033 147.271 151.228 154.662 140.353C162.053 129.477 165.222 116.278 163.574 103.232C161.926 90.1862 155.574 78.1899 145.711 69.494C135.847 60.7981 123.15 56 110 56V2Z" fill="#3D7EFF"/>
<path d="M110 2C136.299 2 161.694 11.5961 181.422 28.988C201.149 46.3799 213.852 70.3723 217.148 96.464C220.445 122.556 214.107 148.954 199.325 170.705C184.542 192.456 162.331 208.067 136.858 214.607C111.386 221.147 84.4016 218.168 60.969 206.229C37.5364 194.289 19.2655 174.21 9.58413 149.757C-0.0971999 125.305 -0.523611 98.1606 8.38489 73.4163C17.2934 48.672 34.9246 28.0285 57.9706 15.3589L83.9853 62.6794C72.4623 69.0143 63.6467 79.336 59.1924 91.7081C54.7382 104.08 54.9514 117.653 59.7921 129.879C64.6327 142.105 73.7682 152.145 85.4845 158.114C97.2008 164.084 110.693 165.574 123.429 162.303C136.166 159.033 147.271 151.228 154.662 140.353C162.053 129.477 165.222 116.278 163.574 103.232C161.926 90.1862 155.574 78.1899 145.711 69.494C135.847 60.7981 123.15 56 110 56V2Z" stroke="#F7F9FB" stroke-width="4" mask="url(#path-2-outside-1)"/>
<mask id="path-3-outside-2" maskUnits="userSpaceOnUse" x="-1" y="0" width="222" height="220" fill="black">
<rect fill="white" x="-1" width="222" height="220"/>
<path d="M110 2C134.841 2 158.922 10.5632 178.186 26.2465C197.45 41.9298 210.719 63.7743 215.756 88.099C220.793 112.424 217.292 137.741 205.841 159.785C194.39 181.829 175.69 199.252 152.892 209.118C130.094 218.983 104.593 220.688 80.6844 213.945C56.7763 207.202 35.9234 192.424 21.6398 172.101C7.35625 151.777 0.515264 127.151 2.2697 102.372C4.02414 77.5935 14.2667 54.177 31.2714 36.0689L70.6357 73.0344C62.1334 82.0885 57.0121 93.7968 56.1348 106.186C55.2576 118.575 58.6781 130.889 65.8199 141.05C72.9617 151.212 83.3881 158.601 95.3422 161.973C107.296 165.344 120.047 164.491 131.446 159.559C142.845 154.626 152.195 145.915 157.92 134.893C163.646 123.871 165.397 111.212 162.878 99.0495C160.359 86.8872 153.725 75.9649 144.093 68.1232C134.461 60.2816 122.42 56 110 56V2Z"/>
</mask>
<path d="M110 2C134.841 2 158.922 10.5632 178.186 26.2465C197.45 41.9298 210.719 63.7743 215.756 88.099C220.793 112.424 217.292 137.741 205.841 159.785C194.39 181.829 175.69 199.252 152.892 209.118C130.094 218.983 104.593 220.688 80.6844 213.945C56.7763 207.202 35.9234 192.424 21.6398 172.101C7.35625 151.777 0.515264 127.151 2.2697 102.372C4.02414 77.5935 14.2667 54.177 31.2714 36.0689L70.6357 73.0344C62.1334 82.0885 57.0121 93.7968 56.1348 106.186C55.2576 118.575 58.6781 130.889 65.8199 141.05C72.9617 151.212 83.3881 158.601 95.3422 161.973C107.296 165.344 120.047 164.491 131.446 159.559C142.845 154.626 152.195 145.915 157.92 134.893C163.646 123.871 165.397 111.212 162.878 99.0495C160.359 86.8872 153.725 75.9649 144.093 68.1232C134.461 60.2816 122.42 56 110 56V2Z" fill="#0357FF"/>
<path d="M110 2C134.841 2 158.922 10.5632 178.186 26.2465C197.45 41.9298 210.719 63.7743 215.756 88.099C220.793 112.424 217.292 137.741 205.841 159.785C194.39 181.829 175.69 199.252 152.892 209.118C130.094 218.983 104.593 220.688 80.6844 213.945C56.7763 207.202 35.9234 192.424 21.6398 172.101C7.35625 151.777 0.515264 127.151 2.2697 102.372C4.02414 77.5935 14.2667 54.177 31.2714 36.0689L70.6357 73.0344C62.1334 82.0885 57.0121 93.7968 56.1348 106.186C55.2576 118.575 58.6781 130.889 65.8199 141.05C72.9617 151.212 83.3881 158.601 95.3422 161.973C107.296 165.344 120.047 164.491 131.446 159.559C142.845 154.626 152.195 145.915 157.92 134.893C163.646 123.871 165.397 111.212 162.878 99.0495C160.359 86.8872 153.725 75.9649 144.093 68.1232C134.461 60.2816 122.42 56 110 56V2Z" stroke="#F7F9FB" stroke-width="4" mask="url(#path-3-outside-2)"/>
</svg>
