<svg width="50" height="50" viewBox="0 0 50 50" fill="none" xmlns="http://www.w3.org/2000/svg">
<path fill-rule="evenodd" clip-rule="evenodd" d="M39.6084 21.4149C39.5488 21.4867 39.5144 28.7019 39.5731 28.797C39.5941 28.831 39.9098 28.85 40.4523 28.85H41.2988L41.3119 25.1625C41.3191 23.12 41.3055 21.4471 41.2814 21.4125C41.2179 21.3216 39.684 21.3239 39.6084 21.4149ZM15.0875 21.6345C14.9479 21.671 14.9468 21.7052 14.9613 25.35L14.975 28.825H17.6728H20.3705L20.3978 28.7114C20.4128 28.6489 20.4138 28.2776 20.4 27.8864L20.375 27.175L18.6666 27.15C17.727 27.1362 16.9395 27.1062 16.9166 27.0834C16.8938 27.0605 16.869 25.8455 16.8618 24.3834C16.8498 21.9635 16.841 21.7194 16.7648 21.6625C16.6831 21.6017 15.3013 21.5786 15.0875 21.6345ZM23.525 23.182C23.4425 23.1947 23.3041 23.2377 23.2175 23.2776C23.1308 23.3174 22.9958 23.3501 22.9175 23.3502C22.7711 23.3504 22.2658 23.5774 22.0586 23.7359C21.8194 23.9192 21.35 24.4132 21.35 24.4819C21.35 24.5211 21.3174 24.5656 21.2774 24.581C21.2375 24.5962 21.1784 24.6912 21.1461 24.7919C21.1138 24.8926 21.0585 25.0087 21.0233 25.05C20.8259 25.281 20.8273 26.9116 21.0251 27.15C21.0594 27.1912 21.1145 27.3094 21.1475 27.4125C21.1806 27.5156 21.2236 27.6 21.2431 27.6C21.2625 27.6 21.3215 27.6731 21.3741 27.7625C21.5608 28.0792 22.2604 28.65 22.4623 28.65C22.5031 28.65 22.5938 28.695 22.6636 28.75C22.738 28.8085 22.8665 28.85 22.9733 28.85C23.0738 28.85 23.3176 28.8752 23.5154 28.9061C23.9931 28.9806 24.7706 28.891 25.1258 28.7205C25.2636 28.6542 25.4155 28.6 25.4633 28.6C25.511 28.6 25.55 28.5826 25.55 28.5612C25.55 28.54 25.6794 28.4266 25.8375 28.3094C25.9956 28.1921 26.1925 28.0061 26.275 27.896C26.3575 27.7859 26.4756 27.6372 26.5375 27.5656C26.5994 27.494 26.65 27.3927 26.65 27.3406C26.65 27.2886 26.7006 27.1775 26.7625 27.0937C26.8689 26.9499 26.875 26.895 26.875 26.0832C26.875 25.2801 26.8678 25.2134 26.7625 25.0441C26.7006 24.9446 26.6496 24.8321 26.6491 24.7941C26.647 24.6385 26.0488 23.9286 25.7905 23.7752C25.4091 23.5487 24.9665 23.35 24.8435 23.35C24.7619 23.35 24.6294 23.316 24.549 23.2745C24.3979 23.1964 23.7881 23.1412 23.525 23.182ZM29.9673 23.2527C29.9383 23.2817 29.7626 23.327 29.577 23.3532C29.3768 23.3816 29.188 23.4415 29.113 23.5005C29.0434 23.5552 28.9413 23.6 28.886 23.6C28.8308 23.6 28.7381 23.6465 28.6803 23.7032C28.6224 23.7601 28.4625 23.9142 28.325 24.0459C27.9791 24.3769 27.8 24.5961 27.8 24.6887C27.8 24.7319 27.7638 24.8072 27.7194 24.8562C27.4393 25.1657 27.4278 27.3 27.7063 27.3C27.7296 27.3 27.7819 27.3795 27.8225 27.4767C27.8631 27.574 27.9309 27.6881 27.9731 27.7304C28.0154 27.7726 28.0506 27.8336 28.0515 27.8661C28.0543 27.9707 29.0046 28.6474 29.1514 28.6491C29.1934 28.6496 29.2791 28.686 29.3419 28.7299C29.4115 28.7787 29.693 28.838 30.0655 28.8822C31.1833 29.0152 31.8069 28.8187 32.4625 28.1272C32.7816 27.7906 32.749 27.7172 32.075 27.2555C31.9375 27.1612 31.807 27.054 31.785 27.0171C31.7064 26.8851 31.4713 26.9421 31.2464 27.1476C30.7338 27.6164 29.8599 27.4682 29.4445 26.8422C29.2365 26.5287 29.2243 25.5976 29.425 25.3591C29.4938 25.2774 29.55 25.1966 29.55 25.1796C29.55 25.1102 29.8844 24.8525 30.0119 24.8235C30.0873 24.8064 30.1618 24.7715 30.1774 24.7461C30.1931 24.7207 30.3158 24.7 30.45 24.7C30.5843 24.7 30.7069 24.7207 30.7226 24.7461C30.7383 24.7715 30.8184 24.8071 30.9006 24.8251C30.9829 24.8432 31.142 24.9461 31.2541 25.054C31.4931 25.2836 31.4954 25.284 31.713 25.1364C32.4179 24.658 32.667 24.4244 32.6298 24.2764C32.6004 24.1589 32.328 23.85 32.2539 23.85C32.2328 23.85 32.175 23.8054 32.1256 23.7507C31.9946 23.6059 31.4621 23.3651 31.1886 23.3271C31.0586 23.309 30.9393 23.273 30.9233 23.2471C30.8833 23.1824 30.0326 23.1874 29.9673 23.2527ZM35.3441 23.2502C35.2998 23.2762 35.0548 23.3211 34.7998 23.35C34.5448 23.3789 34.2774 23.4332 34.2055 23.4706C34.1338 23.5081 34.0101 23.5646 33.9308 23.5964C33.7574 23.6656 33.7645 23.9909 33.947 24.3314C34.0036 24.437 34.05 24.597 34.05 24.6867C34.05 24.8897 34.2158 24.9102 34.4894 24.7411C34.7576 24.5754 36.0375 24.5706 36.3009 24.7344C36.7961 25.0425 36.9344 25.8506 36.458 25.6534C36.1389 25.5211 34.5616 25.5687 34.28 25.7191C34.1454 25.7911 34.0104 25.8501 33.98 25.8502C33.9305 25.8505 33.7144 26.0427 33.4915 26.285C33.4455 26.335 33.3923 26.4431 33.373 26.5254C33.3539 26.6076 33.3055 26.7272 33.2656 26.791C33.1673 26.9484 33.1715 27.5337 33.2723 27.7271C33.3146 27.8085 33.3495 27.9222 33.3498 27.9801C33.35 28.0892 33.823 28.65 33.9149 28.65C33.9436 28.65 34.0081 28.6871 34.0583 28.7324C34.1846 28.8467 35.0968 28.9629 35.371 28.8995C35.4833 28.8736 35.6566 28.8519 35.7564 28.8512C35.8629 28.8505 35.9661 28.8159 36.0064 28.7672C36.0441 28.7217 36.1481 28.654 36.2375 28.6166C36.3269 28.5792 36.4 28.528 36.4 28.5027C36.4 28.2975 36.7264 28.4284 36.7758 28.6535C36.8183 28.8469 36.8718 28.8564 37.825 28.8392L38.625 28.825V26.925C38.625 25.2545 38.615 25.0056 38.5421 24.8642C38.4966 24.7757 38.4443 24.6136 38.4256 24.5039C38.384 24.2571 37.8598 23.6819 37.5958 23.5931C37.5018 23.5616 37.3888 23.5046 37.3445 23.4665C37.3003 23.4284 37.0814 23.3764 36.858 23.3509C36.6348 23.3255 36.4081 23.2811 36.3543 23.2522C36.2331 23.1875 35.4544 23.1859 35.3441 23.2502ZM24.2409 24.7837C24.2773 24.8201 24.3505 24.85 24.4034 24.85C24.5225 24.85 24.8835 25.1691 24.9299 25.3154C24.9486 25.3746 25.0083 25.4827 25.0623 25.5559C25.1911 25.7301 25.1779 26.5695 25.0448 26.6667C25.0006 26.699 24.9489 26.7749 24.9296 26.8355C24.9104 26.896 24.8228 27.003 24.7349 27.0731C24.6469 27.1431 24.534 27.2397 24.4839 27.2877C24.3506 27.4154 23.4206 27.4142 23.3271 27.2864C23.2924 27.2389 23.2425 27.2 23.2164 27.2C23.1356 27.2 22.9118 26.9372 22.7776 26.6849C22.4266 26.0246 22.797 24.9422 23.4125 24.8297C23.5156 24.8109 23.6 24.7755 23.6 24.751C23.6 24.6399 24.1238 24.6666 24.2409 24.7837ZM36.6065 26.4625C36.8126 26.633 36.8996 26.9109 36.8024 27.0881C36.7763 27.1359 36.7191 27.2537 36.6754 27.35C36.386 27.9875 35.2458 28.0102 35.0523 27.3824C34.9353 27.0026 35.1171 26.601 35.475 26.4489C35.6368 26.3801 36.5196 26.3907 36.6065 26.4625Z" fill="#0C3151"/>
<path fill-rule="evenodd" clip-rule="evenodd" d="M0 25V50H25H50V25V0H25H0V25ZM41.3957 21.289L41.55 21.403V25.0938C41.55 28.6649 41.5469 28.7873 41.4544 28.871C41.3109 29.0009 39.5386 29.0005 39.3951 28.8706C39.3033 28.7875 39.3 28.6585 39.3 25.1268C39.3 21.2566 39.2912 21.4026 39.531 21.2449C39.7319 21.1126 41.2042 21.1475 41.3957 21.289ZM16.9 21.5489C16.9646 21.5898 16.9785 21.963 17 24.2405C17.0203 26.3804 17.0381 26.9005 17.0936 26.9674C17.1549 27.0411 17.3384 27.0501 18.7936 27.0508C19.6909 27.0511 20.4552 27.0706 20.4921 27.0941C20.581 27.1504 20.6161 28.7596 20.531 28.8738C20.4376 28.999 14.954 28.9915 14.8623 28.866C14.7643 28.7319 14.7945 21.7021 14.8936 21.5826C14.9721 21.4881 16.7561 21.4581 16.9 21.5489ZM12.4242 23.1933C12.5339 23.252 12.6729 23.3 12.7332 23.3C12.7935 23.3 12.8738 23.3309 12.9114 23.3685C12.949 23.4062 13.0462 23.4719 13.1275 23.5145C13.4247 23.6705 14.05 24.4088 14.05 24.6038C14.05 24.6323 14.0945 24.7532 14.149 24.8727C14.2034 24.9922 14.261 25.2216 14.277 25.3825C14.293 25.5434 14.3286 25.8235 14.3562 26.0049C14.4004 26.2945 14.3949 26.3555 14.3115 26.5049L14.2165 26.675L12.4458 26.7L10.675 26.725L10.6886 26.8469C10.7414 27.3205 11.706 27.6554 12.225 27.3801C12.3075 27.3364 12.4032 27.3005 12.4379 27.3002C12.4724 27.3001 12.5496 27.2437 12.6094 27.175C12.6974 27.0737 12.7641 27.05 12.9613 27.05C13.1541 27.05 13.2305 27.0759 13.3295 27.175C13.3983 27.2437 13.4679 27.3 13.484 27.3C13.5003 27.3 13.563 27.3506 13.6235 27.4125C13.684 27.4744 13.8048 27.581 13.8918 27.6495C14.1626 27.8624 13.9219 28.3911 13.4919 28.5276C13.4414 28.5436 13.4 28.5749 13.4 28.5969C13.4 28.7174 12.5996 29.0119 12.005 29.1103C11.5818 29.1803 10.3908 28.9941 10.2009 28.8281C10.1591 28.7916 10.072 28.7456 10.0074 28.7259C9.73962 28.6441 9.05 28.0606 9.05 27.9158C9.05 27.8796 9.027 27.85 8.99875 27.85C8.97062 27.85 8.92437 27.7881 8.89625 27.7125C8.868 27.6369 8.80475 27.4962 8.75575 27.4C8.562 27.02 8.47275 26.1106 8.57275 25.5368C8.65588 25.0604 8.91912 24.35 9.0125 24.35C9.03312 24.35 9.05 24.3185 9.05 24.28C9.05 24.1225 10.0115 23.3036 10.2 23.3006C10.2412 23.2999 10.3425 23.2626 10.425 23.2176C10.7981 23.0144 12.0617 22.9989 12.4242 23.1933ZM24.8822 23.1583C24.9332 23.2041 25.0605 23.2574 25.165 23.2768C25.2694 23.2961 25.3819 23.3375 25.415 23.3685C25.448 23.3996 25.5594 23.464 25.6625 23.5117C25.7656 23.5594 25.85 23.6213 25.85 23.6493C25.85 23.6771 25.8798 23.7 25.916 23.7C25.9523 23.7 26.0309 23.7563 26.0906 23.825C26.1504 23.8938 26.222 23.95 26.2496 23.95C26.2774 23.95 26.3 23.9736 26.3 24.0025C26.3 24.0314 26.3786 24.136 26.4749 24.235C26.6561 24.4216 26.95 24.955 26.95 25.0972C26.95 25.1419 26.995 25.3065 27.05 25.463C27.1094 25.6319 27.15 25.8756 27.15 26.063C27.15 26.2502 27.1094 26.494 27.05 26.663C26.995 26.8195 26.95 27.0012 26.95 27.067C26.95 27.1327 26.9098 27.2401 26.8605 27.3057C26.8113 27.3714 26.7439 27.4877 26.7108 27.5644C26.6483 27.7087 26.5984 27.7793 26.4198 27.9748C26.3619 28.0381 26.2999 28.1281 26.282 28.1747C26.2641 28.2214 26.2046 28.2713 26.1497 28.2856C26.0949 28.2999 26.05 28.3312 26.05 28.3552C26.05 28.4606 25.2126 28.9179 24.9189 28.9727C24.8122 28.9926 24.6948 29.0339 24.6579 29.0644C24.5228 29.1761 23.459 29.1689 23.106 29.0539C22.9305 28.9967 22.7367 28.95 22.6752 28.95C22.6137 28.95 22.5062 28.905 22.4364 28.85C22.3664 28.795 22.2926 28.75 22.2722 28.75C22.2042 28.75 21.7 28.3953 21.7 28.3474C21.7 28.3213 21.6663 28.3 21.625 28.3C21.5837 28.3 21.55 28.2809 21.55 28.2574C21.55 28.234 21.4881 28.1465 21.4125 28.063C21.1288 27.7497 21.05 27.639 21.05 27.5535C21.05 27.5051 21.0069 27.4265 20.9541 27.3787C20.8979 27.3279 20.8442 27.1904 20.8245 27.046C20.8059 26.9107 20.772 26.8 20.7493 26.8C20.6215 26.8 20.5969 25.7067 20.7186 25.438C20.7592 25.3484 20.8084 25.1963 20.8277 25.1C20.8471 25.0038 20.9051 24.8714 20.9565 24.8057C21.0079 24.7401 21.05 24.6577 21.05 24.6225C21.05 24.5095 21.7846 23.7 21.8871 23.7C21.9218 23.7 21.95 23.6781 21.95 23.6513C21.95 23.6245 22.022 23.5654 22.11 23.5198C22.1981 23.4743 22.2982 23.4089 22.3326 23.3745C22.367 23.3401 22.4806 23.2961 22.585 23.2768C22.6895 23.2574 22.8088 23.2116 22.85 23.175C23.0186 23.0252 24.7185 23.0113 24.8822 23.1583ZM31.4242 23.1906C31.5339 23.2507 31.6616 23.3 31.7083 23.3C31.7548 23.3 31.8238 23.3309 31.8614 23.3685C31.899 23.4062 31.9962 23.4719 32.0775 23.5146C32.2696 23.6156 32.6293 23.9555 32.7819 24.1803L32.9022 24.3579L32.7689 24.5164C32.648 24.6601 32.5014 24.7747 32.24 24.9304C32.1888 24.9609 32.1083 25.0223 32.061 25.0669C31.6653 25.4406 31.4606 25.497 31.2607 25.2875C31.0166 25.0318 30.9442 24.986 30.7151 24.943C30.3926 24.8825 30.0734 24.9367 29.9018 25.0812C29.8241 25.1465 29.7356 25.2 29.7052 25.2C29.6749 25.2 29.65 25.229 29.65 25.2644C29.65 25.2999 29.6029 25.418 29.5454 25.5269C28.9214 26.708 30.3394 27.8335 31.2768 26.9013C31.435 26.7438 31.7375 26.7647 31.9519 26.948C32.0471 27.0294 32.1477 27.0969 32.1755 27.098C32.2032 27.0991 32.254 27.145 32.2884 27.2C32.3228 27.255 32.3794 27.3 32.4142 27.3C32.4492 27.3 32.5145 27.3394 32.5592 27.3875C32.6041 27.4356 32.6991 27.5154 32.7704 27.5649C32.9747 27.7065 32.9426 27.8841 32.6596 28.1766C32.4138 28.4307 32.0316 28.75 31.9734 28.75C31.9554 28.75 31.8836 28.795 31.8136 28.85C31.7438 28.905 31.6452 28.95 31.5947 28.95C31.5444 28.95 31.4105 28.9983 31.2975 29.0571C31.0756 29.1728 29.9751 29.1743 29.8358 29.0591C29.8024 29.0315 29.685 28.9939 29.575 28.9755C29.3608 28.9396 28.768 28.6746 28.6589 28.5659C28.6226 28.5296 28.5615 28.5 28.5233 28.5C28.4849 28.5 28.4294 28.455 28.4 28.4C28.3706 28.345 28.315 28.3 28.2766 28.3C28.2381 28.3 28.1929 28.2561 28.1758 28.2025C28.1588 28.149 28.101 28.0912 28.0475 28.0742C27.9939 28.0571 27.95 28.0119 27.95 27.9734C27.95 27.935 27.905 27.8794 27.85 27.85C27.795 27.8206 27.75 27.7679 27.75 27.733C27.75 27.698 27.6938 27.5931 27.625 27.5C27.5562 27.4069 27.5 27.289 27.5 27.2383C27.5 27.1875 27.455 27.0578 27.4 26.95C27.2564 26.6684 27.2523 25.4905 27.3939 25.2105C27.4455 25.1085 27.5039 24.9504 27.5236 24.8591C27.5432 24.7679 27.591 24.6811 27.6297 24.6663C27.6684 24.6515 27.7 24.6081 27.7 24.5701C27.7 24.2371 28.919 23.2509 29.3314 23.2502C29.3899 23.2501 29.4648 23.2175 29.4976 23.1777C29.6369 23.0101 31.1135 23.02 31.4242 23.1906ZM36.9123 23.162C36.9789 23.2056 37.1377 23.257 37.2654 23.2761C37.3929 23.2952 37.5464 23.3535 37.6064 23.4055C37.6663 23.4575 37.7491 23.5 37.7906 23.5C37.8763 23.5 38.5 24.1328 38.5 24.2196C38.5 24.2509 38.5506 24.3661 38.6125 24.4757C38.7316 24.6867 38.8197 28.7221 38.709 28.8899C38.6765 28.939 38.431 28.9565 37.7016 28.9616C36.6506 28.969 36.6 28.9555 36.6 28.6671C36.6 28.5541 36.2239 28.74 36.1234 28.9026C36.1072 28.9287 36.0448 28.9501 35.9845 28.9503C35.9243 28.9505 35.8075 28.9887 35.725 29.0352C35.515 29.1539 34.6405 29.1526 34.425 29.0335C34.3425 28.988 34.2223 28.9505 34.1579 28.9503C33.9625 28.9498 33.3928 28.4774 33.2976 28.237C33.2624 28.1479 33.1979 28.0333 33.1543 27.9823C33.0153 27.8196 33.0407 26.6663 33.1875 26.4796C33.2494 26.4009 33.3 26.3124 33.3 26.2829C33.3 26.2025 33.7756 25.7645 33.9087 25.7222C33.9725 25.702 34.0472 25.6546 34.0747 25.6169C34.1024 25.5792 34.269 25.5253 34.4451 25.4969C34.6211 25.4685 34.8054 25.4239 34.8544 25.3976C34.9906 25.3247 35.6604 25.341 35.9831 25.425C36.5436 25.571 36.8278 25.4171 36.506 25.1418C36.4544 25.0975 36.4038 25.0419 36.3935 25.0181C36.2868 24.7698 35.3875 24.67 34.825 24.8442C34.4428 24.9626 34.0931 25.0115 34.0106 24.9583C33.9366 24.9106 33.7026 24.277 33.701 24.1201C33.7005 24.0625 33.6659 23.9471 33.6242 23.8636C33.4897 23.5939 33.7929 23.3398 34.325 23.2763C34.49 23.2565 34.6556 23.2151 34.6931 23.1844C34.8776 23.0328 36.6873 23.0146 36.9123 23.162ZM11.2165 24.6963C10.9409 24.765 10.55 25.2185 10.55 25.4696C10.55 25.5224 12.2918 25.5038 12.3246 25.4505C12.4125 25.3085 11.9442 24.7 11.7471 24.7C11.7006 24.7 11.5979 24.6903 11.5188 24.6784C11.4396 24.6664 11.3038 24.6745 11.2165 24.6963ZM23.614 24.945C23.3559 24.9817 22.9509 25.298 22.9482 25.465C22.9472 25.5255 22.9143 25.6313 22.875 25.7C22.6918 26.0206 22.9987 27.05 23.2776 27.05C23.31 27.05 23.3937 27.095 23.4636 27.15C23.6236 27.2759 24.2009 27.2945 24.2984 27.1769C24.3317 27.1367 24.4028 27.09 24.4561 27.073C24.6113 27.0237 24.7969 26.8093 24.8796 26.5836C25.0553 26.1046 25.0599 26.0617 24.9608 25.8375C24.9091 25.7206 24.8525 25.5674 24.8349 25.4969C24.7896 25.3161 24.4252 24.9954 24.2079 24.9449C24.0105 24.899 23.9376 24.899 23.614 24.945ZM35.4169 26.6881C35.2736 26.778 35.1998 26.864 35.1796 26.9644C35.1399 27.1632 35.199 27.5 35.2736 27.5C35.3071 27.5 35.3752 27.545 35.425 27.6C35.5407 27.7279 36.0713 27.747 36.1181 27.625C36.1339 27.5837 36.1826 27.55 36.2262 27.55C36.4967 27.55 36.7428 26.8128 36.54 26.61C36.4176 26.4876 35.652 26.5409 35.4169 26.6881Z" fill="#EFEFEF"/>
<path fill-rule="evenodd" clip-rule="evenodd" d="M10.9346 23.149C10.8024 23.173 10.6674 23.2141 10.6346 23.2405C10.6019 23.2669 10.4983 23.3049 10.4045 23.325C10.0043 23.4106 9.22713 24.0732 9.01975 24.5056C8.96188 24.6262 8.86063 24.8366 8.79476 24.973C8.62251 25.3299 8.61163 26.9036 8.77938 27.225C8.83676 27.335 8.93801 27.5337 9.00438 27.6666C9.26113 28.181 10.2474 28.9007 10.6938 28.8996C10.766 28.8995 11.0195 28.9366 11.2574 28.9821C11.6931 29.0656 12.7901 28.9374 12.8796 28.7925C12.8946 28.7682 12.9875 28.7147 13.0863 28.6735C13.3018 28.5835 13.9275 28.0809 13.9735 27.9607C14.0062 27.8757 13.928 27.7897 13.4275 27.3604C13.0789 27.0614 12.8785 27.0212 12.6879 27.2125C12.3485 27.5529 11.3548 27.7039 11.125 27.45C11.0753 27.395 11.0125 27.35 10.9855 27.35C10.9005 27.35 10.5 26.8581 10.5 26.7537C10.5 26.6201 10.7518 26.6 12.423 26.6H14.1525L14.2064 26.4625C14.276 26.2847 14.22 25.3355 14.1275 25.1279C14.09 25.0439 14.0442 24.9075 14.0259 24.825C13.7905 23.7716 12.2145 22.9171 10.9346 23.149ZM11.85 24.656C12.156 24.8165 12.3785 25.08 12.4315 25.3449C12.4781 25.578 12.3668 25.6042 11.394 25.5886C10.3266 25.5716 10.3264 25.5715 10.6226 25.0554C10.8831 24.6017 11.4159 24.4284 11.85 24.656Z" fill="#C55E1F"/>
<path fill-rule="evenodd" clip-rule="evenodd" d="M39.531 21.2448C39.2913 21.4026 39.3 21.2566 39.3 25.1267C39.3 28.6585 39.3033 28.7875 39.3951 28.8706C39.5386 29.0005 41.3109 29.0008 41.4544 28.871C41.5469 28.7872 41.55 28.6648 41.55 25.0937V21.4029L41.3958 21.2889C41.2043 21.1474 39.7319 21.1126 39.531 21.2448ZM41.3209 21.3303C41.4419 21.3767 41.4419 28.8232 41.3209 28.8696C41.118 28.9475 39.5588 28.9016 39.4724 28.8152C39.3725 28.7153 39.4105 21.4869 39.5115 21.3624C39.5649 21.2967 41.1596 21.2684 41.3209 21.3303ZM14.8936 21.5826C14.7945 21.7021 14.7643 28.7318 14.8623 28.866C14.954 28.9915 20.4376 28.999 20.531 28.8737C20.6161 28.7596 20.581 27.1503 20.4921 27.0941C20.4553 27.0706 19.6909 27.0511 18.7936 27.0507C17.3384 27.0501 17.1549 27.0411 17.0936 26.9673C17.0381 26.9005 17.0203 26.3803 17 24.2404C16.9785 21.9629 16.9646 21.5897 16.9 21.5488C16.7561 21.4581 14.9721 21.4881 14.8936 21.5826ZM16.8393 21.6124C16.8723 21.6523 16.9041 22.6443 16.9275 24.3584C16.964 27.0306 16.9646 27.0421 17.0696 27.0703C17.1276 27.0858 17.8961 27.099 18.7775 27.0993C19.9564 27.0998 20.3959 27.1158 20.44 27.16C20.5309 27.2508 20.5235 28.7682 20.4319 28.8442C20.3826 28.8852 19.611 28.8972 17.6444 28.8878L14.925 28.875L14.912 25.275C14.9 21.9349 14.9051 21.6704 14.9841 21.6124C15.0444 21.5682 15.3196 21.5499 15.9284 21.5499C16.5551 21.5499 16.8018 21.5668 16.8393 21.6124ZM10.75 23.0953C10.6538 23.1176 10.5075 23.1726 10.425 23.2176C10.3425 23.2626 10.2413 23.2998 10.2 23.3006C10.0115 23.3036 9.05 24.1224 9.05 24.2799C9.05 24.3184 9.03313 24.3499 9.0125 24.3499C8.91913 24.3499 8.65588 25.0603 8.57275 25.5367C8.47275 26.1106 8.562 27.02 8.75575 27.4C8.80475 27.4962 8.868 27.6368 8.89625 27.7125C8.92438 27.7881 8.97063 27.85 8.99875 27.85C9.027 27.85 9.05 27.8796 9.05 27.9157C9.05 28.0606 9.73963 28.6441 10.0074 28.7258C10.072 28.7456 10.1591 28.7916 10.2009 28.8281C10.3908 28.9941 11.5818 29.1802 12.005 29.1102C12.5996 29.0118 13.4 28.7173 13.4 28.5968C13.4 28.5748 13.4414 28.5436 13.4919 28.5276C13.9219 28.3911 14.1626 27.8623 13.8918 27.6495C13.8048 27.581 13.684 27.4743 13.6235 27.4125C13.563 27.3506 13.5003 27.3 13.484 27.3C13.4679 27.3 13.3983 27.2437 13.3295 27.175C13.2305 27.0758 13.1541 27.05 12.9613 27.05C12.7641 27.05 12.6974 27.0737 12.6094 27.175C12.5496 27.2437 12.4724 27.3001 12.4379 27.3002C12.4033 27.3005 12.3075 27.3363 12.225 27.3801C11.706 27.6553 10.7414 27.3205 10.6886 26.8468L10.675 26.725L12.4458 26.7L14.2165 26.675L14.3115 26.5048C14.3949 26.3555 14.4004 26.2945 14.3563 26.0048C14.3286 25.8235 14.293 25.5433 14.277 25.3825C14.261 25.2216 14.2034 24.9922 14.149 24.8727C14.0945 24.7532 14.05 24.6322 14.05 24.6037C14.05 24.4087 13.4248 23.6704 13.1275 23.5144C13.0463 23.4718 12.949 23.4062 12.9114 23.3684C12.8738 23.3308 12.7935 23.2999 12.7333 23.2999C12.6729 23.2999 12.5339 23.2519 12.4243 23.1932C12.2055 23.0759 11.11 23.0119 10.75 23.0953ZM23.075 23.0841C22.9925 23.0974 22.8913 23.1383 22.85 23.1749C22.8088 23.2116 22.6895 23.2573 22.585 23.2767C22.4806 23.2961 22.367 23.3401 22.3326 23.3744C22.2983 23.4088 22.1981 23.4742 22.11 23.5197C22.022 23.5653 21.95 23.6244 21.95 23.6512C21.95 23.6781 21.9218 23.6999 21.8871 23.6999C21.7846 23.6999 21.05 24.5094 21.05 24.6224C21.05 24.6577 21.0079 24.7401 20.9565 24.8057C20.9051 24.8713 20.8471 25.0037 20.8278 25.1C20.8084 25.1962 20.7593 25.3483 20.7186 25.438C20.5969 25.7067 20.6215 26.8 20.7493 26.8C20.772 26.8 20.8059 26.9107 20.8245 27.046C20.8443 27.1903 20.8979 27.3278 20.9541 27.3787C21.0069 27.4265 21.05 27.5051 21.05 27.5535C21.05 27.639 21.1288 27.7497 21.4125 28.063C21.4881 28.1465 21.55 28.234 21.55 28.2573C21.55 28.2808 21.5838 28.3 21.625 28.3C21.6663 28.3 21.7 28.3212 21.7 28.3473C21.7 28.3952 22.2043 28.75 22.2723 28.75C22.2926 28.75 22.3664 28.795 22.4364 28.85C22.5063 28.905 22.6138 28.95 22.6753 28.95C22.7368 28.95 22.9305 28.9967 23.106 29.0538C23.459 29.1688 24.5228 29.1761 24.6579 29.0643C24.6948 29.0338 24.8123 28.9926 24.9189 28.9727C25.2126 28.9178 26.05 28.4606 26.05 28.3552C26.05 28.3312 26.0949 28.2998 26.1498 28.2856C26.2046 28.2712 26.2641 28.2213 26.282 28.1747C26.2999 28.1281 26.3619 28.0381 26.4198 27.9747C26.5984 27.7792 26.6483 27.7087 26.7108 27.5643C26.7439 27.4877 26.8113 27.3713 26.8605 27.3057C26.9098 27.2401 26.95 27.1327 26.95 27.067C26.95 27.0012 26.995 26.8195 27.05 26.663C27.1094 26.494 27.15 26.2502 27.15 26.063C27.15 25.8756 27.1094 25.6318 27.05 25.463C26.995 25.3065 26.95 25.1418 26.95 25.0972C26.95 24.955 26.6561 24.4216 26.4749 24.2349C26.3786 24.1359 26.3 24.0313 26.3 24.0024C26.3 23.9736 26.2774 23.9499 26.2496 23.9499C26.222 23.9499 26.1504 23.8937 26.0906 23.8249C26.0309 23.7562 25.9523 23.6999 25.916 23.6999C25.8798 23.6999 25.85 23.6771 25.85 23.6492C25.85 23.6212 25.7656 23.5593 25.6625 23.5117C25.5594 23.4639 25.448 23.3996 25.415 23.3684C25.3819 23.3374 25.2694 23.2961 25.165 23.2767C25.0605 23.2573 24.9333 23.2041 24.8823 23.1582C24.789 23.0744 23.4704 23.0204 23.075 23.0841ZM29.7413 23.0834C29.6403 23.0956 29.5306 23.1381 29.4976 23.1777C29.4648 23.2174 29.3899 23.2501 29.3314 23.2502C28.919 23.2508 27.7 24.2371 27.7 24.5701C27.7 24.6081 27.6684 24.6514 27.6298 24.6662C27.591 24.6811 27.5433 24.7678 27.5236 24.8591C27.5039 24.9503 27.4455 25.1085 27.3939 25.2105C27.2523 25.4905 27.2564 26.6683 27.4 26.95C27.455 27.0577 27.5 27.1875 27.5 27.2382C27.5 27.289 27.5563 27.4068 27.625 27.5C27.6938 27.5931 27.75 27.698 27.75 27.733C27.75 27.7678 27.795 27.8206 27.85 27.85C27.905 27.8793 27.95 27.935 27.95 27.9733C27.95 28.0118 27.9939 28.0571 28.0475 28.0742C28.101 28.0912 28.1588 28.149 28.1758 28.2025C28.1929 28.2561 28.2381 28.3 28.2766 28.3C28.315 28.3 28.3706 28.345 28.4 28.4C28.4294 28.455 28.4849 28.5 28.5233 28.5C28.5615 28.5 28.6226 28.5296 28.6589 28.5658C28.768 28.6746 29.3608 28.9396 29.575 28.9755C29.685 28.9938 29.8024 29.0315 29.8358 29.0591C29.9751 29.1742 31.0756 29.1727 31.2975 29.0571C31.4105 28.9982 31.5444 28.95 31.5948 28.95C31.6453 28.95 31.7438 28.905 31.8136 28.85C31.8836 28.795 31.9554 28.75 31.9734 28.75C32.0316 28.75 32.4138 28.4307 32.6596 28.1766C32.9426 27.8841 32.9748 27.7065 32.7704 27.5648C32.6991 27.5153 32.6041 27.4356 32.5593 27.3875C32.5145 27.3393 32.4493 27.3 32.4143 27.3C32.3794 27.3 32.3228 27.255 32.2884 27.2C32.254 27.145 32.2033 27.0991 32.1755 27.098C32.1478 27.0968 32.0471 27.0293 31.9519 26.948C31.7375 26.7647 31.435 26.7437 31.2768 26.9012C30.3394 27.8335 28.9214 26.708 29.5454 25.5268C29.6029 25.418 29.65 25.2998 29.65 25.2643C29.65 25.229 29.6749 25.2 29.7053 25.2C29.7356 25.2 29.8241 25.1464 29.9018 25.0812C30.0734 24.9367 30.3926 24.8825 30.7151 24.943C30.9443 24.986 31.0166 25.0317 31.2608 25.2875C31.4606 25.497 31.6653 25.4406 32.061 25.0668C32.1083 25.0222 32.1888 24.9608 32.24 24.9303C32.5014 24.7747 32.648 24.6601 32.7689 24.5163L32.9023 24.3578L32.7819 24.1802C32.6293 23.9554 32.2696 23.6156 32.0775 23.5146C31.9963 23.4718 31.899 23.4062 31.8614 23.3684C31.8238 23.3308 31.7548 23.2999 31.7083 23.2999C31.6616 23.2999 31.5339 23.2507 31.4243 23.1906C31.2236 23.0804 30.2708 23.0197 29.7413 23.0834ZM34.9931 23.0927C34.8656 23.1122 34.7306 23.1534 34.6931 23.1843C34.6556 23.2151 34.49 23.2564 34.325 23.2762C33.7929 23.3397 33.4898 23.5938 33.6243 23.8636C33.6659 23.9471 33.7005 24.0624 33.701 24.1201C33.7026 24.2769 33.9366 24.9106 34.0106 24.9582C34.0931 25.0115 34.4428 24.9626 34.825 24.8442C35.3875 24.6699 36.2868 24.7697 36.3935 25.0181C36.4038 25.0418 36.4544 25.0975 36.506 25.1417C36.8278 25.4171 36.5436 25.571 35.9831 25.425C35.6604 25.3409 34.9906 25.3247 34.8544 25.3976C34.8054 25.4238 34.6211 25.4685 34.4451 25.4968C34.269 25.5252 34.1024 25.5792 34.0748 25.6168C34.0473 25.6546 33.9725 25.702 33.9088 25.7222C33.7756 25.7645 33.3 26.2025 33.3 26.2828C33.3 26.3123 33.2494 26.4008 33.1875 26.4796C33.0408 26.6662 33.0153 27.8196 33.1543 27.9822C33.1979 28.0332 33.2624 28.1478 33.2976 28.237C33.3928 28.4773 33.9625 28.9497 34.1579 28.9502C34.2223 28.9505 34.3425 28.988 34.425 29.0335C34.6405 29.1526 35.515 29.1538 35.725 29.0352C35.8075 28.9887 35.9243 28.9505 35.9845 28.9502C36.0448 28.9501 36.1073 28.9287 36.1234 28.9026C36.2239 28.74 36.6 28.5541 36.6 28.6671C36.6 28.9555 36.6506 28.969 37.7016 28.9616C38.431 28.9565 38.6765 28.939 38.709 28.8898C38.8198 28.7221 38.7316 24.6867 38.6125 24.4757C38.5506 24.3661 38.5 24.2508 38.5 24.2196C38.5 24.1327 37.8763 23.4999 37.7906 23.4999C37.7491 23.4999 37.6663 23.4574 37.6064 23.4054C37.5464 23.3534 37.3929 23.2952 37.2654 23.2761C37.1378 23.2569 36.9789 23.2056 36.9123 23.1619C36.7776 23.0737 35.4324 23.0252 34.9931 23.0927ZM12.275 23.2482C13.1578 23.5138 13.8778 24.1622 14.0259 24.825C14.0443 24.9075 14.09 25.0438 14.1275 25.1278C14.22 25.3355 14.276 26.2847 14.2064 26.4625L14.1525 26.6H12.423C10.7518 26.6 10.5 26.6201 10.5 26.7537C10.5 26.8581 10.9005 27.35 10.9855 27.35C11.0125 27.35 11.0753 27.395 11.125 27.45C11.3548 27.7038 12.3485 27.5528 12.6879 27.2125C12.8785 27.0212 13.0789 27.0613 13.4275 27.3603C13.928 27.7897 14.0063 27.8757 13.9735 27.9607C13.9275 28.0808 13.3018 28.5835 13.0863 28.6735C12.9875 28.7147 12.8946 28.7682 12.8796 28.7925C12.7901 28.9373 11.6931 29.0656 11.2574 28.9821C11.0195 28.9366 10.766 28.8995 10.6938 28.8996C10.2474 28.9007 9.26113 28.181 9.00438 27.6666C8.938 27.5337 8.83675 27.335 8.77938 27.225C8.61163 26.9036 8.6225 25.3298 8.79475 24.9729C8.86063 24.8366 8.96188 24.6262 9.01975 24.5056C9.22713 24.0732 10.0043 23.4106 10.4045 23.3249C10.4983 23.3048 10.6019 23.2668 10.6346 23.2404C10.8348 23.0794 11.7283 23.0837 12.275 23.2482ZM24.65 23.1999C24.8013 23.2532 24.9545 23.2974 24.9906 23.2983C25.2431 23.3046 25.8123 23.6659 26.214 24.0749C26.6084 24.4765 26.6315 24.5052 26.6744 24.6499C26.6948 24.7187 26.7509 24.8424 26.799 24.9249C26.9104 25.1154 27.071 25.9802 27.0368 26.2047C26.8834 27.2107 26.7074 27.5973 26.1515 28.1502C25.8971 28.4032 25.4903 28.7 25.3978 28.7C25.3643 28.7 25.2661 28.7437 25.1798 28.7971C24.49 29.2233 23.0096 29.0785 21.9685 28.4827C21.5676 28.2533 20.85 27.2258 20.85 26.8813C20.85 26.8341 20.8138 26.6511 20.7694 26.4745C20.686 26.1426 20.6875 26.121 20.8493 25.3314C20.8768 25.1976 20.9444 25.015 20.9996 24.9256C21.0549 24.8362 21.1 24.7356 21.1 24.7019C21.1 24.5316 22.05 23.5499 22.215 23.5499C22.2395 23.5499 22.3193 23.5084 22.3923 23.4577C22.4653 23.4068 22.615 23.3408 22.725 23.3109C22.835 23.2809 23.0375 23.2232 23.175 23.1827C23.5493 23.0722 24.3123 23.0812 24.65 23.1999ZM31.0891 23.1938C31.2464 23.2453 31.4389 23.3026 31.5169 23.3208C31.888 23.4077 32.6426 23.9906 32.7266 24.2552C32.7639 24.3725 32.6381 24.5791 32.4736 24.6711C32.4206 24.7007 32.2193 24.8511 32.0261 25.0052C31.5475 25.3873 31.5149 25.3933 31.2465 25.1503C30.4201 24.4021 29.3744 24.9328 29.3754 26.1C29.3765 27.2808 30.4928 27.767 31.3268 26.9497C31.4524 26.8266 31.6708 26.8208 31.7879 26.9375C31.8363 26.9856 31.9994 27.103 32.1504 27.1982C32.3015 27.2936 32.4438 27.4017 32.4665 27.4386C32.4894 27.4753 32.5625 27.5262 32.629 27.5515C33.1605 27.7536 32.1104 28.7777 31.1454 28.9982C30.7046 29.099 29.6443 28.9851 29.286 28.7985C29.182 28.7443 29.0766 28.7 29.0518 28.7C28.7971 28.7 27.9039 27.8757 27.692 27.4452C27.3026 26.654 27.2679 25.5071 27.6141 24.875C27.6443 24.82 27.7096 24.6918 27.7593 24.5903C27.9005 24.3016 28.6735 23.5499 28.8291 23.5499C28.8606 23.5499 28.9401 23.5079 29.0058 23.4566C29.0714 23.4052 29.2375 23.3373 29.375 23.3059C29.5125 23.2744 29.7375 23.2167 29.875 23.1777C30.2343 23.0757 30.75 23.0824 31.0891 23.1938ZM36.6293 23.2022C36.7095 23.2331 36.8988 23.2788 37.05 23.3038C37.7071 23.4126 38.2429 23.8486 38.5311 24.5092L38.669 24.825L38.6876 26.7911C38.7016 28.2572 38.6913 28.7752 38.647 28.8286C38.5999 28.8853 38.4139 28.9 37.7406 28.9C36.8444 28.9 36.7 28.8698 36.7 28.6832C36.7 28.4958 36.5983 28.4342 36.477 28.5481C36.2301 28.78 35.8311 28.9363 35.2411 29.0322C34.5974 29.137 33.4546 28.5971 33.3205 28.125C33.3049 28.07 33.2568 27.947 33.2136 27.8517C33.0635 27.5205 33.0684 27.0391 33.2256 26.6485C33.5983 25.7227 34.5139 25.347 35.9741 25.5203C36.6486 25.6003 36.65 25.6001 36.65 25.3946C36.65 24.7568 35.5989 24.476 34.5246 24.8266C34.1181 24.9593 33.95 24.9268 33.95 24.7156C33.95 24.6778 33.907 24.5181 33.8544 24.3608C33.8018 24.2036 33.7435 23.9718 33.7249 23.8457L33.6911 23.6163L33.958 23.4832C34.1049 23.4099 34.3713 23.3269 34.55 23.2988C34.7288 23.2706 35.0325 23.2149 35.225 23.1752C35.6134 23.0948 36.389 23.1098 36.6293 23.2022ZM11.1853 24.6039C10.9278 24.7071 10.7326 24.8637 10.6226 25.0553C10.3264 25.5715 10.3266 25.5716 11.394 25.5886C12.3668 25.6042 12.4781 25.578 12.4315 25.3448C12.3239 24.807 11.6614 24.4131 11.1853 24.6039ZM11.7471 24.7C11.9443 24.7 12.4125 25.3085 12.3246 25.4505C12.2918 25.5037 10.55 25.5223 10.55 25.4696C10.55 25.0786 11.1146 24.6174 11.5188 24.6783C11.5979 24.6902 11.7006 24.7 11.7471 24.7ZM23.4888 24.8827C22.238 25.2657 22.5831 27.3095 23.8995 27.3148C24.3406 27.3167 24.8996 26.9893 24.9 26.7288C24.9 26.7036 24.938 26.6408 24.9845 26.5895C25.13 26.4287 25.1058 25.8358 24.9403 25.5081C24.6408 24.9152 24.1181 24.6899 23.4888 24.8827ZM24.2079 24.9448C24.4253 24.9953 24.7896 25.3161 24.8349 25.4968C24.8525 25.5673 24.9091 25.7206 24.9608 25.8375C25.0599 26.0617 25.0553 26.1046 24.8796 26.5836C24.7969 26.8092 24.6113 27.0237 24.4561 27.073C24.4028 27.09 24.3318 27.1367 24.2984 27.1768C24.2009 27.2945 23.6236 27.2758 23.4636 27.15C23.3938 27.095 23.31 27.05 23.2776 27.05C22.9988 27.05 22.6918 26.0206 22.875 25.7C22.9143 25.6312 22.9473 25.5255 22.9483 25.465C22.9509 25.298 23.3559 24.9817 23.614 24.9449C23.9376 24.8989 24.0105 24.899 24.2079 24.9448ZM35.525 26.5237C35.0534 26.7435 34.9316 27.2448 35.27 27.5735C35.8653 28.1515 36.9869 27.3842 36.6445 26.633C36.5593 26.4458 35.8424 26.3758 35.525 26.5237ZM36.54 26.61C36.7428 26.8127 36.4968 27.55 36.2263 27.55C36.1826 27.55 36.1339 27.5837 36.1181 27.625C36.0713 27.747 35.5408 27.7278 35.425 27.6C35.3753 27.545 35.3071 27.5 35.2736 27.5C35.199 27.5 35.1399 27.1632 35.1796 26.9643C35.2444 26.6408 36.2968 26.3667 36.54 26.61Z" fill="#98A0AC"/>
<path fill-rule="evenodd" clip-rule="evenodd" d="M39.5115 21.3625C39.4105 21.487 39.3725 28.7153 39.4724 28.8152C39.5587 28.9016 41.118 28.9475 41.3209 28.8696C41.4419 28.8232 41.4419 21.3767 41.3209 21.3304C41.1596 21.2685 39.5649 21.2967 39.5115 21.3625ZM41.2814 21.4125C41.3055 21.4471 41.3191 23.12 41.3119 25.1625L41.2987 28.85H40.4522C39.9097 28.85 39.5941 28.831 39.5731 28.797C39.5144 28.7018 39.5487 21.4867 39.6084 21.4149C39.684 21.3239 41.2179 21.3216 41.2814 21.4125ZM14.9841 21.6125C14.9051 21.6705 14.9 21.935 14.912 25.275L14.925 28.875L17.6444 28.8878C19.611 28.8972 20.3826 28.8852 20.4319 28.8442C20.5235 28.7682 20.5309 27.2508 20.44 27.16C20.3959 27.1158 19.9564 27.0998 18.7775 27.0993C17.8961 27.099 17.1276 27.0858 17.0696 27.0703C16.9646 27.0421 16.964 27.0306 16.9275 24.3585C16.9041 22.6443 16.8723 21.6524 16.8393 21.6125C16.8018 21.5669 16.5551 21.55 15.9284 21.55C15.3196 21.55 15.0444 21.5682 14.9841 21.6125ZM16.7648 21.6625C16.841 21.7194 16.8498 21.9635 16.8618 24.3833C16.869 25.8455 16.8938 27.0605 16.9166 27.0833C16.9395 27.1062 17.727 27.1362 18.6666 27.15L20.375 27.175L20.4 27.8863C20.4138 28.2776 20.4128 28.6488 20.3978 28.7113L20.3705 28.825H17.6728H14.975L14.9613 25.35C14.9468 21.7052 14.9479 21.671 15.0875 21.6345C15.3013 21.5786 16.6831 21.6017 16.7648 21.6625ZM23.175 23.1827C23.0375 23.2232 22.835 23.281 22.725 23.311C22.615 23.3408 22.4653 23.4068 22.3923 23.4577C22.3193 23.5085 22.2395 23.55 22.215 23.55C22.05 23.55 21.1 24.5316 21.1 24.702C21.1 24.7356 21.0549 24.8362 20.9996 24.9256C20.9444 25.015 20.8768 25.1976 20.8493 25.3315C20.6875 26.121 20.686 26.1426 20.7694 26.4745C20.8138 26.6511 20.85 26.8341 20.85 26.8813C20.85 27.2258 21.5676 28.2533 21.9685 28.4827C23.0096 29.0785 24.49 29.2233 25.1798 28.7971C25.2661 28.7437 25.3643 28.7 25.3978 28.7C25.4903 28.7 25.8971 28.4032 26.1515 28.1502C26.7074 27.5973 26.8834 27.2107 27.0367 26.2047C27.071 25.9802 26.9104 25.1155 26.799 24.925C26.7509 24.8425 26.6947 24.7187 26.6744 24.65C26.6315 24.5052 26.6084 24.4765 26.214 24.075C25.8122 23.666 25.2431 23.3046 24.9906 23.2983C24.9545 23.2975 24.8012 23.2532 24.65 23.2C24.3122 23.0812 23.5493 23.0722 23.175 23.1827ZM29.875 23.1777C29.7375 23.2167 29.5125 23.2745 29.375 23.306C29.2375 23.3373 29.0714 23.4052 29.0057 23.4566C28.9401 23.508 28.8606 23.55 28.8291 23.55C28.6735 23.55 27.9005 24.3016 27.7592 24.5903C27.7096 24.6918 27.6442 24.82 27.6141 24.875C27.2679 25.5071 27.3026 26.654 27.692 27.4452C27.9039 27.8757 28.7971 28.7 29.0517 28.7C29.0766 28.7 29.182 28.7443 29.286 28.7985C29.6442 28.9851 30.7046 29.099 31.1454 28.9982C32.1104 28.7777 33.1605 27.7536 32.629 27.5515C32.5625 27.5262 32.4894 27.4753 32.4665 27.4386C32.4437 27.4017 32.3015 27.2936 32.1504 27.1982C31.9994 27.103 31.8362 26.9856 31.7879 26.9375C31.6707 26.8208 31.4524 26.8266 31.3267 26.9497C30.7391 27.5255 29.9362 27.459 29.5185 26.8C29.3185 26.4846 29.3057 25.7405 29.4949 25.425C29.9131 24.7272 30.6515 24.6115 31.2465 25.1503C31.5149 25.3933 31.5475 25.3873 32.0261 25.0052C32.2192 24.8511 32.4206 24.7007 32.4736 24.6711C32.6381 24.5791 32.7639 24.3725 32.7266 24.2552C32.6426 23.9906 31.888 23.4077 31.5169 23.3208C31.4389 23.3026 31.2464 23.2453 31.0891 23.1938C30.75 23.0825 30.2342 23.0757 29.875 23.1777ZM35.225 23.1752C35.0325 23.215 34.7287 23.2706 34.55 23.2988C34.3712 23.327 34.1049 23.41 33.958 23.4832L33.6911 23.6163L33.7249 23.8457C33.7435 23.9718 33.8017 24.2036 33.8544 24.3608C33.907 24.5181 33.95 24.6778 33.95 24.7156C33.95 24.9268 34.1181 24.9593 34.5246 24.8266C35.5989 24.476 36.65 24.7568 36.65 25.3946C36.65 25.6001 36.6486 25.6003 35.9741 25.5203C34.5139 25.347 33.5982 25.7227 33.2256 26.6485C33.0684 27.0391 33.0635 27.5205 33.2136 27.8517C33.2567 27.947 33.3049 28.07 33.3205 28.125C33.4546 28.5971 34.5974 29.137 35.2411 29.0322C35.8311 28.9363 36.2301 28.78 36.477 28.5481C36.5982 28.4342 36.7 28.4958 36.7 28.6832C36.7 28.8698 36.8444 28.9 37.7406 28.9C38.4139 28.9 38.5999 28.8853 38.647 28.8286C38.6912 28.7752 38.7016 28.2572 38.6876 26.7911L38.669 24.825L38.5311 24.5092C38.2429 23.8486 37.7071 23.4126 37.05 23.3038C36.8987 23.2788 36.7095 23.2331 36.6292 23.2022C36.389 23.1098 35.6134 23.0948 35.225 23.1752ZM24.549 23.2745C24.6294 23.316 24.7619 23.35 24.8435 23.35C24.9665 23.35 25.4091 23.5487 25.7905 23.7752C26.0487 23.9286 26.647 24.6385 26.6491 24.7941C26.6496 24.8321 26.7006 24.9446 26.7625 25.0441C26.8677 25.2133 26.875 25.2801 26.875 26.0832C26.875 26.895 26.8689 26.9498 26.7625 27.0937C26.7006 27.1775 26.65 27.2886 26.65 27.3406C26.65 27.3927 26.5994 27.494 26.5375 27.5656C26.4756 27.6372 26.3575 27.7858 26.275 27.896C26.1925 28.0061 25.9956 28.1921 25.8375 28.3093C25.6794 28.4266 25.55 28.54 25.55 28.5612C25.55 28.5826 25.511 28.6 25.4632 28.6C25.4155 28.6 25.2636 28.6542 25.1257 28.7205C24.7706 28.891 23.9931 28.9806 23.5154 28.9061C23.3176 28.8752 23.0738 28.85 22.9733 28.85C22.8665 28.85 22.738 28.8085 22.6636 28.75C22.5938 28.695 22.5031 28.65 22.4623 28.65C22.2604 28.65 21.5608 28.0792 21.3741 27.7625C21.3215 27.6731 21.2625 27.6 21.2431 27.6C21.2236 27.6 21.1806 27.5156 21.1475 27.4125C21.1145 27.3093 21.0594 27.1912 21.0251 27.15C20.8273 26.9116 20.8259 25.281 21.0233 25.05C21.0585 25.0087 21.1138 24.8926 21.1461 24.7918C21.1784 24.6912 21.2375 24.5962 21.2774 24.581C21.3174 24.5656 21.35 24.5211 21.35 24.4818C21.35 24.4132 21.8194 23.9192 22.0586 23.7358C22.2658 23.5773 22.7711 23.3503 22.9175 23.3502C22.9958 23.3501 23.1308 23.3173 23.2175 23.2776C23.5275 23.1351 24.2761 23.1333 24.549 23.2745ZM30.9232 23.2471C30.9392 23.273 31.0586 23.309 31.1886 23.3271C31.4621 23.3651 31.9946 23.6058 32.1256 23.7507C32.175 23.8053 32.2327 23.85 32.2539 23.85C32.328 23.85 32.6004 24.1588 32.6297 24.2763C32.667 24.4243 32.4179 24.658 31.713 25.1363C31.4954 25.284 31.4931 25.2836 31.2541 25.054C31.142 24.9461 30.9829 24.8432 30.9006 24.8251C30.8184 24.8071 30.7382 24.7715 30.7226 24.7461C30.7069 24.7207 30.5842 24.7 30.45 24.7C30.3157 24.7 30.1931 24.7207 30.1774 24.7461C30.1617 24.7715 30.0872 24.8063 30.0119 24.8235C29.8844 24.8525 29.55 25.1102 29.55 25.1796C29.55 25.1966 29.4937 25.2773 29.425 25.3591C29.2242 25.5976 29.2365 26.5287 29.4445 26.8422C29.8599 27.4682 30.7337 27.6163 31.2464 27.1476C31.4712 26.9421 31.7064 26.8851 31.785 27.0171C31.807 27.054 31.9375 27.1612 32.075 27.2555C32.749 27.7172 32.7816 27.7906 32.4625 28.1272C31.8069 28.8187 31.1832 29.0152 30.0655 28.8822C29.693 28.838 29.4115 28.7787 29.3419 28.7298C29.2791 28.686 29.1934 28.6496 29.1514 28.6491C29.0046 28.6473 28.0542 27.9707 28.0515 27.8661C28.0506 27.8336 28.0154 27.7726 27.9731 27.7303C27.9309 27.6881 27.8631 27.574 27.8225 27.4767C27.7819 27.3795 27.7296 27.3 27.7062 27.3C27.4277 27.3 27.4392 25.1657 27.7194 24.8562C27.7637 24.8072 27.8 24.7318 27.8 24.6887C27.8 24.5961 27.9791 24.3768 28.325 24.0458C28.4625 23.9142 28.6224 23.7601 28.6802 23.7032C28.7381 23.6465 28.8307 23.6 28.886 23.6C28.9412 23.6 29.0434 23.5552 29.113 23.5005C29.188 23.4415 29.3767 23.3816 29.577 23.3532C29.7626 23.327 29.9382 23.2817 29.9672 23.2527C30.0326 23.1873 30.8832 23.1823 30.9232 23.2471ZM36.3542 23.2522C36.4081 23.2811 36.6347 23.3255 36.858 23.3508C37.0814 23.3763 37.3002 23.4283 37.3445 23.4665C37.3887 23.5046 37.5017 23.5616 37.5957 23.5931C37.8597 23.6818 38.384 24.2571 38.4256 24.5038C38.4442 24.6136 38.4966 24.7757 38.5421 24.8642C38.615 25.0056 38.625 25.2545 38.625 26.925V28.825L37.825 28.8392C36.8717 28.8563 36.8182 28.8468 36.7757 28.6535C36.7264 28.4283 36.4 28.2975 36.4 28.5027C36.4 28.528 36.3269 28.5792 36.2375 28.6166C36.1481 28.654 36.0441 28.7217 36.0064 28.7672C35.9661 28.8158 35.8629 28.8505 35.7564 28.8512C35.6566 28.8518 35.4832 28.8736 35.371 28.8995C35.0967 28.9628 34.1846 28.8467 34.0582 28.7323C34.0081 28.6871 33.9436 28.65 33.9149 28.65C33.823 28.65 33.35 28.0892 33.3497 27.9801C33.3495 27.9222 33.3146 27.8085 33.2722 27.7271C33.1715 27.5337 33.1672 26.9483 33.2656 26.791C33.3055 26.7272 33.3539 26.6076 33.373 26.5253C33.3922 26.4431 33.4455 26.335 33.4915 26.285C33.7144 26.0427 33.9305 25.8505 33.98 25.8502C34.0104 25.8501 34.1454 25.7911 34.28 25.7191C34.5616 25.5687 36.1389 25.5211 36.458 25.6533C36.9344 25.8506 36.7961 25.0425 36.3009 24.7343C36.0375 24.5706 34.7576 24.5753 34.4894 24.7411C34.2157 24.9102 34.05 24.8897 34.05 24.6867C34.05 24.597 34.0036 24.437 33.947 24.3313C33.7645 23.9908 33.7574 23.6656 33.9307 23.5963C34.0101 23.5646 34.1337 23.5081 34.2055 23.4706C34.2774 23.4332 34.5447 23.3788 34.7997 23.35C35.0547 23.3211 35.2997 23.2762 35.3441 23.2502C35.4544 23.1858 36.2331 23.1875 36.3542 23.2522ZM23.7375 24.6877C23.6619 24.6981 23.6 24.7266 23.6 24.751C23.6 24.7755 23.5156 24.8108 23.4125 24.8297C22.797 24.9422 22.4266 26.0246 22.7776 26.6848C22.9118 26.9372 23.1356 27.2 23.2164 27.2C23.2425 27.2 23.2924 27.2388 23.3271 27.2863C23.4206 27.4142 24.3506 27.4153 24.4839 27.2877C24.534 27.2397 24.6469 27.1431 24.7349 27.0731C24.8227 27.003 24.9104 26.896 24.9296 26.8355C24.9489 26.7748 25.0006 26.699 25.0447 26.6667C25.1779 26.5695 25.1911 25.7301 25.0622 25.5558C25.0082 25.4827 24.9486 25.3746 24.9299 25.3153C24.8835 25.1691 24.5225 24.85 24.4034 24.85C24.3505 24.85 24.2773 24.8201 24.2409 24.7837C24.1626 24.7055 23.9307 24.6613 23.7375 24.6877ZM24.3084 24.8958C24.924 25.1681 25.3363 26.2007 24.9845 26.5895C24.938 26.6408 24.9 26.7036 24.9 26.7288C24.8994 27.1733 23.7958 27.4976 23.3389 27.1876C22.0858 26.3372 22.9499 24.295 24.3084 24.8958ZM35.475 26.4488C35.1171 26.601 34.9352 27.0026 35.0522 27.3823C35.2457 28.0102 36.386 27.9875 36.6754 27.35C36.7191 27.2537 36.7762 27.1358 36.8024 27.0881C36.8996 26.9108 36.8126 26.633 36.6065 26.4625C36.5196 26.3907 35.6367 26.3801 35.475 26.4488ZM36.407 26.4812C36.859 26.556 36.8054 27.2706 36.3234 27.5958C35.7432 27.9873 35.0659 27.7065 35.1102 27.0928C35.148 26.5698 35.6141 26.3501 36.407 26.4812Z" fill="#7C8494"/>
</svg>
