<svg width="23" height="22" viewBox="0 0 23 22" fill="none" xmlns="http://www.w3.org/2000/svg">
<path fill-rule="evenodd" clip-rule="evenodd" d="M7.09294 0.292893C7.28048 0.105357 7.53483 0 7.80005 0H16.3C16.5804 0 16.8478 0.117646 17.0372 0.324275L22.5372 6.32428C22.7063 6.50871 22.8 6.74981 22.8 7V15C22.8 15.2502 22.7063 15.4913 22.5372 15.6757L17.0372 21.6757C16.8478 21.8824 16.5804 22 16.3 22H7.80005C7.53483 22 7.28048 21.8946 7.09294 21.7071L1.09294 15.7071C0.905406 15.5196 0.800049 15.2652 0.800049 15V7C0.800049 6.73478 0.905406 6.48043 1.09294 6.29289L7.09294 0.292893ZM8.21426 2L2.80005 7.41421V14.5858L8.21426 20H15.8601L20.8 14.611V7.38898L15.8601 2H8.21426Z" fill="white"/>
<path fill-rule="evenodd" clip-rule="evenodd" d="M7.59294 6.79289C7.98347 6.40237 8.61663 6.40237 9.00716 6.79289L16.0072 13.7929C16.3977 14.1834 16.3977 14.8166 16.0072 15.2071C15.6166 15.5976 14.9835 15.5976 14.5929 15.2071L7.59294 8.20711C7.20242 7.81658 7.20242 7.18342 7.59294 6.79289Z" fill="white"/>
<path fill-rule="evenodd" clip-rule="evenodd" d="M16.0072 6.79289C15.6166 6.40237 14.9835 6.40237 14.5929 6.79289L7.59294 13.7929C7.20242 14.1834 7.20242 14.8166 7.59294 15.2071C7.98347 15.5976 8.61663 15.5976 9.00716 15.2071L16.0072 8.20711C16.3977 7.81658 16.3977 7.18342 16.0072 6.79289Z" fill="white"/>
</svg>
