<svg width="50" height="50" viewBox="0 0 50 50" fill="none" xmlns="http://www.w3.org/2000/svg">
<g clip-path="url(#clip0_7:37)">
<path fill-rule="evenodd" clip-rule="evenodd" d="M0 1.275C0 2.64762 0.049375 2.876 0.220875 2.29813C0.262125 2.1595 0.34175 1.98775 0.397875 1.91638C0.454 1.845 0.5 1.76725 0.5 1.74388C0.5 1.5345 1.55638 0.5 1.77013 0.5C1.81188 0.5 1.88813 0.455 1.93938 0.399875C1.99063 0.344875 2.149 0.26525 2.29137 0.223C2.87637 0.04925 2.65213 0 1.275 0H0V1.275ZM47.5091 0.085375C47.519 0.136875 47.6103 0.19525 47.7388 0.2325C47.8559 0.266375 48.0108 0.3405 48.0826 0.397125C48.1546 0.45375 48.2419 0.5 48.2766 0.5C48.3611 0.5 48.6064 0.706 48.991 1.1C49.3984 1.51725 49.4449 1.57537 49.5265 1.77087C49.5638 1.86 49.6273 1.96037 49.6678 1.994C49.7081 2.0275 49.7679 2.16638 49.8006 2.3025C49.8367 2.453 49.8874 2.55 49.93 2.55C49.9881 2.55 50 2.33463 50 1.275V0H48.7464C47.5911 0 47.494 0.00675 47.5091 0.085375ZM15.7104 16.7976C15.5649 16.8207 15.3849 16.8639 15.3104 16.8935C15.236 16.9231 14.8526 16.9709 14.4585 16.9995C14.0356 17.0303 13.6856 17.0807 13.6044 17.1227C13.5286 17.1619 13.3162 17.2289 13.1322 17.2715C12.9484 17.3141 12.7477 17.3811 12.6865 17.4205C12.6251 17.4597 12.4738 17.5182 12.35 17.5504C12.2263 17.5826 12.08 17.6498 12.025 17.6998C11.97 17.7496 11.8294 17.8187 11.7125 17.8531C11.5956 17.8876 11.5 17.9352 11.5 17.959C11.5 17.9827 11.4381 18.0287 11.3625 18.0614C11.2869 18.094 11.1463 18.1805 11.05 18.2536C10.9538 18.3268 10.8244 18.4024 10.7625 18.4217C10.7005 18.441 10.6266 18.5003 10.5983 18.5534C10.5698 18.6065 10.5226 18.65 10.4935 18.65C10.4644 18.65 10.1626 18.9369 9.82288 19.2875C9.48325 19.6381 9.15912 19.9724 9.10262 20.0303C9.04625 20.0881 9 20.1506 9 20.169C9 20.1874 8.92125 20.3169 8.825 20.4569C8.72875 20.5967 8.65 20.7411 8.65 20.7778C8.65 20.8144 8.60963 20.8737 8.56038 20.9096C8.511 20.9456 8.44275 21.0702 8.40862 21.1866C8.37437 21.3031 8.30363 21.4213 8.25125 21.4494C8.1895 21.4824 8.14425 21.5795 8.12225 21.7257C8.10362 21.8497 8.04388 22.0079 7.98938 22.0771C7.9265 22.157 7.87375 22.3354 7.84513 22.5641C7.81713 22.7869 7.76188 22.9766 7.70038 23.0599C7.62363 23.1639 7.58925 23.33 7.55013 23.7849C7.52213 24.1095 7.46013 24.5438 7.41213 24.75C7.2915 25.2694 7.29275 26.3887 7.41463 26.8925C7.4635 27.0947 7.52613 27.4985 7.55363 27.7897C7.58713 28.1422 7.63475 28.3706 7.696 28.4722C7.74675 28.5562 7.81238 28.7665 7.842 28.9394C7.8715 29.1122 7.93975 29.3097 7.99363 29.3784C8.04763 29.4469 8.10687 29.5926 8.12537 29.7021C8.145 29.8181 8.19725 29.9218 8.2505 29.9503C8.30087 29.9773 8.36925 30.0837 8.40263 30.1871C8.436 30.2905 8.50525 30.4153 8.55663 30.4645C8.608 30.5136 8.65 30.586 8.65 30.6252C8.65 30.6645 8.71188 30.762 8.7875 30.842C8.86313 30.922 9.00375 31.092 9.1 31.2199C9.46763 31.7081 10.4996 32.6534 10.8125 32.7885C10.8881 32.8211 10.95 32.869 10.95 32.895C10.95 32.9209 11.0185 32.9571 11.1023 32.9755C11.186 32.9939 11.313 33.0633 11.3846 33.1295C11.4561 33.1959 11.5987 33.2728 11.7015 33.3004C11.8042 33.3281 11.9137 33.3813 11.9447 33.4188C11.9757 33.4561 12.123 33.525 12.2719 33.5718C12.4206 33.6186 12.6276 33.7004 12.7317 33.7535C12.836 33.8065 12.9899 33.85 13.0739 33.85C13.1578 33.85 13.3161 33.898 13.4256 33.9567C13.5706 34.0344 13.7746 34.0759 14.1749 34.1091C14.4775 34.1342 14.8825 34.1914 15.075 34.2361C15.6672 34.3738 17.6793 34.3878 18.2385 34.2581C18.4786 34.2025 18.9294 34.1352 19.2402 34.1087C19.6206 34.0762 19.8332 34.0355 19.8902 33.9841C19.9369 33.942 20.131 33.8716 20.3215 33.8275C20.5121 33.7834 20.6926 33.7269 20.7227 33.7019C20.7529 33.6769 20.8894 33.6187 21.0263 33.5726C21.163 33.5264 21.292 33.4592 21.3127 33.4232C21.3336 33.3872 21.463 33.3205 21.6003 33.2749C21.7376 33.2293 21.85 33.1715 21.85 33.1464C21.85 33.1212 21.9256 33.0612 22.018 33.0129C22.2099 32.9125 22.6126 32.6511 22.65 32.6026C22.6637 32.5848 22.7481 32.5191 22.8375 32.4566C22.9269 32.3943 23 32.3105 23 32.2705C23 32.2305 23.0559 32.1724 23.124 32.1414C23.1923 32.1103 23.2609 32.0444 23.2766 31.995C23.2922 31.9455 23.349 31.8913 23.4025 31.8743C23.4561 31.8571 23.5 31.8256 23.5 31.8039C23.5 31.7822 23.5563 31.7039 23.6251 31.6296C23.6939 31.5554 23.7873 31.4227 23.8325 31.3347C23.8779 31.2469 23.9539 31.1474 24.0016 31.1138C24.0494 31.08 24.1031 30.9738 24.1213 30.8778C24.1393 30.7816 24.2064 30.6404 24.2705 30.564C24.3346 30.4875 24.4038 30.3462 24.4241 30.25C24.4445 30.1538 24.4924 30.0394 24.5306 29.9959C24.5689 29.9525 24.643 29.7613 24.6954 29.5709C24.7476 29.3806 24.8294 29.1168 24.8771 28.9844C25.0115 28.6118 25.1535 28.6276 22.3403 28.7016C20.9569 28.738 19.6469 28.7716 19.4293 28.7761C18.9394 28.7864 18.85 28.8638 18.85 29.2773C18.85 29.4238 18.828 29.6015 18.801 29.6724C18.774 29.7434 18.7299 29.9383 18.703 30.1056C18.624 30.5961 18.8326 30.5592 16.3293 30.526C15.1169 30.5099 14.0688 30.5001 14 30.5044C13.4001 30.5415 13.3269 30.4868 13.2738 29.9618C13.2549 29.7765 13.2049 29.5703 13.1625 29.5033C13.0775 29.3688 13.0076 28.6082 13.0029 27.7652C12.9985 26.9805 12.9724 26.998 14.2282 26.942C15.2389 26.8969 16.4471 26.8291 17.175 26.7768C17.395 26.7609 19.2726 26.7362 21.3474 26.7219C24.0866 26.703 25.1388 26.68 25.1893 26.6383C25.307 26.5405 25.2459 24.667 25.112 24.2731C25.0556 24.1071 24.9866 23.7435 24.9586 23.465C24.9301 23.1801 24.8749 22.9075 24.8323 22.8417C24.7906 22.7775 24.729 22.6125 24.6954 22.475C24.6616 22.3375 24.5939 22.1727 24.5446 22.109C24.4954 22.0451 24.4399 21.8917 24.4214 21.768C24.4026 21.643 24.3335 21.4786 24.266 21.3984C24.1991 21.3189 24.1313 21.1734 24.1154 21.075C24.0994 20.9766 24.0461 20.8747 23.9971 20.8485C23.9481 20.8222 23.8802 20.7162 23.8464 20.6129C23.8124 20.5095 23.7431 20.3956 23.6924 20.3596C23.6415 20.3237 23.6 20.2691 23.6 20.2383C23.6 20.2074 23.5269 20.1101 23.4375 20.0222C23.3481 19.9342 23.2075 19.7751 23.125 19.6686C22.7099 19.1326 21.8112 18.3609 21.2971 18.0985C21.1887 18.0432 21.1 17.9767 21.1 17.9509C21.1 17.925 21.0044 17.8785 20.8875 17.8475C20.7706 17.8164 20.6265 17.7461 20.5672 17.6912C20.508 17.6364 20.3621 17.5696 20.243 17.5429C20.1239 17.5161 19.9924 17.4646 19.9508 17.4285C19.9091 17.3922 19.7513 17.3356 19.6 17.3025C19.4488 17.2694 19.2208 17.1995 19.0933 17.1472C18.9423 17.0852 18.6371 17.0351 18.2171 17.0031C17.8626 16.9761 17.4269 16.9191 17.2488 16.8764C16.8523 16.7811 16.0677 16.741 15.7104 16.7976ZM27.8524 17.325C27.8309 17.3525 27.7981 17.6391 27.7796 17.9619C27.7611 18.2846 27.712 18.6446 27.6704 18.7619C27.565 19.0586 27.4745 21.1961 27.5635 21.2843C27.6261 21.3463 27.8735 21.3339 29.25 21.1999C29.9066 21.1359 31.919 21.0555 33.625 21.0251C34.838 21.0035 35.7684 20.9469 36.1278 20.8729C36.4863 20.799 36.5508 21.2054 36.2231 21.4739C36.0936 21.58 35.8579 21.7924 35.6994 21.9459C35.3284 22.3051 34.5089 23.078 34.277 23.2875C34.1781 23.3769 34.0753 23.45 34.0486 23.45C34.0219 23.45 34 23.4795 34 23.5155C34 23.5516 33.8931 23.6748 33.7625 23.7891C33.6319 23.9036 33.48 24.0395 33.425 24.0912C33.37 24.1429 33.2744 24.2117 33.2125 24.2442C33.1506 24.2769 33.099 24.3309 33.0978 24.3643C33.0964 24.3976 33.0055 24.5038 32.8956 24.6C32.7859 24.6963 32.4384 25.0225 32.1235 25.325C31.1301 26.2793 30.0867 27.2716 29.7537 27.5788C29.2915 28.005 28.4752 28.7898 28.2365 29.0375C28.1504 29.1269 28.062 29.2 28.0401 29.2C28.0184 29.2 27.8084 29.3912 27.5736 29.625C27.3388 29.8588 27.1257 30.05 27.1001 30.05C27.0745 30.05 27.0269 30.0998 26.9944 30.1604C26.9619 30.2211 26.8955 30.3055 26.8468 30.3479C26.7419 30.4393 26.6687 33.1749 26.7696 33.2371C26.798 33.2546 30.0959 33.2759 34.0981 33.2841C42.0906 33.3008 42.6279 33.3071 42.7771 33.3875C42.9016 33.4545 43.4789 33.4106 43.5466 33.3291C43.5737 33.2964 43.6006 32.526 43.6095 31.5235C43.6233 29.9759 43.635 29.7555 43.7125 29.6049C43.9564 29.1306 44.2925 29.1623 39.5 29.2073C35.0778 29.2488 35.3191 29.2841 35.9275 28.6817C36.1076 28.5034 36.6715 27.9564 37.1806 27.4662C37.6898 26.976 38.3355 26.3409 38.6156 26.0548C39.6276 25.0213 40.0085 24.65 40.0573 24.65C40.1144 24.65 40.4364 24.3188 40.5064 24.1881C40.5322 24.1396 40.587 24.1 40.6279 24.1C40.6688 24.1 40.7277 24.0438 40.7591 23.975C40.7904 23.9063 40.8341 23.85 40.8561 23.85C40.9097 23.85 41.2884 23.465 41.3525 23.3452C41.3806 23.2929 41.4329 23.25 41.4688 23.25C41.5046 23.25 41.5596 23.1938 41.5909 23.125C41.6222 23.0562 41.6676 23 41.6916 23C41.7285 23 42.012 22.7344 42.2351 22.4906C42.2681 22.4545 42.3244 22.3975 42.3601 22.3639C42.3958 22.3302 42.4475 22.2807 42.475 22.2537C42.5025 22.2267 42.6314 22.1041 42.7614 21.9813L42.9979 21.7579L43.0197 19.6915C43.0319 18.5549 43.0566 17.5656 43.0749 17.493C43.0966 17.4066 43.085 17.346 43.0415 17.318C42.9445 17.2554 27.9015 17.2623 27.8524 17.325ZM19.0875 20.5823C19.1761 20.6375 19.2 20.6984 19.2 20.8694C19.2 21.6345 19.3121 23.1986 19.3804 23.3862C19.4886 23.6836 19.4576 23.8087 19.25 23.9124C18.9894 24.0426 14.3349 24.047 14.1914 23.9172C14.0801 23.8166 14.0491 20.9663 14.1567 20.7301C14.246 20.5341 14.2581 20.533 16.525 20.5025C18.821 20.4716 18.9145 20.4745 19.0875 20.5823ZM0 48.7464V50H1.275C2.61287 50 2.867 49.9518 2.3265 49.8004C2.2035 49.766 2.03038 49.6842 1.94175 49.6189C1.85313 49.5535 1.75475 49.5 1.72325 49.5C1.56138 49.5 0.5 48.4384 0.5 48.2766C0.5 48.2419 0.45375 48.1546 0.397125 48.0826C0.3405 48.0108 0.266375 47.8559 0.2325 47.7388C0.19525 47.6103 0.136875 47.519 0.085375 47.5091C0.00675 47.494 0 47.5911 0 48.7464ZM49.7765 47.7774C49.7321 47.9299 49.665 48.0665 49.6274 48.081C49.5898 48.0954 49.5446 48.1648 49.527 48.235C49.4504 48.5399 48.5727 49.4251 48.2494 49.5236C48.181 49.5445 48.08 49.6019 48.025 49.6512C47.97 49.7006 47.8294 49.7664 47.7125 49.7975C47.5851 49.8313 47.5 49.8831 47.5 49.9269C47.5 49.9891 47.6869 50 48.75 50H50V48.75C50 47.3914 49.9509 47.1775 49.7765 47.7774Z" fill="#F9FBF8"/>
<path fill-rule="evenodd" clip-rule="evenodd" d="M3.14999 0.0738616C3.14999 0.188112 2.95524 0.287362 2.60974 0.349112C2.42324 0.382362 2.25424 0.445737 2.19574 0.504237C2.14136 0.558612 2.02924 0.616612 1.94661 0.633112C1.86399 0.649737 1.76911 0.701612 1.73574 0.748612C1.70236 0.795612 1.62961 0.858237 1.57411 0.887612C1.44336 0.956862 0.956862 1.44336 0.887612 1.57411C0.858237 1.62961 0.795237 1.70261 0.747737 1.73636C0.700237 1.77011 0.645862 1.86011 0.626987 1.93636C0.608112 2.01261 0.550987 2.11999 0.500237 2.17499C0.449487 2.22999 0.381987 2.42124 0.350362 2.59999C0.287612 2.95424 0.189237 3.14999 0.0738616 3.14999C-0.0608884 3.14999 -0.0353884 46.8291 0.0993616 46.8644C0.213737 46.8942 0.290362 47.067 0.350237 47.4295C0.373237 47.5695 0.450112 47.7695 0.521112 47.874C0.591987 47.9785 0.649987 48.086 0.649987 48.1129C0.649987 48.2745 1.73561 49.35 1.89886 49.35C1.95711 49.35 2.18586 49.4865 2.28424 49.58C2.31674 49.6109 2.46299 49.6519 2.60924 49.6711C2.90211 49.7095 3.09999 49.8124 3.09999 49.9261C3.09999 49.9911 5.71861 50 25 50C44.2814 50 46.9 49.9911 46.9 49.9261C46.9 49.8156 47.0942 49.7121 47.375 49.673C47.5171 49.6532 47.7204 49.576 47.8461 49.4941C47.9676 49.4149 48.1002 49.35 48.1407 49.35C48.2229 49.35 48.2685 49.3106 48.7895 48.7895C49.3106 48.2685 49.35 48.2229 49.35 48.1407C49.35 48.1002 49.4149 47.9676 49.4941 47.8461C49.5751 47.7217 49.6539 47.5156 49.6739 47.375C49.7134 47.0977 49.837 46.85 49.9357 46.85C49.988 46.85 50 42.7587 50 25C50 6.47424 49.9895 3.14999 49.9311 3.14999C49.8145 3.14999 49.7499 3.02536 49.6812 2.66811C49.6429 2.46799 49.5601 2.24399 49.4826 2.13049C49.4097 2.02349 49.35 1.91536 49.35 1.89011C49.35 1.68761 48.3362 0.720987 48.0056 0.608237C47.9125 0.576362 47.8112 0.516237 47.7806 0.474487C47.75 0.432737 47.6012 0.378237 47.45 0.353487C47.0675 0.290612 46.8947 0.215612 46.8644 0.0993616C46.8291 -0.0353884 3.14999 -0.0608884 3.14999 0.0738616ZM17.7022 16.6526C17.9844 16.6816 18.2736 16.7347 18.3451 16.7707C18.4165 16.8067 18.639 16.8492 18.8394 16.8654C19.0672 16.8836 19.3014 16.9399 19.4644 17.0155C19.6077 17.0821 19.8142 17.1502 19.9234 17.1669C20.0325 17.1836 20.181 17.2411 20.2536 17.2947C20.3261 17.3484 20.4751 17.4164 20.5847 17.4459C20.6944 17.4754 20.8249 17.5446 20.8747 17.5997C20.9247 17.6549 21.0052 17.7 21.0539 17.7C21.1025 17.7 21.2061 17.7536 21.2841 17.8192C21.362 17.8849 21.51 17.9737 21.6129 18.0167C21.7159 18.0597 21.8 18.1159 21.8 18.1414C21.8 18.167 21.8639 18.2144 21.9419 18.2466C22.0199 18.279 22.2047 18.4279 22.3526 18.5777C22.5006 18.7275 22.6392 18.85 22.6607 18.85C22.7117 18.85 23.1 19.238 23.1 19.289C23.1 19.3104 23.147 19.361 23.2044 19.4015C23.2617 19.4419 23.3519 19.5586 23.4045 19.6609C23.4572 19.763 23.5452 19.8707 23.6001 19.9001C23.6551 19.9295 23.7 19.983 23.7 20.019C23.7 20.055 23.7481 20.1274 23.8069 20.1797C23.8657 20.2321 23.9447 20.3481 23.9826 20.4375C24.0204 20.5269 24.0699 20.6 24.0926 20.6C24.1471 20.6 24.25 20.8291 24.25 20.9504C24.25 21.003 24.292 21.0864 24.3432 21.1355C24.4589 21.2465 24.55 21.4176 24.55 21.5237C24.55 21.5679 24.5924 21.665 24.6441 21.7395C24.696 21.814 24.7675 21.9875 24.8032 22.125C24.839 22.2625 24.9084 22.4312 24.9575 22.5C25.0111 22.575 25.0601 22.765 25.0799 22.975C25.0981 23.1675 25.1554 23.4202 25.2072 23.5366C25.3152 23.7786 25.338 23.9251 25.4071 24.825C25.5332 26.4665 25.513 26.8079 25.2805 26.9617C25.25 26.982 23.4137 26.9989 21.2 26.9994C16.9536 27.0004 14.9471 27.0539 14.5284 27.1774C14.3927 27.2172 14.0957 27.25 13.8682 27.25C13.2501 27.25 13.2254 27.2694 13.2127 27.7652C13.2062 28.0204 13.2284 28.241 13.2715 28.35C13.3096 28.4462 13.3671 28.896 13.3992 29.3495C13.436 29.8652 13.4797 30.1879 13.5164 30.2112C13.6532 30.2982 18.4497 30.2786 18.5051 30.1909C18.5216 30.1645 18.5481 29.8539 18.5637 29.5004C18.6067 28.5357 18.5821 28.5527 19.945 28.5441C21.4596 28.5346 24.508 28.3979 24.7581 28.3284C25.0944 28.2349 25.2514 29.1966 24.9535 29.5246C24.9034 29.5799 24.8477 29.7071 24.8299 29.8076C24.812 29.908 24.7442 30.0899 24.6794 30.2119C24.6146 30.3337 24.5466 30.5016 24.5284 30.5849C24.51 30.6681 24.4399 30.7842 24.3725 30.8427C24.3051 30.9014 24.25 30.9927 24.25 31.0459C24.25 31.0989 24.1937 31.2091 24.125 31.2909C24.0562 31.3726 24 31.4596 24 31.4842C24 31.509 23.9212 31.6126 23.825 31.7147C23.7287 31.8167 23.65 31.9226 23.65 31.9501C23.65 31.9775 23.6241 32 23.5925 32C23.5609 32 23.4371 32.1069 23.3176 32.2375C23.1981 32.3681 23.0756 32.4975 23.0454 32.525C23.0152 32.5525 22.9315 32.6369 22.8591 32.7125C22.7869 32.7881 22.7025 32.85 22.6716 32.85C22.6407 32.85 22.5726 32.8974 22.5202 32.9554C22.4679 33.0132 22.3447 33.1016 22.2466 33.1516C22.1486 33.2017 22.0409 33.2757 22.0074 33.3161C21.9739 33.3565 21.8687 33.4041 21.7739 33.4219C21.6789 33.4397 21.5786 33.4965 21.551 33.5481C21.5234 33.5996 21.4342 33.6565 21.3527 33.6744C21.2714 33.6922 21.1477 33.7517 21.0781 33.8064C21.0086 33.8611 20.8196 33.9329 20.6581 33.9659C20.4966 33.9987 20.3331 34.0507 20.2947 34.0814C20.1857 34.1682 19.906 34.2384 19.531 34.2726C19.3419 34.29 19.1241 34.3367 19.047 34.3765C18.5972 34.6091 14.8677 34.605 14.3084 34.3712C14.2096 34.33 13.993 34.2845 13.8269 34.2702C13.4329 34.2362 13.1161 34.1546 13.0449 34.0687C13.0135 34.031 12.9259 34 12.8501 34C12.6836 34 12.3092 33.8729 12.2025 33.78C12.1599 33.743 12.0412 33.6976 11.9389 33.6794C11.8366 33.661 11.7221 33.6021 11.6845 33.5484C11.6469 33.4946 11.5465 33.4367 11.4615 33.4197C11.3765 33.4027 11.2599 33.345 11.2022 33.2914C11.1447 33.2377 11.0232 33.1629 10.9324 33.1249C10.8414 33.0869 10.738 33.0207 10.7024 32.9779C10.6669 32.935 10.6101 32.9 10.5765 32.9C10.5171 32.9 10.3304 32.7499 9.97011 32.4125C9.87474 32.3231 9.77636 32.25 9.75174 32.25C9.72699 32.25 9.69349 32.2084 9.67736 32.1576C9.66124 32.1067 9.59224 32.0397 9.52399 32.0086C9.45586 31.9776 9.39999 31.9291 9.39999 31.9011C9.39999 31.873 9.26399 31.7094 9.09761 31.5375C8.67161 31.0971 8.67249 31.0981 8.54999 30.8622C8.48936 30.7452 8.41911 30.6369 8.39411 30.6214C8.36899 30.6059 8.31399 30.5106 8.27186 30.4097C8.22974 30.3089 8.15374 30.181 8.10299 30.1256C8.05224 30.0702 7.99561 29.9534 7.97711 29.866C7.95874 29.7785 7.91236 29.681 7.87411 29.6492C7.83586 29.6176 7.76924 29.4641 7.72599 29.3082C7.68286 29.1525 7.61186 28.9611 7.56836 28.8831C7.52486 28.8051 7.46786 28.5689 7.44186 28.3581C7.41586 28.1474 7.36361 27.9277 7.32599 27.8699C7.08699 27.5035 7.08361 23.9697 7.32199 23.702C7.35974 23.6596 7.40611 23.4675 7.42499 23.275C7.44386 23.0825 7.50136 22.835 7.55274 22.725C7.60411 22.615 7.67199 22.4012 7.70361 22.25C7.73511 22.0987 7.80161 21.93 7.85136 21.875C7.90111 21.82 7.95774 21.685 7.97699 21.575C7.99636 21.465 8.06286 21.3187 8.12499 21.25C8.18711 21.1812 8.26424 21.0426 8.29636 20.9419C8.32849 20.8412 8.38424 20.7475 8.42024 20.7337C8.45636 20.7199 8.49861 20.6441 8.51436 20.5654C8.53024 20.4865 8.60649 20.35 8.68399 20.2619C8.76161 20.1737 8.87486 20.0395 8.93574 19.9634C9.33186 19.4686 9.45324 19.3337 9.82511 18.975C10.4089 18.4117 10.5991 18.25 10.6779 18.25C10.7156 18.25 10.7691 18.2077 10.7967 18.156C10.8245 18.1044 10.9334 18.0275 11.0389 17.9852C11.1444 17.9431 11.2602 17.8729 11.2965 17.8292C11.3326 17.7856 11.3967 17.75 11.4389 17.75C11.4811 17.75 11.5862 17.696 11.6727 17.6301C11.7591 17.5642 11.9164 17.4864 12.022 17.4572C12.1276 17.428 12.2616 17.3596 12.3196 17.3051C12.383 17.2456 12.5522 17.1856 12.7441 17.1547C12.9197 17.1265 13.0997 17.0714 13.1441 17.0324C13.2367 16.9509 13.6716 16.85 13.93 16.85C14.0262 16.85 14.1682 16.8172 14.2455 16.7772C14.5486 16.6205 16.6509 16.5447 17.7022 16.6526ZM29.575 17.0285C30.015 17.0366 30.5212 17.0672 30.7 17.0962C31.1271 17.1659 36.0624 17.1675 36.4894 17.0982C36.6624 17.0701 37.7199 17.0387 38.8394 17.0284C39.959 17.018 41.3631 16.9926 41.9596 16.9719L43.0442 16.9342L43.2284 17.1184C43.408 17.298 43.4116 17.3091 43.3747 17.5637C43.354 17.7075 43.3306 18.4887 43.3227 19.3C43.3139 20.2034 43.2874 20.8295 43.2541 20.9157C43.2244 20.9931 43.2 21.2115 43.2 21.4009C43.2 21.7745 43.1332 21.9827 43 22.025C42.9534 22.0397 42.8897 22.1077 42.8586 22.176C42.8276 22.2441 42.7824 22.3 42.7584 22.3C42.7212 22.3 42.6161 22.3979 42.225 22.7967C42.1975 22.8249 41.95 23.0726 41.675 23.3475C41.4 23.6222 41.1525 23.8696 41.125 23.8972C41.0975 23.9249 40.8162 24.1951 40.5 24.4976C39.3875 25.5621 39.2579 25.6917 39.2025 25.7954C39.1716 25.853 39.113 25.9 39.0721 25.9C39.0312 25.9 38.9724 25.9559 38.9414 26.024C38.9102 26.0922 38.8444 26.1609 38.795 26.1766C38.7455 26.1922 38.6922 26.2455 38.6766 26.295C38.6609 26.3444 38.5922 26.4102 38.524 26.4414C38.4559 26.4724 38.4 26.5315 38.4 26.5726C38.4 26.6137 38.3325 26.6824 38.25 26.725C38.1675 26.7676 38.1 26.8365 38.1 26.8779C38.1 26.9192 38.0626 26.9675 38.0169 26.985C37.9712 27.0025 37.5585 27.39 37.0999 27.846C36.6411 28.3019 36.1829 28.7492 36.0815 28.84C35.9801 28.9307 35.9104 29.0264 35.9265 29.0525C35.9666 29.1172 36.8219 29.1086 37.1 29.0406C37.2237 29.0105 37.64 28.981 38.025 28.9751C38.41 28.9692 39.7649 28.9349 41.0357 28.8985C44.1197 28.8105 44.0714 28.7974 43.9495 29.6876C43.9115 29.965 43.8925 30.7219 43.8975 31.7565L43.9055 33.3881L43.7821 33.5315C43.662 33.6711 43.6461 33.6749 43.1919 33.6707C42.1831 33.6615 41.368 33.6132 41.225 33.5541C41.1367 33.5177 40.8587 33.4932 40.55 33.4946C40.2612 33.4959 39.9687 33.495 39.9 33.4927C39.8312 33.4905 36.8234 33.4796 33.2157 33.4687L26.6564 33.4489L26.5532 33.3177C26.4314 33.1629 26.4235 32.966 26.5255 32.6295C26.5812 32.4457 26.6001 32.1192 26.6004 31.3295L26.6009 30.275L26.7786 30.0875C26.8764 29.9844 26.985 29.9 27.0201 29.9C27.0552 29.9 27.1087 29.8457 27.1389 29.7794C27.1691 29.713 27.2369 29.645 27.2894 29.6284C27.3419 29.6117 27.4102 29.5422 27.4414 29.474C27.4724 29.4059 27.5232 29.35 27.5542 29.35C27.5852 29.35 27.6549 29.2937 27.7089 29.225C27.763 29.1562 27.8399 29.1 27.8799 29.1C27.9197 29.1 27.9739 29.0437 28 28.975C28.0261 28.9062 28.0685 28.85 28.0942 28.85C28.12 28.85 28.5311 28.4689 29.008 28.003C29.4849 27.5371 30.0662 26.9727 30.3 26.7489C30.5337 26.525 31.0625 26.018 31.475 25.6222C31.8875 25.2264 32.2442 24.9019 32.2679 24.9012C32.2915 24.9005 32.4287 24.7762 32.5729 24.625C32.717 24.4737 32.8609 24.35 32.8925 24.35C32.9241 24.35 32.95 24.3207 32.95 24.2851C32.95 24.2494 33.053 24.1312 33.1789 24.0226C33.3049 23.9139 33.5406 23.6956 33.703 23.5375C33.8654 23.3794 34.0184 23.25 34.0432 23.25C34.068 23.25 34.1001 23.2051 34.1144 23.1502C34.1287 23.0954 34.182 23.0354 34.2327 23.0167C34.2835 22.9982 34.5176 22.79 34.753 22.554C34.9885 22.3181 35.3094 22.0057 35.4661 21.8599C35.6229 21.7141 35.7874 21.5395 35.8316 21.4719C35.876 21.4041 35.9657 21.3354 36.0311 21.319C36.0965 21.3026 36.15 21.2659 36.15 21.2374C36.15 21.1739 31.9547 21.2251 31.425 21.295C29.8884 21.4979 27.4214 21.5617 27.2772 21.4025C27.16 21.273 27.198 19.9617 27.3246 19.7686C27.3771 19.6884 27.4116 19.3549 27.4515 18.5426C27.5256 17.0309 27.5932 16.9132 28.35 16.9775C28.5837 16.9974 29.135 17.0204 29.575 17.0285ZM17.375 20.7011C17.265 20.723 16.995 20.7292 16.775 20.715C16.2986 20.6841 14.4039 20.8345 14.3125 20.9104C14.2626 20.9517 14.2514 21.2751 14.2617 22.3692L14.275 23.775L16.672 23.788C17.9904 23.7951 19.0841 23.7839 19.1025 23.763C19.2057 23.6457 18.9769 20.8779 18.8515 20.7267C18.7809 20.6417 17.7636 20.6241 17.375 20.7011Z" fill="#64CC04"/>
<path fill-rule="evenodd" clip-rule="evenodd" d="M2.8365 0.0963788C2.81925 0.162129 2.72587 0.217379 2.54312 0.270129C2.249 0.355004 1.81025 0.568629 1.609 0.725004C1.25575 0.999629 0.55 1.76863 0.55 1.879C0.55 1.91063 0.50575 1.99275 0.45175 2.06138C0.39775 2.13013 0.3295 2.2935 0.300125 2.4245C0.232625 2.7255 0.16625 2.85 0.07325 2.85C0.02525 2.85 0 2.90163 0 3C0 3.3885 0.264125 3.087 0.350375 2.6C0.382 2.42125 0.4495 2.23 0.50025 2.175C0.551 2.12 0.608125 2.01263 0.627 1.93638C0.645875 1.86013 0.70025 1.77013 0.74775 1.73638C0.79525 1.70263 0.85825 1.62963 0.887625 1.57413C0.956875 1.44338 1.44338 0.956879 1.57413 0.887629C1.62963 0.858254 1.70237 0.795629 1.73575 0.748629C1.76912 0.701629 1.864 0.649754 1.94662 0.633129C2.02925 0.616629 2.14137 0.558629 2.19575 0.504254C2.25425 0.445754 2.42325 0.382379 2.60975 0.349129C2.95525 0.287379 3.15 0.188129 3.15 0.0738788C3.15 -0.0432462 2.86762 -0.0228712 2.8365 0.0963788ZM46.8595 0.0871288C46.8816 0.202004 47.0833 0.294379 47.4371 0.351879C47.5955 0.377629 47.75 0.432754 47.7806 0.474504C47.8112 0.516254 47.9125 0.576379 48.0056 0.608254C48.3363 0.721004 49.35 1.68763 49.35 1.89013C49.35 1.91538 49.4097 2.0235 49.4826 2.1305C49.5601 2.244 49.6429 2.468 49.6813 2.66813C49.7704 3.1325 50 3.3715 50 3C50 2.90588 49.9744 2.85 49.9311 2.85C49.8596 2.85 49.7775 2.68438 49.7204 2.425C49.5446 1.6265 48.4346 0.556254 47.4819 0.266629C47.3225 0.218254 47.2301 0.159629 47.2135 0.0963788C47.1786 -0.0369962 46.8338 -0.0459962 46.8595 0.0871288ZM14.8306 16.659C14.5861 16.6841 14.3229 16.7374 14.2455 16.7773C14.1682 16.8173 14.0263 16.85 13.93 16.85C13.6716 16.85 13.2367 16.9509 13.1441 17.0324C13.0997 17.0714 12.9198 17.1265 12.7441 17.1548C12.5523 17.1856 12.383 17.2456 12.3196 17.3051C12.2616 17.3596 12.1276 17.428 12.022 17.4573C11.9164 17.4864 11.7591 17.5643 11.6728 17.6301C11.5863 17.696 11.4811 17.75 11.4389 17.75C11.3968 17.75 11.3326 17.7856 11.2965 17.8293C11.2603 17.8729 11.1444 17.9431 11.0389 17.9853C10.9334 18.0275 10.8245 18.1044 10.7968 18.156C10.7691 18.2078 10.7156 18.25 10.6779 18.25C10.5991 18.25 10.4089 18.4118 9.82512 18.975C9.45325 19.3338 9.33187 19.4686 8.93575 19.9634C8.87488 20.0395 8.76163 20.1738 8.684 20.2619C8.6065 20.35 8.53025 20.4865 8.51437 20.5654C8.49862 20.6441 8.45637 20.7199 8.42025 20.7338C8.38425 20.7475 8.3285 20.8413 8.29638 20.9419C8.26425 21.0426 8.18713 21.1813 8.125 21.25C8.06287 21.3188 7.99638 21.465 7.977 21.575C7.95775 21.685 7.90113 21.82 7.85138 21.875C7.80163 21.93 7.73513 22.0988 7.70363 22.25C7.672 22.4013 7.60413 22.615 7.55275 22.725C7.50138 22.835 7.44388 23.0825 7.425 23.275C7.40613 23.4675 7.35975 23.6596 7.322 23.702C7.08363 23.9698 7.087 27.5035 7.326 27.8699C7.36363 27.9278 7.41587 28.1474 7.44187 28.3581C7.46787 28.5689 7.52488 28.8051 7.56838 28.8831C7.61188 28.9611 7.68287 29.1525 7.726 29.3083C7.76925 29.4641 7.83588 29.6176 7.87413 29.6493C7.91238 29.681 7.95875 29.7785 7.97713 29.866C7.99563 29.9534 8.05225 30.0703 8.103 30.1256C8.15375 30.181 8.22975 30.3089 8.27188 30.4098C8.314 30.5106 8.369 30.6059 8.39412 30.6214C8.41912 30.6369 8.48938 30.7453 8.55 30.8623C8.6725 31.0981 8.67162 31.0971 9.09762 31.5375C9.264 31.7094 9.4 31.873 9.4 31.9011C9.4 31.9291 9.45588 31.9776 9.524 32.0086C9.59225 32.0398 9.66125 32.1068 9.67737 32.1576C9.6935 32.2084 9.727 32.25 9.75175 32.25C9.77637 32.25 9.87475 32.3231 9.97013 32.4125C10.3304 32.7499 10.5171 32.9 10.5765 32.9C10.6101 32.9 10.6669 32.935 10.7024 32.9779C10.738 33.0208 10.8414 33.0869 10.9324 33.1249C11.0232 33.1629 11.1447 33.2378 11.2022 33.2914C11.2599 33.345 11.3765 33.4028 11.4615 33.4198C11.5465 33.4368 11.6469 33.4946 11.6845 33.5484C11.7221 33.6021 11.8366 33.661 11.9389 33.6794C12.0413 33.6976 12.1599 33.743 12.2025 33.78C12.3093 33.8729 12.6836 34 12.8501 34C12.9259 34 13.0135 34.031 13.0449 34.0688C13.1161 34.1546 13.4329 34.2363 13.8269 34.2703C13.993 34.2845 14.2096 34.33 14.3084 34.3713C14.8678 34.605 18.5973 34.6091 19.047 34.3765C19.1241 34.3368 19.3419 34.29 19.531 34.2726C19.906 34.2384 20.1858 34.1683 20.2948 34.0814C20.3331 34.0508 20.4966 33.9988 20.6581 33.9659C20.8196 33.9329 21.0086 33.8611 21.0781 33.8064C21.1477 33.7518 21.2714 33.6923 21.3528 33.6744C21.4343 33.6565 21.5234 33.5996 21.551 33.5481C21.5786 33.4965 21.6789 33.4398 21.7739 33.4219C21.8687 33.4041 21.9739 33.3565 22.0074 33.3161C22.0409 33.2758 22.1486 33.2018 22.2466 33.1516C22.3448 33.1016 22.4679 33.0133 22.5203 32.9554C22.5726 32.8974 22.6408 32.85 22.6716 32.85C22.7025 32.85 22.7869 32.7881 22.8591 32.7125C22.9315 32.6369 23.0153 32.5525 23.0454 32.525C23.0756 32.4975 23.1981 32.3681 23.3176 32.2375C23.4371 32.1069 23.5609 32 23.5925 32C23.6241 32 23.65 31.9775 23.65 31.9501C23.65 31.9226 23.7288 31.8168 23.825 31.7148C23.9213 31.6126 24 31.509 24 31.4843C24 31.4596 24.0562 31.3726 24.125 31.2909C24.1938 31.2091 24.25 31.0989 24.25 31.0459C24.25 30.9928 24.3051 30.9014 24.3725 30.8428C24.4399 30.7843 24.51 30.6681 24.5284 30.5849C24.5466 30.5016 24.6146 30.3338 24.6794 30.2119C24.7442 30.0899 24.812 29.908 24.8299 29.8076C24.8478 29.7071 24.9034 29.5799 24.9535 29.5246C25.2514 29.1966 25.0944 28.2349 24.7581 28.3284C24.508 28.3979 21.4596 28.5346 19.945 28.5441C18.5821 28.5528 18.6067 28.5358 18.5637 29.5004C18.5481 29.8539 18.5216 30.1645 18.5051 30.1909C18.4498 30.2786 13.6532 30.2983 13.5164 30.2113C13.4797 30.1879 13.436 29.8653 13.3993 29.3495C13.3671 28.896 13.3096 28.4463 13.2715 28.35C13.2284 28.241 13.2063 28.0204 13.2128 27.7653C13.2254 27.2694 13.2501 27.25 13.8682 27.25C14.0957 27.25 14.3927 27.2173 14.5284 27.1774C14.9471 27.0539 16.9536 27.0004 21.2 26.9994C23.4138 26.9989 25.25 26.982 25.2805 26.9618C25.513 26.8079 25.5333 26.4665 25.4071 24.825C25.338 23.9251 25.3153 23.7786 25.2073 23.5366C25.1554 23.4203 25.0981 23.1675 25.0799 22.975C25.0601 22.765 25.0111 22.575 24.9575 22.5C24.9084 22.4313 24.839 22.2625 24.8032 22.125C24.7675 21.9875 24.696 21.814 24.6441 21.7395C24.5924 21.665 24.55 21.5679 24.55 21.5238C24.55 21.4176 24.4589 21.2465 24.3433 21.1355C24.292 21.0864 24.25 21.003 24.25 20.9504C24.25 20.8291 24.1471 20.6 24.0926 20.6C24.0699 20.6 24.0204 20.5269 23.9826 20.4375C23.9447 20.3481 23.8658 20.2321 23.8069 20.1798C23.7481 20.1274 23.7 20.055 23.7 20.019C23.7 19.983 23.6551 19.9295 23.6001 19.9001C23.5452 19.8708 23.4572 19.763 23.4045 19.6609C23.3519 19.5586 23.2617 19.4419 23.2044 19.4015C23.147 19.361 23.1 19.3104 23.1 19.289C23.1 19.238 22.7117 18.85 22.6607 18.85C22.6392 18.85 22.5006 18.7275 22.3526 18.5778C22.2047 18.4279 22.0199 18.279 21.9419 18.2466C21.8639 18.2144 21.8 18.167 21.8 18.1414C21.8 18.1159 21.7159 18.0598 21.6129 18.0168C21.51 17.9738 21.362 17.8849 21.2841 17.8193C21.2061 17.7536 21.1025 17.7 21.0539 17.7C21.0052 17.7 20.9248 17.6549 20.8748 17.5998C20.8249 17.5446 20.6944 17.4754 20.5847 17.4459C20.4751 17.4164 20.3261 17.3484 20.2536 17.2948C20.181 17.2411 20.0325 17.1836 19.9234 17.1669C19.8142 17.1503 19.6077 17.0821 19.4644 17.0155C19.3014 16.9399 19.0672 16.8836 18.8394 16.8654C18.639 16.8493 18.4165 16.8068 18.3451 16.7708C18.0365 16.6153 15.9151 16.5479 14.8306 16.659ZM16.95 16.6996C17.2113 16.7214 17.65 16.7766 17.925 16.8223C18.2 16.8679 18.5719 16.9234 18.7515 16.9456C18.931 16.9679 19.1447 17.0199 19.2265 17.0613C19.3081 17.1028 19.4978 17.1655 19.6478 17.2008C19.8894 17.2576 20.1434 17.3536 20.55 17.5421C20.6187 17.574 20.81 17.6781 20.975 17.7734C21.14 17.8688 21.3594 17.9846 21.4625 18.031C21.5656 18.0773 21.65 18.1336 21.65 18.1563C21.65 18.1789 21.7231 18.2351 21.8125 18.2813C21.9019 18.3273 22.0763 18.4614 22.2 18.579C22.3238 18.6968 22.491 18.8445 22.5718 18.9074C22.8561 19.1291 23.2626 19.5826 23.3796 19.809C23.4198 19.8865 23.4743 19.95 23.5006 19.95C23.5418 19.95 23.6817 20.1351 23.8749 20.445C23.9022 20.489 23.972 20.5925 24.0298 20.675C24.0875 20.7575 24.1635 20.915 24.1986 21.025C24.2336 21.135 24.3064 21.2735 24.3604 21.3326C24.4142 21.3919 24.4769 21.5156 24.4995 21.6076C24.5475 21.8031 24.7179 22.2403 24.8569 22.524C24.9104 22.6334 24.9774 22.8809 25.0056 23.074C25.0339 23.267 25.101 23.5938 25.1548 23.8C25.3788 24.6604 25.4406 26.6094 25.25 26.8C25.152 26.898 25.0839 26.9 21.7375 26.8993C16.6031 26.8983 13.4431 27.0275 13.1755 27.2496C13.0857 27.324 13.0706 28.0018 13.1488 28.447C13.252 29.0351 13.35 29.7529 13.35 29.9204C13.35 30.2731 13.507 30.4159 13.8249 30.3518C13.9721 30.3221 16.6679 30.3601 17.1041 30.398C17.8466 30.4625 18.4668 30.4148 18.5466 30.2869C18.5808 30.2321 18.6335 29.8964 18.6639 29.5408C18.7456 28.5839 18.5429 28.673 20.7385 28.6286C22.9138 28.5849 24.6353 28.5188 24.7838 28.4735C25.0483 28.3928 25.0911 29.0769 24.8475 29.4904C24.7939 29.5813 24.75 29.6946 24.75 29.7423C24.75 29.7899 24.7055 29.9161 24.6511 30.0229C24.5967 30.1295 24.526 30.2974 24.4939 30.3959C24.4618 30.4944 24.3825 30.6386 24.3178 30.7164C24.253 30.7941 24.2 30.8993 24.2 30.95C24.2 31.0008 24.147 31.1059 24.0823 31.1836C24.0175 31.2614 23.9311 31.3894 23.8904 31.4681C23.7724 31.6961 22.7223 32.7239 22.4195 32.9076C22.2678 32.9996 22.0651 33.1354 21.9692 33.2091C21.8732 33.2829 21.7309 33.3573 21.6526 33.3744C21.5744 33.3916 21.4707 33.4494 21.4224 33.5029C21.3741 33.5563 21.3131 33.6 21.287 33.6C21.2609 33.6 21.1296 33.6551 20.9954 33.7226C20.8611 33.79 20.6666 33.8603 20.5631 33.8786C20.4596 33.897 20.273 33.9621 20.1484 34.0234C20.0084 34.0923 19.7314 34.1581 19.4234 34.1956C19.1492 34.229 18.7376 34.2999 18.5085 34.3531C17.8939 34.4961 15.5509 34.4961 14.9093 34.3534C14.6704 34.3001 14.2387 34.2239 13.95 34.1838C13.465 34.1164 13.2511 34.058 12.5 33.7878C12.1533 33.663 11.3106 33.2578 11.2736 33.1979C11.2584 33.1731 11.1511 33.1074 11.0354 33.0519C10.7614 32.9204 10.4923 32.7558 10.427 32.6798C10.3984 32.6465 10.2962 32.5614 10.2 32.4905C10.0529 32.3823 9.50137 31.8438 9.03187 31.35C8.9665 31.2813 8.83225 31.1013 8.73363 30.95C8.635 30.7988 8.5115 30.6188 8.45925 30.55C8.40688 30.4813 8.3465 30.3688 8.32512 30.3C8.30375 30.2313 8.23313 30.1114 8.16813 30.0336C8.10313 29.9559 8.05 29.8636 8.05 29.8286C8.05 29.7936 7.995 29.6614 7.92775 29.535C7.8605 29.4085 7.79 29.2195 7.771 29.115C7.752 29.0105 7.69713 28.8463 7.64888 28.75C7.60075 28.6538 7.52275 28.3275 7.47575 28.025C7.42862 27.7225 7.35412 27.3625 7.31 27.225C7.20875 26.9093 7.1915 24.784 7.28788 24.5C7.3205 24.4038 7.39337 24.0249 7.44975 23.6581C7.50625 23.2914 7.59412 22.9089 7.64525 22.8081C7.69637 22.7074 7.75412 22.5073 7.77362 22.3635C7.79312 22.2196 7.85025 22.0496 7.9005 21.9858C7.95062 21.9219 8.00763 21.7849 8.02713 21.6813C8.04663 21.5776 8.11287 21.4326 8.17437 21.3589C8.236 21.2853 8.30387 21.1688 8.32537 21.1C8.34687 21.0313 8.41375 20.9075 8.47425 20.825C8.53462 20.7425 8.61287 20.6019 8.64812 20.5125C8.68325 20.4231 8.72825 20.35 8.748 20.35C8.76775 20.35 8.808 20.2971 8.83737 20.2326C8.94712 19.9919 10.4911 18.4321 10.7509 18.2995C10.8554 18.2463 10.9485 18.1821 10.9579 18.1569C10.975 18.111 11.1816 17.9958 11.5984 17.7995C11.7211 17.7416 11.8512 17.6698 11.8875 17.6396C12.0014 17.5451 12.6911 17.2621 12.9636 17.198C13.1074 17.1643 13.2815 17.108 13.3506 17.0731C13.4198 17.0383 13.5885 16.9948 13.7256 16.9764C13.8628 16.9581 14.0875 16.9231 14.225 16.8986C15.495 16.6723 16.096 16.6284 16.95 16.6996ZM27.8166 17.0206C27.5405 17.2225 27.51 17.3498 27.4515 18.5426C27.4116 19.3549 27.3771 19.6884 27.3246 19.7686C27.198 19.9618 27.16 21.273 27.2773 21.4025C27.4214 21.5618 29.8884 21.4979 31.425 21.295C31.9547 21.2251 36.15 21.1739 36.15 21.2374C36.15 21.2659 36.0965 21.3026 36.0311 21.319C35.9657 21.3354 35.876 21.4041 35.8316 21.4719C35.7874 21.5395 35.6229 21.7141 35.4661 21.8599C35.3094 22.0058 34.9885 22.3181 34.753 22.554C34.5176 22.79 34.2835 22.9983 34.2327 23.0168C34.182 23.0354 34.1288 23.0954 34.1144 23.1503C34.1001 23.2051 34.068 23.25 34.0433 23.25C34.0184 23.25 33.8654 23.3794 33.703 23.5375C33.5406 23.6956 33.3049 23.9139 33.1789 24.0226C33.053 24.1313 32.95 24.2494 32.95 24.2851C32.95 24.3208 32.9241 24.35 32.8925 24.35C32.8609 24.35 32.717 24.4738 32.5729 24.625C32.4288 24.7763 32.2915 24.9005 32.2679 24.9013C32.2443 24.9019 31.8875 25.2264 31.475 25.6223C31.0625 26.018 30.5337 26.525 30.3 26.7489C30.0662 26.9728 29.4849 27.5371 29.008 28.003C28.5311 28.4689 28.12 28.85 28.0942 28.85C28.0685 28.85 28.0261 28.9063 28 28.975C27.9739 29.0438 27.9198 29.1 27.8799 29.1C27.8399 29.1 27.763 29.1563 27.7089 29.225C27.6549 29.2938 27.5853 29.35 27.5543 29.35C27.5233 29.35 27.4724 29.4059 27.4414 29.474C27.4103 29.5423 27.3419 29.6118 27.2894 29.6284C27.2369 29.645 27.1691 29.713 27.1389 29.7794C27.1087 29.8458 27.0552 29.9 27.0201 29.9C26.985 29.9 26.8764 29.9844 26.7786 30.0875L26.6009 30.275L26.6004 31.3295C26.6001 32.1193 26.5812 32.4458 26.5255 32.6295C26.4235 32.966 26.4314 33.1629 26.5532 33.3178L26.6564 33.4489L33.2158 33.4688C36.8234 33.4796 39.8313 33.4905 39.9 33.4928C39.9688 33.495 40.2612 33.4959 40.55 33.4946C40.8587 33.4933 41.1367 33.5178 41.225 33.5541C41.368 33.6133 42.1831 33.6615 43.1919 33.6708C43.6461 33.6749 43.662 33.6711 43.7821 33.5315L43.9055 33.3881L43.8975 31.7565C43.8925 30.7219 43.9115 29.965 43.9495 29.6876C44.0714 28.7974 44.1198 28.8105 41.0358 28.8985C39.7649 28.9349 38.41 28.9693 38.025 28.9751C37.64 28.981 37.2237 29.0105 37.1 29.0406C36.8219 29.1086 35.9666 29.1173 35.9265 29.0525C35.9104 29.0264 35.9801 28.9308 36.0815 28.84C36.1829 28.7493 36.6411 28.3019 37.0999 27.846C37.5585 27.39 37.9713 27.0025 38.0169 26.985C38.0626 26.9675 38.1 26.9193 38.1 26.8779C38.1 26.8365 38.1675 26.7676 38.25 26.725C38.3325 26.6824 38.4 26.6138 38.4 26.5726C38.4 26.5315 38.4559 26.4724 38.524 26.4414C38.5922 26.4103 38.6609 26.3444 38.6766 26.295C38.6922 26.2455 38.7455 26.1923 38.795 26.1766C38.8444 26.1609 38.9103 26.0923 38.9414 26.024C38.9724 25.9559 39.0312 25.9 39.0721 25.9C39.113 25.9 39.1716 25.853 39.2025 25.7954C39.2579 25.6918 39.3875 25.5621 40.5 24.4976C40.8162 24.1951 41.0975 23.9249 41.125 23.8973C41.1525 23.8696 41.4 23.6223 41.675 23.3475C41.95 23.0726 42.1975 22.8249 42.225 22.7968C42.6161 22.3979 42.7212 22.3 42.7584 22.3C42.7824 22.3 42.8276 22.2441 42.8586 22.176C42.8897 22.1078 42.9534 22.0398 43 22.025C43.1332 21.9828 43.2 21.7745 43.2 21.4009C43.2 21.2115 43.2244 20.9931 43.2541 20.9158C43.2874 20.8295 43.3139 20.2034 43.3228 19.3C43.3306 18.4888 43.354 17.7075 43.3747 17.5638C43.4116 17.3091 43.408 17.298 43.2284 17.1184L43.0443 16.9343L41.9596 16.9719C41.3631 16.9926 39.959 17.018 38.8394 17.0284C37.7199 17.0388 36.6624 17.0701 36.4894 17.0983C36.0624 17.1675 31.1271 17.1659 30.7 17.0963C30.5213 17.0673 30.015 17.0366 29.575 17.0285C29.135 17.0204 28.5838 16.9974 28.35 16.9775C28.0005 16.9479 27.9058 16.9555 27.8166 17.0206ZM31.5 17.1795C33.0263 17.1963 36.2315 17.1871 38.6227 17.159C43.8014 17.0983 43.3365 17.0334 43.2174 17.8C43.1771 18.059 43.1559 18.557 43.1631 19.075C43.1696 19.5425 43.1555 20.3501 43.1317 20.8698L43.0886 21.8144L42.4318 22.456C42.0705 22.8089 41.685 23.1923 41.575 23.308C41.465 23.4238 41.2216 23.6661 41.0341 23.8468C40.8468 24.0273 40.6105 24.2634 40.5091 24.3714C40.4079 24.4793 40.2834 24.603 40.2325 24.6464C40.1815 24.6896 39.583 25.2763 38.9024 25.95C38.2217 26.6238 37.2569 27.5688 36.7581 28.05C35.5261 29.239 35.5229 29.1904 36.8299 29.1418C38.7004 29.0721 43.2907 28.9925 43.5124 29.0258C43.9014 29.084 43.9351 29.1609 43.8261 29.7388C43.7503 30.1416 43.7338 30.4979 43.7298 31.8153L43.725 33.4055L43.6 33.5016C43.4429 33.6225 43.0236 33.6316 42.615 33.523C42.4555 33.4805 42.1338 33.4464 41.9 33.4469C41.6663 33.4475 40.62 33.4266 39.575 33.4005C38.53 33.3744 35.2166 33.357 32.212 33.3618C27.4895 33.3693 26.7396 33.3606 26.6798 33.2978C26.6226 33.2379 26.6151 32.9719 26.6373 31.7906L26.664 30.3561L27.3149 29.7406C27.6729 29.402 28.1506 28.945 28.3766 28.725C28.6026 28.505 29.0975 28.0325 29.4762 27.675C29.855 27.3175 30.2807 26.9125 30.4224 26.775C30.6509 26.553 31.9604 25.3146 32.458 24.85C32.7586 24.5693 32.9674 24.3644 33.0791 24.2405C33.1364 24.177 33.3036 24.0238 33.4509 23.9C33.7054 23.6861 33.8049 23.591 33.9304 23.4411C33.9607 23.4048 34.1139 23.2625 34.2706 23.125C34.4275 22.9875 34.8862 22.5534 35.2904 22.1603C35.6944 21.7673 36.0869 21.4123 36.1625 21.3715C36.2421 21.3286 36.3 21.2553 36.3 21.1973C36.3 21.0901 32.8876 21.0926 31.3641 21.2009C27.7491 21.4576 27.3517 21.4611 27.3494 21.2363C27.349 21.2025 27.4059 20.3988 27.4757 19.45C27.6509 17.072 27.653 17.0661 28.3214 17.1178C28.5434 17.1349 29.9737 17.1626 31.5 17.1795ZM18.0959 20.5701C18.0844 20.5811 17.355 20.6009 16.475 20.6139C14.9821 20.6361 14.556 20.6723 14.3 20.7988C14.2058 20.8454 14.1597 23.7298 14.2517 23.8218C14.3134 23.8834 19.1486 23.8714 19.2105 23.8095C19.231 23.789 19.2259 23.4241 19.1991 22.9986C19.1723 22.5731 19.1376 21.9325 19.122 21.575C19.0849 20.7251 19.0804 20.7076 18.8749 20.6218C18.7211 20.5575 18.1482 20.5195 18.0959 20.5701ZM18.8515 20.7268C18.9769 20.8779 19.2058 23.6458 19.1025 23.763C19.0841 23.7839 17.9904 23.7951 16.672 23.788L14.275 23.775L14.2618 22.3693C14.2514 21.2751 14.2626 20.9518 14.3125 20.9104C14.4039 20.8345 16.2986 20.6841 16.775 20.715C16.995 20.7293 17.265 20.723 17.375 20.7011C17.7636 20.6241 18.7809 20.6418 18.8515 20.7268ZM0 47.0155C0 47.144 0.024625 47.1948 0.09625 47.2135C0.165 47.2315 0.222 47.3383 0.296625 47.5885C0.353875 47.781 0.434375 47.9663 0.475375 48.0004C0.516375 48.0344 0.55 48.0908 0.55 48.1258C0.55 48.3379 1.6665 49.45 1.87937 49.45C1.91087 49.45 1.99613 49.4969 2.069 49.5543C2.14188 49.6116 2.28563 49.6803 2.38825 49.7069C2.70525 49.7889 2.85 49.8593 2.85 49.9311C2.85 49.9713 2.90212 50 2.975 50C3.32062 50 3.01388 49.7243 2.60925 49.6711C2.463 49.6519 2.31675 49.6109 2.28425 49.58C2.18588 49.4865 1.95712 49.35 1.89887 49.35C1.73562 49.35 0.65 48.2745 0.65 48.1129C0.65 48.086 0.592 47.9785 0.521125 47.874C0.450125 47.7695 0.372625 47.5638 0.348625 47.4166C0.268125 46.922 0 46.6134 0 47.0155ZM49.7905 46.9875C49.746 47.0631 49.6935 47.2375 49.6739 47.375C49.6539 47.5156 49.5751 47.7218 49.4941 47.8461C49.4149 47.9676 49.35 48.1003 49.35 48.1408C49.35 48.2229 49.3106 48.2685 48.7895 48.7895C48.2685 49.3106 48.2229 49.35 48.1408 49.35C48.1003 49.35 47.9676 49.4149 47.8461 49.4941C47.7204 49.576 47.5171 49.6533 47.375 49.673C46.9601 49.7308 46.6925 50 47.05 50C47.1461 50 47.2 49.9745 47.2 49.9291C47.2 49.8898 47.3055 49.8208 47.4375 49.774C47.7594 49.6598 48.2172 49.4318 48.4077 49.2909C48.7394 49.0455 49.45 48.2763 49.45 48.1624C49.45 48.1355 49.4929 48.059 49.5451 47.9925C49.5975 47.9259 49.6665 47.7746 49.6984 47.6561C49.7821 47.3448 49.8566 47.2 49.933 47.2C49.9762 47.2 50 47.1379 50 47.025C50 46.8115 49.9044 46.7944 49.7905 46.9875Z" fill="#9EDE5E"/>
<path fill-rule="evenodd" clip-rule="evenodd" d="M2.55 0.0731083C2.55 0.117858 2.44987 0.175858 2.29137 0.222983C2.149 0.265233 1.99063 0.344858 1.93938 0.399858C1.88813 0.454983 1.81188 0.499983 1.77013 0.499983C1.55638 0.499983 0.5 1.53448 0.5 1.74386C0.5 1.76723 0.454 1.84498 0.397875 1.91636C0.34175 1.98773 0.262125 2.15948 0.220875 2.29811C0.175375 2.45161 0.117625 2.54998 0.073125 2.54998C0.0325 2.54998 0 2.59611 0 2.65361C0 2.87611 0.17275 2.73186 0.275 2.42398C0.33 2.25836 0.414375 2.06773 0.4625 2.00036C0.510625 1.93286 0.55 1.85773 0.55 1.83323C0.55 1.50923 1.73625 0.527358 2.42438 0.281858C2.73088 0.172358 2.87125 -1.66754e-05 2.65363 -1.66754e-05C2.59613 -1.66754e-05 2.55 0.0324833 2.55 0.0731083ZM47.25 0.0664833C47.25 0.141733 47.3822 0.215358 47.675 0.302858C47.785 0.335733 47.9088 0.391233 47.95 0.426358C47.9913 0.461358 48.1094 0.524858 48.2125 0.567483C48.3156 0.609983 48.4 0.666983 48.4 0.694108C48.4 0.721108 48.4394 0.755983 48.4875 0.771733C48.804 0.874483 49.75 2.11686 49.75 2.42961C49.75 2.54886 49.8649 2.74998 49.933 2.74998C49.9699 2.74998 50 2.70498 50 2.64998C50 2.59498 49.9685 2.54998 49.93 2.54998C49.8874 2.54998 49.8367 2.45298 49.8006 2.30248C49.7679 2.16636 49.7081 2.02748 49.6678 1.99398C49.6273 1.96036 49.5638 1.85998 49.5265 1.77086C49.3963 1.45911 48.4552 0.499983 48.2796 0.499983C48.2465 0.499983 48.1463 0.445983 48.0568 0.379983C47.9674 0.313983 47.8142 0.244983 47.7165 0.226733C47.6004 0.204858 47.5301 0.159858 47.5136 0.0967333C47.4846 -0.0141417 47.25 -0.0408917 47.25 0.0664833ZM15.375 16.7451C15.265 16.7667 14.8262 16.8338 14.4 16.894C13.9737 16.9542 13.5013 17.0468 13.35 17.0997C13.1988 17.1526 12.9738 17.2216 12.85 17.2531C12.7263 17.2846 12.3479 17.4486 12.0091 17.6176C11.0865 18.078 11.0174 18.1162 10.8879 18.2378C10.8222 18.2995 10.7475 18.3503 10.7218 18.3507C10.6188 18.3525 9.218 19.7145 9.17275 19.8568C9.15813 19.9031 9.09075 19.9773 9.023 20.0216C8.95537 20.066 8.9 20.1327 8.9 20.17C8.9 20.2072 8.86263 20.2686 8.81688 20.3063C8.77113 20.3441 8.69262 20.4676 8.6425 20.5808C8.59225 20.6941 8.51825 20.814 8.47812 20.8473C8.438 20.8807 8.37825 20.9906 8.34538 21.0915C8.31238 21.1923 8.2325 21.3386 8.16775 21.4163C8.103 21.4941 8.05 21.6203 8.05 21.6971C8.05 21.7737 8.004 21.895 7.94788 21.9663C7.89163 22.0377 7.816 22.249 7.77962 22.4356C7.74337 22.6222 7.6765 22.8537 7.63112 22.95C7.58562 23.0462 7.5025 23.4287 7.44625 23.8C7.38987 24.1712 7.32063 24.6212 7.29225 24.8C7.22975 25.1926 7.26663 26.9516 7.3425 27.2C7.37188 27.2962 7.42988 27.6045 7.47125 27.8851C7.51275 28.1656 7.5835 28.4806 7.6285 28.5851C7.6735 28.6895 7.74112 28.9027 7.77875 29.059C7.81637 29.2151 7.89275 29.4176 7.94838 29.509C8.00413 29.6002 8.04975 29.7126 8.04988 29.7586C8.04988 29.8046 8.10625 29.9091 8.175 29.9908C8.24375 30.0726 8.30013 30.1587 8.30013 30.1822C8.30025 30.2057 8.35088 30.3023 8.41263 30.397C8.4745 30.4916 8.57 30.6408 8.625 30.7287C8.68 30.8165 8.787 30.9807 8.86287 31.0937C9.03275 31.3468 10.0699 32.3961 10.275 32.5223C10.3575 32.5731 10.4587 32.6457 10.5 32.6837C10.6276 32.8013 11.0219 33.0481 11.0836 33.0491C11.1159 33.0496 11.2059 33.1015 11.2836 33.1645C11.5224 33.3577 12.541 33.826 12.8394 33.8795C12.9415 33.8977 13.1488 33.9636 13.3 34.0258C13.4673 34.0946 13.7906 34.1623 14.125 34.1985C14.4275 34.2312 14.7987 34.2916 14.95 34.3327C15.5032 34.483 17.6539 34.4842 18.425 34.3348C18.7825 34.2656 19.2438 34.193 19.45 34.1735C19.6563 34.1541 19.9047 34.0977 20.0021 34.0483C20.0996 33.999 20.3021 33.9246 20.4521 33.8832C20.7723 33.7948 21.2227 33.6073 21.4 33.4887C21.4687 33.4427 21.6038 33.37 21.7 33.3271C21.7963 33.2842 21.9312 33.2076 22 33.1568C22.0688 33.1061 22.2589 32.977 22.4224 32.8698C22.769 32.6427 23.768 31.6586 23.883 31.431C23.9262 31.3451 24.0015 31.23 24.0501 31.175C24.0988 31.12 24.155 31.0187 24.175 30.95C24.1951 30.8812 24.264 30.755 24.3281 30.6693C24.3923 30.5837 24.46 30.4487 24.4788 30.3693C24.4975 30.29 24.5525 30.1575 24.601 30.075C24.6495 29.9925 24.7056 29.8462 24.7257 29.75C24.7457 29.6537 24.8041 29.4922 24.8552 29.3912C25.1639 28.7813 25.0286 28.483 24.4726 28.547C24.2513 28.5725 23.3175 28.6066 22.3976 28.6228C21.4776 28.639 20.3147 28.6655 19.8132 28.6815L18.9015 28.7107L18.8071 28.8678C18.7374 28.984 18.7046 29.1665 18.6816 29.567C18.6619 29.9098 18.6199 30.1733 18.5674 30.284L18.4844 30.4588L16.7297 30.4253C15.7646 30.407 14.6406 30.3871 14.2319 30.3812C13.4065 30.3693 13.35 30.3466 13.35 30.0251C13.35 29.9393 13.3034 29.6231 13.2464 29.3221C13.1074 28.5875 13.0554 27.2992 13.1613 27.2113C13.3011 27.0952 13.7091 27.0628 17.0693 26.9005C17.6435 26.8727 19.7051 26.85 21.6506 26.85C24.879 26.85 25.1937 26.8427 25.2564 26.7673C25.4002 26.5941 25.3409 24.6352 25.1741 24.05C25.131 23.8987 25.0635 23.5558 25.0241 23.2881C24.9849 23.0202 24.907 22.7117 24.8512 22.6026C24.7956 22.4933 24.75 22.3812 24.75 22.3535C24.75 22.3257 24.6962 22.1841 24.6306 22.039C24.5649 21.8937 24.4962 21.7048 24.4781 21.6192C24.4599 21.5336 24.3989 21.414 24.3426 21.3536C24.2862 21.2931 24.2174 21.1608 24.1894 21.0597C24.1615 20.9587 24.085 20.8121 24.0194 20.7341C23.9537 20.6561 23.9 20.5612 23.9 20.5232C23.9 20.4852 23.7706 20.2958 23.6125 20.1025C23.4544 19.909 23.2244 19.6237 23.1014 19.4686C22.9783 19.3133 22.7307 19.0687 22.5514 18.925C22.3719 18.7811 22.18 18.6125 22.125 18.5502C21.9799 18.3858 21.4178 18.0216 21.003 17.8231C20.9085 17.7777 20.7514 17.6866 20.654 17.6203C20.5565 17.5541 20.4404 17.5 20.3959 17.5C20.3514 17.5 20.2157 17.4472 20.0945 17.3828C19.9734 17.3183 19.7844 17.249 19.6746 17.2285C19.5648 17.2081 19.3738 17.1497 19.25 17.099C19.1262 17.0481 18.7213 16.969 18.35 16.923C17.9788 16.8771 17.6075 16.8172 17.525 16.7901C17.3355 16.7278 15.6425 16.6923 15.375 16.7451ZM17.2488 16.8763C17.4269 16.9191 17.8626 16.9761 18.2171 17.0031C18.6371 17.0351 18.9423 17.0852 19.0933 17.1472C19.2208 17.1995 19.4488 17.2693 19.6 17.3025C19.7513 17.3356 19.9091 17.3922 19.9508 17.4285C19.9924 17.4646 20.1239 17.5161 20.243 17.5428C20.3621 17.5696 20.508 17.6363 20.5672 17.6912C20.6265 17.7461 20.7706 17.8163 20.8875 17.8475C21.0044 17.8785 21.1 17.925 21.1 17.9508C21.1 17.9767 21.1887 18.0432 21.2971 18.0985C21.8112 18.3608 22.7099 19.1326 23.125 19.6686C23.2075 19.7751 23.3481 19.9342 23.4375 20.0222C23.5269 20.1101 23.6 20.2073 23.6 20.2382C23.6 20.2691 23.6415 20.3237 23.6924 20.3596C23.7431 20.3956 23.8124 20.5095 23.8464 20.6128C23.8802 20.7162 23.9481 20.8222 23.9971 20.8485C24.0461 20.8747 24.0994 20.9766 24.1154 21.075C24.1313 21.1733 24.1991 21.3188 24.266 21.3983C24.3335 21.4786 24.4026 21.643 24.4214 21.768C24.4399 21.8917 24.4954 22.0451 24.5446 22.109C24.5939 22.1727 24.6616 22.3375 24.6954 22.475C24.729 22.6125 24.7906 22.7775 24.8323 22.8417C24.8749 22.9075 24.9301 23.1801 24.9586 23.465C24.9866 23.7435 25.0556 24.1071 25.112 24.2731C25.2459 24.667 25.307 26.5405 25.1893 26.6382C25.1388 26.68 24.0866 26.703 21.3474 26.7218C19.2726 26.7362 17.395 26.7608 17.175 26.7767C16.4471 26.8291 15.2389 26.8968 14.2282 26.942C12.9724 26.998 12.9985 26.9805 13.0029 27.7652C13.0076 28.6082 13.0775 29.3687 13.1625 29.5032C13.2049 29.5702 13.2549 29.7765 13.2738 29.9617C13.3269 30.4867 13.4001 30.5415 14 30.5043C14.0688 30.5001 15.1169 30.5098 16.3293 30.526C18.8326 30.5592 18.624 30.5961 18.703 30.1056C18.7299 29.9382 18.774 29.7433 18.801 29.6723C18.828 29.6015 18.85 29.4237 18.85 29.2772C18.85 28.8637 18.9394 28.7863 19.4293 28.7761C19.6469 28.7716 20.9569 28.738 22.3403 28.7016C25.1535 28.6276 25.0115 28.6117 24.8771 28.9843C24.8294 29.1167 24.7476 29.3806 24.6954 29.5708C24.643 29.7612 24.5689 29.9525 24.5306 29.9958C24.4924 30.0393 24.4445 30.1537 24.4241 30.25C24.4038 30.3462 24.3346 30.4875 24.2705 30.564C24.2064 30.6403 24.1393 30.7816 24.1213 30.8777C24.1031 30.9737 24.0494 31.08 24.0016 31.1137C23.9539 31.1473 23.8779 31.2468 23.8325 31.3347C23.7873 31.4227 23.6939 31.5553 23.6251 31.6296C23.5563 31.7038 23.5 31.7822 23.5 31.8038C23.5 31.8256 23.4561 31.8571 23.4025 31.8742C23.349 31.8912 23.2922 31.9455 23.2766 31.995C23.2609 32.0443 23.1923 32.1102 23.124 32.1413C23.0559 32.1723 23 32.2305 23 32.2705C23 32.3105 22.9269 32.3942 22.8375 32.4566C22.7481 32.5191 22.6637 32.5847 22.65 32.6026C22.6126 32.6511 22.2099 32.9125 22.018 33.0128C21.9256 33.0612 21.85 33.1212 21.85 33.1463C21.85 33.1715 21.7376 33.2292 21.6003 33.2748C21.463 33.3205 21.3336 33.3872 21.3127 33.4232C21.292 33.4592 21.163 33.5263 21.0263 33.5726C20.8894 33.6187 20.7529 33.6768 20.7227 33.7018C20.6926 33.7268 20.5121 33.7833 20.3215 33.8275C20.131 33.8716 19.9369 33.942 19.8902 33.9841C19.8332 34.0355 19.6206 34.0762 19.2402 34.1087C18.9294 34.1352 18.4786 34.2025 18.2385 34.2581C17.6793 34.3877 15.6672 34.3737 15.075 34.2361C14.8825 34.1913 14.4775 34.1342 14.1749 34.1091C13.7746 34.0758 13.5706 34.0343 13.4256 33.9567C13.3161 33.898 13.1578 33.85 13.0739 33.85C12.9899 33.85 12.836 33.8065 12.7317 33.7535C12.6276 33.7003 12.4206 33.6186 12.2719 33.5717C12.123 33.525 11.9757 33.4561 11.9447 33.4187C11.9137 33.3812 11.8042 33.3281 11.7015 33.3003C11.5987 33.2727 11.4561 33.1958 11.3846 33.1295C11.313 33.0632 11.186 32.9938 11.1023 32.9755C11.0185 32.9571 10.95 32.9208 10.95 32.895C10.95 32.869 10.8881 32.8211 10.8125 32.7885C10.4996 32.6533 9.46763 31.7081 9.1 31.2198C9.00375 31.092 8.86313 30.922 8.7875 30.842C8.71188 30.762 8.65 30.6645 8.65 30.6252C8.65 30.586 8.608 30.5136 8.55663 30.4645C8.50525 30.4152 8.436 30.2905 8.40263 30.1871C8.36925 30.0837 8.30087 29.9772 8.2505 29.9502C8.19725 29.9217 8.145 29.8181 8.12537 29.7021C8.10687 29.5926 8.04763 29.4468 7.99363 29.3783C7.93975 29.3097 7.8715 29.1122 7.842 28.9393C7.81238 28.7665 7.74675 28.5562 7.696 28.4722C7.63475 28.3706 7.58713 28.1422 7.55363 27.7897C7.52613 27.4985 7.4635 27.0947 7.41463 26.8925C7.29275 26.3887 7.2915 25.2693 7.41213 24.75C7.46013 24.5437 7.52213 24.1095 7.55013 23.7848C7.58925 23.33 7.62363 23.1638 7.70038 23.0598C7.76188 22.9766 7.81713 22.7868 7.84513 22.5641C7.87375 22.3353 7.9265 22.157 7.98938 22.0771C8.04388 22.0078 8.10362 21.8497 8.12225 21.7257C8.14425 21.5795 8.1895 21.4823 8.25125 21.4493C8.30363 21.4212 8.37437 21.3031 8.40862 21.1866C8.44275 21.0702 8.511 20.9456 8.56038 20.9096C8.60963 20.8737 8.65 20.8143 8.65 20.7777C8.65 20.7411 8.72875 20.5967 8.825 20.4568C8.92125 20.3168 9 20.1873 9 20.169C9 20.1506 9.04625 20.0881 9.10262 20.0302C9.15912 19.9723 9.48325 19.6381 9.82288 19.2875C10.1626 18.9368 10.4644 18.65 10.4935 18.65C10.5226 18.65 10.5698 18.6065 10.5983 18.5533C10.6266 18.5002 10.7005 18.441 10.7625 18.4217C10.8244 18.4023 10.9538 18.3267 11.05 18.2536C11.1463 18.1805 11.2869 18.094 11.3625 18.0613C11.4381 18.0287 11.5 17.9827 11.5 17.959C11.5 17.9352 11.5956 17.8876 11.7125 17.8531C11.8294 17.8187 11.97 17.7496 12.025 17.6997C12.08 17.6497 12.2263 17.5826 12.35 17.5503C12.4738 17.5182 12.6251 17.4597 12.6865 17.4205C12.7477 17.3811 12.9484 17.3141 13.1322 17.2715C13.3162 17.2288 13.5286 17.1618 13.6044 17.1227C13.6856 17.0807 14.0356 17.0302 14.4585 16.9995C14.8526 16.9708 15.236 16.9231 15.3104 16.8935C15.6969 16.7396 16.6446 16.7312 17.2488 16.8763ZM27.837 17.2201C27.681 17.3761 27.5849 18.1032 27.4495 20.15C27.3767 21.2492 27.3792 21.2926 27.5185 21.3561C27.6455 21.414 30.3592 21.287 30.8 21.2026C30.9237 21.1788 31.9813 21.1437 33.15 21.1246C34.3188 21.1053 35.4888 21.0715 35.75 21.0492C36.3251 21.0005 36.5837 21.1742 36.2197 21.365C36.1481 21.4026 35.895 21.6202 35.6572 21.8488C35.0595 22.4235 34.4748 22.978 33.7841 23.625C33.4614 23.9275 33.01 24.355 32.7811 24.575C32.2079 25.1261 30.9625 26.31 30.75 26.5057C30.4804 26.7541 28.8664 28.2881 28.5201 28.625C28.3506 28.79 28.0149 29.105 27.774 29.325C27.5333 29.545 27.1885 29.8712 27.0079 30.05L26.6796 30.375L26.6649 31.625C26.6569 32.3125 26.6489 32.9516 26.6471 33.0452C26.6413 33.3653 26.107 33.342 34.075 33.3703C42.0758 33.3988 42.3724 33.4032 42.7 33.4987C42.9171 33.562 43.3318 33.5723 43.5125 33.519C43.6905 33.4666 43.7052 33.3268 43.7014 31.7303C43.698 30.3247 43.7081 30.1192 43.799 29.729C43.9235 29.1955 43.8966 29.1207 43.5624 29.0701C43.3431 29.0368 37.8767 29.1221 36.5387 29.1797C35.5549 29.222 35.5473 29.1827 36.3831 28.3817C36.7314 28.048 37.6636 27.1337 38.4548 26.35C39.2458 25.5662 40.602 24.2275 41.4685 23.375C42.91 21.9568 43.0466 21.808 43.0747 21.625C43.0916 21.515 43.1135 20.6712 43.1232 19.75C43.133 18.8287 43.1652 17.9242 43.1949 17.7401C43.2955 17.1155 43.3284 17.1252 41.258 17.1675C39.149 17.2105 29.333 17.2113 28.5336 17.1686C27.998 17.14 27.9106 17.1465 27.837 17.2201ZM43.0415 17.318C43.085 17.346 43.0966 17.4066 43.0749 17.493C43.0566 17.5656 43.0319 18.5548 43.0197 19.6915L42.9979 21.7578L42.7614 21.9812C42.6314 22.1041 42.5025 22.2267 42.475 22.2537C42.4475 22.2807 42.3958 22.3302 42.3601 22.3638C42.3244 22.3975 42.2681 22.4545 42.2351 22.4906C42.012 22.7343 41.7285 23 41.6916 23C41.6676 23 41.6222 23.0562 41.5909 23.125C41.5596 23.1937 41.5046 23.25 41.4688 23.25C41.4329 23.25 41.3806 23.2928 41.3525 23.3452C41.2884 23.465 40.9097 23.85 40.8561 23.85C40.8341 23.85 40.7904 23.9062 40.7591 23.975C40.7277 24.0437 40.6688 24.1 40.6279 24.1C40.587 24.1 40.5322 24.1396 40.5064 24.1881C40.4364 24.3187 40.1144 24.65 40.0573 24.65C40.0085 24.65 39.6276 25.0212 38.6156 26.0547C38.3355 26.3408 37.6898 26.976 37.1806 27.4662C36.6715 27.9563 36.1076 28.5033 35.9275 28.6817C35.3191 29.2841 35.0778 29.2487 39.5 29.2072C44.2925 29.1622 43.9564 29.1306 43.7125 29.6048C43.635 29.7555 43.6233 29.9758 43.6095 31.5235C43.6006 32.526 43.5737 33.2963 43.5466 33.3291C43.4789 33.4106 42.9016 33.4545 42.7771 33.3875C42.6279 33.3071 42.0906 33.3007 34.0981 33.2841C30.0959 33.2758 26.798 33.2546 26.7696 33.2371C26.6687 33.1748 26.7419 30.4392 26.8468 30.3478C26.8955 30.3055 26.9619 30.2211 26.9944 30.1603C27.0269 30.0997 27.0745 30.05 27.1001 30.05C27.1257 30.05 27.3388 29.8587 27.5736 29.625C27.8084 29.3912 28.0184 29.2 28.0401 29.2C28.062 29.2 28.1504 29.1268 28.2365 29.0375C28.4752 28.7897 29.2915 28.005 29.7537 27.5787C30.0867 27.2716 31.1301 26.2792 32.1235 25.325C32.4384 25.0225 32.7859 24.6962 32.8956 24.6C33.0055 24.5037 33.0964 24.3976 33.0978 24.3642C33.099 24.3308 33.1506 24.2768 33.2125 24.2442C33.2744 24.2117 33.37 24.1428 33.425 24.0912C33.48 24.0395 33.6319 23.9036 33.7625 23.7891C33.8931 23.6747 34 23.5516 34 23.5155C34 23.4795 34.0219 23.45 34.0486 23.45C34.0753 23.45 34.1781 23.3768 34.277 23.2875C34.5089 23.078 35.3284 22.3051 35.6994 21.9458C35.8579 21.7923 36.0936 21.58 36.2231 21.4738C36.5508 21.2053 36.4863 20.799 36.1278 20.8728C35.7684 20.9468 34.838 21.0035 33.625 21.0251C31.919 21.0555 29.9066 21.1358 29.25 21.1998C27.8735 21.3338 27.6261 21.3462 27.5635 21.2842C27.4745 21.1961 27.565 19.0586 27.6704 18.7618C27.712 18.6446 27.7611 18.2846 27.7796 17.9618C27.7981 17.6391 27.8309 17.3525 27.8524 17.325C27.9015 17.2622 42.9445 17.2553 43.0415 17.318ZM16.525 20.5025C14.2581 20.533 14.246 20.5341 14.1567 20.7301C14.0491 20.9662 14.0801 23.8166 14.1914 23.9172C14.3349 24.047 18.9894 24.0426 19.25 23.9123C19.4576 23.8087 19.4886 23.6836 19.3804 23.3862C19.3121 23.1986 19.2 21.6345 19.2 20.8693C19.2 20.4575 19.26 20.4656 16.525 20.5025ZM19.0308 20.6595C19.1021 20.7307 19.122 20.914 19.1577 21.8345C19.1811 22.4342 19.2225 23.1153 19.2496 23.348C19.2835 23.6378 19.2828 23.7872 19.2471 23.823C19.2129 23.8572 18.3506 23.8797 16.7219 23.8888L14.2485 23.9027L14.1993 23.7731C14.1229 23.5722 14.1365 21.0047 14.2146 20.85C14.297 20.6871 14.5073 20.6472 15.5 20.6066C17.1432 20.5395 18.9374 20.5663 19.0308 20.6595ZM0 47.3691C0 47.4448 0.03525 47.4975 0.09675 47.5136C0.159875 47.5301 0.204875 47.6003 0.22675 47.7165C0.245 47.8142 0.314 47.9673 0.38 48.0567C0.446 48.1462 0.5 48.2465 0.5 48.2796C0.5 48.4388 1.5635 49.5 1.72325 49.5C1.75475 49.5 1.85313 49.5535 1.94175 49.6188C2.03038 49.6842 2.2035 49.766 2.3265 49.8003C2.452 49.8355 2.55 49.893 2.55 49.9315C2.55 49.9691 2.595 50 2.65 50C2.705 50 2.75 49.969 2.75 49.9311C2.75 49.8625 2.64275 49.8087 2.2915 49.7011C2.19063 49.6702 2.081 49.6122 2.04787 49.5725C2.01475 49.5326 1.96112 49.5 1.92862 49.5C1.81512 49.5 1.2675 49.0727 1.02225 48.7927C0.624875 48.3391 0.55 48.2442 0.55 48.1946C0.55 48.1688 0.49575 48.064 0.429625 47.9613C0.363375 47.8588 0.293 47.697 0.27325 47.6016C0.20675 47.281 0 47.1051 0 47.3691ZM49.8159 47.3875C49.7838 47.4631 49.7351 47.609 49.7079 47.7117C49.6807 47.8143 49.6116 47.9581 49.5542 48.031C49.4969 48.1038 49.45 48.1855 49.45 48.2123C49.45 48.5191 47.9485 49.7487 47.5725 49.7498C47.4676 49.7501 47.2507 49.8765 47.2504 49.9375C47.2501 49.9718 47.3062 50 47.375 50C47.4514 50 47.5 49.9715 47.5 49.9268C47.5 49.8831 47.5851 49.8312 47.7125 49.7975C47.8294 49.7663 47.97 49.7006 48.025 49.6512C48.08 49.6018 48.181 49.5445 48.2494 49.5236C48.5727 49.4251 49.4504 48.5398 49.527 48.235C49.5446 48.1647 49.5898 48.0953 49.6274 48.081C49.665 48.0665 49.7321 47.9298 49.7765 47.7773C49.8258 47.6078 49.8849 47.5 49.9285 47.5C49.9714 47.5 50 47.45 50 47.375C50 47.2082 49.889 47.2157 49.8159 47.3875Z" fill="#B4E484"/>
<path fill-rule="evenodd" clip-rule="evenodd" d="M2.75 0.0725C2.75 0.112375 2.71062 0.168 2.6625 0.196C2.54737 0.263125 2.62837 0.265125 2.75325 0.19825C2.85362 0.1445 2.88775 0 2.8 0C2.7725 0 2.75 0.032625 2.75 0.0725ZM47.204 0.06075C47.2017 0.107875 47.2506 0.171 47.3125 0.201C47.4079 0.24725 47.413 0.245625 47.3456 0.19025C47.302 0.154375 47.2531 0.09125 47.237 0.05C47.2134 -0.01075 47.2071 -0.00875 47.204 0.06075ZM1.09825 1.1375L0.825 1.425L1.1125 1.15175C1.37962 0.89775 1.42288 0.85 1.38575 0.85C1.378 0.85 1.24863 0.979375 1.09825 1.1375ZM49.7534 2.56013C49.7515 2.5795 49.7761 2.65263 49.808 2.72263C49.8644 2.84625 50 2.90087 50 2.8C50 2.7725 49.9697 2.75 49.9326 2.75C49.8956 2.75 49.8409 2.69938 49.811 2.6375C49.7811 2.57563 49.7553 2.54088 49.7534 2.56013ZM0.18275 2.67287C0.1665 2.71525 0.118625 2.75 0.076625 2.75C0.0345 2.75 0 2.7725 0 2.8C0 2.89087 0.1455 2.85187 0.20225 2.74575C0.233 2.68837 0.24775 2.63112 0.23525 2.6185C0.222625 2.606 0.199 2.63037 0.18275 2.67287ZM16.0864 16.6861C16.1751 16.6971 16.3326 16.6974 16.4364 16.6865C16.5401 16.6756 16.4675 16.6666 16.275 16.6664C16.0825 16.6661 15.9976 16.675 16.0864 16.6861ZM17.0875 16.7353C17.1494 16.7473 17.2506 16.7473 17.3125 16.7353C17.3744 16.7234 17.3238 16.7136 17.2 16.7136C17.0763 16.7136 17.0256 16.7234 17.0875 16.7353ZM17.6625 16.8345C17.7106 16.847 17.7894 16.847 17.8375 16.8345C17.8856 16.8219 17.8462 16.8116 17.75 16.8116C17.6538 16.8116 17.6144 16.8219 17.6625 16.8345ZM27.8827 17.1375C27.87 17.1581 27.9643 17.1682 28.0923 17.16C28.4574 17.1366 28.5018 17.1121 28.1905 17.1057C28.034 17.1026 27.8955 17.1169 27.8827 17.1375ZM42.275 17.1355C42.9879 17.1521 43.0653 17.167 43.2018 17.3131C43.2824 17.3995 43.2984 17.4046 43.272 17.3356C43.2006 17.1489 42.9904 17.0994 42.315 17.1108L41.675 17.1215L42.275 17.1355ZM29.1901 17.1874C29.4735 17.1962 29.9235 17.1963 30.1901 17.1873C30.4569 17.1783 30.225 17.171 29.675 17.171C29.125 17.171 28.9069 17.1784 29.1901 17.1874ZM37.6375 17.1875C38.2219 17.1955 39.1781 17.1955 39.7625 17.1875C40.3469 17.1795 39.8688 17.1729 38.7 17.1729C37.5313 17.1729 37.0531 17.1795 37.6375 17.1875ZM27.615 17.85C27.615 18.0013 27.6244 18.0631 27.6359 17.9875C27.6473 17.9119 27.6473 17.7881 27.6359 17.7125C27.6244 17.6369 27.615 17.6988 27.615 17.85ZM27.5643 18.425C27.5646 18.5625 27.5744 18.6129 27.5859 18.5369C27.5974 18.4607 27.5971 18.3482 27.5853 18.2869C27.5734 18.2254 27.5639 18.2875 27.5643 18.425ZM43.1177 18.625C43.1176 18.8725 43.126 18.98 43.1365 18.864C43.147 18.748 43.1471 18.5455 43.1369 18.414C43.1265 18.2825 43.1179 18.3775 43.1177 18.625ZM22.25 18.675C22.3432 18.7712 22.4309 18.85 22.4446 18.85C22.4584 18.85 22.3932 18.7712 22.3 18.675C22.2067 18.5787 22.1191 18.5 22.1054 18.5C22.0916 18.5 22.1568 18.5787 22.25 18.675ZM43.1668 19.5C43.1668 19.7062 43.1756 19.7906 43.1864 19.6875C43.1972 19.5844 43.1972 19.4156 43.1864 19.3125C43.1756 19.2094 43.1668 19.2938 43.1668 19.5ZM43.1183 20.425C43.1184 20.7 43.1268 20.8061 43.1369 20.6609C43.147 20.5155 43.147 20.2905 43.1366 20.1609C43.1264 20.0311 43.1181 20.15 43.1183 20.425ZM27.4136 20.4C27.4136 20.5237 27.4234 20.5744 27.4352 20.5125C27.4472 20.4506 27.4472 20.3494 27.4352 20.2875C27.4234 20.2256 27.4136 20.2762 27.4136 20.4ZM16.3381 20.5854C16.4003 20.5974 16.4902 20.5969 16.5381 20.5844C16.5859 20.5719 16.535 20.562 16.425 20.5626C16.315 20.5631 16.2759 20.5734 16.3381 20.5854ZM17.5864 20.5861C17.6751 20.5971 17.8326 20.5974 17.9364 20.5865C18.0401 20.5756 17.9675 20.5666 17.775 20.5664C17.5825 20.5661 17.4976 20.575 17.5864 20.5861ZM23.9455 20.6416C23.9725 20.692 24.0339 20.7651 24.0819 20.8041C24.1359 20.848 24.1238 20.813 24.0501 20.7125C23.9189 20.5331 23.8696 20.4997 23.9455 20.6416ZM14.7135 20.6406C14.6798 20.662 14.8035 20.6718 14.9885 20.662C15.4709 20.6369 15.5311 20.6124 15.125 20.6066C14.9325 20.6037 14.7474 20.6191 14.7135 20.6406ZM14.2436 20.7875C14.1839 20.8636 14.1847 20.8675 14.25 20.8169C14.2913 20.785 14.3925 20.749 14.475 20.7369L14.625 20.715L14.4686 20.7075C14.3721 20.7029 14.286 20.7335 14.2436 20.7875ZM27.3557 21.0345C27.3526 21.1773 27.3672 21.3047 27.3884 21.3179C27.4095 21.3309 27.4196 21.2479 27.4107 21.1332C27.3849 20.7969 27.362 20.7559 27.3557 21.0345ZM14.172 22.325C14.172 23.095 14.179 23.403 14.1874 23.0095C14.1959 22.6159 14.1959 21.9859 14.1874 21.6095C14.1789 21.233 14.172 21.555 14.172 22.325ZM19.118 21.4C19.118 21.6612 19.1265 21.7681 19.1367 21.6375C19.147 21.5069 19.147 21.2931 19.1367 21.1625C19.1265 21.0319 19.118 21.1387 19.118 21.4ZM35.775 21.05L35.425 21.0824L35.8655 21.0911C36.1485 21.0969 36.2949 21.0821 36.275 21.05C36.258 21.0225 36.2173 21.004 36.1845 21.0089C36.1518 21.0136 35.9675 21.0322 35.775 21.05ZM33.1864 21.1361C33.2751 21.1471 33.4326 21.1474 33.5364 21.1365C33.6401 21.1256 33.5675 21.1166 33.375 21.1164C33.1825 21.1161 33.0976 21.125 33.1864 21.1361ZM34.3625 21.1364C34.4656 21.1473 34.6344 21.1473 34.7375 21.1364C34.8406 21.1256 34.7562 21.1168 34.55 21.1168C34.3437 21.1168 34.2594 21.1256 34.3625 21.1364ZM31.1389 21.1866C31.2564 21.1972 31.4364 21.1971 31.5389 21.1864C31.6413 21.1756 31.545 21.167 31.325 21.1671C31.105 21.1674 31.0212 21.1761 31.1389 21.1866ZM30.2375 21.2852C30.2994 21.2972 30.4006 21.2972 30.4625 21.2852C30.5244 21.2734 30.4738 21.2636 30.35 21.2636C30.2263 21.2636 30.1756 21.2734 30.2375 21.2852ZM29.3364 21.3361C29.4251 21.3471 29.5826 21.3474 29.6864 21.3365C29.7901 21.3256 29.7175 21.3166 29.525 21.3164C29.3325 21.3161 29.2476 21.325 29.3364 21.3361ZM35.5985 21.8875L35.275 22.225L35.6125 21.9015C35.7981 21.7235 35.95 21.5716 35.95 21.564C35.95 21.5271 35.8991 21.574 35.5985 21.8875ZM19.1626 22.325C19.1631 22.435 19.1734 22.4741 19.1854 22.4119C19.1974 22.3497 19.1969 22.2598 19.1844 22.2119C19.1719 22.1641 19.162 22.215 19.1626 22.325ZM34.8973 22.5375L34.725 22.725L34.9125 22.5527C35.0156 22.4579 35.1 22.3735 35.1 22.3652C35.1 22.327 35.0578 22.363 34.8973 22.5375ZM7.634 22.8274C7.5165 23.0736 7.533 23.1155 7.65588 22.8827C7.71163 22.777 7.74838 22.6818 7.73763 22.6709C7.72675 22.6601 7.68012 22.7305 7.634 22.8274ZM16.1092 23.8874C16.5681 23.8956 17.3331 23.8956 17.8092 23.8874C18.2854 23.8792 17.91 23.8725 16.975 23.8725C16.04 23.8724 15.6504 23.8791 16.1092 23.8874ZM25.1585 23.95C25.161 24.0799 25.2398 24.2932 25.2415 24.175C25.2423 24.12 25.2236 24.03 25.2 23.975C25.1736 23.9138 25.1576 23.904 25.1585 23.95ZM7.26263 24.725C7.26313 24.835 7.27338 24.8741 7.28538 24.8119C7.29738 24.7497 7.29688 24.6598 7.28438 24.6119C7.27188 24.5641 7.262 24.615 7.26263 24.725ZM25.316 25.1C25.316 25.2788 25.3251 25.3519 25.3361 25.2625C25.3472 25.1731 25.3472 25.0269 25.3361 24.9375C25.3251 24.8481 25.316 24.9213 25.316 25.1ZM39.4736 25.3125L39.125 25.675L39.4875 25.3264C39.6869 25.1346 39.85 24.9715 39.85 24.9639C39.85 24.9271 39.7975 24.9757 39.4736 25.3125ZM31.95 25.325C31.8285 25.4488 31.7404 25.55 31.7541 25.55C31.7679 25.55 31.8785 25.4488 32 25.325C32.1215 25.2013 32.2096 25.1 32.1959 25.1C32.1821 25.1 32.0715 25.2013 31.95 25.325ZM7.21925 25.8C7.21925 26.1437 7.22725 26.2844 7.237 26.1125C7.24675 25.9406 7.24675 25.6594 7.237 25.4875C7.22725 25.3156 7.21925 25.4562 7.21925 25.8ZM31.2472 25.9875L31.075 26.175L31.2625 26.0028C31.3656 25.9079 31.45 25.8235 31.45 25.8153C31.45 25.777 31.4077 25.813 31.2472 25.9875ZM30.5174 26.6807L30.275 26.9115L30.5 26.7237C30.8019 26.4717 30.8249 26.45 30.7899 26.45C30.7733 26.45 30.6506 26.5539 30.5174 26.6807ZM7.2535 26.9041C7.2555 26.9981 7.2765 27.12 7.30037 27.175C7.32825 27.2394 7.33338 27.1859 7.31475 27.025C7.2805 26.7277 7.24862 26.6649 7.2535 26.9041ZM19.5662 26.8875C20.6064 26.895 22.2939 26.895 23.3162 26.8875C24.3385 26.8799 23.4875 26.8738 21.425 26.8738C19.3625 26.8738 18.526 26.8799 19.5662 26.8875ZM16.8891 26.9369C17.0345 26.947 17.2595 26.947 17.3891 26.9366C17.5189 26.9264 17.4 26.9181 17.125 26.9182C16.85 26.9184 16.7439 26.9267 16.8891 26.9369ZM15.6375 26.9866C15.7544 26.9971 15.9456 26.9971 16.0625 26.9866C16.1794 26.9761 16.0838 26.9675 15.85 26.9675C15.6163 26.9675 15.5206 26.9761 15.6375 26.9866ZM13.625 27.1L13.375 27.1343L13.6 27.1386C13.7238 27.141 13.87 27.1236 13.925 27.1C14.0391 27.051 13.9827 27.051 13.625 27.1ZM37.3483 27.4375L37.075 27.725L37.3625 27.4517C37.6296 27.1977 37.6729 27.15 37.6357 27.15C37.628 27.15 37.4986 27.2794 37.3483 27.4375ZM28.9219 28.2125L28.775 28.375L28.9375 28.2281C29.0269 28.1474 29.1 28.0742 29.1 28.0656C29.1 28.027 29.0588 28.061 28.9219 28.2125ZM7.55325 28.5C7.55412 28.5734 7.74375 28.9561 7.74788 28.893C7.749 28.8754 7.7055 28.7629 7.65112 28.643C7.59675 28.5231 7.55262 28.4587 7.55325 28.5ZM13.1636 28.7C13.1636 28.8238 13.1734 28.8744 13.1853 28.8125C13.1973 28.7506 13.1973 28.6494 13.1853 28.5875C13.1734 28.5256 13.1636 28.5763 13.1636 28.7ZM23.2646 28.5871C23.4514 28.5968 23.7439 28.5967 23.9146 28.587C24.0853 28.5772 23.9325 28.5694 23.575 28.5694C23.2175 28.5695 23.0778 28.5775 23.2646 28.5871ZM21.4125 28.6373C21.6531 28.6464 22.0469 28.6464 22.2875 28.6373C22.5281 28.6281 22.3313 28.6206 21.85 28.6206C21.3688 28.6206 21.1719 28.6281 21.4125 28.6373ZM19.164 28.6869C19.2955 28.6971 19.498 28.697 19.614 28.6865C19.73 28.676 19.6225 28.6676 19.375 28.6677C19.1275 28.6679 19.0325 28.6765 19.164 28.6869ZM35.9051 28.8267C35.741 29.0137 35.7192 29.0751 35.7994 29.1246C35.827 29.1416 35.8366 29.1233 35.8211 29.083C35.8058 29.043 35.8639 28.9306 35.9519 28.8305C36.039 28.7312 36.0991 28.65 36.0854 28.65C36.0716 28.65 35.9905 28.7295 35.9051 28.8267ZM18.7768 28.8294C18.7301 28.9005 18.7006 28.9673 18.7111 28.9778C18.7216 28.9884 18.7698 28.9301 18.818 28.8485C18.9258 28.666 18.8935 28.6511 18.7768 28.8294ZM42.2125 29.0373C42.4531 29.0464 42.8469 29.0464 43.0875 29.0373C43.3281 29.0281 43.1313 29.0206 42.65 29.0206C42.1688 29.0206 41.9719 29.0281 42.2125 29.0373ZM39.9875 29.0872C40.2144 29.0965 40.5856 29.0965 40.8125 29.0872C41.0394 29.0779 40.8538 29.0704 40.4 29.0704C39.9463 29.0704 39.7606 29.0779 39.9875 29.0872ZM37.6125 29.1373C37.8531 29.1464 38.2469 29.1464 38.4875 29.1373C38.7281 29.1281 38.5312 29.1206 38.05 29.1206C37.5687 29.1206 37.3719 29.1281 37.6125 29.1373ZM36.1131 29.1859C36.1892 29.1974 36.3017 29.1971 36.3631 29.1852C36.4246 29.1734 36.3625 29.1639 36.225 29.1642C36.0875 29.1646 36.0371 29.1744 36.1131 29.1859ZM24.8347 29.4256C24.789 29.5215 24.7619 29.6 24.7745 29.6C24.8087 29.6 24.9605 29.2939 24.9376 29.271C24.9268 29.2601 24.8805 29.3297 24.8347 29.4256ZM18.6616 29.6C18.6616 29.6963 18.6719 29.7356 18.6845 29.6875C18.697 29.6394 18.697 29.5606 18.6845 29.5125C18.6719 29.4644 18.6616 29.5038 18.6616 29.6ZM8.35 30.3765C8.35 30.3952 8.40625 30.4774 8.475 30.5591C8.54375 30.6409 8.6 30.6924 8.6 30.6735C8.6 30.6548 8.54375 30.5726 8.475 30.4909C8.40625 30.4091 8.35 30.3576 8.35 30.3765ZM14.9125 30.3874C15.2631 30.396 15.8369 30.396 16.1875 30.3874C16.5381 30.3787 16.2513 30.3717 15.55 30.3717C14.8488 30.3717 14.5619 30.3787 14.9125 30.3874ZM17.0384 30.4363C17.1283 30.4474 17.2633 30.4471 17.3384 30.4357C17.4135 30.4244 17.34 30.4153 17.175 30.4155C17.01 30.4158 16.9485 30.4251 17.0384 30.4363ZM17.9864 30.4361C18.0751 30.4471 18.2326 30.4474 18.3364 30.4365C18.4401 30.4256 18.3675 30.4166 18.175 30.4164C17.9825 30.4161 17.8976 30.425 17.9864 30.4361ZM43.7217 31.875C43.7219 32.59 43.7289 32.8755 43.7374 32.5095C43.746 32.1435 43.7459 31.5585 43.7374 31.2095C43.7287 30.8605 43.7217 31.16 43.7217 31.875ZM8.74988 30.9875C8.81525 31.0769 8.87662 31.15 8.88612 31.15C8.92412 31.15 8.80013 30.9625 8.71813 30.8959C8.66413 30.852 8.67625 30.887 8.74988 30.9875ZM26.6702 31.625C26.6702 32.065 26.678 32.2382 26.6873 32.0101C26.6965 31.782 26.6965 31.422 26.6871 31.2101C26.6777 30.9982 26.6701 31.185 26.6702 31.625ZM22.65 32.7075C22.5537 32.7919 22.5203 32.8381 22.5755 32.8101C22.6669 32.7639 22.8934 32.5472 22.8452 32.552C22.8341 32.5531 22.7462 32.6231 22.65 32.7075ZM26.6116 32.75C26.6116 32.8462 26.6219 32.8856 26.6345 32.8375C26.647 32.7894 26.647 32.7106 26.6345 32.6625C26.6219 32.6144 26.6116 32.6538 26.6116 32.75ZM26.6057 33.1314C26.6026 33.1899 26.6394 33.2686 26.6875 33.3064C26.7636 33.366 26.7675 33.3652 26.7179 33.3C26.6865 33.2587 26.6498 33.18 26.6361 33.125C26.6129 33.03 26.6112 33.0304 26.6057 33.1314ZM27.0375 33.3869C27.1819 33.397 27.4181 33.397 27.5625 33.3869C27.7069 33.3768 27.5887 33.3685 27.3 33.3685C27.0112 33.3685 26.8931 33.3768 27.0375 33.3869ZM38.6603 33.387C38.8448 33.3966 39.1597 33.3966 39.3602 33.3871C39.5609 33.3776 39.41 33.3698 39.025 33.3698C38.64 33.3696 38.4759 33.3774 38.6603 33.387ZM40.2884 33.3862C40.3783 33.3974 40.5133 33.3971 40.5884 33.3857C40.6635 33.3744 40.59 33.3653 40.425 33.3655C40.26 33.3658 40.1985 33.3751 40.2884 33.3862ZM41.9131 33.4359C41.9892 33.4474 42.1017 33.4471 42.1631 33.4352C42.2246 33.4234 42.1625 33.4139 42.025 33.4142C41.8875 33.4146 41.8371 33.4244 41.9131 33.4359ZM43.225 33.55L42.925 33.5832L43.2095 33.5916C43.366 33.5963 43.508 33.5775 43.525 33.55C43.542 33.5225 43.549 33.5037 43.5405 33.5084C43.532 33.513 43.39 33.5317 43.225 33.55ZM18.075 34.4C17.9403 34.4343 17.9377 34.4383 18.05 34.4391C18.1187 34.4396 18.2312 34.422 18.3 34.4C18.468 34.3461 18.2865 34.3461 18.075 34.4ZM15.3631 34.4359C15.4392 34.4474 15.5517 34.4471 15.6131 34.4352C15.6746 34.4234 15.6125 34.4139 15.475 34.4142C15.3375 34.4146 15.2871 34.4244 15.3631 34.4359ZM0.05 47.237C0.09125 47.2531 0.154375 47.302 0.19025 47.3456C0.245625 47.413 0.24725 47.4079 0.201 47.3125C0.171 47.2506 0.107875 47.2017 0.06075 47.204C-0.00875 47.2071 -0.01075 47.2134 0.05 47.237ZM2.6375 49.811C2.69938 49.8409 2.75 49.8956 2.75 49.9326C2.75 49.9697 2.7725 50 2.8 50C2.90087 50 2.84625 49.8644 2.72263 49.808C2.56225 49.735 2.48538 49.7376 2.6375 49.811Z" fill="#B4E47C"/>
</g>
<defs>
<clipPath id="clip0_7:37">
<rect width="50" height="50" fill="white"/>
</clipPath>
</defs>
</svg>
