<svg width="50" height="50" viewBox="0 0 50 50" fill="none" xmlns="http://www.w3.org/2000/svg">
<path fill-rule="evenodd" clip-rule="evenodd" d="M23.6706 8.54526C23.5857 8.56663 23.4889 8.60101 23.4552 8.62176C23.4217 8.64251 23.1726 8.67863 22.9016 8.70226C22.5665 8.73138 22.3477 8.77776 22.2177 8.84751C22.1125 8.90388 21.9387 8.95001 21.8316 8.95001C21.7245 8.95001 21.5666 8.99263 21.4809 9.04476C21.3951 9.09676 21.2306 9.15488 21.1154 9.17363C21.0001 9.19238 20.8792 9.23976 20.8467 9.27888C20.8142 9.31801 20.7374 9.35001 20.6759 9.35001C20.6142 9.35001 20.4857 9.40301 20.3902 9.46788C20.2947 9.53276 20.1362 9.60088 20.0381 9.61926C19.94 9.63763 19.8474 9.68463 19.8325 9.72363C19.8175 9.76263 19.7254 9.80951 19.6276 9.82776C19.5299 9.84613 19.45 9.88163 19.45 9.90663C19.45 9.93163 19.3881 9.97888 19.3125 10.0116C19.2369 10.0444 19.1114 10.1226 19.0336 10.1855C18.9559 10.2485 18.8706 10.3 18.8441 10.3C18.7974 10.3 18.6351 10.4054 18.325 10.637C17.8982 10.9559 17.964 10.9024 17.418 11.375C16.936 11.7923 16.1534 12.6185 16.0286 12.842C16.0031 12.8876 15.9562 12.9475 15.9246 12.975C15.8929 13.0025 15.7831 13.1544 15.6807 13.3125C15.5784 13.4706 15.4734 13.6 15.4474 13.6C15.4212 13.6 15.4 13.6423 15.4 13.6939C15.4 13.7455 15.3627 13.8186 15.3172 13.8564C15.2717 13.8941 15.2035 13.9991 15.1656 14.0896C15.1279 14.1803 15.0637 14.267 15.0234 14.2825C14.983 14.298 14.95 14.3645 14.95 14.4304C14.95 14.4961 14.9056 14.5944 14.8512 14.6488C14.797 14.703 14.7372 14.8099 14.7186 14.8863C14.7 14.9625 14.6431 15.0786 14.5924 15.1443C14.5416 15.2099 14.5 15.3084 14.5 15.3634C14.5 15.4183 14.4569 15.5334 14.4042 15.6191C14.3515 15.7049 14.2929 15.8586 14.2739 15.9609C14.255 16.0631 14.1969 16.196 14.1447 16.2561C14.0849 16.3251 14.05 16.4409 14.05 16.5709C14.05 16.684 14.0066 16.8573 13.9537 16.9561C13.8995 17.0573 13.8425 17.2971 13.8232 17.5054C13.8044 17.709 13.7521 17.9311 13.707 18C13.5842 18.1871 13.583 21.697 13.7056 21.925C13.75 22.0075 13.8015 22.2295 13.8201 22.4184C13.8387 22.6073 13.8981 22.8483 13.952 22.9539C14.0059 23.0596 14.05 23.2339 14.05 23.3413C14.05 23.458 14.0885 23.5855 14.1459 23.6584C14.1986 23.7255 14.2577 23.8691 14.2772 23.9776C14.2967 24.0863 14.3415 24.2088 14.3766 24.25C14.4119 24.2913 14.4655 24.418 14.4957 24.5316C14.526 24.6454 14.582 24.7643 14.6201 24.796C14.6582 24.8276 14.7044 24.9328 14.7225 25.0294C14.7406 25.1261 14.7866 25.2173 14.8247 25.2318C14.8627 25.2464 14.9076 25.3209 14.9244 25.3974C14.9412 25.4739 14.9989 25.5836 15.0525 25.6411C15.1061 25.6988 15.15 25.7794 15.15 25.8204C15.15 25.8614 15.2062 25.9555 15.275 26.0298C15.3437 26.1039 15.4 26.1916 15.4 26.2245C15.4 26.2575 15.445 26.3253 15.5 26.375C15.555 26.4248 15.6 26.4844 15.6 26.5074C15.6 26.5459 15.8641 26.911 16.0116 27.0765C16.0465 27.1155 16.12 27.2076 16.175 27.281C16.23 27.3544 16.3706 27.515 16.4875 27.6379C16.6044 27.7606 16.7 27.8695 16.7 27.8798C16.7 27.8999 17.0906 28.2744 17.4796 28.627C17.6146 28.7495 17.7524 28.8496 17.7857 28.8498C17.8191 28.8499 17.8691 28.8924 17.8969 28.9443C17.9246 28.9961 18.0042 29.0528 18.0736 29.0703C18.1431 29.0876 18.2 29.1196 18.2 29.1414C18.2 29.163 18.4256 29.3595 18.7015 29.5779C19.4464 30.1678 20.95 31.6691 20.95 31.8231C20.95 31.8454 21.0006 31.9136 21.0625 31.9748C21.1244 32.0359 21.2146 32.1398 21.263 32.2055C21.3112 32.2713 21.4069 32.3958 21.4755 32.4823C21.544 32.5688 21.6 32.6748 21.6 32.718C21.6 32.7611 21.645 32.8206 21.7 32.85C21.755 32.8794 21.8 32.9325 21.8 32.968C21.8 33.0035 21.8562 33.0854 21.925 33.15C21.9937 33.2146 22.05 33.3069 22.05 33.3551C22.05 33.4034 22.087 33.4799 22.1322 33.525C22.2535 33.6464 22.4196 33.903 22.4939 34.0839C22.5297 34.1713 22.588 34.2539 22.6231 34.2674C22.6584 34.2809 22.7026 34.3539 22.7216 34.4295C22.7406 34.5053 22.7997 34.6225 22.8531 34.6903C22.9064 34.758 22.95 34.8564 22.95 34.9088C22.95 34.9611 22.9929 35.065 23.0454 35.1395C23.0977 35.214 23.1546 35.3571 23.1716 35.4575C23.1887 35.5579 23.234 35.666 23.2724 35.6979C23.3107 35.7298 23.3576 35.8501 23.3764 35.9654C23.3951 36.0806 23.4532 36.2451 23.5052 36.3309C23.5574 36.4166 23.6001 36.5629 23.6001 36.6559C23.6002 36.7489 23.6426 36.8943 23.6942 36.979C23.746 37.0638 23.8042 37.2775 23.8239 37.454C23.8434 37.6305 23.8954 37.8313 23.9394 37.9C23.9921 37.9825 24.0314 38.2084 24.055 38.5644C24.075 38.8653 24.118 39.1365 24.1524 39.1779C24.1925 39.2263 24.2262 39.5525 24.249 40.1135C24.2849 40.9955 24.3802 41.3 24.6204 41.3C24.6469 41.3 24.7177 41.3461 24.7777 41.4026C24.9326 41.5481 25.462 41.5523 25.6175 41.409C25.6766 41.3546 25.7684 41.3021 25.8214 41.2925C25.8776 41.2823 25.9337 41.2154 25.956 41.1321C25.977 41.0535 26.0349 40.9444 26.0846 40.8895C26.1645 40.8014 26.1779 40.6578 26.2 39.6574C26.2189 38.8028 26.2426 38.4944 26.2966 38.4C26.336 38.3313 26.3835 38.0598 26.402 37.7966C26.4235 37.4913 26.4647 37.2739 26.5161 37.1956C26.5602 37.1283 26.6111 36.9385 26.6291 36.774C26.6471 36.6095 26.6935 36.4243 26.7322 36.3623C26.771 36.3001 26.8247 36.133 26.8517 35.9906C26.8787 35.8484 26.932 35.6966 26.97 35.6535C27.008 35.6104 27.0546 35.4806 27.0735 35.3654C27.0924 35.2501 27.1384 35.1304 27.1757 35.0994C27.213 35.0685 27.259 34.9715 27.2779 34.884C27.2967 34.7966 27.3656 34.633 27.431 34.5206C27.4965 34.4083 27.55 34.2781 27.55 34.2315C27.55 34.185 27.5824 34.1345 27.622 34.1193C27.6615 34.1041 27.7082 34.0263 27.7257 33.9464C27.7434 33.8665 27.7804 33.7871 27.808 33.7701C27.8356 33.753 27.9006 33.6403 27.9524 33.5195C28.0041 33.3988 28.0652 33.3 28.0881 33.3C28.1111 33.3 28.1584 33.2213 28.1932 33.125C28.228 33.0288 28.2772 32.95 28.3026 32.95C28.3279 32.95 28.3815 32.8713 28.4217 32.775C28.462 32.6788 28.517 32.6 28.5441 32.6C28.5711 32.6 28.6089 32.5494 28.628 32.4875C28.647 32.4256 28.6941 32.3413 28.7327 32.3C28.7712 32.2588 29.0092 31.9663 29.2617 31.65C29.5142 31.3338 29.9586 30.8388 30.2494 30.55C30.7232 30.0793 30.9122 29.9088 31.2875 29.6135C31.3492 29.5649 31.5012 29.4309 31.625 29.3159C31.7489 29.2008 31.8951 29.0924 31.9501 29.075C32.0051 29.0575 32.0734 28.9998 32.1017 28.9466C32.1302 28.8935 32.1824 28.85 32.2177 28.85C32.2531 28.85 32.3286 28.7994 32.3856 28.7375C32.4425 28.6756 32.5886 28.5415 32.71 28.4396C32.9806 28.2125 33.55 27.6515 33.55 27.6121C33.55 27.5814 33.6554 27.463 33.8375 27.2893C33.8994 27.2303 33.95 27.1615 33.95 27.1365C33.95 27.1114 34.0512 26.9724 34.175 26.8276C34.2987 26.6828 34.4 26.542 34.4 26.5149C34.4 26.4878 34.443 26.4266 34.4955 26.3791C34.548 26.3315 34.6045 26.2388 34.6211 26.1728C34.6376 26.1069 34.6959 26.029 34.7506 25.9996C34.8052 25.9704 34.85 25.8999 34.85 25.843C34.85 25.786 34.9062 25.6726 34.975 25.5909C35.0437 25.5091 35.1 25.404 35.1 25.3573C35.1 25.3105 35.145 25.2338 35.2 25.1866C35.255 25.1395 35.3 25.0568 35.3 25.0028C35.3 24.9486 35.3562 24.8215 35.425 24.7203C35.4937 24.6189 35.55 24.4845 35.55 24.4216C35.55 24.3586 35.5821 24.275 35.6214 24.2358C35.6606 24.1965 35.7077 24.0768 35.726 23.9696C35.7444 23.8626 35.8022 23.714 35.8546 23.6395C35.9082 23.5634 35.95 23.4203 35.95 23.3126C35.95 23.2073 35.9967 23.032 36.0539 22.9231C36.1209 22.7951 36.1712 22.5709 36.196 22.2895C36.2177 22.0424 36.2647 21.8175 36.3046 21.7694C36.4074 21.6456 36.4089 18.2061 36.3062 18.0825C36.2685 18.037 36.2185 17.8141 36.1952 17.5874C36.1706 17.347 36.1107 17.0924 36.0515 16.9769C35.9957 16.868 35.95 16.6898 35.95 16.5809C35.95 16.4684 35.915 16.3441 35.8689 16.2933C35.8242 16.244 35.768 16.0976 35.7437 15.9681C35.7196 15.8386 35.6664 15.6956 35.6255 15.6505C35.5846 15.6054 35.5364 15.4911 35.5184 15.3968C35.5004 15.3023 35.4439 15.1848 35.3927 15.1355C35.3417 15.0864 35.3 14.994 35.3 14.9304C35.3 14.8668 35.2437 14.7539 35.175 14.6798C35.1062 14.6055 35.05 14.4921 35.05 14.4278C35.05 14.3634 35.017 14.298 34.9766 14.2825C34.9362 14.267 34.8679 14.1803 34.8246 14.0896C34.6745 13.7746 34.5687 13.5925 34.5165 13.5589C34.4876 13.5403 34.4265 13.4519 34.3807 13.3625C34.3349 13.2731 34.2755 13.2 34.2487 13.2C34.2219 13.2 34.2 13.1661 34.2 13.1246C34.2 13.0833 34.1437 13.0004 34.075 12.9406C34.0062 12.8809 33.95 12.8166 33.95 12.7978C33.95 12.7083 33.0221 11.7486 32.4774 11.275C32.2876 11.11 32.0791 10.9244 32.014 10.8625C31.9487 10.8006 31.874 10.75 31.8477 10.75C31.8215 10.75 31.7562 10.7063 31.7026 10.6526C31.6491 10.5991 31.5366 10.5198 31.4526 10.4764C31.3687 10.433 31.3 10.3755 31.3 10.3488C31.3 10.3219 31.2561 10.3 31.2026 10.3C31.149 10.3 31.0445 10.2438 30.9702 10.175C30.8961 10.1063 30.8025 10.05 30.7624 10.05C30.7222 10.05 30.6226 9.99376 30.5409 9.92501C30.4591 9.85626 30.3484 9.80001 30.2946 9.80001C30.2409 9.80001 30.1841 9.76688 30.1686 9.72638C30.153 9.68588 30.0645 9.63851 29.9717 9.62113C29.879 9.60376 29.7545 9.54726 29.6951 9.49576C29.6357 9.44426 29.5056 9.38788 29.4061 9.37051C29.3065 9.35313 29.2 9.30763 29.1695 9.26951C29.139 9.23126 28.997 9.17788 28.854 9.15076C28.711 9.12363 28.5454 9.06738 28.4859 9.02576C28.4264 8.98413 28.2867 8.95001 28.1756 8.95001C28.0644 8.95001 27.884 8.90188 27.7742 8.84288C27.6311 8.76601 27.4411 8.72626 27.1 8.70201C26.8387 8.68351 26.5687 8.63601 26.5 8.59663C26.3597 8.51626 23.9597 8.47276 23.6706 8.54526ZM26.375 10.5096C26.4575 10.5516 26.7032 10.6005 26.9211 10.6181C27.1764 10.6388 27.3487 10.6786 27.4057 10.7303C27.4544 10.7743 27.6296 10.8263 27.7952 10.8458C27.9609 10.8653 28.1371 10.9181 28.187 10.9633C28.2369 11.0084 28.3712 11.0603 28.4857 11.0785C28.6001 11.0969 28.7056 11.1425 28.72 11.18C28.7344 11.2175 28.839 11.263 28.9524 11.2811C29.0657 11.2994 29.1702 11.3445 29.1845 11.3816C29.1987 11.4188 29.3004 11.476 29.4104 11.509C29.5204 11.542 29.6212 11.597 29.6344 11.6314C29.6476 11.6658 29.7241 11.7084 29.8046 11.726C29.885 11.7436 29.9739 11.8013 30.0021 11.8541C30.0304 11.9069 30.0785 11.95 30.1091 11.95C30.1859 11.95 30.6484 12.2616 30.8469 12.4471C30.9369 12.5313 31.0242 12.6 31.041 12.6C31.0577 12.6 31.1172 12.6454 31.1732 12.701C31.2292 12.7565 31.4606 12.973 31.6875 13.182C31.9144 13.391 32.1 13.58 32.1 13.6019C32.1 13.6239 32.1844 13.7333 32.2875 13.8449C32.3906 13.9565 32.52 14.107 32.575 14.1794C32.63 14.2518 32.7369 14.3845 32.8125 14.4745C32.8881 14.5645 32.95 14.6753 32.95 14.7206C32.95 14.766 32.982 14.8154 33.0211 14.8304C33.0602 14.8454 33.1279 14.9404 33.1714 15.0414C33.2524 15.2294 33.2884 15.2936 33.4862 15.6028C33.5489 15.7004 33.6 15.8155 33.6 15.8585C33.6 15.9014 33.6421 15.9901 33.6935 16.0558C33.7449 16.1214 33.8036 16.2538 33.824 16.35C33.8445 16.4463 33.8962 16.5648 33.939 16.6133C33.9819 16.6619 34.034 16.827 34.0547 16.9803C34.0756 17.1335 34.1262 17.2963 34.1675 17.342C34.2087 17.3876 34.2584 17.5713 34.2779 17.75C34.2974 17.9288 34.3497 18.1425 34.3941 18.225C34.5167 18.4525 34.5155 21.5135 34.3927 21.7C34.3475 21.7688 34.2945 21.9819 34.275 22.1738C34.2524 22.3966 34.2055 22.5659 34.1449 22.643C34.0902 22.7124 34.05 22.8426 34.05 22.95C34.05 23.0565 34.0099 23.1876 33.9564 23.2558C33.9049 23.3214 33.847 23.4689 33.8276 23.5836C33.8084 23.6983 33.7636 23.8033 33.7282 23.8169C33.6929 23.8304 33.638 23.9446 33.6062 24.0708C33.5745 24.1969 33.5281 24.3 33.5031 24.3C33.4781 24.3 33.4312 24.3804 33.3989 24.4785C33.3665 24.5766 33.3099 24.6685 33.273 24.6826C33.2362 24.6968 33.1917 24.7738 33.1742 24.8536C33.1566 24.9335 33.1214 25.0118 33.0959 25.0276C33.0702 25.0434 32.9482 25.2068 32.8247 25.3906C32.4742 25.9123 32.4371 25.9608 32.2375 26.1554C32.1344 26.256 32.05 26.3619 32.05 26.3908C32.05 26.4196 32.005 26.4575 31.95 26.475C31.895 26.4925 31.85 26.5234 31.85 26.5436C31.85 26.5898 31.5226 26.95 31.4807 26.95C31.4637 26.95 31.3625 27.04 31.2557 27.15C31.149 27.26 31.0374 27.35 31.0076 27.35C30.9779 27.35 30.9311 27.3919 30.9036 27.4431C30.8762 27.4944 30.7871 27.5639 30.7055 27.5978C30.6239 27.6315 30.545 27.6909 30.5301 27.7296C30.5152 27.7683 30.4731 27.8 30.4365 27.8C30.3997 27.8 30.2472 27.9121 30.0974 28.0493C29.9476 28.1863 29.8114 28.2988 29.7947 28.2993C29.7782 28.2996 29.7039 28.3563 29.6297 28.425C29.5555 28.4938 29.4735 28.55 29.4474 28.55C29.4214 28.55 29.4 28.5838 29.4 28.625C29.4 28.6663 29.3667 28.7 29.3261 28.7C29.2855 28.7 29.2155 28.7563 29.1704 28.825C29.1254 28.8938 29.0589 28.95 29.0226 28.95C28.9864 28.95 28.9429 28.9939 28.9257 29.0475C28.9087 29.101 28.851 29.1588 28.7975 29.1758C28.7439 29.1929 28.7 29.2273 28.7 29.2525C28.7 29.2776 28.5537 29.4444 28.375 29.6231C28.1962 29.8019 28.05 29.9711 28.05 29.9991C28.05 30.0271 28.0326 30.05 28.0115 30.05C27.9904 30.05 27.8835 30.1643 27.774 30.3039C27.6645 30.4435 27.4799 30.6629 27.3636 30.7914C27.2474 30.9199 27.1517 31.0496 27.1511 31.0798C27.1505 31.1099 27.105 31.1753 27.05 31.225C26.995 31.2748 26.95 31.3419 26.95 31.374C26.95 31.4063 26.8937 31.4854 26.825 31.55C26.7562 31.6146 26.7 31.6961 26.7 31.7313C26.7 31.7664 26.6719 31.813 26.6375 31.835C26.6031 31.857 26.536 31.9594 26.4882 32.0625C26.4406 32.1656 26.3812 32.25 26.3562 32.25C26.3312 32.25 26.2954 32.3119 26.2764 32.3875C26.2574 32.4631 26.1987 32.5653 26.146 32.6145C26.0931 32.6636 26.05 32.7358 26.05 32.7748C26.05 32.8136 25.9937 32.9285 25.925 33.0298C25.8562 33.1311 25.8 33.2418 25.8 33.2759C25.8 33.3099 25.7677 33.3646 25.7282 33.3974C25.6887 33.4301 25.6414 33.5253 25.623 33.6089C25.6047 33.6924 25.5357 33.8403 25.4699 33.9374C25.4039 34.0345 25.35 34.1658 25.35 34.229C25.35 34.2924 25.3252 34.3594 25.2949 34.3781C25.2646 34.3969 25.208 34.4883 25.1692 34.5811C25.082 34.79 24.9204 34.8101 24.8486 34.6213C24.8216 34.5504 24.766 34.4588 24.7247 34.4176C24.6836 34.3765 24.65 34.2971 24.65 34.2413C24.65 34.1855 24.5957 34.0351 24.5295 33.9074C24.4631 33.7796 24.3846 33.6188 24.3549 33.55C24.3251 33.4813 24.2805 33.3913 24.2557 33.35C24.231 33.3088 24.1847 33.2188 24.1529 33.15C24.1211 33.0813 24.0401 32.935 23.973 32.825C23.9057 32.715 23.8144 32.5463 23.77 32.45C23.7256 32.3538 23.6596 32.258 23.6234 32.2371C23.5871 32.2163 23.5322 32.1226 23.5014 32.029C23.4705 31.9354 23.4125 31.8463 23.3726 31.831C23.3326 31.8156 23.3 31.7601 23.3 31.7076C23.3 31.6551 23.2496 31.5788 23.1881 31.538C22.9559 31.3838 23.1544 31.2886 23.6724 31.306C24.1957 31.3235 24.3166 31.2775 24.3984 31.0298C24.4295 30.9358 24.4875 30.8463 24.5274 30.831C24.5674 30.8156 24.6 30.7614 24.6 30.7103C24.6 30.6593 24.6562 30.5646 24.725 30.5C24.7937 30.4354 24.85 30.3535 24.85 30.318C24.85 30.2825 24.895 30.2294 24.95 30.2C25.005 30.1706 25.05 30.1153 25.05 30.0771C25.05 30.0389 25.1062 29.9409 25.175 29.8591C25.2437 29.7774 25.3 29.6649 25.3 29.609C25.3 29.5523 25.3387 29.4995 25.3875 29.4895C25.4356 29.4798 25.205 29.4723 24.875 29.4728C24.1969 29.4738 22.9934 29.3478 22.892 29.2651C22.8551 29.2351 22.6705 29.1868 22.4816 29.1576C22.2927 29.1286 22.0996 29.07 22.0526 29.0274C22.0056 28.9849 21.8987 28.95 21.8152 28.95C21.7317 28.95 21.6072 28.9058 21.5386 28.8518C21.47 28.7978 21.3217 28.7329 21.2091 28.7076C21.0966 28.6824 20.97 28.6271 20.9277 28.5849C20.8855 28.5428 20.7832 28.4933 20.7005 28.4751C20.6177 28.4569 20.55 28.4238 20.55 28.4015C20.55 28.3791 20.46 28.3249 20.35 28.2809C20.24 28.2369 20.15 28.1799 20.15 28.1544C20.15 28.1289 20.0824 28.0931 19.9996 28.0749C19.9169 28.0568 19.8275 28.0013 19.8009 27.9516C19.7744 27.9021 19.6957 27.8473 19.6264 27.8298C19.5569 27.8124 19.5 27.7766 19.5 27.7504C19.5 27.724 19.4351 27.669 19.356 27.6281C19.2767 27.5871 19.1189 27.4684 19.0052 27.3643C18.8916 27.2601 18.6852 27.0738 18.5465 26.95C18.4079 26.8263 18.2675 26.6961 18.2347 26.661C18.2019 26.6258 18.0849 26.502 17.9746 26.386C17.5785 25.969 17.1 25.3505 17.1 25.2555C17.1 25.2335 17.0559 25.1755 17.0019 25.1268C16.9479 25.0779 16.8794 24.9639 16.8495 24.8734C16.8196 24.7829 16.7625 24.6963 16.7226 24.681C16.6826 24.6656 16.65 24.623 16.65 24.5863C16.65 24.5495 16.5937 24.4431 16.525 24.35C16.4562 24.2569 16.4 24.1296 16.4 24.0673C16.4 24.0049 16.3575 23.9136 16.3057 23.8645C16.2539 23.8153 16.1956 23.6794 16.1762 23.5625C16.157 23.4456 16.1242 23.35 16.1036 23.35C16.04 23.35 15.95 23.1041 15.95 22.9303C15.95 22.8395 15.9082 22.7173 15.8572 22.6584C15.7975 22.5895 15.7539 22.4363 15.7342 22.2271C15.7175 22.0468 15.6642 21.8419 15.6145 21.766C15.4845 21.5675 15.4771 18.3938 15.6062 18.1966C15.651 18.1284 15.704 17.9268 15.724 17.7488C15.744 17.5706 15.8002 17.3575 15.8489 17.275C15.8976 17.1925 15.9496 17.0276 15.9645 16.9086C15.9794 16.7896 16.0291 16.6508 16.075 16.6C16.1209 16.5493 16.1709 16.4151 16.1861 16.302C16.2025 16.1799 16.2487 16.0774 16.3 16.05C16.3475 16.0246 16.399 15.9259 16.4144 15.8306C16.4299 15.7354 16.4891 15.6109 16.5462 15.5538C16.6032 15.4968 16.65 15.4043 16.65 15.3484C16.65 15.2926 16.6826 15.2344 16.7226 15.219C16.7625 15.2038 16.8199 15.1164 16.85 15.025C16.8801 14.9336 16.9375 14.8463 16.9774 14.831C17.0174 14.8156 17.05 14.7678 17.05 14.7244C17.05 14.681 17.1636 14.506 17.3026 14.3353C17.4416 14.1646 17.5935 13.9715 17.6401 13.9063C17.8142 13.6626 18.8981 12.6 18.9726 12.6C19.0151 12.6 19.0501 12.5719 19.0504 12.5375C19.0505 12.5031 19.1124 12.4369 19.1879 12.3904C19.2632 12.3439 19.4375 12.2261 19.575 12.1286C19.7125 12.0313 19.8539 11.9511 19.8891 11.9508C19.9242 11.9504 19.9652 11.9183 19.9801 11.8796C19.995 11.8409 20.0787 11.78 20.1661 11.7444C20.2535 11.7088 20.3475 11.6531 20.375 11.6209C20.4025 11.5885 20.4862 11.5478 20.5611 11.5304C20.636 11.513 20.7372 11.457 20.7861 11.406C20.835 11.355 20.9605 11.2978 21.0651 11.2789C21.1697 11.26 21.2669 11.2143 21.281 11.1774C21.2951 11.1405 21.4112 11.0946 21.5389 11.0755C21.6665 11.0564 21.8256 10.9978 21.8922 10.9454C21.961 10.8914 22.0921 10.85 22.195 10.85C22.2947 10.85 22.459 10.8058 22.5597 10.7518C22.6616 10.6971 22.8946 10.6401 23.0841 10.6234C23.2716 10.6068 23.515 10.5623 23.625 10.5243C23.9397 10.4159 24.06 10.4079 25.175 10.4209C26 10.4305 26.2571 10.4495 26.375 10.5096ZM24.8625 13.1843L24.75 13.207V16.6948V20.1826L24.879 20.3038L25.008 20.425L27.1415 20.441C29.6396 20.4598 29.8855 20.4448 29.9521 20.2694C29.9776 20.2024 30.0326 20.1344 30.0742 20.1184C30.1596 20.0856 30.1804 19.8 30.0975 19.8C30.0685 19.8 30.0131 19.724 29.9742 19.6311C29.8745 19.3923 29.9541 19.4 27.6176 19.4C26.249 19.4 25.459 19.3816 25.3967 19.3483C25.3027 19.2979 25.3 19.2108 25.3 16.2483C25.3 13.8434 25.2867 13.1999 25.2375 13.1994C25.2031 13.199 25.13 13.1903 25.075 13.1801C25.02 13.1699 24.9244 13.1718 24.8625 13.1843Z" fill="#E7335C"/>
<path fill-rule="evenodd" clip-rule="evenodd" d="M0 25V50H25H50V25V0H25H0V25ZM26.5235 8.4035C26.8528 8.43237 27.1499 8.47912 27.184 8.5075C27.218 8.53575 27.408 8.57925 27.6063 8.60413C27.8044 8.629 28.0152 8.68125 28.0749 8.72038C28.1345 8.75938 28.294 8.807 28.4291 8.826C28.5644 8.84513 28.7453 8.90087 28.8311 8.94987C28.9169 8.99887 29.0782 9.05437 29.1896 9.07325C29.301 9.09212 29.404 9.13825 29.4185 9.176C29.4329 9.21362 29.5302 9.25987 29.6349 9.27862C29.7395 9.29737 29.8587 9.34162 29.9 9.37712C29.9412 9.41262 30.0706 9.47975 30.1875 9.52625C30.3044 9.57275 30.4 9.6285 30.4 9.65C30.4 9.6715 30.4601 9.70425 30.5335 9.72262C30.607 9.74112 30.7225 9.79975 30.7903 9.85312C30.858 9.90637 30.9408 9.95 30.974 9.95C31.0073 9.95 31.0747 9.99437 31.1239 10.0487C31.173 10.103 31.2574 10.1615 31.3113 10.1786C31.4546 10.2241 31.85 10.4993 31.85 10.5535C31.85 10.5791 31.8835 10.6 31.9246 10.6C31.9656 10.6 32.0273 10.645 32.0616 10.7C32.096 10.755 32.1436 10.8 32.1676 10.8C32.3281 10.8 34.0031 12.4677 34.0954 12.7194C34.1066 12.75 34.1572 12.8044 34.2079 12.8404C34.2585 12.8762 34.3 12.9381 34.3 12.9779C34.3 13.0175 34.3212 13.05 34.3474 13.05C34.3987 13.05 34.75 13.5566 34.75 13.6306C34.75 13.6555 34.795 13.704 34.85 13.7384C34.905 13.7727 34.95 13.8314 34.95 13.8686C34.95 13.906 34.9919 13.9901 35.0431 14.0557C35.0944 14.1214 35.1536 14.2313 35.1749 14.3C35.1961 14.3688 35.2293 14.4362 35.2486 14.45C35.2929 14.4815 35.582 15.0869 35.6247 15.2373C35.6422 15.2989 35.6903 15.383 35.7314 15.4242C35.7725 15.4654 35.8198 15.5836 35.8363 15.687C35.8529 15.7904 35.9055 15.9312 35.9533 16C36.001 16.0688 36.054 16.2222 36.0711 16.341C36.0883 16.4599 36.135 16.6069 36.1749 16.6677C36.2147 16.7286 36.2684 16.9273 36.2941 17.1091C36.3199 17.291 36.3673 17.4887 36.3994 17.5487C36.6631 18.0416 36.6619 22.0095 36.3979 22.3276C36.3666 22.3651 36.3208 22.558 36.2959 22.7563C36.271 22.9544 36.2172 23.1675 36.1765 23.2297C36.1357 23.292 36.0879 23.4401 36.0704 23.559C36.0527 23.6778 35.9992 23.8438 35.9515 23.9279C35.9037 24.0119 35.8496 24.1615 35.831 24.2604C35.8125 24.3591 35.7656 24.4662 35.7269 24.4984C35.6881 24.5306 35.6407 24.6285 35.6217 24.716C35.6026 24.8034 35.5465 24.9266 35.497 24.9899C35.4474 25.053 35.392 25.1726 35.3737 25.2558C35.3555 25.3388 35.309 25.4189 35.2702 25.4338C35.2316 25.4485 35.2 25.4989 35.2 25.5456C35.2 25.5924 35.1438 25.7069 35.075 25.8C35.0063 25.8931 34.95 25.9954 34.95 26.027C34.95 26.0586 34.9056 26.1248 34.8512 26.1739C34.797 26.223 34.7385 26.3075 34.7214 26.3615C34.7041 26.4156 34.653 26.5004 34.6076 26.5499C34.5621 26.5994 34.4688 26.7238 34.4 26.8263C34.3313 26.9286 34.2244 27.0629 34.1625 27.1245C34.1006 27.1861 34.05 27.2613 34.05 27.2915C34.05 27.3218 34.005 27.3706 33.95 27.4C33.895 27.4294 33.85 27.485 33.85 27.5234C33.85 27.5619 33.805 27.6075 33.75 27.625C33.695 27.6425 33.65 27.6834 33.6499 27.7159C33.6498 27.7829 32.6842 28.75 32.6174 28.75C32.5936 28.75 32.546 28.795 32.5116 28.85C32.4772 28.905 32.4279 28.95 32.4019 28.95C32.3759 28.95 32.3001 29.0006 32.2337 29.0625C32.1086 29.179 31.9775 29.286 31.6971 29.5C31.6071 29.5688 31.484 29.6756 31.4235 29.7375C31.363 29.7994 31.3011 29.85 31.2861 29.85C31.1819 29.85 29.4496 31.5985 29.3838 31.7701C29.3669 31.814 29.3294 31.85 29.3004 31.85C29.2712 31.85 29.2251 31.9006 29.1978 31.9625C29.1703 32.0244 29.0802 32.165 28.9975 32.275C28.9149 32.385 28.7589 32.61 28.651 32.775C28.5431 32.94 28.42 33.1106 28.3774 33.1543C28.3349 33.1978 28.3 33.2553 28.3 33.282C28.3 33.3088 28.2437 33.4069 28.175 33.5C28.1062 33.5931 28.05 33.71 28.05 33.7598C28.05 33.8094 28.0302 33.85 28.0061 33.85C27.982 33.85 27.9139 33.9625 27.8547 34.1C27.7956 34.2375 27.7254 34.35 27.6986 34.35C27.6719 34.35 27.65 34.3916 27.65 34.4425C27.65 34.4935 27.5937 34.6409 27.525 34.7702C27.4562 34.8995 27.4 35.0461 27.4 35.0959C27.4 35.1457 27.3582 35.2401 27.3072 35.3058C27.2562 35.3714 27.1981 35.515 27.178 35.625C27.158 35.735 27.0985 35.8951 27.0457 35.9809C26.9931 36.0666 26.9499 36.2129 26.9498 36.3059C26.9495 36.3989 26.9136 36.5425 26.8699 36.625C26.8262 36.7075 26.7595 36.9631 26.7218 37.193C26.6839 37.423 26.6318 37.6367 26.6059 37.668C26.5799 37.6994 26.5323 38.039 26.5001 38.4229C26.468 38.8066 26.4099 39.3016 26.3709 39.5229C26.332 39.744 26.3001 40.165 26.3001 40.4582C26.3 41.0431 26.2975 41.0493 25.9018 41.4291C25.4361 41.8761 24.3124 41.6105 24.171 41.0201C24.1519 40.9404 24.1143 40.8471 24.0874 40.813C24.0605 40.7789 24.0174 40.3176 23.9916 39.788C23.9594 39.1267 23.9141 38.7075 23.847 38.45C23.7934 38.2438 23.7348 37.94 23.7169 37.775C23.699 37.61 23.6559 37.43 23.621 37.375C23.5861 37.32 23.5336 37.1425 23.5042 36.9806C23.4749 36.8188 23.4253 36.6554 23.3939 36.6176C23.3625 36.5799 23.3173 36.444 23.2934 36.3158C23.2694 36.1875 23.218 36.0471 23.1791 36.0037C23.1402 35.9605 23.0932 35.835 23.0745 35.725C23.0559 35.615 23.0015 35.4688 22.9536 35.4C22.9059 35.3313 22.852 35.2006 22.834 35.1096C22.816 35.0186 22.7674 34.9101 22.7257 34.8686C22.6841 34.827 22.6358 34.7328 22.618 34.659C22.6004 34.5853 22.5441 34.4848 22.493 34.4355C22.4419 34.3864 22.4 34.3214 22.4 34.2912C22.4 34.261 22.2987 34.0826 22.175 33.8947C22.0512 33.7069 21.95 33.5389 21.95 33.5214C21.95 33.5037 21.8938 33.4226 21.825 33.3409C21.7563 33.2591 21.7 33.1602 21.7 33.1211C21.7 33.082 21.6781 33.05 21.6513 33.05C21.6245 33.05 21.5653 32.9769 21.5195 32.8875C21.4739 32.7981 21.4057 32.707 21.3682 32.685C21.3307 32.663 21.3 32.6164 21.3 32.5812C21.3 32.5461 21.2437 32.4646 21.175 32.4C21.1062 32.3354 21.05 32.243 21.05 32.1946C21.05 32.1463 21.005 32.0925 20.95 32.075C20.895 32.0575 20.85 32.0151 20.85 31.9806C20.85 31.9463 20.7994 31.8714 20.7375 31.8144C20.6756 31.7575 20.5426 31.6127 20.4419 31.4929C20.056 31.0336 18.8431 29.85 18.7585 29.85C18.742 29.85 18.6828 29.8061 18.6268 29.7524C18.399 29.5339 18.302 29.4546 18.1912 29.3969C18.0705 29.3338 18.0194 29.2938 17.7852 29.0785C17.7084 29.0079 17.6295 28.95 17.6101 28.95C17.5391 28.95 16.5923 28.046 16.3411 27.7385C16.2498 27.6266 16.1244 27.4852 16.0625 27.4242C16.0006 27.3634 15.95 27.2962 15.95 27.275C15.95 27.2537 15.8994 27.1845 15.8375 27.121C15.6315 26.9096 15.5644 26.826 15.4996 26.7C15.4643 26.6313 15.4049 26.557 15.3678 26.535C15.3305 26.513 15.3 26.4659 15.3 26.4303C15.3 26.3946 15.2438 26.3001 15.175 26.2202C15.1064 26.1404 15.0501 26.0349 15.05 25.9859C15.05 25.937 15.0174 25.8844 14.9774 25.869C14.9375 25.8537 14.8781 25.7587 14.8454 25.6581C14.8126 25.5574 14.7552 25.457 14.7179 25.435C14.6806 25.413 14.65 25.3543 14.65 25.3045C14.65 25.2548 14.5937 25.1311 14.525 25.0298C14.4562 24.9285 14.4 24.8046 14.4 24.7545C14.4 24.7045 14.3579 24.6099 14.3065 24.5443C14.2551 24.4786 14.1964 24.3462 14.176 24.25C14.1555 24.1538 14.1068 24.0385 14.0674 23.9939C14.0281 23.9493 13.9773 23.803 13.9543 23.6689C13.9314 23.5347 13.8768 23.3568 13.833 23.2733C13.7893 23.1898 13.7379 22.9872 13.7189 22.8232C13.6999 22.6592 13.6556 22.48 13.6204 22.425C13.4541 22.1652 13.2813 19.515 13.3953 18.975C13.4244 18.8375 13.4731 18.4662 13.5037 18.15C13.5344 17.8337 13.5893 17.5188 13.6259 17.45C13.6624 17.3813 13.7155 17.1694 13.7439 16.9792C13.7724 16.7891 13.8199 16.6186 13.8495 16.6004C13.8791 16.582 13.9218 16.4505 13.9443 16.3081C13.9668 16.1657 14.0213 16.0095 14.0653 15.9609C14.1093 15.9121 14.1603 15.7784 14.1786 15.6635C14.197 15.5486 14.2544 15.4164 14.306 15.3695C14.3577 15.3228 14.4 15.2347 14.4 15.174C14.4 15.1132 14.4416 15.0099 14.4924 14.9443C14.5431 14.8786 14.5995 14.7647 14.6175 14.691C14.6354 14.6172 14.6823 14.525 14.7214 14.4858C14.7605 14.4466 14.8289 14.3381 14.8733 14.2448C15.0521 13.8684 15.1532 13.7 15.2004 13.7C15.2276 13.7 15.25 13.6694 15.25 13.6319C15.25 13.5688 15.4385 13.2927 15.6219 13.0875C15.6649 13.0394 15.7 12.9788 15.7 12.9529C15.7 12.9269 15.7397 12.8762 15.7884 12.8404C15.837 12.8044 15.9195 12.7081 15.9719 12.6263C16.1101 12.4101 16.1272 12.3908 16.675 11.8333C16.95 11.5533 17.3213 11.2059 17.5 11.0612C17.6787 10.9166 17.8708 10.7536 17.9268 10.6991C17.9828 10.6446 18.0484 10.6 18.0726 10.6C18.0967 10.6 18.1522 10.5651 18.1957 10.5226C18.265 10.455 18.7639 10.1141 18.9944 9.977C19.0388 9.95063 19.1316 9.89188 19.201 9.8465C19.2703 9.80113 19.3828 9.7465 19.451 9.72513C19.5191 9.70375 19.6266 9.64588 19.6899 9.59663C19.753 9.54725 19.8711 9.49237 19.9524 9.4745C20.0335 9.45662 20.1 9.42225 20.1 9.398C20.1 9.37375 20.1956 9.32837 20.3125 9.29725C20.4294 9.26612 20.5616 9.20813 20.6063 9.16825C20.651 9.12838 20.7748 9.08213 20.8813 9.0655C20.9879 9.04888 21.1313 8.99663 21.2 8.94938C21.2688 8.90213 21.4356 8.84725 21.5709 8.82738C21.706 8.80763 21.8655 8.75938 21.9251 8.72038C21.9848 8.68125 22.1956 8.629 22.3937 8.60413C22.592 8.57925 22.7854 8.53288 22.8236 8.50113C22.9814 8.37025 25.4129 8.30612 26.5235 8.4035ZM24.8984 10.6167C24.8855 10.6287 24.4955 10.665 24.0315 10.6974C23.4271 10.7395 23.1184 10.7836 22.9421 10.8531C22.807 10.9064 22.6231 10.95 22.5338 10.95C22.4443 10.95 22.282 10.9955 22.1731 11.0513C22.0641 11.1069 21.8853 11.1669 21.7756 11.1845C21.666 11.2021 21.5461 11.2467 21.5094 11.2835C21.4725 11.3204 21.3429 11.3755 21.2213 11.4061C21.0995 11.4368 21 11.48 21 11.502C21 11.5241 20.9156 11.5695 20.8125 11.6027C20.7094 11.636 20.5847 11.7053 20.5355 11.7566C20.4864 11.808 20.4055 11.85 20.3557 11.85C20.3061 11.85 20.2247 11.895 20.175 11.95C20.1252 12.005 20.0559 12.05 20.0209 12.05C19.9858 12.05 19.922 12.0851 19.8791 12.128C19.7705 12.2366 19.2996 12.55 19.245 12.55C19.2203 12.55 19.2 12.573 19.2 12.6011C19.2 12.6291 19.1441 12.6776 19.076 12.7086C19.0078 12.7397 18.9387 12.8068 18.9226 12.8576C18.9065 12.9084 18.8695 12.95 18.8405 12.95C18.7764 12.95 17.85 13.8859 17.85 13.9506C17.85 13.9759 17.805 14.0206 17.75 14.05C17.695 14.0794 17.65 14.1325 17.65 14.168C17.65 14.2035 17.5937 14.2854 17.525 14.35C17.4562 14.4146 17.4 14.4971 17.4 14.5332C17.4 14.5695 17.355 14.6272 17.3 14.6616C17.245 14.696 17.2 14.7506 17.2 14.7832C17.2 14.8157 17.1438 14.9091 17.075 14.9909C17.0063 15.0726 16.95 15.1721 16.95 15.212C16.95 15.2519 16.907 15.3234 16.8545 15.3709C16.802 15.4185 16.744 15.5176 16.7256 15.5911C16.7072 15.6647 16.663 15.7588 16.6274 15.8C16.5917 15.8413 16.5339 15.9644 16.4988 16.0736C16.4636 16.1829 16.4045 16.3026 16.3675 16.3398C16.3304 16.3768 16.3 16.457 16.3 16.518C16.3 16.579 16.2545 16.718 16.1987 16.8269C16.1431 16.9359 16.0838 17.115 16.0669 17.225C16.0499 17.335 16.005 17.4866 15.967 17.562C15.9291 17.6373 15.8745 17.8847 15.8457 18.112C15.817 18.3391 15.7613 18.6246 15.7218 18.7464C15.6328 19.021 15.6185 20.8977 15.7043 21.0579C15.734 21.1136 15.789 21.392 15.8264 21.6765C15.8636 21.961 15.9261 22.2571 15.9651 22.3344C16.004 22.4118 16.0505 22.5859 16.0683 22.7214C16.086 22.8569 16.1351 23.0059 16.1774 23.0526C16.2196 23.0994 16.268 23.2247 16.2847 23.3312C16.3016 23.4379 16.3569 23.5786 16.4076 23.6443C16.4585 23.7099 16.5 23.8024 16.5 23.85C16.5 23.8976 16.5416 23.9901 16.5924 24.0557C16.6431 24.1214 16.7 24.2376 16.7188 24.3141C16.7375 24.3908 16.7971 24.4914 16.8514 24.5378C16.9056 24.5843 16.95 24.6534 16.95 24.6914C16.95 24.7295 17.0063 24.8274 17.075 24.9091C17.1438 24.9909 17.2 25.0985 17.2 25.1485C17.2 25.1984 17.2341 25.2524 17.2757 25.2684C17.3174 25.2844 17.3731 25.3542 17.3995 25.4237C17.4259 25.4931 17.4699 25.55 17.4971 25.55C17.5245 25.55 17.5756 25.6036 17.6109 25.6693C17.7867 25.9966 18.918 27.1415 19.2425 27.3206C19.2879 27.3456 19.343 27.3962 19.365 27.4331C19.387 27.4699 19.4374 27.5 19.477 27.5C19.5167 27.5 19.5773 27.545 19.6116 27.6C19.646 27.655 19.7006 27.7 19.7332 27.7C19.7657 27.7 19.8591 27.7563 19.9409 27.825C20.0226 27.8938 20.1262 27.95 20.1712 27.95C20.2162 27.95 20.2656 27.9826 20.281 28.0226C20.2963 28.0625 20.3912 28.1223 20.4919 28.1555C20.5926 28.1886 20.6975 28.2435 20.725 28.2774C20.7525 28.3112 20.8644 28.3674 20.9736 28.402C21.0829 28.4368 21.2026 28.4955 21.2397 28.5325C21.2767 28.5696 21.3561 28.6001 21.4161 28.6001C21.476 28.6002 21.5983 28.645 21.6879 28.6996C21.7774 28.7543 21.9461 28.8133 22.0629 28.8309C22.1795 28.8484 22.3425 28.9021 22.425 28.9504C22.5075 28.9986 22.7428 29.0537 22.9478 29.073C23.1529 29.0924 23.3874 29.1426 23.4689 29.1847C23.5804 29.2424 23.8663 29.2694 24.6205 29.2932C25.5336 29.3221 25.6254 29.3331 25.6411 29.4153C25.6587 29.5074 25.3173 30.05 25.2418 30.05C25.2188 30.05 25.2 30.0819 25.2 30.1208C25.2 30.1596 25.1551 30.244 25.1004 30.3083C24.9517 30.4825 24.5445 31.1084 24.4946 31.2394C24.37 31.5662 23.7905 31.7131 23.5125 31.4883C23.4655 31.4504 23.45 31.4704 23.45 31.5689C23.45 31.641 23.4722 31.7 23.4994 31.7C23.5265 31.7 23.5839 31.7731 23.627 31.8625C23.756 32.1301 23.8861 32.3518 23.9665 32.441C24.0081 32.4871 24.0572 32.5852 24.0756 32.6589C24.094 32.7325 24.1396 32.8045 24.1769 32.8187C24.2142 32.8331 24.2692 32.936 24.2992 33.0474C24.3292 33.1589 24.3738 33.25 24.398 33.25C24.4224 33.25 24.4694 33.3344 24.5025 33.4375C24.5355 33.5406 24.5917 33.6588 24.6274 33.7C24.663 33.7413 24.7086 33.8425 24.7288 33.925C24.7489 34.0075 24.8069 34.1286 24.8576 34.1942C24.9084 34.2599 24.95 34.3668 24.95 34.4318C24.95 34.6099 25.0344 34.5738 25.0707 34.38C25.0882 34.2865 25.1344 34.1838 25.1731 34.1516C25.2119 34.1194 25.2592 34.0215 25.2782 33.934C25.2974 33.8466 25.3551 33.7214 25.4065 33.6558C25.4579 33.5901 25.5 33.4976 25.5 33.45C25.5 33.4024 25.5419 33.3099 25.5931 33.2443C25.6444 33.1786 25.7034 33.0688 25.7244 33C25.7452 32.9312 25.8046 32.8347 25.8563 32.7855C25.9078 32.7364 25.95 32.6555 25.95 32.6058C25.95 32.5561 25.995 32.4747 26.05 32.425C26.105 32.3752 26.15 32.306 26.15 32.2711C26.15 32.2363 26.2031 32.1441 26.2681 32.0664C26.3331 31.9886 26.4021 31.8744 26.4215 31.8125C26.4409 31.7506 26.4763 31.7 26.5 31.7C26.5237 31.7 26.5569 31.657 26.5736 31.6044C26.6036 31.51 26.826 31.1996 26.9739 31.0457C27.0158 31.0022 27.05 30.9492 27.05 30.928C27.05 30.9067 27.108 30.8188 27.179 30.7323C27.2499 30.6458 27.3568 30.5125 27.4165 30.4361C27.4761 30.3597 27.6164 30.2022 27.7279 30.0861C27.8395 29.97 27.9457 29.8356 27.9639 29.7875C27.982 29.7394 28.0314 29.7 28.0734 29.7C28.1155 29.7 28.15 29.6779 28.15 29.6507C28.15 29.6019 29.121 28.6 29.1682 28.6C29.1817 28.6 29.2939 28.5044 29.4175 28.3875C29.541 28.2706 29.713 28.1187 29.7997 28.05C29.8866 27.9812 30.0177 27.8744 30.0912 27.8125C30.1649 27.7508 30.2477 27.7001 30.2755 27.7C30.3032 27.7 30.354 27.655 30.3884 27.6C30.4227 27.545 30.4769 27.5 30.5088 27.5C30.5406 27.5 30.6023 27.4663 30.6458 27.4249C30.6894 27.3836 30.8938 27.2122 31.1 27.0441C31.3063 26.876 31.493 26.7074 31.515 26.6693C31.537 26.6311 31.5876 26.6 31.6275 26.6C31.6674 26.6 31.7 26.5703 31.7 26.534C31.7 26.4978 31.7506 26.4197 31.8125 26.3606C31.9926 26.1886 32.1225 26.0406 32.3046 25.8C32.3984 25.6762 32.5031 25.557 32.5375 25.535C32.5719 25.513 32.6 25.4712 32.6 25.4422C32.6 25.4132 32.6562 25.3226 32.725 25.2409C32.7937 25.1591 32.85 25.0638 32.85 25.0289C32.85 24.994 32.895 24.9248 32.95 24.875C33.005 24.8252 33.05 24.7586 33.05 24.727C33.05 24.6954 33.1062 24.5931 33.175 24.5C33.2437 24.4069 33.3 24.2927 33.3 24.2464C33.3 24.2001 33.3326 24.1353 33.3725 24.1021C33.4123 24.069 33.4714 23.9594 33.5037 23.8585C33.5361 23.7576 33.5908 23.6413 33.625 23.6C33.6592 23.5588 33.7034 23.435 33.7229 23.325C33.7424 23.215 33.8015 23.0549 33.8543 22.9691C33.9069 22.8834 33.95 22.7413 33.95 22.6534C33.95 22.5655 33.9941 22.3881 34.0481 22.2593C34.1021 22.1304 34.1684 21.8178 34.1954 21.5643C34.2224 21.3109 34.2682 21.0593 34.2972 21.0051C34.3784 20.8535 34.3647 19.2487 34.2795 18.9072C34.2407 18.752 34.1936 18.4482 34.1748 18.2324C34.1559 18.0164 34.0981 17.7464 34.0464 17.6324C33.9946 17.5183 33.9518 17.3571 33.9511 17.2743C33.9505 17.1914 33.9066 17.0425 33.8535 16.9435C33.8005 16.8445 33.7407 16.6761 33.7207 16.5693C33.7007 16.4624 33.6558 16.3525 33.6208 16.325C33.5859 16.2975 33.5323 16.1794 33.5016 16.0625C33.4711 15.9456 33.4263 15.85 33.402 15.85C33.3776 15.85 33.3305 15.7656 33.2972 15.6625C33.264 15.5594 33.1948 15.4347 33.1434 15.3855C33.092 15.3364 33.05 15.252 33.05 15.198C33.05 15.1441 33.0264 15.1 32.9975 15.1C32.9685 15.1 32.9118 15.0207 32.8713 14.9239C32.8309 14.827 32.763 14.7089 32.7207 14.6614C32.6784 14.6139 32.5772 14.485 32.4961 14.375C32.2177 13.998 32.174 13.9475 31.6944 13.4493C31.4301 13.1746 31.1969 12.95 31.176 12.95C31.1553 12.95 31.051 12.86 30.9443 12.75C30.8375 12.64 30.7309 12.55 30.7074 12.55C30.6839 12.55 30.6039 12.4938 30.5298 12.425C30.4555 12.3563 30.3767 12.3 30.3547 12.3C30.3326 12.3 30.2539 12.2438 30.1798 12.175C30.1055 12.1063 30.0158 12.05 29.9801 12.05C29.9446 12.05 29.8748 12.005 29.825 11.95C29.7753 11.895 29.6962 11.85 29.6495 11.85C29.6029 11.85 29.5039 11.7938 29.4298 11.725C29.3555 11.6563 29.2593 11.6 29.2159 11.6C29.1724 11.6 29.0666 11.5574 28.9809 11.5054C28.8951 11.4534 28.7534 11.3956 28.666 11.3771C28.5785 11.3587 28.482 11.3136 28.4516 11.277C28.4213 11.2404 28.3129 11.1953 28.2108 11.1765C28.1086 11.1579 27.9721 11.1085 27.9074 11.0667C27.8428 11.0251 27.6445 10.9705 27.467 10.9452C27.2895 10.9201 27.0836 10.8685 27.0096 10.8305C26.93 10.7895 26.5484 10.7381 26.075 10.7045C25.635 10.6733 25.1955 10.6359 25.0984 10.6214C25.0013 10.6068 24.9112 10.6047 24.8984 10.6167ZM25.246 12.9721C25.5949 13.2294 25.5724 13.0246 25.6 16.2L25.625 19.075L27.6 19.1021C29.5994 19.1296 30.05 19.1759 30.05 19.3539C30.05 19.377 30.1074 19.4491 30.1775 19.5141C30.4182 19.7374 30.3433 20.2565 30.0324 20.5196L29.7897 20.725H27.397C25.2835 20.725 24.9967 20.7159 24.9396 20.6465C24.9041 20.6034 24.8131 20.5296 24.7375 20.4829C24.6619 20.436 24.6 20.3575 24.6 20.3084C24.6 20.2592 24.567 20.1755 24.5266 20.122C24.4111 19.9694 24.414 13.4776 24.5296 13.2393C24.6964 12.8956 24.9926 12.7851 25.246 12.9721Z" fill="#F5F5F5"/>
<path fill-rule="evenodd" clip-rule="evenodd" d="M27.025 8.5C27.1626 8.55913 27.2115 8.55913 27.175 8.5C27.158 8.4725 27.0947 8.45163 27.0345 8.4535C26.9288 8.45688 26.9286 8.45863 27.025 8.5ZM24.5875 10.6353C24.6493 10.6473 24.7506 10.6473 24.8125 10.6353C24.8744 10.6234 24.8237 10.6136 24.7 10.6136C24.5762 10.6136 24.5256 10.6234 24.5875 10.6353ZM25.2125 10.6359C25.2881 10.6473 25.4118 10.6473 25.4875 10.6359C25.5631 10.6244 25.5012 10.615 25.35 10.615C25.1987 10.615 25.1368 10.6244 25.2125 10.6359ZM24.0881 10.6854C24.1502 10.6974 24.2402 10.6969 24.2881 10.6844C24.3358 10.6719 24.285 10.662 24.175 10.6626C24.065 10.6631 24.0259 10.6734 24.0881 10.6854ZM25.7875 10.6853C25.8493 10.6973 25.9506 10.6973 26.0125 10.6853C26.0744 10.6734 26.0237 10.6636 25.9 10.6636C25.7762 10.6636 25.7256 10.6734 25.7875 10.6853ZM24.7671 12.9673C24.4383 13.1916 24.4499 13.0563 24.4516 16.7143C24.453 19.5461 24.4637 20.039 24.5266 20.122C24.567 20.1755 24.6 20.2593 24.6 20.3084C24.6 20.3575 24.6618 20.436 24.7375 20.4829C24.8131 20.5296 24.9041 20.6034 24.9396 20.6465C24.9967 20.7159 25.2835 20.725 27.397 20.725H29.7897L30.0323 20.5196C30.3432 20.2565 30.4182 19.7374 30.1775 19.5141C30.1073 19.4491 30.05 19.377 30.05 19.3539C30.05 19.1759 29.5993 19.1296 27.6 19.1021L25.625 19.075L25.6 16.2C25.5723 13.0246 25.5948 13.2294 25.246 12.9721C25.0481 12.8261 24.9748 12.8254 24.7671 12.9673ZM25.2927 13.1663C25.3308 13.2123 25.3519 14.1328 25.3614 16.1895C25.3741 18.9505 25.3809 19.1524 25.4642 19.2358C25.5467 19.3183 25.7181 19.3261 27.722 19.339L29.8905 19.353L30.0235 19.5275C30.3305 19.93 30.1906 20.3571 29.6997 20.5156C29.2651 20.656 25.3678 20.6418 25.0723 20.4988C24.6386 20.2888 24.675 20.6368 24.675 16.693C24.675 13.6393 24.6845 13.1904 24.75 13.149C24.8615 13.0785 25.2296 13.0901 25.2927 13.1663ZM14.0194 16.0265C13.9737 16.0961 13.9455 16.1623 13.9566 16.1734C13.9677 16.1845 14.0147 16.1275 14.0611 16.0468C14.1642 15.867 14.1336 15.8521 14.0194 16.0265ZM35.9318 16.025C36.0475 16.2224 36.05 16.2254 36.05 16.1639C36.05 16.1349 36.0036 16.058 35.947 15.993L35.8441 15.875L35.9318 16.025ZM13.5985 17.5028C13.5682 17.5593 13.5509 17.6278 13.56 17.6549C13.569 17.6821 13.6022 17.6359 13.6339 17.5521C13.6996 17.3781 13.6799 17.3506 13.5985 17.5028ZM34.2108 18.55C34.2103 18.6188 34.228 18.7313 34.25 18.8C34.3038 18.968 34.3038 18.7865 34.25 18.575C34.2157 18.4403 34.2117 18.4378 34.2108 18.55ZM13.3626 19.225C13.3631 19.335 13.3734 19.3741 13.3854 19.3119C13.3974 19.2498 13.3969 19.1598 13.3844 19.1119C13.3719 19.0641 13.362 19.115 13.3626 19.225ZM36.5876 19.375C36.6017 19.5675 36.6215 19.7344 36.6316 19.7459C36.6683 19.7875 36.6418 19.2223 36.6025 19.125C36.5793 19.0678 36.573 19.1748 36.5876 19.375ZM34.366 20C34.366 20.1788 34.3751 20.2519 34.3861 20.1625C34.3972 20.0731 34.3972 19.9269 34.3861 19.8375C34.3751 19.7481 34.366 19.8213 34.366 20ZM36.615 20.5C36.615 20.6513 36.6243 20.7131 36.6358 20.6375C36.6472 20.5619 36.6472 20.4381 36.6358 20.3625C36.6243 20.2869 36.615 20.3488 36.615 20.5ZM13.3636 20.65C13.3636 20.7738 13.3734 20.8244 13.3852 20.7625C13.3972 20.7006 13.3972 20.5994 13.3852 20.5375C13.3734 20.4756 13.3636 20.5263 13.3636 20.65ZM15.6549 21C15.653 21.0138 15.6834 21.1263 15.7224 21.25C15.7614 21.3738 15.7937 21.43 15.7944 21.375C15.7954 21.2879 15.6635 20.9339 15.6549 21ZM34.0581 22.2271C33.9743 22.411 33.9903 22.4503 34.0808 22.2831C34.1232 22.205 34.1485 22.1318 34.137 22.1204C34.1256 22.1089 34.0901 22.157 34.0581 22.2271ZM15.9035 22.275C15.9035 22.3025 15.9357 22.3813 15.975 22.45C16.0142 22.5188 16.0465 22.5525 16.0465 22.525C16.0465 22.4975 16.0142 22.4188 15.975 22.35C15.9357 22.2813 15.9035 22.2475 15.9035 22.275ZM23.3432 29.177C23.4357 29.2171 23.5257 29.2493 23.5432 29.2483C23.6082 29.2446 23.322 29.1035 23.25 29.1038C23.2087 29.1039 23.2507 29.1368 23.3432 29.177ZM19.35 30.375C19.4432 30.4713 19.5309 30.55 19.5446 30.55C19.5584 30.55 19.4932 30.4713 19.4 30.375C19.3067 30.2788 19.2191 30.2 19.2054 30.2C19.1916 30.2 19.2567 30.2788 19.35 30.375ZM20.2 31.225C20.2932 31.3213 20.3809 31.4 20.3946 31.4C20.4084 31.4 20.3432 31.3213 20.25 31.225C20.1567 31.1288 20.0691 31.05 20.0554 31.05C20.0416 31.05 20.1067 31.1288 20.2 31.225ZM24.2775 31.4473C24.2291 31.5008 24.1187 31.5534 24.0322 31.5643L23.875 31.584L24.0302 31.592C24.1342 31.5974 24.2297 31.5589 24.3202 31.475C24.3945 31.4063 24.435 31.35 24.4104 31.35C24.3856 31.35 24.3259 31.3938 24.2775 31.4473ZM23.5237 31.498C23.5415 31.5266 23.6146 31.55 23.6862 31.55C23.843 31.55 23.8248 31.526 23.6332 31.48C23.5404 31.4578 23.5026 31.4639 23.5237 31.498ZM24.8318 34.225C24.9475 34.4224 24.95 34.4254 24.95 34.3639C24.95 34.3349 24.9036 34.258 24.847 34.193L24.7441 34.075L24.8318 34.225ZM27.2867 35.2629L27.1985 35.425L27.2992 35.307C27.385 35.2065 27.4307 35.0993 27.3875 35.1004C27.3806 35.1005 27.3352 35.1736 27.2867 35.2629ZM26.4616 38.6C26.4616 38.6963 26.4718 38.7356 26.4845 38.6875C26.497 38.6394 26.497 38.5606 26.4845 38.5125C26.4718 38.4644 26.4616 38.5038 26.4616 38.6ZM26.4116 39.05C26.4116 39.1463 26.4218 39.1856 26.4345 39.1375C26.447 39.0894 26.447 39.0106 26.4345 38.9625C26.4218 38.9144 26.4116 38.9538 26.4116 39.05ZM23.9636 39.5C23.9636 39.6238 23.9734 39.6744 23.9852 39.6125C23.9972 39.5506 23.9972 39.4494 23.9852 39.3875C23.9734 39.3256 23.9636 39.3763 23.9636 39.5ZM24.0164 40.175C24.0166 40.3675 24.0256 40.4401 24.0365 40.3364C24.0474 40.2326 24.0471 40.0751 24.0361 39.9864C24.025 39.8976 24.0161 39.9825 24.0164 40.175Z" fill="#C4C4C4"/>
<path fill-rule="evenodd" clip-rule="evenodd" d="M23.6 8.40601C23.3112 8.42913 22.985 8.48038 22.875 8.51988C22.765 8.55938 22.5497 8.60588 22.3966 8.62326C22.2435 8.64063 22.0549 8.68776 21.9775 8.72788C21.9001 8.76813 21.7441 8.81463 21.6309 8.83126C21.5176 8.84801 21.3562 8.90076 21.2721 8.94851C21.1881 8.99626 21.0306 9.05176 20.9221 9.07188C20.8137 9.09201 20.6912 9.13826 20.65 9.17463C20.6087 9.21101 20.482 9.26551 20.3684 9.29576C20.2546 9.32601 20.1356 9.38213 20.1037 9.42051C20.072 9.45876 19.985 9.50538 19.9105 9.52401C19.836 9.54263 19.7412 9.58713 19.7 9.62301C19.6587 9.65888 19.5691 9.70526 19.501 9.72613C19.4327 9.74701 19.3202 9.80238 19.251 9.84926C18.8654 10.1099 18.7135 10.2 18.6597 10.2C18.6269 10.2 18.6 10.222 18.6 10.249C18.6 10.2759 18.5156 10.3413 18.4125 10.3941C18.3094 10.447 18.1462 10.5585 18.05 10.6419C17.9537 10.7254 17.7287 10.9114 17.55 11.0555C17.2065 11.3323 16.843 11.6651 16.5822 11.9419C16.1292 12.4226 15.9515 12.6304 15.9507 12.6798C15.9504 12.7099 15.9046 12.7755 15.8492 12.8256C15.7939 12.8758 15.6705 13.0311 15.575 13.1709C15.4795 13.3106 15.3226 13.5375 15.2264 13.675C15.1302 13.8125 15.0511 13.9409 15.0507 13.9603C15.0504 13.9796 14.9994 14.0704 14.9375 14.1618C14.8756 14.2531 14.7276 14.5298 14.6086 14.7765C14.4896 15.0231 14.3519 15.3038 14.3024 15.4C14.253 15.4963 14.1959 15.6519 14.1755 15.7459C14.1551 15.8398 14.0961 15.986 14.0444 16.0709C13.9926 16.1556 13.9502 16.2769 13.9501 16.3403C13.9501 16.4036 13.9075 16.5499 13.8555 16.6653C13.8035 16.7806 13.7447 16.9965 13.7247 17.1451C13.7049 17.2938 13.6595 17.485 13.624 17.5701C13.5885 17.6553 13.5337 17.9838 13.5024 18.3C13.471 18.6163 13.4244 19.0213 13.3986 19.2C13.3321 19.6631 13.3392 20.1878 13.4214 20.8765C13.4606 21.2056 13.5082 21.6438 13.5272 21.85C13.5461 22.0563 13.5897 22.2813 13.624 22.35C13.6584 22.4188 13.7022 22.5988 13.7215 22.75C13.7407 22.9013 13.8001 23.1235 13.8532 23.2439C13.9065 23.3643 13.95 23.5114 13.95 23.5708C13.95 23.6303 13.9947 23.7668 14.0495 23.8741C14.1042 23.9815 14.1629 24.143 14.1797 24.2329C14.1966 24.3229 14.2417 24.4224 14.2799 24.454C14.318 24.4858 14.3737 24.6024 14.4036 24.7134C14.4335 24.8243 14.4899 24.947 14.5289 24.986C14.5679 25.025 14.6141 25.1173 14.6316 25.191C14.6491 25.2648 14.6919 25.3588 14.7267 25.4C14.7615 25.4413 14.8249 25.5594 14.8675 25.6625C14.91 25.7656 14.9685 25.85 14.9975 25.85C15.0264 25.85 15.05 25.8859 15.05 25.9298C15.05 25.9736 15.1006 26.0801 15.1625 26.1663C15.2244 26.2524 15.2975 26.359 15.325 26.403C15.5596 26.7786 16.0472 27.4 16.1074 27.4C16.1309 27.4 16.15 27.4254 16.15 27.4565C16.15 27.529 16.6181 28.0241 17.25 28.6199C17.3389 28.7038 17.8807 29.1325 18.0779 29.275C18.2892 29.4278 18.5654 29.6491 18.6602 29.7418C18.7071 29.7875 18.8309 29.8961 18.9352 29.983C19.5532 30.4978 20.1071 31.0435 20.5255 31.55C20.6276 31.6738 20.7425 31.793 20.7806 31.815C20.8187 31.837 20.85 31.8868 20.85 31.9258C20.85 31.9646 20.895 32.0206 20.95 32.05C21.005 32.0794 21.05 32.1325 21.05 32.168C21.05 32.2035 21.1062 32.2854 21.175 32.35C21.2437 32.4146 21.3 32.4884 21.3 32.514C21.3 32.5561 21.4375 32.7488 21.6129 32.9521C21.6494 32.9946 21.7091 33.1015 21.7457 33.1896C21.7822 33.2779 21.8325 33.35 21.8572 33.35C21.8821 33.35 21.9222 33.4021 21.9465 33.4658C21.9876 33.5739 22.1931 33.9079 22.2925 34.0281C22.3166 34.0574 22.3757 34.1643 22.4239 34.2656C22.472 34.367 22.5285 34.45 22.5495 34.45C22.5704 34.45 22.6005 34.5148 22.6162 34.594C22.6321 34.6731 22.6781 34.771 22.7186 34.8115C22.759 34.8519 22.8159 34.9728 22.8447 35.08C22.8737 35.1873 22.929 35.32 22.9674 35.375C23.0057 35.43 23.0537 35.5538 23.074 35.65C23.0942 35.7463 23.1534 35.8951 23.2054 35.9809C23.2574 36.0666 23.3 36.1908 23.3 36.2566C23.3 36.3225 23.3421 36.455 23.3935 36.551C23.445 36.647 23.5035 36.8266 23.5237 36.9503C23.5439 37.0739 23.5905 37.2425 23.6274 37.325C23.6642 37.4075 23.7089 37.5875 23.7265 37.725C23.7441 37.8625 23.7994 38.1325 23.8491 38.325C23.9007 38.5243 23.9649 39.0626 23.9981 39.575C24.079 40.8215 24.1405 41.0626 24.452 41.3559C24.8124 41.6951 25.4787 41.7499 25.8164 41.468C25.8941 41.4031 25.9785 41.35 26.0039 41.35C26.0292 41.35 26.05 41.3234 26.05 41.2908C26.05 41.2581 26.1006 41.1775 26.1625 41.1118C26.2671 41.0004 26.277 40.9331 26.3039 40.1551C26.3197 39.6949 26.3456 39.2974 26.3614 39.2716C26.3772 39.246 26.4285 38.865 26.4754 38.425C26.5222 37.985 26.5821 37.5984 26.6085 37.5659C26.635 37.5334 26.6777 37.3534 26.7037 37.1659C26.7297 36.9784 26.7957 36.7196 26.8505 36.5908C26.9052 36.4619 26.95 36.2925 26.95 36.2144C26.95 36.1363 26.9866 36.0199 27.0315 35.9559C27.0762 35.8919 27.1332 35.7463 27.158 35.6323C27.1827 35.5183 27.2454 35.335 27.2971 35.225C27.3487 35.115 27.4514 34.89 27.525 34.725C27.5986 34.56 27.6786 34.3913 27.7029 34.35C27.7271 34.3088 27.7901 34.1823 27.8427 34.069C27.8955 33.9556 27.9637 33.8474 27.9944 33.8285C28.025 33.8096 28.05 33.761 28.05 33.7204C28.05 33.6799 28.1477 33.4956 28.2672 33.3109C28.3867 33.1261 28.5594 32.8569 28.6507 32.7125C28.7421 32.5681 28.834 32.45 28.855 32.45C28.8761 32.45 28.9059 32.4106 28.9214 32.3625C28.9367 32.3144 29.0057 32.2096 29.0747 32.1298C29.1436 32.0499 29.2 31.9668 29.2 31.9453C29.2 31.8656 30.8292 30.1995 31.2734 29.825C31.4037 29.715 31.5485 29.5913 31.5949 29.55C31.6414 29.5088 31.7909 29.3906 31.9271 29.2875C32.1629 29.1091 32.4856 28.843 32.7306 28.625C32.7925 28.57 32.9229 28.4575 33.0205 28.375C33.118 28.2925 33.1984 28.1984 33.1989 28.1659C33.1995 28.1334 33.245 28.0925 33.3 28.075C33.355 28.0575 33.4 28.024 33.4 28.0006C33.4 27.9771 33.5012 27.8566 33.625 27.7329C33.7487 27.6091 33.85 27.4978 33.85 27.4853C33.85 27.4728 33.9306 27.3754 34.0291 27.2688C34.1276 27.1623 34.2406 27.0131 34.2804 26.9375C34.3201 26.8619 34.3717 26.8 34.3952 26.8C34.4186 26.8 34.4651 26.7341 34.4985 26.6536C34.5319 26.5731 34.5909 26.495 34.6296 26.4801C34.6682 26.4653 34.7 26.4284 34.7 26.3983C34.7 26.368 34.7562 26.2696 34.825 26.1795C34.8937 26.0893 34.95 25.9833 34.95 25.9439C34.95 25.9045 34.9956 25.8331 35.0514 25.7854C35.1071 25.7376 35.1659 25.6329 35.182 25.5525C35.1981 25.4721 35.2404 25.3953 35.2759 25.3816C35.3115 25.3679 35.3554 25.2896 35.3734 25.2075C35.3914 25.1254 35.4497 25.0079 35.5031 24.9465C35.5564 24.885 35.6 24.7849 35.6 24.7241C35.6 24.6633 35.6421 24.5599 35.6935 24.4943C35.7449 24.4286 35.8041 24.2966 35.825 24.2008C35.846 24.1049 35.894 23.9794 35.9316 23.9219C35.9694 23.8643 36.0249 23.684 36.0549 23.5211C36.085 23.3583 36.1304 23.2123 36.1555 23.1966C36.1807 23.181 36.2255 23.0348 36.2549 22.8716C36.2842 22.7085 36.3405 22.4593 36.38 22.3178C36.4195 22.1763 36.4965 21.6025 36.5511 21.0428L36.6504 20.025L36.5477 18.8796C36.4914 18.2498 36.4217 17.6906 36.3931 17.637C36.3645 17.5835 36.3204 17.3944 36.2952 17.2165C36.27 17.0388 36.2046 16.7949 36.1497 16.6744C36.0949 16.554 36.0499 16.4036 36.0499 16.3403C36.0497 16.2769 36.0047 16.1514 35.9499 16.0613C35.8949 15.9713 35.85 15.8591 35.85 15.812C35.85 15.765 35.7962 15.6136 35.7306 15.4758C35.665 15.3379 35.5375 15.0675 35.4475 14.875C35.3574 14.6825 35.2666 14.5135 35.2459 14.4995C35.225 14.4855 35.1929 14.414 35.1745 14.3406C35.1561 14.2674 35.098 14.1685 35.0455 14.1209C34.993 14.0734 34.9495 14.0099 34.9489 13.9798C34.9471 13.899 34.3999 13.0828 34.1931 12.8525C34.1481 12.8024 34.0919 12.7273 34.0681 12.6856C33.9014 12.393 32.8647 11.3449 32.3516 10.95C32.0976 10.7546 31.9475 10.6324 31.8447 10.5375C31.7926 10.4894 31.7352 10.45 31.7172 10.45C31.6992 10.45 31.6149 10.397 31.5297 10.3323C31.4446 10.2674 31.3244 10.1984 31.2625 10.1789C31.2006 10.1593 31.15 10.1248 31.15 10.1021C31.15 10.0795 31.0544 10.0128 30.9375 9.95388C30.8206 9.89501 30.635 9.79176 30.525 9.72463C30.415 9.65738 30.2825 9.58713 30.2306 9.56851C30.1786 9.55001 30.0436 9.48563 29.9306 9.42563C29.8175 9.36576 29.6604 9.30051 29.5815 9.28088C29.5025 9.26113 29.4061 9.21326 29.3674 9.17451C29.3285 9.13563 29.2131 9.08901 29.1109 9.07088C29.0086 9.05276 28.8575 8.99851 28.775 8.95038C28.6925 8.90226 28.5227 8.84976 28.3977 8.83376C28.2727 8.81788 28.1056 8.77101 28.0261 8.72988C27.9467 8.68863 27.7565 8.64088 27.6034 8.62363C27.4502 8.60638 27.2237 8.56138 27.1 8.52376C26.5741 8.36388 24.8497 8.30576 23.6 8.40601ZM26.8 8.55263C27.6244 8.70038 28.4894 8.91613 28.7055 9.02788C28.7822 9.06751 28.8855 9.10076 28.935 9.10163C28.9845 9.10238 29.1375 9.15851 29.275 9.22613C29.4125 9.29376 29.5616 9.34926 29.6064 9.34951C29.6511 9.34976 29.7147 9.38263 29.7479 9.42251C29.781 9.46226 29.8906 9.52138 29.9915 9.55376C30.0924 9.58613 30.2087 9.64013 30.25 9.67363C30.2912 9.70713 30.4287 9.78363 30.5556 9.84351C30.7675 9.94338 30.9041 10.0253 31.475 10.3943C31.6864 10.531 32.5809 11.2374 32.8111 11.4496C33.2069 11.8144 33.297 11.9066 33.547 12.2028C33.6965 12.38 33.8427 12.5475 33.872 12.575C33.9329 12.6324 34.3381 13.1639 34.4629 13.35C34.509 13.4188 34.6102 13.565 34.6877 13.675C34.7654 13.785 34.8589 13.9481 34.8955 14.0375C34.9321 14.1269 34.9797 14.2 35.0011 14.2C35.0226 14.2 35.0652 14.2716 35.0957 14.3593C35.1262 14.4469 35.1819 14.5538 35.2192 14.5968C35.2567 14.6398 35.3139 14.7576 35.3462 14.8585C35.3786 14.9594 35.4377 15.069 35.4775 15.1021C35.5174 15.1353 35.5507 15.1989 35.5516 15.2436C35.5524 15.2884 35.6085 15.4375 35.6761 15.575C35.7437 15.7125 35.7994 15.8588 35.7999 15.9C35.8002 15.9413 35.8371 16.0425 35.8817 16.125C35.9264 16.2075 35.9915 16.3988 36.0266 16.55C36.0617 16.7013 36.1144 16.8925 36.1435 16.975C36.6036 18.2741 36.605 21.5994 36.146 22.925C36.1174 23.0075 36.0532 23.2213 36.0034 23.4C35.8936 23.7938 35.8179 24.011 35.6982 24.275C35.6484 24.385 35.5917 24.5313 35.5722 24.6C35.5527 24.6688 35.4977 24.7813 35.45 24.85C35.4022 24.9188 35.3461 25.0313 35.3255 25.1C35.3047 25.1688 35.27 25.2475 35.2482 25.275C35.2265 25.3025 35.1311 25.4713 35.0364 25.65C34.8851 25.9353 34.7884 26.0933 34.5366 26.4663C33.9011 27.4078 32.6335 28.7269 31.9526 29.1553C31.8824 29.1995 31.7417 29.312 31.64 29.4053C31.5381 29.4986 31.3479 29.665 31.217 29.775C30.2499 30.5881 29.4157 31.4859 28.8 32.3761C28.7312 32.4755 28.6244 32.6205 28.5625 32.6981C28.5006 32.7759 28.45 32.8615 28.45 32.8886C28.45 32.9156 28.4127 32.9686 28.3672 33.0064C28.3217 33.0441 28.2527 33.1425 28.2139 33.225C28.175 33.3075 28.0895 33.465 28.0239 33.575C27.7404 34.0505 27.2147 35.1808 27.0974 35.5674C27.0654 35.6731 27.0079 35.8194 26.9699 35.8924C26.9317 35.9653 26.9005 36.0768 26.9002 36.14C26.9001 36.2033 26.8626 36.327 26.817 36.415C26.7712 36.503 26.7069 36.7213 26.6737 36.9C26.6406 37.0788 26.5776 37.3713 26.5337 37.55C26.4899 37.7288 26.4275 38.0775 26.395 38.325C26.3626 38.5725 26.3184 38.8875 26.2967 39.025C26.275 39.1625 26.2551 39.5788 26.2525 39.95C26.2476 40.6188 26.2001 40.9865 26.1111 41.0449C26.0857 41.0614 26.0405 41.1216 26.0105 41.1786C25.8064 41.5666 25.057 41.707 24.6596 41.4316C24.286 41.1728 24.2356 41.0543 24.1672 40.2751C24.0751 39.2246 23.9539 38.2406 23.8994 38.1C23.8726 38.0313 23.8175 37.798 23.7767 37.5817C23.736 37.3654 23.6805 37.1618 23.6535 37.1293C23.6265 37.0966 23.589 36.9699 23.5701 36.8475C23.5514 36.7251 23.4971 36.5463 23.4497 36.45C23.4024 36.3538 23.3479 36.189 23.3287 36.0839C23.3097 35.9788 23.2505 35.8213 23.1972 35.7339C23.144 35.6465 23.1002 35.5435 23.1001 35.505C23.1 35.4394 22.8962 34.9666 22.7965 34.8C22.7717 34.7588 22.7205 34.6566 22.6827 34.573C22.6449 34.4895 22.5207 34.2678 22.407 34.0805C22.2931 33.8931 22.2 33.7231 22.2 33.7026C22.2 33.6823 22.155 33.6248 22.1 33.575C22.045 33.5253 22 33.4578 22 33.425C22 33.3923 21.955 33.3248 21.9 33.275C21.845 33.2253 21.8 33.1599 21.8 33.1298C21.7999 33.0996 21.7492 33.0139 21.6875 32.9391C21.6256 32.8644 21.5187 32.7101 21.45 32.5963C21.3812 32.4825 21.28 32.3365 21.225 32.272C21.17 32.2074 21.0687 32.0826 21 31.9946C20.4756 31.3234 19.5666 30.3693 19.1532 30.0559C19.0582 29.9839 18.9119 29.8623 18.8277 29.7856C18.7437 29.7089 18.5226 29.5289 18.3364 29.3856C17.4927 28.7365 17.3542 28.6215 17.025 28.296C16.3445 27.6236 15.7015 26.8831 15.546 26.5926C15.5132 26.5314 15.466 26.4574 15.4411 26.4281C15.3449 26.3154 15.0424 25.8146 14.941 25.6C14.8825 25.4763 14.807 25.3413 14.7732 25.3C14.7395 25.2588 14.6949 25.1688 14.674 25.1C14.6532 25.0313 14.5944 24.9214 14.5431 24.8558C14.4919 24.7901 14.4492 24.7001 14.4484 24.6558C14.4476 24.6114 14.3915 24.4625 14.3239 24.325C14.2562 24.1875 14.2007 24.0406 14.2005 23.9986C14.2002 23.9566 14.1696 23.8779 14.1325 23.8236C14.0954 23.7694 14.0497 23.6575 14.0311 23.575C14.0125 23.4925 13.9537 23.2788 13.9004 23.1C13.4975 21.7491 13.3589 19.003 13.6379 17.9C13.697 17.6663 13.7591 17.385 13.7759 17.275C13.7926 17.165 13.8369 16.985 13.8742 16.875C13.9115 16.765 13.9779 16.5468 14.0216 16.39C14.0655 16.2334 14.1235 16.0914 14.1506 16.0746C14.1777 16.0579 14.2 15.9951 14.2 15.9353C14.2 15.8754 14.2562 15.708 14.325 15.5633C14.3937 15.4185 14.5082 15.1706 14.5794 15.0125C14.6506 14.8544 14.7301 14.6913 14.7561 14.65C14.7821 14.6088 14.8397 14.4906 14.8842 14.3875C14.9287 14.2844 14.9815 14.2 15.0015 14.2C15.0215 14.2 15.0666 14.1269 15.1016 14.0375C15.1367 13.9481 15.1906 13.8525 15.2214 13.825C15.2521 13.7975 15.3547 13.6513 15.4494 13.5C16.2704 12.1875 18.1311 10.4848 19.4624 9.82776C19.6067 9.75651 19.7587 9.67763 19.8 9.65251C19.9519 9.56001 20.5347 9.30001 20.5902 9.30001C20.6217 9.30001 20.7212 9.25513 20.8112 9.20013C20.9014 9.14526 21.0319 9.10026 21.1014 9.10013C21.1709 9.10013 21.2739 9.06776 21.3302 9.02826C21.4621 8.93588 22.0546 8.78013 22.875 8.62238C23.2325 8.55363 23.5475 8.48851 23.575 8.47763C23.7731 8.39951 26.269 8.45751 26.8 8.55263ZM23.875 10.5785C23.6825 10.6159 23.3675 10.6679 23.175 10.6939C22.8474 10.7383 22.657 10.7889 22.1 10.9796C21.9762 11.0221 21.7901 11.078 21.6864 11.1039C21.5826 11.1298 21.4142 11.1958 21.3121 11.2505C21.21 11.3053 21.0902 11.35 21.046 11.35C21.0017 11.35 20.9247 11.395 20.875 11.45C20.8252 11.505 20.7474 11.55 20.702 11.55C20.6566 11.55 20.5431 11.6063 20.45 11.675C20.3569 11.7438 20.264 11.8 20.2439 11.8C20.1775 11.8 19.3279 12.3811 19.0232 12.6349C18.1772 13.3395 17.5269 14.1048 16.8221 15.225C16.4482 15.8194 15.8957 17.2059 15.8014 17.7863C15.778 17.93 15.7186 18.2 15.6692 18.3863C15.5255 18.9294 15.539 21.009 15.6901 21.6165C15.7505 21.8593 15.8 22.1105 15.8 22.1748C15.8 22.2391 15.8416 22.3893 15.8925 22.5084C15.9432 22.6275 16.0014 22.8139 16.0216 22.9225C16.0417 23.031 16.0901 23.1654 16.1291 23.2211C16.1681 23.2768 16.2 23.3589 16.2 23.4036C16.2 23.4485 16.2562 23.5909 16.325 23.7203C16.3937 23.8495 16.45 23.9849 16.45 24.0209C16.45 24.057 16.4936 24.142 16.5469 24.2098C16.6002 24.2775 16.6589 24.393 16.6774 24.4665C16.6957 24.5399 16.7284 24.6 16.7497 24.6C16.7711 24.6 16.8269 24.6806 16.8736 24.7791C17.0684 25.1896 17.6725 25.9684 18.2401 26.5408C18.8126 27.118 19.6265 27.8 19.7429 27.8C19.7716 27.8 19.813 27.8314 19.835 27.8696C19.857 27.9079 19.9537 27.9763 20.05 28.0214C20.1462 28.0665 20.315 28.1584 20.425 28.2255C20.6687 28.3741 21.1062 28.5846 21.3706 28.6804C21.4782 28.7194 21.5907 28.7703 21.6206 28.7935C21.6505 28.8166 21.7872 28.863 21.9244 28.8965C22.0615 28.93 22.1999 28.9791 22.2319 29.0056C22.2639 29.0323 22.4285 29.0763 22.5977 29.1035C22.7671 29.1308 23 29.1845 23.1152 29.223C23.3959 29.3166 24.6347 29.4194 25.0782 29.3859C25.5727 29.3484 25.597 29.3769 25.3664 29.7241C25.2611 29.8828 25.1525 30.0495 25.125 30.0946C25.035 30.2423 24.7759 30.5746 24.7375 30.5916C24.7169 30.6009 24.7 30.6316 24.7 30.6601C24.7 30.7351 24.4476 31.1355 24.2909 31.3093L24.1566 31.4579L23.779 31.4006C23.2784 31.3248 23.1642 31.4524 23.4441 31.775C23.4919 31.83 23.5587 31.9313 23.5929 32C23.627 32.0688 23.7044 32.2073 23.7649 32.3079C24.0911 32.8498 24.2955 33.2466 24.7432 34.208C25.0212 34.8051 24.9915 34.8173 25.3714 33.95C25.4135 33.8538 25.4679 33.7413 25.4924 33.7C25.5167 33.6588 25.6127 33.4733 25.7059 33.2879C25.7989 33.1025 25.9349 32.8438 26.008 32.7129C26.0811 32.582 26.1787 32.4029 26.225 32.3148C26.2714 32.2268 26.3409 32.1283 26.3796 32.0961C26.4184 32.064 26.45 32.0186 26.45 31.9954C26.45 31.9571 26.935 31.2105 26.9991 31.15C27.0136 31.1363 27.0921 31.035 27.1735 30.925C27.9222 29.9129 29.1046 28.7153 30.125 27.9358C31.2934 27.043 31.5561 26.8116 32.1529 26.15C32.3537 25.9273 32.8147 25.3093 32.9212 25.1199C33.0954 24.8104 33.2129 24.624 33.2489 24.6C33.2696 24.5863 33.3037 24.5188 33.3249 24.45C33.3459 24.3813 33.4051 24.2653 33.4565 24.1923C33.508 24.1193 33.55 24.0428 33.55 24.0223C33.55 24.0018 33.6034 23.8703 33.6687 23.73C33.8036 23.4405 33.8721 23.2534 34 22.825C34.0492 22.66 34.1125 22.4575 34.1405 22.375C34.1887 22.2333 34.3056 21.66 34.4107 21.05C34.6245 19.8103 34.2654 17.4623 33.6719 16.22C33.6049 16.0798 33.55 15.9293 33.55 15.8855C33.55 15.8418 33.5251 15.7905 33.4947 15.7718C33.4644 15.753 33.4021 15.6561 33.3565 15.5564C33.2691 15.3659 33.2246 15.292 32.8557 14.725C32.1982 13.7144 30.9332 12.4668 30.0714 11.9789C29.9909 11.9334 29.835 11.8418 29.725 11.7755C29.615 11.7091 29.4687 11.6289 29.4 11.5971C29.3312 11.5653 29.2412 11.5188 29.2 11.4936C29.1587 11.4685 29.0462 11.413 28.95 11.3703C28.8537 11.3274 28.6835 11.2491 28.5717 11.1963C28.4599 11.1433 28.3361 11.0999 28.2967 11.0998C28.2572 11.0995 28.1594 11.0651 28.0791 11.0234C27.9989 10.9815 27.7964 10.9169 27.6291 10.8796C27.4619 10.8424 27.2575 10.7886 27.175 10.76C26.5555 10.5458 24.5975 10.438 23.875 10.5785ZM26.0915 10.6785C26.5639 10.7245 27.0254 10.7985 27.1867 10.854C27.3401 10.9069 27.524 10.9501 27.5954 10.9503C27.6666 10.9505 27.7847 10.9818 27.8576 11.0199C27.9306 11.0579 28.0769 11.1163 28.1826 11.1495C28.3872 11.2138 28.6676 11.333 29.0757 11.5294C29.2136 11.5958 29.3519 11.65 29.3829 11.65C29.4139 11.65 29.4515 11.6816 29.4662 11.7203C29.4811 11.759 29.5622 11.8058 29.6466 11.8243C29.731 11.8428 29.8 11.877 29.8 11.9004C29.8 11.9236 29.89 11.9825 30 12.031C30.11 12.0795 30.2 12.1336 30.2 12.1513C30.2 12.1688 30.3144 12.2573 30.4542 12.3479C30.5941 12.4385 30.7617 12.5605 30.8269 12.6189C30.892 12.6773 31.0605 12.8263 31.2011 12.95C31.7774 13.4568 32.6 14.3619 32.6 14.4893C32.6 14.5169 32.6559 14.5925 32.7241 14.6573C32.7924 14.722 32.8486 14.8116 32.8491 14.8564C32.8496 14.9011 32.8872 14.9686 32.9327 15.0064C32.9782 15.0441 33.046 15.1481 33.0834 15.2375C33.1207 15.3269 33.17 15.4 33.1927 15.4C33.2155 15.4 33.2611 15.49 33.2941 15.6C33.327 15.71 33.3747 15.8 33.4 15.8C33.4252 15.8 33.4732 15.8956 33.5066 16.0125C33.54 16.1294 33.5932 16.2588 33.625 16.3C33.6567 16.3413 33.7116 16.476 33.747 16.5996C33.7824 16.7231 33.8425 16.8688 33.8806 16.9233C33.9187 16.9776 33.95 17.0839 33.95 17.1593C33.95 17.2346 33.995 17.4165 34.05 17.5636C34.105 17.7106 34.1714 17.9993 34.1975 18.205C34.2235 18.4108 34.2711 18.6908 34.3031 18.8271C34.3782 19.1464 34.3807 20.9249 34.3064 21.1134C34.2764 21.1894 34.2266 21.4594 34.1957 21.7134C34.1649 21.9673 34.1089 22.2345 34.0712 22.3073C34.0336 22.38 33.9874 22.5375 33.9685 22.6573C33.9496 22.777 33.8941 22.9538 33.8452 23.05C33.7964 23.1463 33.7412 23.3094 33.7226 23.4125C33.7041 23.5156 33.6706 23.6 33.6485 23.6C33.6262 23.6 33.5712 23.7108 33.5262 23.8461C33.4812 23.9815 33.412 24.1193 33.3722 24.1523C33.3325 24.1853 33.3 24.2501 33.3 24.2964C33.3 24.3428 33.2437 24.4569 33.175 24.55C33.1062 24.6431 33.05 24.7399 33.05 24.765C33.05 24.79 32.9937 24.8774 32.925 24.9591C32.8562 25.0409 32.8 25.1398 32.8 25.1789C32.8 25.218 32.7812 25.25 32.7584 25.25C32.7355 25.25 32.6405 25.3679 32.5471 25.512C32.177 26.083 31.351 26.9264 30.6594 27.4393C30.5957 27.4864 30.5001 27.5644 30.4469 27.6125C30.3936 27.6606 30.3385 27.7 30.3246 27.7C30.1611 27.7 28.459 29.2703 27.75 30.0749C27.5334 30.3208 27.05 30.9429 27.05 30.9758C27.05 30.9891 27.0149 31.0394 26.9719 31.0875C26.7885 31.2928 26.6 31.5688 26.6 31.6319C26.6 31.6694 26.578 31.7 26.551 31.7C26.5241 31.7 26.4555 31.7844 26.3986 31.8875C26.1989 32.2494 26.1242 32.3674 26.0375 32.4583C25.9894 32.5088 25.95 32.5923 25.95 32.6439C25.95 32.6955 25.9186 32.7638 25.8804 32.7955C25.8421 32.8274 25.7821 32.9258 25.7471 33.0141C25.7121 33.1026 25.6564 33.2088 25.6231 33.25C25.5899 33.2913 25.5355 33.4094 25.5025 33.5125C25.4694 33.6156 25.4224 33.7 25.398 33.7C25.3737 33.7 25.3284 33.7956 25.2972 33.9125C25.2661 34.0294 25.2092 34.1603 25.171 34.2033C25.1326 34.2464 25.0869 34.3533 25.0694 34.4408C25.0369 34.6031 24.95 34.6628 24.95 34.5228C24.95 34.4803 24.8937 34.3398 24.825 34.2106C24.7562 34.0815 24.7 33.939 24.7 33.894C24.7 33.849 24.6677 33.7854 24.6282 33.7526C24.5887 33.7199 24.5421 33.6283 24.5247 33.5489C24.5074 33.4696 24.4527 33.353 24.4034 33.2899C24.3541 33.2266 24.2967 33.1188 24.276 33.05C24.2551 32.9813 24.2094 32.8913 24.1741 32.85C24.1387 32.8088 24.0751 32.6906 24.0325 32.5875C23.99 32.4844 23.9315 32.4 23.9025 32.4C23.8736 32.4 23.85 32.3578 23.85 32.3061C23.85 32.2545 23.8127 32.1814 23.7672 32.1436C23.7217 32.1059 23.6527 32.0075 23.6137 31.925C23.5749 31.8425 23.5089 31.7114 23.467 31.6338C23.3674 31.4486 23.4006 31.4258 23.6702 31.4936C24.0552 31.5905 24.45 31.4735 24.45 31.2624C24.45 31.239 24.5456 31.0775 24.6625 30.9035C24.7794 30.7295 24.8995 30.5453 24.9295 30.494C24.9594 30.4426 25.0212 30.3594 25.067 30.3089C25.1126 30.2584 25.15 30.2008 25.15 30.1806C25.15 30.1464 25.4394 29.7548 25.505 29.7C25.8661 29.3991 25.6695 29.3155 24.5366 29.2879C23.7851 29.2696 23.48 29.2436 23.35 29.1871C23.2537 29.1453 23.0287 29.0946 22.85 29.0746C22.6712 29.0546 22.4415 28.9959 22.3395 28.9441C22.2375 28.8924 22.1025 28.8493 22.0395 28.8484C21.9765 28.8476 21.8125 28.7915 21.675 28.7239C21.5375 28.6563 21.3884 28.6008 21.3436 28.6005C21.2989 28.6003 21.2365 28.569 21.2051 28.5313C21.1737 28.4934 21.0487 28.4346 20.9272 28.4006C20.8057 28.3666 20.6952 28.3098 20.6816 28.2741C20.6679 28.2385 20.5901 28.1948 20.5086 28.1769C20.427 28.159 20.3207 28.1006 20.2724 28.0471C20.2241 27.9938 20.163 27.95 20.1367 27.95C20.065 27.95 19.6 27.6395 19.6 27.5916C19.6 27.5688 19.5777 27.55 19.5504 27.55C19.5231 27.55 19.4019 27.4745 19.281 27.3821C18.9664 27.142 18.92 27.1019 18.6512 26.8375C18.5185 26.7069 18.3851 26.6 18.355 26.6C18.3247 26.6 18.3 26.5769 18.3 26.5486C18.3 26.5205 18.2044 26.4 18.0875 26.281C17.8689 26.0584 17.7549 25.9215 17.4996 25.575C17.4186 25.465 17.318 25.3394 17.2761 25.2958C17.2342 25.2523 17.2 25.1934 17.2 25.165C17.2 25.1368 17.1501 25.0501 17.0891 24.9726C16.9751 24.8275 16.8507 24.619 16.748 24.4C16.7157 24.3313 16.669 24.2413 16.6442 24.2C16.6195 24.1588 16.575 24.0688 16.5454 24C16.5157 23.9313 16.4501 23.785 16.3995 23.675C16.349 23.565 16.2915 23.4188 16.2717 23.35C16.2521 23.2813 16.1941 23.1466 16.143 23.0508C16.0919 22.9549 16.05 22.8131 16.05 22.7358C16.05 22.6584 16.0156 22.5286 15.9736 22.4474C15.9317 22.3663 15.8637 22.0751 15.8227 21.8006C15.7816 21.526 15.726 21.2434 15.699 21.1724C15.6334 20.9996 15.6349 18.8216 15.7009 18.6984C15.7287 18.6463 15.7766 18.417 15.807 18.1893C15.8374 17.9614 15.9045 17.6673 15.9561 17.5356C16.0077 17.404 16.0501 17.2465 16.0502 17.1856C16.0505 17.1248 16.0817 17.0153 16.1199 16.9424C16.1579 16.8694 16.2162 16.7231 16.2496 16.6174C16.2829 16.5115 16.3641 16.3138 16.4301 16.1776C16.496 16.0416 16.55 15.901 16.55 15.8651C16.55 15.8294 16.5716 15.8 16.598 15.8C16.6244 15.8 16.6736 15.7076 16.7075 15.5948C16.7412 15.4819 16.7984 15.3783 16.8345 15.3645C16.8705 15.3506 16.9 15.3124 16.9 15.2796C16.9 15.2181 17.1821 14.778 17.4477 14.425C17.5305 14.315 17.6127 14.1958 17.6304 14.16C17.7266 13.9656 18.8302 12.8684 19.225 12.5745C19.335 12.4926 19.4362 12.4118 19.45 12.3948C19.4637 12.3779 19.5481 12.3265 19.6375 12.2808C19.7269 12.2349 19.8 12.177 19.8 12.1521C19.8 12.1271 19.8506 12.0914 19.9125 12.0726C19.9744 12.0539 20.07 11.9978 20.125 11.948C20.18 11.8981 20.2887 11.8416 20.3665 11.8223C20.4444 11.803 20.5199 11.7563 20.5344 11.7186C20.5489 11.6809 20.5861 11.65 20.6171 11.65C20.6481 11.65 20.7864 11.5958 20.9242 11.5294C21.3966 11.3021 21.6251 11.2059 21.775 11.1709C21.8575 11.1516 22.0085 11.094 22.1105 11.0429C22.2125 10.9918 22.3537 10.95 22.4242 10.95C22.4947 10.95 22.6769 10.9063 22.8287 10.8529C23.0044 10.7913 23.428 10.7266 23.99 10.676C24.4767 10.6321 24.9087 10.5908 24.95 10.5843C24.9912 10.5776 25.0812 10.5783 25.15 10.5856C25.2187 10.5929 25.6424 10.6348 26.0915 10.6785Z" fill="#F1A2B2"/>
<path fill-rule="evenodd" clip-rule="evenodd" d="M23.575 8.47763C23.5475 8.4885 23.2325 8.55363 22.875 8.62238C22.0546 8.78013 21.4621 8.93588 21.3302 9.02825C21.2739 9.06775 21.1709 9.10013 21.1014 9.10013C21.0319 9.10025 20.9014 9.14525 20.8112 9.20013C20.7212 9.25513 20.6217 9.3 20.5902 9.3C20.5347 9.3 19.9519 9.56 19.8 9.6525C19.7587 9.67763 19.6067 9.7565 19.4624 9.82775C18.1311 10.4848 16.2704 12.1875 15.4494 13.5C15.3547 13.6513 15.2521 13.7975 15.2214 13.825C15.1906 13.8525 15.1367 13.9481 15.1016 14.0375C15.0666 14.1269 15.0215 14.2 15.0015 14.2C14.9815 14.2 14.9287 14.2844 14.8842 14.3875C14.8397 14.4906 14.7821 14.6088 14.7561 14.65C14.7301 14.6913 14.6506 14.8544 14.5794 15.0125C14.5082 15.1706 14.3937 15.4185 14.325 15.5633C14.2562 15.708 14.2 15.8754 14.2 15.9353C14.2 15.9951 14.1777 16.0579 14.1506 16.0746C14.1235 16.0914 14.0655 16.2334 14.0216 16.39C13.9779 16.5468 13.9115 16.765 13.8742 16.875C13.8369 16.985 13.7926 17.165 13.7759 17.275C13.7591 17.385 13.697 17.6663 13.6379 17.9C13.3589 19.003 13.4975 21.7491 13.9004 23.1C13.9537 23.2788 14.0125 23.4925 14.0311 23.575C14.0497 23.6575 14.0954 23.7694 14.1325 23.8236C14.1696 23.8779 14.2002 23.9566 14.2005 23.9986C14.2007 24.0406 14.2562 24.1875 14.3239 24.325C14.3915 24.4625 14.4476 24.6114 14.4484 24.6558C14.4492 24.7001 14.4919 24.7901 14.5431 24.8558C14.5944 24.9214 14.6532 25.0313 14.674 25.1C14.6949 25.1688 14.7395 25.2588 14.7732 25.3C14.807 25.3413 14.8825 25.4763 14.941 25.6C15.0424 25.8146 15.3449 26.3154 15.4411 26.4281C15.466 26.4574 15.5132 26.5314 15.546 26.5926C15.7015 26.8831 16.3445 27.6236 17.025 28.296C17.3542 28.6215 17.4927 28.7365 18.3364 29.3856C18.5226 29.5289 18.7437 29.7089 18.8277 29.7856C18.9119 29.8623 19.0582 29.9839 19.1532 30.0559C19.5666 30.3693 20.4756 31.3234 21 31.9946C21.0687 32.0826 21.17 32.2074 21.225 32.272C21.28 32.3365 21.3812 32.4825 21.45 32.5963C21.5187 32.7101 21.6256 32.8644 21.6875 32.9391C21.7492 33.0139 21.7999 33.0996 21.8 33.1298C21.8 33.1599 21.845 33.2253 21.9 33.275C21.955 33.3248 22 33.3923 22 33.425C22 33.4578 22.045 33.5253 22.1 33.575C22.155 33.6248 22.2 33.6823 22.2 33.7026C22.2 33.7231 22.2931 33.8931 22.407 34.0805C22.5207 34.2678 22.6449 34.4895 22.6827 34.573C22.7205 34.6566 22.7717 34.7588 22.7965 34.8C22.8962 34.9666 23.1 35.4394 23.1001 35.505C23.1002 35.5435 23.144 35.6465 23.1972 35.7339C23.2505 35.8213 23.3097 35.9788 23.3287 36.0839C23.3479 36.189 23.4024 36.3538 23.4497 36.45C23.4971 36.5463 23.5514 36.7251 23.5701 36.8475C23.589 36.9699 23.6265 37.0966 23.6535 37.1293C23.6805 37.1618 23.736 37.3654 23.7767 37.5816C23.8175 37.798 23.8726 38.0313 23.8994 38.1C23.9539 38.2406 24.0751 39.2246 24.1672 40.2751C24.2356 41.0543 24.286 41.1728 24.6596 41.4316C25.057 41.707 25.8064 41.5666 26.0105 41.1786C26.0405 41.1216 26.0857 41.0614 26.1111 41.0449C26.2001 40.9865 26.2476 40.6188 26.2525 39.95C26.2551 39.5788 26.275 39.1625 26.2967 39.025C26.3184 38.8875 26.3626 38.5725 26.395 38.325C26.4275 38.0775 26.4899 37.7288 26.5337 37.55C26.5776 37.3713 26.6406 37.0788 26.6737 36.9C26.7069 36.7213 26.7712 36.503 26.817 36.415C26.8626 36.327 26.9001 36.2033 26.9002 36.14C26.9005 36.0768 26.9317 35.9653 26.9699 35.8924C27.0079 35.8194 27.0654 35.6731 27.0974 35.5674C27.2147 35.1808 27.7404 34.0505 28.0239 33.575C28.0895 33.465 28.175 33.3075 28.2139 33.225C28.2527 33.1425 28.3217 33.0441 28.3672 33.0064C28.4127 32.9686 28.45 32.9156 28.45 32.8886C28.45 32.8615 28.5006 32.7759 28.5625 32.6981C28.6244 32.6205 28.7312 32.4755 28.8 32.3761C29.4157 31.4859 30.2499 30.5881 31.217 29.775C31.3479 29.665 31.5381 29.4986 31.64 29.4053C31.7417 29.312 31.8824 29.1995 31.9526 29.1553C32.6335 28.7269 33.9011 27.4078 34.5366 26.4663C34.7884 26.0933 34.8851 25.9353 35.0364 25.65C35.1311 25.4713 35.2265 25.3025 35.2482 25.275C35.27 25.2475 35.3047 25.1688 35.3255 25.1C35.3461 25.0313 35.4022 24.9188 35.45 24.85C35.4977 24.7813 35.5527 24.6688 35.5722 24.6C35.5917 24.5313 35.6484 24.385 35.6982 24.275C35.8179 24.011 35.8936 23.7938 36.0034 23.4C36.0532 23.2213 36.1174 23.0075 36.146 22.925C36.605 21.5994 36.6036 18.2741 36.1435 16.975C36.1144 16.8925 36.0617 16.7013 36.0266 16.55C35.9915 16.3988 35.9264 16.2075 35.8817 16.125C35.8371 16.0425 35.8002 15.9413 35.7999 15.9C35.7994 15.8588 35.7437 15.7125 35.6761 15.575C35.6085 15.4375 35.5524 15.2884 35.5516 15.2436C35.5507 15.1989 35.5174 15.1353 35.4775 15.1021C35.4377 15.069 35.3786 14.9594 35.3462 14.8585C35.3139 14.7576 35.2567 14.6398 35.2192 14.5968C35.1819 14.5538 35.1262 14.4469 35.0957 14.3593C35.0652 14.2716 35.0226 14.2 35.0011 14.2C34.9797 14.2 34.9321 14.1269 34.8955 14.0375C34.8589 13.9481 34.7654 13.785 34.6877 13.675C34.6102 13.565 34.509 13.4188 34.4629 13.35C34.3381 13.1639 33.9329 12.6324 33.872 12.575C33.8427 12.5475 33.6965 12.38 33.547 12.2028C33.297 11.9066 33.2069 11.8144 32.8111 11.4496C32.5809 11.2374 31.6864 10.531 31.475 10.3943C30.9041 10.0253 30.7675 9.94338 30.5556 9.8435C30.4287 9.78363 30.2912 9.70713 30.25 9.67363C30.2087 9.64013 30.0924 9.58613 29.9915 9.55375C29.8906 9.52138 29.781 9.46225 29.7479 9.4225C29.7147 9.38263 29.6511 9.34975 29.6064 9.3495C29.5616 9.34925 29.4125 9.29375 29.275 9.22613C29.1375 9.1585 28.9845 9.10238 28.935 9.10163C28.8855 9.10075 28.7822 9.0675 28.7055 9.02788C28.4894 8.91613 27.6244 8.70038 26.8 8.55263C26.269 8.4575 23.7731 8.3995 23.575 8.47763ZM26.5 8.59663C26.5687 8.636 26.8387 8.6835 27.1 8.702C27.4411 8.72625 27.6311 8.766 27.7742 8.84288C27.884 8.90188 28.0644 8.95 28.1756 8.95C28.2867 8.95 28.4264 8.98413 28.4859 9.02575C28.5454 9.06738 28.711 9.12363 28.854 9.15075C28.997 9.17788 29.139 9.23125 29.1695 9.2695C29.2 9.30763 29.3065 9.35313 29.4061 9.3705C29.5056 9.38788 29.6357 9.44425 29.6951 9.49575C29.7545 9.54725 29.879 9.60375 29.9717 9.62113C30.0645 9.6385 30.153 9.68588 30.1686 9.72638C30.1841 9.76688 30.2409 9.8 30.2946 9.8C30.3484 9.8 30.4591 9.85625 30.5409 9.925C30.6226 9.99375 30.7222 10.05 30.7624 10.05C30.8025 10.05 30.8961 10.1063 30.9702 10.175C31.0445 10.2438 31.149 10.3 31.2026 10.3C31.2561 10.3 31.3 10.3219 31.3 10.3488C31.3 10.3755 31.3687 10.433 31.4526 10.4764C31.5366 10.5198 31.6491 10.5991 31.7026 10.6526C31.7562 10.7063 31.8215 10.75 31.8477 10.75C31.874 10.75 31.9487 10.8006 32.014 10.8625C32.0791 10.9244 32.2876 11.11 32.4774 11.275C33.0221 11.7486 33.95 12.7083 33.95 12.7978C33.95 12.8166 34.0062 12.8809 34.075 12.9406C34.1437 13.0004 34.2 13.0833 34.2 13.1246C34.2 13.1661 34.2219 13.2 34.2487 13.2C34.2755 13.2 34.3349 13.2731 34.3807 13.3625C34.4265 13.4519 34.4876 13.5403 34.5165 13.5589C34.5687 13.5925 34.6745 13.7746 34.8246 14.0896C34.8679 14.1803 34.9362 14.267 34.9766 14.2825C35.017 14.298 35.05 14.3634 35.05 14.4278C35.05 14.4921 35.1062 14.6055 35.175 14.6798C35.2437 14.7539 35.3 14.8668 35.3 14.9304C35.3 14.994 35.3417 15.0864 35.3927 15.1355C35.4439 15.1848 35.5004 15.3023 35.5184 15.3968C35.5364 15.4911 35.5846 15.6054 35.6255 15.6505C35.6664 15.6956 35.7196 15.8386 35.7437 15.9681C35.768 16.0976 35.8242 16.244 35.8689 16.2933C35.915 16.3441 35.95 16.4684 35.95 16.5809C35.95 16.6898 35.9957 16.868 36.0515 16.9769C36.1107 17.0924 36.1706 17.347 36.1952 17.5874C36.2185 17.8141 36.2685 18.037 36.3062 18.0825C36.4089 18.2061 36.4074 21.6456 36.3046 21.7694C36.2647 21.8175 36.2177 22.0424 36.196 22.2895C36.1712 22.5709 36.1209 22.7951 36.0539 22.9231C35.9967 23.032 35.95 23.2073 35.95 23.3126C35.95 23.4203 35.9082 23.5634 35.8546 23.6395C35.8022 23.714 35.7444 23.8626 35.726 23.9696C35.7077 24.0768 35.6606 24.1965 35.6214 24.2358C35.5821 24.275 35.55 24.3586 35.55 24.4216C35.55 24.4845 35.4937 24.6189 35.425 24.7203C35.3562 24.8215 35.3 24.9486 35.3 25.0028C35.3 25.0568 35.255 25.1395 35.2 25.1866C35.145 25.2338 35.1 25.3105 35.1 25.3573C35.1 25.404 35.0437 25.5091 34.975 25.5909C34.9062 25.6726 34.85 25.786 34.85 25.843C34.85 25.8999 34.8052 25.9704 34.7506 25.9996C34.6959 26.029 34.6376 26.1069 34.6211 26.1728C34.6045 26.2388 34.548 26.3315 34.4955 26.3791C34.443 26.4266 34.4 26.4878 34.4 26.5149C34.4 26.542 34.2987 26.6828 34.175 26.8276C34.0512 26.9724 33.95 27.1114 33.95 27.1365C33.95 27.1615 33.8994 27.2303 33.8375 27.2893C33.6554 27.463 33.55 27.5814 33.55 27.6121C33.55 27.6515 32.9806 28.2125 32.71 28.4396C32.5886 28.5415 32.4425 28.6756 32.3856 28.7375C32.3286 28.7994 32.2531 28.85 32.2177 28.85C32.1824 28.85 32.1302 28.8935 32.1017 28.9466C32.0734 28.9998 32.0051 29.0575 31.9501 29.075C31.8951 29.0924 31.7489 29.2008 31.625 29.3159C31.5012 29.4309 31.3492 29.5649 31.2875 29.6135C30.9122 29.9088 30.7232 30.0793 30.2494 30.55C29.9586 30.8388 29.5142 31.3338 29.2617 31.65C29.0092 31.9663 28.7712 32.2588 28.7327 32.3C28.6941 32.3413 28.647 32.4256 28.628 32.4875C28.6089 32.5494 28.5711 32.6 28.5441 32.6C28.517 32.6 28.462 32.6788 28.4217 32.775C28.3815 32.8713 28.3279 32.95 28.3026 32.95C28.2772 32.95 28.228 33.0288 28.1932 33.125C28.1584 33.2213 28.1111 33.3 28.0881 33.3C28.0652 33.3 28.0041 33.3988 27.9524 33.5195C27.9006 33.6403 27.8356 33.753 27.808 33.7701C27.7804 33.7871 27.7434 33.8665 27.7257 33.9464C27.7082 34.0263 27.6615 34.1041 27.622 34.1193C27.5824 34.1345 27.55 34.185 27.55 34.2315C27.55 34.2781 27.4965 34.4083 27.431 34.5206C27.3656 34.633 27.2967 34.7966 27.2779 34.884C27.259 34.9715 27.213 35.0685 27.1757 35.0994C27.1384 35.1304 27.0924 35.2501 27.0735 35.3654C27.0546 35.4806 27.008 35.6104 26.97 35.6535C26.932 35.6966 26.8787 35.8484 26.8517 35.9906C26.8247 36.133 26.771 36.3001 26.7322 36.3623C26.6935 36.4243 26.6471 36.6095 26.6291 36.774C26.6111 36.9385 26.5602 37.1283 26.5161 37.1956C26.4647 37.2739 26.4235 37.4913 26.402 37.7966C26.3835 38.0598 26.336 38.3313 26.2966 38.4C26.2426 38.4944 26.2189 38.8028 26.2 39.6574C26.1779 40.6578 26.1645 40.8014 26.0846 40.8895C26.0349 40.9444 25.977 41.0535 25.956 41.1321C25.9337 41.2154 25.8776 41.2823 25.8214 41.2925C25.7684 41.3021 25.6766 41.3546 25.6175 41.409C25.462 41.5523 24.9326 41.5481 24.7777 41.4026C24.7177 41.3461 24.6469 41.3 24.6204 41.3C24.3802 41.3 24.2849 40.9955 24.249 40.1135C24.2262 39.5525 24.1925 39.2263 24.1524 39.1779C24.118 39.1365 24.075 38.8653 24.055 38.5644C24.0314 38.2084 23.9921 37.9825 23.9394 37.9C23.8954 37.8313 23.8434 37.6305 23.8239 37.454C23.8042 37.2775 23.746 37.0638 23.6942 36.979C23.6426 36.8943 23.6002 36.7489 23.6001 36.6559C23.6001 36.5629 23.5574 36.4166 23.5052 36.3309C23.4532 36.2451 23.3951 36.0806 23.3764 35.9654C23.3576 35.8501 23.3107 35.7298 23.2724 35.6979C23.234 35.666 23.1887 35.5579 23.1716 35.4575C23.1546 35.3571 23.0977 35.214 23.0454 35.1395C22.9929 35.065 22.95 34.9611 22.95 34.9088C22.95 34.8564 22.9064 34.758 22.8531 34.6903C22.7997 34.6225 22.7406 34.5053 22.7216 34.4295C22.7026 34.3539 22.6584 34.2809 22.6231 34.2674C22.588 34.2539 22.5297 34.1713 22.4939 34.0839C22.4196 33.903 22.2535 33.6464 22.1322 33.525C22.087 33.4799 22.05 33.4034 22.05 33.3551C22.05 33.3069 21.9937 33.2146 21.925 33.15C21.8562 33.0854 21.8 33.0035 21.8 32.968C21.8 32.9325 21.755 32.8794 21.7 32.85C21.645 32.8206 21.6 32.7611 21.6 32.718C21.6 32.6748 21.544 32.5688 21.4755 32.4823C21.4069 32.3958 21.3112 32.2713 21.263 32.2055C21.2146 32.1398 21.1244 32.0359 21.0625 31.9748C21.0006 31.9136 20.95 31.8454 20.95 31.8231C20.95 31.6691 19.4464 30.1678 18.7015 29.5779C18.4256 29.3595 18.2 29.163 18.2 29.1414C18.2 29.1196 18.1431 29.0876 18.0736 29.0703C18.0042 29.0528 17.9246 28.9961 17.8969 28.9443C17.8691 28.8924 17.8191 28.8499 17.7857 28.8498C17.7524 28.8496 17.6146 28.7495 17.4796 28.627C17.0906 28.2744 16.7 27.8999 16.7 27.8798C16.7 27.8695 16.6044 27.7606 16.4875 27.6379C16.3706 27.515 16.23 27.3544 16.175 27.281C16.12 27.2076 16.0465 27.1155 16.0116 27.0765C15.8641 26.911 15.6 26.5459 15.6 26.5074C15.6 26.4844 15.555 26.4248 15.5 26.375C15.445 26.3253 15.4 26.2575 15.4 26.2245C15.4 26.1916 15.3437 26.1039 15.275 26.0298C15.2062 25.9555 15.15 25.8614 15.15 25.8204C15.15 25.7794 15.1061 25.6988 15.0525 25.6411C14.9989 25.5836 14.9412 25.4739 14.9244 25.3974C14.9076 25.3209 14.8627 25.2464 14.8247 25.2318C14.7866 25.2173 14.7406 25.1261 14.7225 25.0294C14.7044 24.9328 14.6582 24.8276 14.6201 24.796C14.582 24.7643 14.526 24.6454 14.4957 24.5316C14.4655 24.418 14.4119 24.2913 14.3766 24.25C14.3415 24.2088 14.2967 24.0863 14.2772 23.9776C14.2577 23.8691 14.1986 23.7255 14.1459 23.6584C14.0885 23.5855 14.05 23.458 14.05 23.3413C14.05 23.2339 14.0059 23.0596 13.952 22.9539C13.8981 22.8483 13.8387 22.6073 13.8201 22.4184C13.8015 22.2295 13.75 22.0075 13.7056 21.925C13.583 21.697 13.5842 18.1871 13.707 18C13.7521 17.9311 13.8044 17.709 13.8232 17.5054C13.8425 17.2971 13.8995 17.0573 13.9537 16.9561C14.0066 16.8573 14.05 16.684 14.05 16.5709C14.05 16.4409 14.0849 16.3251 14.1447 16.2561C14.1969 16.196 14.255 16.0631 14.2739 15.9609C14.2929 15.8586 14.3515 15.7049 14.4042 15.6191C14.4569 15.5334 14.5 15.4183 14.5 15.3634C14.5 15.3084 14.5416 15.2099 14.5924 15.1443C14.6431 15.0786 14.7 14.9625 14.7186 14.8863C14.7372 14.8099 14.797 14.703 14.8512 14.6488C14.9056 14.5944 14.95 14.4961 14.95 14.4304C14.95 14.3645 14.983 14.298 15.0234 14.2825C15.0637 14.267 15.1279 14.1803 15.1656 14.0896C15.2035 13.9991 15.2717 13.8941 15.3172 13.8564C15.3627 13.8186 15.4 13.7455 15.4 13.6939C15.4 13.6423 15.4212 13.6 15.4474 13.6C15.4734 13.6 15.5784 13.4706 15.6807 13.3125C15.7831 13.1544 15.8929 13.0025 15.9246 12.975C15.9562 12.9475 16.0031 12.8876 16.0286 12.842C16.1534 12.6185 16.936 11.7923 17.418 11.375C17.8784 10.9765 17.9336 10.93 18.0576 10.837C18.3945 10.5846 18.4885 10.5155 18.6355 10.4125C18.7237 10.3506 18.8176 10.3 18.8441 10.3C18.8706 10.3 18.9559 10.2485 19.0336 10.1855C19.1114 10.1226 19.2369 10.0444 19.3125 10.0116C19.3881 9.97888 19.45 9.93163 19.45 9.90663C19.45 9.88163 19.5299 9.84613 19.6276 9.82775C19.7254 9.8095 19.8175 9.76263 19.8325 9.72363C19.8474 9.68463 19.94 9.63763 20.0381 9.61925C20.1362 9.60088 20.2947 9.53275 20.3902 9.46788C20.4857 9.403 20.6142 9.35 20.6759 9.35C20.7374 9.35 20.8142 9.318 20.8467 9.27888C20.8792 9.23975 21.0001 9.19238 21.1154 9.17363C21.2306 9.15488 21.3951 9.09675 21.4809 9.04475C21.5666 8.99263 21.7245 8.95 21.8316 8.95C21.9387 8.95 22.1125 8.90388 22.2177 8.8475C22.3477 8.77775 22.5665 8.73138 22.9016 8.70225C23.1726 8.67863 23.4217 8.6425 23.4552 8.62175C23.6809 8.48238 26.2634 8.461 26.5 8.59663ZM23.975 10.432C23.8925 10.4449 23.735 10.4864 23.625 10.5243C23.515 10.5623 23.2716 10.6068 23.0841 10.6234C22.8946 10.6401 22.6616 10.6971 22.5597 10.7518C22.459 10.8058 22.2947 10.85 22.195 10.85C22.0921 10.85 21.961 10.8914 21.8922 10.9454C21.8256 10.9978 21.6665 11.0564 21.5389 11.0755C21.4112 11.0946 21.2951 11.1405 21.281 11.1774C21.2669 11.2143 21.1697 11.26 21.0651 11.2789C20.9605 11.2978 20.835 11.355 20.7861 11.406C20.7372 11.457 20.636 11.513 20.5611 11.5304C20.4862 11.5478 20.4025 11.5885 20.375 11.6209C20.3475 11.6531 20.2535 11.7088 20.1661 11.7444C20.0787 11.78 19.995 11.8409 19.9801 11.8796C19.9652 11.9183 19.9242 11.9504 19.8891 11.9508C19.8539 11.9511 19.7125 12.0313 19.575 12.1286C19.4375 12.2261 19.2632 12.3439 19.1879 12.3904C19.1124 12.4369 19.0505 12.5031 19.0504 12.5375C19.0501 12.5719 19.0151 12.6 18.9726 12.6C18.8981 12.6 17.8142 13.6626 17.6401 13.9063C17.5935 13.9715 17.4416 14.1646 17.3026 14.3353C17.1636 14.506 17.05 14.681 17.05 14.7244C17.05 14.7678 17.0174 14.8156 16.9774 14.831C16.9375 14.8463 16.8801 14.9336 16.85 15.025C16.8199 15.1164 16.7625 15.2038 16.7226 15.219C16.6826 15.2344 16.65 15.2926 16.65 15.3484C16.65 15.4043 16.6032 15.4968 16.5462 15.5538C16.4891 15.6109 16.4299 15.7354 16.4144 15.8306C16.399 15.9259 16.3475 16.0246 16.3 16.05C16.2487 16.0774 16.2025 16.1799 16.1861 16.302C16.1709 16.4151 16.1209 16.5493 16.075 16.6C16.0291 16.6508 15.9794 16.7896 15.9645 16.9086C15.9496 17.0276 15.8976 17.1925 15.8489 17.275C15.8002 17.3575 15.744 17.5706 15.724 17.7488C15.704 17.9268 15.651 18.1284 15.6062 18.1966C15.4771 18.3938 15.4845 21.5675 15.6145 21.766C15.6642 21.8419 15.7175 22.0468 15.7342 22.2271C15.7539 22.4363 15.7975 22.5895 15.8572 22.6584C15.9082 22.7173 15.95 22.8395 15.95 22.9303C15.95 23.1041 16.04 23.35 16.1036 23.35C16.1242 23.35 16.157 23.4456 16.1762 23.5625C16.1956 23.6794 16.2539 23.8153 16.3057 23.8645C16.3575 23.9136 16.4 24.0049 16.4 24.0673C16.4 24.1296 16.4562 24.2569 16.525 24.35C16.5937 24.4431 16.65 24.5495 16.65 24.5863C16.65 24.623 16.6826 24.6656 16.7226 24.681C16.7625 24.6963 16.8196 24.7829 16.8495 24.8734C16.8794 24.9639 16.9479 25.0779 17.0019 25.1268C17.0559 25.1755 17.1 25.2335 17.1 25.2555C17.1 25.3505 17.5785 25.969 17.9746 26.386C18.0849 26.502 18.2019 26.6258 18.2347 26.661C18.2675 26.6961 18.4079 26.8263 18.5465 26.95C18.6852 27.0738 18.8916 27.2601 19.0052 27.3643C19.1189 27.4684 19.2767 27.5871 19.356 27.6281C19.4351 27.669 19.5 27.724 19.5 27.7504C19.5 27.7766 19.5569 27.8124 19.6264 27.8298C19.6957 27.8473 19.7744 27.9021 19.8009 27.9516C19.8275 28.0013 19.9169 28.0568 19.9996 28.0749C20.0824 28.0931 20.15 28.1289 20.15 28.1544C20.15 28.1799 20.24 28.2369 20.35 28.2809C20.46 28.3249 20.55 28.3791 20.55 28.4015C20.55 28.4238 20.6177 28.4569 20.7005 28.4751C20.7832 28.4933 20.8855 28.5428 20.9277 28.5849C20.97 28.6271 21.0966 28.6824 21.2091 28.7076C21.3217 28.7329 21.47 28.7978 21.5386 28.8518C21.6072 28.9058 21.7317 28.95 21.8152 28.95C21.8987 28.95 22.0056 28.9849 22.0526 29.0274C22.0996 29.07 22.2927 29.1286 22.4816 29.1576C22.6705 29.1868 22.8551 29.2351 22.892 29.2651C22.9934 29.3478 24.1969 29.4738 24.875 29.4728C25.205 29.4723 25.4356 29.4798 25.3875 29.4895C25.3387 29.4995 25.3 29.5523 25.3 29.609C25.3 29.6649 25.2437 29.7774 25.175 29.8591C25.1062 29.9409 25.05 30.0389 25.05 30.0771C25.05 30.1153 25.005 30.1706 24.95 30.2C24.895 30.2294 24.85 30.2825 24.85 30.318C24.85 30.3535 24.7937 30.4354 24.725 30.5C24.6562 30.5646 24.6 30.6593 24.6 30.7103C24.6 30.7614 24.5674 30.8156 24.5274 30.831C24.4875 30.8463 24.4295 30.9358 24.3984 31.0298C24.3166 31.2775 24.1957 31.3235 23.6724 31.306C23.1544 31.2886 22.9559 31.3838 23.1881 31.538C23.2496 31.5788 23.3 31.6551 23.3 31.7076C23.3 31.7601 23.3326 31.8156 23.3726 31.831C23.4125 31.8463 23.4705 31.9354 23.5014 32.029C23.5322 32.1226 23.5871 32.2163 23.6234 32.2371C23.6596 32.258 23.7256 32.3538 23.77 32.45C23.8144 32.5463 23.9057 32.715 23.973 32.825C24.0401 32.935 24.1211 33.0813 24.1529 33.15C24.1847 33.2188 24.231 33.3088 24.2557 33.35C24.2805 33.3913 24.3251 33.4813 24.3549 33.55C24.3846 33.6188 24.4631 33.7796 24.5295 33.9074C24.5957 34.0351 24.65 34.1855 24.65 34.2413C24.65 34.2971 24.6836 34.3765 24.7247 34.4176C24.766 34.4588 24.8216 34.5504 24.8486 34.6213C24.9204 34.8101 25.082 34.79 25.1692 34.5811C25.208 34.4883 25.2646 34.3969 25.2949 34.3781C25.3252 34.3594 25.35 34.2924 25.35 34.229C25.35 34.1658 25.4039 34.0345 25.4699 33.9374C25.5357 33.8403 25.6047 33.6924 25.623 33.6089C25.6414 33.5253 25.6887 33.4301 25.7282 33.3974C25.7677 33.3646 25.8 33.3099 25.8 33.2759C25.8 33.2418 25.8562 33.1311 25.925 33.0298C25.9937 32.9285 26.05 32.8136 26.05 32.7748C26.05 32.7358 26.0931 32.6636 26.146 32.6145C26.1987 32.5653 26.2574 32.4631 26.2764 32.3875C26.2954 32.3119 26.3312 32.25 26.3562 32.25C26.3812 32.25 26.4406 32.1656 26.4882 32.0625C26.536 31.9594 26.6031 31.857 26.6375 31.835C26.6719 31.813 26.7 31.7664 26.7 31.7313C26.7 31.6961 26.7562 31.6146 26.825 31.55C26.8937 31.4854 26.95 31.4063 26.95 31.374C26.95 31.3419 26.995 31.2748 27.05 31.225C27.105 31.1753 27.1505 31.1099 27.1511 31.0798C27.1517 31.0496 27.2474 30.9199 27.3636 30.7914C27.4799 30.6629 27.6645 30.4435 27.774 30.3039C27.8835 30.1643 27.9904 30.05 28.0115 30.05C28.0326 30.05 28.05 30.0271 28.05 29.9991C28.05 29.9711 28.1962 29.8019 28.375 29.6231C28.5537 29.4444 28.7 29.2776 28.7 29.2525C28.7 29.2273 28.7439 29.1929 28.7975 29.1758C28.851 29.1588 28.9087 29.101 28.9257 29.0475C28.9429 28.9939 28.9864 28.95 29.0226 28.95C29.0589 28.95 29.1254 28.8938 29.1704 28.825C29.2155 28.7563 29.2855 28.7 29.3261 28.7C29.3667 28.7 29.4 28.6663 29.4 28.625C29.4 28.5838 29.4214 28.55 29.4474 28.55C29.4735 28.55 29.5555 28.4938 29.6297 28.425C29.7039 28.3563 29.7782 28.2996 29.7947 28.2993C29.8114 28.2988 29.9476 28.1863 30.0974 28.0493C30.2472 27.9121 30.3997 27.8 30.4365 27.8C30.4731 27.8 30.5152 27.7683 30.5301 27.7296C30.545 27.6909 30.6239 27.6315 30.7055 27.5978C30.7871 27.5639 30.8762 27.4944 30.9036 27.4431C30.9311 27.3919 30.9779 27.35 31.0076 27.35C31.0374 27.35 31.149 27.26 31.2557 27.15C31.3625 27.04 31.4637 26.95 31.4807 26.95C31.5226 26.95 31.85 26.5898 31.85 26.5436C31.85 26.5234 31.895 26.4925 31.95 26.475C32.005 26.4575 32.05 26.4196 32.05 26.3908C32.05 26.3619 32.1344 26.256 32.2375 26.1554C32.4371 25.9608 32.4742 25.9123 32.8247 25.3906C32.9482 25.2068 33.0702 25.0434 33.0959 25.0276C33.1214 25.0118 33.1566 24.9335 33.1742 24.8536C33.1917 24.7738 33.2362 24.6968 33.273 24.6826C33.3099 24.6685 33.3665 24.5766 33.3989 24.4785C33.4312 24.3804 33.4781 24.3 33.5031 24.3C33.5281 24.3 33.5745 24.1969 33.6062 24.0708C33.638 23.9446 33.6929 23.8304 33.7282 23.8169C33.7636 23.8033 33.8084 23.6983 33.8276 23.5836C33.847 23.4689 33.9049 23.3214 33.9564 23.2558C34.0099 23.1876 34.05 23.0565 34.05 22.95C34.05 22.8426 34.0902 22.7124 34.1449 22.643C34.2055 22.5659 34.2524 22.3966 34.275 22.1738C34.2945 21.9819 34.3475 21.7688 34.3927 21.7C34.5155 21.5135 34.5167 18.4525 34.3941 18.225C34.3497 18.1425 34.2974 17.9288 34.2779 17.75C34.2584 17.5713 34.2087 17.3876 34.1675 17.342C34.1262 17.2963 34.0756 17.1335 34.0547 16.9803C34.034 16.827 33.9819 16.6619 33.939 16.6133C33.8962 16.5648 33.8445 16.4463 33.824 16.35C33.8036 16.2538 33.7449 16.1214 33.6935 16.0558C33.6421 15.9901 33.6 15.9014 33.6 15.8585C33.6 15.8155 33.5489 15.7004 33.4862 15.6028C33.2884 15.2936 33.2524 15.2294 33.1714 15.0414C33.1279 14.9404 33.0602 14.8454 33.0211 14.8304C32.982 14.8154 32.95 14.766 32.95 14.7206C32.95 14.6753 32.8881 14.5645 32.8125 14.4745C32.7369 14.3845 32.63 14.2518 32.575 14.1794C32.52 14.107 32.3906 13.9565 32.2875 13.8449C32.1844 13.7333 32.1 13.6239 32.1 13.6019C32.1 13.58 31.9144 13.391 31.6875 13.182C31.4606 12.973 31.2292 12.7565 31.1732 12.701C31.1172 12.6454 31.0577 12.6 31.041 12.6C31.0242 12.6 30.9369 12.5313 30.8469 12.4471C30.6484 12.2616 30.1859 11.95 30.1091 11.95C30.0785 11.95 30.0304 11.9069 30.0021 11.8541C29.9739 11.8013 29.885 11.7436 29.8046 11.726C29.7241 11.7084 29.6476 11.6658 29.6344 11.6314C29.6212 11.597 29.5204 11.542 29.4104 11.509C29.3004 11.476 29.1987 11.4188 29.1845 11.3816C29.1702 11.3445 29.0657 11.2994 28.9524 11.2811C28.839 11.263 28.7344 11.2175 28.72 11.18C28.7056 11.1425 28.6001 11.0969 28.4857 11.0785C28.3712 11.0603 28.2369 11.0084 28.187 10.9633C28.1371 10.9181 27.9609 10.8653 27.7952 10.8458C27.6296 10.8263 27.4544 10.7743 27.4057 10.7303C27.3487 10.6786 27.1764 10.6388 26.9211 10.6181C26.7032 10.6005 26.4575 10.5516 26.375 10.5096C26.2255 10.4334 24.3541 10.3729 23.975 10.432ZM26.5 10.6193C26.7887 10.6681 27.0925 10.7315 27.175 10.76C27.2575 10.7886 27.4619 10.8424 27.6291 10.8796C27.7964 10.9169 27.9989 10.9815 28.0791 11.0234C28.1594 11.0651 28.2572 11.0995 28.2967 11.0998C28.3361 11.0999 28.4599 11.1433 28.5717 11.1963C28.6835 11.2491 28.8537 11.3274 28.95 11.3703C29.0462 11.413 29.1587 11.4685 29.2 11.4936C29.2412 11.5188 29.3312 11.5653 29.4 11.5971C29.4687 11.6289 29.615 11.7091 29.725 11.7755C29.835 11.8418 29.9909 11.9334 30.0714 11.9789C30.9332 12.4668 32.1982 13.7144 32.8557 14.725C33.2246 15.292 33.2691 15.3659 33.3565 15.5564C33.4021 15.6561 33.4644 15.753 33.4947 15.7718C33.5251 15.7905 33.55 15.8418 33.55 15.8855C33.55 15.9293 33.6049 16.0798 33.6719 16.22C34.2654 17.4623 34.6245 19.8103 34.4107 21.05C34.3056 21.66 34.1887 22.2333 34.1405 22.375C34.1125 22.4575 34.0492 22.66 34 22.825C33.8721 23.2534 33.8036 23.4405 33.6687 23.73C33.6034 23.8703 33.55 24.0018 33.55 24.0223C33.55 24.0428 33.508 24.1193 33.4565 24.1923C33.4051 24.2653 33.3459 24.3813 33.3249 24.45C33.3037 24.5188 33.2696 24.5863 33.2489 24.6C33.2129 24.624 33.0954 24.8104 32.9212 25.1199C32.8147 25.3093 32.3537 25.9273 32.1529 26.15C31.5561 26.8116 31.2934 27.043 30.125 27.9358C29.1046 28.7153 27.9222 29.9129 27.1735 30.925C27.0921 31.035 27.0136 31.1363 26.9991 31.15C26.935 31.2105 26.45 31.9571 26.45 31.9954C26.45 32.0186 26.4184 32.064 26.3796 32.0961C26.3409 32.1283 26.2714 32.2268 26.225 32.3148C26.1787 32.4029 26.0811 32.582 26.008 32.7129C25.9349 32.8438 25.7989 33.1025 25.7059 33.2879C25.6127 33.4733 25.5167 33.6588 25.4924 33.7C25.4679 33.7413 25.4135 33.8538 25.3714 33.95C24.9915 34.8173 25.0212 34.8051 24.7432 34.208C24.2955 33.2466 24.0911 32.8498 23.7649 32.3079C23.7044 32.2073 23.627 32.0688 23.5929 32C23.5587 31.9313 23.4919 31.83 23.4441 31.775C23.1642 31.4524 23.2784 31.3248 23.779 31.4006L24.1566 31.4579L24.2909 31.3093C24.4476 31.1355 24.7 30.7351 24.7 30.6601C24.7 30.6316 24.7169 30.6009 24.7375 30.5916C24.7759 30.5746 25.035 30.2423 25.125 30.0946C25.1525 30.0495 25.2611 29.8828 25.3664 29.7241C25.597 29.3769 25.5727 29.3484 25.0782 29.3859C24.6347 29.4194 23.3959 29.3166 23.1152 29.223C23 29.1845 22.7671 29.1308 22.5977 29.1035C22.4285 29.0763 22.2639 29.0323 22.2319 29.0056C22.1999 28.9791 22.0615 28.93 21.9244 28.8965C21.7872 28.863 21.6505 28.8166 21.6206 28.7935C21.5907 28.7703 21.4782 28.7194 21.3706 28.6804C21.1062 28.5846 20.6687 28.3741 20.425 28.2255C20.315 28.1584 20.1462 28.0665 20.05 28.0214C19.9537 27.9763 19.857 27.9079 19.835 27.8696C19.813 27.8314 19.7716 27.8 19.7429 27.8C19.6265 27.8 18.8126 27.118 18.2401 26.5408C17.6725 25.9684 17.0684 25.1896 16.8736 24.7791C16.8269 24.6806 16.7711 24.6 16.7497 24.6C16.7284 24.6 16.6957 24.5399 16.6774 24.4665C16.6589 24.393 16.6002 24.2775 16.5469 24.2098C16.4936 24.142 16.45 24.057 16.45 24.0209C16.45 23.9849 16.3937 23.8495 16.325 23.7203C16.2562 23.5909 16.2 23.4485 16.2 23.4036C16.2 23.3589 16.1681 23.2768 16.1291 23.2211C16.0901 23.1654 16.0417 23.031 16.0216 22.9225C16.0014 22.8139 15.9432 22.6275 15.8925 22.5084C15.8416 22.3893 15.8 22.2391 15.8 22.1748C15.8 22.1105 15.7505 21.8593 15.6901 21.6165C15.539 21.009 15.5255 18.9294 15.6692 18.3863C15.7186 18.2 15.778 17.93 15.8014 17.7863C15.8957 17.2059 16.4482 15.8194 16.8221 15.225C17.5269 14.1048 18.1772 13.3395 19.0232 12.6349C19.3279 12.3811 20.1775 11.8 20.2439 11.8C20.264 11.8 20.3569 11.7438 20.45 11.675C20.5431 11.6063 20.6566 11.55 20.702 11.55C20.7474 11.55 20.8252 11.505 20.875 11.45C20.9247 11.395 21.0017 11.35 21.046 11.35C21.0902 11.35 21.21 11.3053 21.3121 11.2505C21.4142 11.1958 21.5826 11.1298 21.6864 11.1039C21.7901 11.078 21.9762 11.0221 22.1 10.9796C22.657 10.7889 22.8474 10.7383 23.175 10.6939C23.3675 10.6679 23.6825 10.6159 23.875 10.5785C24.3704 10.4821 25.8242 10.5048 26.5 10.6193ZM24.75 13.149C24.6845 13.1904 24.675 13.6393 24.675 16.693C24.675 20.6368 24.6386 20.2888 25.0724 20.4988C25.3679 20.6418 29.2651 20.656 29.6997 20.5156C30.1906 20.3571 30.3305 19.93 30.0235 19.5275L29.8905 19.353L27.722 19.339C25.7181 19.3261 25.5467 19.3183 25.4642 19.2358C25.3809 19.1524 25.3741 18.9505 25.3614 16.1895C25.3519 14.1328 25.3309 13.2123 25.2927 13.1663C25.2296 13.0901 24.8615 13.0785 24.75 13.149ZM25.2375 13.1994C25.2867 13.1999 25.3 13.8434 25.3 16.2483C25.3 19.2108 25.3027 19.2979 25.3967 19.3483C25.459 19.3816 26.249 19.4 27.6176 19.4C29.9541 19.4 29.8745 19.3923 29.9742 19.6311C30.0131 19.724 30.0685 19.8 30.0975 19.8C30.1804 19.8 30.1596 20.0856 30.0742 20.1184C30.0326 20.1344 29.9776 20.2024 29.9521 20.2694C29.8855 20.4448 29.6396 20.4598 27.1415 20.441L25.008 20.425L24.879 20.3038L24.75 20.1826V16.6948V13.207L24.8625 13.1843C24.9244 13.1718 25.02 13.1699 25.075 13.1801C25.13 13.1903 25.2031 13.199 25.2375 13.1994Z" fill="#EC748C"/>
</svg>
