<svg width="36" height="52" viewBox="0 0 36 52" fill="none" xmlns="http://www.w3.org/2000/svg">
<path fill-rule="evenodd" clip-rule="evenodd" d="M1.5 21.25C1.5 19.1789 3.17893 17.5 5.25 17.5H33C33.5294 17.5 34.0196 17.7791 34.2898 18.2343C34.5601 18.6895 34.5704 19.2535 34.3168 19.7183L30.2086 27.25L34.3168 34.7817C34.5704 35.2465 34.5601 35.8105 34.2898 36.2657C34.0196 36.7209 33.5294 37 33 37H5.25C3.17893 37 1.5 35.3211 1.5 33.25V21.25ZM5.25 20.5C4.83579 20.5 4.5 20.8358 4.5 21.25V33.25C4.5 33.6642 4.83579 34 5.25 34H30.4732L27.1832 27.9683C26.9389 27.5206 26.9389 26.9794 27.1832 26.5317L30.4732 20.5H5.25Z" fill="#DE3121"/>
<path fill-rule="evenodd" clip-rule="evenodd" d="M3 35.5C3 34.6716 3.67157 34 4.5 34H10.5C11.3284 34 12 34.6716 12 35.5V46.75C12 48.8211 10.3211 50.5 8.25 50.5H6.75C4.67893 50.5 3 48.8211 3 46.75V35.5ZM6 37V46.75C6 47.1642 6.33579 47.5 6.75 47.5H8.25C8.66421 47.5 9 47.1642 9 46.75V37H6Z" fill="#DE3121"/>
</svg>
