<svg width="24" height="24" viewBox="0 0 24 24" fill="none" xmlns="http://www.w3.org/2000/svg">
<path fill-rule="evenodd" clip-rule="evenodd" d="M1 12C1 5.92487 5.92487 1 12 1C18.0751 1 23 5.92487 23 12C23 18.0751 18.0751 23 12 23C5.92487 23 1 18.0751 1 12ZM12 3C7.02944 3 3 7.02944 3 12C3 16.9706 7.02944 21 12 21C16.9706 21 21 16.9706 21 12C21 7.02944 16.9706 3 12 3Z" fill="#576777"/>
<path fill-rule="evenodd" clip-rule="evenodd" d="M7.2347 4.44701C8.30589 2.49939 9.94799 1 12 1C14.052 1 15.6941 2.49939 16.7653 4.44701C17.8563 6.43064 18.5 9.10293 18.5 12C18.5 14.8971 17.8563 17.5694 16.7653 19.553C15.6941 21.5006 14.052 23 12 23C9.94799 23 8.30589 21.5006 7.2347 19.553C6.1437 17.5694 5.5 14.8971 5.5 12C5.5 9.10293 6.1437 6.43064 7.2347 4.44701ZM8.98713 5.41085C8.08752 7.04651 7.5 9.37422 7.5 12C7.5 14.6258 8.08752 16.9535 8.98713 18.5891C9.90654 20.2608 11.0144 21 12 21C12.9856 21 14.0935 20.2608 15.0129 18.5891C15.9125 16.9535 16.5 14.6258 16.5 12C16.5 9.37422 15.9125 7.04651 15.0129 5.41085C14.0935 3.73919 12.9856 3 12 3C11.0144 3 9.90654 3.73919 8.98713 5.41085Z" fill="#576777"/>
<path fill-rule="evenodd" clip-rule="evenodd" d="M1.5 12C1.5 11.4477 1.94772 11 2.5 11H21.5C22.0523 11 22.5 11.4477 22.5 12C22.5 12.5523 22.0523 13 21.5 13H2.5C1.94772 13 1.5 12.5523 1.5 12Z" fill="#576777"/>
<path fill-rule="evenodd" clip-rule="evenodd" d="M12 1.5C12.5523 1.5 13 1.94772 13 2.5V21C13 21.5523 12.5523 22 12 22C11.4477 22 11 21.5523 11 21V2.5C11 1.94772 11.4477 1.5 12 1.5Z" fill="#576777"/>
</svg>
