<svg width="35" height="35" viewBox="0 0 35 35" fill="none" xmlns="http://www.w3.org/2000/svg">
<path d="M18.2 15.925V20.7083H29.6333C29.2833 23.3917 28.3893 25.356 27.0273 26.7356C25.3545 28.4083 22.75 30.2356 18.2 30.2356C11.1606 30.2356 5.65832 24.5583 5.65832 17.519C5.65832 10.4796 11.1606 4.80229 18.2 4.80229C21.9917 4.80229 24.7727 6.3 26.8143 8.225L30.1787 4.86062C27.3393 2.1 23.5273 0 18.2 0C8.55601 0 0.447693 7.85603 0.447693 17.5C0.447693 27.144 8.55601 35 18.2 35C23.4106 35 27.3393 33.2893 30.4106 30.1C33.5606 26.95 34.5523 22.4977 34.5523 18.919C34.5523 17.8106 34.475 16.7796 34.3 15.925H18.2Z" fill="#4285F4"/>
</svg>
