<svg width="139" height="45" viewBox="0 0 139 45" fill="none" xmlns="http://www.w3.org/2000/svg">
<path d="M1.77966 26.5779L18.2183 10.1278L34.6684 26.5779C37.9083 19.8016 36.7218 11.4511 31.1092 5.83844C23.9907 -1.28005 12.4574 -1.28005 5.3389 5.83844C-0.273748 11.4511 -1.46016 19.8016 1.77966 26.5779Z" fill="#0058FF"/>
<path d="M18.218 10.1282L1.7793 26.5783C2.64629 28.3921 3.83271 30.1033 5.33854 31.6091L8.55555 34.8375L18.218 25.1751L27.8804 34.8375L31.0974 31.6205C32.6033 30.1147 33.7897 28.4149 34.6567 26.5897L18.218 10.1282Z" fill="#08B2FA"/>
<path d="M18.215 25.1662L8.55139 34.8298L18.215 44.4935L27.8787 34.8298L18.215 25.1662Z" fill="#86EAFA"/>
<path d="M64.671 14.9876V29.7266C64.671 31.1868 64.4885 32.5101 64.1349 33.6851C63.7698 34.8601 63.2222 35.864 62.4693 36.6853C61.7164 37.5067 60.7695 38.1455 59.6174 38.5904C58.4766 39.0354 57.1076 39.2635 55.5333 39.2635C54.0275 39.2635 52.6015 39.0696 51.2554 38.6931C49.9093 38.3053 48.6544 37.6094 47.5136 36.6055L49.9435 33.2972C50.7535 34.0387 51.5976 34.6091 52.4761 35.0198C53.3545 35.4191 54.3698 35.6244 55.5105 35.6244C56.4802 35.6244 57.2902 35.4875 57.9518 35.2251C58.6135 34.9513 59.1382 34.5863 59.5375 34.1072C59.9254 33.6395 60.2106 33.0691 60.3817 32.4074C60.5528 31.7458 60.6327 31.0042 60.6327 30.1943V29.0193H60.5642C59.9824 29.8064 59.2067 30.3996 58.237 30.7875C57.2673 31.1754 56.2863 31.3807 55.271 31.3807C54.0617 31.3807 52.9552 31.1639 51.9627 30.719C50.9702 30.2855 50.126 29.6923 49.4188 28.9508C48.7115 28.2093 48.1639 27.3309 47.7874 26.3156C47.3996 25.3003 47.217 24.228 47.217 23.0758C47.217 21.8894 47.3996 20.7714 47.7532 19.7333C48.1069 18.6952 48.643 17.8054 49.3389 17.0411C50.0348 16.2767 50.879 15.6721 51.8486 15.2386C52.8297 14.8051 53.9477 14.577 55.2025 14.577C56.3547 14.577 57.4156 14.8051 58.4081 15.25C59.4006 15.6949 60.1877 16.4136 60.7695 17.4061H60.838V14.9876H64.671ZM56.0353 18.2275C55.3166 18.2275 54.6664 18.3415 54.0846 18.5811C53.5028 18.8207 53.0008 19.1401 52.5787 19.5622C52.168 19.9729 51.8372 20.4862 51.5976 21.0794C51.3581 21.6726 51.244 22.3343 51.244 23.053C51.244 23.7032 51.3581 24.3078 51.5976 24.8782C51.8372 25.4372 52.168 25.9392 52.5901 26.3613C53.0122 26.7833 53.5256 27.1256 54.1074 27.3766C54.6892 27.6275 55.3166 27.753 56.0011 27.753C56.7426 27.753 57.4156 27.6275 58.0089 27.3766C58.6021 27.1256 59.1154 26.7948 59.5261 26.3841C59.9368 25.9734 60.2676 25.4714 60.4844 24.8782C60.7125 24.2964 60.8266 23.669 60.8266 22.9845C60.8266 21.57 60.4045 20.4178 59.5489 19.5508C58.6933 18.661 57.5183 18.2275 56.0353 18.2275Z" fill="#082344"/>
<path d="M67.7399 23.0758C67.7399 21.7981 67.968 20.6345 68.4357 19.585C68.8921 18.5355 69.5195 17.6457 70.3066 16.9042C71.0938 16.1627 72.0292 15.5923 73.1015 15.1816C74.1853 14.7823 75.3261 14.577 76.5353 14.577C77.7445 14.577 78.8967 14.7823 79.9805 15.1816C81.0642 15.5809 81.9882 16.1627 82.7754 16.9042C83.5625 17.6457 84.19 18.5355 84.6463 19.585C85.1026 20.6345 85.3421 21.7981 85.3421 23.0758C85.3421 24.3535 85.114 25.5171 84.6463 26.5666C84.19 27.6161 83.5625 28.5059 82.7754 29.2474C81.9882 29.9889 81.0528 30.5593 79.9805 30.97C78.8967 31.3693 77.7559 31.5746 76.5353 31.5746C75.3261 31.5746 74.1739 31.3693 73.1015 30.97C72.0178 30.5707 71.0938 29.9889 70.3066 29.2474C69.5195 28.5059 68.8921 27.6161 68.4357 26.5666C67.968 25.5285 67.7399 24.3649 67.7399 23.0758ZM71.7896 23.0758C71.7896 23.7032 71.8923 24.3078 72.1091 24.9011C72.3258 25.4829 72.6338 26.0076 73.0559 26.4525C73.4666 26.8974 73.9685 27.2625 74.5617 27.5363C75.155 27.8101 75.8052 27.9355 76.5467 27.9355C77.2882 27.9355 77.9499 27.7986 78.5317 27.5363C79.1135 27.2625 79.6154 26.9088 80.0375 26.4525C80.4482 26.0076 80.7676 25.4829 80.9844 24.9011C81.2011 24.3193 81.3038 23.7146 81.3038 23.0758C81.3038 22.4484 81.2011 21.8438 80.9844 21.2505C80.7676 20.6687 80.4596 20.144 80.0375 19.6991C79.6268 19.2542 79.1249 18.8891 78.5317 18.6153C77.9499 18.3416 77.2882 18.2161 76.5467 18.2161C75.8052 18.2161 75.1435 18.353 74.5617 18.6153C73.9799 18.8891 73.478 19.2428 73.0559 19.6991C72.6452 20.144 72.3258 20.6687 72.1091 21.2505C71.8923 21.8438 71.7896 22.4484 71.7896 23.0758Z" fill="#082344"/>
<path d="M97.0466 19.4712C96.2595 18.3647 95.1985 17.8171 93.8752 17.8171C93.339 17.8171 92.8029 17.954 92.2895 18.2164C91.7762 18.4902 91.5138 18.9237 91.5138 19.5283C91.5138 20.0188 91.7305 20.3839 92.1526 20.612C92.5747 20.8402 93.1223 21.0227 93.7725 21.1824C94.4228 21.3421 95.1301 21.5018 95.883 21.6729C96.6359 21.8441 97.3432 22.095 97.9934 22.4487C98.6437 22.8023 99.1799 23.27 99.6134 23.8861C100.035 24.4907 100.252 25.3235 100.252 26.3844C100.252 27.354 100.047 28.164 99.6248 28.8257C99.2141 29.4873 98.6665 30.0235 98.0049 30.4228C97.3432 30.822 96.5903 31.1186 95.7575 31.3012C94.9247 31.4837 94.092 31.5749 93.2592 31.5749C92.0043 31.5749 90.8407 31.3924 89.7912 31.0388C88.7303 30.6737 87.7948 30.0235 86.962 29.088L89.6543 26.5555C90.1677 27.1373 90.7266 27.6164 91.3198 27.9929C91.9131 28.3579 92.6432 28.5519 93.4987 28.5519C93.7953 28.5519 94.092 28.5176 94.4114 28.4492C94.7308 28.3808 95.016 28.2667 95.2898 28.107C95.5636 27.9473 95.7803 27.7533 95.9514 27.5138C96.1226 27.2742 96.2024 27.0004 96.2024 26.6924C96.2024 26.1334 95.9857 25.7113 95.5636 25.4489C95.1415 25.1752 94.5939 24.9584 93.9437 24.7873C93.2934 24.6162 92.5861 24.4565 91.8332 24.3196C91.0803 24.1713 90.373 23.9431 89.7227 23.6123C89.0725 23.2815 88.5363 22.8365 88.1028 22.2433C87.6807 21.6615 87.464 20.8516 87.464 19.8135C87.464 18.9123 87.6465 18.1365 88.023 17.4749C88.3994 16.8132 88.8786 16.2656 89.4946 15.8435C90.0992 15.4215 90.7951 15.102 91.5822 14.8967C92.3694 14.6914 93.1679 14.5887 93.9779 14.5887C95.0616 14.5887 96.1226 14.7712 97.1835 15.1477C98.2444 15.5127 99.0886 16.1516 99.7503 17.0528L97.0466 19.4712Z" fill="#082344"/>
<path d="M102.168 9.48938C102.168 8.83913 102.408 8.26874 102.899 7.78961C103.378 7.31048 103.994 7.05951 104.735 7.05951C105.477 7.05951 106.104 7.28767 106.606 7.75539C107.108 8.2117 107.37 8.7935 107.37 9.48938C107.37 10.1853 107.119 10.7671 106.606 11.2234C106.104 11.6797 105.477 11.9192 104.735 11.9192C103.994 11.9192 103.378 11.6797 102.899 11.1891C102.408 10.71 102.168 10.1396 102.168 9.48938ZM102.739 14.988H106.789V31.1757H102.739V14.988Z" fill="#082344"/>
<path d="M108.842 18.4214V14.9876H112.185V10.299H116.234V14.9876H120.683V18.4214H116.234V25.5057C116.234 26.3156 116.383 26.9544 116.691 27.4222C116.999 27.8899 117.592 28.1295 118.493 28.1295C118.858 28.1295 119.246 28.0952 119.668 28.0154C120.09 27.9355 120.432 27.81 120.683 27.6275V31.0385C120.261 31.2438 119.737 31.3807 119.12 31.4605C118.504 31.5404 117.957 31.5746 117.489 31.5746C116.405 31.5746 115.527 31.4605 114.843 31.221C114.158 30.9814 113.622 30.6278 113.223 30.1372C112.835 29.6581 112.561 29.0535 112.413 28.3348C112.264 27.6161 112.196 26.7833 112.196 25.8365V18.4214H108.842Z" fill="#082344"/>
<path d="M126.376 24.4904C126.513 25.6996 126.98 26.6465 127.79 27.3195C128.6 27.9926 129.581 28.3348 130.722 28.3348C131.737 28.3348 132.582 28.1295 133.266 27.7074C133.951 27.2967 134.555 26.7719 135.069 26.1445L137.966 28.3348C137.019 29.4984 135.97 30.3312 134.795 30.8331C133.631 31.3237 132.399 31.5746 131.121 31.5746C129.912 31.5746 128.76 31.3693 127.676 30.97C126.593 30.5593 125.668 29.9889 124.881 29.2474C124.094 28.5059 123.467 27.6161 123.01 26.5666C122.554 25.5171 122.315 24.3535 122.315 23.0758C122.315 21.7981 122.543 20.6345 123.01 19.585C123.467 18.5355 124.094 17.6457 124.881 16.9042C125.668 16.1627 126.604 15.5923 127.676 15.1816C128.76 14.7823 129.901 14.577 131.121 14.577C132.239 14.577 133.278 14.7709 134.202 15.1702C135.137 15.558 135.936 16.1284 136.597 16.8699C137.259 17.6114 137.772 18.5241 138.149 19.6192C138.525 20.7144 138.708 21.9578 138.708 23.3838V24.5018H126.376V24.4904ZM134.669 21.4559C134.646 20.2695 134.27 19.3226 133.551 18.6382C132.833 17.9537 131.829 17.6114 130.551 17.6114C129.342 17.6114 128.372 17.9651 127.665 18.661C126.958 19.3568 126.524 20.2923 126.364 21.4559H134.669Z" fill="#082344"/>
</svg>
