<svg width="24" height="24" viewBox="0 0 24 24" fill="none" xmlns="http://www.w3.org/2000/svg">
<path fill-rule="evenodd" clip-rule="evenodd" d="M5.2953 4.02242C5.29515 4.02248 5.29544 4.02237 5.2953 4.02242L5.29644 4.022L5.3132 4.01575C5.32967 4.00968 5.35667 3.99989 5.39386 3.98689C5.46826 3.9609 5.58336 3.92213 5.7365 3.87478C6.04286 3.78003 6.50082 3.65111 7.08902 3.52137C8.26629 3.26169 9.95959 3 12 3C14.0404 3 15.7337 3.26169 16.911 3.52137C17.4992 3.65111 17.9571 3.78003 18.2635 3.87478C18.4166 3.92213 18.5317 3.9609 18.6061 3.98689C18.6433 3.99989 18.6703 4.00968 18.6868 4.01575L18.7036 4.022L18.7043 4.02226C18.7041 4.0222 18.7044 4.02231 18.7043 4.02226L18.7056 4.02278C18.7055 4.02275 18.7057 4.0228 18.7056 4.02278C18.7256 4.03046 18.746 4.0376 18.7664 4.04399C18.9186 4.09164 19.1103 4.22353 19.2693 4.44344C19.4277 4.66259 19.5 4.8957 19.5 5.07314V14.8293C19.5 15.0576 19.4204 15.3847 19.25 15.7219C19.0792 16.0597 18.8652 16.3127 18.6866 16.4421L12.6403 20.8208C12.5008 20.9218 12.2727 20.9997 12.0008 21C11.7291 21.0003 11.5007 20.9229 11.3597 20.8208L5.31344 16.4421C5.13804 16.315 4.92373 16.062 4.75161 15.7218C4.57985 15.3824 4.5 15.0548 4.5 14.8293V5.07314C4.5 4.89046 4.5733 4.65432 4.72972 4.43662C4.88679 4.21802 5.07401 4.09169 5.22067 4.04793C5.24587 4.04042 5.27077 4.03191 5.2953 4.02242ZM19.3946 2.14513C20.021 2.3498 20.5357 2.78127 20.8903 3.27195C21.2512 3.77132 21.5 4.40589 21.5 5.07314V14.8293C21.5 15.4482 21.3072 16.0854 21.0348 16.6243C20.7627 17.1625 20.3633 17.6972 19.8597 18.0619L13.8134 22.4406C13.2754 22.8303 12.6177 22.9994 12.0027 23C11.3875 23.0006 10.7278 22.8326 10.1866 22.4406L4.14035 18.0619C3.63815 17.6982 3.23902 17.1623 2.96709 16.6249C2.6948 16.0868 2.5 15.4484 2.5 14.8293V5.07314C2.5 4.4085 2.7444 3.77217 3.10552 3.26959C3.45907 2.77754 3.97586 2.34314 4.61142 2.1429C4.61463 2.14171 4.61803 2.14045 4.62163 2.13913C4.64847 2.12924 4.6861 2.11562 4.73419 2.09882C4.83036 2.06522 4.9684 2.01886 5.1456 1.96406C5.4999 1.85449 6.01138 1.71099 6.65824 1.56831C7.95109 1.28314 9.79041 1 12 1C14.2096 1 16.0489 1.28314 17.3418 1.56831C17.9886 1.71099 18.5001 1.85449 18.8544 1.96406C19.0316 2.01886 19.1696 2.06522 19.2658 2.09882C19.3139 2.11562 19.3515 2.12924 19.3784 2.13913C19.3843 2.14131 19.3897 2.14332 19.3946 2.14513Z" fill="#0357FF"/>
<path fill-rule="evenodd" clip-rule="evenodd" d="M16.7071 7.79289C17.0976 8.18342 17.0976 8.81658 16.7071 9.20711L11.2071 14.7071C10.8166 15.0976 10.1834 15.0976 9.79289 14.7071L7.29289 12.2071C6.90237 11.8166 6.90237 11.1834 7.29289 10.7929C7.68342 10.4024 8.31658 10.4024 8.70711 10.7929L10.5 12.5858L15.2929 7.79289C15.6834 7.40237 16.3166 7.40237 16.7071 7.79289Z" fill="#0357FF"/>
</svg>
