<svg width="50" height="50" viewBox="0 0 50 50" fill="none" xmlns="http://www.w3.org/2000/svg">
<g clip-path="url(#clip0_9:93)">
<path fill-rule="evenodd" clip-rule="evenodd" d="M0.0147325 26.0784C0.324983 36.4492 7.49561 45.7802 17.5537 48.9015C22.3114 50.378 27.6886 50.378 32.4462 48.9015C34.156 48.371 37.4064 46.931 37.4011 46.7065C37.4005 46.6783 36.2007 45.9647 34.7349 45.1206L32.0697 43.5861L32.2946 43.4717C32.4184 43.4089 32.5195 43.3466 32.5195 43.3334C32.5195 43.294 31.9125 43.6111 31.8732 43.6709C31.8536 43.701 31.8371 43.7104 31.8366 43.6917C31.8362 43.6731 31.6756 43.731 31.4797 43.8202C31.1439 43.9732 30.2112 44.336 30.1535 44.336C30.1389 44.336 30.2715 44.1272 30.4481 43.8721C30.6247 43.617 30.7527 43.4082 30.7326 43.4082C30.7124 43.4082 30.7401 43.3587 30.7941 43.2984C30.9137 43.1646 31.1041 42.8512 31.1017 42.7921C31.1009 42.7684 31.0734 42.7962 31.0407 42.8539C30.9834 42.9552 30.8574 42.887 27.2257 40.7887C25.1601 39.5954 23.4415 38.6297 23.4066 38.6431C23.3719 38.6565 23.2971 38.6025 23.2406 38.5231C23.1841 38.4439 23.1189 38.3789 23.0956 38.3789C23.0725 38.3789 22.27 37.9267 21.3124 37.3742C20.3547 36.8216 19.5586 36.3821 19.5432 36.3975C19.3699 36.5709 19.2265 38.9127 19.3322 39.845C19.5 41.323 20.114 43.062 20.8717 44.2054L21.0927 44.5387L20.9345 44.5047C20.657 44.445 19.5734 44.0379 19.0379 43.7921C14.1306 41.54 10.7887 36.9747 10.1786 31.6895C10.1336 31.3 10.0827 30.954 10.0655 30.9205C10.0391 30.8691 0.255858 25.1905 0.0534825 25.109C-0.00464249 25.0856 -0.0105175 25.2336 0.0147325 26.0784ZM23.7305 38.3056C23.6119 38.4265 23.5387 38.5254 23.5679 38.5254C23.5971 38.5254 23.7021 38.4265 23.8011 38.3056C23.9001 38.1849 23.9732 38.086 23.9636 38.086C23.954 38.086 23.8491 38.1849 23.7305 38.3056Z" fill="#DC6858"/>
<path fill-rule="evenodd" clip-rule="evenodd" d="M7.27372 7.312L7.00685 7.59275L7.2876 7.32587C7.54835 7.078 7.59072 7.03125 7.55447 7.03125C7.54685 7.03125 7.42047 7.15762 7.27372 7.312ZM5.39947 9.4335C4.33135 10.7775 3.42235 12.1991 2.6736 13.6962C2.06985 14.9035 1.55547 16.1171 1.44235 16.6016C1.43297 16.6419 1.41772 16.7052 1.40847 16.7424C1.39722 16.7872 3.12697 17.813 6.56735 19.8014L11.7431 22.7927L11.8102 22.6635C11.8472 22.5924 11.9046 22.5013 11.9377 22.461C11.9708 22.4206 12.064 22.2656 12.1445 22.1165C13.1886 20.1825 14.8608 18.3851 16.442 17.497L16.7286 17.336L16.5205 18.3237C16.275 19.4892 15.9595 21.3106 15.825 22.3389C15.7366 23.0135 15.7105 23.3513 15.6501 24.5909L15.6285 25.0364L16.8241 25.7261C17.9522 26.377 18.1627 26.4835 18.0908 26.3673C18.0742 26.3404 18.0852 26.3184 18.1152 26.3184C18.1452 26.3184 18.1562 26.2964 18.1396 26.2695C18.123 26.2426 18.134 26.2208 18.1641 26.2208C18.1941 26.2208 18.206 26.2002 18.1905 26.1752C18.1751 26.1502 18.1871 26.1145 18.2172 26.0959C18.44 25.9582 19.7567 22.8278 20.3033 21.1364C20.7293 19.818 21.3071 17.4821 21.1891 17.5551C21.1607 17.5726 11.2382 11.8754 6.11935 8.9025L5.9156 8.78413L5.39947 9.4335ZM33.5017 24.8412C33.4955 25.1245 33.5601 25.172 33.7165 24.9993C33.8033 24.9033 33.7278 24.7641 33.5851 24.7574C33.567 24.7565 33.542 24.7174 33.5297 24.6704C33.5175 24.6234 33.5048 24.7004 33.5017 24.8412ZM27.1647 28.6257C27.1576 29.4861 27.0965 30.5205 27.0298 30.9083C27.0182 30.9754 26.9972 31.153 26.9831 31.303L26.9575 31.5758L29.4021 32.9876C32.2343 34.6233 31.9411 34.4718 31.8796 34.2684C31.8526 34.1794 31.8227 34.0714 31.8131 34.0285C31.6266 33.1976 30.5098 31.2697 29.4256 29.9072C29.0522 29.438 27.2967 27.6365 27.2133 27.637C27.1911 27.637 27.1691 28.082 27.1647 28.6257ZM40.5187 29.6996C40.5545 31.8289 40.1933 33.7654 39.3995 35.7019C39.1493 36.3119 38.4338 37.755 38.3667 37.7849C38.3465 37.7937 38.3301 37.825 38.3301 37.8543C38.3301 37.8835 38.2987 37.942 38.2605 37.9844C38.1981 38.0534 38.4918 38.2354 41.0541 39.7144L43.9175 41.3672L44.0358 41.228C44.1011 41.1515 44.2545 40.9722 44.3768 40.8296C44.4992 40.687 44.6322 40.5223 44.6723 40.4634C44.7125 40.4046 44.7596 40.3455 44.7771 40.332C45.0295 40.1381 46.4388 37.9815 47.0587 36.8409C47.5756 35.8895 48.6366 33.4836 48.569 33.416C48.5532 33.4003 40.521 28.7598 40.5092 28.7598C40.5057 28.7596 40.51 29.1826 40.5187 29.6996Z" fill="#E48368"/>
<path fill-rule="evenodd" clip-rule="evenodd" d="M23.2177 0.0302486C19.7777 0.363999 17.0169 1.06925 14.624 2.22537C14.3555 2.35512 14.1247 2.4625 14.1114 2.46412C14.0209 2.47462 13.7695 2.608 13.7695 2.6455C13.7695 2.67075 13.7475 2.67775 13.7207 2.66112C13.6939 2.6445 13.6719 2.6555 13.6719 2.6855C13.6719 2.71562 13.6499 2.7265 13.623 2.71C13.5962 2.69337 13.5742 2.70675 13.5742 2.73962C13.5742 2.7725 13.5606 2.78587 13.544 2.76925C13.5274 2.75262 13.4807 2.772 13.4405 2.81225C13.3485 2.90425 12.8196 2.58162 17.3062 5.17087C20.9791 7.2905 21.502 7.56637 21.2329 7.242C21.205 7.2085 21.1921 7.15287 21.2042 7.11837C21.2162 7.08387 21.2065 7.0025 21.1825 6.93762C21.1585 6.87262 21.1304 6.76275 21.12 6.6935C21.1096 6.62412 21.0885 6.518 21.0731 6.4575C21.0086 6.20612 20.989 6.12087 20.9649 5.98712C20.9507 5.90962 20.8557 5.5635 20.7536 5.218C20.6515 4.8725 20.5824 4.58987 20.6 4.58987C20.7297 4.58987 22.3372 5.56362 23.1552 6.13775C24.5919 7.14612 26.5099 8.88587 27.6122 10.1806C27.7197 10.3067 27.857 10.4597 27.9175 10.5206C27.9779 10.5815 28.0274 10.6522 28.0274 10.678C28.0274 10.7036 28.0767 10.7717 28.1372 10.8294C28.3085 10.9929 28.418 11.1142 28.418 11.141C28.418 11.1544 28.5054 11.2601 28.6122 11.3757C28.719 11.4915 28.8209 11.6316 28.8385 11.6872C28.8561 11.7427 28.9266 11.8331 28.9952 11.8877C29.1175 11.9854 49.9161 24.015 49.9377 24.0006C50.1225 23.8772 49.7329 20.7719 49.3186 19.0674C46.8354 8.84775 38.3487 1.38925 27.7587 0.119249C27.1124 0.0417486 23.7739 -0.0237514 23.2177 0.0302486Z" fill="#ECA47C"/>
<path fill-rule="evenodd" clip-rule="evenodd" d="M12.8393 3.1175C10.4942 4.423 8.13685 6.30075 6.48535 8.17875C6.27272 8.42038 6.06322 8.6565 6.0196 8.70338C5.97597 8.75025 5.9496 8.79675 5.96085 8.80675C5.97222 8.81663 9.34322 10.764 13.4521 13.1341C17.561 15.5043 20.9898 17.4839 21.0717 17.5333C21.2197 17.6223 21.2207 17.6221 21.2286 17.515C21.24 17.3594 21.267 17.2226 21.3027 17.1386C21.3198 17.0984 21.3777 16.7688 21.4313 16.4063C21.8731 13.4173 21.8471 10.4305 21.3561 7.74613C21.3126 7.50825 21.2617 7.33825 21.2431 7.3685C21.2117 7.41913 13.4453 2.98338 13.3765 2.8755C13.3617 2.85238 13.12 2.96125 12.8393 3.1175ZM28.6175 11.4258C28.813 11.6949 28.8862 11.7751 28.818 11.6455C28.7897 11.5918 28.6971 11.471 28.6122 11.377L28.458 11.206L28.6175 11.4258ZM29.3325 12.4511C31.6881 15.9975 33.156 20.2156 33.4698 24.3409C33.4901 24.6068 33.5493 24.7375 33.6866 24.8185L33.822 24.8985L34.2101 24.4946C35.1687 23.4975 36.1232 21.9466 36.6717 20.4956C36.8693 19.9726 36.8295 19.9694 37.2837 20.5444C39.0333 22.7596 40.4713 26.3525 40.4965 28.572L40.4985 28.7505L44.5037 31.0623C48.5916 33.4216 48.6189 33.4365 48.594 33.2886C48.5861 33.2416 48.6038 33.2031 48.6335 33.2031C48.6631 33.2031 48.6722 33.1788 48.6538 33.1489C48.6353 33.119 48.644 33.0799 48.6728 33.062C48.7521 33.013 49.2403 31.3135 49.4346 30.4101C49.863 28.4179 49.9597 27.4939 49.9756 25.2441C49.9827 24.237 49.9746 23.546 49.9576 23.7085L49.9267 24.0039L39.517 17.9935C33.7917 14.6879 29.0595 11.9403 29.001 11.8876C28.9425 11.835 29.0916 12.0886 29.3325 12.4511Z" fill="#E79374"/>
<path fill-rule="evenodd" clip-rule="evenodd" d="M1.3051 16.8824C1.29148 16.9294 1.1701 17.3304 1.03523 17.7735C0.422603 19.7863 0.0671035 21.9598 0.0168535 23.999L-0.00952148 25.0732L3.88823 27.3194C6.03198 28.5546 8.30485 29.8644 8.93898 30.2299L10.0919 30.8943L10.0691 30.3031C9.98085 28.0113 10.6724 25.03 11.8231 22.7418C11.9007 22.5873 11.9535 22.461 11.9404 22.461C11.9271 22.461 11.8774 22.5356 11.8297 22.6269L11.7431 22.7929L6.55173 19.7949C3.69648 18.146 1.35348 16.7969 1.3451 16.7969C1.3366 16.7969 1.3186 16.8354 1.3051 16.8824ZM15.6374 24.585C15.6379 24.6924 15.6479 24.7306 15.6595 24.6699C15.6712 24.6091 15.6707 24.5213 15.6585 24.4745C15.6464 24.4279 15.6367 24.4775 15.6374 24.585ZM15.625 26.0699C15.625 27.0638 15.6936 28.8815 15.7634 29.7364L15.7972 30.1514L16.025 29.8456C16.5191 29.1822 18.0669 26.6207 18.0664 26.4674C18.0662 26.4436 16.8874 25.7509 15.9574 25.2283L15.625 25.0414V26.0699ZM28.1982 28.5645C28.3577 28.7256 28.4991 28.8574 28.5126 28.8574C28.526 28.8574 28.4065 28.7256 28.2471 28.5645C28.0876 28.4034 27.9461 28.2715 27.9327 28.2715C27.9194 28.2715 28.0387 28.4034 28.1982 28.5645ZM26.8129 32.0974C26.4815 33.7942 25.7757 35.5616 24.9076 36.8685C24.4809 37.5109 23.678 38.482 23.5274 38.538C23.4336 38.573 23.4262 38.5882 23.4864 38.6237C27.3084 40.8792 30.9865 42.9493 31.0255 42.8666C31.0497 42.8154 31.0895 42.7735 31.1139 42.7735C31.1382 42.7735 31.1445 42.7515 31.1279 42.7246C31.1114 42.6977 31.1176 42.6758 31.142 42.6758C31.1662 42.6758 31.3195 42.3956 31.4825 42.0532C32.4545 40.0112 32.7359 37.8125 32.2995 35.669C32.2015 35.1872 31.8419 33.9512 31.9052 34.314C31.9157 34.3744 31.917 34.4239 31.9079 34.4239C31.8669 34.4239 26.9784 31.5838 26.955 31.5464C26.9405 31.5233 26.8766 31.7712 26.8129 32.0974ZM20.6421 33.252C20.1512 34.258 19.6745 35.5692 19.6076 36.0975C19.5947 36.199 19.5742 36.298 19.5621 36.3176C19.54 36.3534 22.9455 38.3395 23.0837 38.3715C23.1359 38.3836 23.1276 38.3566 23.055 38.2786C22.9986 38.2183 22.9641 38.1501 22.9782 38.1274C22.9922 38.1046 22.982 38.086 22.9554 38.086C22.9287 38.086 22.8915 38.0365 22.8726 37.9761C22.8539 37.9156 22.8245 37.8553 22.8075 37.8418C22.7429 37.7909 21.9756 36.1367 21.8109 35.6934C21.4435 34.7046 21.2422 33.9249 21.0549 32.7636L21.0115 32.4951L20.6421 33.252ZM37.8757 38.4972C36.6729 40.3047 34.6994 42.1079 32.6904 43.2351C32.6099 43.2804 32.4382 43.3783 32.3091 43.4528L32.0742 43.5882L34.7261 45.1175C36.1846 45.9585 37.3857 46.6664 37.3952 46.6905C37.4047 46.7147 37.4541 46.6967 37.5051 46.6507C37.556 46.6046 37.598 46.5868 37.5984 46.6111C37.5989 46.6354 37.6152 46.6321 37.635 46.6037C37.6547 46.5755 37.7697 46.5021 37.8906 46.4406C38.6294 46.0652 40.3426 44.8173 41.4986 43.8126C42.3496 43.073 44.2545 41.148 43.9607 41.3245C43.9275 41.3444 42.6987 40.6637 41.0689 39.7225C39.5101 38.8224 38.2155 38.086 38.1921 38.086C38.1686 38.086 38.0262 38.271 37.8757 38.4972Z" fill="#E1745C"/>
</g>
<defs>
<clipPath id="clip0_9:93">
<rect width="50" height="50" fill="white"/>
</clipPath>
</defs>
</svg>
