<svg width="36" height="52" viewBox="0 0 36 52" fill="none" xmlns="http://www.w3.org/2000/svg">
<path fill-rule="evenodd" clip-rule="evenodd" d="M24 19C24 18.1716 24.6716 17.5 25.5 17.5H33C33.8284 17.5 34.5 18.1716 34.5 19V26.5C34.5 27.3284 33.8284 28 33 28C32.1716 28 31.5 27.3284 31.5 26.5V20.5H25.5C24.6716 20.5 24 19.8284 24 19Z" fill="#0357FF"/>
<path fill-rule="evenodd" clip-rule="evenodd" d="M33.4294 18.8233C33.9412 19.4747 33.8281 20.4177 33.1767 20.9295L22.6767 29.1795C22.157 29.5879 21.4312 29.6079 20.8897 29.2289L14.3099 24.623L3.93698 32.9213C3.29008 33.4389 2.34614 33.334 1.82863 32.6871C1.31112 32.0402 1.416 31.0962 2.06289 30.5787L13.3129 21.5787C13.8328 21.1628 14.5647 21.1394 15.1101 21.5212L21.6983 26.1329L31.3232 18.5706C31.9746 18.0587 32.9176 18.1719 33.4294 18.8233Z" fill="#0357FF"/>
<path fill-rule="evenodd" clip-rule="evenodd" d="M6.75 34C7.57843 34 8.25 34.6716 8.25 35.5V49C8.25 49.8284 7.57843 50.5 6.75 50.5C5.92157 50.5 5.25 49.8284 5.25 49V35.5C5.25 34.6716 5.92157 34 6.75 34Z" fill="#91B4FA"/>
<path fill-rule="evenodd" clip-rule="evenodd" d="M14.25 28C15.0784 28 15.75 28.6716 15.75 29.5V49C15.75 49.8284 15.0784 50.5 14.25 50.5C13.4216 50.5 12.75 49.8284 12.75 49V29.5C12.75 28.6716 13.4216 28 14.25 28Z" fill="#91B4FA"/>
<path fill-rule="evenodd" clip-rule="evenodd" d="M21.75 32.5C22.5784 32.5 23.25 33.1716 23.25 34V49C23.25 49.8284 22.5784 50.5 21.75 50.5C20.9216 50.5 20.25 49.8284 20.25 49V34C20.25 33.1716 20.9216 32.5 21.75 32.5Z" fill="#91B4FA"/>
<path fill-rule="evenodd" clip-rule="evenodd" d="M29.25 29.5C30.0784 29.5 30.75 30.1716 30.75 31V49C30.75 49.8284 30.0784 50.5 29.25 50.5C28.4216 50.5 27.75 49.8284 27.75 49V31C27.75 30.1716 28.4216 29.5 29.25 29.5Z" fill="#91B4FA"/>
</svg>
