<svg width="70" height="70" viewBox="0 0 70 70" fill="none" xmlns="http://www.w3.org/2000/svg">
<path fill-rule="evenodd" clip-rule="evenodd" d="M4.52075 34.9897V41.8592L9.41358 41.8588C12.5219 41.8583 14.3222 41.8447 14.35 41.8216C14.3866 41.7911 14.3845 41.785 14.3374 41.7845C14.26 41.7836 14.0875 41.6998 14.0875 41.6631C14.0875 41.6205 14.2273 41.626 14.3596 41.6733C14.4377 41.7014 14.4665 41.7299 14.4553 41.7675C14.442 41.8126 14.4972 41.8216 14.7857 41.8216H15.1322L15.1308 41.6423C15.13 41.5184 15.1128 41.4421 15.0752 41.3954C15.0057 41.3091 15.0066 41.2675 15.0792 41.2088C15.1732 41.1329 15.1552 40.9774 15.0449 40.913C14.8622 40.8066 14.8573 40.5935 15.0351 40.4843C15.1982 40.3842 15.1844 40.1969 15.0054 40.0848C14.6281 39.8484 14.6319 39.4063 15.0136 39.1753C15.1364 39.101 15.1375 39.0986 15.1375 38.9013V38.7022L14.9926 38.6175C14.3454 38.2389 14.3563 37.1772 15.0106 36.854L15.1375 36.7913V36.4944C15.1375 36.2369 15.1307 36.1975 15.0864 36.1975C14.8727 36.1975 14.4058 35.7183 14.2686 35.3584C13.9587 34.5449 14.3615 33.4597 15.0426 33.2733L15.1375 33.2475V32.9544V32.6616L15.0139 32.6088C14.6606 32.458 14.4347 31.9201 14.5528 31.5116C14.6326 31.236 14.9368 30.8754 15.0899 30.8754C15.1279 30.8754 15.1375 30.8356 15.1375 30.6773L15.1373 30.4791L14.974 30.3688C14.6431 30.145 14.6648 29.7433 15.019 29.5365C15.1765 29.4446 15.1924 29.2534 15.0489 29.1764C14.8722 29.0815 14.8666 28.8773 15.0379 28.7715C15.1562 28.6984 15.1711 28.5738 15.0719 28.4873L15.0062 28.4302L15.0719 28.3387C15.1872 28.1782 15.162 28.1578 14.8482 28.1578C14.6746 28.1578 14.5549 28.1734 14.549 28.197C14.5238 28.295 14.0583 28.4055 14.0583 28.3134C14.0583 28.2633 14.1325 28.1942 14.2242 28.1585C14.2697 28.1408 12.1254 28.1252 9.41358 28.1233L4.52075 28.1202V34.9897ZM13.5131 28.3824C13.4367 28.4626 13.2184 28.5555 13.1908 28.5197C13.1661 28.488 13.2342 28.4304 13.402 28.3412C13.5369 28.2696 13.5989 28.2925 13.5131 28.3824ZM14.6687 28.4377C14.7252 28.5256 14.606 28.6304 14.3666 28.7033C14.0819 28.7901 13.93 28.6965 14.0801 28.5271C14.2019 28.3899 14.5994 28.3294 14.6687 28.4377ZM13.6346 28.4458C13.6887 28.4726 13.5866 28.6485 13.517 28.6485C13.4976 28.6485 13.444 28.6739 13.3982 28.7049C13.2806 28.7842 13.1764 28.7799 13.1889 28.6961C13.1994 28.6252 13.4031 28.4841 13.5819 28.4236C13.5847 28.4227 13.6083 28.4327 13.6346 28.4458ZM13.825 28.7559C13.825 28.8553 13.7506 28.9264 13.5284 29.0399C13.2555 29.1792 13.1519 29.1563 13.2172 28.971C13.2893 28.7661 13.825 28.5765 13.825 28.7559ZM12.5417 28.988C12.5417 29.0365 12.3118 29.2525 12.2601 29.2525C12.1943 29.2525 12.2157 29.1909 12.3156 29.0929C12.4498 28.9613 12.5417 28.9187 12.5417 28.988ZM12.6583 29.132C12.6583 29.2077 12.4371 29.4265 12.3228 29.4634C12.1733 29.5121 12.2708 29.3091 12.4833 29.1293C12.5818 29.0462 12.6583 29.0473 12.6583 29.132ZM14.0416 29.123C14.1585 29.2743 14.0462 29.4822 13.7585 29.6468C13.4888 29.801 13.2417 29.7707 13.2417 29.5832C13.2417 29.279 13.8789 28.9124 14.0416 29.123ZM12.8788 29.2937C12.915 29.3696 12.824 29.5186 12.6493 29.6695C12.3531 29.9254 12.1753 29.8201 12.4133 29.5295C12.5974 29.3048 12.8282 29.188 12.8788 29.2937ZM57.8527 29.5023C57.7974 29.5739 57.6756 29.9027 57.5466 30.3283C57.4964 30.4943 57.4441 30.6641 57.4304 30.7056C57.4168 30.7472 57.3699 30.9001 57.3263 31.0453C57.2827 31.1907 57.2297 31.3605 57.2085 31.4228C57.1874 31.4851 57.1292 31.6719 57.0794 31.8379C57.0293 32.0041 56.9773 32.174 56.9637 32.2154C56.95 32.2569 56.9033 32.4098 56.8596 32.5551C56.816 32.7005 56.763 32.8704 56.7418 32.9327C56.7208 32.995 56.6625 33.1818 56.6127 33.3478C56.5628 33.5138 56.5108 33.6837 56.4972 33.7253C56.4835 33.7668 56.4366 33.9196 56.393 34.065C56.3493 34.2102 56.2964 34.38 56.2754 34.4423C56.234 34.5658 56.0378 35.2019 55.9204 35.5937C55.8801 35.7285 55.8302 35.8899 55.8099 35.9522C55.7894 36.0145 55.759 36.108 55.742 36.1599C55.7096 36.2595 55.5772 36.6932 55.454 37.1034C55.4136 37.2383 55.3637 37.3998 55.3432 37.4621C55.3227 37.5244 55.2923 37.6177 55.2755 37.6695C55.2448 37.7635 55.1024 38.2316 55.017 38.5188C54.9923 38.6019 54.962 38.7038 54.9496 38.7453C54.6742 39.6706 54.4129 39.9723 53.8359 40.0307C53.5988 40.0549 53.5321 40.1039 53.5633 40.2307C53.5895 40.338 53.5927 40.3383 55.0329 40.3306C56.1338 40.3249 56.3598 40.3147 56.3815 40.2705C56.4576 40.115 56.3949 40.0617 56.106 40.0359C55.6076 39.9915 55.5308 39.6518 55.8229 38.7831C55.8369 38.7416 55.8617 38.6567 55.8783 38.5944C55.8948 38.5322 55.9629 38.2944 56.0296 38.0659C56.0962 37.8376 56.1694 37.5871 56.1921 37.5092C56.2707 37.2392 56.3279 37.0465 56.3516 36.9713C56.3647 36.9299 56.3838 36.8576 56.3939 36.811C56.4209 36.6864 56.435 36.6853 57.7344 36.6966L58.9293 36.707L59.0222 37.0091C59.0733 37.1751 59.1509 37.4385 59.1946 37.5941C59.2384 37.7499 59.2908 37.9282 59.3113 37.9904C59.3318 38.0527 59.3843 38.2312 59.428 38.3868C59.4718 38.5426 59.5247 38.7208 59.5455 38.7831C59.5665 38.8454 59.6034 38.9729 59.6277 39.0662C59.6521 39.1595 59.6998 39.3293 59.734 39.4437C59.8713 39.9034 59.8683 39.9551 59.7003 40.0253C59.5934 40.0701 59.5435 40.244 59.6258 40.285C59.6972 40.3204 62.1609 40.3548 62.3145 40.3226C62.4517 40.2939 62.4604 40.2853 62.4604 40.1793V40.0665L62.227 40.038C61.5816 39.9587 61.3368 39.6679 60.9635 38.5356C60.9262 38.4225 60.8769 38.2821 60.8541 38.2233C60.8312 38.1646 60.8125 38.0998 60.8125 38.0794C60.8125 38.0591 60.7813 37.9542 60.7434 37.8466C60.7054 37.7388 60.6193 37.4723 60.5519 37.2544C60.4845 37.0363 60.4121 36.8071 60.3911 36.7449C60.3701 36.6826 60.3172 36.5127 60.2736 36.3673C60.2301 36.2222 60.1832 36.0693 60.1695 36.0276C60.1559 35.9862 60.1039 35.8163 60.054 35.6503C60.004 35.4841 59.946 35.2973 59.9252 35.235C59.8748 35.0844 59.8381 34.9677 59.777 34.7632C59.7492 34.6697 59.7154 34.5594 59.7023 34.518C59.689 34.4763 59.6372 34.3064 59.5873 34.1404C59.5374 33.9744 59.4791 33.7876 59.4581 33.7253C59.437 33.663 59.384 33.4932 59.3404 33.3478C59.2966 33.2024 59.2499 33.0495 59.2363 33.0081C59.2226 32.9666 59.1706 32.7968 59.1206 32.6306C59.0707 32.4646 59.0126 32.2777 58.9914 32.2154C58.9702 32.1532 58.9172 31.9833 58.8736 31.8379C58.8301 31.6927 58.7832 31.5399 58.7695 31.4982C58.7559 31.4568 58.7039 31.2869 58.654 31.1209C58.604 30.9547 58.5459 30.7678 58.5247 30.7056C58.5035 30.6433 58.416 30.3729 58.3303 30.1045C58.1299 29.4767 57.9995 29.3123 57.8527 29.5023ZM24.9667 29.6185C23.8924 29.8357 23.0739 30.3366 22.4259 31.1739C21.3941 32.5069 21.0262 34.3216 21.3542 36.4618C21.5199 37.5436 22.0566 38.608 22.7862 39.3022C22.8462 39.3592 22.9075 39.4059 22.9224 39.4059C22.9371 39.4059 22.9537 39.4192 22.9589 39.4358C22.9698 39.4686 23.2046 39.6532 23.363 39.7531C23.6565 39.9383 23.7863 40.0099 23.8289 40.0099C23.8546 40.0099 23.8899 40.028 23.9073 40.0504C23.9246 40.0728 23.9829 40.1059 24.0371 40.124C24.0912 40.1421 24.2273 40.1888 24.3395 40.228C25.0148 40.463 25.4777 40.538 26.2577 40.5387C27.2988 40.5394 28.1055 40.3577 28.7793 39.9709C29.0307 39.8264 29.0208 39.9159 29.0208 37.7923C29.0208 35.4433 29.0176 35.4571 29.5895 35.3853C29.8412 35.3539 29.9619 35.2214 29.8331 35.1183C29.7839 35.0792 26.653 35.0715 26.5926 35.1104C26.4222 35.2205 26.5592 35.3518 26.877 35.3831C27.5861 35.4531 27.5907 35.4669 27.612 37.5753C27.6332 39.6518 27.6418 39.621 27.0083 39.7456C26.4285 39.8595 25.1645 39.6253 24.9536 39.3647C24.9384 39.3459 24.909 39.3305 24.8885 39.3305C24.8678 39.3305 24.7653 39.2625 24.6605 39.1794C24.5556 39.0963 24.4569 39.0284 24.4412 39.0284C24.4254 39.0284 24.4125 39.0154 24.4125 38.9996C24.4125 38.9837 24.3617 38.9303 24.2998 38.8807C23.4071 38.1666 22.7792 36.3655 22.779 34.518C22.7789 33.6834 22.8174 33.3449 22.9953 32.6118C23.0342 32.4519 23.24 31.8979 23.2759 31.8569C23.285 31.8465 23.3238 31.7799 23.3621 31.7088C23.6843 31.1125 24.2221 30.6734 24.9667 30.3982C25.3895 30.242 26.5912 30.3106 27.0375 30.5165C27.0937 30.5425 27.192 30.5851 27.2562 30.6111C28.0418 30.9307 28.6125 31.7168 28.6125 32.4788C28.6125 32.6292 28.676 32.725 28.7758 32.725C28.8823 32.725 28.904 32.6014 28.9044 31.996C28.9046 31.7016 28.918 31.1307 28.9345 30.7273C28.9688 29.8771 29.0015 29.9591 28.6034 29.8975C28.4399 29.8722 28.2406 29.8373 28.1605 29.8201C27.5886 29.6964 27.4125 29.6638 27.0375 29.6117C26.4917 29.5361 25.3566 29.5397 24.9667 29.6185ZM40.8917 29.6176C40.5881 29.6849 40.0625 29.8506 39.9437 29.9163C39.8956 29.943 39.7841 30.0062 39.6958 30.0567C39.6076 30.1072 39.5223 30.155 39.5062 30.1629C39.4523 30.1894 39.0689 30.4746 39.0542 30.499C39.0462 30.5124 39.0182 30.5389 38.9919 30.5579C38.5931 30.8473 37.9288 31.8821 37.6857 32.593C37.6645 32.6553 37.6311 32.7486 37.6117 32.8004C37.5137 33.0627 37.3501 33.8662 37.3007 34.3291C37.1805 35.4535 37.3984 36.9629 37.8054 37.8247C37.8506 37.9205 37.8875 38.011 37.8875 38.026C37.8875 38.0953 38.2746 38.7369 38.4708 38.993C38.8533 39.4922 39.2929 39.8588 39.8855 40.1729C40.0339 40.2517 40.4252 40.3885 40.6145 40.4282C40.6948 40.4449 40.8392 40.4764 40.9355 40.4981C41.5481 40.6367 42.9826 40.4409 43.3956 40.1621C43.422 40.1442 43.5158 40.0923 43.6042 40.0466C44.2578 39.7089 45.4125 38.4359 45.4125 38.0532C45.4125 38.0289 45.4245 38.0092 45.4394 38.0092C45.4781 38.0092 45.8022 37.1335 45.8794 36.8203C46.2092 35.4823 46.1979 33.8349 45.851 32.7062C45.7457 32.3633 45.7175 32.2834 45.6841 32.2313C45.6631 32.1985 45.6458 32.1552 45.6458 32.135C45.6458 32.0875 45.4104 31.6155 45.3785 31.599C45.365 31.592 45.3542 31.5707 45.3542 31.5514C45.3542 31.4767 44.9752 30.9628 44.7855 30.7803C44.7212 30.7185 44.6556 30.6485 44.6395 30.6247C44.5833 30.5416 44.0833 30.1761 43.8812 30.0703C43.7689 30.0117 43.6376 29.9419 43.5895 29.9154C43.4686 29.8488 42.9173 29.6833 42.5817 29.6128C42.22 29.537 41.2428 29.5397 40.8917 29.6176ZM11.8125 29.72C11.8125 29.7773 11.5964 30.0452 11.55 30.0452C11.4896 30.0452 11.5248 29.953 11.6387 29.8128C11.763 29.66 11.8125 29.6335 11.8125 29.72ZM11.9875 29.7865C11.9875 29.8434 11.6858 30.2338 11.6419 30.2338C11.5874 30.2338 11.6034 30.1011 11.6714 29.9892C11.7787 29.8126 11.9875 29.6787 11.9875 29.7865ZM16.7806 29.7736C16.7029 29.7879 16.6735 29.8753 16.7135 29.9723C16.7389 30.0336 16.7772 30.0454 16.9542 30.0472C17.4057 30.0517 17.5654 30.2447 17.6153 30.8457C17.6624 31.411 17.6531 38.2067 17.6045 38.9717C17.5476 39.8652 17.5031 39.9542 17.0849 40.0149C16.7279 40.0667 16.7125 40.0735 16.7125 40.1781C16.7125 40.3238 16.7008 40.3226 18.4158 40.3294C20.2816 40.3369 20.2125 40.3421 20.2125 40.1963C20.2125 40.0633 20.1971 40.0572 19.7573 40.0151C19.2561 39.9673 19.1508 39.8749 19.0699 39.4129C18.9996 39.0105 19.0155 30.6725 19.0872 30.4791C19.2013 30.1709 19.314 30.088 19.6696 30.0504C19.9076 30.0255 19.9855 29.9539 19.9213 29.8196C19.9001 29.775 17.0026 29.7326 16.7806 29.7736ZM31.0261 29.7739C30.9596 29.7838 30.9458 29.8042 30.9458 29.8925C30.9458 30.0234 30.9848 30.0452 31.2191 30.0452C31.5808 30.0452 31.8386 30.2377 31.9114 30.5622C31.9699 30.8229 31.9716 38.7715 31.9133 39.2548C31.8355 39.9005 31.7772 39.9811 31.3542 40.0271C31.0935 40.0556 31.0333 40.0882 31.0333 40.201C31.0333 40.3201 31.0719 40.3235 32.5328 40.3297C33.3203 40.3328 34.4375 40.3498 35.0154 40.367C36.4334 40.4098 36.435 40.4091 36.5125 39.8022C36.6586 38.6554 36.6705 38.151 36.5515 38.129C36.4666 38.1134 36.3998 38.1834 36.4003 38.2876C36.4021 38.719 36.1051 39.2666 35.7801 39.4306L35.5687 39.5372L34.8395 39.5354C33.6556 39.5325 33.5223 39.443 33.412 38.5784C33.3578 38.1535 33.3429 31.0475 33.3954 30.689C33.4664 30.2051 33.603 30.0769 34.0812 30.0454L34.373 30.0262L34.382 29.9036C34.3892 29.8067 34.3801 29.7802 34.3383 29.7779C34.153 29.768 31.091 29.7644 31.0261 29.7739ZM47.3065 29.789C47.2428 29.8196 47.2313 29.9408 47.2864 29.9985C47.3065 30.0194 47.4475 30.0436 47.6 30.0524C47.9724 30.0735 48.137 30.1738 48.2417 30.4426L48.3145 30.6302V34.8953C48.3145 40.259 48.3523 39.9358 47.7167 40.0269C47.4579 40.0638 47.439 40.0724 47.4299 40.1557C47.4113 40.3244 47.4239 40.3263 48.6717 40.3303C49.3255 40.3326 50.0727 40.3489 50.3323 40.3666C51.002 40.4121 51.6582 40.2905 52.0268 40.0522C52.3295 39.8566 52.416 39.7922 52.5544 39.66C52.8491 39.3782 53.2875 38.6834 53.2875 38.4982C53.2875 38.4778 53.299 38.4318 53.3132 38.3956C53.5932 37.6799 53.4817 36.4441 53.0705 35.7069C52.9242 35.4447 52.5117 34.9143 52.4539 34.9143C52.4438 34.9143 52.3876 34.8661 52.3292 34.8069C52.213 34.6899 51.6336 34.3103 51.5709 34.3103C51.5496 34.3103 51.5889 34.2489 51.6587 34.174C52.3087 33.4739 52.5967 32.7807 52.598 31.9136C52.5997 30.8029 52.1039 30.1124 51.1028 29.8309C50.8942 29.7723 47.4216 29.734 47.3065 29.789ZM62.6153 29.7825C62.4085 29.8457 62.5457 30.0452 62.7961 30.0452C63.1841 30.0452 63.4149 30.2023 63.5054 30.5282C63.5782 30.7898 63.5643 39.1432 63.4907 39.484C63.3965 39.9193 63.3262 39.9899 62.9487 40.0282C62.6937 40.054 62.6776 40.0608 62.6607 40.1487C62.6283 40.3154 62.6311 40.3156 64.4033 40.3378C68.3387 40.3872 67.9854 40.4209 68.0793 39.987C68.1693 39.5719 68.2701 38.3931 68.2316 38.2074C68.191 38.0115 67.9903 38.1429 67.9884 38.3666C67.9847 38.8175 67.6901 39.2994 67.3167 39.4654C67.0776 39.5719 65.8579 39.5698 65.5429 39.4627C64.9614 39.2648 64.9542 39.2041 64.9542 34.5001C64.9542 29.9523 64.9374 30.0522 65.6993 30.0468C65.8414 30.0459 65.948 30.0273 65.9692 29.9999C66.0133 29.9428 66.0145 29.8314 65.9713 29.797C65.9328 29.7662 62.7142 29.7524 62.6153 29.7825ZM14.3262 29.8146C14.8013 30.0522 14.3864 30.8729 13.7854 30.8847C13.3045 30.8942 13.2123 30.3876 13.6234 29.9944C13.8201 29.8065 14.144 29.7236 14.3262 29.8146ZM12.2208 29.9612C12.2208 30.1648 11.8323 30.6027 11.7266 30.5183C11.6132 30.4275 11.9586 29.8941 12.131 29.8941C12.1977 29.8941 12.2208 29.9113 12.2208 29.9612ZM12.601 30.2365C12.6688 30.4003 12.5186 30.7164 12.2705 30.9327C11.977 31.1884 11.8044 31.0373 11.9556 30.6569C12.1037 30.2843 12.5111 30.0189 12.601 30.2365ZM41.9354 30.3283C42.0682 30.3586 42.2019 30.401 42.2324 30.422C42.2628 30.4431 42.3087 30.4603 42.334 30.4603C42.4396 30.4603 43.1287 30.9395 43.1618 31.036C43.1671 31.0514 43.1842 31.0643 43.1999 31.0643C43.2285 31.0643 43.5934 31.5272 43.711 31.7125C44.2559 32.5717 44.5667 33.8927 44.5667 35.3496C44.5667 36.3001 44.467 37.1056 44.272 37.7323C44.2536 37.7911 44.2255 37.882 44.2095 37.9338C44.0585 38.4237 43.5956 39.1554 43.3191 39.3416C42.8849 39.6339 42.8718 39.6403 42.525 39.7279C41.776 39.9175 40.6738 39.554 40.1943 38.9591C40.1665 38.9246 40.0988 38.8442 40.0437 38.7806C39.4396 38.0813 39.001 36.9249 38.8524 35.6401C38.8124 35.2925 38.8111 33.8288 38.8507 33.5333C38.9009 33.1594 38.9709 32.7492 39.0015 32.6496C39.0174 32.5977 39.05 32.4786 39.0738 32.3853C39.145 32.1063 39.3246 31.6547 39.404 31.5548C39.4123 31.5444 39.4565 31.471 39.5024 31.3915C39.6121 31.2011 39.7139 31.0688 39.8562 30.9316C39.9204 30.87 39.9794 30.8106 39.9875 30.8002C40.0146 30.7647 40.1184 30.6868 40.1917 30.6469C40.2318 30.6252 40.317 30.5772 40.3812 30.5402C40.8168 30.2891 41.4108 30.2082 41.9354 30.3283ZM50.3709 30.4175C51.538 30.8514 51.8486 33.4955 50.8039 34.1022C50.627 34.205 49.771 34.2639 49.7045 34.1778C49.6805 34.1468 49.662 30.7115 49.6849 30.5479C49.714 30.3414 50.0132 30.2846 50.3709 30.4175ZM13.2344 30.7719C13.4354 31.014 13.2162 31.6409 12.8495 31.873C12.513 32.0861 12.2929 31.9693 12.295 31.5788C12.2983 30.9628 12.937 30.4141 13.2344 30.7719ZM11.0785 30.7905C10.9998 31.0195 10.8682 31.2138 10.8274 31.161C10.8017 31.1275 11.001 30.7622 11.0451 30.7622C11.0687 30.7622 11.0838 30.7751 11.0785 30.7905ZM11.2292 30.8666C11.2292 30.9479 11.0582 31.2885 10.99 31.3429C10.8631 31.4439 10.8913 31.2396 11.0399 30.9794C11.144 30.7971 11.2292 30.7461 11.2292 30.8666ZM11.4917 30.9905C11.4917 31.2206 11.2084 31.6717 11.0981 31.6169C11.0236 31.5797 11.0488 31.4387 11.1748 31.1886C11.3449 30.8507 11.4917 30.759 11.4917 30.9905ZM14.1988 31.7131C14.435 31.8585 14.5626 32.2562 14.4968 32.6432C14.2956 33.8293 13.0018 33.9142 13.0018 32.7415C13.0018 31.9294 13.6481 31.3741 14.1988 31.7131ZM10.5138 32.1292C10.4508 32.3176 10.4153 32.3853 10.3798 32.3853C10.3372 32.3853 10.3509 32.3015 10.4282 32.0864C10.5224 31.8246 10.6025 31.8646 10.5138 32.1292ZM10.7333 31.991C10.7333 32.0938 10.5541 32.5364 10.5124 32.5364C10.4491 32.5364 10.4618 32.3753 10.5434 32.1443C10.6276 31.9065 10.7333 31.8212 10.7333 31.991ZM10.9914 31.996C11.0553 32.1441 10.8318 32.7628 10.7142 32.7628C10.5975 32.7628 10.6734 32.2605 10.8222 32.0499C10.9163 31.9165 10.952 31.9052 10.9914 31.996ZM11.4473 32.0825C11.5904 32.2872 11.3151 33.1025 11.1029 33.1025C10.9359 33.1025 10.9049 32.7567 11.0402 32.3993C11.168 32.0612 11.3391 31.9278 11.4473 32.0825ZM12.2412 32.2816C12.4285 32.5475 12.4038 33.0067 12.1814 33.3944C11.8508 33.9704 11.3986 33.6723 11.5173 32.9565C11.6083 32.407 12.0438 32.001 12.2412 32.2816ZM57.7928 32.6779C57.8368 32.8387 57.891 33.0239 57.9134 33.0894C57.9358 33.1546 57.9542 33.2343 57.9542 33.2663C57.9542 33.2984 57.9673 33.3349 57.9833 33.3478C57.9994 33.3607 58.0125 33.4094 58.0125 33.456C58.0125 33.5027 58.0317 33.574 58.0553 33.6141C58.0788 33.6544 58.0986 33.7219 58.0991 33.764C58.0996 33.8062 58.1178 33.8741 58.1395 33.9151C58.1612 33.9559 58.1861 34.032 58.1946 34.0838C58.2032 34.1357 58.244 34.2972 58.2853 34.4423C58.3266 34.5877 58.3989 34.8425 58.4461 35.0085C58.4932 35.1747 58.5723 35.4513 58.6218 35.6234C58.7331 36.0104 58.836 35.9742 57.6623 35.9622L56.6854 35.9522L56.6926 35.8578C56.6996 35.7683 56.7628 35.5384 56.8197 35.396C56.834 35.36 56.8458 35.2997 56.8458 35.2619C56.8458 35.2243 56.858 35.1775 56.8729 35.1577C56.9005 35.1211 56.9488 34.9591 57.0522 34.5562C57.0841 34.4321 57.123 34.3141 57.1384 34.294C57.1539 34.2738 57.1667 34.2217 57.1667 34.1783C57.1667 34.1346 57.1781 34.0827 57.1922 34.063C57.2062 34.0433 57.2451 33.9253 57.2783 33.8007C57.3116 33.6762 57.3671 33.4807 57.4016 33.3666C57.436 33.2524 57.471 33.1206 57.4793 33.0735C57.4877 33.0267 57.506 32.9789 57.5202 32.9676C57.5342 32.9562 57.5463 32.9098 57.5468 32.8643C57.5473 32.8188 57.5669 32.7486 57.5905 32.7082C57.614 32.6682 57.6333 32.5993 57.6333 32.5554C57.6333 32.4929 57.6807 32.3853 57.7081 32.3853C57.7108 32.3853 57.7489 32.5169 57.7928 32.6779ZM10.64 33.4314C10.6503 33.6633 10.608 33.8918 10.5322 34.0129C10.4524 34.1404 10.3833 34.0551 10.3833 33.8288C10.3833 33.3324 10.6192 32.9671 10.64 33.4314ZM10.3435 33.5247C10.3236 33.7731 10.2804 33.9076 10.2282 33.8839C10.1792 33.8614 10.199 33.4474 10.2541 33.3383C10.326 33.1965 10.3638 33.2753 10.3435 33.5247ZM10.1575 33.6338C10.1439 33.702 10.1169 33.7647 10.0977 33.7731C10.0452 33.7955 10.0539 33.5774 10.112 33.4126L10.1615 33.2724L10.172 33.391C10.1776 33.4563 10.1712 33.5657 10.1575 33.6338ZM13.1883 33.6764C14.0355 33.9253 13.8871 35.7912 13.0196 35.7996C12.1828 35.8075 12.0724 34.0188 12.8889 33.6821C13.0286 33.6245 13.0123 33.6248 13.1883 33.6764ZM11.8155 34.0191C11.9569 34.1423 12.0258 34.3495 12.04 34.6948C12.0699 35.4268 11.627 35.8442 11.3647 35.331C11.0493 34.7141 11.4095 33.6658 11.8155 34.0191ZM11.0206 34.3237C11.1568 34.6933 11.0546 35.3672 10.8622 35.3672C10.6561 35.3672 10.5663 34.5746 10.7401 34.2888C10.8216 34.1549 10.9648 34.1726 11.0206 34.3237ZM10.5262 34.467C10.5901 34.7037 10.5534 35.15 10.4643 35.2214C10.3266 35.3314 10.2503 34.7963 10.3535 34.4446C10.3941 34.3064 10.4863 34.3184 10.5262 34.467ZM10.2401 34.5431C10.3089 34.7096 10.2364 35.191 10.1526 35.1238C10.1183 35.0964 10.1073 34.5291 10.1402 34.4865C10.1747 34.4419 10.2055 34.4593 10.2401 34.5431ZM10.0756 34.8205C10.0739 35.0355 10.0576 35.0891 10.0061 35.0479C9.97235 35.021 9.96343 34.6953 9.99335 34.5938C10.0285 34.4754 10.0772 34.6095 10.0756 34.8205ZM50.6042 34.9408C51.1759 35.1242 51.7151 35.8562 51.9437 36.7591C52.3812 38.4871 51.8892 39.7078 50.7557 39.7078C50.2549 39.7078 49.8799 39.5191 49.75 39.2021C49.6877 39.0501 49.6253 35.0844 49.6821 34.893C49.704 34.8189 50.3247 34.8511 50.6042 34.9408ZM10.5714 35.7651C10.6566 35.9882 10.6556 36.4384 10.5696 36.4543C10.4275 36.4806 10.3082 35.8261 10.4211 35.6395C10.4659 35.5656 10.5089 35.6019 10.5714 35.7651ZM10.2914 35.8485C10.34 35.9678 10.3631 36.3748 10.3231 36.4067C10.2658 36.4525 10.2154 36.3266 10.1937 36.0838C10.1685 35.8039 10.2216 35.6764 10.2914 35.8485ZM11.9947 35.9037C12.2124 36.1003 12.3616 36.6124 12.3037 36.9638C12.2269 37.4299 11.8701 37.4603 11.6265 37.0214C11.2623 36.3657 11.5475 35.4997 11.9947 35.9037ZM13.9326 35.916C14.2719 36.1103 14.4566 36.5148 14.4321 37.0105C14.3713 38.2448 12.9887 38.0104 12.9269 36.7555C12.8898 36.0043 13.3768 35.598 13.9326 35.916ZM10.1484 36.0371C10.2088 36.3186 10.171 36.5023 10.0963 36.2901C10.0555 36.1744 10.0513 35.8956 10.0903 35.8956C10.1055 35.8956 10.1318 35.9592 10.1484 36.0371ZM11.1674 36.4477C11.2479 36.5209 11.3921 36.8991 11.4196 37.1095C11.4707 37.5019 11.2563 37.6344 11.0745 37.3228C10.8017 36.8549 10.8731 36.1812 11.1674 36.4477ZM10.7585 36.8223C10.9053 37.0637 10.972 37.5941 10.8558 37.5941C10.7635 37.5941 10.5875 37.15 10.5875 36.9179C10.5875 36.6977 10.6585 36.6579 10.7585 36.8223ZM10.5535 37.1579C10.6519 37.4218 10.6713 37.6061 10.599 37.588C10.5301 37.5708 10.4382 37.3264 10.4188 37.1079C10.399 36.8868 10.4611 36.9097 10.5535 37.1579ZM10.4149 37.3183C10.4776 37.5076 10.4856 37.5941 10.4403 37.5941C10.4009 37.5941 10.2973 37.3002 10.2965 37.186C10.2956 37.0601 10.3491 37.1199 10.4149 37.3183ZM12.6506 37.4745C13.2209 37.7744 13.3857 38.8019 12.8634 38.8019C12.3602 38.8019 11.9133 37.7748 12.288 37.4793C12.401 37.3901 12.4878 37.3889 12.6506 37.4745ZM11.1624 38.0285C11.2521 38.11 11.4333 38.5104 11.4333 38.6275C11.4333 38.7564 11.3174 38.7641 11.2275 38.6415C10.9713 38.2919 10.92 37.8088 11.1624 38.0285ZM11.0631 38.4875C11.1653 38.6884 11.2007 38.8397 11.1456 38.8397C11.0477 38.8397 10.826 38.409 10.8617 38.2885C10.8871 38.2029 10.9497 38.2649 11.0631 38.4875ZM12.2192 38.6182C12.4236 38.8814 12.4917 39.0938 12.4239 39.2573C12.3389 39.4629 11.9534 39.1971 11.8104 38.8343C11.6231 38.3591 11.903 38.2112 12.2192 38.6182ZM10.9077 38.6037C10.9952 38.784 11.0169 38.8775 10.9711 38.8775C10.9363 38.8775 10.865 38.7659 10.8097 38.6246C10.7081 38.3648 10.7838 38.3487 10.9077 38.6037ZM14.1003 38.8214C14.6127 39.21 14.5682 39.8441 14.0292 39.8371C13.6318 39.8319 13.272 39.4451 13.2709 39.0218C13.2702 38.7054 13.7837 38.5813 14.1003 38.8214ZM11.8464 39.1389C12.0797 39.4491 12.1084 39.6518 11.9124 39.6034C11.8284 39.5825 11.5575 39.2122 11.5327 39.0841C11.484 38.8338 11.6373 38.8605 11.8464 39.1389ZM11.6637 39.4654C11.8235 39.6917 11.838 39.7352 11.7665 39.7707C11.7024 39.8027 11.4333 39.4557 11.4333 39.3413C11.4333 39.2016 11.5045 39.2401 11.6637 39.4654ZM11.5269 39.621C11.6275 39.7483 11.6693 39.8588 11.6168 39.8588C11.5797 39.8588 11.375 39.5807 11.375 39.5304C11.375 39.4519 11.4089 39.4722 11.5269 39.621ZM12.4735 39.9059C12.755 40.0633 12.9512 40.3836 12.8033 40.4442C12.6385 40.512 12.1943 40.0189 12.2986 39.884C12.3273 39.8466 12.3791 39.8532 12.4735 39.9059ZM13.5333 39.908C13.9972 40.1261 14.1482 40.5761 13.7576 40.5761C13.4617 40.5761 13.125 40.2746 13.125 40.0099C13.125 39.8652 13.3322 39.8133 13.5333 39.908ZM12.44 40.3364C12.5039 40.3917 12.5792 40.4673 12.6073 40.5047C12.7594 40.7076 12.5429 40.6861 12.3476 40.4789C12.1361 40.2547 12.2111 40.139 12.44 40.3364ZM12.3833 40.5779C12.5072 40.6882 12.5473 40.7647 12.4813 40.7647C12.4068 40.7647 12.1917 40.5636 12.1917 40.4938C12.1917 40.4354 12.254 40.4626 12.3833 40.5779ZM13.4165 40.608C13.8019 40.8333 13.7571 41.1382 13.3691 40.9309C13.1334 40.8048 12.9895 40.5856 13.1031 40.5251C13.1526 40.4986 13.2928 40.5357 13.4165 40.608ZM13.3245 40.9941C13.5196 41.1203 13.56 41.2176 13.4176 41.2176C13.2643 41.2176 13.0081 41.0077 13.0513 40.9173C13.0809 40.8553 13.132 40.8696 13.3245 40.9941ZM14.5715 41.1021C14.8015 41.2337 14.7164 41.3934 14.4364 41.3556C14.1487 41.3166 13.9155 41.1017 14.0656 41.0138C14.1335 40.9742 14.4422 41.0281 14.5715 41.1021ZM13.2653 41.2185C13.4612 41.3411 13.406 41.4292 13.2043 41.3159C13.1526 41.2872 13.0842 41.2367 13.052 41.2041C12.9608 41.1112 13.1098 41.1212 13.2653 41.2185ZM14.3258 41.4224C14.5206 41.4828 14.5542 41.5057 14.5542 41.5784C14.5542 41.679 14.1584 41.6112 14.0859 41.4982C14.0056 41.3732 14.0852 41.3481 14.3258 41.4224Z" fill="#04447C"/>
<path fill-rule="evenodd" clip-rule="evenodd" d="M14.2357 28.1871C14.1648 28.2224 14.1011 28.2739 14.094 28.3013C14.0773 28.366 14.318 28.3257 14.4667 28.239C14.5227 28.2061 14.6081 28.1679 14.6562 28.154C14.7185 28.1362 14.6893 28.1282 14.5542 28.1262C14.4408 28.1244 14.3127 28.1488 14.2357 28.1871ZM13.3292 28.4023C13.2541 28.4541 13.2204 28.494 13.2501 28.4949C13.303 28.4965 13.5333 28.3592 13.5333 28.3259C13.5333 28.2861 13.4538 28.3157 13.3292 28.4023ZM15.0822 28.3422C15.032 28.3835 15.061 28.4965 15.1219 28.4965C15.1503 28.4965 15.1667 28.4618 15.1667 28.4023C15.1667 28.3019 15.1478 28.2886 15.0822 28.3422ZM14.3792 28.4086C14.1323 28.4596 13.976 28.6081 14.0877 28.6853C14.1918 28.7576 14.6188 28.6283 14.6526 28.5141C14.6821 28.4145 14.5666 28.3699 14.3792 28.4086ZM13.3656 28.5533C13.2008 28.6502 13.1561 28.7472 13.2926 28.7116C13.4195 28.6788 13.65 28.5409 13.65 28.4978C13.65 28.4337 13.5287 28.4573 13.3656 28.5533ZM13.5623 28.7198C13.2755 28.8357 13.1082 29.1021 13.3236 29.0996C13.4524 29.0982 13.7812 28.8683 13.7812 28.7796C13.7812 28.6951 13.6871 28.6693 13.5623 28.7198ZM15.043 28.7821C14.9305 28.8611 14.9051 29.0174 14.9905 29.1068C15.1209 29.2434 15.1667 29.2024 15.1667 28.9494C15.1667 28.7044 15.1623 28.6985 15.043 28.7821ZM12.3392 29.1032C12.2712 29.167 12.2223 29.2282 12.2306 29.2391C12.2458 29.2588 12.5125 29.0366 12.5125 29.0042C12.5125 28.9623 12.4537 28.9958 12.3392 29.1032ZM12.4171 29.2232C12.2776 29.3482 12.2332 29.4223 12.2769 29.4574C12.3076 29.4818 12.622 29.2169 12.6418 29.1498C12.6682 29.0611 12.5578 29.0971 12.4171 29.2232ZM13.6465 29.1526C13.2048 29.3568 13.1176 29.7889 13.5345 29.707C13.7865 29.6576 14.0875 29.3983 14.0875 29.2309C14.0875 29.1039 13.8451 29.0608 13.6465 29.1526ZM12.6418 29.348C12.4778 29.4529 12.3336 29.6315 12.3433 29.7183C12.3564 29.8356 12.4542 29.8082 12.6562 29.6309C12.9383 29.3829 12.9272 29.1657 12.6418 29.348ZM14.9746 29.5869C14.6792 29.82 14.6942 30.1986 15.0054 30.3669C15.1674 30.4545 15.1667 30.4566 15.1667 29.9685C15.1667 29.4635 15.1566 29.4433 14.9746 29.5869ZM11.665 29.8154C11.5964 29.8997 11.5496 29.9805 11.5608 29.995C11.572 30.0097 11.6359 29.9506 11.7028 29.8644C11.8611 29.6592 11.8274 29.6155 11.665 29.8154ZM11.855 29.8125C11.7609 29.8868 11.6083 30.1017 11.6083 30.1601C11.6083 30.2417 11.6928 30.1828 11.8242 30.01C11.9808 29.8043 11.9969 29.7008 11.855 29.8125ZM13.7744 29.9026C13.3658 30.1855 13.2613 30.6165 13.5537 30.8121C13.9302 31.0637 14.6305 30.4837 14.4975 30.0308C14.4321 29.808 14.017 29.7346 13.7744 29.9026ZM12.0601 29.9477C11.9467 30.0097 11.725 30.3225 11.725 30.4208C11.725 30.5675 11.8559 30.5125 12.03 30.2926C12.2379 30.0299 12.2545 29.8413 12.0601 29.9477ZM12.3497 30.2109C12.0183 30.3977 11.7871 30.9867 12.0332 31.018C12.2951 31.0511 12.7412 30.3334 12.5436 30.1964C12.4731 30.1477 12.4603 30.1486 12.3497 30.2109ZM12.848 30.7134C12.6378 30.7818 12.3945 31.1072 12.3226 31.4166C12.1462 32.175 12.9741 32.0826 13.244 31.3138C13.3971 30.8771 13.2113 30.5954 12.848 30.7134ZM10.9403 30.9258C10.8467 31.102 10.8348 31.1387 10.8719 31.1387C10.9023 31.1385 11.0647 30.8001 11.046 30.7757C11.0374 30.7648 10.99 30.8323 10.9403 30.9258ZM11.0406 31.016C10.9387 31.1958 10.9053 31.3473 10.9739 31.3183C11.0129 31.3018 11.2292 30.9204 11.2292 30.8681C11.2292 30.78 11.1305 30.8574 11.0406 31.016ZM14.977 30.9632C14.35 31.3421 14.4167 32.3648 15.0848 32.6128L15.1667 32.6431V31.7588C15.1667 31.2725 15.1567 30.8746 15.1448 30.8749C15.1328 30.8751 15.0573 30.9149 14.977 30.9632ZM11.2824 31.0325C11.179 31.1756 11.0833 31.4075 11.0833 31.5146C11.0833 31.7262 11.3066 31.4949 11.4362 31.1491C11.5325 30.893 11.4359 30.8198 11.2824 31.0325ZM13.5926 31.7062C13.1929 31.8922 12.9615 32.3895 13.024 32.9283C13.125 33.8 14.1741 33.7209 14.434 32.8218C14.6596 32.0419 14.1951 31.4261 13.5926 31.7062ZM10.4443 32.0946C10.409 32.1947 10.3854 32.2966 10.392 32.3211C10.3985 32.3453 10.4333 32.2853 10.4694 32.1875C10.5052 32.0894 10.5289 31.9875 10.5219 31.961C10.5147 31.9343 10.4799 31.9943 10.4443 32.0946ZM10.5565 32.1759C10.4599 32.4513 10.4534 32.4975 10.5114 32.4975C10.5553 32.4975 10.6669 32.2199 10.6944 32.0419C10.725 31.8433 10.6461 31.92 10.5565 32.1759ZM10.8419 32.0351C10.7271 32.1995 10.6269 32.6366 10.6865 32.7138C10.7515 32.7978 10.9699 32.3408 10.9776 32.105C10.9819 31.968 10.9135 31.9327 10.8419 32.0351ZM11.1961 32.1483C10.9714 32.4679 10.8997 32.9471 11.0575 33.0752C11.2192 33.2066 11.5194 32.4939 11.4509 32.1413C11.4247 32.0054 11.2943 32.009 11.1961 32.1483ZM11.8701 32.2973C11.4292 32.6882 11.3839 33.6516 11.8065 33.6471C12.1891 33.6432 12.5121 32.6891 12.2523 32.3308C12.1672 32.2135 11.9828 32.1972 11.8701 32.2973ZM10.504 33.3026C10.4485 33.3891 10.3721 33.8312 10.3936 33.9415C10.4401 34.1818 10.577 33.9931 10.6162 33.6344C10.6524 33.3029 10.6011 33.1513 10.504 33.3026ZM14.9455 33.3418C13.8778 33.8554 13.9543 35.7786 15.0573 36.1532L15.1667 36.1903V34.7215C15.1667 33.9134 15.1567 33.2533 15.1448 33.2544C15.1328 33.2555 15.043 33.2947 14.9455 33.3418ZM10.2704 33.3409C10.2235 33.414 10.1895 33.8942 10.2314 33.8942C10.265 33.8942 10.2718 33.8699 10.3259 33.5608C10.3631 33.3475 10.3358 33.239 10.2704 33.3409ZM10.1201 33.4247C10.0845 33.5459 10.0824 33.8253 10.1178 33.7431C10.1465 33.6763 10.1846 33.328 10.1633 33.328C10.1552 33.328 10.1358 33.3715 10.1201 33.4247ZM12.8158 33.7418C12.3161 34.0296 12.1852 34.9366 12.5643 35.4829C12.8658 35.9175 13.2888 35.8717 13.5826 35.373C14.0355 34.6046 13.4564 33.3728 12.8158 33.7418ZM11.5029 34.0416C11.1218 34.3423 11.229 35.5171 11.6375 35.5171C11.8764 35.5171 12.0206 35.2163 12.0197 34.7196C12.0188 34.1458 11.7756 33.8264 11.5029 34.0416ZM10.7614 34.2918C10.6626 34.428 10.6519 35.1155 10.7464 35.2507C10.8965 35.4654 11.0612 35.2145 11.0644 34.7668C11.0675 34.3127 10.9174 34.0772 10.7614 34.2918ZM10.3694 34.4583C10.284 34.6721 10.328 35.2152 10.4307 35.2152C10.5338 35.2152 10.5784 34.5294 10.4834 34.4064C10.423 34.3281 10.4212 34.329 10.3694 34.4583ZM10.1332 34.6325C10.1223 34.7065 10.1208 34.8354 10.1293 34.9187C10.1573 35.1887 10.2091 35.1681 10.2307 34.8784C10.255 34.5505 10.1745 34.3476 10.1332 34.6325ZM10.0042 34.7978C10.0042 34.9251 10.0172 35.0265 10.0333 35.0265C10.0494 35.0265 10.0625 34.9341 10.0625 34.8211C10.0625 34.7081 10.0494 34.6053 10.0333 34.5924C10.0151 34.5779 10.0042 34.6549 10.0042 34.7978ZM10.4183 35.6756C10.342 35.7745 10.4312 36.3552 10.5338 36.4261C10.6102 36.4791 10.6274 36.401 10.6099 36.0823C10.5908 35.7385 10.5072 35.5608 10.4183 35.6756ZM10.2004 35.8667C10.1808 35.9331 10.2371 36.314 10.276 36.3783C10.3344 36.4746 10.3535 36.3285 10.3145 36.0816C10.2779 35.8497 10.2314 35.7621 10.2004 35.8667ZM11.5848 35.9485C11.3932 36.2311 11.4754 36.8288 11.7502 37.1499C11.9688 37.4054 12.1609 37.3639 12.2684 37.0376C12.4687 36.429 11.8874 35.5028 11.5848 35.9485ZM13.4167 35.8534C12.6667 36.0572 12.8196 37.5227 13.6166 37.7688C14.0721 37.9097 14.4083 37.5603 14.4083 36.9463C14.4083 36.2307 13.9375 35.7118 13.4167 35.8534ZM10.0942 36.0832C10.0933 36.1768 10.1052 36.2787 10.1208 36.3097C10.1573 36.3828 10.1573 36.0989 10.1208 35.989C10.1017 35.9315 10.0954 35.9541 10.0942 36.0832ZM10.9629 36.4478C10.854 36.6184 10.9769 37.2149 11.1592 37.4006C11.396 37.6416 11.4803 37.2362 11.2975 36.7352C11.189 36.4374 11.0474 36.3158 10.9629 36.4478ZM10.6167 36.925C10.6167 37.2065 10.7901 37.6076 10.8806 37.5354C10.9658 37.4672 10.7793 36.7962 10.6676 36.7694C10.6253 36.7592 10.6167 36.7857 10.6167 36.925ZM14.9306 36.932C14.3997 37.2899 14.3904 38.1489 14.9133 38.537C15.1805 38.7354 15.1667 38.7789 15.1667 37.7442C15.1667 36.7176 15.18 36.7638 14.9306 36.932ZM10.4225 37.1008C10.4508 37.2844 10.5506 37.5553 10.5896 37.5553C10.6675 37.5553 10.5318 37.033 10.4445 36.9964C10.4127 36.983 10.4078 37.0061 10.4225 37.1008ZM10.3271 37.2269C10.3246 37.3524 10.4188 37.6062 10.434 37.5152C10.4394 37.4826 10.4181 37.3807 10.3864 37.2887C10.3341 37.1359 10.329 37.1304 10.3271 37.2269ZM12.3219 37.476C12.1704 37.5607 12.1263 37.9215 12.2341 38.1971C12.5303 38.9558 13.311 38.9558 13.1369 38.1969C13.0272 37.7188 12.586 37.3286 12.3219 37.476ZM11.025 38.102C11.025 38.2313 11.0911 38.3928 11.2196 38.5767C11.4347 38.8849 11.4802 38.6525 11.2801 38.2664C11.141 37.9976 11.025 37.9228 11.025 38.102ZM10.8792 38.345C10.8792 38.4276 11.0525 38.7708 11.1051 38.7923C11.1695 38.8185 11.1443 38.6922 11.0469 38.4997C10.9427 38.2938 10.8792 38.2354 10.8792 38.345ZM11.8249 38.4147C11.7178 38.5096 11.7684 38.7671 11.9443 39.0201C12.1723 39.3482 12.4252 39.406 12.4248 39.1299C12.4246 38.8088 11.9793 38.278 11.8249 38.4147ZM10.7922 38.5028C10.7915 38.5803 10.9104 38.8086 10.9632 38.8312C10.9937 38.8441 10.991 38.821 10.9527 38.7372C10.8603 38.5345 10.7929 38.4363 10.7922 38.5028ZM13.486 38.7397C13.0406 39.0018 13.4704 39.8189 14.0544 39.8198C14.2102 39.8202 14.4034 39.6889 14.427 39.5668C14.521 39.0828 13.8721 38.5123 13.486 38.7397ZM11.55 39.0104C11.55 39.1766 11.8415 39.5935 11.9577 39.5935C12.0752 39.5935 12.0288 39.4185 11.8475 39.177C11.6804 38.9546 11.55 38.8817 11.55 39.0104ZM14.9718 39.2189C14.6715 39.4112 14.6753 39.8112 14.9798 40.0365C15.1672 40.1751 15.1667 40.1765 15.1667 39.6313C15.1667 39.0853 15.1699 39.0919 14.9718 39.2189ZM11.4333 39.331C11.4333 39.3913 11.6984 39.7446 11.7435 39.7446C11.8134 39.7446 11.7869 39.6707 11.6482 39.4787C11.5206 39.3025 11.4333 39.2423 11.4333 39.331ZM11.375 39.5018C11.375 39.5618 11.5775 39.8347 11.6002 39.8055C11.6111 39.7912 11.5649 39.7083 11.4975 39.6211C11.4301 39.534 11.375 39.4803 11.375 39.5018ZM12.3006 39.9183C12.232 40.0071 12.6138 40.424 12.7638 40.424C12.8707 40.424 12.8508 40.3021 12.7185 40.1475C12.5421 39.9414 12.3599 39.8413 12.3006 39.9183ZM13.1542 39.9522C13.0625 40.0952 13.2774 40.3848 13.5707 40.5137C14.052 40.725 14.0779 40.2326 13.5996 39.9674C13.4421 39.88 13.2057 39.8719 13.1542 39.9522ZM12.25 40.2865C12.25 40.3656 12.5291 40.6498 12.6073 40.6502C12.6726 40.6507 12.6115 40.5279 12.4906 40.4161C12.3205 40.2584 12.25 40.2204 12.25 40.2865ZM15.0169 40.5186C14.8727 40.6201 14.8871 40.7868 15.0495 40.8955C15.1688 40.9754 15.1667 40.9788 15.1667 40.7071C15.1667 40.4419 15.1522 40.4235 15.0169 40.5186ZM12.258 40.5655C12.3238 40.6593 12.4833 40.7755 12.4833 40.7295C12.4833 40.6878 12.2829 40.4994 12.2386 40.4994C12.2239 40.4994 12.2327 40.5293 12.258 40.5655ZM13.0802 40.5773C13.0279 40.6867 13.3688 40.9523 13.5614 40.9523C13.6262 40.9523 13.6792 40.9354 13.6792 40.9147C13.6792 40.7395 13.146 40.4392 13.0802 40.5773ZM13.0704 40.9772C13.1129 41.0441 13.3775 41.2157 13.4386 41.2162C13.5282 41.2171 13.4612 41.1068 13.3164 41.0151C13.1288 40.8962 13.0065 40.8774 13.0704 40.9772ZM14.0919 41.0237C14.0002 41.0989 14.0712 41.1972 14.283 41.2873C14.5026 41.3808 14.63 41.3752 14.6611 41.2703C14.6998 41.1399 14.2095 40.9272 14.0919 41.0237ZM13.0375 41.1621C13.0375 41.1949 13.3602 41.3779 13.3777 41.3552C13.3863 41.3441 13.3268 41.2914 13.2456 41.2381C13.101 41.1433 13.0375 41.1202 13.0375 41.1621ZM15.0792 41.2354C15.0502 41.2807 15.0502 41.3036 15.0792 41.3487C15.1354 41.4363 15.1667 41.4161 15.1667 41.292C15.1667 41.1682 15.1354 41.1478 15.0792 41.2354ZM14.0875 41.4408C14.0875 41.4947 14.1409 41.5271 14.3169 41.5799C14.4837 41.6302 14.5931 41.6041 14.5196 41.5319C14.4231 41.4368 14.0875 41.3661 14.0875 41.4408ZM14.1167 41.6494C14.1167 41.6852 14.2228 41.7371 14.35 41.7633C14.5199 41.7987 14.4728 41.7332 14.2861 41.6748C14.133 41.6268 14.1167 41.6243 14.1167 41.6494Z" fill="#F9D206"/>
<path fill-rule="evenodd" clip-rule="evenodd" d="M14.7656 28.1462C14.7936 28.1555 14.8396 28.1555 14.8676 28.1462C14.8958 28.1367 14.8727 28.1288 14.8167 28.1288C14.7605 28.1288 14.7376 28.1367 14.7656 28.1462ZM14.066 29.8081C14.1104 29.8167 14.176 29.8164 14.2119 29.8074C14.2478 29.7986 14.2114 29.7913 14.1312 29.7918C14.0511 29.792 14.0217 29.7992 14.066 29.8081ZM11.8401 29.9978L11.7395 30.1394L11.8489 30.0094C11.9507 29.8882 11.9717 29.8563 11.9495 29.8563C11.9446 29.8563 11.8954 29.9202 11.8401 29.9978ZM11.705 30.441C11.7085 30.485 11.7351 30.5192 11.7691 30.5237C11.8111 30.5294 11.8135 30.5262 11.7778 30.5124C11.7507 30.502 11.722 30.4648 11.7138 30.4297C11.7033 30.3835 11.7008 30.3865 11.705 30.441ZM12.0239 32.2227C12.0521 32.232 12.0979 32.232 12.1261 32.2227C12.1541 32.2132 12.1312 32.2053 12.075 32.2053C12.0188 32.2053 11.9959 32.2132 12.0239 32.2227ZM12.0878 33.4893L12.002 33.6121L12.0969 33.5011C12.1852 33.3978 12.205 33.3666 12.1826 33.3666C12.1775 33.3666 12.1348 33.4219 12.0878 33.4893ZM10.5371 34.7632C10.5371 34.8565 10.5429 34.8948 10.5497 34.8482C10.5567 34.8015 10.5567 34.725 10.5497 34.6783C10.5429 34.6317 10.5371 34.6697 10.5371 34.7632ZM13.7443 34.7254C13.7443 34.7981 13.7503 34.8278 13.7576 34.7915C13.765 34.7553 13.765 34.6958 13.7576 34.6595C13.7503 34.6231 13.7443 34.6527 13.7443 34.7254ZM9.98338 34.8199C9.98356 34.9236 9.98916 34.9616 9.99598 34.9043C10.0026 34.8468 10.0025 34.7619 9.99546 34.7155C9.98863 34.669 9.98303 34.7161 9.98338 34.8199ZM12.4833 35.4166C12.4833 35.4232 12.526 35.4784 12.5781 35.5394L12.673 35.6503L12.5872 35.5276C12.5074 35.4132 12.4833 35.3876 12.4833 35.4166ZM10.0693 36.0467C10.0693 36.1191 10.0753 36.149 10.0826 36.1125C10.09 36.0763 10.09 36.0168 10.0826 35.9805C10.0753 35.9443 10.0693 35.974 10.0693 36.0467ZM10.6234 36.2353C10.6234 36.308 10.6295 36.3377 10.6368 36.3014C10.644 36.265 10.644 36.2056 10.6368 36.1692C10.6295 36.1329 10.6234 36.1626 10.6234 36.2353ZM11.4716 36.3673C11.4718 36.4919 11.4772 36.5383 11.4837 36.4706C11.4901 36.4027 11.49 36.3007 11.4833 36.2441C11.4767 36.1873 11.4714 36.2428 11.4716 36.3673ZM12.9292 36.6694C12.9293 36.7732 12.9351 36.8112 12.9418 36.7537C12.9484 36.6964 12.9482 36.6115 12.9414 36.565C12.9344 36.5186 12.929 36.5655 12.9292 36.6694ZM14.417 36.9525C14.417 37.0667 14.4226 37.1133 14.4293 37.0563C14.4359 36.9992 14.4359 36.9056 14.4293 36.8486C14.4226 36.7915 14.417 36.8382 14.417 36.9525ZM10.5943 36.9147C10.5943 36.9874 10.6003 37.0171 10.6076 36.9808C10.615 36.9444 10.615 36.885 10.6076 36.8486C10.6003 36.8123 10.5943 36.842 10.5943 36.9147ZM14.5026 37.7452C14.5026 37.8177 14.5085 37.8475 14.5159 37.8111C14.5232 37.7748 14.5232 37.7153 14.5159 37.679C14.5085 37.6428 14.5026 37.6725 14.5026 37.7452ZM12.8114 38.7903C12.8396 38.7996 12.8854 38.7996 12.9136 38.7903C12.9416 38.7808 12.9187 38.7729 12.8625 38.7729C12.8063 38.7729 12.7834 38.7808 12.8114 38.7903ZM13.2781 39.8849C13.3061 39.8944 13.3521 39.8944 13.3801 39.8849C13.4083 39.8754 13.3852 39.8677 13.3292 39.8677C13.273 39.8677 13.2501 39.8754 13.2781 39.8849ZM13.5114 40.9794C13.5396 40.9889 13.5854 40.9889 13.6136 40.9794C13.6416 40.9699 13.6187 40.9622 13.5625 40.9622C13.5063 40.9622 13.4834 40.9699 13.5114 40.9794Z" fill="#747C74"/>
<path fill-rule="evenodd" clip-rule="evenodd" d="M15.1448 29.3468C15.1452 29.4299 15.1511 29.4593 15.1581 29.4124C15.1651 29.3656 15.1648 29.2976 15.1576 29.2614C15.1502 29.2254 15.1445 29.2639 15.1448 29.3468ZM15.1371 30.6603L15.1513 30.8945L15.1606 30.6909C15.1658 30.579 15.1593 30.4734 15.1464 30.4567C15.1334 30.4399 15.1292 30.5314 15.1371 30.6603ZM15.1476 32.9515C15.1476 33.1279 15.1527 33.2002 15.1588 33.1118C15.1649 33.0237 15.1649 32.8792 15.1588 32.7911C15.1527 32.7028 15.1476 32.7751 15.1476 32.9515ZM14.1526 34.7254C14.1526 34.7981 14.1585 34.8278 14.1659 34.7916C14.1732 34.7553 14.1732 34.6958 14.1659 34.6595C14.1585 34.6231 14.1526 34.6527 14.1526 34.7254ZM15.1476 36.4996C15.1476 36.676 15.1527 36.7483 15.1588 36.6599C15.1649 36.5716 15.1649 36.4274 15.1588 36.339C15.1527 36.2509 15.1476 36.323 15.1476 36.4996ZM15.1466 38.8963C15.1467 39.0209 15.1522 39.0673 15.1586 38.9994C15.1651 38.9317 15.1649 38.8298 15.1583 38.7729C15.1516 38.7163 15.1464 38.7718 15.1466 38.8963ZM15.1448 40.293C15.1452 40.3759 15.1511 40.4055 15.1581 40.3584C15.1651 40.3116 15.1648 40.2436 15.1576 40.2076C15.1502 40.1714 15.1445 40.2099 15.1448 40.293Z" fill="#5B717C"/>
<path fill-rule="evenodd" clip-rule="evenodd" d="M14.9847 28.1469C15.0209 28.1557 15.0734 28.1555 15.1014 28.146C15.1293 28.1365 15.0995 28.1292 15.0355 28.1297C14.9712 28.1301 14.9485 28.1378 14.9847 28.1469ZM11.665 29.9154C11.6314 29.9616 11.616 30.0091 11.6308 30.0209C11.6455 30.0327 11.693 29.9949 11.7358 29.9369C11.7911 29.8622 11.8011 29.8311 11.7701 29.8311C11.7458 29.8311 11.6986 29.869 11.665 29.9154ZM14.5031 32.4419C14.5035 32.525 14.5094 32.5544 14.5164 32.5076C14.5234 32.4605 14.5232 32.3925 14.5159 32.3565C14.5085 32.3205 14.5029 32.3588 14.5031 32.4419ZM10.2462 34.7632C10.2462 34.8774 10.2517 34.924 10.2583 34.8669C10.2651 34.8099 10.2651 34.7166 10.2583 34.6595C10.2517 34.6024 10.2462 34.6491 10.2462 34.7632ZM10.3038 34.801C10.3038 34.8943 10.3094 34.9326 10.3164 34.886C10.3234 34.8391 10.3234 34.7628 10.3164 34.7161C10.3094 34.6692 10.3038 34.7075 10.3038 34.801ZM10.0693 34.801C10.0693 34.8735 10.0753 34.9034 10.0826 34.8669C10.09 34.8307 10.09 34.7711 10.0826 34.7349C10.0753 34.6987 10.0693 34.7283 10.0693 34.801ZM11.4109 37.2166C11.4109 37.2893 11.417 37.3189 11.4243 37.2827C11.4315 37.2465 11.4315 37.1869 11.4243 37.1507C11.417 37.1142 11.4109 37.1439 11.4109 37.2166ZM12.4031 37.4315C12.4311 37.4408 12.4771 37.4408 12.5051 37.4315C12.5333 37.422 12.5102 37.414 12.4542 37.414C12.398 37.414 12.3751 37.422 12.4031 37.4315ZM14.4443 39.4437C14.4443 39.5162 14.4503 39.546 14.4576 39.5096C14.465 39.4733 14.465 39.4138 14.4576 39.3775C14.4503 39.3413 14.4443 39.371 14.4443 39.4437ZM14.3398 41.8305C14.3213 41.8456 14.4965 41.8556 14.7292 41.8526C15.1842 41.8468 15.1613 41.8302 14.6753 41.8132C14.5092 41.8074 14.3582 41.8151 14.3398 41.8305Z" fill="#205C80"/>
</svg>
