<svg width="16" height="16" viewBox="0 0 16 16" fill="none" xmlns="http://www.w3.org/2000/svg">
<path fill-rule="evenodd" clip-rule="evenodd" d="M7.99992 5.33333C8.36811 5.33333 8.66659 5.03486 8.66659 4.66667C8.66659 4.29848 8.36811 4 7.99992 4C7.63173 4 7.33325 4.29848 7.33325 4.66667C7.33325 5.03486 7.63173 5.33333 7.99992 5.33333Z" fill="#8290A1"/>
<path fill-rule="evenodd" clip-rule="evenodd" d="M0.666626 7.99999C0.666626 3.9499 3.94987 0.666656 7.99996 0.666656C12.05 0.666656 15.3333 3.9499 15.3333 7.99999C15.3333 12.0501 12.05 15.3333 7.99996 15.3333C3.94987 15.3333 0.666626 12.0501 0.666626 7.99999ZM7.99996 1.99999C4.68625 1.99999 1.99996 4.68628 1.99996 7.99999C1.99996 11.3137 4.68625 14 7.99996 14C11.3137 14 14 11.3137 14 7.99999C14 4.68628 11.3137 1.99999 7.99996 1.99999Z" fill="#8290A1"/>
<path fill-rule="evenodd" clip-rule="evenodd" d="M7.99992 6.33331C8.36811 6.33331 8.66659 6.63179 8.66659 6.99998V11.3333C8.66659 11.7015 8.36811 12 7.99992 12C7.63173 12 7.33325 11.7015 7.33325 11.3333V6.99998C7.33325 6.63179 7.63173 6.33331 7.99992 6.33331Z" fill="#8290A1"/>
</svg>
