<svg width="60" height="60" viewBox="0 0 60 60" fill="none" xmlns="http://www.w3.org/2000/svg">
<path fill-rule="evenodd" clip-rule="evenodd" d="M39.6736 18.2402C39.4006 18.2688 39.0361 18.3327 38.8636 18.3822C38.6911 18.4316 38.3587 18.498 38.1249 18.5297C37.8912 18.5615 37.5942 18.641 37.4649 18.7064C37.3357 18.7718 37.1355 18.8453 37.02 18.8696C36.9045 18.894 36.7425 18.9492 36.66 18.9923C36.5775 19.0355 36.2535 19.1963 35.94 19.3497C35.6265 19.5033 35.2329 19.7147 35.0653 19.8194C34.8978 19.9242 34.6717 20.064 34.5631 20.13C34.3684 20.2482 33.8911 20.6168 33.48 20.9664C33.3645 21.0647 32.9412 21.4769 32.5392 21.8825C31.7884 22.6401 31.7257 22.6805 31.5264 22.535C31.417 22.4552 31.4082 22.3442 31.38 20.7141C31.3563 19.3385 31.3323 18.957 31.2649 18.8759C31.1542 18.7425 28.6221 18.7536 28.4878 18.888C28.3531 19.0229 28.3441 50.5955 28.4787 50.7074C28.6233 50.8274 31.1358 50.8277 31.2807 50.7077C31.3719 50.6321 31.38 50.1422 31.38 44.7041C31.38 38.3996 31.369 38.6336 31.6669 38.5628C31.7769 38.5367 31.8898 38.6151 32.2392 38.9601C32.6412 39.3572 32.7939 39.4902 33.4206 39.99C34.3726 40.7492 35.1454 41.2341 35.97 41.5899C36.267 41.7182 36.6045 41.8727 36.72 41.9336C36.9825 42.0719 37.8489 42.3215 38.52 42.4523C38.8005 42.507 39.1785 42.5915 39.36 42.6401C41.4967 43.2125 46.4437 42.3008 48.12 41.0256C48.2025 40.9629 48.4185 40.8248 48.6 40.7187C49.8648 39.9798 51.6375 38.1728 52.47 36.7742C52.5957 36.5628 52.744 36.3225 52.7997 36.24C52.948 36.02 53.3268 35.205 53.3743 35.0037C53.397 34.9082 53.4631 34.749 53.5216 34.65C53.58 34.551 53.6607 34.308 53.7007 34.11C53.7409 33.912 53.8099 33.6794 53.8542 33.5931C53.8984 33.5069 53.9776 33.0884 54.0303 32.6631C54.0828 32.2379 54.165 31.7091 54.2128 31.4882C54.3126 31.0284 54.324 29.9793 54.2337 29.58C54.2001 29.4315 54.1198 28.896 54.0553 28.3901C53.9907 27.884 53.901 27.398 53.8558 27.3101C53.8107 27.222 53.7411 26.988 53.7013 26.79C53.6616 26.592 53.5951 26.376 53.5537 26.31C53.5123 26.244 53.4303 26.0415 53.3715 25.86C53.3127 25.6785 53.2282 25.4882 53.1838 25.437C53.1394 25.3859 53.0611 25.2251 53.0098 25.0794C52.9584 24.9339 52.8954 24.8003 52.8697 24.7824C52.8439 24.7646 52.719 24.561 52.5919 24.33C51.9103 23.0904 50.0445 21.1697 48.6199 20.241C48.1251 19.9184 46.9579 19.2819 46.713 19.2011C46.5847 19.1586 46.3965 19.0766 46.2949 19.0187C46.1932 18.9608 46.0129 18.8964 45.8941 18.8757C45.7755 18.855 45.5622 18.7818 45.4201 18.7133C45.2779 18.6446 44.9122 18.551 44.6071 18.5051C44.3022 18.4593 43.8945 18.3789 43.7013 18.3264C43.2859 18.2138 40.4934 18.1539 39.6736 18.2402ZM42.78 21.033C43.6336 21.1592 45.2544 21.6602 45.57 21.8952C45.603 21.9198 45.7245 21.9768 45.84 22.0218C45.9555 22.0668 46.3063 22.2672 46.6197 22.4669C47.1868 22.8284 47.2557 22.8779 47.5309 23.1218C47.6104 23.1923 47.8341 23.385 48.0277 23.55C50.6523 25.7853 51.7713 29.9085 50.6578 33.24C50.509 33.6855 50.3664 34.077 50.3409 34.11C50.3155 34.143 50.2752 34.2375 50.2515 34.32C50.0667 34.9617 48.5101 37.0883 47.8963 37.5375C47.7718 37.6286 47.6398 37.7388 47.6029 37.7822C47.3974 38.0244 46.4205 38.6558 45.69 39.0185C44.8297 39.4457 44.5465 39.5472 43.23 39.9011C42.3162 40.1466 39.6589 40.125 38.9308 39.8661C38.7874 39.815 38.4675 39.7236 38.22 39.663C37.6485 39.5232 36.4159 39.0029 36.09 38.7641C36.057 38.7399 35.9355 38.6826 35.82 38.6367C35.6223 38.5581 35.0518 38.1644 34.65 37.8293C34.551 37.7466 34.3567 37.5882 34.2184 37.4772C34.08 37.3661 33.864 37.1568 33.7384 37.0121C33.6127 36.8673 33.456 36.689 33.39 36.6158C33.0625 36.2528 32.8884 36.0248 32.6551 35.6546C32.3965 35.244 31.86 34.1909 31.86 34.0938C31.86 34.0646 31.7929 33.8756 31.7109 33.6738C30.8233 31.4897 31.1896 27.5957 32.4565 25.746C32.5153 25.6602 32.6548 25.4522 32.7667 25.2837C33.4038 24.324 34.3915 23.2994 35.1675 22.7934C35.3118 22.6992 35.4573 22.5996 35.4907 22.5722C36.2323 21.9599 37.9666 21.2676 39.21 21.0875C39.573 21.035 40.005 20.9684 40.17 20.9397C40.6003 20.8647 41.974 20.9138 42.78 21.033Z" fill="#F35B3C"/>
<path fill-rule="evenodd" clip-rule="evenodd" d="M21.1038 10.4139C19.5561 10.7889 18.4686 11.9883 18.2102 13.6055C18.1323 14.0922 18.4537 15.41 18.7446 15.7968C19.5681 16.8918 20.2467 17.3574 21.27 17.5293C22.6843 17.7671 24.0106 17.3304 24.8976 16.3355C25.1887 16.0088 25.2657 15.8787 25.5601 15.2168C25.8885 14.4785 25.8807 13.3517 25.5427 12.6893C25.4251 12.4587 25.2822 12.1664 25.225 12.0398C24.6931 10.8594 22.6278 10.0446 21.1038 10.4139ZM19.1874 19.8818C18.9601 20.0544 18.96 20.0607 18.96 31.3193V42.3509L19.1167 42.5372L19.2736 42.7235L21.9906 42.7068C24.5652 42.6909 24.7141 42.684 24.8337 42.5757L24.96 42.4614L24.9591 31.2657C24.9586 25.1081 24.9384 20.0403 24.9141 20.004C24.7866 19.8129 24.5965 19.8 21.9489 19.802C19.8625 19.8035 19.2679 19.8206 19.1874 19.8818Z" fill="#184E5E"/>
<path fill-rule="evenodd" clip-rule="evenodd" d="M0 30V60H30H60V30V0H30H0V30ZM22.7991 10.1127C23.8164 10.2648 25.0839 11.1039 25.4672 11.8788C25.541 12.0279 25.6499 12.2445 25.7091 12.36C26.0529 13.0292 26.04 12.9699 26.04 13.8786C26.04 15.3747 25.3821 16.6704 24.3594 17.1881C24.2442 17.2464 24.096 17.3423 24.03 17.4011C23.5341 17.8434 21.0458 18.0617 20.6111 17.7009C20.5718 17.6684 20.43 17.603 20.2959 17.5557C19.5572 17.295 18.6434 16.3368 18.2121 15.3704C17.8359 14.5275 17.8866 13.0059 18.3161 12.2475C19.3094 10.4937 20.7522 9.8067 22.7991 10.1127ZM42.3596 17.9378C42.4749 17.972 42.7584 18 42.9895 18C43.5904 18 45.2694 18.3312 45.75 18.5444C45.882 18.603 46.0838 18.6699 46.1984 18.6932C46.3131 18.7164 46.5066 18.7985 46.6284 18.8753C46.7503 18.9522 46.9265 19.0337 47.0201 19.0562C47.2425 19.1099 47.7429 19.3583 47.97 19.5278C48.069 19.6017 48.2445 19.7105 48.36 19.7696C48.4755 19.8285 48.5835 19.8938 48.6 19.9146C48.6165 19.9355 48.6975 19.9833 48.78 20.021C48.9227 20.0862 49.4549 20.4941 50.0376 20.9847C50.475 21.353 51.8349 22.7492 51.8729 22.8692C51.8922 22.9301 51.9276 22.98 51.9516 22.98C52.055 22.98 52.829 24.1389 53.0736 24.66C53.1279 24.7755 53.2097 24.9375 53.2554 25.02C53.5011 25.4633 53.751 26.0487 53.8188 26.34C53.8611 26.5215 53.9228 26.7041 53.9556 26.7455C54.0455 26.8587 54.3437 28.2294 54.477 29.1416C54.6032 30.005 54.5252 31.9067 54.3348 32.61C54.2901 32.775 54.2225 33.0855 54.1844 33.3C54.0524 34.0427 53.5361 35.4671 53.1639 36.1151C53.0393 36.3323 52.8212 36.7125 52.6793 36.96C52.5374 37.2075 52.3498 37.491 52.2624 37.59C52.1749 37.689 52.0262 37.886 51.9318 38.0276C51.8373 38.1693 51.7308 38.3043 51.695 38.3276C51.6591 38.351 51.4544 38.5712 51.24 38.817C50.7026 39.4331 50.3714 39.7346 49.4192 40.4744C49.0613 40.7525 48.7406 40.98 48.7068 40.98C48.6729 40.98 48.4788 41.0987 48.2756 41.2439C47.8347 41.5584 46.4988 42.1649 45.765 42.3836C45.4763 42.4697 45.006 42.6107 44.7201 42.6969C43.3248 43.1183 39.8609 43.1015 38.1386 42.6653C37.0281 42.3839 35.3066 41.6763 34.772 41.2815C34.6059 41.1588 34.3755 41.0097 34.26 40.95C33.9707 40.8005 33.7058 40.6103 33.6116 40.4847C33.5682 40.4267 33.4565 40.34 33.3633 40.2918C33.2087 40.2117 32.7038 39.779 32.058 39.1728L31.8062 38.9364L31.728 39.0732C31.6658 39.1824 31.647 40.3671 31.6353 44.94C31.6248 49.008 31.6011 50.7072 31.5537 50.7984C31.4315 51.0332 31.2554 51.06 29.8412 51.06H28.488L28.284 50.856L28.08 50.652L28.0803 34.911C28.0808 18.567 28.0764 18.8399 28.3343 18.5996C28.4781 18.4656 31.1415 18.4124 31.3776 18.5388C31.5834 18.6488 31.62 18.9321 31.62 20.411C31.62 21.5018 31.64 21.8918 31.7039 22.0445L31.7876 22.245L32.5617 21.4875C32.9876 21.0708 33.4235 20.6625 33.5306 20.58C33.6377 20.4975 33.8427 20.3355 33.9864 20.22C34.13 20.1045 34.386 19.929 34.5551 19.83C34.7243 19.731 35.0363 19.5378 35.2484 19.4007C35.4605 19.2635 35.7344 19.1181 35.8571 19.0776C35.9798 19.0371 36.1653 18.9539 36.2691 18.8925C36.5301 18.7386 37.0509 18.5586 37.83 18.3528C38.8065 18.0951 39.0249 18.0543 39.75 17.9949C40.113 17.9651 40.5315 17.9151 40.68 17.8838C41.0021 17.8158 42.0639 17.85 42.3596 17.9378ZM25.0766 19.6467L25.2609 19.8234L25.2455 31.2401L25.23 42.6567L25.0934 42.7934L24.9567 42.93H21.9897H19.0227L18.8564 42.7637L18.69 42.5973V31.2437C18.69 19.9848 18.6911 19.8887 18.81 19.7255C19.005 19.4579 19.1346 19.4474 22.0911 19.4591L24.8922 19.47L25.0766 19.6467ZM40.2 21.2168C38.7351 21.3504 36.4382 22.1097 35.79 22.6745C35.724 22.7319 35.5137 22.8804 35.3226 23.0043C34.7672 23.3646 34.1396 23.9549 33.594 24.63C33.434 24.828 33.266 25.0331 33.2208 25.0857C32.855 25.5116 32.1153 26.9169 31.9607 27.48C31.9107 27.6615 31.8179 27.999 31.754 28.23C31.5161 29.0913 31.4222 30.8544 31.563 31.8185C31.6559 32.4539 31.8008 33.1251 31.8894 33.33C31.9323 33.429 31.9868 33.6045 32.0106 33.72C32.0472 33.8981 32.2365 34.3146 32.6325 35.0886C33.3309 36.4535 34.7799 37.8213 36.36 38.607C36.6735 38.7629 37.0245 38.9396 37.14 38.9994C37.2555 39.0594 37.4883 39.1491 37.6574 39.1988C37.8264 39.2484 38.0424 39.3288 38.1374 39.3774C38.2323 39.4262 38.4504 39.485 38.622 39.5082C38.7938 39.5315 39.1313 39.6042 39.372 39.6699C39.993 39.8391 41.8367 39.8897 42.48 39.755C42.7275 39.7032 43.1595 39.6197 43.44 39.5694C43.7205 39.519 44.0715 39.4277 44.22 39.3662C44.3685 39.3047 44.706 39.1656 44.97 39.057C46.8408 38.2872 48.5903 36.7937 49.4363 35.2436C49.5065 35.1152 49.6382 34.8885 49.7291 34.74C50.0523 34.212 50.4207 33.2168 50.6843 32.16C50.8184 31.6224 50.8176 29.3588 50.6831 28.83C50.6327 28.632 50.5503 28.308 50.4999 28.11C50.3103 27.3645 49.7708 26.1366 49.4906 25.8129C49.3968 25.7045 49.32 25.5896 49.32 25.5573C49.32 25.3224 48.2303 24.0657 47.4 23.3433C46.8047 22.8253 45.2181 21.9545 44.5106 21.7574C44.3343 21.7082 44.0685 21.623 43.92 21.5679C43.2264 21.3107 41.2331 21.1226 40.2 21.2168ZM15.636 35.4459C15.8292 35.5749 15.84 35.7574 15.84 38.9163C15.84 41.7765 15.8304 42.0911 15.7407 42.1904C15.5571 42.3932 15.2366 42.2993 14.67 41.8767C14.538 41.7782 14.322 41.6403 14.19 41.5703C14.058 41.5001 13.842 41.3561 13.71 41.25C13.578 41.144 13.3151 40.9734 13.1258 40.8711C12.9363 40.7687 12.6383 40.5791 12.4632 40.4498C12.2882 40.3205 12.0111 40.1468 11.8475 40.0638C11.684 39.9809 11.4986 39.8561 11.4357 39.7865C11.3729 39.7169 11.2892 39.66 11.2497 39.66C11.2103 39.66 11.0727 39.5837 10.9439 39.4904C10.8152 39.3972 10.6394 39.2825 10.5534 39.2354C10.4673 39.1884 10.0894 38.9457 9.7134 38.696C9.3375 38.4462 8.8356 38.1285 8.598 37.9901C8.3604 37.8516 8.14995 37.7123 8.1303 37.6806C8.1108 37.6488 7.9137 37.5227 7.6923 37.4C7.47105 37.2774 7.2765 37.1612 7.26 37.1415C7.1961 37.0659 6.6114 36.66 6.5664 36.66C6.54015 36.66 6.36825 36.5603 6.18435 36.4383C6.00045 36.3164 5.71095 36.1248 5.54085 36.0125C5.2527 35.822 5.11125 35.5874 5.199 35.4453C5.23515 35.387 15.5484 35.3874 15.636 35.4459Z" fill="#FBFBFB"/>
<path fill-rule="evenodd" clip-rule="evenodd" d="M5.19899 35.4453C5.11124 35.5874 5.25269 35.822 5.54084 36.0125C5.71094 36.1248 6.00044 36.3164 6.18434 36.4383C6.36824 36.5603 6.54014 36.66 6.56639 36.66C6.61139 36.66 7.1961 37.0659 7.26 37.1415C7.2765 37.1612 7.47104 37.2774 7.69229 37.4C7.91369 37.5227 8.11079 37.6488 8.13029 37.6806C8.14994 37.7123 8.36039 37.8516 8.59799 37.9901C8.83559 38.1285 9.33749 38.4462 9.71339 38.696C10.0894 38.9457 10.4673 39.1884 10.5534 39.2354C10.6393 39.2825 10.8151 39.3972 10.9438 39.4904C11.0727 39.5837 11.2102 39.66 11.2497 39.66C11.2891 39.66 11.3728 39.7169 11.4357 39.7865C11.4985 39.8561 11.6839 39.9809 11.8474 40.0638C12.0111 40.1468 12.2881 40.3205 12.4632 40.4498C12.6382 40.5791 12.9363 40.7687 13.1257 40.8711C13.315 40.9734 13.578 41.144 13.71 41.25C13.842 41.3561 14.058 41.5001 14.19 41.5703C14.322 41.6403 14.538 41.7782 14.67 41.8767C15.2365 42.2993 15.5571 42.3932 15.7407 42.1904C15.8304 42.0911 15.84 41.7765 15.84 38.9163C15.84 35.7575 15.8292 35.5749 15.636 35.4459C15.5484 35.3874 5.23514 35.387 5.19899 35.4453Z" fill="#32CEF4"/>
<path fill-rule="evenodd" clip-rule="evenodd" d="M20.9817 10.1487C19.6316 10.4354 18.4899 11.4875 18.0858 12.8175C17.5475 14.5892 18.6624 16.9793 20.2959 17.5557C20.43 17.603 20.5718 17.6684 20.6111 17.7009C21.0458 18.0617 23.5341 17.8434 24.03 17.4011C24.096 17.3423 24.2442 17.2464 24.3594 17.1881C25.3821 16.6704 26.04 15.3747 26.04 13.8786C26.04 12.9699 26.0529 13.0292 25.7091 12.36C25.6499 12.2445 25.541 12.0279 25.4672 11.8788C24.8121 10.5542 22.7741 9.76815 20.9817 10.1487ZM22.95 10.4019C23.8236 10.6362 24.962 11.4558 25.2251 12.0398C25.2822 12.1664 25.4252 12.4587 25.5428 12.6893C25.8807 13.3517 25.8885 14.4785 25.5602 15.2168C25.2657 15.8787 25.1888 16.0088 24.8976 16.3355C23.3952 18.021 20.5121 18.0126 19.1546 16.3185C18.6596 15.7008 18.6225 15.6396 18.4664 15.18C18.1311 14.1933 18.1226 13.739 18.4223 12.8312C19.0166 11.0312 21.1097 9.90825 22.95 10.4019ZM40.68 17.8838C40.5315 17.9151 40.113 17.9651 39.75 17.9949C39.0249 18.0543 38.8065 18.0951 37.83 18.3528C37.0509 18.5586 36.5301 18.7386 36.2691 18.8925C36.1653 18.9539 35.9798 19.0371 35.8571 19.0776C35.7344 19.1181 35.4605 19.2635 35.2484 19.4007C35.0363 19.5378 34.7243 19.731 34.5551 19.83C34.386 19.929 34.13 20.1045 33.9864 20.22C33.8427 20.3355 33.6377 20.4975 33.5306 20.58C33.4235 20.6625 32.9876 21.0708 32.5617 21.4875L31.7876 22.245L31.7039 22.0444C31.64 21.8918 31.62 21.5018 31.62 20.411C31.62 18.9321 31.5834 18.6488 31.3776 18.5388C31.1415 18.4124 28.4781 18.4656 28.3343 18.5996C28.0764 18.8399 28.0808 18.567 28.0803 34.911L28.08 50.652L28.284 50.856L28.488 51.06H29.8412C31.2554 51.06 31.4315 51.0331 31.5537 50.7984C31.6011 50.7072 31.6248 49.008 31.6353 44.94C31.647 40.3671 31.6658 39.1824 31.728 39.0732L31.8062 38.9364L32.058 39.1728C32.7038 39.7789 33.2087 40.2117 33.3633 40.2918C33.4565 40.3399 33.5682 40.4266 33.6116 40.4847C33.7058 40.6102 33.9707 40.8004 34.26 40.95C34.3755 41.0097 34.6059 41.1588 34.772 41.2815C35.3066 41.6763 37.0281 42.3838 38.1386 42.6652C39.8609 43.1014 43.3248 43.1182 44.7201 42.6969C45.006 42.6106 45.4763 42.4696 45.765 42.3835C46.4988 42.1648 47.8347 41.5584 48.2756 41.2438C48.4788 41.0986 48.6729 40.98 48.7068 40.98C48.7406 40.98 49.0613 40.7524 49.4192 40.4743C50.3714 39.7345 50.7026 39.433 51.24 38.817C51.4544 38.5711 51.6591 38.3509 51.695 38.3275C51.7308 38.3043 51.8373 38.1693 51.9318 38.0275C52.0262 37.8859 52.175 37.689 52.2624 37.59C52.3499 37.491 52.5374 37.2075 52.6793 36.96C52.8212 36.7125 53.0393 36.3322 53.1639 36.115C53.5361 35.467 54.0524 34.0426 54.1844 33.3C54.2225 33.0855 54.2901 32.775 54.3348 32.61C54.5252 31.9066 54.6032 30.0049 54.477 29.1415C54.3437 28.2294 54.0455 26.8587 53.9556 26.7454C53.9228 26.704 53.8611 26.5215 53.8188 26.34C53.751 26.0487 53.5011 25.4633 53.2554 25.02C53.2097 24.9375 53.1279 24.7755 53.0736 24.66C52.829 24.1389 52.055 22.98 51.9516 22.98C51.9276 22.98 51.8922 22.9301 51.8729 22.8692C51.8349 22.7492 50.475 21.3529 50.0376 20.9847C49.4549 20.494 48.9227 20.0862 48.78 20.021C48.6975 19.9833 48.6165 19.9355 48.6 19.9146C48.5835 19.8938 48.4755 19.8285 48.36 19.7696C48.2445 19.7105 48.069 19.6017 47.97 19.5278C47.7429 19.3583 47.2425 19.1099 47.0201 19.0562C46.9265 19.0337 46.7504 18.9522 46.6284 18.8753C46.5066 18.7985 46.3131 18.7164 46.1984 18.6932C46.0838 18.6699 45.882 18.603 45.75 18.5444C45.2694 18.3312 43.5905 18 42.9896 18C42.7584 18 42.4749 17.972 42.3596 17.9378C42.0639 17.85 41.0021 17.8158 40.68 17.8838ZM43.7013 18.3264C43.8945 18.3789 44.3022 18.4593 44.6072 18.5051C44.9123 18.551 45.278 18.6446 45.4202 18.7133C45.5622 18.7818 45.7755 18.855 45.8942 18.8757C46.013 18.8964 46.1933 18.9608 46.295 19.0187C46.3965 19.0766 46.5848 19.1586 46.713 19.2011C46.958 19.2819 48.1251 19.9184 48.62 20.241C50.0445 21.1697 51.9104 23.0904 52.592 24.33C52.719 24.561 52.844 24.7646 52.8698 24.7824C52.8954 24.8003 52.9584 24.9339 53.0099 25.0794C53.0612 25.225 53.1395 25.3859 53.1839 25.437C53.2283 25.4882 53.3127 25.6785 53.3715 25.86C53.4303 26.0415 53.5124 26.244 53.5538 26.31C53.5952 26.376 53.6616 26.592 53.7014 26.79C53.7411 26.988 53.8107 27.222 53.8559 27.31C53.901 27.3979 53.9907 27.8839 54.0554 28.39C54.1199 28.896 54.2001 29.4315 54.2337 29.58C54.324 29.9793 54.3126 31.0284 54.2129 31.4881C54.165 31.7091 54.0828 32.2378 54.0303 32.6631C53.9777 33.0883 53.8985 33.5068 53.8542 33.5931C53.81 33.6793 53.741 33.912 53.7008 34.11C53.6607 34.308 53.58 34.551 53.5217 34.65C53.4632 34.749 53.397 34.9081 53.3744 35.0037C53.3268 35.205 52.9481 36.0199 52.7997 36.24C52.7441 36.3225 52.5957 36.5628 52.47 36.7741C51.6375 38.1727 49.8648 39.9798 48.6 40.7187C48.4185 40.8247 48.2025 40.9629 48.12 41.0256C47.2122 41.7162 44.6528 42.5508 42.9 42.7278C42.0554 42.8131 39.7971 42.7572 39.36 42.64C39.1785 42.5914 38.8005 42.507 38.52 42.4522C37.8489 42.3214 36.9825 42.0718 36.72 41.9335C36.6045 41.8726 36.267 41.7181 35.97 41.5899C35.1455 41.2341 34.3727 40.7491 33.4206 39.99C32.7939 39.4902 32.6412 39.3571 32.2392 38.9601C31.8899 38.6151 31.7769 38.5366 31.667 38.5627C31.3691 38.6335 31.38 38.3995 31.38 44.704C31.38 50.1421 31.3719 50.632 31.2807 50.7076C31.1358 50.8276 28.6233 50.8273 28.4787 50.7073C28.3442 50.5954 28.3532 19.0229 28.4879 18.888C28.6221 18.7536 31.1543 18.7425 31.265 18.8759C31.3323 18.957 31.3563 19.3385 31.38 20.7141C31.4082 22.3441 31.4171 22.4552 31.5264 22.535C31.7258 22.6805 31.7885 22.6401 32.5392 21.8824C32.9412 21.4768 33.3645 21.0647 33.48 20.9664C33.8912 20.6168 34.3685 20.2482 34.5632 20.13C34.6718 20.064 34.8978 19.9242 35.0654 19.8194C35.2329 19.7147 35.6265 19.5033 35.94 19.3497C36.2535 19.1963 36.5775 19.0355 36.66 18.9923C36.7425 18.9492 36.9045 18.894 37.02 18.8696C37.1355 18.8453 37.3358 18.7718 37.4649 18.7064C37.5942 18.641 37.8912 18.5615 38.1249 18.5297C38.3588 18.498 38.6912 18.4316 38.8637 18.3822C39.6249 18.164 42.9608 18.1256 43.7013 18.3264ZM19.11 19.5044C18.6488 19.649 18.69 18.4941 18.69 31.2436V42.5973L18.8564 42.7636L19.0227 42.93H21.9897H24.9567L25.0934 42.7933L25.23 42.6567L25.2455 31.24L25.2609 19.8234L25.0766 19.6467L24.8922 19.47L22.0911 19.4591C20.4761 19.4526 19.2138 19.472 19.11 19.5044ZM24.7389 19.869C24.8111 19.907 24.8898 19.9677 24.9141 20.004C24.9384 20.0403 24.9587 25.1081 24.9591 31.2657L24.96 42.4614L24.8337 42.5757C24.7142 42.684 24.5652 42.6909 21.9906 42.7068L19.2737 42.7234L19.1168 42.5371L18.96 42.3508V31.3192C18.96 20.0607 18.9602 20.0544 19.1874 19.8818C19.3271 19.7757 24.539 19.7637 24.7389 19.869ZM40.17 20.9397C40.005 20.9684 39.573 21.0349 39.21 21.0874C37.9667 21.2676 36.2324 21.9599 35.4908 22.5722C35.4573 22.5996 35.3118 22.6992 35.1675 22.7934C34.3916 23.2993 33.4038 24.324 32.7668 25.2837C32.6549 25.4521 32.5154 25.6602 32.4566 25.746C31.1897 27.5956 30.8234 31.4896 31.7109 33.6738C31.793 33.8755 31.86 34.0645 31.86 34.0938C31.86 34.1908 32.3966 35.244 32.6552 35.6545C32.8884 36.0247 33.0626 36.2527 33.39 36.6157C33.456 36.6889 33.6128 36.8673 33.7385 37.012C33.864 37.1568 34.08 37.366 34.2185 37.4772C34.3568 37.5882 34.551 37.7466 34.65 37.8292C35.0519 38.1643 35.6223 38.5581 35.82 38.6367C35.9355 38.6826 36.057 38.7399 36.09 38.764C36.416 39.0028 37.6485 39.5232 38.22 39.663C38.4675 39.7236 38.7875 39.8149 38.9309 39.8661C39.659 40.125 42.3162 40.1466 43.23 39.901C44.5466 39.5472 44.8298 39.4456 45.69 39.0184C46.4205 38.6557 47.3975 38.0244 47.603 37.7821C47.6399 37.7388 47.7719 37.6285 47.8964 37.5375C48.5102 37.0882 50.0667 34.9617 50.2515 34.32C50.2752 34.2375 50.3156 34.143 50.3409 34.11C50.3664 34.077 50.5091 33.6855 50.6579 33.24C51.494 30.7386 51.1854 28.1044 49.7804 25.7491C49.2621 24.8802 48.5699 24.0117 48.0278 23.55C47.8341 23.385 47.6105 23.1923 47.531 23.1218C47.2557 22.8779 47.1869 22.8284 46.6197 22.4669C46.3064 22.2672 45.9555 22.0668 45.84 22.0218C45.7245 21.9768 45.603 21.9198 45.57 21.8952C45.4608 21.8138 44.5586 21.4704 44.01 21.3014C43.0115 20.9937 40.9656 20.801 40.17 20.9397ZM43.02 21.3521C43.3665 21.4157 43.7715 21.5128 43.92 21.5679C44.0685 21.6229 44.3343 21.7081 44.5106 21.7573C45.2181 21.9544 46.8047 22.8253 47.4 23.3433C48.2303 24.0657 49.32 25.3224 49.32 25.5573C49.32 25.5896 49.3968 25.7044 49.4906 25.8129C49.7708 26.1366 50.3103 27.3645 50.4999 28.11C50.5503 28.308 50.6327 28.632 50.6831 28.83C50.8176 29.3587 50.8184 31.6224 50.6843 32.16C50.4207 33.2167 50.0523 34.212 49.7291 34.74C49.6382 34.8885 49.5065 35.1151 49.4363 35.2435C48.5903 36.7936 46.8408 38.2872 44.97 39.057C44.706 39.1656 44.3685 39.3046 44.22 39.3661C44.0715 39.4276 43.7205 39.519 43.44 39.5694C43.1595 39.6196 42.7275 39.7032 42.48 39.7549C41.8367 39.8896 39.993 39.8391 39.372 39.6699C39.1313 39.6042 38.7938 39.5314 38.622 39.5082C38.4504 39.4849 38.2323 39.4261 38.1374 39.3774C38.0424 39.3288 37.8264 39.2484 37.6574 39.1987C37.4883 39.1491 37.2555 39.0594 37.14 38.9994C37.0245 38.9395 36.6735 38.7628 36.36 38.607C34.7799 37.8213 33.3309 36.4534 32.6325 35.0886C32.2365 34.3146 32.0472 33.898 32.0106 33.72C31.9868 33.6045 31.9323 33.429 31.8894 33.33C31.8008 33.1251 31.6559 32.4538 31.563 31.8184C31.4222 30.8544 31.5161 29.0913 31.754 28.23C31.8179 27.999 31.9107 27.6615 31.9607 27.48C32.1153 26.9169 32.855 25.5116 33.2208 25.0857C33.266 25.0331 33.434 24.828 33.594 24.63C34.1396 23.9548 34.7672 23.3646 35.3226 23.0043C35.5137 22.8804 35.724 22.7319 35.79 22.6744C37.0521 21.5746 40.6496 20.9168 43.02 21.3521Z" fill="#CAA4A0"/>
</svg>
