<svg width="50" height="50" viewBox="0 0 50 50" fill="none" xmlns="http://www.w3.org/2000/svg">
<path fill-rule="evenodd" clip-rule="evenodd" d="M22.91 12.86C22.8226 12.9474 22.8226 36.8026 22.91 36.89C22.9981 36.9781 26.7961 36.9757 26.9151 36.8875C26.9929 36.8299 27.0003 36.4726 27.0121 32.2585C27.0246 27.8035 27.0274 27.6901 27.122 27.621C27.2015 27.5629 27.5426 27.5496 28.997 27.5482C30.3983 27.5469 30.8439 27.5305 31.1 27.4712C31.2788 27.4297 31.6163 27.3744 31.85 27.348C32.0838 27.3216 32.3804 27.2551 32.5093 27.2C32.6381 27.145 32.8069 27.0999 32.8843 27.0997C32.9616 27.0995 33.0888 27.0661 33.1666 27.0255C33.2446 26.9849 33.4021 26.9271 33.5166 26.8972C33.8161 26.8191 34.5851 26.4647 34.975 26.2254C35.085 26.1579 35.2418 26.0652 35.3233 26.0195C35.4944 25.9235 36.0339 25.5155 36.179 25.3722C36.2333 25.3187 36.3445 25.2187 36.4264 25.15C36.5082 25.0812 36.7038 24.8675 36.8612 24.675C37.0185 24.4825 37.176 24.2905 37.2111 24.2484C37.2463 24.2061 37.3404 24.0711 37.4204 23.9484C37.5003 23.8255 37.604 23.6684 37.6508 23.599C37.6976 23.5297 37.7535 23.4172 37.7749 23.349C37.7963 23.2809 37.8557 23.1714 37.9069 23.1057C37.9582 23.0401 38.0002 22.9501 38.0002 22.9057C38.0003 22.8614 38.0419 22.757 38.0925 22.674C38.1431 22.5909 38.2009 22.4357 38.2209 22.3291C38.2409 22.2226 38.2895 22.0861 38.329 22.026C38.3684 21.9657 38.421 21.761 38.4459 21.5707C38.4708 21.3806 38.5268 21.0909 38.5705 20.927C38.6765 20.5299 38.6789 19.2489 38.5746 18.825C38.534 18.66 38.479 18.3675 38.4524 18.175C38.4258 17.9825 38.3581 17.7359 38.302 17.6269C38.2459 17.518 38.2 17.3824 38.2 17.3255C38.2 17.2687 38.1688 17.1776 38.1307 17.1232C38.0925 17.0687 38.0327 16.9287 37.9978 16.8121C37.9628 16.6954 37.9168 16.6 37.8955 16.6C37.8742 16.6 37.8414 16.5494 37.8227 16.4875C37.8038 16.4256 37.7348 16.3034 37.6693 16.2159C37.6037 16.1282 37.55 16.0362 37.55 16.0112C37.55 15.8852 36.4699 14.7947 36.0484 14.4951C35.6533 14.2144 34.9291 13.8 34.8335 13.8C34.795 13.8 34.7099 13.7579 34.6443 13.7065C34.5786 13.6551 34.4463 13.5972 34.35 13.578C34.2538 13.5586 34.085 13.5022 33.975 13.4525C33.6346 13.2987 33.2878 13.1911 32.975 13.142C32.81 13.116 32.5676 13.0611 32.4365 13.02C31.8 12.8202 23.0959 12.6741 22.91 12.86ZM30.275 15.8524C30.4125 15.8772 30.7353 15.9324 30.9923 15.9749C31.2493 16.0175 31.5238 16.0856 31.6023 16.1261C31.6808 16.1667 31.7878 16.2 31.8401 16.2C31.8924 16.2 32.0409 16.2562 32.1703 16.325C32.2995 16.3937 32.425 16.45 32.4491 16.45C32.6 16.45 33.4145 17.0816 33.6624 17.3907C33.7656 17.5196 33.8726 17.6522 33.9003 17.6856C33.9279 17.719 33.9771 17.809 34.0099 17.8856C34.0426 17.9622 34.0956 18.0587 34.1276 18.1C34.1596 18.1412 34.2133 18.2872 34.2466 18.4244C34.2801 18.5615 34.3301 18.7011 34.358 18.7346C34.508 18.9154 34.5199 20.9457 34.3729 21.275C34.336 21.3575 34.28 21.5262 34.2483 21.65C34.2166 21.7737 34.1618 21.9087 34.1263 21.95C34.0909 21.9912 34.0458 22.0777 34.026 22.1422C33.9 22.5552 33.0498 23.4391 32.4675 23.7625C32.4304 23.7831 32.3606 23.823 32.3125 23.851C32.2644 23.879 32.1463 23.9357 32.05 23.9769C31.9538 24.018 31.8075 24.0846 31.725 24.1247C31.6425 24.1649 31.4628 24.222 31.3256 24.2517C31.1884 24.2815 30.9746 24.336 30.8506 24.3729C30.4893 24.4802 29.4611 24.5509 28.2636 24.5504L27.1523 24.55L27.075 24.4321C26.9599 24.2562 26.9841 15.9221 27.1 15.8489C27.1956 15.7885 29.9375 15.7915 30.275 15.8524Z" fill="#3373B4"/>
<path fill-rule="evenodd" clip-rule="evenodd" d="M0 25V50H25H50V25V0H25H0V25ZM15.5411 12.7579C15.66 12.798 15.7777 12.8632 15.8029 12.9029C15.8299 12.9456 15.8496 16.8809 15.8514 22.575C15.854 31.05 15.8634 32.1985 15.9306 32.375C15.9725 32.485 16.0249 32.646 16.0471 32.7327C16.0692 32.8196 16.1352 32.942 16.1936 33.0047C16.2521 33.0675 16.3005 33.1428 16.301 33.1719C16.3016 33.2011 16.3817 33.2925 16.4791 33.375C16.5765 33.4575 16.6951 33.5597 16.7428 33.6021C16.7904 33.6446 16.9008 33.7089 16.988 33.745C17.0753 33.7811 17.1726 33.8421 17.2045 33.8804C17.2363 33.9186 17.311 33.95 17.3705 33.95C17.4301 33.95 17.568 33.9981 17.6769 34.057C17.9806 34.2211 19.1109 34.2245 19.4842 34.0625C19.6269 34.0006 19.7908 33.95 19.8484 33.95C19.906 33.95 19.9653 33.9182 19.9801 33.8796C19.995 33.8409 20.0777 33.7799 20.164 33.7443C20.2501 33.7085 20.361 33.6446 20.4104 33.6021C20.4596 33.5597 20.5438 33.4869 20.5974 33.4401C20.6509 33.3935 20.7679 33.3175 20.8574 33.2711C20.9469 33.2249 21.051 33.1562 21.0886 33.1185C21.1262 33.0809 21.196 33.05 21.2436 33.05C21.2911 33.05 21.3585 33.0219 21.3934 32.9875C21.4441 32.9374 21.471 32.9442 21.5284 33.022C21.6268 33.1554 21.6353 36.1162 21.5375 36.1987C21.5031 36.2279 21.4121 36.3072 21.3354 36.3754C21.2586 36.4435 21.1405 36.513 21.0729 36.53C21.0052 36.547 20.95 36.5791 20.95 36.6015C20.95 36.6239 20.8656 36.6694 20.7625 36.7025C20.6594 36.7355 20.5397 36.7932 20.4967 36.8307C20.4536 36.8681 20.3411 36.9132 20.2467 36.931C20.1522 36.9486 20.0048 37.0053 19.919 37.0566C19.8331 37.108 19.6531 37.1649 19.519 37.183C19.3847 37.201 19.2292 37.2454 19.1734 37.2815C18.9039 37.4559 16.5946 37.4542 16.325 37.2795C16.27 37.2439 16.1219 37.1993 15.9959 37.1805C15.8699 37.1618 15.6844 37.1022 15.5836 37.0482C15.4827 36.9942 15.3684 36.95 15.3294 36.95C15.2904 36.95 15.1159 36.872 14.9417 36.7767C14.7675 36.6815 14.5294 36.559 14.4125 36.5046C14.2956 36.4501 14.2 36.3842 14.2 36.3582C14.2 36.3321 14.1437 36.2967 14.075 36.2795C14.0062 36.2622 13.95 36.2266 13.95 36.2004C13.95 36.174 13.8787 36.1158 13.7917 36.0708C13.5972 35.9701 12.9525 35.3196 12.8501 35.1205C12.8089 35.0405 12.7495 34.9584 12.7181 34.9381C12.6868 34.9179 12.6456 34.8391 12.6266 34.7631C12.6078 34.6871 12.5595 34.5888 12.5196 34.5444C12.4796 34.5001 12.4259 34.3426 12.4001 34.1944C12.3744 34.0462 12.3206 33.835 12.2805 33.725C12.1731 33.43 12.2204 13.5259 12.3291 13.2365C12.3681 13.1327 12.4 12.9937 12.4 12.9275C12.4 12.6465 12.4386 12.6399 13.9451 12.6634C14.9755 12.6794 15.3798 12.7034 15.5411 12.7579ZM30.775 12.6987C30.9675 12.7221 31.4431 12.7764 31.8319 12.8193C32.2207 12.8623 32.637 12.9301 32.7569 12.97C32.8769 13.01 33.0875 13.0584 33.225 13.0775C33.3625 13.0966 33.5087 13.1414 33.55 13.1769C33.5912 13.2125 33.715 13.2572 33.825 13.2764C33.935 13.2955 34.0775 13.3443 34.1418 13.3846C34.206 13.4249 34.3691 13.4908 34.5042 13.5309C34.6394 13.571 34.75 13.6255 34.75 13.6519C34.75 13.6784 34.7894 13.7004 34.8375 13.7008C34.8856 13.7011 34.9812 13.7341 35.05 13.774C35.1187 13.814 35.265 13.8938 35.375 13.9514C35.7741 14.1604 35.8811 14.2303 36.2354 14.5131C36.9336 15.0706 37.85 16.096 37.85 16.3197C37.85 16.3415 37.895 16.4164 37.95 16.4864C38.005 16.5563 38.05 16.6524 38.05 16.7C38.05 16.7476 38.0931 16.8414 38.1459 16.9084C38.1986 16.9755 38.2577 17.1191 38.2772 17.2276C38.2967 17.3362 38.341 17.4587 38.3756 17.5C38.4104 17.5413 38.473 17.7325 38.5148 17.925C38.5566 18.1175 38.6136 18.365 38.6415 18.475C38.7734 18.9968 38.7503 21.1897 38.6111 21.3639C38.5843 21.3975 38.5356 21.5825 38.503 21.775C38.4704 21.9675 38.4114 22.1749 38.3719 22.2358C38.3324 22.2966 38.3 22.3864 38.3 22.435C38.3 22.4837 38.2457 22.6364 38.1794 22.7743C38.1131 22.9121 38.0457 23.0588 38.0296 23.1C38.0136 23.1413 37.9339 23.2875 37.8522 23.425C37.7707 23.5625 37.6759 23.7312 37.6415 23.8C37.607 23.8687 37.5265 23.9925 37.4624 24.075C37.3983 24.1575 37.313 24.27 37.273 24.325C37.0572 24.6213 36.6579 25.0908 36.5286 25.2C36.4473 25.2688 36.3456 25.3619 36.3029 25.407C36.1843 25.532 35.7549 25.85 35.7049 25.85C35.6806 25.85 35.6485 25.8819 35.6335 25.9207C35.6074 25.9889 35.5275 26.0408 35.15 26.235C35.0538 26.2845 34.9675 26.342 34.9582 26.3626C34.9435 26.3958 34.709 26.513 33.9717 26.8555C33.8599 26.9075 33.7312 26.95 33.6857 26.95C33.6402 26.95 33.518 26.9931 33.414 27.0457C33.3101 27.0984 33.1238 27.1572 33 27.1764C32.8762 27.1956 32.7465 27.2342 32.7118 27.2624C32.677 27.2905 32.4295 27.3561 32.1618 27.4083C31.894 27.4604 31.5738 27.5249 31.45 27.5514C31.3263 27.578 30.325 27.6142 29.225 27.6319C27.8493 27.6541 27.2135 27.6814 27.1882 27.7195C27.168 27.75 27.1511 29.8281 27.1507 32.3375C27.15 36.8328 27.1485 36.9015 27.05 37C26.8861 37.1639 22.9553 37.1551 22.802 36.9906L22.7 36.8811V24.8434V12.8056L22.8111 12.7279C22.9367 12.6399 30.0757 12.6137 30.775 12.6987ZM27.173 16.0125C27.1599 16.0469 27.155 17.9537 27.1621 20.25L27.175 24.425L28.075 24.4387C29.1614 24.4555 30.4924 24.3844 30.6474 24.3014C30.7095 24.2681 30.9051 24.2205 31.0824 24.1954C31.2595 24.1703 31.4925 24.1049 31.6003 24.0499C31.7079 23.995 31.8391 23.95 31.8919 23.95C31.9446 23.95 32.0147 23.9174 32.0479 23.8775C32.081 23.8378 32.185 23.7797 32.279 23.7486C32.373 23.7176 32.45 23.6743 32.45 23.6523C32.45 23.6301 32.5121 23.5864 32.5881 23.555C32.7045 23.5068 32.8366 23.4019 33.275 23.0096C33.4194 22.8805 33.6974 22.5371 33.7231 22.4561C33.7393 22.405 33.797 22.323 33.8512 22.2739C33.9056 22.2247 33.9501 22.1486 33.9501 22.1047C33.9503 22.0609 33.995 21.9518 34.0496 21.8621C34.1043 21.7726 34.1635 21.6039 34.1814 21.4871C34.1992 21.3705 34.2499 21.2075 34.2939 21.125C34.3993 20.9275 34.4131 19.1917 34.3109 19.0126C34.2755 18.9509 34.2248 18.7821 34.198 18.6376C34.0515 17.8472 33.2773 16.9475 32.4 16.5484C32.3313 16.5171 32.185 16.4506 32.075 16.4005C31.965 16.3505 31.7628 16.2833 31.6256 16.2511C31.4885 16.2189 31.3513 16.1719 31.3206 16.1464C31.1269 15.9856 27.2313 15.8599 27.173 16.0125Z" fill="#F5F5F5"/>
<path fill-rule="evenodd" clip-rule="evenodd" d="M12.65 12.8909L12.525 12.9295L12.4886 23.1773C12.4539 32.9858 12.4659 34.247 12.5945 34.2899C12.624 34.2996 12.671 34.3925 12.6989 34.496C12.7268 34.5995 12.7948 34.7363 12.8498 34.7998C12.9049 34.8634 12.95 34.9449 12.95 34.9809C12.95 35.017 12.995 35.0706 13.05 35.1C13.105 35.1294 13.15 35.1805 13.15 35.2135C13.15 35.2901 13.8361 35.9389 13.9581 35.9777C14.0086 35.9937 14.05 36.0274 14.05 36.0528C14.05 36.078 14.1231 36.1293 14.2125 36.1666C14.3019 36.204 14.4059 36.2718 14.4436 36.3173C14.4814 36.3628 14.5403 36.4 14.5744 36.4C14.6085 36.4 14.6938 36.445 14.7636 36.5C14.8336 36.555 14.9236 36.6 14.9636 36.6C15.0038 36.6 15.0954 36.6463 15.1673 36.7029C15.2393 36.7594 15.4111 36.8236 15.5494 36.8455C15.6876 36.8673 15.84 36.9199 15.8879 36.9623C15.9358 37.0046 16.1213 37.0551 16.3 37.0744C16.4788 37.0936 16.6813 37.1468 16.75 37.1923C16.9358 37.3153 18.5534 37.3143 18.7781 37.191C18.8624 37.1449 19.0761 37.091 19.2531 37.0713C19.4435 37.0501 19.6238 36.9976 19.6943 36.9428C19.7599 36.8918 19.8858 36.85 19.9741 36.85C20.0624 36.85 20.186 36.8055 20.2488 36.751C20.3115 36.6966 20.4388 36.6379 20.5314 36.6205C20.6241 36.6031 20.7 36.5716 20.7 36.5505C20.7 36.5294 20.7731 36.4828 20.8625 36.4468C20.9519 36.4108 21.098 36.3223 21.1873 36.2503L21.3495 36.1191L21.3623 34.6595C21.3765 33.0329 21.3946 33.1023 21.0231 33.3625C20.8955 33.4519 20.7425 33.5521 20.6831 33.5853C20.576 33.6449 20.523 33.6836 20.2178 33.9255C20.1313 33.994 20.0166 34.05 19.9629 34.05C19.9093 34.05 19.8146 34.094 19.7526 34.1476C19.6908 34.2014 19.5354 34.2581 19.4075 34.2738C19.2796 34.2894 19.0805 34.3208 18.9651 34.3435C18.8496 34.3664 18.6471 34.3671 18.5151 34.3455C18.383 34.3238 18.1603 34.3046 18.02 34.303C17.7485 34.2998 17.45 34.2184 17.45 34.1474C17.45 34.1238 17.3725 34.09 17.2779 34.0723C17.1833 34.0545 17.0326 33.986 16.9433 33.92C16.8538 33.854 16.7513 33.8 16.7153 33.8C16.6794 33.8 16.65 33.7663 16.65 33.725C16.65 33.6838 16.6275 33.65 16.6 33.65C16.5725 33.65 16.4589 33.5544 16.3476 33.4375C16.2364 33.3206 16.1014 33.1793 16.0476 33.1233C15.9939 33.0673 15.95 32.9615 15.95 32.8883C15.95 32.8149 15.9121 32.7338 15.8658 32.7078C15.7149 32.6234 15.7085 32.2195 15.7043 22.5194L15.7 12.9638L15.3625 12.9326C14.7983 12.8808 12.7834 12.8496 12.65 12.8909Z" fill="#6DAD47"/>
<path fill-rule="evenodd" clip-rule="evenodd" d="M12.4826 12.7245C12.4371 12.77 12.4 12.8614 12.4 12.9275C12.4 12.9938 12.3681 13.1328 12.3291 13.2365C12.2204 13.5259 12.1731 33.4301 12.2805 33.7251C12.3206 33.8351 12.3744 34.0463 12.4001 34.1944C12.4259 34.3427 12.4796 34.5002 12.5196 34.5444C12.5595 34.5888 12.6077 34.6872 12.6266 34.7632C12.6456 34.8392 12.6867 34.9179 12.7181 34.9382C12.7495 34.9584 12.8089 35.0406 12.8501 35.1206C12.9525 35.3197 13.5972 35.9702 13.7917 36.0708C13.8787 36.1158 13.95 36.1741 13.95 36.2004C13.95 36.2267 14.0062 36.2623 14.075 36.2796C14.1437 36.2968 14.2 36.3322 14.2 36.3583C14.2 36.3843 14.2956 36.4502 14.4125 36.5047C14.5294 36.5591 14.7675 36.6816 14.9417 36.7768C15.1159 36.8721 15.2904 36.9501 15.3294 36.9501C15.3684 36.9501 15.4827 36.9943 15.5836 37.0483C15.6844 37.1023 15.8699 37.1618 15.9959 37.1806C16.1219 37.1993 16.27 37.2439 16.325 37.2796C16.5946 37.4543 18.9039 37.4559 19.1734 37.2816C19.2292 37.2454 19.3847 37.2011 19.519 37.1831C19.6531 37.1649 19.8331 37.1081 19.919 37.0567C20.0047 37.0053 20.1522 36.9487 20.2467 36.9311C20.3411 36.9133 20.4536 36.8682 20.4967 36.8308C20.5397 36.7933 20.6594 36.7356 20.7625 36.7026C20.8656 36.6694 20.95 36.6239 20.95 36.6016C20.95 36.5792 21.0052 36.5471 21.0729 36.5301C21.1405 36.5131 21.2586 36.4436 21.3354 36.3754C21.4121 36.3073 21.5031 36.2279 21.5375 36.1988C21.6352 36.1163 21.6267 33.1554 21.5284 33.0221C21.471 32.9443 21.4441 32.9374 21.3934 32.9876C21.3585 33.0219 21.2911 33.0501 21.2436 33.0501C21.196 33.0501 21.1262 33.0809 21.0886 33.1186C21.051 33.1563 20.9469 33.2249 20.8574 33.2712C20.7679 33.3176 20.6509 33.3936 20.5974 33.4402C20.5437 33.4869 20.4596 33.5598 20.4104 33.6022C20.361 33.6447 20.2501 33.7086 20.164 33.7443C20.0777 33.7799 19.995 33.8409 19.9801 33.8797C19.9652 33.9183 19.906 33.9501 19.8484 33.9501C19.7907 33.9501 19.6269 34.0007 19.4842 34.0626C19.1109 34.2246 17.9806 34.2212 17.6769 34.0571C17.568 33.9982 17.4301 33.9501 17.3705 33.9501C17.311 33.9501 17.2362 33.9187 17.2045 33.8804C17.1726 33.8422 17.0752 33.7812 16.988 33.7451C16.9007 33.7089 16.7904 33.6447 16.7427 33.6022C16.6951 33.5598 16.5765 33.4576 16.4791 33.3751C16.3817 33.2926 16.3016 33.2012 16.301 33.1719C16.3005 33.1428 16.2521 33.0676 16.1936 33.0048C16.1352 32.9421 16.0692 32.8197 16.0471 32.7328C16.0249 32.6461 15.9725 32.4851 15.9306 32.3751C15.8634 32.1986 15.854 31.0501 15.8514 22.5751C15.8496 16.8809 15.8299 12.9457 15.8029 12.9029C15.6604 12.6777 12.6891 12.518 12.4826 12.7245ZM22.8111 12.7279L22.7 12.8057V24.8434V36.8812L22.802 36.9907C22.9552 37.1552 26.8861 37.1639 27.05 37.0001C27.1485 36.9016 27.15 36.8328 27.1507 32.3376C27.1511 29.8282 27.168 27.7501 27.1882 27.7196C27.2135 27.6814 27.8492 27.6542 29.225 27.6319C30.325 27.6143 31.3262 27.5781 31.45 27.5514C31.5737 27.5249 31.894 27.4604 32.1617 27.4083C32.4295 27.3562 32.677 27.2906 32.7117 27.2624C32.7465 27.2343 32.8762 27.1957 33 27.1764C33.1237 27.1573 33.3101 27.0984 33.414 27.0458C33.518 26.9932 33.6402 26.9501 33.6857 26.9501C33.7312 26.9501 33.8599 26.9076 33.9717 26.8556C34.709 26.5131 34.9435 26.3958 34.9582 26.3627C34.9675 26.3421 35.0537 26.2846 35.15 26.2351C35.5275 26.0408 35.6074 25.9889 35.6335 25.9208C35.6485 25.8819 35.6806 25.8501 35.7049 25.8501C35.7549 25.8501 36.1842 25.5321 36.3029 25.4071C36.3456 25.3619 36.4472 25.2688 36.5286 25.2001C36.6579 25.0908 37.0572 24.6213 37.273 24.3251C37.313 24.2701 37.3982 24.1576 37.4624 24.0751C37.5265 23.9926 37.607 23.8688 37.6415 23.8C37.6759 23.7313 37.7707 23.5625 37.8522 23.425C37.9339 23.2875 38.0136 23.1413 38.0296 23.1001C38.0457 23.0588 38.1131 22.9122 38.1794 22.7743C38.2457 22.6364 38.3 22.4838 38.3 22.435C38.3 22.3864 38.3324 22.2967 38.3719 22.2358C38.4114 22.1749 38.4704 21.9675 38.503 21.775C38.5356 21.5825 38.5842 21.3975 38.6111 21.3639C38.7502 21.1898 38.7734 18.9968 38.6415 18.475C38.6136 18.365 38.5566 18.1175 38.5147 17.925C38.473 17.7325 38.4104 17.5413 38.3756 17.5C38.341 17.4588 38.2967 17.3363 38.2772 17.2277C38.2577 17.1192 38.1986 16.9755 38.1459 16.9084C38.0931 16.8414 38.05 16.7477 38.05 16.7C38.05 16.6524 38.005 16.5563 37.95 16.4864C37.895 16.4164 37.85 16.3415 37.85 16.3198C37.85 16.096 36.9336 15.0707 36.2354 14.5132C35.8811 14.2303 35.7741 14.1604 35.375 13.9514C35.265 13.8938 35.1187 13.814 35.05 13.774C34.9812 13.7342 34.8856 13.7012 34.8375 13.7008C34.7894 13.7004 34.75 13.6784 34.75 13.6519C34.75 13.6255 34.6394 13.571 34.5042 13.5309C34.3691 13.4908 34.206 13.4249 34.1417 13.3847C34.0775 13.3443 33.935 13.2955 33.825 13.2764C33.715 13.2573 33.5912 13.2125 33.55 13.1769C33.5087 13.1414 33.3625 13.0967 33.225 13.0775C33.0875 13.0584 32.8769 13.01 32.7569 12.97C32.637 12.9302 32.2207 12.8623 31.8319 12.8193C31.4431 12.7764 30.9675 12.7222 30.775 12.6988C30.0757 12.6138 22.9367 12.6399 22.8111 12.7279ZM14.975 12.8067C15.3325 12.8383 15.6525 12.8857 15.6861 12.912C15.7339 12.9495 15.7504 15.0873 15.7611 22.6675L15.775 32.3751L15.9125 32.6549C15.9881 32.8088 16.05 32.9583 16.05 32.9871C16.05 33.0158 16.0837 33.0523 16.125 33.0682C16.1662 33.0839 16.2 33.1277 16.2 33.1654C16.2 33.2799 16.7632 33.7417 17.1041 33.9066C17.2806 33.9919 17.4896 34.0934 17.5686 34.1322C17.981 34.3339 19.2611 34.3111 19.6866 34.0942C19.7881 34.0424 19.8967 34.0001 19.9279 34.0001C19.9591 34.0001 20.0366 33.9551 20.1 33.9001C20.1634 33.8451 20.2416 33.8001 20.2739 33.8001C20.3061 33.8001 20.3854 33.7438 20.45 33.6751C20.5146 33.6063 20.5954 33.5501 20.6295 33.5501C20.6637 33.5501 20.6991 33.5319 20.7084 33.5097C20.7175 33.4874 20.8537 33.3844 21.0111 33.2807C21.4959 32.9613 21.473 32.8967 21.4882 34.6292L21.5015 36.1321L21.2882 36.2817C21.0349 36.4596 20.15 36.9001 20.0462 36.9001C20.0062 36.9001 19.8895 36.9451 19.787 37.0001C19.6844 37.0551 19.5434 37.1001 19.4736 37.1001C19.4039 37.1001 19.2069 37.1499 19.0359 37.2108C18.567 37.3778 16.9894 37.3788 16.4822 37.2124C16.2937 37.1507 16.0956 37.1001 16.042 37.1001C15.9884 37.1001 15.8494 37.0567 15.733 37.0037C15.6167 36.9507 15.4547 36.8914 15.3732 36.8721C15.2917 36.8526 15.1912 36.8087 15.15 36.7747C15.1087 36.7406 14.9924 36.6862 14.8915 36.6538C14.7906 36.6214 14.681 36.5623 14.6479 36.5226C14.6147 36.4827 14.5685 36.4501 14.5449 36.4501C14.5074 36.4501 14.3016 36.3214 13.85 36.0157C13.6594 35.8866 12.9 35.0961 12.9 35.0267C12.9 34.9931 12.855 34.9248 12.8 34.8751C12.745 34.8253 12.7 34.7596 12.7 34.7291C12.7 34.6986 12.6527 34.5853 12.5949 34.4776C12.3544 34.0288 12.3552 34.0676 12.3801 23.5355C12.4049 13.039 12.4056 12.9944 12.5547 12.8453C12.6706 12.7294 13.8805 12.71 14.975 12.8067ZM31.1865 12.8734C31.7429 12.9129 32.3054 12.9789 32.4365 13.02C32.5676 13.0612 32.81 13.116 32.975 13.142C33.2877 13.1912 33.6346 13.2988 33.975 13.4525C34.085 13.5023 34.2537 13.5587 34.35 13.578C34.4462 13.5973 34.5786 13.6552 34.6442 13.7065C34.7099 13.7579 34.795 13.8 34.8335 13.8C34.9291 13.8 35.6532 14.2144 36.0484 14.4952C36.4699 14.7948 37.55 15.8853 37.55 16.0113C37.55 16.0363 37.6036 16.1283 37.6692 16.2159C37.7347 16.3034 37.8037 16.4257 37.8226 16.4875C37.8414 16.5494 37.8741 16.6 37.8955 16.6C37.9167 16.6 37.9627 16.6954 37.9977 16.8122C38.0326 16.9288 38.0925 17.0688 38.1306 17.1233C38.1687 17.1777 38.2 17.2688 38.2 17.3255C38.2 17.3824 38.2459 17.518 38.302 17.6269C38.3581 17.7359 38.4257 17.9825 38.4524 18.175C38.479 18.3675 38.534 18.66 38.5746 18.825C38.6789 19.2489 38.6765 20.5299 38.5705 20.927C38.5267 21.0909 38.4707 21.3807 38.4459 21.5708C38.421 21.761 38.3684 21.9658 38.329 22.026C38.2895 22.0862 38.2409 22.2227 38.2209 22.3292C38.2009 22.4358 38.1431 22.5909 38.0925 22.674C38.0419 22.757 38.0002 22.8614 38.0001 22.9058C38.0001 22.9502 37.9581 23.0402 37.9069 23.1058C37.8556 23.1714 37.7962 23.2809 37.7749 23.3491C37.7535 23.4173 37.6976 23.5298 37.6507 23.5991C37.604 23.6684 37.5002 23.8256 37.4204 23.9484C37.3404 24.0712 37.2462 24.2062 37.2111 24.2484C37.176 24.2906 37.0185 24.4826 36.8611 24.6751C36.7037 24.8676 36.5081 25.0813 36.4264 25.1501C36.3445 25.2188 36.2332 25.3188 36.179 25.3723C36.0339 25.5156 35.4944 25.9236 35.3232 26.0196C35.2417 26.0653 35.085 26.1579 34.975 26.2254C34.5851 26.4648 33.8161 26.8192 33.5166 26.8973C33.4021 26.9272 33.2446 26.9849 33.1666 27.0256C33.0887 27.0662 32.9616 27.0996 32.8842 27.0998C32.8069 27.0999 32.6381 27.1451 32.5092 27.2001C32.3804 27.2552 32.0837 27.3217 31.85 27.3481C31.6162 27.3744 31.2787 27.4298 31.1 27.4713C30.8439 27.5306 30.3982 27.5469 28.997 27.5483C27.5426 27.5497 27.2015 27.5629 27.122 27.6211C27.0274 27.6902 27.0246 27.8036 27.0121 32.2586C27.0002 36.4727 26.9929 36.8299 26.9151 36.8876C26.7961 36.9758 22.9981 36.9782 22.91 36.8901C22.8226 36.8027 22.8226 12.9474 22.91 12.86C23.0029 12.7672 29.8475 12.7782 31.1865 12.8734ZM27.1 15.8489C26.9841 15.9222 26.9599 24.2563 27.075 24.4322L27.1522 24.5501L28.2636 24.5504C29.4611 24.5509 30.4892 24.4803 30.8506 24.3729C30.9746 24.3361 31.1884 24.2816 31.3256 24.2518C31.4627 24.2221 31.6425 24.1649 31.725 24.1248C31.8075 24.0847 31.9537 24.0181 32.05 23.9769C32.1462 23.9358 32.2644 23.8791 32.3125 23.8511C32.3606 23.8231 32.4304 23.7832 32.4675 23.7626C33.0497 23.4392 33.9 22.5553 34.026 22.1423C34.0457 22.0778 34.0909 21.9913 34.1262 21.9501C34.1617 21.9088 34.2166 21.7738 34.2482 21.65C34.28 21.5263 34.336 21.3575 34.3729 21.275C34.5199 20.9458 34.508 18.9154 34.358 18.7347C34.3301 18.7012 34.2801 18.5615 34.2466 18.4244C34.2132 18.2873 34.1596 18.1413 34.1276 18.1C34.0956 18.0588 34.0426 17.9623 34.0099 17.8857C33.9771 17.809 33.9279 17.719 33.9002 17.6857C33.8726 17.6523 33.7656 17.5197 33.6624 17.3908C33.4145 17.0817 32.6 16.45 32.4491 16.45C32.425 16.45 32.2995 16.3938 32.1702 16.325C32.0409 16.2563 31.8924 16.2 31.8401 16.2C31.7877 16.2 31.6807 16.1668 31.6022 16.1262C31.5237 16.0857 31.2492 16.0175 30.9922 15.9749C30.7352 15.9324 30.4125 15.8773 30.275 15.8524C29.9375 15.7915 27.1956 15.7885 27.1 15.8489ZM30.52 16.0253C30.9297 16.0665 31.29 16.121 31.3206 16.1464C31.3512 16.1719 31.4885 16.2189 31.6256 16.2512C31.7627 16.2833 31.965 16.3505 32.075 16.4005C32.185 16.4507 32.3312 16.5172 32.4 16.5484C33.2772 16.9475 34.0515 17.8473 34.198 18.6377C34.2247 18.7822 34.2755 18.9509 34.3109 19.0127C34.4131 19.1918 34.3992 20.9275 34.2939 21.125C34.2499 21.2075 34.1992 21.3705 34.1814 21.4872C34.1635 21.6039 34.1042 21.7727 34.0496 21.8622C33.995 21.9518 33.9502 22.0609 33.9501 22.1048C33.9501 22.1487 33.9056 22.2248 33.8512 22.2739C33.797 22.323 33.7392 22.405 33.7231 22.4562C33.6974 22.5372 33.4194 22.8805 33.275 23.0097C32.8366 23.4019 32.7045 23.5068 32.5881 23.5551C32.5121 23.5864 32.45 23.6302 32.45 23.6523C32.45 23.6743 32.373 23.7177 32.279 23.7487C32.185 23.7798 32.081 23.8378 32.0479 23.8776C32.0147 23.9174 31.9446 23.9501 31.8919 23.9501C31.8391 23.9501 31.7079 23.9951 31.6002 24.0499C31.4925 24.1049 31.2595 24.1703 31.0824 24.1954C30.9051 24.2206 30.7095 24.2682 30.6474 24.3014C30.4924 24.3844 29.1614 24.4556 28.075 24.4388L27.175 24.4251L27.1621 20.25C27.155 17.9538 27.1599 16.0469 27.173 16.0125C27.2084 15.9199 29.5626 15.9289 30.52 16.0253Z" fill="#AFCFA5"/>
<path fill-rule="evenodd" clip-rule="evenodd" d="M12.5547 12.8452C12.4056 12.9943 12.4049 13.039 12.3801 23.5355C12.3552 34.0675 12.3544 34.0287 12.5949 34.4775C12.6527 34.5852 12.7 34.6985 12.7 34.729C12.7 34.7595 12.745 34.8252 12.8 34.875C12.855 34.9247 12.9 34.993 12.9 35.0266C12.9 35.096 13.6594 35.8865 13.85 36.0156C14.3016 36.3213 14.5074 36.45 14.5449 36.45C14.5685 36.45 14.6147 36.4826 14.6479 36.5225C14.681 36.5622 14.7906 36.6213 14.8915 36.6537C14.9924 36.6861 15.1087 36.7405 15.15 36.7746C15.1912 36.8086 15.2917 36.8525 15.3732 36.872C15.4547 36.8913 15.6167 36.9506 15.733 37.0036C15.8494 37.0566 15.9884 37.1 16.042 37.1C16.0956 37.1 16.2937 37.1506 16.4822 37.2123C16.9894 37.3787 18.567 37.3777 19.0359 37.2107C19.2069 37.1498 19.4039 37.1 19.4736 37.1C19.5434 37.1 19.6844 37.055 19.787 37C19.8895 36.945 20.0062 36.9 20.0462 36.9C20.15 36.9 21.0349 36.4595 21.2882 36.2816L21.5015 36.132L21.4883 34.6291C21.473 32.8966 21.4959 32.9612 21.0111 33.2806C20.8537 33.3843 20.7175 33.4873 20.7084 33.5096C20.6991 33.5318 20.6637 33.55 20.6295 33.55C20.5954 33.55 20.5146 33.6062 20.45 33.675C20.3854 33.7437 20.3061 33.8 20.2739 33.8C20.2416 33.8 20.1634 33.845 20.1 33.9C20.0366 33.955 19.9591 34 19.9279 34C19.8967 34 19.7881 34.0423 19.6866 34.0941C19.2611 34.311 17.981 34.3338 17.5686 34.1321C17.4896 34.0933 17.2806 33.9918 17.1041 33.9065C16.7632 33.7416 16.2 33.2798 16.2 33.1653C16.2 33.1276 16.1662 33.0838 16.125 33.0681C16.0837 33.0522 16.05 33.0157 16.05 32.987C16.05 32.9582 15.9881 32.8087 15.9125 32.6548L15.775 32.375L15.7611 22.6675C15.7504 15.0872 15.7339 12.9495 15.6861 12.912C15.475 12.7462 12.7126 12.6873 12.5547 12.8452ZM15.3625 12.9326L15.7 12.9637L15.7042 22.5193C15.7085 32.2195 15.7149 32.6233 15.8657 32.7077C15.9121 32.7337 15.95 32.8148 15.95 32.8882C15.95 32.9615 15.9939 33.0672 16.0476 33.1232C16.1014 33.1792 16.2364 33.3206 16.3476 33.4375C16.4589 33.5543 16.5725 33.65 16.6 33.65C16.6275 33.65 16.65 33.6837 16.65 33.725C16.65 33.7662 16.6794 33.8 16.7152 33.8C16.7512 33.8 16.8537 33.854 16.9432 33.92C17.0326 33.986 17.1832 34.0545 17.2779 34.0722C17.3725 34.09 17.45 34.1237 17.45 34.1473C17.45 34.2183 17.7485 34.2997 18.02 34.303C18.1602 34.3046 18.383 34.3237 18.5151 34.3455C18.6471 34.3671 18.8496 34.3663 18.9651 34.3435C19.0805 34.3207 19.2796 34.2893 19.4075 34.2737C19.5354 34.2581 19.6907 34.2013 19.7526 34.1476C19.8146 34.094 19.9092 34.05 19.9629 34.05C20.0166 34.05 20.1312 33.994 20.2177 33.9255C20.523 33.6836 20.576 33.6448 20.6831 33.5852C20.7425 33.5521 20.8955 33.4518 21.0231 33.3625C21.3946 33.1022 21.3765 33.0328 21.3622 34.6595L21.3495 36.1191L21.1872 36.2502C21.098 36.3222 20.9519 36.4107 20.8625 36.4467C20.7731 36.4827 20.7 36.5293 20.7 36.5505C20.7 36.5716 20.6241 36.6031 20.5314 36.6205C20.4387 36.6378 20.3115 36.6966 20.2488 36.751C20.186 36.8055 20.0624 36.85 19.9741 36.85C19.8857 36.85 19.7599 36.8917 19.6942 36.9427C19.6237 36.9976 19.4435 37.0501 19.2531 37.0712C19.0761 37.091 18.8624 37.1448 18.7781 37.191C18.5534 37.3142 16.9357 37.3152 16.75 37.1922C16.6812 37.1467 16.4787 37.0936 16.3 37.0743C16.1212 37.0551 15.9357 37.0046 15.8879 36.9622C15.84 36.9198 15.6876 36.8672 15.5494 36.8455C15.4111 36.8236 15.2392 36.7593 15.1672 36.7028C15.0954 36.6462 15.0037 36.6 14.9636 36.6C14.9236 36.6 14.8336 36.555 14.7636 36.5C14.6937 36.445 14.6085 36.4 14.5744 36.4C14.5402 36.4 14.4814 36.3627 14.4436 36.3172C14.4059 36.2717 14.3019 36.204 14.2125 36.1666C14.1231 36.1292 14.05 36.078 14.05 36.0527C14.05 36.0273 14.0086 35.9936 13.9581 35.9776C13.8361 35.9388 13.15 35.2901 13.15 35.2135C13.15 35.1805 13.105 35.1293 13.05 35.1C12.995 35.0706 12.95 35.017 12.95 34.9808C12.95 34.9448 12.9049 34.8633 12.8497 34.7997C12.7947 34.7362 12.7267 34.5995 12.6989 34.496C12.671 34.3925 12.624 34.2996 12.5945 34.2898C12.4659 34.247 12.4539 32.9857 12.4886 23.1772L12.525 12.9295L12.65 12.8908C12.7834 12.8496 14.7982 12.8807 15.3625 12.9326Z" fill="#96C284"/>
</svg>
