<svg width="50" height="50" viewBox="0 0 50 50" fill="none" xmlns="http://www.w3.org/2000/svg">
<path fill-rule="evenodd" clip-rule="evenodd" d="M22.825 12.0554C22.1369 12.0867 21.7114 12.128 21.5903 12.1751C21.4888 12.2146 21.1963 12.272 20.9403 12.3027C20.6844 12.3335 20.34 12.3997 20.175 12.45C20.01 12.5004 19.7003 12.5556 19.4868 12.5729C19.2465 12.5924 19.0368 12.6402 18.9368 12.6985C18.8478 12.7504 18.6625 12.8155 18.525 12.8434C18.3875 12.8711 18.1513 12.9395 18 12.9952C17.8488 13.0511 17.6546 13.0975 17.5686 13.0984C17.4826 13.0992 17.3844 13.1336 17.3503 13.1747C17.316 13.2159 17.1951 13.276 17.0816 13.3084C16.968 13.3407 16.8406 13.3961 16.7985 13.4314C16.7565 13.4666 16.5929 13.5291 16.4349 13.5704C16.277 13.6115 16.1144 13.6785 16.0736 13.7192C16.0328 13.7601 15.9506 13.8089 15.891 13.8279C15.8315 13.8467 15.7394 13.9026 15.6864 13.9519C15.6335 14.0012 15.5324 14.0561 15.4619 14.0739C15.3913 14.0915 15.2754 14.1509 15.2043 14.2057C14.81 14.5097 14.6824 14.6 14.647 14.6C14.6254 14.6 14.5421 14.6619 14.4619 14.7375C14.3818 14.8131 14.1646 15.01 13.9794 15.175C13.7941 15.34 13.6094 15.5381 13.5686 15.6151C13.528 15.6922 13.4509 15.8047 13.3974 15.8651C13.3438 15.9256 13.2636 16.017 13.2191 16.0684C12.9058 16.4301 12.8975 18.2194 13.2081 18.4404C13.2586 18.4762 13.3 18.5345 13.3 18.5697C13.3 18.6605 13.5304 18.9651 13.8375 19.2805C13.9819 19.4287 14.1 19.5692 14.1 19.5927C14.1 19.7105 15.1708 20.6671 15.6803 21.0044C15.7463 21.048 15.8919 21.1661 16.0041 21.2669C16.1164 21.3676 16.2313 21.45 16.2594 21.45C16.2875 21.45 16.3926 21.5149 16.4928 21.5941C16.7301 21.782 17.5735 22.3469 17.8079 22.475C17.9085 22.53 18.0885 22.6409 18.2079 22.7215C18.3274 22.8021 18.6163 22.9799 18.85 23.1165C19.0838 23.2532 19.4511 23.4685 19.6665 23.595C20.1431 23.8751 20.1759 23.8936 20.6679 24.1612C20.884 24.2789 21.1653 24.4326 21.2929 24.5031C21.6926 24.7239 22.5038 25.155 23.0465 25.4351C23.3333 25.5831 23.6708 25.7585 23.7965 25.8249C23.9221 25.8912 24.1825 26.0227 24.375 26.1171C24.5675 26.2115 24.7925 26.3235 24.875 26.366C24.9575 26.4085 25.295 26.572 25.625 26.7294C26.1564 26.9829 26.5459 27.1751 26.95 27.3836C27.0188 27.419 27.2663 27.5291 27.5 27.6281C27.7338 27.7271 27.9588 27.8384 28 27.8752C28.0413 27.912 28.1425 27.9587 28.225 27.979C28.3075 27.9994 28.5679 28.1136 28.8036 28.233C29.0394 28.3524 29.2526 28.45 29.2776 28.45C29.3026 28.45 29.5823 28.5709 29.8991 28.7185C30.2159 28.8661 30.6213 29.0485 30.8 29.1236C30.9788 29.1987 31.2363 29.3142 31.3724 29.3801C31.5084 29.4461 31.6553 29.5 31.6988 29.5C31.7421 29.5 31.8275 29.5349 31.8884 29.5775C32.3233 29.8821 33.9089 29.8541 34.4581 29.5322C34.6475 29.4212 35 28.9672 35 28.8342C35 28.8145 35.1013 28.6315 35.225 28.4276C35.3488 28.2237 35.45 28.0385 35.4499 28.016C35.4499 27.9935 35.5603 27.75 35.6951 27.475C35.8301 27.2 36.0006 26.84 36.0741 26.675C36.1476 26.51 36.2608 26.2625 36.3255 26.125C36.3903 25.9875 36.4703 25.785 36.5031 25.675C36.5361 25.565 36.5796 25.4525 36.6 25.425C36.6204 25.3975 36.6649 25.285 36.699 25.175C36.7333 25.065 36.7891 24.93 36.8235 24.875C36.8578 24.82 36.9249 24.64 36.9726 24.475C37.0204 24.31 37.0776 24.1525 37.0999 24.125C37.122 24.0975 37.167 23.9737 37.1996 23.85C37.2323 23.7262 37.2896 23.5575 37.3271 23.475C37.4121 23.2881 37.6158 22.5191 37.8238 21.6C37.9153 21.1956 38.0545 19.9064 38.0858 19.175C38.1071 18.6716 38.0824 18.3309 37.9556 17.391C37.9169 17.1034 37.7559 16.6544 37.6004 16.4C37.5751 16.3587 37.4888 16.2125 37.4083 16.075C37.3279 15.9375 37.1795 15.735 37.0785 15.625C36.9775 15.515 36.8279 15.3519 36.7461 15.2625C36.6644 15.1731 36.576 15.1 36.5499 15.1C36.5238 15.1 36.4655 15.0437 36.4204 14.975C36.3754 14.9062 36.3159 14.85 36.2884 14.85C36.2608 14.85 36.1644 14.7881 36.0743 14.7125C35.9841 14.6369 35.8145 14.5187 35.6973 14.45C35.5801 14.3812 35.4148 14.2791 35.3296 14.2231C35.2446 14.1671 35.0963 14.0904 35 14.0525C34.9038 14.0145 34.7895 13.9535 34.7461 13.9167C34.7026 13.88 34.6439 13.85 34.6155 13.85C34.5871 13.85 34.4878 13.7982 34.3945 13.735C34.3013 13.6717 34.1125 13.5896 33.975 13.5524C33.8375 13.5152 33.6895 13.4545 33.6461 13.4174C33.6026 13.3804 33.534 13.35 33.4934 13.35C33.4529 13.35 33.3084 13.2956 33.1724 13.2291C33.0363 13.1626 32.79 13.0819 32.625 13.0496C32.46 13.0172 32.28 12.9625 32.225 12.9277C32.17 12.893 32.0125 12.8486 31.875 12.8289C31.7375 12.8092 31.535 12.7514 31.425 12.7002C31.315 12.6491 31.0675 12.5919 30.875 12.5731C30.6825 12.5544 30.4013 12.4992 30.25 12.4506C30.0988 12.402 29.8175 12.3485 29.625 12.3317C29.4325 12.315 29.1513 12.2657 29 12.2224C28.4091 12.0529 24.9388 11.9591 22.825 12.0554ZM26.975 14.4289C27.6089 14.4526 27.9539 14.4911 28.332 14.5804C28.6109 14.6461 28.87 14.7 28.9078 14.7C28.9455 14.7 29.0549 14.742 29.1508 14.7932C29.2466 14.8446 29.4411 14.9114 29.5831 14.9419C29.8264 14.9939 30.1159 15.1144 30.4 15.2817C30.4688 15.3222 30.6013 15.3896 30.6945 15.4314C31.2898 15.6977 31.95 16.3746 32.1239 16.8967C32.2523 17.282 32.2871 17.6211 32.2039 17.6726C32.1785 17.6882 32.1101 17.8444 32.0519 18.0194C31.9796 18.2364 31.8869 18.3941 31.7605 18.515C31.6585 18.6126 31.5206 18.7519 31.4541 18.8245C31.3876 18.8971 31.247 19.0005 31.1416 19.0542C31.0363 19.108 30.95 19.1714 30.95 19.195C30.95 19.2185 30.8769 19.2672 30.7875 19.303C30.6981 19.3389 30.5714 19.4091 30.5058 19.4591C30.4401 19.5091 30.3499 19.55 30.305 19.55C30.2603 19.55 30.1451 19.5914 30.0493 19.6419C29.7845 19.7814 29.1169 19.9877 28.725 20.0511C28.5325 20.0822 28.2738 20.1385 28.15 20.1762C27.5158 20.3694 24.7535 20.4049 23.925 20.2305C23.5049 20.1421 23.1053 20.0606 22.8 20.0012C22.5389 19.9504 22.0181 19.7775 21.8794 19.6955C21.8269 19.6645 21.6694 19.5994 21.5294 19.551C21.3895 19.5026 21.1625 19.3934 21.025 19.3082C20.8875 19.223 20.7075 19.116 20.625 19.0702C20.3329 18.9084 19.9629 18.5514 19.7284 18.205C19.0919 17.2649 19.5145 16.1221 20.75 15.4425C20.8738 15.3745 21.02 15.2939 21.075 15.2635C21.3919 15.0884 21.711 14.95 21.798 14.95C21.8529 14.95 22.0429 14.8954 22.2203 14.8286C22.3976 14.7619 22.6509 14.691 22.783 14.6711C22.9153 14.6514 23.0995 14.6034 23.1926 14.5645C23.4021 14.4769 25.2788 14.3472 25.85 14.3809C26.0013 14.3897 26.5075 14.4114 26.975 14.4289ZM16.075 23.2747C15.8591 23.3482 15.4168 23.5675 15.175 23.7209C15.0925 23.7732 14.935 23.873 14.825 23.9427C14.453 24.1785 14.2988 24.3525 14.3344 24.4961C14.3663 24.6247 14.8206 25.104 15.0035 25.2019C15.0565 25.2302 15.1 25.284 15.1 25.3214C15.1 25.3586 15.1529 25.4024 15.2175 25.4186C15.282 25.4349 15.4789 25.5604 15.655 25.6975C16.1223 26.0617 16.1513 26.0835 16.4249 26.275C16.5623 26.3712 16.6914 26.45 16.7118 26.45C16.7323 26.45 16.882 26.5512 17.0448 26.675C17.2075 26.7987 17.364 26.9 17.3928 26.9C17.4214 26.9 17.5055 26.9562 17.5798 27.025C17.6539 27.0937 17.7434 27.15 17.7785 27.15C17.8136 27.15 17.9059 27.2031 17.9836 27.2681C18.0614 27.3331 18.1764 27.4024 18.2391 27.422C18.3019 27.4416 18.412 27.5122 18.4839 27.5789C18.5558 27.6455 18.6438 27.7 18.6795 27.7C18.7151 27.7 18.7738 27.7405 18.8096 27.79C18.8456 27.8395 18.9538 27.9119 19.05 27.9507C19.2649 28.0375 19.5621 28.2345 19.6118 28.323C19.632 28.3591 19.7321 28.4042 19.8341 28.4234C19.9361 28.4425 20.0745 28.5014 20.1416 28.5541C20.2086 28.6069 20.2953 28.65 20.334 28.65C20.3728 28.65 20.4569 28.7024 20.5208 28.7662C20.5848 28.8302 20.713 28.914 20.806 28.9525C20.8989 28.9909 21.1211 29.1186 21.2999 29.2361C21.4788 29.3536 21.6535 29.4499 21.6885 29.4499C21.7633 29.45 22.2874 29.7241 22.3983 29.8211C22.4405 29.858 22.5313 29.9046 22.6 29.9246C22.7284 29.9621 23.216 30.2207 23.35 30.3224C23.3913 30.3537 23.515 30.4097 23.625 30.4471C23.735 30.4844 23.8946 30.5677 23.9798 30.6324C24.0649 30.6971 24.1724 30.75 24.2188 30.75C24.2651 30.75 24.3151 30.7811 24.3296 30.8191C24.3443 30.8571 24.444 30.9022 24.5515 30.9194C24.6589 30.9366 24.7869 30.9929 24.8359 31.0445C24.8849 31.0961 24.9983 31.154 25.0879 31.1732C25.1775 31.1924 25.2729 31.2492 25.2998 31.2995C25.3284 31.3531 25.4323 31.4051 25.5504 31.425C25.6613 31.4437 25.7796 31.486 25.8135 31.519C25.8474 31.5519 25.9799 31.6184 26.1081 31.6669C26.2363 31.7152 26.3538 31.7875 26.369 31.8275C26.3844 31.8674 26.4344 31.9 26.4803 31.9C26.5751 31.9 27.3839 32.2835 27.4231 32.347C27.4374 32.3699 27.5335 32.4041 27.637 32.423C27.7404 32.4419 27.8994 32.5006 27.9904 32.5536C28.0813 32.6066 28.1865 32.65 28.224 32.65C28.2616 32.65 28.3576 32.7049 28.4374 32.7721C28.5173 32.8392 28.6896 32.9211 28.8205 32.9541C28.9514 32.987 29.0703 33.0446 29.0846 33.082C29.099 33.1194 29.1629 33.15 29.2265 33.15C29.2903 33.15 29.4059 33.203 29.4836 33.2677C29.5614 33.3326 29.7038 33.4002 29.8 33.418C29.8963 33.4359 30.155 33.5419 30.375 33.6534C30.595 33.7649 30.8875 33.8907 31.025 33.933C31.1625 33.9751 31.3088 34.0387 31.35 34.0742C31.3913 34.1099 31.4991 34.1546 31.5898 34.1739C31.6803 34.1931 31.7928 34.249 31.8398 34.298C31.9879 34.4529 33.161 34.5424 33.8711 34.453C34.32 34.3965 34.65 34.2334 34.65 34.0679C34.65 34.0544 34.7038 33.9717 34.7695 33.8841C34.8353 33.7966 34.9039 33.6549 34.922 33.5692C34.9401 33.4836 34.9941 33.3711 35.0419 33.3192C35.0896 33.2674 35.158 33.1535 35.1939 33.0661C35.2298 32.9787 35.2886 32.8959 35.3246 32.8821C35.3606 32.8682 35.4054 32.766 35.4241 32.655C35.4429 32.5439 35.5 32.3999 35.551 32.335C35.602 32.2701 35.659 32.1564 35.6776 32.0822C35.6963 32.008 35.7539 31.9246 35.8058 31.8969C35.8654 31.865 35.9 31.7924 35.9 31.6992C35.9 31.535 36.0396 31.15 36.0991 31.15C36.1203 31.15 36.15 31.0881 36.1654 31.0125C36.1806 30.9369 36.2364 30.8289 36.2891 30.7726C36.3419 30.7162 36.4016 30.582 36.4219 30.4744C36.442 30.3666 36.4925 30.2129 36.5339 30.1329C36.5753 30.0527 36.641 29.8799 36.68 29.7487C36.7189 29.6176 36.7815 29.4986 36.8191 29.4841C36.8598 29.4686 36.9018 29.3396 36.9228 29.1665C36.9421 29.0061 37.0011 28.8007 37.0538 28.71C37.1065 28.6191 37.1639 28.4504 37.1814 28.335C37.1988 28.2195 37.254 28.0796 37.3041 28.0242C37.3763 27.9446 37.4013 27.8084 37.4235 27.3742L37.4518 26.825L37.3478 27.0497C37.2905 27.1734 37.214 27.2912 37.1776 27.3115C37.1413 27.3319 37.0964 27.4495 37.0779 27.5731C37.0594 27.6966 37.0228 27.811 36.9964 27.8272C36.9701 27.8435 36.901 27.9509 36.8428 28.0659C36.7846 28.1809 36.7061 28.293 36.6685 28.315C36.6309 28.337 36.6 28.4079 36.6 28.4724C36.6 28.5972 36.3504 29.1076 36.2075 29.275C36.1606 29.33 36.044 29.5284 35.9486 29.7159C35.8531 29.9032 35.7356 30.0784 35.6875 30.1051C35.6394 30.1317 35.6 30.1774 35.6 30.2065C35.6 30.3289 35.389 30.5445 35.2369 30.5776C35.1479 30.5971 35.0114 30.6662 34.9336 30.7315C34.8559 30.7966 34.7391 30.85 34.674 30.85C34.609 30.85 34.47 30.9006 34.3654 30.9625C34.0824 31.1297 32.1905 31.1349 31.875 30.9691C31.765 30.9114 31.6075 30.8481 31.525 30.8284C31.4425 30.8087 31.33 30.7519 31.275 30.7022C31.22 30.6526 31.0708 30.597 30.9433 30.5787C30.8109 30.5599 30.6735 30.5036 30.623 30.4477C30.5744 30.394 30.4849 30.35 30.4243 30.35C30.3636 30.35 30.2365 30.2974 30.1418 30.2331C30.047 30.1689 29.8831 30.1022 29.7776 30.0851C29.672 30.068 29.5383 30.0105 29.4804 29.9574C29.4224 29.9042 29.3043 29.8459 29.2176 29.8276C29.1311 29.8092 29.0229 29.753 28.9771 29.7024C28.9314 29.6519 28.7966 29.5959 28.6778 29.578C28.5589 29.5602 28.4238 29.5039 28.3775 29.4527C28.3313 29.4016 28.2165 29.3455 28.1224 29.3277C28.0283 29.3101 27.9293 29.2546 27.9025 29.2045C27.87 29.1439 27.776 29.1046 27.6216 29.0872C27.494 29.0729 27.3254 29.0136 27.2469 28.9555C27.1683 28.8975 27.0726 28.85 27.0344 28.85C26.996 28.85 26.9039 28.7937 26.8298 28.725C26.7555 28.6562 26.6383 28.6 26.5691 28.6C26.4225 28.6 26.2421 28.5144 26.185 28.4177C26.163 28.3805 26.0976 28.35 26.0398 28.35C25.9819 28.35 25.8608 28.2937 25.7705 28.225C25.6804 28.1562 25.572 28.1 25.5296 28.1C25.44 28.1 24.6671 27.7181 24.6278 27.6544C24.6131 27.6307 24.5209 27.5962 24.4228 27.5779C24.3246 27.5595 24.2033 27.5032 24.153 27.453C24.1028 27.4027 23.9786 27.3342 23.8773 27.3007C23.7759 27.2672 23.6819 27.2111 23.6684 27.1759C23.6549 27.1406 23.559 27.0982 23.4554 27.0816C23.3516 27.0651 23.2259 27.0061 23.1756 26.9507C23.1255 26.8954 23.0334 26.85 22.9709 26.85C22.8603 26.85 22.7 26.7334 22.7 26.653C22.7 26.6311 22.6078 26.6007 22.4951 26.5856C22.3824 26.5706 22.2403 26.5114 22.1794 26.4541C22.1184 26.3969 22.0345 26.35 21.993 26.35C21.9514 26.35 21.8646 26.2937 21.8 26.225C21.7354 26.1562 21.6434 26.1 21.5954 26.1C21.4936 26.1 21.2008 25.9425 21.2004 25.8875C21.2001 25.8669 21.1589 25.85 21.1088 25.85C21.0585 25.85 20.9646 25.7937 20.9 25.725C20.8276 25.6479 20.7275 25.6 20.6389 25.6C20.5529 25.6 20.4511 25.553 20.3851 25.4827C20.3245 25.4182 20.2138 25.3505 20.139 25.3321C20.0641 25.3139 19.979 25.2541 19.9496 25.1994C19.9146 25.134 19.845 25.1 19.746 25.1C19.6521 25.1 19.5484 25.053 19.4705 24.975C19.4018 24.9062 19.3258 24.85 19.3016 24.85C19.2774 24.85 19.1941 24.7966 19.1164 24.7315C19.0386 24.6662 18.9049 24.5976 18.8193 24.579C18.7336 24.5602 18.619 24.5035 18.5645 24.4529C18.5101 24.4021 18.3946 24.3239 18.3078 24.279C18.221 24.2341 18.15 24.1755 18.15 24.1487C18.15 24.1219 18.1081 24.1 18.057 24.1C18.0059 24.1 17.8811 24.0437 17.7798 23.975C17.6785 23.9062 17.5746 23.85 17.5489 23.85C17.5233 23.85 17.4655 23.7937 17.4204 23.725C17.3754 23.6562 17.3084 23.6 17.2716 23.6C17.1513 23.6 16.95 23.4855 16.95 23.417C16.95 23.3801 16.9093 23.35 16.8595 23.35C16.8099 23.35 16.7255 23.317 16.672 23.2766C16.5523 23.186 16.3379 23.1852 16.075 23.2747ZM37.6 26.55C37.6 26.66 37.6089 26.75 37.6198 26.75C37.6306 26.75 37.6481 26.66 37.6586 26.55C37.669 26.44 37.6601 26.35 37.6389 26.35C37.6175 26.35 37.6 26.44 37.6 26.55Z" fill="#2389DE"/>
<path fill-rule="evenodd" clip-rule="evenodd" d="M0 25V50H25H50V25V0H25H0V25ZM27.45 11.8267C27.6563 11.8687 28.1512 11.9223 28.55 11.9456C29.2704 11.9878 30.0277 12.117 30.65 12.304C30.8287 12.3577 31.1438 12.4244 31.35 12.4519C31.5563 12.4795 31.8545 12.5466 32.0127 12.601C32.1709 12.6555 32.3287 12.7 32.3635 12.7C32.3981 12.7 32.5049 12.7416 32.6007 12.7926C32.6966 12.8436 32.8925 12.9131 33.036 12.9473C33.1795 12.9814 33.3812 13.0521 33.4841 13.1046C33.587 13.1571 33.707 13.2 33.7509 13.2C33.7947 13.2 33.9069 13.2562 34 13.325C34.0931 13.3937 34.2156 13.4504 34.2723 13.4508C34.3288 13.4511 34.4312 13.4833 34.5 13.522C34.5688 13.5608 34.715 13.6386 34.825 13.695C35.637 14.111 36.209 14.4692 36.55 14.7751C37.4482 15.581 37.9986 16.3846 38.0805 17.0095C38.0996 17.1555 38.146 17.3223 38.1836 17.3801C38.373 17.6719 38.4017 19.8543 38.224 20.45C38.1789 20.6013 38.1204 20.9342 38.094 21.1899C38.0425 21.6891 37.8081 22.691 37.687 22.9294C37.6463 23.0095 37.5966 23.187 37.5768 23.3239C37.5568 23.4606 37.5004 23.6519 37.4514 23.7489C37.4024 23.8457 37.3457 24.0009 37.3257 24.0936C37.3057 24.1865 37.2489 24.3327 37.1995 24.4186C37.1501 24.5046 37.0937 24.6538 37.0741 24.75C37.0395 24.9205 36.8684 25.3362 36.719 25.612C36.6783 25.6874 36.6103 25.8656 36.568 26.0081C36.5256 26.1506 36.4617 26.314 36.4261 26.3711C36.3904 26.4282 36.3344 26.5594 36.3018 26.6625C36.269 26.7656 36.2224 26.85 36.198 26.85C36.1738 26.85 36.1284 26.9456 36.0974 27.0625C36.0662 27.1794 36.0005 27.3425 35.9511 27.425C35.9018 27.5075 35.8454 27.628 35.8257 27.6926C35.806 27.7574 35.736 27.8899 35.67 27.9871C35.604 28.0844 35.55 28.1981 35.55 28.2397C35.55 28.2815 35.4937 28.3892 35.425 28.4795C35.3562 28.5696 35.3 28.6657 35.3 28.6931C35.3 28.7205 35.2707 28.7726 35.2349 28.8089C35.1991 28.8452 35.1318 28.9706 35.0853 29.0875C34.9945 29.3157 34.7686 29.6 34.6779 29.6C34.6473 29.6 34.5843 29.6444 34.5378 29.6986C34.4914 29.7529 34.3908 29.8097 34.3141 29.8251C34.2376 29.8404 34.0738 29.8877 33.95 29.9304C33.606 30.0489 32.8331 30.074 32.5 29.9776C32.3487 29.9339 32.1137 29.8669 31.9779 29.8289C31.8419 29.7907 31.7069 29.7273 31.6779 29.6876C31.6488 29.648 31.535 29.5992 31.425 29.5791C31.315 29.5591 31.1546 29.5018 31.0686 29.4516C30.9827 29.4016 30.8444 29.3457 30.7614 29.3275C30.6784 29.3092 30.5708 29.2506 30.5224 29.1971C30.4741 29.1437 30.3861 29.1 30.3271 29.1C30.268 29.1 30.1084 29.0455 29.9724 28.9789C29.8363 28.9122 29.6406 28.8234 29.5375 28.7815C29.4344 28.7395 29.35 28.6815 29.35 28.6525C29.35 28.6236 29.3055 28.6 29.251 28.6C29.1234 28.6 28.75 28.451 28.75 28.4001C28.75 28.3786 28.6752 28.3471 28.5837 28.33C28.4924 28.3127 28.3695 28.254 28.3109 28.1994C28.2521 28.1448 28.1632 28.1 28.1134 28.1C28.0634 28.1 27.888 28.0333 27.7237 27.9516C27.5594 27.8699 27.4004 27.8024 27.3703 27.8016C27.3401 27.8007 27.2748 27.755 27.225 27.7C27.1753 27.645 27.0874 27.6 27.0298 27.5999C26.9721 27.5999 26.8462 27.5566 26.75 27.5037C26.6538 27.4509 26.4924 27.3705 26.3914 27.325C26.2904 27.2795 26.1966 27.2134 26.1831 27.1782C26.1696 27.143 26.07 27.1 25.9618 27.0826C25.8536 27.0654 25.711 27.009 25.645 26.9575C25.579 26.9059 25.4687 26.8469 25.4 26.8261C25.3312 26.8055 25.23 26.7479 25.175 26.6982C25.12 26.6487 24.9904 26.5925 24.8871 26.5734C24.7838 26.5544 24.6451 26.4962 24.5791 26.4444C24.5132 26.3925 24.4377 26.35 24.4116 26.35C24.3854 26.35 24.2877 26.2986 24.1945 26.236C24.1012 26.1733 23.932 26.0944 23.8184 26.0607C23.7049 26.0271 23.584 25.9659 23.5497 25.9247C23.5156 25.8836 23.4585 25.85 23.4228 25.85C23.387 25.85 23.2941 25.798 23.2164 25.7345C23.1386 25.671 22.982 25.5921 22.8684 25.5592C22.7549 25.5264 22.634 25.4659 22.5998 25.4247C22.5656 25.3836 22.5085 25.35 22.4727 25.35C22.437 25.35 22.3441 25.2981 22.2664 25.2348C22.1886 25.1714 22.029 25.0889 21.9118 25.0515C21.7945 25.0141 21.6736 24.9535 21.6431 24.9167C21.6128 24.88 21.5585 24.85 21.5228 24.85C21.487 24.85 21.3909 24.7938 21.3091 24.725C21.2274 24.6563 21.1276 24.6 21.0872 24.6C21.047 24.6 20.9311 24.5438 20.8298 24.475C20.7285 24.4063 20.6258 24.35 20.6016 24.35C20.5775 24.35 20.4941 24.2971 20.4164 24.2326C20.3386 24.168 20.2124 24.0999 20.1359 24.0812C20.0593 24.0625 19.9586 24.0029 19.9123 23.9486C19.8658 23.8944 19.7868 23.85 19.7366 23.85C19.6865 23.85 19.5893 23.7938 19.5205 23.725C19.4518 23.6563 19.3659 23.6 19.3298 23.6C19.2935 23.6 19.1811 23.5438 19.0798 23.475C18.9785 23.4063 18.873 23.35 18.8455 23.35C18.818 23.35 18.7421 23.2966 18.6769 23.2315C18.6117 23.1663 18.4998 23.0982 18.4279 23.0802C18.3561 23.0622 18.2552 23.0052 18.2036 22.9536C18.1521 22.9021 18.0656 22.8459 18.0115 22.8286C17.9575 22.8115 17.873 22.753 17.8239 22.6987C17.7748 22.6444 17.706 22.6 17.6711 22.6C17.6363 22.6 17.5409 22.5438 17.4591 22.475C17.3774 22.4063 17.2874 22.35 17.2591 22.35C17.2309 22.35 17.1441 22.2971 17.0664 22.2326C16.9886 22.168 16.8663 22.0836 16.7945 22.0451C16.5385 21.9076 16.25 21.698 16.25 21.6494C16.25 21.6223 16.2153 21.6 16.1728 21.6C16.1303 21.6 16.0392 21.5438 15.9705 21.475C15.9017 21.4063 15.8279 21.35 15.8065 21.35C15.785 21.35 15.7146 21.2938 15.65 21.225C15.5854 21.1563 15.5114 21.1 15.4854 21.1C15.4594 21.1 15.3565 21.0325 15.2566 20.9499C15.1568 20.8674 15.0187 20.755 14.95 20.7C14.6246 20.4403 14.4 20.2238 14.4 20.17C14.4 20.1375 14.3455 20.0971 14.2788 20.0804C14.2121 20.0638 14.1053 19.9823 14.0413 19.8994C13.9774 19.8166 13.8237 19.6391 13.7 19.5051C13.5762 19.3711 13.4236 19.1858 13.3609 19.0933C13.057 18.645 12.9518 18.4695 12.9509 18.4094C12.9504 18.3734 12.8919 18.221 12.8209 18.0709C12.6493 17.708 12.6353 16.9169 12.7948 16.5831C12.8494 16.4686 12.9096 16.3075 12.9285 16.225C13.0288 15.7865 14.0174 14.7156 14.775 14.2247C15.0225 14.0644 15.3186 13.8695 15.4331 13.7916C15.5476 13.7138 15.6687 13.65 15.7022 13.65C15.7357 13.65 15.8334 13.6076 15.9191 13.5557C16.0049 13.5039 16.1313 13.4454 16.2 13.4256C16.3158 13.3926 16.435 13.3409 17.0532 13.0554C17.1789 12.9974 17.319 12.95 17.3647 12.95C17.4106 12.95 17.5891 12.8949 17.7615 12.8275C18.2256 12.6461 18.8876 12.4594 19.2 12.4215C19.3513 12.4033 19.5351 12.3575 19.6086 12.3199C19.6821 12.2822 19.9521 12.2175 20.2086 12.1761C20.4651 12.1346 20.7538 12.0779 20.85 12.0499C20.9463 12.0219 21.3512 11.9766 21.75 11.9494C22.1488 11.9221 22.7337 11.8659 23.05 11.8244C23.9051 11.7121 23.9999 11.7086 25.6 11.7304C26.6575 11.7446 27.1811 11.7719 27.45 11.8267ZM24.475 14.5965C24.115 14.6163 23.7924 14.6617 23.6685 14.7102C23.555 14.7549 23.33 14.8064 23.1685 14.8247C23.0071 14.8432 22.785 14.8982 22.675 14.947C22.565 14.9957 22.3625 15.0494 22.225 15.0662C22.0875 15.083 21.8625 15.153 21.725 15.2218C21.5875 15.2906 21.4469 15.3476 21.4125 15.3484C21.3781 15.3493 21.3056 15.3944 21.2512 15.4487C21.197 15.503 21.0901 15.5628 21.0138 15.5814C20.8834 15.6131 20.7893 15.6766 20.4268 15.9771C20.3453 16.0448 20.2384 16.1 20.1893 16.1C20.1363 16.1 20.1 16.137 20.1 16.191C20.1 16.241 20.0325 16.3576 19.95 16.45C19.8675 16.5424 19.8 16.6446 19.8 16.6772C19.8 16.7099 19.755 16.7937 19.7 16.8636C19.5438 17.0622 19.5579 17.6015 19.725 17.8205C19.7938 17.9107 19.85 18.0016 19.85 18.0225C19.85 18.1305 20.3958 18.7 20.4993 18.7C20.5234 18.7 20.5575 18.745 20.575 18.8C20.5925 18.855 20.6425 18.9 20.6863 18.9C20.73 18.9 20.9366 19.0084 21.1454 19.141C21.3541 19.2735 21.634 19.4094 21.7671 19.4429C21.9004 19.4764 22.0579 19.5341 22.1171 19.5713C22.1765 19.6084 22.314 19.6544 22.4226 19.6735C22.5314 19.6928 22.7003 19.7491 22.7978 19.7989C22.8954 19.8486 23.1326 19.9049 23.3251 19.9236C23.5175 19.9425 23.9411 20.0011 24.2664 20.054C25.0989 20.1891 26.7636 20.189 27.6175 20.0537C27.9516 20.0009 28.3712 19.9354 28.55 19.9084C28.7287 19.8814 29.0662 19.7879 29.3 19.7008C29.5337 19.6135 29.8523 19.5044 30.0076 19.4583C30.1631 19.4121 30.3336 19.3351 30.3866 19.2871C30.4395 19.2392 30.5094 19.2 30.5419 19.2C30.5744 19.2 30.694 19.1325 30.8079 19.05C30.9219 18.9675 31.037 18.9 31.0639 18.9C31.1148 18.9 31.5826 18.416 31.8 18.1386C31.913 17.9942 31.9265 17.9265 31.9415 17.427C31.9595 16.8274 31.9564 16.8191 31.5689 16.4252C31.5105 16.3659 31.4366 16.2685 31.4046 16.2086C31.3726 16.1489 31.3191 16.0996 31.2857 16.0993C31.2524 16.0988 31.1515 16.0369 31.0618 15.9618C30.7235 15.6785 30.6206 15.6124 30.4649 15.5782C30.3767 15.5589 30.253 15.5046 30.1899 15.4576C30.1266 15.4108 29.985 15.342 29.875 15.305C29.765 15.268 29.6413 15.2086 29.6 15.173C29.5588 15.1374 29.3798 15.0821 29.2024 15.0501C29.0249 15.0181 28.7886 14.9626 28.6774 14.9268C28.566 14.8909 28.3287 14.8341 28.15 14.8009C27.9712 14.7675 27.735 14.7106 27.625 14.6746C27.3866 14.5964 25.3848 14.5469 24.475 14.5965ZM13.5393 20.6847C13.6733 20.7684 14.1306 21.1317 14.325 21.3089C14.6076 21.5666 15.0234 21.879 15.5929 22.2615C15.7677 22.3789 15.96 22.52 16.0203 22.575C16.0805 22.63 16.2861 22.7528 16.4774 22.8479C16.6686 22.9429 16.9546 23.1172 17.113 23.2354C17.2715 23.3534 17.4224 23.45 17.4484 23.45C17.4998 23.45 17.7966 23.6343 18.0068 23.7964C18.0793 23.8524 18.1961 23.92 18.2665 23.9468C18.337 23.9735 18.5048 24.0729 18.6394 24.1675C18.774 24.2621 19.0125 24.4003 19.1695 24.4745C19.3265 24.5489 19.5553 24.6861 19.6779 24.7798C19.8005 24.8734 19.9225 24.95 19.9489 24.95C20.0195 24.95 20.5924 25.2471 20.6256 25.3011C20.6414 25.3264 20.7489 25.3936 20.8646 25.4504C21.2806 25.6544 21.4762 25.7615 21.55 25.8255C21.5912 25.8614 21.7217 25.9165 21.8401 25.948C21.9584 25.9795 22.0676 26.0378 22.0829 26.0776C22.0982 26.1174 22.1389 26.15 22.1734 26.15C22.2079 26.15 22.3149 26.2035 22.4112 26.2689C22.5076 26.3343 22.6739 26.4159 22.7808 26.4503C22.8876 26.4845 23.0087 26.5412 23.05 26.5764C23.0912 26.6114 23.2037 26.6756 23.3 26.719C23.3962 26.7625 23.5087 26.8191 23.55 26.845C23.5912 26.8709 23.8209 26.9845 24.0604 27.0974C24.2999 27.2103 24.5084 27.3231 24.5238 27.3481C24.5393 27.373 24.6734 27.4287 24.8219 27.4719C24.9704 27.5151 25.0993 27.5672 25.1084 27.5877C25.1303 27.6367 25.7587 27.9532 25.8307 27.9514C25.8614 27.9506 25.9401 27.9914 26.0058 28.042C26.0714 28.0926 26.2022 28.1604 26.2967 28.1926C26.3912 28.2249 26.5037 28.2809 26.5467 28.317C26.5897 28.3531 26.7198 28.4098 26.8355 28.4428C26.9513 28.4758 27.1987 28.5891 27.3855 28.6946C27.5722 28.8 27.7812 28.904 27.8499 28.9255C27.9186 28.947 28.2046 29.0739 28.4855 29.2073C28.7664 29.3408 29.0118 29.45 29.0308 29.45C29.0498 29.45 29.2081 29.5175 29.3827 29.6C29.5574 29.6825 29.72 29.75 29.744 29.75C29.7681 29.75 29.8146 29.7823 29.8474 29.8218C29.8801 29.8613 29.9785 29.9082 30.066 29.9261C30.218 29.9572 30.3691 30.019 30.925 30.2768C31.0625 30.3405 31.2988 30.4369 31.45 30.4911C31.6013 30.5453 31.816 30.6239 31.9271 30.6659C32.5594 30.905 34.0243 30.8465 34.6601 30.5567C34.789 30.498 34.9151 30.45 34.9404 30.45C35.0945 30.45 35.5216 29.9867 35.6734 29.6551C35.7161 29.5617 35.7811 29.4605 35.8177 29.4301C35.8545 29.3997 35.9143 29.2963 35.9505 29.2C35.9868 29.1038 36.0439 28.9913 36.0773 28.95C36.1496 28.8609 36.4109 28.3426 36.4995 28.1125C36.534 28.0231 36.5795 27.95 36.6006 27.95C36.6219 27.95 36.6544 27.8895 36.6729 27.8155C36.6915 27.7416 36.7479 27.6233 36.7981 27.5526C36.8485 27.4819 36.9166 27.323 36.9497 27.1995C36.9827 27.076 37.0304 26.9498 37.0556 26.919C37.1231 26.8365 37.382 26.306 37.4675 26.075C37.7109 25.4176 37.7914 25.2474 37.9375 25.0812C38.0269 24.9796 38.1 24.8702 38.1 24.8382C38.1 24.7954 38.1148 24.7948 38.1558 24.8358C38.2253 24.9053 38.2294 25.3788 38.1613 25.4629C38.1336 25.4971 38.095 25.7163 38.0752 25.95C38.0411 26.355 37.8903 27.0137 37.7204 27.5C37.6771 27.6238 37.6089 27.8567 37.5686 28.0177C37.461 28.449 37.2566 29.0575 37.1801 29.1741C37.1435 29.2301 37.0889 29.3882 37.0589 29.5255C37.0289 29.6627 36.9584 29.8641 36.9022 29.9731C36.846 30.082 36.8 30.2023 36.8 30.2404C36.8 30.2784 36.7577 30.3692 36.7062 30.4422C36.6546 30.5152 36.5965 30.6487 36.5769 30.7389C36.5574 30.8291 36.4522 31.0764 36.3431 31.2884C36.234 31.5004 36.0639 31.8766 35.9649 32.1245C35.866 32.3723 35.7553 32.6099 35.7189 32.6525C35.6824 32.6951 35.6211 32.8189 35.5826 32.9275C35.5441 33.0361 35.4421 33.2375 35.3561 33.375C35.27 33.5125 35.1519 33.7246 35.0936 33.8462C34.9187 34.2111 34.6077 34.5294 34.3765 34.5801C34.294 34.5982 34.1751 34.6467 34.1124 34.6879C33.8102 34.8859 32.4495 34.8571 32.0525 34.6444C31.9558 34.5925 31.8311 34.5499 31.7757 34.5496C31.7204 34.5495 31.6075 34.5046 31.525 34.45C31.4425 34.3954 31.3388 34.3505 31.2945 34.3504C31.2503 34.3501 31.1345 34.2961 31.0374 34.2301C30.9402 34.1643 30.7852 34.0941 30.6929 34.0744C30.4912 34.0311 29.8215 33.7251 29.7794 33.657C29.7629 33.6305 29.6603 33.5936 29.5513 33.5752C29.4421 33.5567 29.2981 33.4986 29.2311 33.4459C29.1641 33.3931 29.0854 33.35 29.0562 33.35C28.9704 33.35 28.65 33.185 28.65 33.1408C28.65 33.1184 28.6019 33.1 28.5431 33.1C28.4171 33.1 27.6 32.7121 27.6 32.6522C27.6 32.6296 27.52 32.5961 27.4221 32.5778C27.2342 32.5425 26.5743 32.2296 26.5273 32.1535C26.512 32.1289 26.4103 32.0936 26.3013 32.0752C26.1921 32.0567 26.0481 31.9986 25.9811 31.9459C25.9141 31.8931 25.8377 31.85 25.8116 31.85C25.7854 31.85 25.6877 31.7986 25.5945 31.736C25.5012 31.6733 25.332 31.5944 25.2184 31.5607C25.1049 31.5271 24.984 31.4659 24.9498 31.4247C24.9156 31.3836 24.8599 31.35 24.8259 31.35C24.7917 31.35 24.6861 31.2972 24.5911 31.2327C24.4961 31.1682 24.3536 31.0992 24.2747 31.0794C24.1957 31.0596 24.0735 31.0028 24.003 30.9533C23.9326 30.9036 23.8188 30.8464 23.75 30.8259C23.6812 30.8052 23.58 30.7499 23.525 30.7027C23.47 30.6556 23.332 30.5906 23.2184 30.5583C23.1049 30.526 22.984 30.4659 22.9498 30.4247C22.9156 30.3836 22.8585 30.35 22.8228 30.35C22.787 30.35 22.6939 30.2963 22.6159 30.2306C22.5379 30.165 22.3955 30.0895 22.2995 30.0629C22.1331 30.0168 21.8119 29.8324 21.6488 29.6894C21.6069 29.6526 21.4785 29.5944 21.3634 29.5599C21.2484 29.5255 21.1419 29.4772 21.1269 29.453C21.1117 29.4286 20.9984 29.3598 20.8748 29.2999C20.7511 29.24 20.65 29.1706 20.65 29.1455C20.65 29.1205 20.6081 29.1 20.557 29.1C20.5059 29.1 20.3811 29.0438 20.2798 28.975C20.1785 28.9063 20.078 28.85 20.0565 28.85C20.035 28.85 19.9678 28.7971 19.9069 28.7324C19.8461 28.6677 19.7099 28.5889 19.6041 28.5571C19.4984 28.5255 19.384 28.4659 19.3498 28.4247C19.3156 28.3836 19.2585 28.35 19.2227 28.35C19.187 28.35 19.0941 28.2989 19.0164 28.2364C18.9386 28.1739 18.7963 28.0835 18.7 28.0355C18.6038 27.9875 18.4237 27.8819 18.3 27.8009C18.1762 27.7197 17.9962 27.607 17.9 27.5504C17.4356 27.2771 17.3722 27.2345 17.335 27.1696C17.313 27.1314 17.2669 27.1 17.2325 27.1C17.198 27.1 17.0281 27.0044 16.8547 26.8875C16.6815 26.7706 16.4676 26.63 16.3795 26.575C16.2005 26.4633 16.0943 26.3781 15.927 26.2125C15.8646 26.1506 15.7809 26.1 15.741 26.1C15.701 26.1 15.5512 25.9889 15.4081 25.853C15.2649 25.7171 15.1044 25.5923 15.0514 25.5755C14.9985 25.5586 14.9412 25.501 14.9242 25.4475C14.9071 25.3939 14.8666 25.3499 14.8341 25.3499C14.7481 25.3496 14.0092 24.6626 13.9276 24.507C13.8895 24.4344 13.7698 24.285 13.6614 24.175C13.2494 23.7566 12.958 23.2244 12.7994 22.6001C12.6827 22.1412 12.9154 21.1068 13.2109 20.7703C13.3854 20.5715 13.366 20.5766 13.5393 20.6847ZM13.8179 25.6322C14.0419 25.815 14.2746 26.0119 14.3352 26.0697C14.4547 26.1837 14.549 26.2586 15.0606 26.6459C15.2454 26.7856 15.4164 26.9 15.4408 26.9C15.4653 26.9 15.5547 26.9619 15.6396 27.0375C15.8802 27.2516 16.1073 27.4192 16.2471 27.4862C16.3541 27.5375 16.9031 27.904 17.075 28.0389C17.1025 28.0605 17.215 28.1325 17.325 28.199C17.435 28.2654 17.5362 28.3352 17.55 28.3542C17.5637 28.3732 17.6538 28.4251 17.75 28.4695C17.8462 28.514 18.0262 28.6169 18.15 28.6981C18.2737 28.7794 18.465 28.8923 18.575 28.9489C18.8031 29.0663 18.8905 29.1199 19.1674 29.3125C19.2761 29.3881 19.3937 29.45 19.4289 29.45C19.4641 29.45 19.524 29.4811 19.5621 29.5193C19.6001 29.5573 19.7199 29.6362 19.8281 29.6947C19.9364 29.7532 20.0588 29.8228 20.1 29.8493C20.1413 29.8759 20.2538 29.9319 20.35 29.9737C20.5888 30.0777 20.9515 30.2859 21.051 30.3759C21.096 30.4166 21.1596 30.45 21.1924 30.45C21.2251 30.45 21.3359 30.5014 21.4385 30.5643C21.5411 30.6271 21.6812 30.7057 21.75 30.7389C21.8188 30.7721 21.9088 30.8221 21.95 30.8501C21.9913 30.8781 22.1038 30.9349 22.2 30.9762C22.2963 31.0176 22.4875 31.1158 22.625 31.1943C22.7625 31.2726 23.0662 31.4336 23.3 31.5518C23.5337 31.6699 23.7587 31.7937 23.8 31.827C23.8412 31.8602 23.965 31.916 24.075 31.951C24.2971 32.0218 24.8156 32.2988 24.8416 32.3605C24.8509 32.3823 24.8971 32.4 24.9446 32.4C24.9921 32.4 25.2514 32.5115 25.5208 32.6479C25.7901 32.7843 26.0926 32.9224 26.1928 32.9549C26.293 32.9875 26.546 33.1121 26.7549 33.232C26.9639 33.3519 27.1664 33.4501 27.2049 33.4502C27.2435 33.4504 27.365 33.506 27.475 33.5737C27.585 33.6415 27.7126 33.6976 27.7586 33.6985C27.8046 33.6993 27.9059 33.7527 27.9836 33.8172C28.0614 33.8817 28.2022 33.9495 28.2967 33.9679C28.3911 33.9863 28.5036 34.0309 28.5467 34.0671C28.5897 34.1034 28.7319 34.1725 28.8625 34.2206C28.9931 34.2689 29.1 34.3264 29.1 34.3486C29.1 34.3708 29.1801 34.4039 29.278 34.4222C29.3759 34.4406 29.6852 34.5639 29.9655 34.6963C30.2457 34.8285 30.559 34.9639 30.6618 34.997C30.7645 35.0301 30.8615 35.0781 30.8773 35.1036C30.893 35.1291 30.9463 35.15 30.9955 35.15C31.0448 35.15 31.1954 35.2091 31.33 35.2814C31.569 35.4096 31.8951 35.5116 32.35 35.6003C32.7354 35.6753 33.7559 35.6589 34.0295 35.5731C34.1645 35.5309 34.3922 35.476 34.5355 35.4511C34.8646 35.394 35.45 34.9896 35.45 34.8195C35.45 34.7859 35.4942 34.706 35.5482 34.6418C35.8054 34.3361 35.8892 34.2154 35.9249 34.1C35.9825 33.9135 36.2044 33.4889 36.3037 33.375C36.3517 33.32 36.4157 33.182 36.4459 33.0684C36.476 32.9546 36.5329 32.835 36.5721 32.8024C36.6114 32.7698 36.6575 32.6795 36.6746 32.6017C36.6918 32.524 36.7481 32.422 36.8 32.375C36.8519 32.328 36.9098 32.2189 36.9285 32.1324C36.9473 32.0457 37.0724 31.7444 37.2064 31.4626C37.3404 31.1808 37.4503 30.922 37.4505 30.8876C37.4508 30.8531 37.5063 30.7125 37.5739 30.575C37.6415 30.4375 37.6976 30.2886 37.6984 30.2442C37.6993 30.1999 37.7469 30.1039 37.8042 30.031C37.8616 29.9581 37.9302 29.8144 37.9569 29.7118C38.075 29.2553 38.1399 29.1832 38.3162 29.3125C38.4189 29.3877 38.3158 30.6256 38.1854 30.8826C38.1456 30.961 38.097 31.1935 38.0774 31.3995C38.0577 31.6054 38.0006 31.8979 37.9506 32.0495C37.9006 32.201 37.8343 32.434 37.803 32.5671C37.7718 32.7004 37.7159 32.8579 37.6787 32.9171C37.6416 32.9765 37.5961 33.115 37.5776 33.225C37.5381 33.4594 37.2963 34.1391 37.1511 34.4231C37.0955 34.532 37.0499 34.667 37.0498 34.7231C37.0495 34.7791 37.0135 34.8925 36.9696 34.975C36.9257 35.0575 36.8575 35.2319 36.818 35.3625C36.7785 35.4931 36.7274 35.6 36.7045 35.6C36.6817 35.6 36.6339 35.7069 36.5984 35.8375C36.5627 35.9681 36.4361 36.2662 36.3169 36.5C36.1978 36.7338 36.1001 36.9497 36.1001 36.98C36.1 37.0457 35.764 37.6934 35.6748 37.8C35.6401 37.8412 35.5949 37.9304 35.5742 37.9979C35.5535 38.0655 35.4552 38.2647 35.3559 38.4405C35.2564 38.6162 35.1234 38.8532 35.0602 38.9671C34.8387 39.3667 34.531 39.6 34.2249 39.6C34.1543 39.6 34.0404 39.6368 33.9719 39.6816C33.761 39.8199 32.8019 39.8373 32.425 39.7098C32.26 39.654 32.035 39.5927 31.925 39.5736C31.815 39.5545 31.6506 39.4964 31.5596 39.4445C31.4688 39.3925 31.365 39.35 31.3291 39.35C31.2932 39.35 31.1811 39.2937 31.0798 39.225C30.9785 39.1562 30.8554 39.1 30.8062 39.1C30.7571 39.1 30.6063 39.0437 30.471 38.9751C30.3358 38.9064 30.1539 38.8265 30.0669 38.7976C29.98 38.7688 29.8963 38.7125 29.881 38.6726C29.8656 38.6326 29.7966 38.6 29.7276 38.6C29.5721 38.6 29.2 38.4551 29.2 38.3946C29.2 38.37 29.1581 38.35 29.107 38.35C29.0559 38.35 28.9345 38.2961 28.8374 38.2301C28.7403 38.1643 28.5859 38.0939 28.4942 38.0737C28.3234 38.0362 27.784 37.7825 27.65 37.6765C27.6087 37.6439 27.482 37.5908 27.3684 37.5584C27.2549 37.526 27.134 37.4659 27.0998 37.4248C27.0656 37.3836 27.0119 37.35 26.9801 37.35C26.9484 37.35 26.788 37.2833 26.6238 37.2016C26.4594 37.1199 26.2886 37.0524 26.2442 37.0516C26.1999 37.0507 26.1099 37.0081 26.0443 36.9569C25.9786 36.9056 25.8687 36.8469 25.8 36.8261C25.7312 36.8055 25.63 36.7499 25.575 36.7028C25.52 36.6556 25.382 36.5906 25.2684 36.5583C25.1549 36.526 25.034 36.4659 24.9998 36.4248C24.9656 36.3836 24.9099 36.35 24.8759 36.35C24.8418 36.35 24.7345 36.2961 24.6374 36.2301C24.5402 36.1643 24.3919 36.0951 24.3078 36.0768C24.2235 36.0583 24.103 36.0028 24.0399 35.9534C23.9766 35.9041 23.8687 35.8469 23.8 35.8261C23.7312 35.8055 23.63 35.7481 23.575 35.6987C23.52 35.6494 23.3804 35.5839 23.2646 35.5531C23.1489 35.5224 23.0406 35.4752 23.0239 35.4482C22.9952 35.4017 22.8459 35.3187 22.45 35.1292C22.3538 35.0831 22.2187 35.0132 22.15 34.974C22.0812 34.9346 21.9294 34.8578 21.8125 34.803C21.6956 34.7484 21.6 34.6839 21.6 34.6598C21.6 34.6356 21.511 34.5891 21.4023 34.5566C21.2935 34.524 21.1754 34.4698 21.1397 34.4361C21.1041 34.4025 20.9906 34.336 20.8875 34.2882C20.7844 34.2406 20.7 34.1813 20.7 34.1564C20.7 34.1315 20.62 34.0961 20.5222 34.0778C20.4244 34.0594 20.3029 34.0029 20.2521 33.9521C20.2014 33.9014 20.1156 33.8459 20.0615 33.8286C20.0075 33.8115 19.923 33.753 19.8739 33.6987C19.8247 33.6444 19.7448 33.6 19.6961 33.6C19.6475 33.6 19.5441 33.5489 19.4664 33.4864C19.3886 33.4239 19.2406 33.3343 19.1375 33.2873C19.0344 33.2401 18.95 33.1787 18.95 33.1507C18.95 33.1229 18.9099 33.1 18.8609 33.1C18.7769 33.1 18.3126 32.8314 18.1515 32.6896C18.1111 32.6541 17.9986 32.5868 17.9015 32.5401C17.8045 32.4934 17.635 32.3877 17.525 32.3054C17.415 32.223 17.2294 32.1106 17.1125 32.0556C16.9956 32.0006 16.9 31.9319 16.9 31.9028C16.9 31.8738 16.8734 31.85 16.8407 31.85C16.8081 31.85 16.7318 31.8034 16.6711 31.7463C16.6104 31.6893 16.4931 31.6049 16.4104 31.5588C16.137 31.4064 15.85 31.1994 15.85 31.1548C15.85 31.1306 15.7951 31.097 15.728 31.0802C15.6609 31.0634 15.5012 30.954 15.3734 30.8372C15.2454 30.7205 15.0995 30.6025 15.0491 30.575C14.791 30.4341 13.7337 29.4201 13.407 29C13.268 28.8213 13.1088 28.6213 13.0531 28.5556C12.9975 28.49 12.938 28.3623 12.9211 28.2716C12.9041 28.181 12.8605 28.0955 12.8243 28.0816C12.5348 27.9705 12.5317 26.2341 12.8202 25.9021C12.8571 25.8597 12.9136 25.743 12.9459 25.6427C12.9986 25.478 13.2121 25.3052 13.3679 25.3011C13.3915 25.3005 13.594 25.4495 13.8179 25.6322Z" fill="#FBFBFB"/>
<path fill-rule="evenodd" clip-rule="evenodd" d="M13.2553 25.5964C13.167 25.619 13.1184 25.6847 13.0708 25.8462C13.0351 25.9667 12.9823 26.0801 12.9531 26.0981C12.7499 26.2236 12.7638 27.5325 12.9725 27.925C13.0426 28.057 13.1 28.2041 13.1 28.2521C13.1 28.3 13.134 28.3524 13.1754 28.3682C13.2169 28.3841 13.2788 28.4587 13.3129 28.534C13.4486 28.833 14.719 30.089 15.3521 30.55C15.4844 30.6462 15.7294 30.8319 15.8968 30.9625C16.0641 31.0931 16.2163 31.2 16.2349 31.2C16.2534 31.2 16.315 31.2429 16.3718 31.2952C16.4285 31.3476 16.5445 31.432 16.6296 31.4827C16.7146 31.5335 16.9245 31.665 17.096 31.775C17.2675 31.885 17.5693 32.0779 17.7664 32.2037C17.9636 32.3295 18.2921 32.5407 18.4964 32.6731C18.7006 32.8055 19.0156 32.9918 19.1964 33.087C19.3771 33.1824 19.5588 33.2895 19.6 33.3251C19.6413 33.3609 19.7538 33.4267 19.85 33.4716C20.1061 33.591 20.4633 33.7977 20.5539 33.8791C20.5974 33.9181 20.6674 33.95 20.7095 33.95C20.7516 33.95 20.8689 34.0062 20.9703 34.075C21.0715 34.1437 21.1725 34.2 21.1945 34.2C21.2165 34.2 21.2734 34.243 21.3209 34.2955C21.3685 34.348 21.4676 34.4057 21.5411 34.4239C21.6148 34.442 21.7313 34.4937 21.8 34.5389C21.8688 34.5841 22.2063 34.7644 22.55 34.9394C22.8938 35.1144 23.2105 35.2896 23.2539 35.3289C23.2974 35.368 23.354 35.4 23.3799 35.4C23.4174 35.4 24.4581 35.9145 25.325 36.3616C25.5159 36.46 26.401 36.8809 26.9375 37.1281C27.1644 37.2327 27.35 37.3349 27.35 37.3552C27.35 37.3755 27.4231 37.4077 27.5125 37.4271C27.7028 37.4681 28.3829 37.7819 28.4234 37.8474C28.4386 37.8721 28.5229 37.908 28.6105 37.9272C28.6981 37.9465 28.96 38.0601 29.1924 38.1797C29.4248 38.2994 29.696 38.4228 29.795 38.4539C29.894 38.485 30.0918 38.5645 30.2344 38.6302C30.3771 38.6961 30.515 38.75 30.5408 38.75C30.5666 38.75 30.6128 38.7801 30.6433 38.8169C30.6739 38.8537 30.7948 38.9122 30.9119 38.947C31.148 39.0169 31.5936 39.2046 31.825 39.3316C32.2524 39.5663 33.8305 39.6062 34.3556 39.3959C34.5669 39.3112 34.8703 38.9526 35.0714 38.55C35.1744 38.3437 35.2879 38.1412 35.3234 38.1C35.359 38.0587 35.405 37.9688 35.4256 37.9C35.4654 37.7671 35.7655 37.1915 35.881 37.0264C35.919 36.9721 35.9503 36.8934 35.9505 36.8514C35.9508 36.8094 36.0063 36.6625 36.0739 36.525C36.1415 36.3875 36.1976 36.2513 36.1984 36.2223C36.1993 36.1931 36.2563 36.0931 36.325 36C36.3938 35.9069 36.45 35.7835 36.45 35.7259C36.45 35.6682 36.4944 35.5341 36.5485 35.4279C36.6028 35.3215 36.6833 35.1257 36.7274 34.9929C36.7715 34.86 36.8261 34.7397 36.8488 34.7257C36.8714 34.7117 36.9173 34.5821 36.9506 34.4376C36.984 34.2932 37.0395 34.1296 37.0741 34.0742C37.1086 34.0189 37.1535 33.8951 37.1739 33.7992C37.1943 33.7034 37.2534 33.5462 37.3054 33.45C37.3574 33.3537 37.4331 33.1287 37.4739 32.95C37.6181 32.3161 37.7929 31.6937 37.8439 31.6324C37.9676 31.4832 38.0274 30.3979 37.9115 30.401C37.873 30.402 37.55 31.105 37.55 31.1877C37.55 31.2637 37.2048 31.9912 37.1536 32.0227C37.1284 32.0384 37.092 32.1225 37.0729 32.2097C37.0425 32.3479 36.7894 32.881 36.6501 33.1C36.6239 33.1412 36.5673 33.2537 36.5243 33.35C36.3928 33.6445 36.2423 33.919 36.1438 34.0442C36.0923 34.1099 36.05 34.2024 36.05 34.2499C36.05 34.3251 35.9066 34.5459 35.6906 34.8032C35.6545 34.8462 35.5803 34.9677 35.5256 35.0732C35.4645 35.191 35.3645 35.2909 35.2665 35.3317C35.1786 35.3685 35.0931 35.4207 35.0764 35.4479C35.0595 35.475 34.9511 35.5235 34.8354 35.5555C34.7196 35.5876 34.5238 35.6614 34.4 35.7195C34.194 35.8161 34.0886 35.825 33.15 35.825C32.2114 35.825 32.106 35.8161 31.9 35.7195C31.7763 35.6614 31.5738 35.586 31.45 35.552C31.3263 35.518 31.1913 35.4615 31.15 35.4264C31.1088 35.3914 30.9938 35.3481 30.8944 35.3304C30.795 35.3126 30.6749 35.2551 30.6274 35.2026C30.5799 35.1502 30.4538 35.0925 30.347 35.0745C30.2403 35.0565 30.0981 34.9986 30.0311 34.9459C29.9641 34.8931 29.8653 34.85 29.8116 34.85C29.7579 34.85 29.6368 34.7976 29.5424 34.7335C29.448 34.6695 29.2593 34.589 29.1229 34.5547C28.9865 34.5205 28.8413 34.4632 28.8 34.4276C28.7588 34.3919 28.6424 34.3361 28.5415 34.3037C28.4406 34.2714 28.331 34.2122 28.2979 34.1725C28.2648 34.1326 28.2063 34.1 28.1679 34.1C28.0729 34.1 27.2654 33.7154 27.2258 33.6512C27.2084 33.6231 27.1544 33.6 27.1059 33.6C27.0574 33.6 26.7719 33.4789 26.4714 33.3307C26.1709 33.1826 25.8688 33.0446 25.8 33.0239C25.7313 33.0031 25.6214 32.9444 25.5558 32.8931C25.4901 32.8419 25.4089 32.8 25.375 32.8C25.3411 32.8 25.2563 32.755 25.1864 32.7C25.1164 32.645 25.0316 32.6 24.9978 32.6C24.9416 32.6 24.2274 32.2604 24.05 32.1494C24.0088 32.1235 23.8963 32.0686 23.8 32.0272C23.7038 31.9859 23.5913 31.9296 23.55 31.9022C23.5088 31.8749 23.3963 31.8177 23.3 31.7754C23.2038 31.7329 23.0575 31.6595 22.975 31.6122C22.5938 31.3935 22.0589 31.115 21.9 31.0525C21.8038 31.0145 21.6913 30.9556 21.65 30.9215C21.6088 30.8875 21.3881 30.7617 21.1596 30.6422C20.5573 30.3272 20.4526 30.2676 20.359 30.186C20.3129 30.1456 20.191 30.0856 20.0883 30.0526C19.9855 30.0197 19.8883 29.9715 19.8723 29.9456C19.8563 29.9196 19.7626 29.8649 19.6643 29.8237C19.5658 29.7826 19.4605 29.7179 19.4301 29.68C19.3998 29.6421 19.2908 29.5844 19.1879 29.5517C19.085 29.5191 18.9838 29.4647 18.9629 29.4309C18.942 29.3969 18.8519 29.3396 18.7625 29.3035C18.6731 29.2674 18.6 29.2172 18.6 29.1921C18.6 29.167 18.5044 29.1012 18.3875 29.0459C17.9945 28.8599 17.8194 28.7586 17.7534 28.6791C17.7173 28.6356 17.6613 28.6 17.6289 28.6C17.5964 28.6 17.4284 28.5044 17.2555 28.3875C17.0825 28.2706 16.8475 28.1181 16.733 28.0485C16.2285 27.7419 16.15 27.6875 16.15 27.645C16.15 27.6202 16.1199 27.6 16.083 27.6C16.0104 27.6 15.7315 27.4066 15.488 27.1875C15.4039 27.1119 15.3175 27.05 15.2959 27.05C15.2503 27.05 14.7741 26.6847 14.2076 26.2151C13.4253 25.5665 13.4103 25.5567 13.2553 25.5964Z" fill="#CF5A60"/>
<path fill-rule="evenodd" clip-rule="evenodd" d="M23.875 11.7296C23.7375 11.7402 23.3663 11.7829 23.05 11.8244C22.7338 11.8659 22.1488 11.9221 21.75 11.9494C21.3513 11.9766 20.9463 12.0219 20.85 12.0499C20.7538 12.0779 20.4651 12.1346 20.2086 12.1761C19.9521 12.2175 19.6821 12.2822 19.6086 12.3199C19.5351 12.3575 19.3513 12.4032 19.2 12.4215C18.8876 12.4594 18.2256 12.6461 17.7615 12.8275C17.5891 12.8949 17.4106 12.95 17.3648 12.95C17.319 12.95 17.1789 12.9974 17.0533 13.0554C16.435 13.3409 16.3158 13.3926 16.2 13.4256C16.1313 13.4454 16.0049 13.5039 15.9191 13.5557C15.8334 13.6076 15.7358 13.65 15.7023 13.65C15.6688 13.65 15.5476 13.7137 15.4331 13.7916C15.3186 13.8695 15.0225 14.0644 14.775 14.2247C14.0174 14.7156 13.0288 15.7865 12.9285 16.225C12.9096 16.3075 12.8494 16.4686 12.7948 16.5831C12.6353 16.9169 12.6493 17.708 12.8209 18.0709C12.8919 18.221 12.9504 18.3734 12.9509 18.4094C12.9518 18.4695 13.057 18.645 13.3609 19.0932C13.4236 19.1857 13.5763 19.3711 13.7 19.5051C13.8238 19.6391 13.9774 19.8166 14.0413 19.8994C14.1053 19.9822 14.2121 20.0637 14.2788 20.0804C14.3455 20.0971 14.4 20.1375 14.4 20.17C14.4 20.2237 14.6246 20.4402 14.95 20.7C15.0188 20.755 15.1568 20.8674 15.2566 20.9499C15.3565 21.0325 15.4594 21.1 15.4854 21.1C15.5114 21.1 15.5854 21.1562 15.65 21.225C15.7146 21.2937 15.785 21.35 15.8065 21.35C15.8279 21.35 15.9018 21.4062 15.9705 21.475C16.0393 21.5437 16.1303 21.6 16.1728 21.6C16.2153 21.6 16.25 21.6222 16.25 21.6494C16.25 21.698 16.5385 21.9076 16.7945 22.0451C16.8663 22.0836 16.9886 22.168 17.0664 22.2326C17.1441 22.2971 17.2309 22.35 17.2591 22.35C17.2874 22.35 17.3774 22.4062 17.4591 22.475C17.5409 22.5437 17.6363 22.6 17.6711 22.6C17.706 22.6 17.7748 22.6444 17.8239 22.6987C17.873 22.753 17.9575 22.8115 18.0115 22.8286C18.0656 22.8459 18.1521 22.9021 18.2036 22.9536C18.2553 23.0052 18.3561 23.0622 18.4279 23.0802C18.4998 23.0982 18.6118 23.1662 18.6769 23.2315C18.7421 23.2966 18.818 23.35 18.8455 23.35C18.873 23.35 18.9785 23.4062 19.0798 23.475C19.1811 23.5437 19.2935 23.6 19.3298 23.6C19.3659 23.6 19.4518 23.6562 19.5205 23.725C19.5893 23.7937 19.6865 23.85 19.7366 23.85C19.7868 23.85 19.8658 23.8944 19.9123 23.9486C19.9586 24.0029 20.0593 24.0625 20.1359 24.0812C20.2124 24.0999 20.3386 24.168 20.4164 24.2326C20.4941 24.2971 20.5775 24.35 20.6016 24.35C20.6258 24.35 20.7285 24.4062 20.8298 24.475C20.9311 24.5437 21.047 24.6 21.0873 24.6C21.1276 24.6 21.2274 24.6562 21.3091 24.725C21.3909 24.7937 21.487 24.85 21.5228 24.85C21.5585 24.85 21.6128 24.88 21.6431 24.9167C21.6736 24.9535 21.7945 25.0141 21.9118 25.0515C22.029 25.0889 22.1886 25.1714 22.2664 25.2347C22.3441 25.2981 22.437 25.35 22.4728 25.35C22.5085 25.35 22.5656 25.3836 22.5998 25.4247C22.634 25.4659 22.7549 25.5264 22.8684 25.5592C22.982 25.5921 23.1386 25.671 23.2164 25.7345C23.2941 25.798 23.387 25.85 23.4228 25.85C23.4585 25.85 23.5156 25.8836 23.5498 25.9247C23.584 25.9659 23.7049 26.0271 23.8184 26.0607C23.932 26.0944 24.1013 26.1732 24.1945 26.236C24.2878 26.2986 24.3854 26.35 24.4116 26.35C24.4378 26.35 24.5133 26.3925 24.5791 26.4444C24.6451 26.4962 24.7838 26.5544 24.8871 26.5734C24.9904 26.5925 25.12 26.6487 25.175 26.6982C25.23 26.7479 25.3313 26.8055 25.4 26.8261C25.4688 26.8469 25.579 26.9059 25.645 26.9575C25.711 27.009 25.8536 27.0654 25.9618 27.0826C26.07 27.1 26.1696 27.143 26.1831 27.1782C26.1966 27.2134 26.2904 27.2795 26.3914 27.325C26.4924 27.3705 26.6538 27.4509 26.75 27.5037C26.8463 27.5566 26.9721 27.5999 27.0298 27.5999C27.0874 27.6 27.1753 27.645 27.225 27.7C27.2748 27.755 27.3401 27.8007 27.3703 27.8016C27.4004 27.8024 27.5594 27.8699 27.7238 27.9516C27.888 28.0332 28.0634 28.1 28.1134 28.1C28.1633 28.1 28.2521 28.1447 28.3109 28.1994C28.3695 28.254 28.4924 28.3127 28.5838 28.33C28.6753 28.3471 28.75 28.3786 28.75 28.4001C28.75 28.451 29.1234 28.6 29.251 28.6C29.3055 28.6 29.35 28.6236 29.35 28.6525C29.35 28.6815 29.4344 28.7395 29.5375 28.7815C29.6406 28.8234 29.8363 28.9122 29.9724 28.9789C30.1084 29.0455 30.268 29.1 30.3271 29.1C30.3861 29.1 30.4741 29.1437 30.5224 29.1971C30.5708 29.2506 30.6784 29.3092 30.7614 29.3275C30.8444 29.3457 30.9828 29.4016 31.0686 29.4516C31.1546 29.5017 31.315 29.5591 31.425 29.5791C31.535 29.5992 31.6488 29.648 31.6779 29.6876C31.7069 29.7272 31.8419 29.7907 31.9779 29.8289C32.1138 29.8669 32.3488 29.9339 32.5 29.9776C32.8331 30.074 33.606 30.0489 33.95 29.9304C34.0738 29.8877 34.2376 29.8404 34.3141 29.8251C34.3907 29.8097 34.4914 29.7529 34.5377 29.6986C34.5842 29.6444 34.6473 29.6 34.6779 29.6C34.7686 29.6 34.9945 29.3157 35.0853 29.0875C35.1318 28.9706 35.1991 28.8452 35.2349 28.8089C35.2707 28.7726 35.3 28.7205 35.3 28.6931C35.3 28.6657 35.3562 28.5696 35.425 28.4795C35.4937 28.3892 35.55 28.2815 35.55 28.2397C35.55 28.1981 35.604 28.0844 35.67 27.9871C35.736 27.8899 35.806 27.7574 35.8257 27.6926C35.8454 27.628 35.9018 27.5075 35.9511 27.425C36.0005 27.3425 36.0662 27.1794 36.0974 27.0625C36.1284 26.9456 36.1738 26.85 36.198 26.85C36.2224 26.85 36.269 26.7656 36.3017 26.6625C36.3344 26.5594 36.3904 26.4282 36.4261 26.3711C36.4617 26.314 36.5256 26.1506 36.568 26.0081C36.6102 25.8656 36.6783 25.6874 36.719 25.612C36.8684 25.3362 37.0395 24.9205 37.0741 24.75C37.0937 24.6537 37.1501 24.5046 37.1995 24.4186C37.2489 24.3327 37.3057 24.1865 37.3257 24.0936C37.3457 24.0009 37.4024 23.8457 37.4514 23.7489C37.5004 23.6519 37.5567 23.4606 37.5767 23.3239C37.5966 23.187 37.6462 23.0095 37.687 22.9294C37.8081 22.691 38.0425 21.6891 38.094 21.1899C38.1204 20.9342 38.1789 20.6012 38.224 20.45C38.4017 19.8542 38.373 17.6719 38.1836 17.3801C38.146 17.3222 38.0996 17.1555 38.0805 17.0095C37.9986 16.3846 37.4482 15.581 36.55 14.7751C36.209 14.4692 35.637 14.111 34.825 13.695C34.715 13.6386 34.5687 13.5607 34.5 13.522C34.4312 13.4832 34.3288 13.4511 34.2723 13.4507C34.2156 13.4504 34.0931 13.3937 34 13.325C33.9069 13.2562 33.7947 13.2 33.7509 13.2C33.707 13.2 33.587 13.1571 33.4841 13.1046C33.3812 13.0521 33.1795 12.9814 33.036 12.9472C32.8925 12.9131 32.6966 12.8436 32.6008 12.7926C32.5049 12.7416 32.3981 12.7 32.3635 12.7C32.3287 12.7 32.1709 12.6555 32.0127 12.601C31.8545 12.5466 31.5563 12.4795 31.35 12.4519C31.1438 12.4244 30.8288 12.3577 30.65 12.304C30.0278 12.117 29.2704 11.9877 28.55 11.9456C28.1513 11.9222 27.6563 11.8687 27.45 11.8267C27.0839 11.7521 24.4954 11.6817 23.875 11.7296ZM28.2 12.0989C28.4888 12.1234 28.8488 12.179 29 12.2224C29.1513 12.2657 29.4325 12.315 29.625 12.3317C29.8175 12.3485 30.0988 12.402 30.25 12.4506C30.4013 12.4992 30.6825 12.5544 30.875 12.5731C31.0675 12.5919 31.315 12.6491 31.425 12.7002C31.535 12.7514 31.7375 12.8092 31.875 12.8289C32.0125 12.8486 32.17 12.893 32.225 12.9277C32.28 12.9625 32.46 13.0172 32.625 13.0496C32.79 13.0819 33.0363 13.1626 33.1724 13.2291C33.3084 13.2956 33.4529 13.35 33.4934 13.35C33.534 13.35 33.6026 13.3804 33.6461 13.4174C33.6895 13.4545 33.8375 13.5152 33.975 13.5524C34.1125 13.5896 34.3013 13.6717 34.3945 13.735C34.4878 13.7982 34.5871 13.85 34.6155 13.85C34.6439 13.85 34.7026 13.88 34.7461 13.9167C34.7895 13.9535 34.9037 14.0145 35 14.0525C35.0962 14.0904 35.2446 14.1671 35.3296 14.2231C35.4147 14.2791 35.5801 14.3812 35.6972 14.45C35.8145 14.5187 35.9841 14.6369 36.0742 14.7125C36.1644 14.7881 36.2607 14.85 36.2884 14.85C36.3159 14.85 36.3754 14.9062 36.4204 14.975C36.4655 15.0437 36.5237 15.1 36.5499 15.1C36.576 15.1 36.6644 15.1731 36.7461 15.2625C36.8279 15.3519 36.9775 15.515 37.0785 15.625C37.1795 15.735 37.3279 15.9375 37.4082 16.075C37.4887 16.2125 37.5751 16.3587 37.6004 16.4C38.0675 17.1642 38.1919 18.5075 37.9797 20.5C37.9344 20.9262 37.8642 21.4212 37.8237 21.6C37.6157 22.5191 37.4121 23.2881 37.3271 23.475C37.2896 23.5575 37.2322 23.7262 37.1996 23.85C37.167 23.9737 37.122 24.0975 37.0999 24.125C37.0776 24.1525 37.0204 24.31 36.9726 24.475C36.9249 24.64 36.8578 24.82 36.8235 24.875C36.7891 24.93 36.7332 25.065 36.699 25.175C36.6649 25.285 36.6204 25.3975 36.6 25.425C36.5796 25.4525 36.5361 25.565 36.5031 25.675C36.4702 25.785 36.3902 25.9875 36.3255 26.125C36.2607 26.2625 36.1476 26.51 36.0741 26.675C36.0006 26.84 35.8301 27.2 35.6951 27.475C35.5602 27.75 35.4499 27.9935 35.4499 28.016C35.45 28.0385 35.3487 28.2237 35.225 28.4276C35.1012 28.6315 35 28.8145 35 28.8342C35 28.9672 34.6475 29.4212 34.4581 29.5322C33.9089 29.8541 32.3233 29.8821 31.8884 29.5775C31.8275 29.5349 31.7421 29.5 31.6988 29.5C31.6553 29.5 31.5084 29.4461 31.3724 29.3801C31.2363 29.3142 30.9788 29.1987 30.8 29.1236C30.6213 29.0485 30.2159 28.8661 29.8991 28.7185C29.5823 28.5709 29.3026 28.45 29.2776 28.45C29.2526 28.45 29.0394 28.3524 28.8036 28.233C28.5679 28.1136 28.3075 27.9994 28.225 27.979C28.1425 27.9587 28.0413 27.912 28 27.8752C27.9588 27.8384 27.7338 27.7271 27.5 27.6281C27.2663 27.5291 27.0188 27.419 26.95 27.3836C26.5459 27.1751 26.1564 26.9829 25.625 26.7294C25.295 26.572 24.9575 26.4085 24.875 26.366C24.7925 26.3235 24.5675 26.2115 24.375 26.1171C24.1825 26.0227 23.9221 25.8912 23.7965 25.8249C23.6708 25.7585 23.3333 25.5831 23.0465 25.4351C22.5038 25.155 21.6926 24.7239 21.2929 24.5031C21.1653 24.4326 20.884 24.2789 20.6679 24.1612C20.1759 23.8936 20.1431 23.8751 19.6665 23.595C19.4511 23.4685 19.0838 23.2532 18.85 23.1165C18.6163 22.9799 18.3274 22.8021 18.2079 22.7215C18.0885 22.6409 17.9085 22.53 17.8079 22.475C17.5735 22.3469 16.7301 21.782 16.4928 21.5941C16.3926 21.5149 16.2875 21.45 16.2594 21.45C16.2313 21.45 16.1164 21.3676 16.0041 21.2669C15.8919 21.1661 15.7463 21.048 15.6803 21.0044C15.1708 20.6671 14.1 19.7105 14.1 19.5927C14.1 19.5692 13.9819 19.4287 13.8375 19.2805C13.5304 18.9651 13.3 18.6605 13.3 18.5697C13.3 18.5345 13.2586 18.4762 13.2081 18.4404C12.8975 18.2194 12.9058 16.4301 13.2191 16.0684C13.2636 16.017 13.3438 15.9256 13.3974 15.8651C13.4509 15.8047 13.528 15.6922 13.5686 15.6151C13.6094 15.5381 13.7941 15.34 13.9794 15.175C14.1646 15.01 14.3818 14.8131 14.4619 14.7375C14.5421 14.6619 14.6254 14.6 14.647 14.6C14.6824 14.6 14.81 14.5097 15.2043 14.2057C15.2754 14.1509 15.3913 14.0915 15.4619 14.0739C15.5324 14.0561 15.6335 14.0012 15.6864 13.9519C15.7394 13.9026 15.8315 13.8467 15.891 13.8279C15.9506 13.8089 16.0328 13.7601 16.0736 13.7192C16.1144 13.6785 16.277 13.6115 16.4349 13.5704C16.5929 13.5291 16.7565 13.4666 16.7985 13.4314C16.8406 13.3961 16.968 13.3407 17.0816 13.3084C17.1951 13.276 17.316 13.2159 17.3503 13.1747C17.3844 13.1336 17.4826 13.0992 17.5686 13.0984C17.6546 13.0975 17.8488 13.0511 18 12.9952C18.1513 12.9395 18.3875 12.8711 18.525 12.8434C18.6625 12.8155 18.8478 12.7504 18.9368 12.6985C19.0368 12.6402 19.2465 12.5924 19.4868 12.5729C19.7003 12.5556 20.01 12.5004 20.175 12.45C20.34 12.3997 20.6844 12.3335 20.9403 12.3027C21.1963 12.272 21.4888 12.2146 21.5903 12.1751C21.99 12.0196 26.638 11.966 28.2 12.0989ZM25.225 14.3822C23.9815 14.4447 23.3418 14.5021 23.1926 14.5645C23.0995 14.6034 22.9153 14.6514 22.783 14.6711C22.6509 14.691 22.3976 14.7619 22.2203 14.8286C22.0429 14.8954 21.8529 14.95 21.798 14.95C21.711 14.95 21.3919 15.0884 21.075 15.2635C21.02 15.2939 20.8738 15.3745 20.75 15.4425C19.5145 16.1221 19.0919 17.2649 19.7284 18.205C19.9629 18.5514 20.3329 18.9084 20.625 19.0702C20.7075 19.116 20.8875 19.223 21.025 19.3082C21.1625 19.3934 21.3895 19.5026 21.5294 19.551C21.6694 19.5994 21.8269 19.6645 21.8794 19.6955C22.0181 19.7775 22.5389 19.9504 22.8 20.0012C23.1053 20.0606 23.5049 20.1421 23.925 20.2305C24.7535 20.4049 27.5158 20.3694 28.15 20.1762C28.2738 20.1385 28.5325 20.0822 28.725 20.0511C29.1169 19.9877 29.7845 19.7814 30.0493 19.6419C30.1451 19.5914 30.2603 19.55 30.305 19.55C30.3499 19.55 30.4401 19.5091 30.5058 19.4591C30.5714 19.4091 30.6981 19.3389 30.7875 19.303C30.8769 19.2672 30.95 19.2185 30.95 19.195C30.95 19.1714 31.0363 19.108 31.1416 19.0542C31.247 19.0005 31.3876 18.8971 31.4541 18.8245C31.5206 18.7519 31.6585 18.6126 31.7605 18.515C31.8869 18.3941 31.9796 18.2364 32.0519 18.0194C32.1101 17.8444 32.1785 17.6882 32.2039 17.6726C32.2871 17.6211 32.2523 17.282 32.1239 16.8967C31.95 16.3746 31.2898 15.6977 30.6945 15.4314C30.6013 15.3896 30.4688 15.3222 30.4 15.2817C30.1159 15.1144 29.8264 14.9939 29.5831 14.9419C29.4411 14.9114 29.2466 14.8446 29.1508 14.7932C29.0549 14.742 28.9455 14.7 28.9078 14.7C28.87 14.7 28.6109 14.6461 28.332 14.5804C27.9539 14.4911 27.6089 14.4526 26.975 14.4289C26.5075 14.4114 26.0013 14.3897 25.85 14.3809C25.6988 14.372 25.4175 14.3726 25.225 14.3822ZM27.625 14.6746C27.735 14.7106 27.9713 14.7675 28.15 14.8009C28.3288 14.8341 28.566 14.8909 28.6774 14.9267C28.7886 14.9626 29.0249 15.0181 29.2024 15.0501C29.3798 15.0821 29.5588 15.1374 29.6 15.173C29.6413 15.2086 29.765 15.268 29.875 15.305C29.985 15.342 30.1266 15.4107 30.1899 15.4576C30.253 15.5046 30.3768 15.5589 30.4649 15.5782C30.6206 15.6124 30.7235 15.6785 31.0618 15.9617C31.1515 16.0369 31.2524 16.0987 31.2858 16.0992C31.3191 16.0996 31.3726 16.1489 31.4046 16.2086C31.4366 16.2685 31.5105 16.3659 31.5689 16.4252C31.9564 16.8191 31.9595 16.8274 31.9415 17.427C31.9265 17.9265 31.913 17.9942 31.8 18.1386C31.5826 18.416 31.1148 18.9 31.0639 18.9C31.037 18.9 30.9219 18.9675 30.8079 19.05C30.694 19.1325 30.5744 19.2 30.5419 19.2C30.5094 19.2 30.4395 19.2392 30.3866 19.2871C30.3336 19.3351 30.1631 19.4121 30.0076 19.4582C29.8523 19.5044 29.5338 19.6135 29.3 19.7007C29.0663 19.7879 28.7288 19.8814 28.55 19.9084C28.3713 19.9354 27.9516 20.0009 27.6175 20.0537C26.7636 20.189 25.0989 20.1891 24.2664 20.054C23.9411 20.0011 23.5175 19.9425 23.3251 19.9236C23.1326 19.9049 22.8954 19.8486 22.7978 19.7989C22.7003 19.7491 22.5314 19.6927 22.4226 19.6735C22.314 19.6544 22.1765 19.6084 22.1171 19.5712C22.0579 19.5341 21.9004 19.4764 21.7671 19.4429C21.634 19.4094 21.3541 19.2735 21.1454 19.141C20.9366 19.0084 20.73 18.9 20.6863 18.9C20.6425 18.9 20.5925 18.855 20.575 18.8C20.5575 18.745 20.5234 18.7 20.4993 18.7C20.3958 18.7 19.85 18.1305 19.85 18.0225C19.85 18.0016 19.7938 17.9107 19.725 17.8205C19.5579 17.6015 19.5438 17.0622 19.7 16.8636C19.755 16.7937 19.8 16.7099 19.8 16.6772C19.8 16.6446 19.8675 16.5424 19.95 16.45C20.0325 16.3576 20.1 16.241 20.1 16.191C20.1 16.137 20.1363 16.1 20.1893 16.1C20.2384 16.1 20.3453 16.0447 20.4268 15.9771C20.7893 15.6766 20.8834 15.6131 21.0138 15.5814C21.0901 15.5627 21.197 15.503 21.2513 15.4487C21.3056 15.3944 21.3781 15.3492 21.4125 15.3484C21.4469 15.3476 21.5875 15.2906 21.725 15.2217C21.8625 15.153 22.0875 15.083 22.225 15.0662C22.3625 15.0494 22.565 14.9957 22.675 14.947C22.785 14.8982 23.0071 14.8432 23.1685 14.8247C23.33 14.8064 23.555 14.7549 23.6685 14.7102C24.0726 14.5517 27.1654 14.5239 27.625 14.6746ZM13.2109 20.7702C12.9154 21.1067 12.6828 22.1412 12.7994 22.6001C12.958 23.2244 13.2494 23.7566 13.6614 24.175C13.7698 24.285 13.8895 24.4344 13.9276 24.507C14.0093 24.6626 14.7481 25.3496 14.8341 25.3499C14.8666 25.3499 14.9071 25.3939 14.9243 25.4475C14.9413 25.501 14.9985 25.5586 15.0514 25.5755C15.1044 25.5922 15.2649 25.7171 15.4081 25.853C15.5513 25.9889 15.701 26.1 15.741 26.1C15.7809 26.1 15.8646 26.1506 15.927 26.2125C16.0943 26.3781 16.2005 26.4632 16.3795 26.575C16.4676 26.63 16.6815 26.7706 16.8548 26.8875C17.0281 27.0044 17.198 27.1 17.2325 27.1C17.2669 27.1 17.313 27.1314 17.335 27.1696C17.3723 27.2345 17.4356 27.2771 17.9 27.5504C17.9963 27.607 18.1763 27.7197 18.3 27.8009C18.4238 27.8819 18.6038 27.9875 18.7 28.0355C18.7963 28.0835 18.9386 28.1739 19.0164 28.2364C19.0941 28.2989 19.187 28.35 19.2228 28.35C19.2585 28.35 19.3156 28.3836 19.3498 28.4247C19.384 28.4659 19.4984 28.5255 19.6041 28.5571C19.7099 28.5889 19.8461 28.6677 19.9069 28.7324C19.9678 28.7971 20.035 28.85 20.0565 28.85C20.078 28.85 20.1785 28.9062 20.2798 28.975C20.3811 29.0437 20.5059 29.1 20.557 29.1C20.6081 29.1 20.65 29.1205 20.65 29.1455C20.65 29.1706 20.7511 29.24 20.8748 29.2999C20.9984 29.3597 21.1118 29.4286 21.1269 29.453C21.1419 29.4772 21.2484 29.5255 21.3634 29.5599C21.4785 29.5944 21.6069 29.6526 21.6488 29.6894C21.8119 29.8324 22.1331 30.0167 22.2995 30.0629C22.3955 30.0895 22.5379 30.165 22.6159 30.2306C22.6939 30.2962 22.787 30.35 22.8228 30.35C22.8585 30.35 22.9156 30.3836 22.9498 30.4247C22.984 30.4659 23.1049 30.526 23.2184 30.5582C23.332 30.5906 23.47 30.6556 23.525 30.7027C23.58 30.7499 23.6813 30.8052 23.75 30.8259C23.8188 30.8464 23.9326 30.9036 24.003 30.9532C24.0735 31.0027 24.1958 31.0596 24.2748 31.0794C24.3536 31.0992 24.4961 31.1682 24.5911 31.2327C24.6861 31.2972 24.7918 31.35 24.8259 31.35C24.8599 31.35 24.9156 31.3836 24.9498 31.4247C24.984 31.4659 25.1049 31.5271 25.2184 31.5607C25.332 31.5944 25.5013 31.6732 25.5945 31.736C25.6878 31.7986 25.7854 31.85 25.8116 31.85C25.8378 31.85 25.9141 31.8931 25.9811 31.9459C26.0481 31.9986 26.1921 32.0567 26.3013 32.0752C26.4103 32.0936 26.512 32.1289 26.5273 32.1535C26.5743 32.2296 27.2343 32.5425 27.4221 32.5777C27.52 32.5961 27.6 32.6296 27.6 32.6522C27.6 32.7121 28.4171 33.1 28.5431 33.1C28.6019 33.1 28.65 33.1184 28.65 33.1407C28.65 33.185 28.9704 33.35 29.0563 33.35C29.0854 33.35 29.1641 33.3931 29.2311 33.4459C29.2981 33.4986 29.4421 33.5567 29.5513 33.5752C29.6603 33.5936 29.7629 33.6305 29.7794 33.657C29.8215 33.7251 30.4913 34.0311 30.6929 34.0744C30.7853 34.0941 30.9403 34.1642 31.0374 34.2301C31.1345 34.2961 31.2503 34.3501 31.2945 34.3504C31.3388 34.3505 31.4425 34.3954 31.525 34.45C31.6075 34.5046 31.7204 34.5495 31.7758 34.5496C31.8311 34.5499 31.9558 34.5925 32.0525 34.6444C32.4495 34.8571 33.8102 34.8859 34.1124 34.6879C34.1751 34.6467 34.294 34.5982 34.3765 34.5801C34.6077 34.5294 34.9187 34.2111 35.0936 33.8462C35.1519 33.7246 35.27 33.5125 35.3561 33.375C35.4421 33.2375 35.5441 33.0361 35.5826 32.9275C35.6211 32.8189 35.6824 32.6951 35.7189 32.6525C35.7552 32.6099 35.866 32.3722 35.9649 32.1245C36.0639 31.8766 36.234 31.5004 36.3431 31.2884C36.4522 31.0764 36.5574 30.8291 36.5769 30.7389C36.5965 30.6487 36.6546 30.5152 36.7062 30.4422C36.7577 30.3692 36.8 30.2784 36.8 30.2404C36.8 30.2022 36.846 30.082 36.9022 29.9731C36.9584 29.8641 37.0289 29.6627 37.0589 29.5255C37.0889 29.3882 37.1435 29.2301 37.1801 29.1741C37.2566 29.0575 37.461 28.449 37.5686 28.0177C37.6089 27.8567 37.6771 27.6237 37.7204 27.5C37.8902 27.0137 38.0411 26.355 38.0752 25.95C38.095 25.7162 38.1336 25.4971 38.1612 25.4629C38.2294 25.3787 38.2252 24.9052 38.1557 24.8357C38.1147 24.7947 38.1 24.7954 38.1 24.8382C38.1 24.8702 38.0269 24.9796 37.9375 25.0812C37.7914 25.2474 37.7109 25.4176 37.4675 26.075C37.382 26.306 37.1231 26.8365 37.0556 26.919C37.0304 26.9497 36.9827 27.076 36.9497 27.1995C36.9166 27.323 36.8485 27.4819 36.7981 27.5526C36.7479 27.6232 36.6915 27.7416 36.6729 27.8155C36.6544 27.8895 36.6219 27.95 36.6006 27.95C36.5795 27.95 36.534 28.0231 36.4995 28.1125C36.4109 28.3426 36.1496 28.8609 36.0773 28.95C36.0439 28.9912 35.9867 29.1037 35.9505 29.2C35.9142 29.2962 35.8545 29.3997 35.8177 29.4301C35.7811 29.4605 35.7161 29.5617 35.6734 29.6551C35.5216 29.9867 35.0945 30.45 34.9404 30.45C34.9151 30.45 34.789 30.498 34.6601 30.5567C34.0243 30.8465 32.5594 30.905 31.9271 30.6659C31.816 30.6239 31.6013 30.5452 31.45 30.4911C31.2988 30.4369 31.0625 30.3405 30.925 30.2767C30.3691 30.019 30.218 29.9572 30.066 29.9261C29.9785 29.9082 29.8801 29.8612 29.8474 29.8217C29.8146 29.7822 29.7681 29.75 29.744 29.75C29.72 29.75 29.5574 29.6825 29.3828 29.6C29.2081 29.5175 29.0498 29.45 29.0308 29.45C29.0118 29.45 28.7664 29.3407 28.4855 29.2072C28.2046 29.0739 27.9186 28.947 27.8499 28.9255C27.7813 28.904 27.5723 28.8 27.3855 28.6946C27.1988 28.5891 26.9513 28.4757 26.8355 28.4427C26.7198 28.4097 26.5898 28.3531 26.5468 28.317C26.5038 28.2809 26.3913 28.2249 26.2968 28.1926C26.2023 28.1604 26.0714 28.0926 26.0058 28.042C25.9401 27.9914 25.8614 27.9506 25.8308 27.9514C25.7588 27.9532 25.1303 27.6367 25.1084 27.5877C25.0993 27.5672 24.9704 27.5151 24.8219 27.4719C24.6734 27.4287 24.5393 27.373 24.5238 27.3481C24.5084 27.3231 24.2999 27.2102 24.0604 27.0974C23.8209 26.9845 23.5913 26.8709 23.55 26.845C23.5088 26.8191 23.3963 26.7625 23.3 26.719C23.2038 26.6756 23.0913 26.6114 23.05 26.5764C23.0088 26.5412 22.8876 26.4845 22.7808 26.4502C22.6739 26.4159 22.5076 26.3342 22.4113 26.2689C22.3149 26.2035 22.2079 26.15 22.1734 26.15C22.1389 26.15 22.0983 26.1174 22.0829 26.0776C22.0676 26.0377 21.9584 25.9795 21.8401 25.948C21.7218 25.9165 21.5913 25.8614 21.55 25.8255C21.4763 25.7615 21.2806 25.6544 20.8646 25.4504C20.7489 25.3936 20.6414 25.3264 20.6256 25.3011C20.5924 25.2471 20.0195 24.95 19.9489 24.95C19.9225 24.95 19.8005 24.8734 19.6779 24.7797C19.5553 24.6861 19.3265 24.5489 19.1695 24.4745C19.0125 24.4002 18.774 24.2621 18.6394 24.1675C18.5048 24.0729 18.337 23.9735 18.2665 23.9467C18.1961 23.92 18.0793 23.8524 18.0068 23.7964C17.7966 23.6342 17.4998 23.45 17.4484 23.45C17.4224 23.45 17.2715 23.3534 17.113 23.2354C16.9546 23.1172 16.6686 22.9429 16.4774 22.8479C16.2861 22.7527 16.0805 22.63 16.0203 22.575C15.96 22.52 15.7678 22.3789 15.5929 22.2615C15.0234 21.879 14.6076 21.5666 14.325 21.3089C14.0054 21.0175 13.45 20.6 13.382 20.6C13.3701 20.6 13.2931 20.6766 13.2109 20.7702ZM16.672 23.2766C16.7255 23.317 16.8099 23.35 16.8595 23.35C16.9093 23.35 16.95 23.3801 16.95 23.417C16.95 23.4855 17.1513 23.6 17.2716 23.6C17.3084 23.6 17.3754 23.6562 17.4204 23.725C17.4655 23.7937 17.5233 23.85 17.5489 23.85C17.5746 23.85 17.6785 23.9062 17.7798 23.975C17.8811 24.0437 18.0059 24.1 18.057 24.1C18.1081 24.1 18.15 24.1219 18.15 24.1487C18.15 24.1755 18.221 24.2341 18.3078 24.279C18.3946 24.3239 18.5101 24.4021 18.5645 24.4529C18.619 24.5035 18.7336 24.5602 18.8193 24.579C18.9049 24.5976 19.0386 24.6662 19.1164 24.7315C19.1941 24.7966 19.2774 24.85 19.3016 24.85C19.3258 24.85 19.4018 24.9062 19.4705 24.975C19.5484 25.053 19.6521 25.1 19.746 25.1C19.845 25.1 19.9146 25.134 19.9496 25.1994C19.979 25.2541 20.0641 25.3139 20.139 25.3321C20.2138 25.3505 20.3245 25.4182 20.3851 25.4827C20.4511 25.553 20.5529 25.6 20.6389 25.6C20.7275 25.6 20.8276 25.6479 20.9 25.725C20.9646 25.7937 21.0585 25.85 21.1088 25.85C21.1589 25.85 21.2001 25.8669 21.2004 25.8875C21.2008 25.9425 21.4936 26.1 21.5954 26.1C21.6434 26.1 21.7354 26.1562 21.8 26.225C21.8646 26.2937 21.9514 26.35 21.993 26.35C22.0345 26.35 22.1184 26.3969 22.1794 26.4541C22.2403 26.5114 22.3824 26.5706 22.4951 26.5856C22.6078 26.6007 22.7 26.6311 22.7 26.653C22.7 26.7334 22.8603 26.85 22.9709 26.85C23.0334 26.85 23.1255 26.8954 23.1756 26.9507C23.2259 27.0061 23.3516 27.0651 23.4554 27.0816C23.559 27.0982 23.6549 27.1406 23.6684 27.1759C23.6819 27.2111 23.7759 27.2672 23.8773 27.3007C23.9786 27.3342 24.1028 27.4027 24.153 27.453C24.2033 27.5032 24.3246 27.5595 24.4228 27.5779C24.5209 27.5962 24.6131 27.6307 24.6278 27.6544C24.6671 27.7181 25.44 28.1 25.5296 28.1C25.572 28.1 25.6804 28.1562 25.7705 28.225C25.8608 28.2937 25.9819 28.35 26.0398 28.35C26.0976 28.35 26.163 28.3805 26.185 28.4177C26.2421 28.5144 26.4225 28.6 26.5691 28.6C26.6383 28.6 26.7555 28.6562 26.8298 28.725C26.9039 28.7937 26.996 28.85 27.0344 28.85C27.0726 28.85 27.1683 28.8975 27.2469 28.9555C27.3254 29.0136 27.494 29.0729 27.6216 29.0872C27.776 29.1046 27.87 29.1439 27.9025 29.2045C27.9293 29.2546 28.0283 29.3101 28.1224 29.3277C28.2165 29.3455 28.3313 29.4016 28.3775 29.4527C28.4238 29.5039 28.5589 29.5602 28.6778 29.578C28.7966 29.5959 28.9314 29.6519 28.9771 29.7024C29.0229 29.753 29.1311 29.8092 29.2176 29.8276C29.3043 29.8459 29.4224 29.9042 29.4804 29.9574C29.5383 30.0105 29.672 30.068 29.7776 30.0851C29.8831 30.1022 30.047 30.1689 30.1418 30.2331C30.2365 30.2974 30.3636 30.35 30.4243 30.35C30.4849 30.35 30.5744 30.394 30.623 30.4477C30.6735 30.5036 30.8109 30.5599 30.9433 30.5787C31.0708 30.597 31.22 30.6526 31.275 30.7022C31.33 30.7519 31.4425 30.8087 31.525 30.8284C31.6075 30.8481 31.765 30.9114 31.875 30.9691C32.1905 31.1349 34.0824 31.1297 34.3654 30.9625C34.47 30.9006 34.609 30.85 34.674 30.85C34.7391 30.85 34.8559 30.7966 34.9336 30.7315C35.0114 30.6662 35.1479 30.5971 35.2369 30.5776C35.389 30.5445 35.6 30.3289 35.6 30.2065C35.6 30.1774 35.6394 30.1317 35.6875 30.1051C35.7356 30.0784 35.8531 29.9032 35.9486 29.7159C36.044 29.5284 36.1606 29.33 36.2075 29.275C36.3504 29.1076 36.6 28.5972 36.6 28.4724C36.6 28.4079 36.6309 28.337 36.6685 28.315C36.7061 28.293 36.7846 28.1809 36.8427 28.0659C36.901 27.9509 36.9701 27.8435 36.9964 27.8272C37.0227 27.811 37.0594 27.6966 37.0779 27.5731C37.0964 27.4495 37.1412 27.3319 37.1776 27.3115C37.214 27.2912 37.2905 27.1734 37.3477 27.0497L37.4517 26.825L37.4235 27.3742C37.4012 27.8084 37.3762 27.9446 37.3041 28.0242C37.254 28.0796 37.1987 28.2195 37.1814 28.335C37.1639 28.4504 37.1065 28.6191 37.0537 28.71C37.0011 28.8007 36.9421 29.0061 36.9227 29.1665C36.9017 29.3396 36.8597 29.4686 36.8191 29.4841C36.7815 29.4986 36.7189 29.6176 36.68 29.7487C36.641 29.8799 36.5752 30.0527 36.5339 30.1329C36.4925 30.2129 36.442 30.3666 36.4219 30.4744C36.4016 30.582 36.3419 30.7162 36.2891 30.7726C36.2364 30.8289 36.1806 30.9369 36.1654 31.0125C36.15 31.0881 36.1202 31.15 36.0991 31.15C36.0396 31.15 35.9 31.535 35.9 31.6992C35.9 31.7924 35.8654 31.865 35.8058 31.8969C35.7539 31.9246 35.6962 32.008 35.6776 32.0822C35.659 32.1564 35.602 32.2701 35.551 32.335C35.5 32.3999 35.4429 32.5439 35.4241 32.655C35.4054 32.766 35.3606 32.8682 35.3246 32.8821C35.2886 32.8959 35.2297 32.9787 35.1939 33.0661C35.158 33.1535 35.0896 33.2674 35.0419 33.3192C34.9941 33.3711 34.9401 33.4836 34.922 33.5692C34.9039 33.6549 34.8353 33.7966 34.7695 33.8841C34.7038 33.9717 34.65 34.0544 34.65 34.0679C34.65 34.2334 34.32 34.3965 33.8711 34.453C33.161 34.5424 31.9879 34.4529 31.8398 34.298C31.7928 34.249 31.6803 34.1931 31.5898 34.1739C31.4991 34.1546 31.3913 34.1099 31.35 34.0742C31.3088 34.0387 31.1625 33.9751 31.025 33.933C30.8875 33.8907 30.595 33.7649 30.375 33.6534C30.155 33.5419 29.8963 33.4359 29.8 33.418C29.7038 33.4002 29.5614 33.3326 29.4836 33.2677C29.4059 33.203 29.2903 33.15 29.2265 33.15C29.1629 33.15 29.099 33.1194 29.0846 33.082C29.0703 33.0446 28.9514 32.987 28.8205 32.9541C28.6896 32.9211 28.5173 32.8392 28.4374 32.7721C28.3576 32.7049 28.2616 32.65 28.224 32.65C28.1865 32.65 28.0813 32.6066 27.9904 32.5536C27.8994 32.5006 27.7404 32.4419 27.637 32.423C27.5335 32.4041 27.4374 32.3699 27.4231 32.347C27.3839 32.2835 26.5751 31.9 26.4803 31.9C26.4344 31.9 26.3844 31.8674 26.369 31.8275C26.3538 31.7875 26.2363 31.7152 26.1081 31.6669C25.9799 31.6184 25.8474 31.5519 25.8135 31.519C25.7796 31.486 25.6613 31.4437 25.5504 31.425C25.4323 31.4051 25.3284 31.3531 25.2998 31.2995C25.2729 31.2492 25.1775 31.1924 25.0879 31.1732C24.9983 31.154 24.8849 31.0961 24.8359 31.0445C24.7869 30.9929 24.6589 30.9366 24.5515 30.9194C24.444 30.9022 24.3443 30.8571 24.3296 30.8191C24.3151 30.7811 24.2651 30.75 24.2188 30.75C24.1724 30.75 24.0649 30.6971 23.9798 30.6324C23.8946 30.5677 23.735 30.4844 23.625 30.4471C23.515 30.4097 23.3913 30.3537 23.35 30.3224C23.216 30.2207 22.7284 29.9621 22.6 29.9246C22.5313 29.9046 22.4405 29.858 22.3983 29.8211C22.2874 29.7241 21.7633 29.45 21.6885 29.4499C21.6535 29.4499 21.4788 29.3536 21.2999 29.2361C21.1211 29.1186 20.8989 28.9909 20.806 28.9525C20.713 28.914 20.5848 28.8302 20.5208 28.7662C20.4569 28.7024 20.3728 28.65 20.334 28.65C20.2953 28.65 20.2086 28.6069 20.1416 28.5541C20.0745 28.5014 19.9361 28.4425 19.8341 28.4234C19.7321 28.4042 19.632 28.3591 19.6118 28.323C19.5621 28.2345 19.2649 28.0375 19.05 27.9507C18.9538 27.9119 18.8456 27.8395 18.8096 27.79C18.7738 27.7405 18.7151 27.7 18.6795 27.7C18.6438 27.7 18.5558 27.6455 18.4839 27.5789C18.412 27.5122 18.3019 27.4416 18.2391 27.422C18.1764 27.4024 18.0614 27.3331 17.9836 27.2681C17.9059 27.2031 17.8136 27.15 17.7785 27.15C17.7434 27.15 17.6539 27.0937 17.5798 27.025C17.5055 26.9562 17.4214 26.9 17.3928 26.9C17.364 26.9 17.2075 26.7987 17.0448 26.675C16.882 26.5512 16.7323 26.45 16.7118 26.45C16.6914 26.45 16.5623 26.3712 16.4249 26.275C16.1513 26.0835 16.1223 26.0617 15.655 25.6975C15.4789 25.5604 15.282 25.4349 15.2175 25.4186C15.1529 25.4024 15.1 25.3586 15.1 25.3214C15.1 25.284 15.0565 25.2302 15.0035 25.2019C14.8206 25.104 14.3663 24.6247 14.3344 24.4961C14.2988 24.3525 14.453 24.1785 14.825 23.9427C14.935 23.873 15.0925 23.7732 15.175 23.7209C15.8628 23.2845 16.4515 23.1097 16.672 23.2766ZM37.6586 26.55C37.6481 26.66 37.6306 26.75 37.6197 26.75C37.6089 26.75 37.6 26.66 37.6 26.55C37.6 26.44 37.6175 26.35 37.6389 26.35C37.6601 26.35 37.669 26.44 37.6586 26.55Z" fill="#94CAF0"/>
<path fill-rule="evenodd" clip-rule="evenodd" d="M13.1646 25.3814C13.0551 25.4354 12.9858 25.5182 12.9459 25.6427C12.9136 25.743 12.8571 25.8597 12.8203 25.9021C12.5318 26.2341 12.5348 27.9705 12.8243 28.0816C12.8605 28.0955 12.9041 28.181 12.9211 28.2716C12.938 28.3622 12.9975 28.49 13.0531 28.5556C13.1088 28.6212 13.268 28.8212 13.407 29C13.7338 29.4201 14.791 30.4341 15.0491 30.575C15.0995 30.6025 15.2454 30.7205 15.3734 30.8372C15.5013 30.954 15.6609 31.0634 15.728 31.0802C15.7951 31.097 15.85 31.1306 15.85 31.1547C15.85 31.1994 16.137 31.4064 16.4104 31.5587C16.4931 31.6049 16.6104 31.6892 16.6711 31.7462C16.7318 31.8034 16.8081 31.85 16.8408 31.85C16.8734 31.85 16.9 31.8737 16.9 31.9027C16.9 31.9319 16.9956 32.0006 17.1125 32.0556C17.2294 32.1106 17.415 32.223 17.525 32.3054C17.635 32.3877 17.8045 32.4934 17.9015 32.5401C17.9986 32.5867 18.1111 32.6541 18.1515 32.6896C18.3126 32.8314 18.7769 33.1 18.8609 33.1C18.9099 33.1 18.95 33.1229 18.95 33.1507C18.95 33.1787 19.0344 33.2401 19.1375 33.2872C19.2406 33.3342 19.3886 33.4239 19.4664 33.4864C19.5441 33.5489 19.6475 33.6 19.6961 33.6C19.7448 33.6 19.8248 33.6444 19.8739 33.6987C19.923 33.753 20.0075 33.8115 20.0615 33.8286C20.1156 33.8459 20.2014 33.9014 20.2521 33.9521C20.3029 34.0029 20.4244 34.0594 20.5223 34.0777C20.62 34.0961 20.7 34.1315 20.7 34.1564C20.7 34.1812 20.7844 34.2406 20.8875 34.2882C20.9906 34.336 21.1041 34.4025 21.1398 34.4361C21.1754 34.4697 21.2935 34.524 21.4023 34.5566C21.511 34.5891 21.6 34.6356 21.6 34.6597C21.6 34.6839 21.6956 34.7484 21.8125 34.803C21.9294 34.8577 22.0813 34.9346 22.15 34.974C22.2188 35.0132 22.3538 35.0831 22.45 35.1292C22.8459 35.3187 22.9953 35.4017 23.0239 35.4482C23.0406 35.4752 23.1489 35.5224 23.2646 35.5531C23.3804 35.5839 23.52 35.6494 23.575 35.6987C23.63 35.7481 23.7313 35.8055 23.8 35.8261C23.8688 35.8469 23.9766 35.9041 24.0399 35.9534C24.103 36.0027 24.2235 36.0582 24.3078 36.0767C24.3919 36.0951 24.5403 36.1642 24.6374 36.2301C24.7345 36.2961 24.8418 36.35 24.8759 36.35C24.9099 36.35 24.9656 36.3836 24.9998 36.4247C25.034 36.4659 25.1549 36.526 25.2684 36.5582C25.382 36.5906 25.52 36.6556 25.575 36.7027C25.63 36.7499 25.7313 36.8055 25.8 36.8261C25.8688 36.8469 25.9786 36.9056 26.0443 36.9569C26.1099 37.0081 26.1999 37.0507 26.2443 37.0516C26.2886 37.0524 26.4594 37.1199 26.6238 37.2016C26.788 37.2832 26.9484 37.35 26.9801 37.35C27.0119 37.35 27.0656 37.3836 27.0998 37.4247C27.134 37.4659 27.2549 37.526 27.3684 37.5584C27.482 37.5907 27.6088 37.6439 27.65 37.6765C27.784 37.7825 28.3234 38.0362 28.4943 38.0737C28.5859 38.0939 28.7403 38.1642 28.8374 38.2301C28.9345 38.2961 29.0559 38.35 29.107 38.35C29.1581 38.35 29.2 38.37 29.2 38.3946C29.2 38.4551 29.5721 38.6 29.7276 38.6C29.7966 38.6 29.8656 38.6326 29.881 38.6726C29.8963 38.7125 29.98 38.7687 30.0669 38.7976C30.1539 38.8265 30.3358 38.9064 30.471 38.9751C30.6063 39.0437 30.7571 39.1 30.8063 39.1C30.8554 39.1 30.9785 39.1562 31.0798 39.225C31.1811 39.2937 31.2933 39.35 31.3291 39.35C31.365 39.35 31.4688 39.3925 31.5596 39.4445C31.6506 39.4964 31.815 39.5545 31.925 39.5736C32.035 39.5927 32.26 39.654 32.425 39.7097C32.8019 39.8372 33.761 39.8199 33.9719 39.6816C34.0404 39.6367 34.1543 39.6 34.2249 39.6C34.531 39.6 34.8388 39.3667 35.0603 38.9671C35.1234 38.8532 35.2564 38.6162 35.3559 38.4405C35.4553 38.2647 35.5535 38.0655 35.5743 37.9979C35.5949 37.9304 35.6401 37.8412 35.6748 37.8C35.764 37.6934 36.1 37.0457 36.1001 36.98C36.1001 36.9497 36.1978 36.7337 36.3169 36.5C36.4361 36.2662 36.5628 35.9681 36.5984 35.8375C36.6339 35.7069 36.6818 35.6 36.7045 35.6C36.7274 35.6 36.7785 35.4931 36.818 35.3625C36.8575 35.2319 36.9258 35.0575 36.9696 34.975C37.0135 34.8925 37.0495 34.7791 37.0498 34.7231C37.0499 34.667 37.0955 34.532 37.1511 34.4231C37.2963 34.1391 37.5381 33.4594 37.5776 33.225C37.5961 33.115 37.6416 32.9765 37.6788 32.9171C37.7159 32.8579 37.7718 32.7004 37.803 32.5671C37.8343 32.434 37.9006 32.201 37.9506 32.0495C38.0006 31.8979 38.0578 31.6054 38.0774 31.3995C38.097 31.1935 38.1456 30.961 38.1854 30.8826C38.3158 30.6256 38.4189 29.3877 38.3163 29.3125C38.1399 29.1832 38.075 29.2552 37.9569 29.7117C37.9303 29.8144 37.8616 29.9581 37.8043 30.031C37.7469 30.1039 37.6993 30.1999 37.6984 30.2442C37.6976 30.2886 37.6415 30.4375 37.5739 30.575C37.5063 30.7125 37.4508 30.8531 37.4505 30.8876C37.4503 30.922 37.3404 31.1807 37.2064 31.4626C37.0724 31.7444 36.9473 32.0457 36.9285 32.1324C36.9098 32.2189 36.8519 32.328 36.8 32.375C36.7481 32.422 36.6918 32.524 36.6746 32.6017C36.6575 32.6795 36.6114 32.7697 36.5721 32.8024C36.5329 32.835 36.476 32.9546 36.4459 33.0684C36.4158 33.182 36.3518 33.32 36.3038 33.375C36.2044 33.4889 35.9825 33.9135 35.9249 34.1C35.8893 34.2154 35.8054 34.3361 35.5483 34.6417C35.4943 34.706 35.45 34.7859 35.45 34.8195C35.45 34.9896 34.8646 35.394 34.5355 35.4511C34.3923 35.476 34.1645 35.5309 34.0295 35.5731C33.3948 35.7719 31.954 35.6162 31.33 35.2814C31.1954 35.2091 31.0448 35.15 30.9955 35.15C30.9463 35.15 30.893 35.1291 30.8773 35.1036C30.8615 35.0781 30.7645 35.0301 30.6618 34.997C30.559 34.9639 30.2458 34.8285 29.9655 34.6962C29.6853 34.5639 29.3759 34.4406 29.278 34.4222C29.1801 34.4039 29.1 34.3707 29.1 34.3486C29.1 34.3264 28.9931 34.2689 28.8625 34.2206C28.7319 34.1725 28.5898 34.1034 28.5468 34.0671C28.5036 34.0309 28.3911 33.9862 28.2968 33.9679C28.2023 33.9495 28.0614 33.8817 27.9836 33.8172C27.9059 33.7527 27.8046 33.6992 27.7586 33.6985C27.7126 33.6976 27.585 33.6415 27.475 33.5737C27.365 33.506 27.2435 33.4504 27.2049 33.4502C27.1664 33.4501 26.9639 33.3519 26.7549 33.232C26.546 33.1121 26.293 32.9875 26.1928 32.9549C26.0926 32.9224 25.7901 32.7842 25.5208 32.6479C25.2514 32.5115 24.9921 32.4 24.9446 32.4C24.8971 32.4 24.8509 32.3822 24.8416 32.3605C24.8156 32.2987 24.2971 32.0217 24.075 31.951C23.965 31.916 23.8413 31.8602 23.8 31.827C23.7588 31.7937 23.5338 31.6699 23.3 31.5517C23.0663 31.4336 22.7625 31.2726 22.625 31.1942C22.4875 31.1157 22.2963 31.0176 22.2 30.9762C22.1038 30.9349 21.9913 30.8781 21.95 30.8501C21.9088 30.8221 21.8188 30.7721 21.75 30.7389C21.6813 30.7057 21.5411 30.6271 21.4385 30.5642C21.3359 30.5014 21.2251 30.45 21.1924 30.45C21.1596 30.45 21.096 30.4166 21.051 30.3759C20.9515 30.2859 20.5888 30.0777 20.35 29.9737C20.2538 29.9319 20.1413 29.8759 20.1 29.8492C20.0588 29.8227 19.9364 29.7532 19.8281 29.6947C19.7199 29.6362 19.6001 29.5572 19.5621 29.5192C19.524 29.4811 19.4641 29.45 19.4289 29.45C19.3938 29.45 19.2761 29.3881 19.1674 29.3125C18.8905 29.1199 18.8031 29.0662 18.575 28.9489C18.465 28.8922 18.2738 28.7794 18.15 28.6981C18.0263 28.6169 17.8463 28.514 17.75 28.4695C17.6538 28.4251 17.5638 28.3732 17.55 28.3542C17.5363 28.3352 17.435 28.2654 17.325 28.199C17.215 28.1325 17.1025 28.0605 17.075 28.0389C16.9031 27.904 16.3541 27.5375 16.2471 27.4862C16.1073 27.4192 15.8803 27.2516 15.6396 27.0375C15.5548 26.9619 15.4653 26.9 15.4408 26.9C15.4164 26.9 15.2454 26.7856 15.0606 26.6459C14.549 26.2586 14.4548 26.1837 14.3353 26.0697C14.1185 25.8629 13.41 25.3 13.3679 25.3011C13.3444 25.3017 13.2529 25.3379 13.1646 25.3814ZM13.775 25.8624C13.94 25.9959 14.1346 26.1546 14.2076 26.2151C14.7741 26.6847 15.2503 27.05 15.2959 27.05C15.3175 27.05 15.4039 27.1119 15.488 27.1875C15.7315 27.4066 16.0104 27.6 16.083 27.6C16.1199 27.6 16.15 27.6202 16.15 27.645C16.15 27.6875 16.2285 27.7419 16.733 28.0485C16.8475 28.1181 17.0825 28.2706 17.2555 28.3875C17.4284 28.5044 17.5964 28.6 17.6289 28.6C17.6613 28.6 17.7173 28.6356 17.7534 28.6791C17.8194 28.7586 17.9945 28.8599 18.3875 29.0459C18.5044 29.1012 18.6 29.167 18.6 29.1921C18.6 29.2172 18.6731 29.2674 18.7625 29.3035C18.8519 29.3396 18.942 29.3969 18.9629 29.4309C18.9838 29.4647 19.085 29.5191 19.1879 29.5517C19.2908 29.5844 19.3998 29.6421 19.4301 29.68C19.4605 29.7179 19.5658 29.7826 19.6643 29.8237C19.7626 29.8649 19.8563 29.9196 19.8723 29.9456C19.8883 29.9715 19.9855 30.0197 20.0883 30.0526C20.191 30.0856 20.3129 30.1456 20.359 30.186C20.4526 30.2676 20.5573 30.3272 21.1596 30.6422C21.3881 30.7617 21.6088 30.8875 21.65 30.9215C21.6913 30.9556 21.8038 31.0145 21.9 31.0525C22.0589 31.115 22.5938 31.3935 22.975 31.6122C23.0575 31.6595 23.2038 31.7329 23.3 31.7754C23.3963 31.8177 23.5088 31.8749 23.55 31.9022C23.5913 31.9296 23.7038 31.9859 23.8 32.0272C23.8963 32.0686 24.0088 32.1235 24.05 32.1494C24.2274 32.2604 24.9416 32.6 24.9978 32.6C25.0316 32.6 25.1164 32.645 25.1864 32.7C25.2563 32.755 25.3411 32.8 25.375 32.8C25.4089 32.8 25.4901 32.8419 25.5558 32.8931C25.6214 32.9444 25.7313 33.0031 25.8 33.0239C25.8688 33.0446 26.1709 33.1826 26.4714 33.3307C26.7719 33.4789 27.0574 33.6 27.1059 33.6C27.1544 33.6 27.2084 33.6231 27.2258 33.6512C27.2654 33.7154 28.0729 34.1 28.1679 34.1C28.2063 34.1 28.2648 34.1326 28.2979 34.1725C28.331 34.2122 28.4406 34.2714 28.5415 34.3037C28.6424 34.3361 28.7588 34.3919 28.8 34.4276C28.8413 34.4632 28.9865 34.5205 29.1229 34.5547C29.2593 34.589 29.448 34.6695 29.5424 34.7335C29.6368 34.7976 29.7579 34.85 29.8116 34.85C29.8653 34.85 29.9641 34.8931 30.0311 34.9459C30.0981 34.9986 30.2403 35.0565 30.347 35.0745C30.4538 35.0925 30.5799 35.1502 30.6274 35.2026C30.6749 35.2551 30.795 35.3126 30.8944 35.3304C30.9938 35.3481 31.1088 35.3914 31.15 35.4264C31.1913 35.4615 31.3263 35.518 31.45 35.552C31.5738 35.586 31.7763 35.6614 31.9 35.7195C32.106 35.8161 32.2114 35.825 33.15 35.825C34.0886 35.825 34.194 35.8161 34.4 35.7195C34.5238 35.6614 34.7196 35.5876 34.8354 35.5555C34.9511 35.5235 35.0595 35.475 35.0764 35.4479C35.0931 35.4207 35.1786 35.3685 35.2665 35.3317C35.3645 35.2909 35.4645 35.191 35.5256 35.0732C35.5803 34.9677 35.6545 34.8462 35.6906 34.8032C35.9066 34.5459 36.05 34.3251 36.05 34.2499C36.05 34.2024 36.0923 34.1099 36.1438 34.0442C36.2423 33.919 36.3928 33.6445 36.5243 33.35C36.5673 33.2537 36.6239 33.1412 36.6501 33.1C36.7894 32.881 37.0425 32.3479 37.0729 32.2097C37.092 32.1225 37.1284 32.0384 37.1536 32.0227C37.2048 31.9912 37.55 31.2637 37.55 31.1877C37.55 31.105 37.873 30.402 37.9115 30.401C38.0274 30.3979 37.9676 31.4832 37.8439 31.6324C37.7929 31.6937 37.6181 32.3161 37.4739 32.95C37.4331 33.1287 37.3574 33.3537 37.3054 33.45C37.2534 33.5462 37.1943 33.7034 37.1739 33.7992C37.1535 33.8951 37.1086 34.0189 37.0741 34.0742C37.0395 34.1296 36.984 34.2932 36.9506 34.4376C36.9173 34.5821 36.8714 34.7117 36.8488 34.7257C36.8261 34.7397 36.7715 34.86 36.7274 34.9929C36.6833 35.1257 36.6028 35.3215 36.5485 35.4279C36.4944 35.5341 36.45 35.6682 36.45 35.7259C36.45 35.7835 36.3938 35.9069 36.325 36C36.2563 36.0931 36.1993 36.1931 36.1984 36.2222C36.1976 36.2512 36.1415 36.3875 36.0739 36.525C36.0063 36.6625 35.9508 36.8094 35.9505 36.8514C35.9503 36.8934 35.919 36.9721 35.881 37.0264C35.7655 37.1915 35.4654 37.7671 35.4256 37.9C35.405 37.9687 35.359 38.0587 35.3234 38.1C35.2879 38.1412 35.1744 38.3437 35.0714 38.55C34.8703 38.9526 34.5669 39.3112 34.3556 39.3959C33.8305 39.6062 32.2524 39.5662 31.825 39.3316C31.5936 39.2046 31.148 39.0169 30.9119 38.947C30.7948 38.9122 30.6739 38.8537 30.6433 38.8169C30.6128 38.7801 30.5666 38.75 30.5408 38.75C30.515 38.75 30.3771 38.6961 30.2344 38.6302C30.0918 38.5645 29.894 38.485 29.795 38.4539C29.696 38.4227 29.4248 38.2994 29.1924 38.1797C28.96 38.0601 28.6981 37.9465 28.6105 37.9272C28.5229 37.908 28.4386 37.8721 28.4234 37.8474C28.3829 37.7819 27.7028 37.4681 27.5125 37.4271C27.4231 37.4077 27.35 37.3755 27.35 37.3552C27.35 37.3349 27.1644 37.2327 26.9375 37.1281C26.401 36.8809 25.5159 36.46 25.325 36.3616C24.4581 35.9145 23.4174 35.4 23.3799 35.4C23.354 35.4 23.2974 35.368 23.2539 35.3289C23.2105 35.2896 22.8938 35.1144 22.55 34.9394C22.2063 34.7644 21.8688 34.5841 21.8 34.5389C21.7313 34.4937 21.6148 34.442 21.5411 34.4239C21.4676 34.4057 21.3685 34.348 21.3209 34.2955C21.2734 34.243 21.2165 34.2 21.1945 34.2C21.1725 34.2 21.0715 34.1437 20.9703 34.075C20.8689 34.0062 20.7516 33.95 20.7095 33.95C20.6674 33.95 20.5974 33.9181 20.5539 33.8791C20.4633 33.7977 20.1061 33.591 19.85 33.4716C19.7538 33.4267 19.6413 33.3609 19.6 33.3251C19.5588 33.2895 19.3771 33.1824 19.1964 33.087C19.0156 32.9917 18.7006 32.8055 18.4964 32.6731C18.2921 32.5407 17.9636 32.3295 17.7664 32.2037C17.5693 32.0779 17.2675 31.885 17.096 31.775C16.9245 31.665 16.7146 31.5335 16.6296 31.4827C16.5445 31.432 16.4285 31.3476 16.3718 31.2952C16.315 31.2429 16.2534 31.2 16.2349 31.2C16.2163 31.2 16.0641 31.0931 15.8968 30.9625C15.7294 30.8319 15.4844 30.6462 15.3521 30.55C14.719 30.089 13.4486 28.833 13.3129 28.534C13.2788 28.4587 13.2169 28.3841 13.1754 28.3682C13.134 28.3524 13.1 28.3 13.1 28.2521C13.1 28.2041 13.0426 28.057 12.9725 27.925C12.7638 27.5325 12.7499 26.2236 12.9531 26.0981C12.9823 26.0801 13.0351 25.9667 13.0708 25.8462C13.1793 25.4785 13.3044 25.4814 13.775 25.8624Z" fill="#E6A6AC"/>
</svg>
