<svg width="50" height="50" viewBox="0 0 50 50" fill="none" xmlns="http://www.w3.org/2000/svg">
<g clip-path="url(#clip0_7:72)">
<path fill-rule="evenodd" clip-rule="evenodd" d="M14.6404 13.0614C12.9029 13.3914 11.6194 14.6663 11.199 16.4795C11.113 16.8504 11.1084 17.2279 11.1084 23.9503V31.0303L11.2242 31.2635C11.6736 32.1683 12.9222 32.1543 13.3354 31.2399L13.4521 30.9815L13.4766 23.9503L13.501 16.919L13.656 16.5918C13.9795 15.9089 14.6057 15.5021 15.331 15.504C16.0557 15.5059 16.0721 15.5176 17.9931 17.4224C22.3851 21.7769 22.512 21.8981 22.9247 22.1384C24.2157 22.8894 25.7845 22.8894 27.0752 22.1383C27.4892 21.8974 27.6487 21.7449 31.958 17.4711C33.9334 15.5121 33.942 15.5059 34.669 15.504C35.3942 15.5021 36.0205 15.9089 36.344 16.5918L36.499 16.919L36.5235 23.9503L36.5479 30.9815L36.6646 31.2399C37.0777 32.1543 38.3264 32.1683 38.7757 31.2635L38.8916 31.0303V23.9503C38.8916 17.2279 38.887 16.8504 38.801 16.4795C38.1566 13.7 35.3635 12.2366 32.9306 13.404C32.3369 13.689 32.0841 13.9186 29.0035 16.9733C25.5795 20.3683 25.8022 20.1894 25 20.1894C24.1977 20.1894 24.4205 20.3683 20.9965 16.9733C19.3451 15.3359 17.8637 13.9003 17.7045 13.783C16.8447 13.1501 15.6521 12.8693 14.6404 13.0614ZM11.8736 33.2934C10.7142 33.7063 10.8845 34.9908 12.1471 35.3566C17.9254 37.031 25.9911 37.464 32.8857 36.47C35.1514 36.1433 37.7561 35.5138 38.3979 35.1376C39.1793 34.6798 38.9867 33.5484 38.0817 33.2796C37.689 33.163 37.7832 33.148 36.472 33.5364C30.3369 35.3535 19.8364 35.2878 13.0887 33.3899C12.3997 33.1961 12.1929 33.1798 11.8736 33.2934Z" fill="#353433"/>
<path fill-rule="evenodd" clip-rule="evenodd" d="M23.2178 0.0302486C20.3081 0.312498 18.333 0.747873 16.1133 1.59637C4.88625 5.88737 -1.66063 17.3791 0.341869 29.2797C2.62212 42.8311 15.5881 51.9619 29.2798 49.6581C42.8311 47.3779 51.9619 34.4119 49.6581 20.7202C47.8201 9.79699 38.9604 1.46262 27.7588 0.119249C27.1124 0.0417486 23.7739 -0.0237514 23.2178 0.0302486ZM16.2598 13.0875C17.3608 13.349 17.4091 13.3885 21.1063 17.0452C24.4278 20.3305 24.2433 20.182 25 20.182C25.7568 20.182 25.5723 20.3305 28.8938 17.0452C32.1873 13.7877 32.2723 13.7102 32.8858 13.4049C35.404 12.1514 38.4273 13.829 38.8665 16.7236C38.9751 17.4391 38.9088 31.0445 38.7956 31.2727C38.3411 32.1895 37.1555 32.205 36.6821 31.3005L36.5235 30.9974V24.1436C36.5235 19.3146 36.5075 17.2135 36.4693 17.0312C36.2805 16.1289 35.5779 15.5517 34.668 15.5517C33.8891 15.5517 34.0863 15.3922 30.6073 18.8381C28.8026 20.6256 27.4483 21.9287 27.2806 22.0389C25.8781 22.9606 24.1223 22.9606 22.7194 22.039C22.5515 21.9286 21.2003 20.6284 19.3939 18.8387C15.915 15.3924 16.112 15.5517 15.332 15.5517C14.4221 15.5517 13.7195 16.1289 13.5308 17.0312C13.4925 17.2135 13.4766 19.3146 13.4766 24.1436V30.9974L13.3179 31.3005C12.8445 32.205 11.6589 32.1895 11.2044 31.2727C11.0912 31.0445 11.0249 17.4391 11.1335 16.7236C11.5136 14.2189 13.8991 12.5269 16.2598 13.0875ZM13.1348 33.3755C20.1393 35.3412 31.3736 35.3072 37.178 33.3027C38.7264 32.768 39.6574 34.6181 38.1708 35.2754C37.6194 35.519 36.2104 35.8924 34.7656 36.1776C27.9668 37.5199 18.6931 37.2282 12.4831 35.4769C11.4145 35.1755 11.084 34.8921 11.084 34.2774C11.084 33.3756 11.8831 33.0242 13.1348 33.3755Z" fill="#FBD314"/>
<path fill-rule="evenodd" clip-rule="evenodd" d="M18.5059 14.5264C18.7599 14.7815 18.9787 14.9902 18.9922 14.9902C19.0056 14.9902 18.8087 14.7815 18.5547 14.5264C18.3006 14.2712 18.0817 14.0625 18.0684 14.0625C18.0549 14.0625 18.2517 14.2712 18.5059 14.5264ZM31.4444 14.5386L30.9815 15.0146L31.4575 14.5518C31.7194 14.2971 31.9336 14.0829 31.9336 14.0756C31.9336 14.0403 31.8743 14.0964 31.4444 14.5386ZM20.7031 20.1416C21.28 20.719 21.7631 21.1914 21.7765 21.1914C21.7899 21.1914 21.3289 20.719 20.752 20.1416C20.175 19.5643 19.692 19.0917 19.6786 19.0917C19.6651 19.0917 20.1262 19.5643 20.7031 20.1416ZM29.15 20.2515L28.1006 21.3135L29.1626 20.2641C30.1494 19.289 30.2466 19.1895 30.212 19.1895C30.205 19.1895 29.7271 19.6674 29.15 20.2515ZM23.23 34.8489C23.2904 34.8605 23.3893 34.8605 23.4498 34.8489C23.5101 34.8373 23.4608 34.8278 23.3399 34.8278C23.219 34.8278 23.1695 34.8373 23.23 34.8489ZM26.8433 34.8489C26.9036 34.8605 27.0026 34.8605 27.063 34.8489C27.1234 34.8373 27.074 34.8278 26.9531 34.8278C26.8323 34.8278 26.7829 34.8373 26.8433 34.8489ZM23.3528 36.9979C23.427 37.0091 23.5368 37.0089 23.5969 36.9973C23.6569 36.9856 23.5963 36.9765 23.4619 36.9769C23.3276 36.9773 23.2785 36.9868 23.3528 36.9979ZM26.7219 36.9979C26.7961 37.0091 26.906 37.0089 26.966 36.9973C27.026 36.9856 26.9654 36.9765 26.831 36.9769C26.6968 36.9773 26.6476 36.9868 26.7219 36.9979Z" fill="#9C8424"/>
<path fill-rule="evenodd" clip-rule="evenodd" d="M23.4619 19.4336C23.6485 19.6216 23.8121 19.7754 23.8255 19.7754C23.8389 19.7754 23.6972 19.6216 23.5107 19.4336C23.3242 19.2456 23.1606 19.0918 23.1471 19.0918C23.1337 19.0918 23.2754 19.2456 23.4619 19.4336ZM26.4634 19.4703L26.1475 19.7998L26.477 19.4839C26.6584 19.31 26.8066 19.1618 26.8066 19.1543C26.8066 19.1183 26.7569 19.1641 26.4634 19.4703ZM21.9971 21.4355C22.1294 21.5699 22.2485 21.6798 22.262 21.6798C22.2754 21.6798 22.1781 21.5699 22.0459 21.4355C21.9136 21.3013 21.7945 21.1914 21.781 21.1914C21.7676 21.1914 21.8647 21.3013 21.9971 21.4355ZM27.903 21.4966L27.71 21.7041L27.9175 21.5111C28.1105 21.3316 28.1475 21.2891 28.1105 21.2891C28.1025 21.2891 28.0091 21.3825 27.903 21.4966Z" fill="#B29A1C"/>
<path fill-rule="evenodd" clip-rule="evenodd" d="M17.0166 16.5039C17.3111 16.7994 17.563 17.041 17.5765 17.041C17.5899 17.041 17.3599 16.7994 17.0654 16.5039C16.7709 16.2085 16.519 15.9668 16.5056 15.9668C16.4921 15.9668 16.7221 16.2085 17.0166 16.5039ZM32.9094 16.5405L32.3486 17.1143L32.9224 16.5535C33.4553 16.0328 33.5183 15.9668 33.4831 15.9668C33.476 15.9668 33.2178 16.225 32.9094 16.5405ZM22.0948 18.0664C22.6583 18.6304 23.1303 19.0918 23.1436 19.0918C23.1571 19.0918 22.707 18.6304 22.1435 18.0664C21.5801 17.5025 21.108 17.041 21.0946 17.041C21.0813 17.041 21.5313 17.5025 22.0948 18.0664ZM27.8316 18.103L26.7823 19.165L27.8443 18.1156C28.831 17.1406 28.9283 17.041 28.8936 17.041C28.8866 17.041 28.4088 17.5189 27.8316 18.103ZM24.8413 22.7404C24.9286 22.7513 25.0714 22.7513 25.1588 22.7404C25.246 22.7296 25.1745 22.7208 25 22.7208C24.8255 22.7208 24.754 22.7296 24.8413 22.7404ZM23.645 34.8494C23.7189 34.8606 23.8398 34.8606 23.9136 34.8494C23.9874 34.8383 23.927 34.8291 23.7793 34.8291C23.6316 34.8291 23.5711 34.8383 23.645 34.8494ZM26.3306 34.8494C26.4044 34.8606 26.5253 34.8606 26.5991 34.8494C26.673 34.8383 26.6125 34.8291 26.4649 34.8291C26.3171 34.8291 26.2568 34.8383 26.3306 34.8494ZM22.9864 36.9974C23.0471 37.0091 23.135 37.0086 23.1818 36.9965C23.2284 36.9842 23.1788 36.9746 23.0713 36.9753C22.9639 36.9758 22.9256 36.9858 22.9864 36.9974ZM27.1368 36.9974C27.1975 37.0091 27.2854 37.0086 27.3321 36.9965C27.3788 36.9842 27.3291 36.9746 27.2216 36.9753C27.1143 36.9758 27.076 36.9858 27.1368 36.9974Z" fill="#CCAC1C"/>
</g>
<defs>
<clipPath id="clip0_7:72">
<rect width="50" height="50" fill="white"/>
</clipPath>
</defs>
</svg>
