<svg width="50" height="50" viewBox="0 0 50 50" fill="none" xmlns="http://www.w3.org/2000/svg">
<path fill-rule="evenodd" clip-rule="evenodd" d="M41.0209 30.9526C40.7862 31.0225 40.7139 31.1398 40.6899 31.489C40.6644 31.8616 40.5962 31.9471 40.2944 31.9856C39.9225 32.033 39.9 32.0593 39.9 32.4464C39.9 32.8224 39.922 32.85 40.2214 32.85C40.532 32.85 40.55 32.9149 40.55 34.0318C40.55 35.6811 40.7219 35.949 41.8059 35.9904C42.5125 36.0173 42.55 35.9959 42.55 35.5663C42.55 35.1679 42.4905 35.1039 42.1176 35.1016C41.8866 35.1001 41.8445 35.082 41.7051 34.9233L41.55 34.7465V33.8983C41.55 32.8711 41.5601 32.8505 42.0625 32.8493C42.4782 32.8483 42.5136 32.8186 42.5402 32.4503C42.5684 32.0624 42.5401 32.035 42.0717 31.9968C41.5947 31.9578 41.5801 31.9406 41.55 31.3853L41.525 30.925L41.35 30.9159C41.2537 30.9108 41.1056 30.9274 41.0209 30.9526ZM43.3125 30.9388C43.166 30.9625 43.1649 31.1198 43.3105 31.2218C43.435 31.3089 43.4786 31.283 43.5251 31.0943C43.5606 30.9506 43.5022 30.908 43.3125 30.9388ZM8.175 31.9201C8.1475 31.9306 7.96162 31.9679 7.76187 32.0028C7.56212 32.0378 7.37375 32.0964 7.34325 32.1331C7.27112 32.22 7.17725 32.2181 7.10262 32.1281C7.03312 32.0444 6.55937 31.9743 6.37537 32.0205L6.24887 32.0523L6.26187 34.0136L6.275 35.975L6.525 35.9913C6.6625 36.0001 6.89312 35.9929 7.0375 35.9751L7.3 35.9428V34.6746C7.3 33.0028 7.36137 32.8796 8.18025 32.9103L8.574 32.925L8.738 33.175L8.90212 33.425L8.89775 34.67C8.89437 35.6485 8.9075 35.924 8.95925 35.9568C9.03675 36.0059 9.56975 36.0135 9.79375 35.9688L9.95 35.9375L9.95024 34.7313C9.95062 33.0573 9.9965 32.9423 10.678 32.9079C11.1802 32.8825 11.2525 32.9088 11.4125 33.1753L11.55 33.4041V34.6718C11.55 35.7815 11.5599 35.9431 11.6291 35.9696C11.7314 36.0089 12.3399 35.9999 12.4932 35.9569L12.6115 35.9236L12.6031 34.4651C12.5912 32.3935 12.481 32.1215 11.5817 31.9463C11.1902 31.87 10.1606 31.9819 10.0057 32.1175C9.85399 32.2504 9.69937 32.2665 9.58325 32.1616C9.3915 31.9884 8.42825 31.8231 8.175 31.9201ZM14.475 31.9765C14.2275 32.0161 13.935 32.0915 13.825 32.1441C13.715 32.1966 13.5725 32.2554 13.5082 32.2745C13.3781 32.3135 13.3911 32.5374 13.528 32.6145C13.5665 32.6361 13.6569 32.7543 13.7287 32.877C13.8814 33.1373 13.8467 33.1268 14.1294 32.998C14.7919 32.6963 15.7409 32.7719 15.8316 33.1338C15.881 33.3303 15.749 33.4 15.3276 33.4C15.1334 33.4 14.8957 33.423 14.7996 33.451C14.7036 33.4791 14.4787 33.5233 14.3 33.5491C13.5306 33.6604 13.2042 34.0046 13.1617 34.7499C13.1307 35.2943 13.2424 35.567 13.5982 35.8161L13.825 35.975H14.65C15.4654 35.975 15.4775 35.9734 15.6865 35.8375C15.951 35.6655 16.1219 35.6606 16.2275 35.8219C16.3207 35.964 16.7001 36.0339 17.0747 35.9776L17.3 35.9439V35.5711V35.1984L17.1272 35.116C16.8826 34.9994 16.8807 34.9909 16.8487 33.8C16.8167 32.6136 16.764 32.3891 16.4652 32.17C16.1551 31.9425 15.2429 31.8538 14.475 31.9765ZM19.475 31.9953C19.255 32.0435 19.0075 32.1205 18.925 32.1663C18.7787 32.2475 18.7727 32.2465 18.6834 32.1248C18.5879 31.9949 18.332 31.965 17.9852 32.0434L17.8456 32.075L17.8352 34.562C17.8269 36.594 17.8371 37.0536 17.8916 37.0745C18.0226 37.1247 18.7939 37.1004 18.8282 37.0449C18.847 37.0145 18.8585 36.7614 18.8537 36.4824C18.8422 35.7978 18.883 35.7374 19.2507 35.8955C19.5984 36.0451 20.8686 36.0394 21.0362 35.8875C21.0894 35.8394 21.1542 35.8 21.1802 35.8C21.2376 35.8 21.4267 35.5884 21.6084 35.3213C22.0489 34.6729 22.0376 33.2574 21.5864 32.5621C21.4709 32.384 21.1679 32.05 21.122 32.05C21.1147 32.05 20.9325 32.0163 20.7169 31.975C20.2245 31.8808 19.9781 31.8848 19.475 31.9953ZM23.825 31.9258C23.7975 31.9356 23.6462 31.969 23.489 32.0001C22.7615 32.1435 22.4514 32.7334 22.4509 33.975C22.4504 35.081 22.5834 35.4141 23.2 35.851C23.4424 36.0228 24.963 36.0444 25.146 35.8786C25.3229 35.7186 25.3721 35.8373 25.4 36.4898L25.425 37.075H25.925H26.425L26.438 34.5783C26.4481 32.614 26.4375 32.073 26.388 32.0415C26.2657 31.9639 25.879 31.998 25.725 32.1C25.546 32.2186 25.4602 32.2248 25.3521 32.127C25.2161 32.0039 24.0399 31.8489 23.825 31.9258ZM32.95 31.9941C32.31 32.1159 31.9299 32.4461 31.769 33.0198C31.4311 34.2251 31.7155 35.42 32.425 35.7771C32.5075 35.8188 32.6312 35.8855 32.7 35.9256C33.1635 36.196 35.0202 35.9536 35.3082 35.5853C35.514 35.322 34.9306 34.7649 34.6832 34.9884C34.1837 35.4399 32.7 35.1648 32.7 34.6208C32.7 34.3413 32.6572 34.35 34.0226 34.35C35.594 34.35 35.4887 34.41 35.4017 33.5643C35.3342 32.909 35.2695 32.6 35.1996 32.6C35.1741 32.6 35.1244 32.5471 35.0891 32.4826C34.8154 31.9811 33.9981 31.7945 32.95 31.9941ZM37.2 31.9536C37.0762 31.9771 36.9006 32.0096 36.8096 32.026C36.0025 32.1706 35.7912 33.6086 36.5109 34.059C36.7184 34.1888 37.6929 34.45 37.9697 34.45C38.4757 34.45 38.7252 34.9943 38.2889 35.1464C37.9307 35.2713 37.1597 35.1763 36.7087 34.9518C36.4034 34.7998 36.3135 34.8306 36.0846 35.1663L35.886 35.4575L35.9821 35.5863C36.0351 35.6573 36.1735 35.743 36.2907 35.7776C36.4076 35.8121 36.5396 35.8706 36.5844 35.9078C36.7114 36.0131 38.7544 36.0044 38.8822 35.8979C38.9332 35.8554 39.0371 35.7896 39.1131 35.7515C39.7085 35.4536 39.6527 33.9574 39.0412 33.8231C38.9579 33.8048 38.7962 33.7485 38.6822 33.6981C38.5682 33.6476 38.2956 33.5901 38.0762 33.5703C37.4096 33.5099 37.0451 33.3008 37.1457 33.0361C37.2386 32.7919 38.1436 32.7206 38.6206 32.92C38.835 33.0095 39.0219 32.9709 39.1025 32.8203C39.1379 32.7541 39.1852 32.7 39.2077 32.7C39.4407 32.7 39.3711 32.1296 39.1314 32.0743C38.4946 31.9274 37.6251 31.873 37.2 31.9536ZM27.3625 32.0331C27.2925 32.0614 27.2777 34.492 27.3446 35C27.3854 35.3105 27.5581 35.5438 27.95 35.8178L28.175 35.975H29.1H30.0251L30.3085 35.8268C30.8801 35.5278 31.0071 35.0641 31.037 33.1653C31.0567 31.9179 31.0929 31.9874 30.437 32.0105L30.025 32.025L30 33.325C29.9674 35.0223 29.9195 35.1236 29.1511 35.1236C28.3817 35.1236 28.3049 34.9629 28.3021 33.3475C28.3006 32.4619 28.2832 32.1033 28.24 32.06C28.181 32.001 27.4944 31.9799 27.3625 32.0331ZM24.808 32.8741C25.576 32.9948 25.6089 34.8219 24.8477 35.0846C24.467 35.2161 23.9899 35.1503 23.7577 34.9341C23.3527 34.557 23.3336 33.426 23.7261 33.0559C23.9684 32.8274 24.2306 32.7834 24.808 32.8741ZM34.0669 32.8469C34.4269 32.9838 34.5975 33.4964 34.3184 33.6025C34.2455 33.6303 33.8601 33.6464 33.4559 33.6388L32.725 33.625L32.7096 33.4394C32.6695 32.956 33.4535 32.6138 34.0669 32.8469ZM20.483 32.9941C20.9726 33.3599 20.9632 34.6714 20.4685 35.0216C20.0602 35.3106 19.3689 35.1695 19.0039 34.7229C18.7516 34.4141 18.8677 33.2386 19.1634 33.108C19.1845 33.0988 19.2337 33.0591 19.2727 33.0201C19.484 32.8089 20.214 32.7933 20.483 32.9941ZM15.8004 34.2254C15.9124 34.3604 15.8326 34.7366 15.6526 34.9223C15.3914 35.1919 14.7795 35.2908 14.3871 35.1269C13.9934 34.9624 14.0736 34.3114 14.499 34.2188C14.5682 34.2036 14.6475 34.1838 14.675 34.1746C14.8504 34.116 15.743 34.1564 15.8004 34.2254Z" fill="#53234E"/>
<path fill-rule="evenodd" clip-rule="evenodd" d="M24.3 12.9847C24.2313 12.9962 24.1075 13.0357 24.025 13.0722C23.9425 13.1089 23.7407 13.1547 23.5764 13.1744C23.412 13.194 23.2327 13.2415 23.1778 13.28C23.1228 13.3185 23.0277 13.35 22.9663 13.35C22.83 13.35 22.6 13.45 22.6 13.5092C22.6 13.533 22.5447 13.5735 22.477 13.5992C22.3338 13.6537 22.2672 13.7094 21.8068 14.1596C21.4719 14.4871 21.2837 14.7916 21.1483 15.225C21.1139 15.335 21.0553 15.4694 21.0179 15.5236C20.9805 15.5779 20.95 15.7052 20.95 15.8066C20.95 15.9081 20.9025 16.1337 20.8445 16.308C20.6959 16.7545 20.659 17.832 20.7755 18.325C20.8209 18.5175 20.8873 18.8212 20.9229 19C20.9585 19.1787 21.0242 19.3925 21.0685 19.475C21.113 19.5575 21.1495 19.6591 21.1498 19.7007C21.1499 19.7424 21.1919 19.8549 21.243 19.9507C21.2942 20.0466 21.3537 20.1812 21.375 20.25C21.3965 20.3187 21.5403 20.5075 21.6945 20.6695C21.8488 20.8315 22.0313 21.0229 22.1 21.0949C22.2085 21.2085 22.5372 21.3886 23.075 21.6294C23.1575 21.6664 23.2925 21.7115 23.375 21.7297C23.4575 21.7479 23.6025 21.8095 23.6973 21.8665C23.9743 22.0332 26.9683 22.0294 27.289 21.8617C27.4068 21.8002 27.5354 21.75 27.5748 21.75C27.6143 21.75 27.7502 21.7147 27.8769 21.6717L28.1073 21.5936L28.5795 22.0705C29.1259 22.6222 29.1683 22.65 29.4655 22.65C29.8794 22.65 29.985 22.602 30.3293 22.2577L30.6592 21.9279L30.6422 21.4967L30.625 21.0657L30.1875 20.6302C29.7202 20.1651 29.688 20.0902 29.8435 19.8309C29.895 19.7451 29.9504 19.5716 29.9665 19.4451C29.9828 19.3187 30.036 19.105 30.0848 18.9701C30.2163 18.6075 30.2187 16.2815 30.088 15.9626C30.0402 15.8457 29.9862 15.6247 29.9682 15.4714C29.9502 15.318 29.9042 15.1612 29.8659 15.123C29.8277 15.0847 29.7632 14.974 29.7225 14.8767C29.6819 14.7795 29.6265 14.7 29.5994 14.7C29.5723 14.7 29.55 14.674 29.55 14.6422C29.55 14.6105 29.4938 14.5107 29.425 14.4205C29.3563 14.3304 29.3 14.2226 29.3 14.1811C29.3 14.1395 29.2479 14.0761 29.1843 14.0402C28.9 13.88 28.7 13.7364 28.7 13.6925C28.7 13.6662 28.6325 13.6212 28.55 13.5925C28.4675 13.5637 28.4 13.5209 28.4 13.4971C28.4 13.4734 28.3044 13.4284 28.1875 13.397C28.0707 13.3656 27.9188 13.3155 27.85 13.2855C27.7813 13.2556 27.545 13.1922 27.325 13.1449C27.105 13.0974 26.835 13.0346 26.725 13.0055C26.5355 12.9551 24.5745 12.9384 24.3 12.9847ZM25.8418 16.1529C26.1243 16.2135 26.334 16.3531 26.5495 16.6242C26.7483 16.8744 26.7844 18.0374 26.6 18.25C26.545 18.3134 26.5 18.3804 26.5 18.3987C26.5 18.7769 25.0362 18.8679 24.6447 18.5142C23.5969 17.5676 24.4639 15.8574 25.8418 16.1529ZM9.40002 19.1957C9.24877 19.2162 9.06877 19.2562 9.00002 19.2846C8.93127 19.3131 8.76465 19.3526 8.62977 19.3724C8.4949 19.3922 8.32615 19.4482 8.25477 19.4969C8.1834 19.5455 7.94064 19.7066 7.71527 19.8551C7.45027 20.0297 7.26927 20.1894 7.20252 20.3072C7.14589 20.4075 7.06589 20.5024 7.02477 20.5181C6.98364 20.534 6.95002 20.5805 6.95002 20.6216C6.95002 20.6629 6.90664 20.7197 6.85364 20.7481C6.79052 20.7819 6.73752 20.8946 6.70027 21.074C6.66889 21.2249 6.62377 21.3602 6.60002 21.375C6.57627 21.3897 6.53139 21.5307 6.50039 21.6884C6.46939 21.846 6.41152 22.0599 6.37202 22.1635C6.31202 22.3205 6.30002 22.8947 6.30002 25.6032V28.8545L6.42277 28.9772L6.54552 29.1H8.47277C10.637 29.1 10.5921 29.109 10.1924 28.7542C10.0139 28.5959 9.97927 28.5317 9.94602 28.2975C9.8944 27.9335 9.8934 23.5819 9.9449 23.3157C9.98215 23.1232 10.2146 22.8 10.3159 22.8C10.3386 22.8 10.3879 22.7692 10.4254 22.7317C10.5915 22.5656 11.2829 22.587 11.625 22.7689C12.1105 23.027 12.1179 23.0822 12.0933 26.2617L12.075 28.625L12.2 28.8366C12.3645 29.1152 12.2113 29.0947 14.1859 29.1019C15.7913 29.1075 16.1315 29.0905 16.088 29.0064C16.0792 28.9891 16.0408 28.9131 16.0029 28.8375C15.965 28.7619 15.9078 28.7 15.8759 28.7C15.8439 28.7 15.7575 28.608 15.6839 28.4955L15.55 28.291V25.8016C15.55 23.6499 15.5602 23.3037 15.625 23.25C15.6663 23.2157 15.7 23.1582 15.7 23.1222C15.7 22.707 16.9913 22.455 17.3598 22.7984C17.4198 22.8542 17.4815 22.9 17.4969 22.9C17.5124 22.9 17.5925 22.9844 17.675 23.0875L17.825 23.275L17.85 26.025L17.875 28.775L17.9893 28.9352L18.1037 29.0955L19.9893 29.1102C21.0264 29.1184 21.8948 29.1097 21.9189 29.0911C22.002 29.027 21.902 28.8246 21.7298 28.7084C21.4517 28.5209 21.4502 28.5049 21.4488 25.755C21.4482 24.3635 21.4267 23.135 21.401 23.025C21.3754 22.915 21.34 22.5775 21.3224 22.275C21.2984 21.8602 21.268 21.6929 21.1989 21.5944C21.1484 21.5225 21.092 21.3832 21.0737 21.2851C21.0552 21.1869 20.9974 21.0679 20.945 21.0205C20.8928 20.9732 20.85 20.9027 20.85 20.8639C20.85 20.8251 20.7938 20.7196 20.725 20.6295C20.6563 20.5392 20.6 20.4397 20.6 20.4082C20.6 20.3411 20.3777 20.1277 20.1225 19.95C20.0239 19.8812 19.8795 19.7744 19.8019 19.7125C19.7242 19.6506 19.626 19.6 19.5839 19.6C19.5417 19.6 19.4735 19.5664 19.4324 19.5252C19.3342 19.427 19.1268 19.3501 18.9593 19.3497C18.8854 19.3495 18.7575 19.3112 18.675 19.2646C18.456 19.1409 16.2767 19.1339 15.975 19.256C15.865 19.3005 15.6684 19.3525 15.5382 19.3714C15.4078 19.3904 15.2679 19.4392 15.2272 19.48C15.1864 19.5209 15.0814 19.5791 14.994 19.6096C14.9065 19.6401 14.7934 19.7066 14.7425 19.7575C14.6917 19.8084 14.6085 19.85 14.5578 19.85C14.507 19.85 14.4248 19.895 14.375 19.95C14.3253 20.005 14.2345 20.05 14.1734 20.05C14.1123 20.05 14.0343 20.0837 14 20.125C13.928 20.2117 13.8348 20.2202 13.7119 20.1512C13.6642 20.1245 13.5407 20.0694 13.4375 20.0289C13.3344 19.9882 13.25 19.9315 13.25 19.9025C13.25 19.8736 13.2094 19.85 13.1598 19.85C13.11 19.85 12.9931 19.7937 12.9 19.725C12.8069 19.6562 12.7043 19.6 12.672 19.6C12.6399 19.6 12.5599 19.5585 12.4943 19.5079C12.4286 19.4572 12.2288 19.3876 12.05 19.3531C11.8713 19.3187 11.6953 19.2661 11.6588 19.2361C11.58 19.1712 9.81415 19.1396 9.40002 19.1957Z" fill="#8CC43C"/>
<path fill-rule="evenodd" clip-rule="evenodd" d="M0 25V50H25H50V25V0H25H0V25ZM27.2 12.9271C27.3513 12.971 27.565 13.0278 27.675 13.0531C27.8595 13.0956 27.9539 13.1342 28.4509 13.3699C28.6627 13.4702 29.3616 14.0186 29.3986 14.1135C29.4131 14.1506 29.4535 14.2134 29.4883 14.253C30.1004 14.9503 30.4455 16.2894 30.3827 17.725C30.3536 18.3909 30.2302 19.2772 30.1535 19.372C30.1299 19.4011 30.0776 19.5488 30.0375 19.7C29.9973 19.8513 29.9483 20.0122 29.9286 20.0579C29.9021 20.1194 29.997 20.2421 30.2961 20.5329C30.5179 20.7485 30.7 20.9587 30.7008 21C30.7015 21.0413 30.744 21.1669 30.795 21.2792C30.879 21.4644 30.881 21.5019 30.8159 21.6793C30.7762 21.7869 30.7229 21.9439 30.6973 22.028C30.6204 22.2799 30.2234 22.6361 29.9219 22.7237C29.3304 22.8957 29.1035 22.8164 28.5351 22.239C28.0509 21.747 27.9708 21.7226 27.5408 21.9371C27.4551 21.9799 27.169 22.035 26.905 22.0595C26.641 22.0841 26.3598 22.1257 26.28 22.1521C26.0894 22.2151 24.9709 22.2138 24.665 22.1501C24.533 22.1228 24.2416 22.0805 24.0174 22.0562C23.7931 22.032 23.5403 21.9775 23.4554 21.9351C23.3705 21.8929 23.2283 21.8422 23.1394 21.8226C22.9971 21.7914 22.7964 21.6949 22.2485 21.3941C22.0491 21.2846 21.4127 20.6204 21.2976 20.4016C21.0147 19.8641 20.8934 19.5788 20.8496 19.3481C20.8227 19.2066 20.7629 18.986 20.7165 18.8579C20.5759 18.4698 20.5934 16.4383 20.741 16.006C20.801 15.8305 20.85 15.6359 20.85 15.5735C20.85 15.511 20.906 15.3396 20.9745 15.1925C21.043 15.0454 21.0993 14.8849 21.0995 14.8359C21.0998 14.787 21.1321 14.7345 21.1715 14.7194C21.2109 14.7044 21.2644 14.6319 21.2904 14.5585C21.4029 14.2411 22.4609 13.3 22.705 13.3C22.745 13.3 22.8301 13.2633 22.8943 13.2184C23.4133 12.8549 26.2825 12.6609 27.2 12.9271ZM25.25 16.3244C24.5801 16.5059 24.4799 16.6436 24.4583 17.4123C24.4326 18.3215 24.6906 18.6215 25.5 18.6238C26.2351 18.6259 26.5935 18.2453 26.5977 17.4578C26.6022 16.6155 26.0109 16.1181 25.25 16.3244ZM11.5139 19.0451C11.7828 19.0974 12.0318 19.1641 12.0673 19.1936C12.1028 19.223 12.2484 19.2721 12.3909 19.3027C12.5334 19.3332 12.65 19.3788 12.65 19.4036C12.65 19.4286 12.8019 19.5177 12.9875 19.6017C13.1731 19.6857 13.4087 19.8124 13.5111 19.8831C13.7046 20.0168 14.0998 20.0218 14.1803 19.8915C14.1983 19.8624 14.3056 19.7945 14.419 19.7405C14.5322 19.6865 14.76 19.5671 14.925 19.4753C15.09 19.3834 15.2819 19.3062 15.3514 19.3041C15.4209 19.3019 15.5315 19.2624 15.5972 19.2162C16.0446 18.9029 18.4064 18.8876 19 19.1944C19.0962 19.244 19.2594 19.3004 19.3625 19.3196C19.4656 19.3389 19.55 19.3745 19.55 19.3989C19.55 19.4232 19.5944 19.4574 19.6486 19.4746C20.029 19.5952 20.6264 20.1455 20.927 20.6519C20.9555 20.7 21.0033 20.7699 21.0329 20.8071C21.0626 20.8445 21.1157 20.965 21.1511 21.075C21.1864 21.185 21.2434 21.32 21.2778 21.375C21.3123 21.43 21.3559 21.5763 21.3746 21.7C21.3935 21.8238 21.4448 22.0262 21.4885 22.15C21.5564 22.3422 21.5721 22.8093 21.5965 25.354L21.625 28.333L21.765 28.5165C21.8421 28.6174 21.9248 28.7 21.9486 28.7C22.0401 28.7 22.1066 29.0306 22.0432 29.1699C21.9579 29.3571 21.9669 29.3564 19.9653 29.3399L18.1565 29.325L17.9988 29.175C17.6884 28.8797 17.7 28.9986 17.7 26.1255C17.7 23.6439 17.6946 23.4856 17.6054 23.3105C17.3034 22.719 16.4872 22.5857 15.9834 23.0457C15.7007 23.3037 15.7 23.3114 15.7 25.7936C15.7001 28.3521 15.6979 28.3344 16.0639 28.7222C16.2741 28.9451 16.2915 29.0376 16.1545 29.207L16.0589 29.325L14.342 29.3398C12.3966 29.3565 12.3295 29.3451 12.0903 28.9604L11.975 28.775V26.041V23.307L11.825 23.1495C11.3632 22.6647 10.637 22.6505 10.1908 23.1175L10.05 23.2649V25.7962C10.05 28.5547 10.036 28.4121 10.3321 28.675C10.6227 28.933 10.542 29.2734 10.1776 29.3263C10.0662 29.3425 9.2195 29.3489 8.296 29.3404L6.617 29.325L6.43038 29.1826C6.13675 28.9585 6.14362 29.0534 6.15987 25.4525L6.175 22.125L6.31687 21.675C6.39487 21.4275 6.50175 21.1335 6.55438 21.0217C6.607 20.9099 6.65 20.793 6.65 20.762C6.65 20.731 6.68938 20.6763 6.7375 20.6404C6.78563 20.6044 6.90838 20.4538 7.01025 20.3055C7.2015 20.0275 7.651 19.6496 7.93925 19.5247C8.02962 19.4856 8.13813 19.4191 8.18038 19.3769C8.22263 19.3346 8.31112 19.3 8.377 19.3C8.443 19.3 8.582 19.2569 8.686 19.2041C8.78987 19.1515 9.07713 19.0825 9.32425 19.0508C9.57138 19.0191 9.78325 18.9835 9.79513 18.9716C9.859 18.9077 11.0735 18.9597 11.5139 19.0451ZM23.7635 28.6204C23.8196 28.663 23.93 28.6788 24.0655 28.6634C24.3629 28.6299 24.4349 28.72 24.3426 29.0104C24.246 29.3142 23.8096 29.4189 23.7138 29.161C23.5844 28.813 23.443 28.7494 23.3279 28.9875C23.2469 29.1552 23.233 29.1645 23.1971 29.075C23.1474 28.951 23.1384 28.6284 23.1834 28.5834C23.2427 28.5239 23.6725 28.5512 23.7635 28.6204ZM41.6183 30.8036C41.7403 30.8996 41.75 30.9357 41.75 31.2936C41.75 31.7595 41.7823 31.8 42.1533 31.8C42.6091 31.8 42.7002 31.9028 42.6992 32.4161C42.6982 32.9486 42.684 32.967 42.2518 32.9914C41.7579 33.0194 41.75 33.0345 41.75 33.9556C41.75 34.8374 41.7725 34.8863 42.2 34.9323C42.6725 34.9831 42.7061 35.0265 42.6894 35.5617L42.675 36.0189L42.5 36.0651C41.817 36.2459 40.793 36.0071 40.6144 35.6255C40.5756 35.5427 40.5119 35.4187 40.4728 35.35C40.4175 35.253 40.4012 34.9932 40.4007 34.1916C40.3999 32.9717 40.4065 33 40.1232 33C39.8015 33 39.75 32.9215 39.75 32.431C39.75 31.9184 39.796 31.8454 40.1394 31.8124C40.4696 31.7806 40.5588 31.6809 40.6046 31.2922C40.6488 30.9176 40.7096 30.8536 41.0675 30.8051C41.2229 30.784 41.3649 30.7518 41.3833 30.7334C41.4361 30.6805 41.4775 30.6929 41.6183 30.8036ZM43.6097 30.8344C43.9351 31.1461 43.669 31.6616 43.2256 31.5784C43.0164 31.5391 42.948 31.4561 42.9136 31.1994C42.8576 30.7824 43.3086 30.5459 43.6097 30.8344ZM9.25 31.8237C9.31875 31.8635 9.40875 31.9099 9.45 31.9268C9.49125 31.9435 9.56387 31.978 9.61125 32.0034C9.70387 32.0526 10.0795 31.971 10.4109 31.8294C11.0335 31.5635 12.5 31.91 12.5 32.323C12.5 32.3524 12.55 32.4661 12.6111 32.5757C12.7355 32.7987 12.8175 35.8296 12.7037 36C12.6359 36.1016 11.5568 36.1091 11.4358 36.0089C11.367 35.9519 11.3537 35.7562 11.3405 34.6039C11.3221 33.0136 11.3535 33.1 10.7946 33.1C10.4311 33.1 10.3894 33.111 10.2382 33.2458L10.075 33.3916L10.05 34.7061L10.025 36.0206L9.825 36.0641C9.53537 36.1271 8.86075 36.0821 8.77262 35.994C8.714 35.9354 8.698 35.6722 8.68775 34.5935C8.67262 33.0211 8.70025 33.1 8.16562 33.1C7.4085 33.1 7.4 33.1179 7.4 34.7048C7.4 35.6173 7.38325 36.0044 7.34288 36.0294C7.2355 36.0957 6.373 36.1158 6.25863 36.0546L6.15 35.9965V34.0013C6.15 32.4918 6.16475 31.9967 6.21063 31.9684C6.34738 31.8839 7.07762 31.8848 7.1625 31.9696C7.21212 32.0194 7.25575 32.0312 7.27475 32.0004C7.29188 31.9726 7.35525 31.9492 7.4155 31.9482C7.47575 31.9474 7.615 31.9031 7.725 31.85C7.9835 31.7251 9.04775 31.7069 9.25 31.8237ZM16.075 31.85C16.185 31.9031 16.3044 31.9474 16.3401 31.9482C16.417 31.9502 16.75 32.2072 16.75 32.2645C16.75 32.2862 16.8006 32.3725 16.8625 32.4561C16.9695 32.6007 16.9759 32.6611 16.9925 33.6839L17.0101 34.7594L17.205 34.9355L17.4 35.1116V35.557C17.4 35.9966 17.3981 36.0032 17.2625 36.0564C17.0288 36.148 16.2574 36.0767 16.1419 35.9529C16.0225 35.8246 15.9115 35.8224 15.7782 35.9451C15.4494 36.2483 13.8851 36.2201 13.4631 35.9035C13.0053 35.56 12.7994 34.2453 13.1671 34.0131C13.2002 33.9921 13.2667 33.9131 13.3149 33.8375C13.363 33.7619 13.4355 33.7 13.4761 33.7C13.5167 33.7 13.55 33.6811 13.55 33.658C13.55 33.6013 13.7503 33.5139 13.9784 33.4711C14.0814 33.4518 14.224 33.4055 14.2954 33.3683C14.3799 33.3241 14.6076 33.3003 14.95 33.2996C15.7489 33.2981 15.8574 33.2464 15.4688 33.0522C15.1965 32.9162 14.8154 32.932 14.35 33.0984C13.8925 33.262 13.7838 33.241 13.597 32.9529C13.5089 32.8169 13.406 32.6939 13.3684 32.6794C13.3251 32.6627 13.3 32.5738 13.3 32.437C13.3 32.2023 13.6489 31.9541 13.9886 31.9473C14.0636 31.9456 14.2263 31.9019 14.35 31.85C14.681 31.7111 15.7874 31.7111 16.075 31.85ZM20.893 31.8511C21.0129 31.9055 21.144 31.95 21.1844 31.95C21.3125 31.95 21.8482 32.5659 21.8494 32.7145C21.8497 32.7638 21.895 32.8923 21.95 33C22.0941 33.2826 22.0991 34.6557 21.9571 34.9395C21.906 35.0415 21.85 35.184 21.8328 35.2561C21.8046 35.3733 21.4654 35.7598 21.2283 35.9446C21.0365 36.0943 19.8647 36.2636 19.7351 36.1605C19.6524 36.0946 19.2207 36.0367 19.0994 36.0752C19.0091 36.1039 19 36.1518 19 36.5934C19 37.2133 19.015 37.2 18.3137 37.2C17.752 37.2 17.7471 37.199 17.6987 37.0718C17.6212 36.8679 17.6341 32.1401 17.7125 32.0365C17.8051 31.9141 18.5361 31.8306 18.6824 31.9258C18.81 32.0088 19.1875 31.9611 19.425 31.8321C19.6562 31.7065 20.6011 31.7188 20.893 31.8511ZM24.9755 31.8433C25.3193 31.9995 25.5034 32.0124 25.7211 31.8956C25.8784 31.8114 25.939 31.8017 26.0354 31.8456C26.101 31.8755 26.2186 31.9 26.2969 31.9C26.669 31.9 26.6529 31.7796 26.6524 34.5687C26.652 36.3935 26.6362 37.0814 26.5936 37.1328C26.5481 37.1875 26.4019 37.1999 25.9301 37.189L25.325 37.175L25.3125 36.7C25.2939 35.9853 25.3054 36.007 24.9796 36.0721C24.8296 36.102 24.6903 36.1431 24.67 36.1632C24.615 36.2182 23.7106 36.2075 23.6759 36.1515C23.6594 36.1248 23.5353 36.0883 23.4001 36.0703C23.257 36.0513 23.1189 35.9985 23.0694 35.9439C23.0227 35.8922 22.9599 35.85 22.9298 35.85C22.8685 35.85 22.6 35.5314 22.6 35.4588C22.6 35.4333 22.5664 35.3844 22.5254 35.3504C22.1741 35.0589 22.1576 33.1175 22.5023 32.6395C22.556 32.565 22.6 32.4833 22.6 32.458C22.6 32.3648 23.0772 31.95 23.1845 31.95C23.2447 31.95 23.3077 31.9279 23.3245 31.9007C23.4277 31.7336 24.6413 31.6914 24.9755 31.8433ZM34.4986 31.8625C34.5666 31.9106 34.661 31.95 34.7084 31.95C34.8827 31.95 35.3984 32.5244 35.4017 32.7223C35.4026 32.7788 35.4469 32.915 35.5 33.025C35.6021 33.2365 35.6455 34.251 35.5583 34.3884C35.4774 34.5159 35.1519 34.55 34.0171 34.55H32.8586L32.9118 34.6906C33.0508 35.0587 33.8125 35.1749 34.45 34.925C34.8908 34.7522 35.0502 34.7601 35.217 34.9625C35.5061 35.3135 35.6 35.4412 35.6 35.4836C35.6 35.5496 35.314 35.85 35.251 35.85C35.221 35.85 35.1368 35.8894 35.0638 35.9375C34.6146 36.2336 32.748 36.2376 32.4217 35.9431C32.365 35.8919 32.2901 35.85 32.2554 35.85C32.1617 35.85 31.7521 35.3946 31.7156 35.25C31.6984 35.1812 31.6548 35.0795 31.6189 35.024C31.4318 34.7346 31.4393 33.2799 31.6299 32.8662C31.834 32.4236 32.297 31.95 32.5256 31.95C32.572 31.95 32.6808 31.9177 32.7675 31.8784C33.018 31.7645 33.0896 31.7562 33.75 31.7659C34.2546 31.7732 34.3989 31.7919 34.4986 31.8625ZM38.8109 31.867C38.9131 31.9126 39.0626 31.95 39.1432 31.95C39.248 31.95 39.3334 31.9999 39.4432 32.125C39.582 32.283 39.6105 32.45 39.4985 32.45C39.4761 32.45 39.4313 32.5304 39.3989 32.6285C39.3665 32.7266 39.3105 32.8183 39.2745 32.8321C39.2385 32.8459 39.1954 32.9115 39.1787 32.9779C39.127 33.1841 38.9159 33.1956 38.3016 33.0256C37.9032 32.9154 37.5244 32.9256 37.4 33.05C37.2264 33.2236 37.2591 33.2564 37.675 33.3236C37.785 33.3415 37.9425 33.3758 38.025 33.4C38.1075 33.4241 38.3275 33.4684 38.5137 33.4984C40.1586 33.7632 40.1678 35.8627 38.525 36.1006C37.9241 36.1876 37.4024 36.2139 37.335 36.1606C37.302 36.1346 37.095 36.0978 36.875 36.0788C36.6221 36.0569 36.4142 36.0085 36.3096 35.9471C36.2187 35.8937 36.1107 35.85 36.0699 35.85C35.8564 35.85 35.6419 35.3884 35.8231 35.3187C35.8632 35.3034 35.9114 35.2423 35.9299 35.1829C36.0801 34.7006 36.3001 34.5979 36.775 34.7879C37.6064 35.1208 38.4 35.1295 38.4 34.8058C38.4 34.7418 37.8816 34.55 37.7086 34.55C37.4203 34.55 36.8277 34.4377 36.7461 34.3677C36.7026 34.3305 36.6439 34.3 36.6155 34.3C36.587 34.3 36.4762 34.2308 36.3694 34.1463C35.6444 33.5728 35.838 32.1788 36.675 31.9459C36.785 31.9153 36.8975 31.8724 36.925 31.8505C37.0869 31.7219 38.5137 31.7344 38.8109 31.867ZM28.4045 31.943C28.4927 32.0521 28.5 32.1558 28.5006 33.318C28.5015 34.9231 28.4851 34.8769 29.075 34.9336C29.7634 34.9997 29.7886 34.9435 29.795 33.3219L29.8 32.0687L29.9456 31.9293C30.1529 31.7306 30.9434 31.7448 31.1109 31.95C31.2861 32.1649 31.2204 34.7405 31.028 35.1949C30.8937 35.5117 30.664 35.85 30.5829 35.85C30.5597 35.85 30.4864 35.8929 30.4198 35.9451C30.348 36.0016 30.1721 36.0547 29.9869 36.0757C29.8154 36.0952 29.6481 36.1329 29.6154 36.1594C29.4689 36.2777 28.0741 36.0945 27.8316 35.925C27.5345 35.7174 27.3056 35.4315 27.2717 35.2256C27.2536 35.1152 27.2131 34.9935 27.1819 34.9549C27.1431 34.9073 27.1201 34.4256 27.1098 33.4482L27.0945 32.0116L27.2346 31.9014C27.4447 31.736 28.2605 31.7651 28.4045 31.943ZM24.25 32.9835C23.7279 33.1605 23.625 33.3249 23.625 33.9823C23.625 34.3953 23.6412 34.5075 23.7125 34.5863C23.7606 34.6394 23.8 34.7076 23.8 34.7378C23.8 35.0444 24.8985 35.0341 25.0625 34.726C25.0921 34.6705 25.152 34.5986 25.1956 34.5665C25.3431 34.4578 25.3061 33.4605 25.1484 33.2933C24.9569 33.0901 24.4505 32.9156 24.25 32.9835ZM33.0684 33.0889C32.6952 33.4132 32.7969 33.5 33.55 33.5C34.1697 33.5 34.25 33.4808 34.25 33.3316C34.25 32.9513 33.4222 32.7811 33.0684 33.0889ZM19.4609 33.1087C19.0304 33.3175 18.9184 33.924 19.1717 34.675C19.2956 35.0424 20.4656 35.0669 20.5716 34.7044C20.703 34.2548 20.7026 33.7431 20.5707 33.293C20.4992 33.049 19.8175 32.9359 19.4609 33.1087ZM14.5125 34.4033C14.0755 34.6081 14.2926 35.05 14.8304 35.05C15.3076 35.05 15.7 34.7701 15.7 34.4297V34.3L15.2125 34.3019C14.8327 34.3033 14.678 34.3256 14.5125 34.4033Z" fill="#FBFBFB"/>
<path fill-rule="evenodd" clip-rule="evenodd" d="M41.3832 30.7334C41.3649 30.7517 41.2229 30.784 41.0675 30.8051C40.7096 30.8536 40.6487 30.9176 40.6046 31.2922C40.5587 31.6809 40.4696 31.7806 40.1394 31.8124C39.796 31.8454 39.75 31.9184 39.75 32.431C39.75 32.9215 39.8015 33 40.1232 33C40.4065 33 40.3999 32.9717 40.4007 34.1916C40.4012 34.9932 40.4175 35.253 40.4727 35.35C40.5119 35.4187 40.5756 35.5427 40.6144 35.6255C40.793 36.0071 41.817 36.2459 42.5 36.0651L42.675 36.0189L42.6894 35.5617C42.7061 35.0265 42.6725 34.9831 42.2 34.9322C41.7725 34.8862 41.75 34.8374 41.75 33.9556C41.75 33.0345 41.7579 33.0194 42.2517 32.9914C42.684 32.967 42.6982 32.9486 42.6992 32.4161C42.7002 31.9027 42.6091 31.8 42.1532 31.8C41.7822 31.8 41.75 31.7595 41.75 31.2936C41.75 30.8712 41.5504 30.5662 41.3832 30.7334ZM43.0274 30.8475C42.7839 31.1016 42.8964 31.5166 43.2256 31.5784C43.4582 31.622 43.583 31.5694 43.6726 31.3897C43.9171 30.8996 43.3966 30.4621 43.0274 30.8475ZM41.55 31.3852C41.5801 31.9406 41.5947 31.9577 42.0717 31.9967C42.5401 32.035 42.5684 32.0624 42.5402 32.4502C42.5136 32.8186 42.4782 32.8482 42.0625 32.8492C41.5601 32.8505 41.55 32.8711 41.55 33.8982V34.7465L41.7051 34.9232C41.8445 35.082 41.8866 35.1001 42.1176 35.1016C42.4905 35.1039 42.55 35.1679 42.55 35.5662C42.55 35.9959 42.5125 36.0172 41.8059 35.9904C40.7219 35.949 40.55 35.6811 40.55 34.0317C40.55 32.9149 40.532 32.85 40.2214 32.85C39.922 32.85 39.9 32.8224 39.9 32.4464C39.9 32.0592 39.9225 32.033 40.2944 31.9856C40.5962 31.9471 40.6644 31.8616 40.6899 31.489C40.7201 31.0475 40.899 30.8922 41.35 30.9159L41.525 30.925L41.55 31.3852ZM43.5251 31.0942C43.4786 31.283 43.435 31.3089 43.3105 31.2217C43.1649 31.1197 43.166 30.9625 43.3125 30.9387C43.5022 30.908 43.5606 30.9506 43.5251 31.0942ZM7.72499 31.85C7.61499 31.9031 7.47574 31.9474 7.41549 31.9482C7.35524 31.9492 7.29187 31.9726 7.27474 32.0004C7.25574 32.0312 7.21212 32.0194 7.16249 31.9696C7.07762 31.8847 6.34737 31.8839 6.21062 31.9684C6.16474 31.9967 6.14999 32.4917 6.14999 34.0012V35.9965L6.25862 36.0546C6.37299 36.1157 7.23549 36.0957 7.34287 36.0294C7.38324 36.0044 7.39999 35.6172 7.39999 34.7047C7.39999 33.1179 7.40849 33.1 8.16562 33.1C8.70024 33.1 8.67262 33.0211 8.68774 34.5935C8.69799 35.6722 8.71399 35.9354 8.77262 35.994C8.86074 36.0821 9.53537 36.1271 9.82499 36.0641L10.025 36.0206L10.05 34.7061L10.075 33.3916L10.2382 33.2457C10.3894 33.111 10.4311 33.1 10.7946 33.1C11.3535 33.1 11.3221 33.0136 11.3405 34.6039C11.3537 35.7562 11.367 35.9519 11.4357 36.0089C11.5567 36.1091 12.6359 36.1016 12.7037 36C12.8175 35.8296 12.7355 32.7987 12.6111 32.5757C12.55 32.4661 12.5 32.3524 12.5 32.323C12.5 31.91 11.0335 31.5635 10.4109 31.8294C10.0795 31.971 9.70387 32.0526 9.61124 32.0034C9.56387 31.978 9.49124 31.9435 9.44999 31.9267C9.40874 31.9099 9.31874 31.8635 9.24999 31.8237C9.04774 31.7069 7.98349 31.7251 7.72499 31.85ZM14.35 31.85C14.2262 31.9019 14.0636 31.9456 13.9886 31.9472C13.6489 31.9541 13.3 32.2022 13.3 32.437C13.3 32.5737 13.3251 32.6627 13.3684 32.6794C13.406 32.6939 13.5089 32.8169 13.597 32.9529C13.7837 33.241 13.8925 33.262 14.35 33.0984C14.8154 32.932 15.1965 32.9162 15.4687 33.0522C15.8574 33.2464 15.7489 33.2981 14.95 33.2996C14.6076 33.3002 14.3799 33.3241 14.2954 33.3682C14.224 33.4055 14.0814 33.4517 13.9784 33.4711C13.7502 33.5139 13.55 33.6012 13.55 33.658C13.55 33.6811 13.5167 33.7 13.4761 33.7C13.4355 33.7 13.363 33.7619 13.3149 33.8375C13.2667 33.9131 13.2002 33.9921 13.1671 34.0131C12.7994 34.2452 13.0052 35.56 13.4631 35.9035C13.8851 36.2201 15.4494 36.2482 15.7782 35.9451C15.9115 35.8224 16.0225 35.8246 16.1419 35.9529C16.2574 36.0767 17.0287 36.148 17.2625 36.0564C17.3981 36.0032 17.4 35.9966 17.4 35.557V35.1116L17.205 34.9355L17.0101 34.7594L16.9925 33.6839C16.9759 32.6611 16.9695 32.6007 16.8625 32.4561C16.8006 32.3725 16.75 32.2862 16.75 32.2645C16.75 32.2072 16.417 31.9502 16.3401 31.9482C16.3044 31.9474 16.185 31.9031 16.075 31.85C15.7874 31.7111 14.681 31.7111 14.35 31.85ZM19.425 31.8321C19.1875 31.9611 18.81 32.0087 18.6824 31.9257C18.5361 31.8306 17.8051 31.9141 17.7125 32.0365C17.6341 32.1401 17.6212 36.8679 17.6987 37.0717C17.7471 37.199 17.752 37.2 18.3137 37.2C19.015 37.2 19 37.2132 19 36.5934C19 36.1517 19.0091 36.1039 19.0994 36.0752C19.2207 36.0367 19.6524 36.0946 19.7351 36.1605C19.8647 36.2636 21.0365 36.0942 21.2282 35.9446C21.4654 35.7597 21.8046 35.3732 21.8327 35.2561C21.85 35.184 21.906 35.0415 21.9571 34.9395C22.0991 34.6557 22.0941 33.2826 21.95 33C21.895 32.8922 21.8497 32.7637 21.8494 32.7145C21.8482 32.5659 21.3125 31.95 21.1844 31.95C21.144 31.95 21.0129 31.9055 20.893 31.8511C20.6011 31.7187 19.6562 31.7065 19.425 31.8321ZM23.515 31.8052C23.427 31.8307 23.3412 31.8737 23.3245 31.9007C23.3077 31.9279 23.2447 31.95 23.1845 31.95C23.0772 31.95 22.6 32.3647 22.6 32.458C22.6 32.4832 22.556 32.565 22.5022 32.6395C22.1576 33.1175 22.1741 35.0589 22.5254 35.3504C22.5664 35.3844 22.6 35.4332 22.6 35.4587C22.6 35.5314 22.8685 35.85 22.9297 35.85C22.9599 35.85 23.0227 35.8922 23.0694 35.9439C23.1189 35.9985 23.257 36.0512 23.4001 36.0702C23.5352 36.0882 23.6594 36.1247 23.6759 36.1515C23.7106 36.2075 24.615 36.2182 24.67 36.1632C24.6902 36.1431 24.8296 36.102 24.9796 36.0721C25.3054 36.007 25.2939 35.9852 25.3125 36.7L25.325 37.175L25.9301 37.189C26.4019 37.1999 26.5481 37.1875 26.5936 37.1327C26.6362 37.0814 26.652 36.3935 26.6524 34.5687C26.6529 31.7796 26.669 31.9 26.2969 31.9C26.2186 31.9 26.101 31.8755 26.0354 31.8456C25.939 31.8017 25.8784 31.8114 25.7211 31.8956C25.5034 32.0124 25.3192 31.9995 24.9755 31.8432C24.7529 31.7421 23.8175 31.7177 23.515 31.8052ZM33.025 31.7817C32.97 31.7955 32.8541 31.839 32.7675 31.8784C32.6807 31.9177 32.572 31.95 32.5256 31.95C32.297 31.95 31.834 32.4236 31.6299 32.8662C31.4392 33.2799 31.4317 34.7346 31.6189 35.024C31.6547 35.0795 31.6984 35.1812 31.7156 35.25C31.7521 35.3946 32.1617 35.85 32.2554 35.85C32.2901 35.85 32.365 35.8919 32.4217 35.9431C32.748 36.2376 34.6146 36.2336 35.0637 35.9375C35.1367 35.8894 35.221 35.85 35.251 35.85C35.314 35.85 35.6 35.5496 35.6 35.4836C35.6 35.4412 35.5061 35.3135 35.217 34.9625C35.0502 34.7601 34.8907 34.7522 34.45 34.925C33.8125 35.1749 33.0507 35.0587 32.9117 34.6906L32.8586 34.55H34.0171C35.1519 34.55 35.4774 34.5159 35.5582 34.3884C35.6455 34.251 35.6021 33.2365 35.5 33.025C35.4469 32.915 35.4026 32.7787 35.4017 32.7222C35.3984 32.5244 34.8827 31.95 34.7084 31.95C34.661 31.95 34.5666 31.9106 34.4986 31.8625C34.3756 31.7754 33.2887 31.7159 33.025 31.7817ZM37.075 31.7836C37.02 31.7985 36.9525 31.8286 36.925 31.8505C36.8975 31.8724 36.785 31.9152 36.675 31.9459C35.838 32.1787 35.6444 33.5727 36.3694 34.1462C36.4762 34.2307 36.587 34.3 36.6155 34.3C36.6439 34.3 36.7026 34.3305 36.7461 34.3677C36.8277 34.4377 37.4202 34.55 37.7086 34.55C37.8816 34.55 38.4 34.7417 38.4 34.8057C38.4 35.1295 37.6064 35.1207 36.775 34.7879C36.3001 34.5979 36.0801 34.7006 35.9299 35.1829C35.9114 35.2422 35.8632 35.3034 35.8231 35.3187C35.6419 35.3884 35.8564 35.85 36.0699 35.85C36.1107 35.85 36.2187 35.8937 36.3096 35.9471C36.4142 36.0085 36.6221 36.0569 36.875 36.0787C37.095 36.0977 37.302 36.1346 37.335 36.1606C37.4769 36.2727 38.8371 36.0937 39.1285 35.9245C39.6041 35.6484 39.8139 35.0182 39.6574 34.3364C39.5594 33.9096 39.1346 33.5984 38.5137 33.4984C38.3275 33.4684 38.1075 33.4241 38.025 33.4C37.9425 33.3757 37.785 33.3415 37.675 33.3236C37.2591 33.2564 37.2264 33.2236 37.4 33.05C37.5244 32.9256 37.9032 32.9154 38.3016 33.0256C38.9159 33.1956 39.127 33.1841 39.1787 32.9779C39.1954 32.9115 39.2385 32.8459 39.2745 32.8321C39.3105 32.8182 39.3665 32.7266 39.3989 32.6285C39.4312 32.5304 39.4761 32.45 39.4985 32.45C39.6105 32.45 39.582 32.283 39.4432 32.125C39.3334 31.9999 39.248 31.95 39.1432 31.95C39.0626 31.95 38.9131 31.9126 38.8109 31.867C38.6234 31.7834 37.3084 31.7201 37.075 31.7836ZM27.2346 31.9014L27.0945 32.0116L27.1097 33.4482C27.1201 34.4256 27.1431 34.9072 27.1819 34.9549C27.2131 34.9935 27.2536 35.1152 27.2717 35.2256C27.3056 35.4315 27.5345 35.7174 27.8316 35.925C28.0741 36.0945 29.4689 36.2777 29.6154 36.1594C29.6481 36.1329 29.8154 36.0952 29.9869 36.0757C30.1721 36.0547 30.348 36.0016 30.4197 35.9451C30.4864 35.8929 30.5597 35.85 30.5829 35.85C30.664 35.85 30.8937 35.5117 31.028 35.1949C31.2204 34.7405 31.2861 32.1649 31.1109 31.95C30.9434 31.7447 30.1529 31.7306 29.9456 31.9292L29.8 32.0687L29.795 33.3219C29.7886 34.9435 29.7634 34.9997 29.075 34.9336C28.4851 34.8769 28.5015 34.9231 28.5006 33.318C28.4999 31.7601 28.5316 31.833 27.8419 31.8081C27.4215 31.7929 27.3606 31.8022 27.2346 31.9014ZM9.29999 32.0036C9.39624 32.0367 9.52374 32.1079 9.58324 32.1616C9.69937 32.2665 9.85399 32.2504 10.0057 32.1175C10.1606 31.9819 11.1902 31.87 11.5817 31.9462C12.481 32.1215 12.5912 32.3935 12.6031 34.4651L12.6115 35.9236L12.4932 35.9569C12.3399 35.9999 11.7314 36.0089 11.6291 35.9696C11.5599 35.9431 11.55 35.7815 11.55 34.6717V33.4041L11.4125 33.1752C11.2525 32.9087 11.1802 32.8825 10.678 32.9079C9.99649 32.9422 9.95062 33.0572 9.95024 34.7312L9.94999 35.9375L9.79374 35.9687C9.56974 36.0135 9.03674 36.0059 8.95924 35.9567C8.90749 35.924 8.89437 35.6485 8.89774 34.67L8.90212 33.425L8.73799 33.175L8.57399 32.925L8.18024 32.9102C7.36137 32.8796 7.29999 33.0027 7.29999 34.6746V35.9427L7.03749 35.9751C6.89312 35.9929 6.66249 36.0001 6.52499 35.9912L6.27499 35.975L6.26187 34.0136L6.24887 32.0522L6.37537 32.0205C6.55937 31.9742 7.03312 32.0444 7.10262 32.1281C7.17724 32.2181 7.27112 32.22 7.34324 32.1331C7.37374 32.0964 7.56212 32.0377 7.76187 32.0027C7.96162 31.9679 8.14749 31.9306 8.17499 31.9201C8.27549 31.8816 9.12999 31.945 9.29999 32.0036ZM16.0841 32.007C16.7146 32.1642 16.8107 32.3897 16.8487 33.8C16.8807 34.9909 16.8826 34.9994 17.1272 35.116L17.3 35.1984V35.5711V35.9439L17.0747 35.9776C16.7001 36.0339 16.3207 35.964 16.2275 35.8219C16.1219 35.6606 15.951 35.6655 15.6865 35.8375C15.4775 35.9734 15.4654 35.975 14.65 35.975H13.825L13.5982 35.8161C13.2424 35.567 13.1307 35.2942 13.1617 34.7499C13.2042 34.0046 13.5306 33.6604 14.3 33.5491C14.4787 33.5232 14.7036 33.4791 14.7996 33.451C14.8957 33.423 15.1334 33.4 15.3276 33.4C15.749 33.4 15.881 33.3302 15.8316 33.1337C15.7409 32.7719 14.7919 32.6962 14.1294 32.998C13.8467 33.1267 13.8814 33.1372 13.7287 32.877C13.6569 32.7542 13.5665 32.6361 13.528 32.6145C13.3911 32.5374 13.3781 32.3135 13.5082 32.2745C13.5725 32.2554 13.715 32.1966 13.825 32.1441C14.2792 31.927 15.4732 31.8545 16.0841 32.007ZM20.7169 31.975C20.9325 32.0162 21.1147 32.05 21.122 32.05C21.1679 32.05 21.4709 32.384 21.5864 32.5621C22.0376 33.2574 22.0489 34.6729 21.6084 35.3212C21.4267 35.5884 21.2376 35.8 21.1802 35.8C21.1542 35.8 21.0894 35.8394 21.0362 35.8875C20.8686 36.0394 19.5984 36.0451 19.2507 35.8955C18.883 35.7374 18.8422 35.7977 18.8537 36.4824C18.8585 36.7614 18.847 37.0145 18.8282 37.0449C18.7939 37.1004 18.0226 37.1247 17.8916 37.0745C17.8371 37.0536 17.8269 36.594 17.8352 34.562L17.8456 32.075L17.9852 32.0434C18.332 31.965 18.5879 31.9949 18.6834 32.1247C18.7727 32.2465 18.7787 32.2475 18.925 32.1662C19.329 31.942 20.1091 31.8587 20.7169 31.975ZM24.7982 31.9771C25.0585 32.0194 25.3077 32.0867 25.3521 32.127C25.4602 32.2247 25.546 32.2186 25.725 32.1C25.879 31.998 26.2657 31.9639 26.388 32.0415C26.4375 32.073 26.4481 32.614 26.438 34.5782L26.425 37.075H25.925H25.425L25.4 36.4897C25.3721 35.8372 25.3229 35.7186 25.146 35.8786C24.963 36.0444 23.4424 36.0227 23.2 35.851C22.5834 35.4141 22.4504 35.081 22.4509 33.975C22.4514 32.7334 22.7615 32.1435 23.489 32.0001C23.6462 31.969 23.7975 31.9356 23.825 31.9257C23.9424 31.8837 24.3579 31.9057 24.7982 31.9771ZM34.2689 31.9754C34.6796 32.054 34.9445 32.2177 35.0891 32.4826C35.1244 32.5471 35.1741 32.6 35.1996 32.6C35.2695 32.6 35.3342 32.909 35.4017 33.5642C35.4887 34.41 35.594 34.35 34.0226 34.35C32.6572 34.35 32.7 34.3412 32.7 34.6207C32.7 35.1647 34.1837 35.4399 34.6832 34.9884C34.9306 34.7649 35.514 35.322 35.3082 35.5852C35.0202 35.9536 33.1635 36.196 32.7 35.9256C32.6312 35.8855 32.5075 35.8187 32.425 35.7771C31.4011 35.2617 31.3346 32.9465 32.3229 32.2229C32.6902 31.954 33.5712 31.8419 34.2689 31.9754ZM38.5129 31.9749C39.2094 32.0766 39.2266 32.082 39.3177 32.221C39.3995 32.3457 39.3182 32.7 39.2077 32.7C39.1852 32.7 39.1379 32.7541 39.1025 32.8202C39.0219 32.9709 38.835 33.0095 38.6206 32.92C38.1436 32.7206 37.2386 32.7919 37.1457 33.0361C37.0451 33.3007 37.4096 33.5099 38.0762 33.5702C38.2956 33.5901 38.5682 33.6476 38.6822 33.6981C38.7962 33.7485 38.9579 33.8047 39.0412 33.8231C39.6527 33.9574 39.7085 35.4536 39.1131 35.7515C39.0371 35.7896 38.9332 35.8554 38.8822 35.8979C38.7544 36.0044 36.7114 36.0131 36.5844 35.9077C36.5396 35.8706 36.4076 35.8121 36.2907 35.7776C36.1735 35.743 36.0351 35.6572 35.9821 35.5862L35.886 35.4575L36.0846 35.1662C36.3135 34.8306 36.4034 34.7997 36.7087 34.9517C37.1597 35.1762 37.9307 35.2712 38.2889 35.1464C38.7252 34.9942 38.4757 34.45 37.9697 34.45C37.6929 34.45 36.7184 34.1887 36.5109 34.059C35.7912 33.6086 36.0025 32.1706 36.8096 32.026C36.9006 32.0096 37.0762 31.9771 37.2 31.9536C37.5514 31.887 37.9564 31.8935 38.5129 31.9749ZM28.24 32.06C28.2832 32.1032 28.3006 32.4619 28.3021 33.3475C28.3049 34.9629 28.3817 35.1236 29.1511 35.1236C29.9195 35.1236 29.9674 35.0222 30 33.325L30.025 32.025L30.437 32.0105C31.0929 31.9874 31.0567 31.9179 31.037 33.1652C31.0071 35.0641 30.8801 35.5277 30.3085 35.8267L30.0251 35.975H29.1H28.175L27.95 35.8177C27.5581 35.5437 27.3854 35.3105 27.3446 35C27.2777 34.492 27.2925 32.0614 27.3625 32.0331C27.4944 31.9799 28.181 32.001 28.24 32.06ZM24.1106 32.8534C23.2577 33.0207 23.1834 34.7812 24.0157 35.0966C24.6596 35.3406 25.2976 34.9647 25.367 34.3006C25.4865 33.1581 25.06 32.6669 24.1106 32.8534ZM33.075 32.8702C32.849 32.9704 32.6911 33.2162 32.7096 33.4394L32.725 33.625L33.4559 33.6387C34.3427 33.6555 34.45 33.6257 34.45 33.3632C34.45 32.9009 33.6521 32.6149 33.075 32.8702ZM19.4594 32.9002C19.3957 32.9271 19.3119 32.981 19.2727 33.0201C19.2337 33.0591 19.1845 33.0987 19.1634 33.108C18.8677 33.2386 18.7516 34.4141 19.0039 34.7229C19.3689 35.1695 20.0602 35.3106 20.4685 35.0216C20.9632 34.6714 20.9726 33.3599 20.483 32.9941C20.3075 32.8631 19.6829 32.8057 19.4594 32.9002ZM24.8495 33.0885C25.2156 33.2414 25.2725 33.3589 25.2737 33.9665C25.2747 34.404 25.2597 34.5192 25.1956 34.5665C25.152 34.5986 25.0921 34.6705 25.0625 34.726C24.8985 35.0341 23.8 35.0444 23.8 34.7377C23.8 34.7076 23.7606 34.6394 23.7125 34.5862C23.6412 34.5075 23.625 34.3952 23.625 33.9822C23.625 33.3249 23.7279 33.1605 24.25 32.9835C24.3509 32.9494 24.6356 32.9992 24.8495 33.0885ZM34.123 33.087C34.4222 33.4097 34.2971 33.5 33.55 33.5C32.917 33.5 32.8517 33.4837 32.8864 33.3342C32.9751 32.9526 33.8384 32.78 34.123 33.087ZM20.3016 33.1055C20.5662 33.2192 20.568 33.2224 20.6496 33.6875C20.7 33.9746 20.6697 34.3686 20.5716 34.7044C20.4656 35.0669 19.2956 35.0424 19.1717 34.675C18.9184 33.924 19.0304 33.3175 19.4609 33.1087C19.737 32.9749 19.9957 32.9739 20.3016 33.1055ZM14.675 34.1746C14.6475 34.1837 14.5682 34.2036 14.499 34.2187C14.0736 34.3114 13.9934 34.9624 14.3871 35.1269C14.7795 35.2907 15.3914 35.1919 15.6526 34.9222C15.8326 34.7366 15.9124 34.3604 15.8004 34.2254C15.743 34.1564 14.8504 34.116 14.675 34.1746ZM15.7 34.4297C15.7 34.9027 14.8279 35.258 14.4317 34.9464C14.0157 34.6191 14.3964 34.3049 15.2125 34.3019L15.7 34.3V34.4297Z" fill="#BAAAB7"/>
<path fill-rule="evenodd" clip-rule="evenodd" d="M24.35 12.8478C23.869 12.8923 23.0691 13.0959 22.8942 13.2184C22.8301 13.2633 22.745 13.3 22.705 13.3C22.4609 13.3 21.4029 14.2411 21.2904 14.5585C21.2644 14.6319 21.2109 14.7044 21.1715 14.7194C21.1321 14.7345 21.0997 14.787 21.0995 14.8359C21.0992 14.8849 21.043 15.0454 20.9745 15.1925C20.906 15.3396 20.85 15.511 20.85 15.5735C20.85 15.6359 20.801 15.8305 20.741 16.006C20.5934 16.4383 20.5759 18.4698 20.7165 18.8579C20.7629 18.986 20.8227 19.2066 20.8496 19.3481C20.8934 19.5788 21.0147 19.8641 21.2976 20.4016C21.4127 20.6204 22.0491 21.2846 22.2485 21.3941C22.7964 21.6949 22.9971 21.7914 23.1394 21.8226C23.2282 21.8423 23.3705 21.8929 23.4554 21.9351C23.5402 21.9775 23.7931 22.032 24.0174 22.0563C24.2416 22.0805 24.533 22.1228 24.665 22.1501C24.9709 22.2138 26.0894 22.2151 26.28 22.1521C26.3597 22.1258 26.641 22.0841 26.905 22.0595C27.169 22.035 27.4551 21.9799 27.5407 21.9371C27.9707 21.7226 28.0509 21.747 28.5351 22.239C29.1035 22.8164 29.3304 22.8958 29.9219 22.7238C30.2234 22.6361 30.6204 22.2799 30.6972 22.028C30.7229 21.9439 30.7762 21.7869 30.8159 21.6793C30.881 21.5019 30.879 21.4644 30.795 21.2793C30.744 21.1669 30.7015 21.0413 30.7007 21C30.7 20.9588 30.5179 20.7485 30.2961 20.5329C29.997 20.2421 29.9021 20.1194 29.9286 20.0579C29.9482 20.0123 29.9972 19.8513 30.0375 19.7C30.0776 19.5488 30.1299 19.4011 30.1535 19.372C30.2302 19.2773 30.3536 18.3909 30.3827 17.725C30.4455 16.2894 30.1004 14.9503 29.4882 14.253C29.4535 14.2134 29.4131 14.1506 29.3986 14.1135C29.3616 14.0186 28.6627 13.4703 28.4509 13.3699C27.9539 13.1343 27.8595 13.0956 27.675 13.0531C27.565 13.0278 27.3512 12.971 27.2 12.9271C26.879 12.834 25.0497 12.783 24.35 12.8478ZM26.725 13.0055C26.835 13.0346 27.105 13.0974 27.325 13.1449C27.545 13.1923 27.7812 13.2556 27.85 13.2855C27.9187 13.3155 28.0706 13.3656 28.1875 13.397C28.3044 13.4284 28.4 13.4734 28.4 13.4971C28.4 13.5209 28.4675 13.5638 28.55 13.5925C28.6325 13.6213 28.7 13.6663 28.7 13.6925C28.7 13.7364 28.9 13.88 29.1842 14.0403C29.2479 14.0761 29.3 14.1395 29.3 14.1811C29.3 14.2226 29.3562 14.3304 29.425 14.4205C29.4937 14.5108 29.55 14.6105 29.55 14.6423C29.55 14.674 29.5722 14.7 29.5994 14.7C29.6265 14.7 29.6819 14.7795 29.7225 14.8768C29.7631 14.974 29.8276 15.0848 29.8659 15.123C29.9041 15.1613 29.9501 15.318 29.9681 15.4714C29.9861 15.6248 30.0401 15.8458 30.088 15.9626C30.2186 16.2815 30.2162 18.6075 30.0847 18.9701C30.036 19.105 29.9827 19.3188 29.9665 19.4451C29.9504 19.5716 29.895 19.7451 29.8435 19.8309C29.688 20.0903 29.7201 20.1651 30.1875 20.6303L30.625 21.0658L30.6421 21.4968L30.6591 21.9279L30.3292 22.2578C29.985 22.602 29.8794 22.65 29.4655 22.65C29.1682 22.65 29.1259 22.6223 28.5795 22.0705L28.1072 21.5936L27.8769 21.6718C27.7501 21.7148 27.6142 21.75 27.5747 21.75C27.5354 21.75 27.4067 21.8003 27.289 21.8618C26.9682 22.0294 23.9742 22.0333 23.6972 21.8665C23.6025 21.8095 23.4575 21.7479 23.375 21.7298C23.2925 21.7115 23.1575 21.6664 23.075 21.6294C22.5371 21.3886 22.2085 21.2085 22.1 21.0949C22.0312 21.0229 21.8487 20.8315 21.6945 20.6695C21.5402 20.5075 21.3965 20.3188 21.375 20.25C21.3536 20.1813 21.2941 20.0466 21.243 19.9508C21.1919 19.8549 21.1499 19.7424 21.1497 19.7008C21.1495 19.6591 21.113 19.5575 21.0685 19.475C21.0241 19.3925 20.9585 19.1788 20.9229 19C20.8872 18.8213 20.8209 18.5175 20.7755 18.325C20.659 17.832 20.6959 16.7545 20.8445 16.308C20.9025 16.1338 20.95 15.9081 20.95 15.8066C20.95 15.7053 20.9805 15.5779 21.0179 15.5236C21.0552 15.4694 21.1139 15.335 21.1482 15.225C21.2836 14.7916 21.4719 14.4871 21.8067 14.1596C22.2671 13.7094 22.3337 13.6538 22.477 13.5993C22.5446 13.5735 22.6 13.533 22.6 13.5093C22.6 13.45 22.83 13.35 22.9662 13.35C23.0276 13.35 23.1227 13.3185 23.1777 13.28C23.2326 13.2415 23.412 13.194 23.5764 13.1744C23.7406 13.1548 23.9425 13.1089 24.025 13.0723C24.3052 12.9481 26.3209 12.8983 26.725 13.0055ZM25.1141 16.1628C23.876 16.4608 23.9277 18.5933 25.1762 18.727C25.7734 18.7909 26.5 18.6108 26.5 18.3988C26.5 18.3804 26.545 18.3134 26.6 18.25C26.7844 18.0374 26.7482 16.8744 26.5495 16.6243C26.188 16.1695 25.7162 16.0179 25.1141 16.1628ZM26.0547 16.4089C26.7661 16.7776 26.8212 17.9648 26.15 18.4593C25.6877 18.7998 24.9015 18.6713 24.5765 18.2021C24.3662 17.8988 24.3976 16.9011 24.625 16.6546C24.9614 16.2901 25.6104 16.1785 26.0547 16.4089ZM9.79512 18.9716C9.78324 18.9835 9.57137 19.0191 9.32424 19.0508C9.07712 19.0825 8.78987 19.1515 8.68599 19.2041C8.58199 19.2569 8.44299 19.3 8.37699 19.3C8.31112 19.3 8.22262 19.3346 8.18037 19.3769C8.13812 19.4191 8.02962 19.4856 7.93924 19.5248C7.65099 19.6496 7.20149 20.0275 7.01024 20.3055C6.90837 20.4538 6.78562 20.6044 6.73749 20.6404C6.68937 20.6763 6.64999 20.731 6.64999 20.762C6.64999 20.793 6.60699 20.9099 6.55437 21.0218C6.50174 21.1335 6.39487 21.4275 6.31687 21.675L6.17499 22.125L6.15987 25.4525C6.14362 29.0534 6.13674 28.9585 6.43037 29.1826L6.61699 29.325L8.29599 29.3404C9.21949 29.3489 10.0662 29.3425 10.1776 29.3263C10.542 29.2734 10.6227 28.933 10.3321 28.675C10.036 28.4121 10.05 28.5548 10.05 25.7963V23.2649L10.1907 23.1175C10.637 22.6505 11.3632 22.6648 11.825 23.1495L11.975 23.307V26.041V28.775L12.0902 28.9604C12.3295 29.3451 12.3966 29.3565 14.342 29.3398L16.0589 29.325L16.1545 29.207C16.2915 29.0376 16.2741 28.9451 16.0639 28.7223C15.6979 28.3344 15.7001 28.3521 15.7 25.7936C15.7 23.3114 15.7007 23.3038 15.9834 23.0458C16.4872 22.5858 17.3034 22.719 17.6054 23.3105C17.6946 23.4856 17.7 23.6439 17.7 26.1255C17.7 28.9986 17.6884 28.8798 17.9987 29.175L18.1565 29.325L19.9652 29.3399C21.9669 29.3564 21.9579 29.3571 22.0432 29.1699C22.1066 29.0306 22.0401 28.7 21.9486 28.7C21.9247 28.7 21.8421 28.6174 21.765 28.5165L21.625 28.333L21.5965 25.354C21.5721 22.8093 21.5564 22.3423 21.4885 22.15C21.4447 22.0263 21.3935 21.8238 21.3746 21.7C21.3559 21.5763 21.3122 21.43 21.2777 21.375C21.2434 21.32 21.1864 21.185 21.1511 21.075C21.1157 20.965 21.0626 20.8445 21.0329 20.8071C21.0032 20.7699 20.9555 20.7 20.927 20.6519C20.6264 20.1455 20.029 19.5953 19.6486 19.4746C19.5944 19.4574 19.55 19.4233 19.55 19.3989C19.55 19.3745 19.4656 19.3389 19.3625 19.3196C19.2594 19.3004 19.0962 19.244 19 19.1944C18.4064 18.8876 16.0446 18.9029 15.5972 19.2163C15.5315 19.2624 15.4209 19.3019 15.3514 19.3041C15.2819 19.3063 15.09 19.3834 14.925 19.4753C14.76 19.5671 14.5322 19.6865 14.419 19.7405C14.3056 19.7945 14.1982 19.8624 14.1802 19.8915C14.0997 20.0218 13.7046 20.0168 13.5111 19.8831C13.4087 19.8124 13.1731 19.6858 12.9875 19.6018C12.8019 19.5178 12.65 19.4286 12.65 19.4036C12.65 19.3788 12.5334 19.3333 12.3909 19.3028C12.2484 19.2721 12.1027 19.223 12.0672 19.1936C11.8844 19.0418 9.91712 18.8495 9.79512 18.9716ZM11.6587 19.2361C11.6952 19.2661 11.8712 19.3188 12.05 19.3531C12.2287 19.3876 12.4286 19.4573 12.4942 19.5079C12.5599 19.5585 12.6399 19.6 12.672 19.6C12.7042 19.6 12.8069 19.6563 12.9 19.725C12.9931 19.7938 13.11 19.85 13.1597 19.85C13.2094 19.85 13.25 19.8736 13.25 19.9025C13.25 19.9315 13.3344 19.9883 13.4375 20.0289C13.5406 20.0694 13.6641 20.1245 13.7119 20.1513C13.8347 20.2203 13.928 20.2118 14 20.125C14.0342 20.0838 14.1122 20.05 14.1734 20.05C14.2345 20.05 14.3252 20.005 14.375 19.95C14.4247 19.895 14.507 19.85 14.5577 19.85C14.6085 19.85 14.6916 19.8084 14.7425 19.7575C14.7934 19.7066 14.9065 19.6401 14.994 19.6096C15.0814 19.5791 15.1864 19.5209 15.2271 19.48C15.2679 19.4393 15.4077 19.3904 15.5381 19.3714C15.6684 19.3525 15.865 19.3005 15.975 19.256C16.2766 19.1339 18.456 19.1409 18.675 19.2646C18.7575 19.3113 18.8854 19.3495 18.9592 19.3498C19.1267 19.3501 19.3341 19.427 19.4324 19.5253C19.4735 19.5664 19.5416 19.6 19.5839 19.6C19.626 19.6 19.7241 19.6506 19.8019 19.7125C19.8795 19.7744 20.0239 19.8813 20.1225 19.95C20.3776 20.1278 20.6 20.3411 20.6 20.4083C20.6 20.4398 20.6562 20.5393 20.725 20.6295C20.7937 20.7196 20.85 20.8251 20.85 20.8639C20.85 20.9028 20.8927 20.9733 20.945 21.0205C20.9974 21.0679 21.0551 21.1869 21.0736 21.2851C21.092 21.3833 21.1484 21.5225 21.1989 21.5944C21.268 21.6929 21.2984 21.8603 21.3224 22.275C21.34 22.5775 21.3754 22.915 21.401 23.025C21.4266 23.135 21.4481 24.3635 21.4487 25.755C21.4501 28.5049 21.4516 28.5209 21.7297 28.7084C21.902 28.8246 22.002 29.027 21.9189 29.0911C21.8947 29.1098 21.0264 29.1184 19.9892 29.1103L18.1036 29.0955L17.9892 28.9353L17.875 28.775L17.85 26.025L17.825 23.275L17.675 23.0875C17.5925 22.9844 17.5124 22.9 17.4969 22.9C17.4815 22.9 17.4197 22.8543 17.3597 22.7984C16.9912 22.455 15.7 22.707 15.7 23.1223C15.7 23.1583 15.6662 23.2158 15.625 23.25C15.5601 23.3038 15.55 23.6499 15.55 25.8016V28.291L15.6839 28.4955C15.7575 28.608 15.8439 28.7 15.8759 28.7C15.9077 28.7 15.965 28.7619 16.0029 28.8375C16.0407 28.9131 16.0791 28.9891 16.088 29.0064C16.1315 29.0905 15.7912 29.1075 14.1859 29.1019C12.2112 29.0948 12.3645 29.1153 12.2 28.8366L12.075 28.625L12.0932 26.2618C12.1179 23.0823 12.1105 23.027 11.625 22.7689C11.2829 22.587 10.5915 22.5656 10.4254 22.7318C10.3879 22.7693 10.3386 22.8 10.3159 22.8C10.2146 22.8 9.98212 23.1233 9.94487 23.3158C9.89337 23.5819 9.89437 27.9335 9.94599 28.2975C9.97924 28.5318 10.0139 28.5959 10.1924 28.7543C10.5921 29.109 10.637 29.1 8.47274 29.1H6.54549L6.42274 28.9773L6.29999 28.8545V25.6033C6.29999 22.8948 6.31199 22.3205 6.37199 22.1635C6.41149 22.0599 6.46937 21.846 6.50037 21.6884C6.53137 21.5308 6.57624 21.3898 6.59999 21.375C6.62374 21.3603 6.66887 21.2249 6.70024 21.074C6.73749 20.8946 6.79049 20.7819 6.85362 20.7481C6.90662 20.7198 6.94999 20.6629 6.94999 20.6216C6.94999 20.5805 6.98362 20.534 7.02474 20.5181C7.06587 20.5024 7.14587 20.4075 7.20249 20.3073C7.26924 20.1894 7.45024 20.0298 7.71524 19.8551C7.94062 19.7066 8.18337 19.5455 8.25474 19.4969C8.32612 19.4483 8.49487 19.3923 8.62974 19.3724C8.76462 19.3526 8.93124 19.3131 8.99999 19.2846C9.31937 19.1525 11.5087 19.1125 11.6587 19.2361ZM23.1834 28.5834C23.1384 28.6284 23.1474 28.951 23.1971 29.075C23.233 29.1645 23.2469 29.1553 23.3279 28.9875C23.443 28.7494 23.5844 28.813 23.7137 29.161C23.8096 29.4189 24.246 29.3143 24.3426 29.0104C24.4349 28.72 24.3629 28.6299 24.0655 28.6634C23.93 28.6788 23.8196 28.663 23.7635 28.6204C23.6725 28.5513 23.2427 28.5239 23.1834 28.5834Z" fill="#B4DC84"/>
</svg>
