<svg width="36" height="36" viewBox="0 0 36 36" fill="none" xmlns="http://www.w3.org/2000/svg">
<path d="M12.3345 29.85L5.625 34.875V28.125H3.375C2.77826 28.125 2.20597 27.8879 1.78401 27.466C1.36205 27.044 1.125 26.4717 1.125 25.875V3.375C1.125 2.77826 1.36205 2.20597 1.78401 1.78401C2.20597 1.36205 2.77826 1.125 3.375 1.125H32.625C33.2217 1.125 33.794 1.36205 34.216 1.78401C34.6379 2.20597 34.875 2.77826 34.875 3.375V14.625" stroke="#7EAAFF" stroke-width="2" stroke-linecap="round" stroke-linejoin="round"/>
<path d="M25.8706 34.875C30.8412 34.875 34.8706 30.8456 34.8706 25.875C34.8706 20.9044 30.8412 16.875 25.8706 16.875C20.9 16.875 16.8706 20.9044 16.8706 25.875C16.8706 30.8456 20.9 34.875 25.8706 34.875Z" stroke="#0258FF" stroke-width="2" stroke-linecap="round" stroke-linejoin="round"/>
<path d="M25.8706 30.375V21.375" stroke="#0258FF" stroke-width="2" stroke-linecap="round" stroke-linejoin="round"/>
<path d="M25.8706 21.375L22.4956 24.75" stroke="#0258FF" stroke-width="2" stroke-linecap="round" stroke-linejoin="round"/>
<path d="M25.8706 21.375L29.2456 24.75" stroke="#0258FF" stroke-width="2" stroke-linecap="round" stroke-linejoin="round"/>
</svg>
