<svg width="24" height="24" viewBox="0 0 24 24" fill="none" xmlns="http://www.w3.org/2000/svg">
<g clip-path="url(#clip0)">
<path d="M20.1761 15.406C20.176 17.0439 19.5558 18.6209 18.4401 19.82C19.7781 18.35 19.2431 15.951 17.4371 15.185C16.5751 14.88 14.9491 14.335 14.0701 14.027C13.6738 13.8708 13.3443 13.5816 13.1381 13.209C12.7571 12.234 11.9751 10.241 11.5901 9.26101C11.4951 8.97601 11.2801 8.63601 11.3251 8.32301C11.3711 7.72501 12.0491 7.32001 12.6011 7.56901L16.2831 9.45701C16.9041 9.74901 17.5881 10.149 18.0791 10.629C18.7403 11.2367 19.2681 11.9751 19.629 12.7974C19.99 13.6197 20.1763 14.508 20.1761 15.406ZM18.7361 17.294C18.4721 16.1 17.6011 15.55 16.5201 15.266C14.9931 16.168 11.6671 18.144 9.56806 19.396C8.46506 20.076 7.43806 20.746 6.64906 20.638C5.99049 20.6278 5.35554 20.391 4.85105 19.9676C4.34655 19.5441 4.00331 18.9598 3.87906 18.313C3.86706 18.265 3.87106 18.283 3.87806 18.323C3.99277 19.2667 4.31627 20.173 4.82506 20.976C5.4108 21.9012 6.22083 22.6633 7.17993 23.1916C8.13902 23.7199 9.21607 23.9973 10.3111 23.998C12.2191 24.06 13.8471 22.845 15.4101 21.902C15.7021 21.714 16.2141 21.406 16.7421 21.071L18.1651 19.561C18.7181 18.984 18.9291 18.135 18.7361 17.294ZM6.69606 20.264C7.11806 20.264 7.51806 20.164 7.86906 19.974C8.22406 19.759 8.83306 19.395 9.56906 18.956L9.57006 4.50201C9.57006 3.51201 9.07306 2.63801 8.31306 2.12001C8.23306 2.06101 5.40306 0.219007 5.32306 0.164007C4.71806 -0.267993 3.80006 0.209007 3.82306 0.961007V15.848L4.24006 18.208C4.34176 18.7849 4.64375 19.3074 5.09283 19.6835C5.54191 20.0596 6.10929 20.2651 6.69506 20.264H6.69606Z" fill="#258FFA"/>
</g>
<defs>
<clipPath id="clip0">
<rect width="24" height="24" fill="white"/>
</clipPath>
</defs>
</svg>
