<svg width="50" height="50" viewBox="0 0 50 50" fill="none" xmlns="http://www.w3.org/2000/svg">
<g clip-path="url(#clip0_17:38)">
<path fill-rule="evenodd" clip-rule="evenodd" d="M14.6159 12.3169C14.5294 12.4133 10.6094 17.9632 10.3886 18.302C10.2256 18.5519 10.2673 18.6181 10.5592 18.5729C11.1686 18.4785 11.2752 18.5411 11.3736 19.052C11.4063 19.2216 11.5523 19.863 11.6979 20.4775C12.0473 21.9502 12.077 21.8295 11.3158 22.0301C10.8056 22.1646 10.7618 22.1481 10.6378 21.7746C10.5016 21.3642 10.5776 21.2423 10.9706 21.2405C11.2093 21.2393 11.2376 20.8952 11.0399 20.3977C10.962 20.2016 10.872 19.9429 10.8399 19.8227C10.7236 19.3877 10.7543 19.3873 9.34443 19.8447C8.73016 20.044 7.80756 20.3406 7.2943 20.5039C5.96966 20.9251 5.94941 20.9542 6.26691 21.9757C6.47204 22.6355 6.57641 22.6909 7.18576 22.4629C7.50916 22.3419 7.5689 22.3581 7.70716 22.6041C7.93563 23.0107 7.80843 23.1931 7.1469 23.4073C6.26828 23.6917 6.22366 23.7565 6.48828 24.3613C6.56554 24.538 6.65166 24.74 6.67943 24.8101C6.7073 24.8802 6.7759 24.9496 6.83176 24.9642C6.97903 25.0027 6.96943 24.7477 6.81603 24.5451C6.6809 24.3663 6.57654 24.0225 6.62166 23.9047C6.66963 23.7797 6.7573 23.7469 9.36843 22.8747C12.0184 21.9896 11.95 22.0039 12.027 22.3195C12.0493 22.4107 12.086 22.5622 12.1086 22.6562C12.131 22.7502 12.3596 23.6841 12.6163 24.7315C13.1279 26.8182 13.7208 29.3823 13.7208 29.5082C13.7208 29.6092 13.371 29.7862 12.8906 29.9282C12.1494 30.1473 11.0433 30.6869 10.2743 31.2045C10.084 31.3325 9.89056 31.4446 9.84416 31.4535C9.77576 31.4666 9.62403 31.1473 9.04003 29.7607C8.64416 28.8207 8.18476 27.7441 8.01916 27.3681C7.85363 26.9921 7.6393 26.4763 7.54303 26.2219C7.44663 25.9673 7.3129 25.6872 7.24576 25.5991C7.17863 25.5111 7.09563 25.358 7.0613 25.2589C6.98316 25.0331 6.88476 24.99 6.88476 25.1815C6.88476 25.2589 6.90456 25.3431 6.92876 25.3686C6.9529 25.3941 7.26263 26.1181 7.61703 26.9775C7.97143 27.8369 8.40403 28.8696 8.57856 29.2725C8.98016 30.2 9.45856 31.3839 9.49603 31.543C9.52056 31.6469 9.49376 31.6845 9.31563 31.7961C9.20056 31.8681 9.0419 31.9945 8.96303 32.0769L8.81963 32.2266H25.8016H42.7834L42.5446 31.9929C42.4134 31.8642 42.2189 31.694 42.1124 31.6143C42.006 31.5349 41.8025 31.3761 41.6603 31.2619C41.518 31.1475 41.2902 30.9975 41.1539 30.9283C40.8633 30.7811 40.8832 30.7285 41.2735 30.6131C41.4596 30.5581 41.545 30.5031 41.5904 30.4091C41.7702 30.0361 41.9603 29.9845 42.6318 30.1262C43.5583 30.3217 43.4652 30.4435 43.654 28.7889C43.7339 28.088 43.8415 27.229 43.893 26.8799C44.0059 26.1151 44.0963 26.211 43.0386 25.9727C42.5572 25.8642 40.8038 25.4567 39.1426 25.0672C37.4812 24.6777 36.0908 24.3709 36.0529 24.3855C36.015 24.4 35.4518 24.7602 34.8012 25.1861C33.7279 25.8885 33.5929 25.9632 33.3463 25.9922C33.0324 26.0291 32.4242 26.2377 32.3636 26.3293C32.3409 26.3636 32.3338 26.4905 32.3476 26.6113C32.379 26.8851 32.3048 27.0243 32.0518 27.1662C31.8409 27.2845 31.8085 27.3873 31.958 27.4643C32.0118 27.492 32.0556 27.5476 32.0556 27.5879C32.0556 27.6426 32.1138 27.6611 32.2855 27.6611C32.5074 27.6611 32.5143 27.6653 32.4809 27.7832C32.3716 28.1689 32.5168 28.6069 32.8168 28.7967C33.0386 28.9372 32.9612 28.9671 31.7139 29.2213C31.0963 29.3472 30.5216 29.4816 30.437 29.52C30.3524 29.5583 30.2256 29.5899 30.1553 29.5899C30.085 29.5899 29.7896 29.6667 29.4989 29.7607C29.2082 29.8547 28.9002 29.9316 28.8146 29.9316C28.7288 29.9316 28.6023 29.9686 28.5333 30.0139C28.362 30.126 27.7052 30.2763 27.1729 30.3252C26.9312 30.3473 26.5726 30.3809 26.376 30.3995C25.3916 30.4931 23.6136 30.2933 22.1924 29.9296C20.8102 29.5759 20.1692 29.3376 20.2704 29.2155C20.3226 29.1527 20.3016 25.215 20.2343 22.3989C20.2136 21.5305 20.2453 21.4613 20.6436 21.5089C20.7704 21.524 21.5992 21.6013 22.4854 21.6809C25.2519 21.929 26.7073 22.1025 26.8113 22.1965C27.0279 22.3925 26.9774 22.7446 26.7068 22.926C26.5174 23.0529 26.5243 23.0803 26.7643 23.1522C26.9574 23.2101 26.9709 23.207 27.0796 23.0807C27.3889 22.721 27.1486 21.9892 26.693 21.9039C25.9554 21.7657 25.9176 21.7436 25.568 21.247C24.2276 19.3423 22.2719 19.0636 20.7366 20.5585C20.1613 21.1187 20.1876 21.1491 20.1494 19.883C20.0726 17.3363 20.0456 17.4669 20.6626 17.4077C21.142 17.3619 21.2892 17.3332 21.2892 17.286C21.2892 17.262 20.3278 16.4892 19.1529 15.5687C17.9779 14.6482 16.5373 13.5152 15.9514 13.0511C14.842 12.172 14.7776 12.1365 14.6159 12.3169ZM17.7796 14.7216C20.8023 17.0971 20.7673 17.0683 20.7388 17.1539C20.7182 17.2159 11.2128 18.3649 10.8808 18.3453L10.7019 18.335L10.7672 18.1459C10.803 18.0419 10.8992 17.8771 10.9806 17.7796C11.0622 17.6822 11.212 17.4746 11.3139 17.3182C11.4158 17.162 11.5896 16.9185 11.7006 16.7771C11.8113 16.6359 11.9298 16.4671 11.9636 16.4022C11.9976 16.3372 12.1719 16.0863 12.3508 15.8447C12.5298 15.603 13.0356 14.8889 13.4749 14.2579C14.6866 12.5171 14.6918 12.51 14.7578 12.487C14.8759 12.4456 15.0013 12.5383 17.7796 14.7216ZM13.7826 14.1967C10.9508 18.0472 11.0374 17.9042 11.5479 17.8837C11.709 17.8772 12.1046 17.8397 12.4268 17.8006C12.749 17.7613 13.2106 17.7061 13.4522 17.6779C14.136 17.5979 14.2543 17.5521 13.8976 17.5052C13.6958 17.4789 13.363 17.4987 12.7746 17.5725C11.7262 17.7039 11.6212 17.7049 11.6212 17.5835C11.6212 17.5326 11.6926 17.3905 11.7798 17.2673C13.8418 14.3601 14.7242 13.1836 14.8426 13.1836C14.929 13.1836 19.2463 16.65 19.2779 16.7446C19.2968 16.8015 18.9773 16.8939 18.7602 16.8942C18.1436 16.8952 14.2579 17.4037 14.2579 17.4833C14.2579 17.5763 19.2336 17.0766 19.79 16.9277C19.8114 16.922 19.5808 16.7171 19.2773 16.4725C18.9739 16.2279 17.8636 15.3329 16.81 14.4836C15.7564 13.6342 14.8523 12.9395 14.8009 12.9395C14.735 12.9395 14.4334 13.3119 13.7826 14.1967ZM19.9702 18.3716C19.9698 18.8349 19.9919 19.8401 20.0194 20.6055C20.1196 23.409 20.1718 29.2143 20.0974 29.2889C20.0402 29.346 19.9613 29.3407 19.5732 29.2539C18.0036 28.9025 16.4373 28.935 14.7314 29.3543C14.1946 29.4863 14.097 29.4983 14.0406 29.4391C14.0044 29.4011 13.719 28.2715 13.4063 26.9287C12.5706 23.3407 12.1526 21.6773 12.095 21.713C12.067 21.7302 12.0604 21.7195 12.0799 21.688C12.1133 21.634 11.9168 20.6499 11.6168 19.3691C11.4319 18.5792 11.4856 18.4023 11.887 18.4777C11.9808 18.4953 12.114 18.4785 12.2148 18.4365C12.3082 18.3975 12.5698 18.3422 12.7963 18.3139C13.0228 18.2853 13.5486 18.2189 13.9649 18.1661C14.3812 18.1132 14.8316 18.0589 14.9659 18.0452C15.1002 18.0315 15.6714 17.9641 16.2354 17.8953C18.566 17.6113 19.2326 17.5396 19.5923 17.5346L19.9708 17.5292L19.9702 18.3716ZM23.6573 19.9437C24.2604 20.1702 24.7448 20.5465 25.2522 21.1823C25.6966 21.7393 25.6682 21.7676 24.7723 21.6613C24.4276 21.6205 23.8049 21.5622 23.3886 21.5321C20.4693 21.3203 20.2942 21.2553 20.9569 20.6301C21.7853 19.8486 22.7508 19.6032 23.6573 19.9437ZM10.5279 20.3165C10.7038 20.8029 10.7376 20.7812 8.74856 21.4542C6.68303 22.1531 6.74116 22.1487 6.63378 21.6141C6.56966 21.2943 6.60778 21.2157 6.85156 21.1659C6.93703 21.1485 7.1783 21.0811 7.38776 21.0162C7.7899 20.8919 7.84763 20.8796 7.79816 20.929C7.78143 20.9459 7.79963 21.0217 7.8389 21.0975C7.87816 21.1733 7.91016 21.2796 7.91016 21.3339C7.91016 21.4315 7.91143 21.4315 8.0859 21.3286C8.2113 21.2546 8.36856 21.2193 8.63516 21.2055C9.18343 21.1771 9.22543 21.162 9.3079 20.9646C9.40516 20.7319 9.3789 20.7203 9.03956 20.8472C8.72856 20.9636 8.65203 20.9512 8.47556 20.7561C8.36103 20.6297 8.25956 20.6797 9.35063 20.3255C10.3796 19.9916 10.4104 19.9913 10.5279 20.3165ZM10.0689 21.6186C10.1586 21.7217 10.3219 22.2326 10.293 22.3193C10.2186 22.5426 8.25203 23.0362 8.25203 22.8316C8.25203 22.7957 8.2079 22.6667 8.15403 22.545C7.99103 22.1763 7.95763 22.2026 9.10656 21.7972C9.93076 21.5062 9.96563 21.4999 10.0689 21.6186ZM22.2339 22.8377C22.0956 22.855 22.0783 22.8759 22.0624 23.0421L22.0448 23.2272L22.8754 23.2883C23.3323 23.322 23.8819 23.3806 24.0966 23.4187C24.3116 23.4567 24.6742 23.5123 24.9024 23.5423C25.4853 23.6189 25.5882 23.7283 25.3854 24.0563C25.3082 24.1813 25.2912 24.2619 25.3172 24.3795C25.3752 24.6419 25.3548 24.8882 25.0679 27.4005C24.7773 29.9451 24.776 29.9805 24.9753 29.9805C25.1363 29.9805 25.1954 29.8301 25.1954 29.4206C25.1954 29.2505 25.2716 28.4663 25.3649 27.6782C25.8296 23.7483 25.8482 23.4481 25.6386 23.2383C25.4798 23.0796 25.0832 23.0376 24.8303 23.1529C24.7233 23.2016 24.6836 23.1943 24.5614 23.104C24.4056 22.9889 24.1733 22.9667 24.0144 23.0517C23.9333 23.0951 23.8864 23.0849 23.7694 22.9985C23.6226 22.89 23.3902 22.8821 23.0396 22.9737C22.9426 22.9991 22.8843 22.9819 22.8076 22.9051C22.7064 22.804 22.6009 22.7916 22.2339 22.8377ZM24.4674 23.9936C24.3688 24.1123 24.4179 25.3427 24.5239 25.4095C24.5859 25.4486 24.6329 25.4487 24.6949 25.4099C24.8126 25.336 24.9922 24.1071 24.901 23.9975C24.8256 23.9066 24.5416 23.9041 24.4674 23.9936ZM38.7873 24.1943C38.7306 24.3416 38.813 24.4031 39.1443 24.4606C39.3275 24.4925 40.4334 24.7046 41.6016 24.932C44.9218 25.5783 45.0313 25.5971 45.075 25.5265C45.1039 25.4796 44.3873 25.3045 42.0755 24.7933C38.881 24.0871 38.8318 24.0781 38.7873 24.1943ZM36.242 25.0067C36.5663 25.0483 36.669 25.0785 36.6504 25.127C36.6368 25.1626 36.6493 25.308 36.6784 25.4499C36.7263 25.6841 36.7183 25.7462 36.5906 26.123L36.4503 26.5381L36.2306 26.5236C36.0412 26.5111 35.1886 26.3246 34.6069 26.1685C34.3749 26.1061 34.378 26.0865 34.6542 25.8789C34.7792 25.7849 34.9179 25.6691 34.9624 25.6215C35.1133 25.4603 35.7175 24.9567 35.7633 24.954C35.7884 24.9523 36.0038 24.9761 36.242 25.0067ZM23.1659 25.9425C23.0966 26.1231 23.17 27.2607 23.2544 27.3139C23.4406 27.431 23.505 27.302 23.5962 26.6305C23.6432 26.2842 23.6713 25.9735 23.6588 25.94C23.6276 25.8563 23.1982 25.8586 23.1659 25.9425ZM40.1215 26.1002C40.2856 26.2077 40.3968 26.4871 40.3578 26.6946C40.2146 27.4576 39.0699 27.2857 39.1732 26.5169C39.2338 26.0641 39.7324 25.8451 40.1215 26.1002ZM34.363 26.3659C34.9739 26.4993 37.2754 26.994 39.4775 27.4651C43.5249 28.331 43.6035 28.3517 43.6035 28.5526C43.6035 28.9152 43.8609 28.9542 38.0593 27.7135C32.6079 26.5477 32.7704 26.5912 32.8386 26.3189C32.9033 26.0607 32.978 26.0631 34.363 26.3659ZM33.515 27.6346C33.8816 27.774 33.8583 28.3533 33.4786 28.5335C33.2383 28.6475 33.1319 28.6335 32.9363 28.4617C32.4942 28.0735 32.9513 27.4202 33.515 27.6346ZM21.9359 27.6931C21.8712 27.7577 21.858 28.6993 21.9179 28.9795C21.9443 29.1026 21.9726 29.126 22.0953 29.126C22.2643 29.126 22.3443 28.817 22.373 28.0517L22.3878 27.6611L22.1922 27.6467C22.0824 27.6386 21.97 27.659 21.9359 27.6931ZM35.6202 28.5895C35.9962 28.6789 37.0943 28.9202 38.0605 29.1261C40.3023 29.6035 40.311 29.6075 40.171 30.0723L40.1123 30.2675L39.4288 30.0021C37.3502 29.1953 36.2835 28.963 34.5215 28.9333C33.9978 28.9246 33.5749 28.9039 33.5816 28.8873C33.5883 28.8709 33.5938 28.8391 33.5938 28.8169C33.5938 28.7421 34.0223 28.4676 34.2119 28.421C34.4702 28.3575 34.8195 28.3993 35.6202 28.5895ZM44.0268 28.4993C44.0088 28.5172 43.9942 28.5821 43.9942 28.6436C43.9942 28.7707 44.0159 28.7765 44.7998 28.8571C45.0684 28.8847 45.3815 28.9193 45.4956 28.9341C45.6526 28.9545 45.7032 28.9446 45.7032 28.8936C45.7032 28.7943 44.1072 28.419 44.0268 28.4993ZM41.3333 29.4556C41.751 29.8149 41.3183 30.4703 40.8049 30.2559C40.6015 30.1709 40.5274 30.0516 40.5274 29.809C40.5274 29.4147 41.0296 29.1945 41.3333 29.4556ZM43.864 29.5687C43.812 29.7042 43.9242 29.7449 44.5386 29.8132C44.8703 29.8501 45.224 29.8921 45.3248 29.9065C45.4672 29.927 45.5079 29.9163 45.5079 29.859C45.5079 29.8183 45.4992 29.7851 45.4886 29.7851C45.4782 29.7851 45.1792 29.7192 44.8243 29.6386C44.09 29.472 43.9063 29.4586 43.864 29.5687Z" fill="#4A7458"/>
<path fill-rule="evenodd" clip-rule="evenodd" d="M14.6273 12.6587C14.5596 12.746 13.9928 13.547 13.3678 14.4387C12.7428 15.3306 12.1168 16.2205 11.9766 16.4163C11.8364 16.6122 11.6406 16.8932 11.5414 17.041C11.4423 17.1887 11.2434 17.4669 11.0995 17.6591C10.8588 17.9809 10.7016 18.2862 10.7513 18.3359C10.767 18.3516 19.3844 17.3571 20.5228 17.2082C20.8589 17.1643 20.958 17.253 17.7736 14.748C14.7482 12.3681 14.817 12.4139 14.6273 12.6587ZM17.2138 14.7742C18.477 15.7927 19.5976 16.6955 19.704 16.7805C19.8959 16.9339 19.8966 16.9353 19.7754 16.9625C19.3676 17.054 15.482 17.4876 14.5264 17.5482C14.3116 17.5619 14.0589 17.5967 13.9649 17.6259C13.8709 17.655 13.4974 17.7113 13.1348 17.7511C12.7723 17.791 12.2229 17.8536 11.9142 17.8903C11.0838 17.9891 11.0362 17.9372 11.4399 17.3757C12.6042 15.7567 12.9718 15.2505 13.7864 14.1439C14.5544 13.1005 14.7323 12.886 14.8159 12.9026C14.8716 12.9136 15.9506 13.7559 17.2138 14.7742ZM14.7376 13.2446C14.6958 13.2782 14.0616 14.1406 13.3283 15.1611C12.595 16.1816 11.934 17.0935 11.8596 17.1875C11.7852 17.2815 11.7015 17.4189 11.6739 17.4926L11.6235 17.627L11.9275 17.626C12.0946 17.6256 12.4622 17.5916 12.7442 17.5507C13.0262 17.5099 13.4726 17.4815 13.7366 17.4877C14.083 17.496 14.2268 17.4819 14.2546 17.4369C14.2809 17.3943 15.0299 17.2897 16.607 17.1082C19.2643 16.8025 19.2383 16.806 19.2383 16.7512C19.2383 16.7166 17.8636 15.5871 15.4162 13.6109C14.8468 13.1511 14.8512 13.1535 14.7376 13.2446ZM15.4588 14.2497C16.1472 14.6969 18.4078 16.5527 18.264 16.5527C18.2339 16.5527 16.9663 16.7065 15.4472 16.8945C12.5738 17.2501 12.4256 17.2645 12.3812 17.1927C12.3518 17.1452 14.3596 14.5011 14.6314 14.2292C14.865 13.9957 15.0756 14.0009 15.4588 14.2497ZM14.8902 14.8273C14.6748 15.022 14.6112 15.1189 14.5468 15.351L14.5046 15.5029L14.6732 15.3076C14.7658 15.2002 14.8853 15.0629 14.9386 15.0025C15.0472 14.8795 15.3204 14.8519 15.4229 14.9536C15.5109 15.041 15.4394 14.8479 15.3416 14.7339C15.2306 14.6047 15.1086 14.63 14.8902 14.8273ZM15.6399 15.1626C15.7819 15.2876 15.8692 15.3162 15.8692 15.2379C15.8692 15.1546 15.717 15.039 15.6093 15.0406C15.508 15.0421 15.5096 15.048 15.6399 15.1626ZM16.1133 15.504C16.1133 15.5886 16.339 15.7085 16.3943 15.6531C16.4318 15.6155 16.2343 15.4297 16.1568 15.4297C16.1329 15.4297 16.1133 15.4631 16.1133 15.504ZM14.3378 15.6006C14.3224 15.6409 14.3283 15.6739 14.351 15.6739C14.3738 15.6739 14.4198 15.6409 14.4532 15.6006C14.5026 15.541 14.5002 15.5273 14.4399 15.5273C14.3993 15.5273 14.3533 15.5602 14.3378 15.6006ZM16.4919 15.8441C16.5216 16 16.5499 15.9919 15.4786 16.1362C14.9818 16.2031 14.4709 16.2722 14.3433 16.2899C14.0919 16.3245 14.0386 16.2429 14.1619 16.0123C14.2346 15.8766 14.1084 15.8871 13.9766 16.0279C13.8632 16.149 13.7516 16.4045 13.7936 16.4466C13.8282 16.4811 16.6018 16.1655 16.6993 16.116C16.8186 16.0555 16.8142 15.8867 16.6912 15.8006C16.5308 15.6882 16.4648 15.7026 16.4919 15.8441ZM17.8712 17.7245C17.0252 17.826 16.2782 17.9182 16.211 17.9295L16.0889 17.95L16.211 18.0035C16.2782 18.033 16.4379 18.0941 16.5662 18.1395C17.9112 18.615 18.3058 20.4196 17.2876 21.4379C16.3126 22.4129 14.6458 22.124 14.0348 20.874C13.6236 20.0326 14.0346 18.6646 14.7999 18.3269C14.92 18.2739 14.9903 18.2103 14.9903 18.1546C14.9903 18.0467 15.0384 18.0462 14.1964 18.162C13.8139 18.2146 13.2923 18.2801 13.0372 18.3077C12.782 18.3352 12.4744 18.388 12.3536 18.4249C12.0028 18.5319 12.3016 18.58 12.8968 18.5122C13.4576 18.4485 13.8184 18.4411 13.8184 18.4936C13.8184 18.5136 13.7306 18.7059 13.6232 18.9209C12.8846 20.3983 13.7528 22.1953 15.3369 22.4682C15.6306 22.5187 15.7716 22.578 15.7716 22.6509C15.7716 22.6681 15.5133 22.722 15.1978 22.7706C14.8823 22.8192 14.3384 22.9251 13.9893 23.0061C12.6359 23.3197 12.7236 23.388 12.3766 21.7503C12.2348 21.0803 12.0288 20.1616 11.9188 19.7087C11.6856 18.7487 11.687 18.7656 11.8249 18.6189L11.9312 18.5059H11.7526C11.6016 18.5059 11.5693 18.5252 11.5426 18.6313C11.5058 18.7781 11.929 20.7571 12.3564 22.4365C12.5136 23.0542 12.9406 24.834 13.305 26.3916C13.6696 27.9492 13.9796 29.2621 13.994 29.3091C14.0436 29.4705 14.1708 29.4897 14.5284 29.3896C16.2029 28.9211 18.7539 28.8886 19.9308 29.321C20.1414 29.3983 20.138 29.5019 20.075 24.9479C20.0089 20.1747 19.9956 19.8272 19.8822 19.9407C19.7948 20.028 19.7259 21.0311 19.7642 21.6589C19.8086 22.3886 19.765 22.4087 18.0196 22.4661C16.4753 22.517 16.3756 22.4872 17.0226 22.1686C18.4363 21.4727 18.7868 19.7149 17.7654 18.4422C17.6346 18.2791 17.5349 18.1222 17.5443 18.0937C17.5716 18.0095 18.4848 17.8735 19.1163 17.8596L19.7022 17.8466L19.7266 18.066C19.7618 18.3821 19.9026 18.4 19.9484 18.0941C20.0463 17.441 20.1213 17.4543 17.8712 17.7245ZM15.3786 18.2762C14.0974 18.6399 13.6776 20.3922 14.6456 21.3351C15.3266 21.9985 16.4728 21.9641 17.1383 21.2606C18.3639 19.9645 17.0832 17.7923 15.3786 18.2762ZM19.8278 18.6345C19.7076 18.7872 19.6993 18.9461 19.801 19.143C19.9236 19.3801 19.9708 19.3117 19.9708 18.8965C19.9708 18.459 19.9686 18.4553 19.8278 18.6345ZM15.9083 18.711C15.9459 18.7486 15.9663 18.9363 15.9653 19.2359C15.9636 19.7401 15.8823 19.7722 15.7704 19.313C15.744 19.2047 15.6896 19.0541 15.6496 18.9783C15.5276 18.7476 15.7328 18.5355 15.9083 18.711ZM15.9456 20.0931C15.8346 20.6847 15.367 21.3415 15.2339 21.0927C15.1716 20.9762 15.1582 21.0017 15.5966 20.3981C15.9872 19.8606 15.9896 19.8585 15.9456 20.0931ZM9.0645 21.8235C8.0599 22.1709 8.02476 22.1985 8.1613 22.5341C8.3085 22.8963 8.3265 22.9235 8.4309 22.9392C8.5485 22.9569 10.1559 22.4279 10.2448 22.3422C10.37 22.2215 10.0669 21.506 9.90316 21.536C9.89463 21.5376 9.5173 21.667 9.0645 21.8235ZM9.21163 22.9496C7.87303 23.4036 6.74689 23.8007 6.70916 23.832C6.4859 24.0173 6.79476 24.6582 7.10749 24.6582C7.30303 24.6582 7.16663 24.3669 8.60276 27.8526C9.8649 30.916 9.8613 30.9082 10.0245 30.9082C10.4355 30.9082 10.4306 30.7235 9.99163 29.6579C7.8299 24.411 7.8669 24.5113 8.05663 24.4086C9.04503 23.8735 8.95963 23.7959 9.80916 26.001C11.3584 30.0219 11.392 30.1007 11.5615 30.1176C11.7758 30.139 11.9234 29.9861 11.8682 29.8C11.8459 29.7247 11.4764 28.7402 11.047 27.6122C9.75489 24.217 9.63916 23.8847 9.7203 23.8049C9.8169 23.7099 10.5408 23.4375 10.6969 23.4375C10.8799 23.4375 10.9618 23.5561 11.0844 23.999C11.3362 24.9082 12.6016 29.2329 12.6454 29.3335C12.7393 29.549 13.1348 29.4119 13.1348 29.1639C13.1348 29.0372 12.9848 28.4773 12.0564 25.1392C11.4665 23.0183 11.4639 22.9492 11.9722 22.9492C12.1813 22.9492 12.1858 22.936 12.0884 22.6166C12.05 22.4907 12.0056 22.3272 11.9899 22.2533C11.9432 22.0356 11.8044 22.0703 9.21163 22.9496ZM20.2636 22.3359C20.2636 22.4046 20.2802 22.4616 20.3003 22.4625C20.4438 22.4685 21.3503 22.6035 21.3683 22.6215C21.3806 22.6339 21.3979 22.905 21.4066 23.2239C21.4229 23.8125 21.4843 24.0882 21.7716 24.8645C21.9649 25.3867 21.9059 25.9117 21.6106 26.2985C21.3568 26.631 21.3723 26.6795 21.7223 26.6477C22.4679 26.5801 22.6403 25.7765 22.1584 24.6156C21.9904 24.2109 21.9473 23.6619 22.04 23.1079L22.0829 22.8516H21.9139C21.7146 22.8516 21.66 22.812 21.7349 22.7217C21.8006 22.6426 22.1354 22.6353 22.2752 22.7101C22.3306 22.7397 22.5433 22.771 22.7479 22.7796C22.9526 22.7881 23.241 22.8186 23.3886 22.8472C23.5364 22.8759 23.7289 22.8861 23.8166 22.8699C23.9064 22.8532 24.0042 22.8641 24.0412 22.8947C24.0772 22.9246 24.2802 22.9583 24.4923 22.9697C24.7044 22.9812 24.9878 23.0129 25.1222 23.0402C25.2564 23.0675 25.5028 23.0912 25.6696 23.0927C26.1034 23.097 26.0999 23.0836 25.9799 24.3057C25.8059 26.0765 25.5363 29.2025 25.5043 29.8217L25.4733 30.4199L25.8836 30.42C26.1093 30.42 26.4729 30.395 26.6916 30.3645L27.089 30.309L27.1172 30.1357C27.1782 29.7599 27.0264 29.6553 26.4038 29.6445C26.146 29.6399 26.0743 29.6227 26.0743 29.5653C26.0743 29.4853 26.1318 29.4743 26.4696 29.4899C27.0946 29.5183 27.1712 29.4265 27.254 28.5482C27.3372 27.6663 27.3172 27.5891 27.0049 27.587C26.8433 27.586 26.0322 27.4156 25.9906 27.374C25.9043 27.2877 26.071 27.2507 26.3444 27.2955C27.2738 27.4476 27.3374 27.3861 27.4413 26.2347C27.5284 25.2675 27.471 25.1675 26.7214 24.9793C26.299 24.8735 26.1173 24.7136 26.3274 24.633C26.4193 24.5977 29.9248 25.3153 29.9928 25.3833C30.035 25.4256 30.0344 25.9316 29.99 27.4369C29.923 29.717 29.911 29.6059 30.2184 29.5612C30.5169 29.518 30.5386 29.5005 30.4162 29.4012C30.3132 29.3179 30.3129 29.3112 30.3723 28.3957C30.4052 27.8887 30.4178 27.2963 30.4004 27.0792C30.3829 26.8622 30.3913 26.3702 30.4189 25.986C30.4912 24.983 30.5406 25.03 29.1504 24.7801C28.5999 24.6811 27.9516 24.5496 27.71 24.4879C27.4683 24.4261 27.1184 24.3601 26.9324 24.3412C26.3886 24.2859 26.3076 24.1741 26.3274 23.507C26.344 22.9492 26.279 22.8027 26.015 22.8027C25.9088 22.8027 20.8076 22.2836 20.4713 22.2386C20.2739 22.2121 20.2636 22.2169 20.2636 22.3359ZM11.7586 22.595C11.7438 22.7239 11.6848 22.7506 10.2539 23.2782C9.4349 23.5803 8.41916 23.956 7.9969 24.1131L7.22916 24.3987L7.1303 24.2933C6.8849 24.0322 6.7849 24.0802 9.42143 23.1921C11.7946 22.3926 11.7815 22.396 11.7586 22.595ZM20.6863 22.892C20.5829 23.0063 20.5843 23.0313 20.712 23.3653C20.8309 23.6759 20.9473 23.645 20.9473 23.3029C20.9473 23.2122 20.9708 23.0942 20.9996 23.0405C21.1064 22.8409 20.8448 22.7169 20.6863 22.892ZM19.1206 23.6966C19.2293 23.8231 19.2383 23.8739 19.2383 24.362C19.2383 24.9525 19.1989 25.0387 18.9582 24.9753C18.884 24.9557 18.4308 24.9257 17.951 24.9085L17.0786 24.8773L16.9386 24.7095C16.8616 24.6172 16.7663 24.4416 16.7269 24.3192C16.474 23.534 16.4892 23.5241 17.9032 23.544L19.0028 23.5596L19.1206 23.6966ZM24.4639 23.6202C24.1156 23.6509 24.1212 23.6339 24.1212 24.6641C24.1212 25.7319 24.1523 25.8212 24.505 25.7629C24.6028 25.7467 24.732 25.7332 24.7926 25.733C24.9959 25.732 25.0823 25.5815 25.1183 25.165C25.1366 24.9533 25.1864 24.6797 25.2289 24.557C25.288 24.3857 25.2979 24.2462 25.2709 23.9589L25.2358 23.584L24.9593 23.5925C24.8072 23.5972 24.5842 23.6097 24.4639 23.6202ZM10.1929 23.807C9.89476 23.9621 9.89503 23.9667 10.2582 24.8849C10.6339 25.8345 10.6396 25.841 10.9854 25.7027C11.2555 25.5946 11.247 25.522 10.8484 24.536C10.4733 23.6081 10.5059 23.6443 10.1929 23.807ZM15.855 23.877C15.8889 23.9441 15.9169 24.1559 15.9173 24.3476C15.9183 24.8501 15.9 24.8651 14.9656 25.1257C13.7109 25.4757 13.7286 25.4762 13.5843 25.0853C13.2254 24.1126 13.2683 24.0619 14.6252 23.8535C15.5633 23.7093 15.7726 23.7133 15.855 23.877ZM24.8998 23.972C24.9684 24.0406 24.9884 24.1116 24.9718 24.2283C24.8196 25.2942 24.8044 25.3677 24.724 25.4265C24.6176 25.5042 24.6004 25.5037 24.4844 25.4191C24.3852 25.3465 24.3142 24.3802 24.3868 24.0906C24.4386 23.8846 24.7422 23.8143 24.8998 23.972ZM36.7026 24.1536C36.6298 24.2263 36.6752 24.3646 36.7798 24.3893C43.7256 26.0315 44.0814 26.1093 44.1243 25.9977C44.1774 25.859 44.0896 25.8346 40.4318 24.9743C36.5406 24.0592 36.7506 24.1055 36.7026 24.1536ZM8.54863 24.4019C8.25503 24.5517 8.25549 24.5645 8.59203 25.5437C8.95243 26.5927 8.95876 26.6029 9.1859 26.4877C9.5775 26.2892 9.58863 26.2341 9.35743 25.6409C9.26716 25.4092 9.13263 25.0483 9.05863 24.839C8.8695 24.3042 8.82116 24.2627 8.54863 24.4019ZM35.5213 25.1521C35.3877 25.2625 35.1466 25.4693 34.9854 25.6119C34.8243 25.7543 34.6276 25.9247 34.5484 25.9906L34.4044 26.1103L34.8658 26.2191C35.9672 26.4789 36.3389 26.5552 36.3959 26.5335C36.5596 26.4706 36.7023 25.7375 36.6396 25.2811L36.6094 25.0602L36.2613 25.0277C36.0698 25.0097 35.8797 24.9853 35.8387 24.9733C35.7978 24.9613 35.655 25.0419 35.5213 25.1521ZM27.7616 25.3039C27.7198 25.3635 27.6856 25.5009 27.6858 25.609C27.6859 25.7171 27.6596 26.1436 27.6273 26.5567L27.5686 27.3077L27.703 27.4233C27.8196 27.5236 27.8878 27.539 28.2132 27.5383C28.7243 27.5372 28.7296 27.532 28.7659 26.9916C28.7826 26.7421 28.8129 26.3183 28.833 26.0497C28.877 25.4625 28.8669 25.4476 28.3213 25.2965C27.8676 25.1709 27.8546 25.171 27.7616 25.3039ZM23.034 25.5493C22.8978 25.6527 22.8516 25.865 22.8516 26.3875C22.8516 27.2006 22.8029 27.2616 22.1062 27.3202C21.5654 27.3659 21.582 27.3321 21.582 28.3759C21.582 29.4717 21.569 29.4433 22.0704 29.4433C22.5522 29.4433 22.5199 29.4999 22.656 28.418C22.7814 27.4226 22.7443 27.5196 22.9646 27.6116C23.6276 27.8886 23.7864 27.7105 23.9249 26.5351L24.028 25.6591L23.9226 25.5737C23.7944 25.4696 23.1618 25.4522 23.034 25.5493ZM29.1139 25.5981C29.0873 25.6317 29.0384 26.0757 29.0054 26.5849L28.9452 27.5106L29.0513 27.5965C29.2329 27.7435 29.4843 27.764 29.6066 27.6416C29.7789 27.4693 29.8016 25.7347 29.633 25.6167C29.4986 25.5226 29.1829 25.5112 29.1139 25.5981ZM23.6302 25.8761C23.7856 25.9746 23.5734 27.3096 23.3946 27.3563C23.1703 27.415 23.1214 27.2982 23.1038 26.662C23.0826 25.8962 23.255 25.6389 23.6302 25.8761ZM39.6099 26.0282C39.0189 26.155 39.0359 27.0296 39.6323 27.1792C39.816 27.2253 40.1192 27.1153 40.2248 26.9641C40.5614 26.4825 40.1823 25.9053 39.6099 26.0282ZM32.9468 26.1757C32.8472 26.2337 32.8316 26.4771 32.9228 26.5527C33.0406 26.6503 43.3644 28.8293 43.4509 28.7747C43.5522 28.7109 43.5566 28.4193 43.457 28.3616C43.395 28.3255 33.1476 26.1202 33.062 26.1245C33.0456 26.1253 32.9938 26.1483 32.9468 26.1757ZM11.0143 26.3462C10.8986 26.4619 10.9146 26.5549 11.2106 27.4857C11.5268 28.4803 11.5096 28.4522 11.758 28.3777C12.1556 28.2586 12.1566 28.2401 11.8165 27.2873C11.6506 26.8227 11.4942 26.4036 11.4686 26.356C11.4098 26.246 11.1208 26.2397 11.0143 26.3462ZM9.4585 26.9422C9.24403 27.0746 9.25429 27.1653 9.59303 28.1333C9.76849 28.6347 9.91216 29.066 9.91216 29.0917C9.91216 29.2267 10.0612 29.2617 10.258 29.173C10.5899 29.0233 10.5893 29.0041 10.2264 28.0133C9.76429 26.752 9.7649 26.753 9.4585 26.9422ZM22.3853 27.6532C22.5249 27.7555 22.3564 29.023 22.1886 29.133C21.9392 29.2963 21.875 29.1706 21.875 28.5179C21.875 28.1987 21.8624 27.9046 21.8468 27.8642C21.7722 27.6697 22.186 27.5076 22.3853 27.6532ZM33.0752 27.6561C32.6643 27.8401 32.6574 28.3335 33.0626 28.5431C33.3598 28.6967 33.7484 28.4372 33.7578 28.0789C33.767 27.7269 33.4106 27.506 33.0752 27.6561ZM27.6856 27.7193C27.5474 27.7687 27.4903 27.8999 27.4886 28.171C27.4876 28.3202 27.4586 28.6426 27.4239 28.8872C27.332 29.5367 27.3818 29.6122 27.9348 29.6632C28.538 29.719 28.6619 29.5351 28.662 28.5842C28.6622 27.8236 28.6538 27.8097 28.1469 27.7365C27.7714 27.6822 27.7879 27.6829 27.6856 27.7193ZM32.0802 27.8002C32.0802 27.9273 32.1969 28.0273 32.3454 28.0273C32.3979 28.0273 32.4219 27.9812 32.4219 27.8809C32.4219 27.7966 32.396 27.7341 32.3609 27.7337C32.3273 27.7333 32.2504 27.7197 32.19 27.7036C32.0968 27.6786 32.0802 27.6933 32.0802 27.8002ZM29.0356 27.9411C28.8598 28.0729 28.7699 29.4565 28.9288 29.5882C29.0533 29.6916 29.379 29.7089 29.5156 29.6193C29.6674 29.52 29.7123 28.1003 29.5674 27.9801C29.4553 27.8871 29.1388 27.8639 29.0356 27.9411ZM40.7769 29.4139C40.3558 29.6472 40.5223 30.2735 41.0053 30.2735C41.3704 30.2735 41.568 29.9409 41.4248 29.5676C41.3528 29.38 40.9923 29.2943 40.7769 29.4139ZM27.4052 29.7985C27.0716 30.2303 27.8056 30.3806 28.4873 30.0201L28.6298 29.9447L28.5016 29.8606C28.3382 29.7536 27.4776 29.7049 27.4052 29.7985Z" fill="#CBCBA9"/>
<path fill-rule="evenodd" clip-rule="evenodd" d="M23.2178 0.0302333C20.3082 0.312484 18.333 0.747862 16.1133 1.59636C4.88627 5.88736 -1.6606 17.3791 0.341899 29.2797C2.62215 42.8311 15.5882 51.9619 29.2798 49.6581C42.8312 47.3779 51.9619 34.4119 49.6582 20.7203C47.8202 9.797 38.9604 1.46261 27.7588 0.119234C27.1124 0.0417333 23.7739 -0.0237667 23.2178 0.0302333ZM15.5762 12.7303C15.9388 13.0175 17.356 14.1295 18.7256 15.2015C21.7589 17.5756 21.5543 17.3525 20.7649 17.4254C20.1226 17.4846 20.0968 17.5064 20.1349 17.957C20.152 18.1595 20.166 18.9153 20.166 19.6363C20.166 21.1724 20.1338 21.115 20.6908 20.5689C22.2954 18.9955 24.1848 19.2961 25.6836 21.3631C25.919 21.6877 26.0494 21.7709 26.4154 21.8299C27.1066 21.9411 27.4594 22.5255 27.146 23.0396C27.0398 23.2139 27.0089 23.2177 26.5329 23.1184C26.3536 23.0809 26.3184 23.1786 26.3184 23.7159C26.3184 24.1564 26.4519 24.2923 26.9324 24.3413C27.1184 24.3601 27.4683 24.4261 27.71 24.4879C27.9516 24.5496 28.5999 24.6815 29.1504 24.781C30.5618 25.0361 30.492 24.9703 30.4193 25.981C30.3914 26.368 30.3829 26.8623 30.4004 27.0793C30.4178 27.2964 30.4053 27.8869 30.3726 28.3913C30.2937 29.6077 30.1617 29.5216 31.6428 29.2197C33.0264 28.9376 32.9882 28.9533 32.7579 28.7629C32.5652 28.6035 32.4219 28.3483 32.4219 28.1644C32.4219 28.0749 32.3849 28.0366 32.2642 28.0009C32.1292 27.9609 32.1006 27.9243 32.066 27.7467C32.0416 27.6211 31.9883 27.5195 31.9308 27.4887C31.7757 27.4056 31.8233 27.2796 32.0688 27.124L32.2998 26.9775L32.3142 26.6521C32.3228 26.4571 32.3546 26.3053 32.3934 26.273C32.5096 26.1766 33.1666 25.9766 33.3669 25.9766C33.5376 25.9765 33.7203 25.873 34.8058 25.161C35.4897 24.7125 36.0846 24.3483 36.1276 24.3515C36.1986 24.3569 42.1986 25.7504 43.4693 26.0566C44.0729 26.202 44.0332 26.1321 43.9203 26.8496C43.8797 27.108 43.7734 27.9521 43.6843 28.7254C43.484 30.4633 43.573 30.3311 42.7149 30.164C41.9499 30.0151 41.832 30.0375 41.6473 30.3664C41.542 30.5535 41.3527 30.6627 41.1316 30.6637C40.9312 30.6647 40.9764 30.8067 41.2218 30.9464C41.5619 31.1401 42.0828 31.5439 42.4783 31.9205L42.7979 32.2249L25.8119 32.2257L8.82602 32.2266L8.89802 32.118C8.93775 32.0583 9.07775 31.9356 9.20915 31.8454C9.34062 31.7551 9.45455 31.6543 9.46229 31.6213C9.48602 31.5195 9.18942 30.7366 8.72955 29.6879C8.48815 29.1371 8.20729 28.4776 8.10542 28.2223C7.75662 27.3474 6.93089 25.385 6.87162 25.2901C6.82515 25.2155 6.82555 25.1745 6.87342 25.0976C6.92689 25.012 6.92229 25 6.83529 25C6.77242 25 6.71702 24.9509 6.68375 24.8657C6.65503 24.7919 6.56903 24.5967 6.4929 24.432C6.18577 23.7686 6.22653 23.6975 7.07575 23.4145C7.80702 23.1709 7.91275 23.0443 7.71262 22.6519C7.58102 22.3939 7.52842 22.3807 7.11389 22.5036C6.4904 22.6885 6.43777 22.6485 6.2069 21.8147C5.95065 20.8891 5.91903 20.9253 7.39355 20.4546C7.98655 20.2654 8.90015 19.9691 9.42389 19.7965C10.6624 19.388 10.7586 19.3915 10.8686 19.8486C10.8879 19.9293 10.9773 20.1865 11.0672 20.4205C11.311 21.0557 11.2778 21.1853 10.8454 21.2824C10.5394 21.3511 10.527 21.3791 10.6456 21.7337C10.7888 22.1621 10.766 22.1536 11.3548 21.9976C12.0256 21.8197 12.008 21.8777 11.7358 20.7495C11.6163 20.254 11.4656 19.5985 11.4006 19.2929C11.244 18.5541 11.2296 18.5397 10.6833 18.5825C10.1963 18.6206 10.1686 18.5964 10.3664 18.3051C10.5398 18.0501 14.2983 12.7015 14.4886 12.439C14.7373 12.096 14.7953 12.1115 15.5762 12.7303ZM9.35062 20.3406C8.92089 20.4863 8.54089 20.616 8.50629 20.6291C8.45862 20.647 8.45602 20.677 8.49542 20.7506C8.57755 20.904 8.76229 20.9223 9.06429 20.8066C9.40175 20.6775 9.42015 20.6779 9.39075 20.813C9.31755 21.1496 9.16315 21.2403 8.66289 21.2403C8.31875 21.2403 8.13289 21.2959 7.97129 21.4473L7.86142 21.5503V21.4025C7.86142 21.2475 7.77315 20.9473 7.72755 20.9473C7.71289 20.9473 7.55575 20.9897 7.37829 21.0415C7.20089 21.0934 6.96455 21.1595 6.85315 21.1885C6.60903 21.2521 6.57515 21.3236 6.64777 21.6221C6.77189 22.1331 6.66902 22.1416 8.69962 21.4529C10.5062 20.8403 10.5469 20.8207 10.5469 20.5719C10.5469 20.0021 10.4214 19.9777 9.35062 20.3406ZM41.9024 24.7306C43.5497 25.0926 44.9469 25.4007 45.0074 25.4151C45.0678 25.4295 45.1173 25.4769 45.1173 25.5204C45.1173 25.6323 44.9532 25.6077 42.4749 25.1259C41.3098 24.8993 40.0489 24.6567 39.6729 24.5871C38.7629 24.4184 38.7836 24.4237 38.7569 24.3535C38.7266 24.274 38.8016 24.0723 38.8613 24.0723C38.8866 24.0723 40.255 24.3685 41.9024 24.7306ZM40.4318 24.9744C44.0896 25.8346 44.1774 25.859 44.1243 25.9977C44.0814 26.1094 43.7256 26.0315 36.7798 24.3894C36.6396 24.3561 36.6302 24.1211 36.7692 24.1211C36.788 24.1211 38.4362 24.5051 40.4318 24.9744ZM34.0918 28.4795C34.0032 28.508 33.8384 28.6146 33.7256 28.7167L33.5206 28.9023L34.2286 28.9043C36.0329 28.9095 37.281 29.157 39.174 29.885C40.179 30.2715 40.1539 30.2699 40.1582 29.9491C40.1629 29.5984 40.1383 29.5887 38.1836 29.1731C37.2303 28.9704 36.0729 28.7175 35.6118 28.6113C34.7647 28.416 34.3913 28.3836 34.0918 28.4795ZM45.0196 28.6387C45.6643 28.79 45.9582 28.9551 45.5826 28.9551C45.2742 28.9551 44.0639 28.7974 44.0066 28.7497C43.8613 28.6293 44.0383 28.4025 44.2379 28.4531C44.3053 28.4701 44.657 28.5537 45.0196 28.6387ZM44.751 29.5965C45.5367 29.762 45.574 29.7757 45.512 29.8761C45.4782 29.9309 45.3428 29.928 44.6962 29.8586C43.8259 29.7653 43.8477 29.7714 43.8477 29.6195C43.8477 29.4013 43.8272 29.4017 44.751 29.5965Z" fill="#FBCC0C"/>
<path fill-rule="evenodd" clip-rule="evenodd" d="M14.6466 15.3587C14.5964 15.4191 14.5758 15.4215 14.5436 15.371C14.5154 15.3264 14.5033 15.3249 14.5028 15.3657C14.5014 15.4711 14.585 15.4779 14.6739 15.3797C14.7219 15.3266 14.7496 15.2833 14.7353 15.2833C14.7209 15.2833 14.681 15.3173 14.6466 15.3587ZM15.9308 15.317C15.9782 15.3294 16.0022 15.3631 15.9843 15.3921C15.9649 15.4234 15.9746 15.4306 16.0082 15.4099C16.0428 15.3885 16.0648 15.4093 16.0653 15.4634C16.0658 15.5356 16.0742 15.5389 16.1106 15.4814C16.1608 15.4019 16.0414 15.2835 15.918 15.2904C15.8673 15.2933 15.8713 15.3015 15.9308 15.317ZM16.297 16.1966C16.3578 16.2084 16.4456 16.2079 16.4923 16.1956C16.539 16.1834 16.4893 16.1739 16.3819 16.1744C16.2744 16.175 16.2363 16.185 16.297 16.1966ZM13.7818 16.4887C13.8288 16.501 13.9056 16.501 13.9526 16.4887C13.9996 16.4765 13.9612 16.4664 13.8673 16.4664C13.7733 16.4664 13.7348 16.4765 13.7818 16.4887ZM18.6646 16.8794C18.7116 16.8916 18.7886 16.8916 18.8356 16.8794C18.8826 16.8671 18.844 16.857 18.75 16.857C18.656 16.857 18.6176 16.8671 18.6646 16.8794ZM14.9048 17.5141C14.9518 17.5264 15.0286 17.5264 15.0756 17.5141C15.1226 17.5019 15.0843 17.4917 14.9903 17.4917C14.8963 17.4917 14.8578 17.5019 14.9048 17.5141ZM11.7066 17.6614C11.767 17.673 11.8659 17.673 11.9263 17.6614C11.9868 17.6497 11.9373 17.6403 11.8164 17.6403C11.6956 17.6403 11.6462 17.6497 11.7066 17.6614ZM18.9576 17.8559C19.0046 17.8683 19.0814 17.8683 19.1284 17.8559C19.1754 17.8436 19.137 17.8336 19.043 17.8336C18.949 17.8336 18.9106 17.8436 18.9576 17.8559ZM17.1386 18.4723C17.1386 18.4807 17.2102 18.5521 17.2974 18.631L17.456 18.7744L17.3126 18.6157C17.179 18.4677 17.1386 18.4346 17.1386 18.4723ZM14.5996 18.7256C14.481 18.8464 14.395 18.9454 14.4084 18.9454C14.4218 18.9454 14.5299 18.8464 14.6486 18.7256C14.767 18.6047 14.8532 18.5059 14.8396 18.5059C14.8263 18.5059 14.7183 18.6047 14.5996 18.7256ZM17.0899 18.7256C17.181 18.8196 17.2666 18.8965 17.2799 18.8965C17.2934 18.8965 17.2298 18.8196 17.1386 18.7256C17.0476 18.6316 16.962 18.5547 16.9486 18.5547C16.9353 18.5547 16.9988 18.6316 17.0899 18.7256ZM11.7302 18.8476C11.7302 18.9416 11.7402 18.9801 11.7524 18.9331C11.7648 18.8861 11.7648 18.8093 11.7524 18.7623C11.7402 18.7153 11.7302 18.7536 11.7302 18.8476ZM14.0758 20.0195C14.0758 20.1404 14.0854 20.1899 14.097 20.1294C14.1086 20.069 14.1086 19.9701 14.097 19.9096C14.0854 19.8493 14.0758 19.8986 14.0758 20.0195ZM18.3726 20.0195C18.3726 20.1404 18.3823 20.1899 18.3939 20.1294C18.4056 20.069 18.4056 19.9701 18.3939 19.9096C18.3823 19.8493 18.3726 19.8986 18.3726 20.0195ZM17.6393 20.044C17.6398 20.1514 17.6498 20.1896 17.6616 20.1289C17.6732 20.0681 17.6728 19.9803 17.6606 19.9335C17.6483 19.8869 17.6388 19.9365 17.6393 20.044ZM19.982 20.2636C19.982 20.3576 19.9922 20.3961 20.0044 20.3491C20.0167 20.3021 20.0167 20.2253 20.0044 20.1783C19.9922 20.1313 19.982 20.1696 19.982 20.2636ZM19.7389 20.9229C19.7394 21.0303 19.7494 21.0685 19.7612 21.0077C19.7728 20.947 19.7724 20.8591 19.7602 20.8124C19.7479 20.7657 19.7384 20.8154 19.7389 20.9229ZM15.2664 21.1547C15.2788 21.1749 15.3304 21.1914 15.3809 21.1914C15.4314 21.1914 15.4829 21.1749 15.4954 21.1547C15.5079 21.1346 15.4563 21.1181 15.3809 21.1181C15.3054 21.1181 15.2539 21.1346 15.2664 21.1547ZM17.0873 21.3256L16.919 21.5087L17.102 21.3405C17.2028 21.248 17.2852 21.1656 17.2852 21.1574C17.2852 21.1201 17.2439 21.1553 17.0873 21.3256ZM17.2576 21.4477L17.1143 21.6065L17.273 21.463C17.4209 21.3294 17.4542 21.2891 17.4164 21.2891C17.408 21.2891 17.3366 21.3605 17.2576 21.4477ZM19.7399 21.6309C19.7399 21.7517 19.7494 21.8011 19.761 21.7407C19.7726 21.6803 19.7726 21.5814 19.761 21.521C19.7494 21.4606 19.7399 21.51 19.7399 21.6309ZM20.0374 22.1435C20.0376 22.4121 20.0458 22.5157 20.0557 22.3739C20.0656 22.232 20.0654 22.0123 20.0554 21.8856C20.0454 21.7589 20.0373 21.875 20.0374 22.1435ZM18.7384 22.4466C18.7992 22.4584 18.887 22.4579 18.9336 22.4456C18.9804 22.4334 18.9306 22.4239 18.8233 22.4244C18.7159 22.425 18.6776 22.435 18.7384 22.4466ZM17.0288 22.4954C17.0893 22.507 17.1882 22.507 17.2486 22.4954C17.309 22.4837 17.2596 22.4743 17.1386 22.4743C17.0179 22.4743 16.9684 22.4837 17.0288 22.4954ZM15.6636 22.566C15.7153 22.632 15.7153 22.6514 15.6636 22.672C15.6236 22.6881 15.6318 22.6987 15.686 22.7013C15.733 22.7034 15.7716 22.6857 15.7716 22.6623C15.7716 22.6386 15.733 22.5893 15.686 22.5524C15.6096 22.4925 15.6073 22.494 15.6636 22.566ZM22.8638 22.7876C22.9108 22.7999 22.9877 22.7999 23.0347 22.7876C23.0817 22.7753 23.0433 22.7653 22.9493 22.7653C22.8553 22.7653 22.8168 22.7753 22.8638 22.7876ZM24.6217 22.9829C24.6687 22.9951 24.7456 22.9951 24.7926 22.9829C24.8396 22.9706 24.801 22.9605 24.707 22.9605C24.613 22.9605 24.5747 22.9706 24.6217 22.9829ZM26.3184 23.0536C26.3184 23.0767 26.3733 23.0957 26.4404 23.0957C26.5077 23.0957 26.5626 23.0873 26.5626 23.077C26.5626 23.0666 26.5077 23.0477 26.4404 23.0349C26.3733 23.0221 26.3184 23.0305 26.3184 23.0536ZM26.0378 23.4131C26.0383 23.5205 26.0483 23.5587 26.0599 23.498C26.0717 23.4373 26.0712 23.3494 26.059 23.3026C26.0468 23.256 26.0372 23.3056 26.0378 23.4131ZM17.2974 23.5716C17.586 23.5803 18.0586 23.5803 18.3472 23.5716C18.6359 23.563 18.3996 23.5559 17.8223 23.5559C17.2449 23.5559 17.0086 23.563 17.2974 23.5716ZM24.353 23.6185C24.4136 23.6301 24.5124 23.6301 24.5728 23.6185C24.6332 23.6067 24.5838 23.5973 24.4629 23.5973C24.342 23.5973 24.2927 23.6067 24.353 23.6185ZM24.0879 24.0723C24.0879 24.2469 24.0968 24.3183 24.1077 24.231C24.1184 24.1436 24.1184 24.0009 24.1077 23.9136C24.0968 23.8263 24.0879 23.8977 24.0879 24.0723ZM15.8826 24.1699C15.8826 24.2907 15.892 24.3403 15.9036 24.2797C15.9153 24.2194 15.9153 24.1205 15.9036 24.06C15.892 23.9996 15.8826 24.0491 15.8826 24.1699ZM24.3838 24.707C24.3838 25.0159 24.3917 25.1423 24.4014 24.9877C24.411 24.8334 24.411 24.5807 24.4014 24.4263C24.3917 24.2719 24.3838 24.3983 24.3838 24.707ZM24.0869 25.2441C24.0869 25.3919 24.096 25.4523 24.1073 25.3784C24.1184 25.3046 24.1184 25.1837 24.1073 25.1099C24.096 25.036 24.0869 25.0964 24.0869 25.2441ZM20.086 25.6836C20.086 25.9387 20.0943 26.0431 20.1043 25.9155C20.1143 25.788 20.1143 25.5793 20.1043 25.4516C20.0943 25.3241 20.086 25.4285 20.086 25.6836ZM23.2544 25.4744C23.3283 25.4856 23.4492 25.4856 23.523 25.4744C23.5968 25.4633 23.5364 25.4541 23.3887 25.4541C23.241 25.4541 23.1806 25.4633 23.2544 25.4744ZM29.0954 25.5737C29.037 25.648 29.0379 25.6519 29.1017 25.6034C29.1419 25.5727 29.2188 25.5369 29.2726 25.5236C29.3653 25.5009 29.3649 25.4994 29.2663 25.494C29.2092 25.4909 29.1323 25.5267 29.0954 25.5737ZM28.8688 25.7813C28.8688 25.8753 28.8788 25.9137 28.8912 25.8667C28.9034 25.8197 28.9034 25.7427 28.8912 25.6957C28.8788 25.6487 28.8688 25.6873 28.8688 25.7813ZM24.6217 25.7661C24.6687 25.7784 24.7456 25.7784 24.7926 25.7661C24.8396 25.7537 24.801 25.7437 24.707 25.7437C24.613 25.7437 24.5747 25.7537 24.6217 25.7661ZM27.649 25.9521C27.6497 26.0596 27.6597 26.0977 27.6713 26.037C27.6829 25.9763 27.6826 25.8884 27.6703 25.8417C27.658 25.795 27.6486 25.8447 27.649 25.9521ZM29.7542 26.2451C29.7543 26.5136 29.7626 26.6173 29.7724 26.4754C29.7823 26.3335 29.7822 26.1137 29.7722 25.9871C29.7622 25.8605 29.754 25.9766 29.7542 26.2451ZM29.0173 26.0743C29.0173 26.1951 29.0268 26.2445 29.0384 26.1841C29.05 26.1236 29.05 26.0247 29.0384 25.9644C29.0268 25.9039 29.0173 25.9534 29.0173 26.0743ZM23.1144 26.5869C23.1146 26.9091 23.1224 27.0346 23.1319 26.8657C23.1416 26.6969 23.1414 26.4333 23.1318 26.2799C23.1222 26.1265 23.1143 26.2646 23.1144 26.5869ZM22.8202 26.5381C22.8199 26.7797 22.8282 26.8849 22.8384 26.7715C22.8487 26.6581 22.8488 26.4604 22.8387 26.332C22.8287 26.2036 22.8203 26.2964 22.8202 26.5381ZM29.9976 26.6601C29.9976 26.8884 30.006 26.9817 30.0163 26.8676C30.0266 26.7535 30.0266 26.5667 30.0163 26.4526C30.006 26.3385 29.9976 26.4319 29.9976 26.6601ZM27.5993 26.5625C27.5993 26.6565 27.6093 26.695 27.6216 26.648C27.6339 26.601 27.6339 26.524 27.6216 26.477C27.6093 26.43 27.5993 26.4685 27.5993 26.5625ZM28.7758 26.9287C28.776 27.1167 28.7849 27.1876 28.7954 27.0864C28.806 26.985 28.8058 26.8313 28.795 26.7445C28.7843 26.6579 28.7757 26.7407 28.7758 26.9287ZM28.9674 26.831C28.9679 26.9385 28.9779 26.9766 28.9897 26.9159C29.0013 26.8553 29.0009 26.7673 28.9887 26.7206C28.9764 26.674 28.9669 26.7236 28.9674 26.831ZM25.6949 27.1485C25.6949 27.2424 25.705 27.2809 25.7173 27.2339C25.7296 27.1869 25.7296 27.11 25.7173 27.063C25.705 27.016 25.6949 27.0545 25.6949 27.1485ZM27.5504 27.1485C27.5504 27.2424 27.5606 27.2809 27.5728 27.2339C27.585 27.1869 27.585 27.11 27.5728 27.063C27.5606 27.016 27.5504 27.0545 27.5504 27.1485ZM21.8384 27.3286C21.8854 27.3409 21.9623 27.3409 22.0093 27.3286C22.0563 27.3163 22.0179 27.3063 21.9239 27.3063C21.8299 27.3063 21.7914 27.3163 21.8384 27.3286ZM28.1868 27.5741C28.2609 27.5854 28.3708 27.585 28.4309 27.5734C28.4909 27.5619 28.4302 27.5526 28.2959 27.553C28.1617 27.5534 28.1126 27.5629 28.1868 27.5741ZM32.3487 27.6889C32.2329 27.7157 32.2253 27.724 32.312 27.7286C32.3807 27.7323 32.423 27.7665 32.425 27.8199C32.4273 27.8819 32.4409 27.8733 32.4749 27.7884C32.5316 27.6466 32.5314 27.6465 32.3487 27.6889ZM29.9488 28.2226C29.9488 28.4509 29.9572 28.5443 29.9674 28.4301C29.9777 28.316 29.9777 28.1293 29.9674 28.0151C29.9572 27.901 29.9488 27.9944 29.9488 28.2226ZM28.6744 28.1983C28.675 28.3056 28.685 28.3439 28.6967 28.2831C28.7084 28.2224 28.7079 28.1345 28.6957 28.0877C28.6834 28.0411 28.6739 28.0909 28.6744 28.1983ZM29.6552 28.418C29.6552 28.6194 29.6638 28.7017 29.6743 28.6011C29.6848 28.5004 29.6848 28.3356 29.6743 28.2349C29.6638 28.1341 29.6552 28.2165 29.6552 28.418ZM25.5973 28.2715C25.5973 28.3655 25.6074 28.4039 25.6197 28.3569C25.6319 28.3099 25.6319 28.233 25.6197 28.186C25.6074 28.139 25.5973 28.1775 25.5973 28.2715ZM27.4538 28.3935C27.4543 28.501 27.4643 28.5391 27.476 28.4784C27.4877 28.4177 27.4872 28.3297 27.475 28.2831C27.4628 28.2365 27.4532 28.2861 27.4538 28.3935ZM20.1319 29.0039C20.1319 29.1516 20.141 29.212 20.1522 29.1381C20.1634 29.0644 20.1634 28.9435 20.1522 28.8696C20.141 28.7957 20.1319 28.8563 20.1319 29.0039ZM28.8209 29.2725C28.8216 29.3799 28.8316 29.4181 28.8432 29.3574C28.8548 29.2966 28.8544 29.2087 28.8422 29.162C28.8299 29.1154 28.8204 29.165 28.8209 29.2725ZM25.4997 29.4434C25.4997 29.5374 25.5097 29.5757 25.522 29.5287C25.5343 29.4817 25.5343 29.4049 25.522 29.3579C25.5097 29.3109 25.4997 29.3494 25.4997 29.4434ZM21.8873 29.4789C21.9879 29.4895 22.1528 29.4895 22.2534 29.4789C22.3542 29.4684 22.2718 29.4597 22.0704 29.4597C21.8689 29.4597 21.7866 29.4684 21.8873 29.4789ZM25.4518 30.0537C25.4523 30.1611 25.4623 30.1994 25.474 30.1386C25.4857 30.0779 25.4853 29.99 25.473 29.9433C25.4608 29.8966 25.4513 29.9463 25.4518 30.0537Z" fill="#9E9B66"/>
<path fill-rule="evenodd" clip-rule="evenodd" d="M14.7053 14.1853C14.4299 14.417 12.3545 17.156 12.4114 17.2127C12.4403 17.2417 18.0675 16.5706 18.2129 16.5209C18.3033 16.49 18.2988 16.486 16.7583 15.2685C15.1494 13.9969 15.014 13.9255 14.7053 14.1853ZM15.425 14.8323C15.4625 14.923 15.5369 14.9871 15.6392 15.0173C15.7254 15.0427 15.816 15.1091 15.8405 15.165C15.865 15.2207 15.9502 15.2953 16.0296 15.3303C16.109 15.3655 16.2428 15.4541 16.3268 15.5273C16.4108 15.6005 16.5523 15.6975 16.6412 15.743C16.9044 15.8779 16.8538 16.1245 16.5528 16.1735C16.3446 16.2073 13.8313 16.5051 13.7608 16.5043C13.6299 16.5027 13.9222 15.9806 14.0895 15.917C14.1553 15.892 14.209 15.8403 14.209 15.8023C14.209 15.7641 14.2735 15.664 14.3523 15.5796C14.431 15.4953 14.5198 15.3529 14.5494 15.2631C14.7225 14.7386 15.2738 14.4673 15.425 14.8323ZM14.9283 15.0613C14.8416 15.1611 14.7102 15.3085 14.6363 15.3887C14.5624 15.4691 14.502 15.5543 14.502 15.5783C14.502 15.602 14.458 15.6451 14.4043 15.6739C14.3506 15.7026 14.3066 15.7583 14.3066 15.7976C14.3066 15.837 14.2882 15.8691 14.2656 15.8691C14.2206 15.8691 14.083 16.2477 14.116 16.2807C14.1274 16.292 14.5869 16.2373 15.1372 16.159C15.6875 16.0809 16.1926 16.0163 16.2598 16.0155C16.5138 16.0126 16.5974 15.7053 16.3493 15.6866C16.2278 15.6775 16.0646 15.5381 16.0646 15.4436C16.0646 15.406 16.045 15.3871 16.0212 15.4019C15.9974 15.4166 15.9508 15.3959 15.9175 15.3559C15.8844 15.3159 15.8294 15.2833 15.7955 15.2833C15.7615 15.2833 15.6596 15.2067 15.5689 15.1133C15.3149 14.8519 15.1238 14.8363 14.9283 15.0613ZM20.6909 17.4173C20.7514 17.4289 20.8503 17.4289 20.9106 17.4173C20.9712 17.4056 20.9216 17.3961 20.8008 17.3961C20.6799 17.3961 20.6305 17.4056 20.6909 17.4173ZM18.859 17.8727C17.8234 17.9816 17.5148 18.0573 17.6026 18.1813C17.6294 18.2193 17.7583 18.3965 17.8888 18.5751C18.801 19.8229 18.3769 21.5461 16.9965 22.2003C16.8314 22.2785 16.703 22.3713 16.7016 22.4136C16.6974 22.545 19.2336 22.4523 19.5469 22.3096C19.7242 22.2287 19.7279 22.2061 19.748 21.1053C19.763 20.2801 19.7793 20.1056 19.8544 19.9653L19.943 19.7997L19.9764 19.9707C19.9948 20.0647 19.9983 19.9659 19.9842 19.751C19.9656 19.4696 19.9338 19.333 19.8702 19.2627C19.658 19.028 19.6722 18.61 19.8953 18.5243C19.9368 18.5085 19.9708 18.4525 19.9708 18.4001C19.9708 18.3476 19.9508 18.3171 19.9263 18.3323C19.8214 18.3971 19.7266 18.2963 19.7266 18.1197C19.7266 17.8103 19.6532 17.7893 18.859 17.8727ZM15.4688 17.9836C15.093 18.0263 15.0423 18.0437 15.0293 18.1343C15.0208 18.1945 14.9474 18.2685 14.8514 18.3136C13.8949 18.7643 13.5794 20.2945 14.2573 21.1966C15.6945 23.1093 18.651 21.3347 17.6543 19.1576C17.451 18.7137 16.7575 18.1153 16.4464 18.1153C16.4088 18.1153 16.2919 18.0713 16.1866 18.0176C16.0812 17.9639 15.9722 17.9233 15.9443 17.9276C15.9164 17.9319 15.7024 17.9571 15.4688 17.9836ZM20.1368 18.8233C20.1368 19.2261 20.1444 19.3843 20.1535 19.175C20.1628 18.9656 20.1626 18.6361 20.1534 18.4426C20.1442 18.2491 20.1366 18.4203 20.1368 18.8233ZM16.6074 18.3686C17.5168 18.7863 17.9116 19.897 17.4784 20.8186C16.8362 22.185 14.7372 22.1341 14.2183 20.7396C13.63 19.1587 15.1165 17.6836 16.6074 18.3686ZM11.9629 18.5425C11.7214 18.6633 11.7232 18.7836 11.9835 19.8853C12.1056 20.4023 12.2944 21.2536 12.4029 21.7773C12.728 23.3456 12.6573 23.2815 13.7823 23.0261C14.1915 22.9333 14.7462 22.822 15.0146 22.7787C15.7406 22.6621 15.7396 22.6623 15.6778 22.5877C15.6484 22.5523 15.5199 22.5109 15.3922 22.4957C13.7828 22.3051 12.8245 20.331 13.6244 18.8541C13.8324 18.47 13.8232 18.4383 13.5132 18.4749C12.8959 18.5476 12.0942 18.57 12.1292 18.5133C12.1745 18.4399 12.165 18.4416 11.9629 18.5425ZM15.6424 18.7263C15.6094 18.8125 15.854 19.6137 15.9272 19.659C15.9598 19.6791 15.9708 19.5281 15.9595 19.218C15.9468 18.8657 15.9239 18.7346 15.8692 18.7001C15.7616 18.6323 15.6746 18.6423 15.6424 18.7263ZM22.2755 19.871C21.308 20.133 20.3316 21.0153 20.7572 21.243C20.8622 21.2993 22.1913 21.4453 23.3886 21.5321C23.8049 21.5623 24.4276 21.6205 24.7723 21.6613C25.6682 21.7676 25.6965 21.7393 25.2522 21.1823C24.3549 20.0577 23.3008 19.5933 22.2755 19.871ZM15.5775 20.4463C15.2215 20.9343 15.1676 21.1051 15.3605 21.1327C15.4684 21.1481 15.8406 20.4811 15.9205 20.1293C15.9705 19.9093 15.9666 19.9127 15.5775 20.4463ZM20.6516 20.5933L20.4834 20.7763L20.6665 20.6081C20.7673 20.5155 20.8496 20.4331 20.8496 20.425C20.8496 20.3877 20.8083 20.4229 20.6516 20.5933ZM20.0355 21.3623C20.0358 21.5503 20.0446 21.6213 20.0552 21.5199C20.0658 21.4186 20.0655 21.2647 20.0548 21.1781C20.044 21.0913 20.0354 21.1743 20.0355 21.3623ZM8.53276 21.2267C8.62002 21.2375 8.76289 21.2375 8.85016 21.2267C8.93742 21.2159 8.86602 21.207 8.69142 21.207C8.51689 21.207 8.44542 21.2159 8.53276 21.2267ZM20.3152 21.5795C20.224 21.6705 20.2183 21.729 20.2343 22.3989C20.3016 25.215 20.3225 29.1527 20.2704 29.2155C20.061 29.4679 23.1973 30.2763 24.6583 30.3467C24.9939 30.3629 25.321 30.3871 25.385 30.4006C25.4928 30.4233 25.4993 30.4135 25.471 30.2723C25.4422 30.1283 25.6333 27.7406 25.9042 24.8581C26.0782 23.0083 26.089 23.0957 25.6834 23.0957H25.4958L25.6385 23.2383C25.8482 23.4481 25.8296 23.7483 25.3649 27.6783C25.2716 28.4663 25.1954 29.2505 25.1954 29.4206C25.1954 29.8301 25.1363 29.9805 24.9753 29.9805C24.7934 29.9805 24.7834 29.9001 24.8702 29.1347C24.9134 28.754 25.0473 27.5766 25.1679 26.5183C25.3768 24.6851 25.3936 24.2813 25.25 24.5496C25.2198 24.606 25.1742 24.8567 25.1485 25.1067C25.1076 25.5053 25.0862 25.5751 24.9749 25.6713C24.7405 25.8743 24.1404 25.8037 24.1148 25.5703C24.1114 25.5386 24.1034 25.1196 24.0973 24.6391C24.084 23.609 24.0933 23.5861 24.5239 23.5809C24.8654 23.5767 24.7206 23.5197 24.1186 23.4211C23.5319 23.325 22.0814 23.2149 22.0334 23.2627C21.9112 23.3851 22.0013 24.1991 22.188 24.6583C22.6423 25.7749 22.4526 26.5983 21.7292 26.6506C21.374 26.6763 21.3635 26.6436 21.6113 26.2839C21.9499 25.7921 21.9572 25.4406 21.6472 24.5253C21.437 23.9053 21.4175 23.8065 21.3978 23.2666C21.3722 22.5619 21.4276 22.6267 20.7886 22.5529L20.2636 22.4921V22.3545C20.2636 22.1781 19.986 22.164 23.3114 22.5097C24.861 22.6709 26.1395 22.8027 26.1526 22.8027C26.1658 22.8027 26.2298 22.8603 26.2949 22.9305C26.5204 23.1737 26.9863 22.8559 26.9374 22.4919C26.8842 22.0943 26.6783 22.0569 22.4854 21.6809C21.5992 21.6013 20.7704 21.524 20.6436 21.5089C20.4546 21.4863 20.3955 21.4991 20.3152 21.5795ZM9.42389 23.2126C6.75189 24.1166 6.89162 24.052 7.11762 24.278L7.21756 24.3779L9.43076 23.5623C11.6755 22.7353 11.7676 22.6965 11.7676 22.577C11.7676 22.4403 11.4593 22.524 9.42389 23.2126ZM21.7593 22.7123C21.6203 22.793 21.7498 22.8499 22.0744 22.8509C22.403 22.8517 22.4669 22.8071 22.2609 22.7205C22.0772 22.6433 21.8835 22.6401 21.7593 22.7123ZM21.012 22.9493C20.9662 23.6101 20.8539 23.7683 20.7 23.3886C20.5372 22.9869 20.5979 22.7856 20.8738 22.8127C20.9966 22.8247 21.0192 22.847 21.012 22.9493ZM22.7539 22.8499C22.7539 22.9633 22.9556 23.0069 23.1775 22.9413C23.37 22.8846 23.383 22.8726 23.283 22.8445C23.104 22.7943 22.7539 22.7977 22.7539 22.8499ZM23.7752 23.0017C23.8449 23.0599 23.9248 23.0866 23.9705 23.0673C24.013 23.0495 24.1138 23.0197 24.1944 23.0013L24.3409 22.9677L24.1455 22.9346C24.0382 22.9163 23.8843 22.902 23.8038 22.9025L23.6573 22.9036L23.7752 23.0017ZM11.852 22.9843C11.6142 23.0203 11.5403 23.2013 11.6302 23.5281C11.6719 23.6796 12.0398 25.0075 12.4476 26.4787C13.235 29.3196 13.2333 29.3095 12.9619 29.4229C12.6555 29.5509 12.7149 29.6761 12.1156 27.6367C11.9539 27.0861 11.6228 25.9436 11.3798 25.0976C11.0866 24.0767 10.9093 23.538 10.8523 23.4955C10.6783 23.3653 9.71676 23.7141 9.71676 23.9073C9.71676 24.0109 10.1103 25.0786 11.6106 29.046C11.9546 29.9557 11.9575 29.9921 11.6992 30.1187C11.4306 30.2506 11.2648 29.8866 9.56956 25.4449C9.00889 23.9759 9.03416 24.0009 8.38976 24.2773C7.84762 24.5099 7.84176 24.3869 8.46702 25.897C10.5613 30.955 10.4933 30.7563 10.1749 30.8893C9.93642 30.989 9.84962 30.9223 9.67729 30.5063C9.59642 30.3111 9.03156 28.9429 8.42216 27.4659C7.20462 24.5147 7.27142 24.6533 7.07389 24.6683C6.93162 24.6791 6.85556 24.9947 6.97702 25.0699C7.00089 25.0846 7.03502 25.1573 7.05276 25.2315C7.07062 25.3056 7.14989 25.4576 7.22916 25.5695C7.30829 25.6813 7.45062 25.9779 7.54556 26.2286C7.64056 26.4793 7.85362 26.9921 8.01916 27.3681C8.18476 27.7441 8.64416 28.8207 9.04002 29.7607C9.62402 31.1473 9.77576 31.4666 9.84416 31.4535C9.89056 31.4446 10.084 31.3325 10.2743 31.2045C11.0433 30.6869 12.1494 30.1473 12.8906 29.9283C13.379 29.7839 13.7208 29.6096 13.7208 29.505C13.7208 29.3133 12.3749 23.6683 12.1782 23.0346C12.1519 22.9501 12.1155 22.9445 11.852 22.9843ZM24.5102 23.0693C24.6028 23.181 24.7158 23.1966 24.9194 23.1261L25.1074 23.061L24.9499 23.0295C24.6516 22.9699 24.4433 22.9887 24.5102 23.0693ZM16.6985 23.6581C16.5525 23.834 16.8153 24.6839 17.0554 24.8123C17.1575 24.867 19.1406 24.967 19.188 24.9199C19.3053 24.8033 19.2259 23.8157 19.0883 23.6781C18.9598 23.5495 16.8036 23.5315 16.6985 23.6581ZM25.2634 23.6613C25.2796 23.7037 25.2932 23.841 25.2933 23.9663L25.2936 24.1943L25.3906 24.0479C25.5114 23.8655 25.5135 23.7683 25.399 23.6647C25.2862 23.5626 25.2249 23.5611 25.2634 23.6613ZM10.8886 24.5879C11.2916 25.5961 11.2922 25.6083 10.9439 25.7313C10.6448 25.837 10.6102 25.7953 10.2406 24.8849C9.87276 23.9785 9.87162 23.9523 10.1944 23.7819C10.5052 23.6177 10.4972 23.6085 10.8886 24.5879ZM15.0879 23.8094C14.8596 23.8467 14.4543 23.9111 14.1872 23.9523C13.3868 24.076 13.32 24.1649 13.5213 24.8389C13.7136 25.4831 13.6535 25.469 14.816 25.1439C15.9229 24.8343 15.9068 24.8496 15.879 24.1367C15.8626 23.7155 15.8058 23.692 15.0879 23.8094ZM8.91076 24.431C8.95202 24.494 9.05942 24.7631 9.14942 25.0291C9.23942 25.2951 9.37076 25.649 9.44142 25.8156C9.54229 26.054 9.55956 26.145 9.52242 26.2429C9.46962 26.3815 9.08802 26.594 8.97189 26.5494C8.88189 26.5149 8.29089 24.7817 8.31076 24.611C8.33916 24.3675 8.78202 24.2346 8.91076 24.431ZM20.086 24.8047C20.086 25.0599 20.0943 25.1641 20.1043 25.0366C20.1143 24.909 20.1143 24.7003 20.1043 24.5727C20.0943 24.4453 20.086 24.5495 20.086 24.8047ZM26.2888 24.7355C26.305 24.7779 26.3184 24.8329 26.3184 24.8575C26.3184 24.8821 26.3683 24.9023 26.4293 24.9023C26.6445 24.9023 27.2046 25.0876 27.3215 25.1973C27.4894 25.355 27.513 25.5651 27.4472 26.31C27.3536 27.365 27.2963 27.4295 26.5333 27.3356C26.2219 27.2973 26.0546 27.295 26.0215 27.3281C25.9723 27.3773 26.4454 27.4953 26.9663 27.5636C27.3185 27.6099 27.3648 27.7096 27.2989 28.2809C27.27 28.5309 27.234 28.8595 27.219 29.0111C27.1798 29.4045 27.1014 29.4607 26.5495 29.4917C25.9319 29.5264 25.9273 29.6206 26.5418 29.6475C27.1008 29.6719 27.164 29.7189 27.1394 30.0903L27.124 30.3223L27.3682 30.3203L27.6123 30.3185L27.4536 30.2495C27.2836 30.1756 27.2438 30.0209 27.3455 29.8307C27.4208 29.6901 28.2154 29.6923 28.4795 29.834C28.7295 29.9679 28.8519 29.9606 29.4434 29.7761L29.956 29.6163L29.9384 29.2305C29.9286 29.0183 29.9463 28.0859 29.9775 27.1585C30.0245 25.7611 30.023 25.4611 29.969 25.4071C29.9044 25.3425 26.6313 24.6583 26.3866 24.6583C26.2904 24.6583 26.2664 24.6771 26.2888 24.7355ZM28.3222 25.2723C28.927 25.4099 28.9146 25.3753 28.8242 26.6759C28.7632 27.5523 28.7558 27.5643 28.2819 27.5616C27.524 27.5571 27.5183 27.5461 27.6193 26.2916C27.7172 25.0781 27.6834 25.127 28.3222 25.2723ZM23.9574 25.5431C24.0663 25.6335 23.9223 27.2719 23.7824 27.5333C23.7053 27.6773 23.3975 27.749 23.1356 27.684C23.0196 27.6551 22.8928 27.6273 22.8536 27.622C22.797 27.6143 22.7598 27.7881 22.6728 28.4667C22.6124 28.9367 22.5622 29.3253 22.5609 29.33C22.5338 29.4353 22.3615 29.4923 22.0704 29.4923C21.5702 29.4923 21.582 29.519 21.582 28.3929C21.582 27.292 21.5806 27.2951 22.069 27.2946C22.7323 27.294 22.78 27.2377 22.8172 26.4137C22.8463 25.7649 22.8959 25.5803 23.0646 25.4933C23.1922 25.4275 23.8632 25.4649 23.9574 25.5431ZM29.6469 25.5913C29.8038 25.6735 29.8214 27.2876 29.6689 27.5953C29.5638 27.8073 29.0415 27.7513 28.9596 27.5193C28.906 27.367 29.0358 25.6409 29.1074 25.5546C29.1696 25.4796 29.4735 25.5003 29.6469 25.5913ZM23.352 25.8637C23.399 25.876 23.476 25.876 23.523 25.8637C23.57 25.8515 23.5315 25.8413 23.4375 25.8413C23.3435 25.8413 23.305 25.8515 23.352 25.8637ZM11.4396 26.3066C11.5245 26.4003 12.1094 27.9893 12.1094 28.1263C12.1094 28.272 11.66 28.5024 11.5312 28.4227C11.4838 28.3935 10.8889 26.6123 10.8888 26.4993C10.8886 26.2987 11.3018 26.1543 11.4396 26.3066ZM10 27.356C10.6139 28.95 10.6273 29.0285 10.3098 29.1716C9.98389 29.3186 9.98189 29.316 9.61362 28.2493C9.23549 27.1535 9.22656 27.0979 9.40602 26.9566C9.68876 26.7343 9.78562 26.7994 10 27.356ZM28.4859 27.7811C28.6758 27.8533 28.7043 27.9897 28.6753 28.6893C28.6372 29.6111 28.5603 29.7157 27.9492 29.6765C27.4243 29.6429 27.3223 29.5613 27.362 29.2061C27.3789 29.0546 27.4172 28.689 27.4469 28.3935C27.517 27.6956 27.5428 27.664 28.009 27.703C28.2003 27.719 28.4149 27.7541 28.4859 27.7811ZM20.1348 28.3204C20.1348 28.5755 20.143 28.6797 20.1532 28.5523C20.1632 28.4246 20.1632 28.216 20.1532 28.0883C20.143 27.9609 20.1348 28.0651 20.1348 28.3204ZM29.5916 27.9803C29.7289 28.1175 29.6999 29.522 29.5576 29.626C29.3558 29.7736 28.8899 29.6795 28.8416 29.4813C28.7795 29.2264 28.8826 28.0855 28.9772 27.9811C29.1024 27.8427 29.4536 27.8423 29.5916 27.9803ZM34.436 28.4027C34.483 28.4151 34.5599 28.4151 34.6069 28.4027C34.6539 28.3905 34.6155 28.3805 34.5215 28.3805C34.4275 28.3805 34.389 28.3905 34.436 28.4027ZM43.8775 29.4834C43.8639 29.5054 43.9176 29.5139 43.9968 29.5023C44.0759 29.4906 44.1406 29.4726 44.1406 29.4623C44.1406 29.425 43.9018 29.4443 43.8775 29.4834Z" fill="#878056"/>
</g>
<defs>
<clipPath id="clip0_17:38">
<rect width="50" height="50" fill="white"/>
</clipPath>
</defs>
</svg>
