<svg width="50" height="50" viewBox="0 0 50 50" fill="none" xmlns="http://www.w3.org/2000/svg">
<path fill-rule="evenodd" clip-rule="evenodd" d="M25.825 17.7888C25.77 17.8017 25.6646 17.86 25.591 17.9187C25.5172 17.9772 25.3736 18.0813 25.272 18.15C25.1702 18.2188 25.0281 18.3327 24.956 18.4032C24.8049 18.551 24.2454 18.9825 24.025 19.1213C23.9425 19.1732 23.82 19.2697 23.7529 19.3357C23.6856 19.4017 23.4719 19.5774 23.2779 19.7263C23.0838 19.875 22.7338 20.1458 22.5 20.3279C22.2663 20.51 21.8999 20.7912 21.6857 20.9527C21.4716 21.1142 21.1994 21.3258 21.0806 21.4232C20.9619 21.5204 20.8494 21.6 20.8306 21.6C20.812 21.6 20.7174 21.6793 20.6205 21.7762C20.5236 21.873 20.3612 22.0064 20.2596 22.0725C20.1581 22.1387 19.9551 22.3069 19.8086 22.4464C19.6621 22.5859 19.5189 22.7 19.4904 22.7C19.4619 22.7 19.3118 22.8093 19.1568 22.9427C19.0018 23.0762 18.785 23.2422 18.675 23.3117C18.565 23.3812 18.3198 23.5757 18.1301 23.744C17.9404 23.9123 17.7559 24.05 17.7201 24.05C17.6843 24.05 17.6354 24.0852 17.6114 24.128C17.5874 24.1709 17.3894 24.3413 17.1714 24.5068C16.9534 24.6723 16.5725 24.9615 16.325 25.1495C16.0775 25.3375 15.7304 25.617 15.5538 25.7707C15.377 25.9243 15.216 26.05 15.196 26.05C15.1759 26.05 15.0704 26.1232 14.9615 26.2125C14.8528 26.3019 14.6034 26.4988 14.4076 26.65C13.962 26.9943 13.9901 26.8988 13.9978 28.0417C14.0049 29.106 14.0303 29.2185 14.246 29.1449C14.3183 29.1203 17.0095 29.1062 20.3614 29.1129L26.3477 29.125L26.4817 29.259L26.6159 29.3932L26.6145 30.734C26.6136 31.547 26.6326 32.0997 26.6626 32.1375C26.7146 32.2032 27.8134 32.2302 27.9709 32.1697C28.0404 32.143 28.05 31.971 28.05 30.7534V29.3674L28.1702 29.2545C28.277 29.1542 28.3216 29.1455 28.5709 29.1767C28.8916 29.2168 28.9092 29.2349 28.9575 29.575C29.1267 30.7673 30.0252 31.652 31.375 31.9557C32.2159 32.1448 38.6885 32.2974 39.7019 32.1519C39.9346 32.1185 40.306 32.073 40.5271 32.0509C40.8897 32.0144 41.3042 31.9144 41.8761 31.7254C42.9701 31.3639 43.7631 30.3485 43.9501 29.0702C44.0637 28.2929 43.9881 21.194 43.859 20.5257C43.7215 19.8134 43.5284 19.4263 43.1002 19.0048C42.656 18.5672 42.5939 18.5165 42.45 18.4743C42.3812 18.454 42.1924 18.3604 42.0304 18.2662C41.375 17.885 40.5865 17.8119 36.8 17.781C33.7552 17.7562 32.116 17.8113 31.775 17.9499C31.6925 17.9835 31.4731 18.0284 31.2874 18.0497C31.0339 18.0788 30.8742 18.1335 30.6465 18.2692C30.4796 18.3685 30.294 18.4625 30.2341 18.478C29.9572 18.5494 29.2555 19.3302 29.1181 19.7197C29.0799 19.8279 29.029 19.9408 29.005 19.9707C28.981 20.0005 28.9456 20.1263 28.9265 20.25C28.9072 20.3738 28.8597 20.586 28.8207 20.7217C28.7219 21.066 28.7196 23.2305 28.8179 23.4657C28.8552 23.555 28.9025 23.7622 28.923 23.926C28.9434 24.0899 29.0029 24.3077 29.0551 24.41C29.1072 24.5123 29.15 24.6387 29.15 24.6907C29.15 24.879 29.938 25.6779 30.1934 25.7487C30.286 25.7743 30.4009 25.8305 30.4486 25.8738C30.4962 25.9169 30.668 25.9769 30.8301 26.0072C30.9924 26.0374 31.2037 26.0919 31.3 26.1283C31.6151 26.2475 33.0284 26.3004 35.9 26.3002C40.7366 26.2997 41.0061 26.2514 41.9046 25.2247L42.1401 24.9555L42.2042 25.1104C42.3062 25.3567 42.282 28.5735 42.1751 28.974C41.7401 30.6037 41.1222 30.7918 36.2802 30.7689C31.863 30.748 31.2567 30.6238 30.694 29.625L30.525 29.325V28.6179C30.525 27.6178 30.5027 27.6067 28.775 27.7447C28.2967 27.7829 28.182 27.7535 28.1207 27.5775C28.0695 27.43 28.071 27.552 28.06 22.4894L28.05 17.8539L27.8625 17.8063C27.6751 17.7587 26.0141 17.7444 25.825 17.7888ZM26.6107 23.1875C26.6266 27.6185 26.6301 27.5235 26.4434 27.6627C26.3015 27.7684 16.8364 27.8338 16.1375 27.7339C15.647 27.6638 15.7039 27.5652 16.763 26.6492C16.9215 26.5122 17.0678 26.4 17.088 26.4C17.1084 26.3999 17.1925 26.3415 17.275 26.27C17.3575 26.1987 17.5375 26.0648 17.675 25.9725C17.8125 25.8804 17.9956 25.742 18.082 25.665C18.371 25.4074 18.714 25.1255 18.7949 25.0792C18.839 25.054 18.9899 24.9359 19.1304 24.8167C19.2709 24.6975 19.4026 24.6 19.4234 24.6C19.444 24.6 19.5091 24.5573 19.568 24.5049C19.9635 24.1535 20.1351 24.0098 20.2057 23.9702C20.2866 23.925 20.5819 23.6854 20.847 23.45C21.0626 23.2585 21.2761 23.0878 21.875 22.6274C22.6924 21.9993 22.9002 21.8355 23.0201 21.725C23.0799 21.67 23.1947 21.5818 23.2755 21.529C23.3562 21.4763 23.4455 21.4139 23.4737 21.3907C23.5019 21.3673 23.7321 21.1855 23.9853 20.9867C24.2384 20.7878 24.6277 20.4788 24.8505 20.3C25.0734 20.1213 25.3275 19.9235 25.4154 19.8607C25.5031 19.7978 25.6851 19.6515 25.8196 19.5357C26.0974 19.2965 26.2649 19.2099 26.4607 19.204L26.5966 19.2L26.6107 23.1875ZM40 19.3508C40.6827 19.4333 41.112 19.5305 41.1752 19.6169C41.2086 19.6627 41.2609 19.7 41.2914 19.7C41.555 19.7 41.9507 20.1277 42.1241 20.6C42.2629 20.9782 42.2702 22.83 42.1345 23.2143C42.088 23.3459 42.05 23.5303 42.05 23.6242C42.05 23.844 41.639 24.3524 41.3357 24.5075C40.675 24.8457 40.025 24.9007 36.675 24.9022C31.6507 24.9043 31.0614 24.7977 30.5832 23.8L30.4275 23.475L30.4262 22.275C30.4245 20.6097 30.6847 19.8405 31.2909 19.7194C31.3784 19.7019 31.45 19.6685 31.45 19.6453C31.45 19.5883 32.0529 19.4092 32.425 19.3555C32.8272 19.2975 39.5246 19.2933 40 19.3508ZM14.2833 21.7033C14.3194 21.7394 14.3904 21.7409 14.5058 21.7078L14.675 21.659L14.4525 21.6545C14.2953 21.6514 14.2456 21.6657 14.2833 21.7033ZM15.0811 21.89C15.0676 21.912 15.099 21.9565 15.1509 21.989C15.2503 22.051 15.3321 21.9924 15.275 21.9C15.238 21.8402 15.1159 21.8339 15.0811 21.89ZM7.8765 22.9647C7.85513 23.014 7.85163 23.0684 7.86888 23.0855C7.91963 23.1363 7.9605 23.065 7.93713 22.9664C7.9165 22.8792 7.91375 22.879 7.8765 22.9647ZM4.47501 31.85C4.45713 31.8789 4.5035 31.8997 4.5845 31.8993C4.69363 31.8987 4.70826 31.8877 4.65001 31.85C4.55388 31.7879 4.51338 31.7879 4.47501 31.85ZM14.45 31.85C14.3918 31.8877 14.4064 31.8987 14.5155 31.8993C14.5965 31.8997 14.6429 31.8789 14.625 31.85C14.5866 31.7879 14.5461 31.7879 14.45 31.85ZM14.925 31.85C14.9071 31.8789 14.9535 31.8997 15.0345 31.8993C15.1436 31.8987 15.1583 31.8877 15.1 31.85C15.0039 31.7879 14.9634 31.7879 14.925 31.85ZM6.2125 31.887C6.37063 31.8969 6.62938 31.8969 6.7875 31.887C6.94563 31.877 6.81625 31.8689 6.5 31.8689C6.18375 31.8689 6.05438 31.877 6.2125 31.887Z" fill="#B4292B"/>
<path fill-rule="evenodd" clip-rule="evenodd" d="M0 25V50H25H50V25V0H25H0V25ZM28.1772 17.6728L28.3 17.7955V22.4945C28.3 25.4266 28.3184 27.2418 28.3487 27.3218L28.3975 27.45H29.3504C30.7585 27.45 30.7457 27.4401 30.7566 28.5379C30.7622 29.1069 30.7789 29.2449 30.8565 29.3724C30.9078 29.4563 30.9497 29.5604 30.9499 29.6035C30.9501 29.7408 31.2254 29.9462 31.775 30.2192C32.2277 30.4441 32.7501 30.4724 36.475 30.4737C40.14 30.4751 40.3345 30.463 40.8478 30.2011C40.9568 30.1455 41.0716 30.1 41.1029 30.1C41.1341 30.1 41.2619 30.01 41.3869 29.9C41.5119 29.79 41.6334 29.7 41.657 29.7C41.6806 29.7 41.7 29.6627 41.7 29.6174C41.7 29.5719 41.7539 29.42 41.8196 29.2799C41.9575 28.9864 42.05 28.1051 42.05 27.0861C42.05 26.7564 42.0763 26.399 42.1084 26.2917C42.1626 26.1109 42.0892 25.8654 41.9184 25.6554C41.9096 25.6446 41.7755 25.7402 41.6205 25.8679C41.4654 25.9955 41.3148 26.1 41.2858 26.1C41.2566 26.1 41.1948 26.1345 41.1483 26.1766C40.9658 26.3417 40.3959 26.4541 39.475 26.5065C38.4084 26.5671 32.1352 26.5275 31.65 26.457C31.2445 26.3981 30.6195 26.2194 30.4816 26.1227C30.4245 26.0827 30.3369 26.05 30.2869 26.05C30.0092 26.05 29.1065 25.2819 29.0311 24.9815C29.0122 24.9065 28.9307 24.7086 28.8499 24.5417C28.6935 24.2187 28.6 23.8174 28.6 23.4683C28.6 23.3509 28.5662 23.1253 28.525 22.9669C28.4415 22.6461 28.4272 21.8825 28.4991 21.575C28.5249 21.465 28.5719 21.105 28.6036 20.775C28.6355 20.445 28.6926 20.1143 28.7307 20.04C28.7689 19.9658 28.8002 19.8645 28.8006 19.815C28.8015 19.6943 29.0798 19.1512 29.1965 19.0425C29.2479 18.9947 29.2977 18.937 29.3074 18.9144C29.4117 18.6699 30.4854 18.0244 31.0411 17.8721C32.1585 17.5659 32.5821 17.543 36.7211 17.5646C40.2233 17.583 40.4509 17.5896 40.9 17.6864C41.8903 17.8996 42.3839 18.0749 42.5467 18.2711C42.5827 18.3145 42.6387 18.35 42.6711 18.35C42.7729 18.35 43.65 19.0925 43.65 19.1786C43.65 19.1998 43.6806 19.2526 43.718 19.2961C43.844 19.4424 44.0489 20.0725 44.0768 20.4C44.092 20.5787 44.1389 20.9523 44.181 21.2299C44.2459 21.6588 44.2542 22.2875 44.2365 25.4049C44.2136 29.3951 44.2004 29.5974 43.9246 30.1804C43.8561 30.3252 43.8 30.4597 43.8 30.4792C43.8 30.628 42.8938 31.5277 42.6375 31.6335C42.5344 31.676 42.45 31.7291 42.45 31.7515C42.45 31.7737 42.3835 31.8066 42.3021 31.8245C42.2209 31.8424 42.069 31.8979 41.9646 31.9478C41.8604 31.9976 41.6786 32.0544 41.5607 32.0739C41.443 32.0934 41.2786 32.1432 41.1956 32.1846C40.5605 32.5015 31.6796 32.4699 31.275 32.1493C31.2475 32.1275 31.0954 32.0936 30.9368 32.074C30.7783 32.0544 30.5983 31.9989 30.5368 31.9506C30.4754 31.9025 30.352 31.8471 30.2628 31.8276C30.1736 31.8081 30.0836 31.7636 30.0627 31.7288C30.042 31.6939 29.9162 31.583 29.7834 31.4824C29.281 31.1022 28.8 30.2957 28.8 29.8337C28.8 29.5401 28.6202 29.3924 28.4215 29.5228L28.3 29.6022V30.8934C28.3 32.4874 28.367 32.3676 27.4627 32.3918C26.3006 32.4228 26.3017 32.4236 26.3604 31.45C26.415 30.5438 26.3849 29.6773 26.295 29.569C26.161 29.4075 25.9096 29.4008 20.0155 29.399C13.4896 29.3971 13.7822 29.4097 13.726 29.1255C13.6136 28.5566 13.6809 26.9742 13.8219 26.8711C13.8725 26.8341 13.9391 26.7524 13.97 26.6894C14.0009 26.6265 14.1721 26.4789 14.3506 26.3614C14.529 26.2438 14.7425 26.0836 14.825 26.0054C14.9075 25.9271 15.0425 25.8211 15.125 25.7699C15.2075 25.7186 15.3025 25.6397 15.336 25.5945C15.3696 25.5494 15.5103 25.4397 15.6485 25.351C15.7869 25.2622 15.9 25.1734 15.9 25.1536C15.9 25.1128 16.2882 24.85 16.3487 24.85C16.3706 24.85 16.4254 24.7938 16.4704 24.725C16.5155 24.6563 16.5814 24.6 16.617 24.6C16.6525 24.6 16.8151 24.4753 16.9783 24.3228C17.2756 24.045 17.759 23.7 17.851 23.7C17.8779 23.7 17.9 23.6669 17.9 23.6262C17.9 23.5857 17.9635 23.5197 18.0413 23.4795C18.1189 23.4394 18.2545 23.3392 18.3425 23.257C18.4305 23.1747 18.5214 23.1001 18.5444 23.0912C18.6077 23.0666 18.8867 22.8456 19.0921 22.6572C19.1926 22.5649 19.3538 22.4487 19.45 22.3991C19.5463 22.3494 19.7025 22.228 19.7973 22.1294C19.8921 22.0308 19.9949 21.95 20.0259 21.95C20.0569 21.95 20.2073 21.8319 20.36 21.6875C20.5129 21.5431 20.7363 21.3512 20.8565 21.261C21.4264 20.8334 22.4805 20.0253 23.1534 19.5C23.4529 19.2662 23.8351 18.9738 24.0028 18.85C24.1705 18.7263 24.4016 18.5416 24.5164 18.4398C25.6205 17.4591 25.3593 17.5588 26.8398 17.554L28.0545 17.55L28.1772 17.6728ZM46.625 18.1C46.642 18.1275 46.7165 18.1504 46.7905 18.1507C46.8645 18.1511 46.9734 18.1792 47.0325 18.2132C47.5636 18.5185 47.6499 18.5825 47.65 18.6717C47.65 18.725 47.697 18.8186 47.7544 18.8796C48.1276 19.277 47.6488 20.6977 47.1409 20.7004C47.1046 20.7005 47.0075 20.7454 46.925 20.8C46.678 20.9636 45.7764 20.8512 45.708 20.6484C45.6986 20.6206 45.6289 20.5657 45.553 20.5266C45.2076 20.3479 44.9356 19.2215 45.1792 18.9779C45.2227 18.9344 45.2802 18.8198 45.3069 18.7234C45.3956 18.4019 46.4914 17.8838 46.625 18.1ZM46.2 18.8851C46.0494 18.94 45.8505 19.1715 45.8215 19.3258C45.6661 20.1545 46.8474 20.4736 47.1213 19.677C47.3031 19.148 46.7603 18.6814 46.2 18.8851ZM35.425 19.5019C33.2267 19.539 32.2893 19.6079 31.9718 19.7555C31.8599 19.8075 31.7361 19.8503 31.6968 19.8505C31.5621 19.8514 31.1468 20.0824 31.0615 20.2038C30.5521 20.9295 30.5106 23.1053 30.9894 23.9909C31.0537 24.1099 31.5615 24.3443 32.075 24.4918C32.8028 24.701 39.801 24.7392 40.4 24.5374C40.5238 24.4956 40.7335 24.4358 40.866 24.4041C41.6084 24.2275 41.8813 23.7889 41.9576 22.65C42.0075 21.9065 41.9459 20.611 41.8579 20.5531C41.8343 20.5376 41.7855 20.4691 41.7495 20.401C41.6836 20.2759 41.5141 20.1228 41.3266 20.0186C40.7675 19.7081 40.7855 19.7132 40.0459 19.6532C39.6494 19.621 39.235 19.5746 39.125 19.5502C38.8128 19.4809 37.6014 19.465 35.425 19.5019ZM25.95 19.8018C25.8538 19.8849 25.6963 19.9954 25.6 20.0471C25.5038 20.0989 25.3575 20.2078 25.275 20.2891C25.0897 20.4719 24.7304 20.7475 24.5081 20.8775C24.4164 20.9311 24.2476 21.0618 24.1331 21.1676C24.0186 21.2736 23.8238 21.4297 23.7 21.5145C23.4301 21.6994 22.9821 22.0514 22.775 22.2414C22.6924 22.317 22.4462 22.513 22.2279 22.677C22.0096 22.8409 21.78 23.0256 21.7178 23.0875C21.6555 23.1494 21.5839 23.2 21.5586 23.2C21.5335 23.2 21.36 23.3462 21.1731 23.525C20.9862 23.7037 20.8073 23.85 20.7754 23.85C20.7435 23.85 20.6646 23.9063 20.6 23.975C20.5354 24.0438 20.4576 24.1 20.427 24.1C20.3965 24.1 20.226 24.2341 20.0483 24.3979C19.6391 24.775 19.3521 25 19.2801 25C19.2492 25 19.196 25.045 19.1616 25.1C19.1272 25.155 19.0761 25.2 19.0479 25.2C19.0197 25.2 18.913 25.2842 18.8109 25.3874C18.5946 25.6052 18.3717 25.7766 18.2125 25.8475C18.1506 25.875 18.1 25.9173 18.1 25.9414C18.1 26.0014 17.55 26.4281 17.42 26.469C17.3623 26.4871 17.2029 26.6084 17.0659 26.7385C16.9289 26.8686 16.7551 27.0254 16.6799 27.0869C16.5886 27.1615 16.5483 27.2365 16.559 27.3119C16.5878 27.5145 16.9191 27.5268 21.6614 27.5L26.0977 27.475L26.2364 27.3364L26.375 27.1978L26.3885 23.7086C26.4051 19.4035 26.4056 19.4079 25.95 19.8018ZM7.50325 21.1518C7.59175 21.1991 7.6 21.2626 7.6 21.8988C7.6 22.6926 7.61825 22.7276 7.88037 22.4375C8.75875 21.4653 9.79588 21.1464 12.125 21.1326C13.5546 21.1243 14.3466 21.211 14.975 21.4447C15.0575 21.4755 15.2206 21.5239 15.3375 21.5522C15.4544 21.5806 15.55 21.6238 15.55 21.648C15.55 21.6723 15.6231 21.7074 15.7125 21.726C16.1016 21.8072 17.0076 22.5854 17.1741 22.9814C17.2103 23.0674 17.2646 23.1531 17.2949 23.1719C17.4436 23.2638 17.2976 23.8 17.1239 23.8C17.0851 23.8 16.9864 23.8619 16.9045 23.9375C16.6807 24.144 16.6298 24.182 16.4578 24.271C16.371 24.3159 16.3 24.373 16.3 24.3979C16.3 24.4229 16.2582 24.4565 16.2071 24.4727C16.156 24.489 16.012 24.603 15.8871 24.7261C15.7623 24.8493 15.6439 24.95 15.624 24.95C15.5441 24.95 15.1535 25.2293 15.1519 25.2875C15.1509 25.3219 15.1312 25.35 15.1082 25.35C15.0562 25.35 14.6346 25.6698 14.4 25.8871C14.3037 25.9763 14.2034 26.0494 14.1769 26.0496C14.1504 26.0498 14.0816 26.1091 14.024 26.1814C13.8566 26.3913 13.5485 26.0424 13.5498 25.6445C13.55 25.5485 13.2481 24.95 13.1993 24.95C13.1806 24.95 13.1128 24.9044 13.0484 24.8486C12.9841 24.7929 12.8739 24.7351 12.8033 24.7204C12.7328 24.7055 12.5737 24.6495 12.45 24.5959C12.028 24.413 9.71563 24.375 9.225 24.543C8.5845 24.7622 8.38163 24.8851 8.06538 25.2456C7.95013 25.377 7.83963 25.5499 7.82 25.6297C7.80025 25.7096 7.75437 25.821 7.718 25.8773C7.62212 26.0255 7.61063 26.3801 7.605 29.3625C7.60013 31.9799 7.59737 32.0526 7.5 32.15C7.36275 32.2873 3.85437 32.3075 3.66112 32.1721L3.55 32.0944V26.6571C3.55 22.4949 3.56412 21.2059 3.61 21.16C3.68862 21.0814 7.35725 21.0736 7.50325 21.1518ZM17.6341 29.8035L17.7519 29.8482L17.7385 30.9562L17.725 32.0643L17.596 32.1606C17.4524 32.2678 14.0949 32.3026 13.8244 32.1997L13.7 32.1525V31.0176C13.7 30.1046 13.714 29.8675 13.7714 29.8039C13.8521 29.7146 17.3994 29.7142 17.6341 29.8035Z" fill="#FBFBFB"/>
<path fill-rule="evenodd" clip-rule="evenodd" d="M25.55 17.5862C25.4648 17.6184 25.13 17.8947 24.5164 18.4397C24.4016 18.5416 24.1705 18.7262 24.0028 18.85C23.8351 18.9737 23.4529 19.2662 23.1534 19.5C22.4805 20.0252 21.4264 20.8334 20.8565 21.261C20.7363 21.3512 20.5129 21.5431 20.36 21.6875C20.2073 21.8319 20.0569 21.95 20.0259 21.95C19.9949 21.95 19.8921 22.0307 19.7973 22.1294C19.7025 22.228 19.5463 22.3494 19.45 22.3991C19.3538 22.4487 19.1926 22.5649 19.0921 22.6572C18.8868 22.8456 18.6078 23.0666 18.5444 23.0912C18.5214 23.1001 18.4305 23.1747 18.3425 23.257C18.2545 23.3392 18.1189 23.4394 18.0413 23.4795C17.9635 23.5197 17.9 23.5857 17.9 23.6262C17.9 23.6669 17.8779 23.7 17.851 23.7C17.759 23.7 17.2756 24.045 16.9783 24.3227C16.8151 24.4752 16.6525 24.6 16.617 24.6C16.5814 24.6 16.5155 24.6562 16.4704 24.725C16.4254 24.7937 16.3706 24.85 16.3488 24.85C16.2883 24.85 15.9 25.1127 15.9 25.1536C15.9 25.1734 15.7869 25.2622 15.6485 25.351C15.5103 25.4397 15.3696 25.5494 15.336 25.5945C15.3025 25.6397 15.2075 25.7186 15.125 25.7699C15.0425 25.8211 14.9075 25.9271 14.825 26.0054C14.7425 26.0836 14.529 26.2437 14.3506 26.3614C14.1721 26.4789 14.0009 26.6265 13.97 26.6894C13.9391 26.7524 13.8725 26.8341 13.8219 26.8711C13.6809 26.9742 13.6136 28.5566 13.726 29.1255C13.7823 29.4097 13.4896 29.3971 20.0155 29.399C25.9096 29.4007 26.161 29.4075 26.295 29.569C26.3849 29.6772 26.415 30.5437 26.3604 31.45C26.3018 32.4236 26.3006 32.4227 27.4628 32.3917C28.367 32.3676 28.3 32.4874 28.3 30.8934V29.6022L28.4215 29.5227C28.6203 29.3924 28.8 29.5401 28.8 29.8337C28.8 30.2957 29.281 31.1022 29.7834 31.4824C29.9163 31.583 30.042 31.6939 30.0628 31.7287C30.0836 31.7636 30.1736 31.8081 30.2628 31.8276C30.352 31.8471 30.4754 31.9025 30.5368 31.9506C30.5983 31.9989 30.7783 32.0544 30.9368 32.074C31.0954 32.0936 31.2475 32.1275 31.275 32.1492C31.6796 32.4699 40.5605 32.5015 41.1956 32.1846C41.2786 32.1432 41.443 32.0934 41.5608 32.0739C41.6786 32.0544 41.8604 31.9976 41.9646 31.9477C42.069 31.8979 42.2209 31.8424 42.3021 31.8245C42.3835 31.8066 42.45 31.7737 42.45 31.7515C42.45 31.7291 42.5344 31.676 42.6375 31.6335C42.8938 31.5277 43.8 30.628 43.8 30.4792C43.8 30.4597 43.8561 30.3252 43.9246 30.1804C44.2004 29.5974 44.2136 29.3951 44.2365 25.4049C44.2543 22.2875 44.2459 21.6587 44.181 21.2299C44.1389 20.9522 44.092 20.5787 44.0768 20.4C44.0489 20.0725 43.844 19.4424 43.718 19.2961C43.6806 19.2526 43.65 19.1997 43.65 19.1786C43.65 19.0925 42.7729 18.35 42.6711 18.35C42.6388 18.35 42.5828 18.3145 42.5468 18.2711C42.3839 18.0749 41.8903 17.8996 40.9 17.6864C40.4509 17.5896 40.2233 17.583 36.7211 17.5646C32.5821 17.543 32.1585 17.5659 31.0411 17.8721C30.4854 18.0244 29.4118 18.6699 29.3074 18.9144C29.2978 18.937 29.2479 18.9947 29.1965 19.0425C29.0798 19.1512 28.8015 19.6942 28.8006 19.815C28.8003 19.8645 28.7689 19.9657 28.7308 20.04C28.6926 20.1142 28.6355 20.445 28.6036 20.775C28.5719 21.105 28.5249 21.465 28.4991 21.575C28.4273 21.8825 28.4415 22.6461 28.525 22.9669C28.5663 23.1252 28.6 23.3509 28.6 23.4682C28.6 23.8174 28.6935 24.2187 28.8499 24.5417C28.9308 24.7086 29.0123 24.9065 29.0311 24.9815C29.1065 25.2819 30.0093 26.05 30.2869 26.05C30.3369 26.05 30.4245 26.0827 30.4816 26.1227C30.6195 26.2194 31.2445 26.3981 31.65 26.457C32.1353 26.5275 38.4084 26.5671 39.475 26.5065C40.3959 26.4541 40.9658 26.3417 41.1483 26.1766C41.1948 26.1345 41.2566 26.1 41.2858 26.1C41.3148 26.1 41.4654 25.9955 41.6205 25.8679C41.7755 25.7402 41.9096 25.6446 41.9184 25.6554C42.0893 25.8654 42.1626 26.1109 42.1084 26.2917C42.0763 26.399 42.05 26.7564 42.05 27.0861C42.05 28.1051 41.9575 28.9864 41.8196 29.2799C41.7539 29.42 41.7 29.5719 41.7 29.6174C41.7 29.6627 41.6806 29.7 41.657 29.7C41.6334 29.7 41.5119 29.79 41.3869 29.9C41.2619 30.01 41.1341 30.1 41.1029 30.1C41.0716 30.1 40.9568 30.1455 40.8478 30.2011C40.3345 30.463 40.14 30.4751 36.475 30.4737C32.7501 30.4724 32.2278 30.4441 31.775 30.2192C31.2254 29.9462 30.9501 29.7407 30.9499 29.6035C30.9498 29.5604 30.9078 29.4562 30.8565 29.3724C30.7789 29.2449 30.7623 29.1069 30.7566 28.5379C30.7458 27.4401 30.7585 27.45 29.3504 27.45H28.3975L28.3488 27.3217C28.3184 27.2417 28.3 25.4266 28.3 22.4945V17.7955L28.1773 17.6727L28.0545 17.55L26.8398 17.554C26.1716 17.5561 25.5913 17.5706 25.55 17.5862ZM27.85 17.6934C28.208 17.7839 28.1746 17.2849 28.1781 22.609C28.1805 26.2655 28.1955 27.4012 28.2424 27.4875C28.3028 27.5986 28.3165 27.6 29.343 27.6H30.3826L30.5038 27.7289C30.618 27.8504 30.6266 27.9016 30.6528 28.6164C30.6949 29.7654 31.037 30.2114 32.075 30.4712C33.0643 30.719 39.5748 30.7274 40.5009 30.4822C41.8831 30.1162 42.181 29.4854 42.195 26.8949C42.2039 25.2362 42.1848 25.1924 41.6505 25.65C41.5061 25.7737 41.3513 25.895 41.3065 25.9194C41.2616 25.9437 41.18 26.0026 41.125 26.0504C40.5694 26.5319 32.4249 26.5981 30.8976 26.1335C29.6311 25.7482 29.1215 25.207 28.794 23.9C28.533 22.8584 28.6731 20.0615 29.0031 19.7275C29.0289 19.7014 29.05 19.6475 29.05 19.6076C29.05 19.4812 29.3906 19.0165 29.6294 18.8172C29.756 18.7115 29.891 18.5955 29.9294 18.5594C30.4174 18.1 31.4993 17.804 33.075 17.699C34.4095 17.61 39.8365 17.659 40.55 17.7665C42.768 18.1007 43.763 18.9806 44.0085 20.825C44.1214 21.6732 44.1035 29.0639 43.9875 29.5156C43.6529 30.8181 42.6294 31.746 41.2 32.0426C39.6529 32.3636 33.0904 32.3714 31.4081 32.0541C30.5035 31.8835 29.5753 31.3117 29.2621 30.732C29.0786 30.3925 28.9405 30.0115 28.899 29.7302C28.8466 29.3751 28.8329 29.3595 28.5405 29.3194C28.2044 29.2732 28.202 29.2834 28.1868 30.8014C28.1749 31.9725 28.1645 32.1157 28.0873 32.1722C27.9523 32.271 26.8139 32.3097 26.643 32.2214L26.5073 32.1512L26.4911 30.8022C26.4769 29.6127 26.465 29.4434 26.39 29.3685C26.311 29.2895 25.871 29.2829 20.1924 29.2752L14.0799 29.267L13.9774 29.1299C13.8569 28.9684 13.8123 27.3761 13.9191 27.0507C13.9764 26.8765 14.2319 26.6399 14.9458 26.1C15.1458 25.9487 15.5309 25.645 15.8016 25.425C16.0724 25.205 16.4859 24.8787 16.7205 24.7C17.8209 23.8617 18.011 23.7134 18.0419 23.6694C18.0601 23.6435 18.255 23.4881 18.475 23.3244C18.695 23.1605 18.92 22.9881 18.975 22.9412C19.03 22.8944 19.1303 22.8086 19.1978 22.7507C19.2653 22.6929 19.4003 22.5971 19.4978 22.5381C19.5953 22.4791 19.72 22.384 19.775 22.327C19.83 22.2699 19.9645 22.1561 20.074 22.0741C20.3766 21.8474 20.456 21.7836 20.5675 21.6775C20.6239 21.6239 20.8286 21.462 21.0225 21.3177C21.2164 21.1736 21.3975 21.0372 21.425 21.0147C21.4525 20.9922 21.7788 20.7386 22.15 20.451C22.5213 20.1634 22.8475 19.91 22.875 19.8877C22.9025 19.8655 23.0938 19.7194 23.3 19.563C23.5063 19.4066 23.6863 19.2657 23.7 19.25C23.7138 19.2342 23.9388 19.0656 24.2 18.8754C24.4613 18.6851 24.7723 18.4337 24.8913 18.3166C25.1833 18.0291 25.6551 17.7126 25.8311 17.6864C26.0579 17.6526 27.7113 17.6584 27.85 17.6934ZM46.075 18.1679C45.6061 18.3437 45.3631 18.5195 45.3069 18.7234C45.2803 18.8197 45.2228 18.9344 45.1793 18.9779C44.9356 19.2215 45.2076 20.3479 45.553 20.5266C45.6289 20.5657 45.6986 20.6206 45.708 20.6484C45.7764 20.8512 46.678 20.9636 46.925 20.8C47.0075 20.7454 47.1046 20.7005 47.1409 20.7004C47.6488 20.6977 48.1276 19.277 47.7544 18.8796C47.697 18.8186 47.65 18.725 47.65 18.6717C47.6499 18.5825 47.5636 18.5185 47.0325 18.2132C46.9734 18.1792 46.8645 18.1511 46.7905 18.1507C46.7165 18.1504 46.642 18.1275 46.625 18.1C46.5774 18.023 46.4038 18.0444 46.075 18.1679ZM47.1435 18.3579C48.1029 18.932 48.0016 20.2377 46.964 20.6704C45.5079 21.2774 44.4174 19.0762 45.8216 18.3641C46.2701 18.1366 46.7699 18.1342 47.1435 18.3579ZM46.3735 18.7504C45.9474 18.8105 45.7185 19.1291 45.7664 19.5955C45.8268 20.1834 46.5215 20.4415 46.9739 20.0442C47.5654 19.5249 47.1549 18.6402 46.3735 18.7504ZM46.9001 18.9501C47.1074 19.0977 47.2074 19.4264 47.1213 19.677C46.8474 20.4736 45.6661 20.1545 45.8215 19.3257C45.8983 18.9171 46.5399 18.6936 46.9001 18.9501ZM33.8 19.4029C32.4958 19.4414 31.9298 19.5267 31.5198 19.7464C31.4135 19.8034 31.3078 19.85 31.2849 19.85C30.5795 19.85 30.2016 22.7392 30.7624 23.8462C31.184 24.6787 31.8898 24.7954 36.5194 24.7982C41.1245 24.801 41.7963 24.626 41.996 23.3711C42.0306 23.1532 42.0795 22.8527 42.1045 22.7034C42.3328 21.3402 41.9675 20.0319 41.301 19.8245C41.2328 19.8032 41.1203 19.7455 41.051 19.6961C40.9763 19.6429 40.7521 19.5841 40.5 19.5519C40.2663 19.5219 39.9625 19.4731 39.825 19.4435C39.5203 19.378 35.5501 19.3511 33.8 19.4029ZM26.2161 19.438C26.1563 19.4479 26.01 19.5411 25.8911 19.6452C25.7723 19.7492 25.5933 19.8885 25.4934 19.9547C25.3934 20.0209 25.1469 20.21 24.9454 20.375C24.7439 20.54 24.507 20.72 24.4189 20.775C24.3308 20.83 24.1049 21.0012 23.9169 21.1555C23.7289 21.3099 23.47 21.5124 23.3416 21.6055C23.2134 21.6987 22.7859 22.035 22.3916 22.3527C21.9975 22.6706 21.5861 22.9969 21.4775 23.0777C21.3688 23.1587 21.1738 23.3222 21.0441 23.441C20.9145 23.5599 20.663 23.7624 20.4851 23.891C20.3073 24.0197 20.005 24.26 19.8133 24.425C19.6216 24.59 19.2758 24.8646 19.0449 25.0354C18.814 25.206 18.4225 25.5151 18.175 25.7224C17.9275 25.9296 17.6981 26.1215 17.6654 26.1489C17.6326 26.1761 17.5009 26.265 17.3726 26.3464C16.8671 26.667 16.0555 27.4416 16.1584 27.5052C16.3149 27.6019 17.0269 27.6167 21.4303 27.6146C26.6149 27.6121 26.3904 27.6259 26.455 27.3089C26.5043 27.067 26.5069 20.1279 26.4578 19.7856C26.4116 19.464 26.3753 19.4116 26.2161 19.438ZM39.125 19.5502C39.235 19.5746 39.6494 19.621 40.0459 19.6532C40.7855 19.7132 40.7675 19.7081 41.3266 20.0186C41.5141 20.1227 41.6836 20.2759 41.7495 20.401C41.7855 20.4691 41.8343 20.5376 41.8579 20.5531C41.9459 20.611 42.0075 21.9065 41.9576 22.65C41.8813 23.7889 41.6084 24.2275 40.866 24.4041C40.7335 24.4357 40.5238 24.4956 40.4 24.5374C39.801 24.7392 32.8028 24.701 32.075 24.4917C31.5615 24.3442 31.0538 24.1099 30.9894 23.9909C30.5106 23.1052 30.5521 20.9295 31.0615 20.2037C31.1468 20.0824 31.5621 19.8514 31.6968 19.8505C31.7361 19.8502 31.8599 19.8075 31.9718 19.7555C32.4675 19.5251 38.2631 19.3587 39.125 19.5502ZM26.363 19.9472C26.3844 20.0969 26.3959 21.7895 26.3885 23.7086L26.375 27.1977L26.2364 27.3364L26.0978 27.475L21.6614 27.5C16.9191 27.5267 16.5878 27.5145 16.559 27.3119C16.5483 27.2365 16.5886 27.1615 16.6799 27.0869C16.7551 27.0254 16.9289 26.8686 17.0659 26.7385C17.2029 26.6084 17.3623 26.4871 17.42 26.469C17.55 26.4281 18.1 26.0014 18.1 25.9414C18.1 25.9172 18.1506 25.875 18.2125 25.8475C18.3718 25.7766 18.5946 25.6052 18.8109 25.3874C18.913 25.2842 19.0198 25.2 19.0479 25.2C19.0761 25.2 19.1273 25.155 19.1616 25.1C19.196 25.045 19.2493 25 19.2801 25C19.3521 25 19.6391 24.775 20.0483 24.3979C20.226 24.2341 20.3965 24.1 20.427 24.1C20.4576 24.1 20.5354 24.0437 20.6 23.975C20.6646 23.9062 20.7435 23.85 20.7754 23.85C20.8073 23.85 20.9863 23.7037 21.1731 23.525C21.36 23.3462 21.5335 23.2 21.5586 23.2C21.5839 23.2 21.6555 23.1494 21.7178 23.0875C21.78 23.0256 22.0096 22.8409 22.2279 22.677C22.4463 22.513 22.6924 22.317 22.775 22.2414C22.9821 22.0514 23.4301 21.6994 23.7 21.5145C23.8238 21.4297 24.0186 21.2736 24.1331 21.1676C24.2476 21.0617 24.4164 20.9311 24.5081 20.8775C24.7304 20.7475 25.0898 20.4719 25.275 20.2891C25.3575 20.2077 25.5038 20.0989 25.6 20.0471C25.6963 19.9954 25.8538 19.8849 25.95 19.8017C26.2101 19.5769 26.3153 19.6139 26.363 19.9472ZM3.61002 21.16C3.56414 21.2059 3.55002 22.4949 3.55002 26.6571V32.0944L3.66114 32.1721C3.85439 32.3075 7.36277 32.2872 7.50002 32.15C7.59739 32.0526 7.60014 31.9799 7.60502 29.3625C7.61064 26.3801 7.62214 26.0255 7.71802 25.8772C7.75439 25.821 7.80027 25.7096 7.82002 25.6297C7.83964 25.5499 7.95014 25.377 8.06539 25.2456C8.38164 24.8851 8.58452 24.7622 9.22502 24.543C9.71564 24.375 12.028 24.413 12.45 24.5959C12.5738 24.6495 12.7328 24.7055 12.8033 24.7204C12.8739 24.7351 12.9841 24.7929 13.0484 24.8486C13.1128 24.9044 13.1806 24.95 13.1993 24.95C13.2481 24.95 13.55 25.5485 13.5498 25.6445C13.5485 26.0424 13.8566 26.3912 14.024 26.1814C14.0816 26.1091 14.1504 26.0497 14.1769 26.0496C14.2034 26.0494 14.3038 25.9762 14.4 25.8871C14.6346 25.6697 15.0563 25.35 15.1083 25.35C15.1313 25.35 15.1509 25.3219 15.1519 25.2875C15.1535 25.2292 15.5441 24.95 15.624 24.95C15.6439 24.95 15.7623 24.8492 15.8871 24.7261C16.012 24.603 16.156 24.489 16.2071 24.4727C16.2583 24.4565 16.3 24.4229 16.3 24.3979C16.3 24.373 16.371 24.3159 16.4578 24.271C16.6298 24.182 16.6808 24.144 16.9045 23.9375C16.9864 23.8619 17.0851 23.8 17.1239 23.8C17.2976 23.8 17.4436 23.2637 17.2949 23.1719C17.2646 23.1531 17.2103 23.0674 17.1741 22.9814C17.0076 22.5854 16.1016 21.8072 15.7125 21.726C15.6231 21.7074 15.55 21.6722 15.55 21.648C15.55 21.6237 15.4544 21.5806 15.3375 21.5522C15.2206 21.5239 15.0575 21.4755 14.975 21.4447C13.7666 20.9951 10.4634 21.0125 9.32627 21.4745C8.67627 21.7386 8.26327 22.0136 7.88039 22.4375C7.61827 22.7276 7.60002 22.6926 7.60002 21.8987C7.60002 21.2626 7.59177 21.1991 7.50327 21.1517C7.35727 21.0736 3.68864 21.0814 3.61002 21.16ZM7.46664 21.2722C7.52052 21.3457 7.53564 21.5169 7.52827 21.9722C7.51414 22.8404 7.57077 22.9364 7.88052 22.5697C8.27202 22.1061 8.91164 21.6964 9.57502 21.4842C10.5403 21.1755 13.2178 21.1124 14.3 21.3729C14.9993 21.5412 15.2376 21.6114 15.4 21.697C15.4963 21.7476 15.6538 21.8056 15.75 21.8259C15.8463 21.846 15.9363 21.8774 15.95 21.8954C15.9638 21.9134 16.0709 21.9975 16.1881 22.0822C16.7268 22.4719 17.1716 22.9947 17.2635 23.3464C17.2973 23.4752 17.1538 23.6432 16.758 23.9382C16.6574 24.0132 16.3635 24.2434 16.1049 24.4497C15.6101 24.8447 15.2416 25.1216 14.9493 25.3182C14.8526 25.3832 14.743 25.4732 14.7056 25.5182C14.6683 25.5632 14.616 25.6 14.5894 25.6C14.5406 25.6 14.0058 26.032 13.9393 26.125C13.8793 26.2091 13.7463 26.0305 13.6933 25.7945C13.557 25.1882 13.226 24.7691 12.7614 24.6145C12.6314 24.5712 12.5025 24.5189 12.475 24.4981C12.1243 24.234 9.40589 24.2942 8.86152 24.5782C8.78639 24.6174 8.70252 24.6499 8.67502 24.6506C8.44927 24.6561 7.93802 25.1782 7.72089 25.625L7.57502 25.925L7.55002 28.942L7.52502 31.9589L7.40314 32.0575C7.27877 32.1582 3.77189 32.1887 3.67339 32.09C3.65414 32.0707 3.64139 29.6745 3.64502 26.765C3.64852 23.8555 3.65114 21.4144 3.65077 21.3402C3.64977 21.171 3.59802 21.175 5.76014 21.175C7.32239 21.175 7.39852 21.1794 7.46664 21.2722ZM13.7714 29.8039C13.714 29.8675 13.7 30.1046 13.7 31.0176V32.1525L13.8244 32.1997C14.0949 32.3026 17.4524 32.2677 17.596 32.1606L17.725 32.0642L17.7385 30.9562L17.7519 29.8482L17.6341 29.8035C17.3994 29.7142 13.8521 29.7146 13.7714 29.8039ZM17.5598 29.89C17.6256 29.9557 17.6778 31.679 17.6218 31.9392C17.5769 32.1481 17.0796 32.1775 14.0375 32.1507C13.7838 32.1485 13.7496 32.014 13.755 31.0375C13.7609 29.9632 13.7756 29.8844 13.9768 29.8501C14.3329 29.7894 17.4943 29.8246 17.5598 29.89Z" fill="#D59A97"/>
<path fill-rule="evenodd" clip-rule="evenodd" d="M25.8311 17.6864C25.6551 17.7126 25.1832 18.0291 24.8912 18.3166C24.7722 18.4338 24.4612 18.6851 24.2 18.8754C23.9387 19.0656 23.7137 19.2343 23.7 19.25C23.6862 19.2658 23.5062 19.4066 23.3 19.563C23.0937 19.7194 22.9025 19.8655 22.875 19.8878C22.8475 19.91 22.5212 20.1634 22.15 20.451C21.7787 20.7386 21.4525 20.9923 21.425 21.0148C21.3975 21.0373 21.2164 21.1736 21.0225 21.3178C20.8286 21.462 20.6239 21.6239 20.5675 21.6775C20.456 21.7836 20.3766 21.8474 20.074 22.0741C19.9645 22.1561 19.83 22.2699 19.775 22.327C19.72 22.384 19.5952 22.4791 19.4977 22.5381C19.4002 22.5971 19.2652 22.6929 19.1977 22.7508C19.1302 22.8086 19.03 22.8944 18.975 22.9413C18.92 22.9881 18.695 23.1605 18.475 23.3244C18.255 23.4881 18.0601 23.6435 18.0419 23.6694C18.011 23.7134 17.8209 23.8618 16.7205 24.7C16.4859 24.8788 16.0724 25.205 15.8016 25.425C15.5309 25.645 15.1457 25.9488 14.9457 26.1C14.2319 26.6399 13.9764 26.8765 13.9191 27.0508C13.8122 27.3761 13.8569 28.9684 13.9774 29.1299L14.0799 29.267L20.1924 29.2753C25.871 29.2829 26.311 29.2895 26.39 29.3685C26.4644 29.4429 26.4781 29.6196 26.5 30.7893C26.5324 32.5158 26.6171 32.4415 26.6161 30.6875L26.6154 29.3926L26.4815 29.2588L26.3477 29.125L20.3614 29.1129C17.0095 29.1061 14.3182 29.1203 14.246 29.1449C14.0302 29.2185 14.0049 29.106 13.9977 28.0416C13.9901 26.8988 13.962 26.9943 14.4076 26.65C14.6034 26.4988 14.8527 26.3019 14.9615 26.2125C15.0704 26.1231 15.1759 26.05 15.196 26.05C15.216 26.05 15.377 25.9243 15.5537 25.7706C15.7304 25.617 16.0775 25.3375 16.325 25.1495C16.5725 24.9615 16.9534 24.6723 17.1714 24.5068C17.3894 24.3413 17.5874 24.1709 17.6114 24.128C17.6354 24.0851 17.6842 24.05 17.7201 24.05C17.7559 24.05 17.9404 23.9123 18.1301 23.744C18.3197 23.5756 18.565 23.3811 18.675 23.3116C18.785 23.2421 19.0017 23.0761 19.1567 22.9426C19.3117 22.8093 19.4619 22.7 19.4904 22.7C19.5189 22.7 19.6621 22.5859 19.8086 22.4464C19.9551 22.3069 20.1581 22.1386 20.2596 22.0725C20.3612 22.0064 20.5236 21.873 20.6205 21.7761C20.7174 21.6793 20.812 21.6 20.8306 21.6C20.8494 21.6 20.9619 21.5204 21.0806 21.4231C21.1994 21.3258 21.4716 21.1141 21.6857 20.9526C21.8999 20.7911 22.2662 20.51 22.5 20.3279C22.7337 20.1458 23.0837 19.875 23.2779 19.7263C23.4719 19.5774 23.6856 19.4016 23.7529 19.3356C23.82 19.2696 23.9425 19.1731 24.025 19.1213C24.2454 18.9825 24.8049 18.551 24.956 18.4031C25.0281 18.3326 25.1702 18.2188 25.272 18.15C25.3736 18.0813 25.5271 17.9688 25.613 17.9C25.7857 17.7616 27.4347 17.6916 27.8625 17.8044L28.05 17.8539L28.06 22.4894C28.071 27.552 28.0695 27.43 28.1207 27.5775C28.182 27.7535 28.2967 27.7829 28.775 27.7446C30.5027 27.6066 30.525 27.6178 30.525 28.6179V29.325L30.694 29.625C31.2567 30.6238 31.863 30.748 36.2802 30.7689C41.1222 30.7918 41.7401 30.6036 42.1751 28.974C42.282 28.5735 42.3062 25.3566 42.2042 25.1104L42.1401 24.9555L41.9046 25.2246C41.0061 26.2514 40.7366 26.2996 35.9 26.3001C33.0284 26.3004 31.6151 26.2475 31.3 26.1283C31.2037 26.0919 30.9924 26.0374 30.8301 26.0071C30.668 25.9769 30.4962 25.9169 30.4486 25.8738C30.4009 25.8305 30.286 25.7743 30.1934 25.7486C29.938 25.6779 29.15 24.879 29.15 24.6906C29.15 24.6386 29.1072 24.5123 29.0551 24.41C29.0029 24.3076 28.9434 24.0899 28.923 23.926C28.9025 23.7621 28.8552 23.555 28.8179 23.4656C28.7196 23.2305 28.7219 21.066 28.8207 20.7216C28.8597 20.586 28.9072 20.3738 28.9265 20.25C28.9456 20.1263 28.981 20.0005 29.005 19.9706C29.029 19.9408 29.0799 19.8279 29.1181 19.7196C29.2555 19.3301 29.9572 18.5494 30.2341 18.478C30.294 18.4625 30.4796 18.3685 30.6465 18.2691C30.8742 18.1335 31.0339 18.0788 31.2874 18.0496C31.4731 18.0284 31.6925 17.9835 31.775 17.9499C32.116 17.8113 33.7552 17.7561 36.8 17.781C40.5865 17.8119 41.375 17.885 42.0304 18.2661C42.1924 18.3604 42.3812 18.454 42.45 18.4743C42.5939 18.5165 42.656 18.5671 43.1002 19.0048C43.5284 19.4263 43.7215 19.8134 43.859 20.5256C43.9881 21.194 44.0637 28.2929 43.9501 29.0701C43.7631 30.3485 42.9701 31.3639 41.8761 31.7254C41.3042 31.9144 40.8897 32.0144 40.5271 32.0509C40.306 32.073 39.9346 32.1185 39.7019 32.1519C38.6885 32.2974 32.2159 32.1448 31.375 31.9556C30.0252 31.652 29.1267 30.7673 28.9575 29.575C28.9092 29.2349 28.8916 29.2168 28.5709 29.1766C28.3216 29.1455 28.277 29.1541 28.1702 29.2545L28.05 29.3674V30.7534C28.05 32.3428 28.1042 32.1973 27.5084 32.205C27.2975 32.2078 27.0687 32.2299 27 32.2543C26.8931 32.2923 26.8995 32.2951 27.0437 32.2744C27.1365 32.261 27.3854 32.25 27.5967 32.25C28.2074 32.25 28.1712 32.3389 28.1867 30.8014C28.202 29.2834 28.2044 29.2733 28.5405 29.3194C28.8329 29.3595 28.8466 29.3751 28.899 29.7303C29.1215 31.2374 30.3269 32.0393 32.625 32.209C33.6496 32.2846 39.5139 32.2815 40.175 32.2049C42.4007 31.947 43.5757 31.1183 43.9875 29.5156C44.1035 29.0639 44.1214 21.6733 44.0085 20.825C43.8574 19.6899 43.5869 19.1708 42.8784 18.6555C41.6707 17.7773 41.1941 17.6968 37 17.6631C33.2432 17.633 32.5019 17.6718 31.1462 17.969C30.8466 18.0348 30.1039 18.3951 29.9294 18.5594C29.891 18.5955 29.756 18.7115 29.6294 18.8173C29.3906 19.0165 29.05 19.4813 29.05 19.6076C29.05 19.6475 29.0289 19.7014 29.0031 19.7275C28.4804 20.2568 28.5519 23.6254 29.1104 24.7848C29.7346 26.0804 30.5379 26.3228 34.475 26.4033C38.6016 26.4878 40.752 26.3736 41.125 26.0504C41.18 26.0026 41.2616 25.9438 41.3065 25.9194C41.3512 25.895 41.5061 25.7738 41.6505 25.65C42.1847 25.1924 42.2039 25.2363 42.195 26.8949C42.181 29.4854 41.8831 30.1163 40.5009 30.4823C39.5747 30.7274 33.0642 30.719 32.075 30.4713C31.037 30.2114 30.6949 29.7654 30.6527 28.6164C30.6266 27.9016 30.618 27.8504 30.5037 27.7289L30.3826 27.6H29.343C28.3165 27.6 28.3027 27.5986 28.2424 27.4875C28.1955 27.4013 28.1805 26.2655 28.1781 22.609C28.1746 17.2849 28.208 17.7839 27.85 17.6934C27.7112 17.6584 26.0579 17.6526 25.8311 17.6864ZM26.1946 19.2665C26.123 19.2988 25.9542 19.4198 25.8196 19.5356C25.6851 19.6515 25.5031 19.7978 25.4154 19.8606C25.3275 19.9235 25.0734 20.1213 24.8505 20.3C24.6277 20.4788 24.2384 20.7878 23.9852 20.9866C23.7321 21.1855 23.5019 21.3673 23.4737 21.3906C23.4455 21.4139 23.3562 21.4763 23.2755 21.529C23.1947 21.5818 23.0799 21.67 23.0201 21.725C22.9002 21.8355 22.6924 21.9993 21.875 22.6274C21.2761 23.0878 21.0626 23.2585 20.847 23.45C20.5819 23.6854 20.2866 23.925 20.2057 23.9701C20.1351 24.0098 19.9635 24.1535 19.568 24.5049C19.5091 24.5573 19.444 24.6 19.4234 24.6C19.4026 24.6 19.2709 24.6975 19.1304 24.8166C18.9899 24.9359 18.839 25.054 18.7949 25.0791C18.714 25.1255 18.371 25.4074 18.082 25.665C17.9956 25.742 17.8125 25.8804 17.675 25.9725C17.5375 26.0648 17.3575 26.1986 17.275 26.27C17.1925 26.3415 17.1084 26.3999 17.088 26.4C17.0677 26.4 16.9215 26.5121 16.763 26.6491C15.7039 27.5651 15.647 27.6638 16.1375 27.7339C16.8364 27.8338 26.3015 27.7684 26.4434 27.6626C26.6301 27.5235 26.6266 27.6185 26.6107 23.1875L26.5966 19.2L26.4607 19.204C26.3861 19.2063 26.2664 19.2344 26.1946 19.2665ZM32.425 19.3555C32.0529 19.4091 31.45 19.5883 31.45 19.6453C31.45 19.6685 31.3784 19.7019 31.2909 19.7194C30.6847 19.8405 30.4245 20.6096 30.4262 22.275L30.4275 23.475L30.5832 23.8C31.0614 24.7976 31.6507 24.9043 36.675 24.9021C40.025 24.9006 40.675 24.8456 41.3357 24.5075C41.639 24.3524 42.05 23.844 42.05 23.6241C42.05 23.5303 42.088 23.3459 42.1345 23.2143C42.2702 22.83 42.2629 20.9781 42.1241 20.6C41.9507 20.1276 41.555 19.7 41.2914 19.7C41.2609 19.7 41.2086 19.6626 41.1752 19.6169C41.112 19.5305 40.6827 19.4333 40 19.3508C39.5246 19.2933 32.8272 19.2975 32.425 19.3555ZM39.825 19.4435C39.9625 19.4731 40.2662 19.5219 40.5 19.5519C40.7521 19.5841 40.9762 19.6429 41.051 19.6961C41.1202 19.7455 41.2327 19.8033 41.301 19.8245C41.9675 20.0319 42.3327 21.3403 42.1045 22.7034C42.0795 22.8528 42.0306 23.1533 41.996 23.3711C41.7962 24.626 41.1245 24.801 36.5194 24.7983C31.8897 24.7954 31.184 24.6788 30.7624 23.8463C30.2016 22.7393 30.5795 19.85 31.2849 19.85C31.3077 19.85 31.4135 19.8034 31.5197 19.7464C31.9297 19.5268 32.4957 19.4414 33.8 19.4029C35.5501 19.3511 39.5202 19.378 39.825 19.4435ZM26.4577 19.7856C26.5069 20.1279 26.5042 27.067 26.455 27.3089C26.3904 27.6259 26.6149 27.6121 21.4302 27.6146C17.0269 27.6168 16.3149 27.6019 16.1584 27.5053C16.0555 27.4416 16.8671 26.667 17.3726 26.3464C17.5009 26.265 17.6326 26.1761 17.6654 26.1489C17.6981 26.1215 17.9275 25.9296 18.175 25.7224C18.4225 25.5151 18.814 25.206 19.0449 25.0354C19.2757 24.8646 19.6216 24.59 19.8132 24.425C20.005 24.26 20.3072 24.0198 20.4851 23.891C20.663 23.7624 20.9145 23.5599 21.0441 23.441C21.1737 23.3223 21.3687 23.1588 21.4775 23.0778C21.5861 22.9969 21.9975 22.6706 22.3916 22.3528C22.7859 22.035 23.2134 21.6988 23.3416 21.6055C23.47 21.5124 23.7289 21.3099 23.9169 21.1555C24.1049 21.0013 24.3307 20.83 24.4189 20.775C24.507 20.72 24.7439 20.54 24.9454 20.375C25.1469 20.21 25.3934 20.0209 25.4934 19.9548C25.5932 19.8885 25.7722 19.7493 25.8911 19.6453C26.2656 19.3174 26.3951 19.3495 26.4577 19.7856Z" fill="#DC7C72"/>
<path fill-rule="evenodd" clip-rule="evenodd" d="M46.2966 18.2049C45.6167 18.3067 45.1095 18.88 45.1781 19.4689C45.2957 20.478 46.1105 21.0261 46.964 20.6704C48.4001 20.0716 47.8325 17.9749 46.2966 18.2049ZM46.9656 18.8936C47.3485 19.2505 47.3519 19.7124 46.9739 20.0442C46.3649 20.579 45.465 19.8776 45.8205 19.1455C46.025 18.7242 46.6391 18.5892 46.9656 18.8936ZM3.88749 21.1902C3.66649 21.2044 3.64999 21.2149 3.65074 21.3402C3.65112 21.4144 3.64849 23.8555 3.64499 26.765C3.64137 29.6745 3.65412 32.0707 3.67337 32.09C3.77187 32.1887 7.27874 32.1582 7.40312 32.0575L7.52499 31.9589L7.54999 28.942L7.57499 25.925L7.72087 25.625C7.93799 25.1782 8.44924 24.6561 8.67499 24.6506C8.70249 24.6499 8.78637 24.6174 8.86149 24.5782C9.40587 24.2942 12.1242 24.234 12.475 24.4981C12.5025 24.5189 12.6314 24.5712 12.7614 24.6145C13.226 24.7691 13.557 25.1882 13.6932 25.7945C13.7462 26.0305 13.8792 26.2091 13.9392 26.125C14.0057 26.032 14.5406 25.6 14.5894 25.6C14.616 25.6 14.6682 25.5632 14.7056 25.5182C14.743 25.4732 14.8526 25.3832 14.9492 25.3182C15.2416 25.1216 15.6101 24.8447 16.1049 24.4497C16.3635 24.2434 16.6574 24.0132 16.758 23.9382C17.1537 23.6432 17.2972 23.4752 17.2635 23.3464C17.1716 22.9947 16.7267 22.4719 16.1881 22.0822C16.0709 21.9975 15.9637 21.9134 15.95 21.8954C15.9362 21.8774 15.8462 21.846 15.75 21.8259C15.6537 21.8056 15.4962 21.7476 15.4 21.697C15.2376 21.6114 14.9992 21.5412 14.3 21.3729C13.2177 21.1124 10.5402 21.1755 9.57499 21.4842C8.91162 21.6964 8.27199 22.1061 7.88049 22.5697C7.57074 22.9364 7.51412 22.8404 7.52824 21.9722C7.54237 21.0945 7.72112 21.175 5.76012 21.175C4.86087 21.175 4.01812 21.1819 3.88749 21.1902ZM14.5057 21.7077C14.3904 21.7409 14.3194 21.7394 14.2832 21.7032C14.2456 21.6656 14.2952 21.6514 14.4525 21.6545L14.675 21.659L14.5057 21.7077ZM15.275 21.9C15.3321 21.9924 15.2502 22.051 15.1509 21.989C15.099 21.9565 15.0676 21.912 15.0811 21.89C15.1159 21.8339 15.238 21.8401 15.275 21.9ZM7.92937 23.0872C7.87474 23.1419 7.83737 23.055 7.87649 22.9646C7.91374 22.879 7.91649 22.8791 7.93712 22.9664C7.94912 23.0167 7.94562 23.0711 7.92937 23.0872ZM13.9767 29.8501C13.592 29.9156 13.651 32.1474 14.0375 32.1507C17.0796 32.1775 17.5769 32.1481 17.6217 31.9392C17.6777 31.679 17.6256 29.9557 17.5597 29.89C17.4942 29.8246 14.3329 29.7894 13.9767 29.8501ZM4.64999 31.85C4.70824 31.8876 4.69362 31.8986 4.58449 31.8992C4.50349 31.8996 4.45712 31.8789 4.47499 31.85C4.51337 31.7879 4.55387 31.7879 4.64999 31.85ZM14.625 31.85C14.6429 31.8789 14.5965 31.8996 14.5155 31.8992C14.4064 31.8986 14.3917 31.8876 14.45 31.85C14.5461 31.7879 14.5866 31.7879 14.625 31.85ZM15.1 31.85C15.1582 31.8876 15.1436 31.8986 15.0345 31.8992C14.9535 31.8996 14.9071 31.8789 14.925 31.85C14.9634 31.7879 15.0039 31.7879 15.1 31.85ZM6.78749 31.887C6.62937 31.8969 6.37062 31.8969 6.21249 31.887C6.05437 31.877 6.18374 31.8689 6.49999 31.8689C6.81624 31.8689 6.94562 31.877 6.78749 31.887ZM26.5284 32.0946C26.469 32.1906 26.7837 32.3075 26.9627 32.2559L27.125 32.209L26.9289 32.2045C26.8211 32.202 26.694 32.1647 26.6464 32.1217C26.5919 32.0724 26.5482 32.0624 26.5284 32.0946Z" fill="#888788"/>
</svg>
