<svg width="55" height="55" viewBox="0 0 55 55" fill="none" xmlns="http://www.w3.org/2000/svg">
<path fill-rule="evenodd" clip-rule="evenodd" d="M25.63 1.32438C25.3426 1.34872 24.86 1.40578 24.5575 1.45102C24.255 1.4964 23.8158 1.5613 23.5815 1.59526C23.1515 1.65768 22.222 1.94547 21.9175 2.11061C21.6847 2.23683 20.6556 2.65992 20.295 2.7779C19.9318 2.89656 19.4291 3.15767 19.069 3.41452C18.8201 3.59217 18.5747 3.7404 18.0675 4.01966C17.9465 4.08635 17.7709 4.1991 17.6772 4.27046C17.5836 4.34168 17.4872 4.39998 17.463 4.39998C17.2715 4.39998 16.4349 5.13753 15.6312 6.01492C15.5013 6.15682 15.296 6.34465 15.1749 6.43237C15.0537 6.5201 14.9007 6.66172 14.8347 6.74711C14.7687 6.83263 14.5843 7.05745 14.4248 7.24692C14.2655 7.4364 14.135 7.61253 14.135 7.63811C14.135 7.66382 14.0669 7.7741 13.9837 7.883C13.9005 7.99203 13.7467 8.19966 13.6419 8.34431C13.5371 8.4891 13.4174 8.64461 13.3758 8.68998C13.273 8.80232 13.0673 9.1502 12.8883 9.51498C12.8066 9.68136 12.6709 9.92611 12.5867 10.0591C12.5026 10.1919 12.3814 10.4577 12.3176 10.6496C12.2537 10.8417 12.1801 11.0119 12.1543 11.0279C12.1284 11.044 12.0663 11.1978 12.0162 11.3699C11.913 11.7249 11.6946 12.1843 11.5513 12.3475C11.4981 12.408 11.4404 12.5342 11.4229 12.628C11.4053 12.7218 11.3302 12.9321 11.2559 13.0955C11.1688 13.2867 11.1075 13.5491 11.0834 13.8325C11.0629 14.0745 11.0107 14.421 10.9672 14.6025C10.6665 15.8591 10.6529 19.5009 10.9429 21.12C10.9998 21.4376 11.0742 21.9803 11.1085 22.326C11.1426 22.6717 11.183 22.9746 11.1981 22.9992C11.2134 23.0237 11.2736 23.2978 11.3322 23.6082C11.3907 23.9185 11.4875 24.3334 11.5475 24.53C11.8669 25.5776 12.0729 26.1669 12.1624 26.29C12.2838 26.4568 12.6496 27.771 12.6509 28.0456C12.6523 28.3041 12.8862 29.1883 13.0253 29.461C13.0856 29.5791 13.1774 29.8224 13.2295 30.0015C13.2816 30.1807 13.4447 30.5737 13.5921 30.8749C13.7394 31.1762 13.86 31.4528 13.86 31.4895C13.86 31.5748 14.0644 32.0394 14.4413 32.8112C14.6049 33.146 14.7534 33.5049 14.7715 33.6087C14.8135 33.8507 14.9074 34.1 14.9565 34.1C15.0018 34.1 15.4354 34.9657 15.7004 35.585C15.7456 35.6909 15.8055 35.8146 15.8331 35.86C15.8826 35.9411 16.4612 37.1334 16.6338 37.51C16.6823 37.6159 16.7574 37.7644 16.8007 37.84C16.933 38.0709 17.215 38.6974 17.215 38.7605C17.215 38.7931 17.3239 38.9319 17.4568 39.0687C17.6137 39.2301 17.7321 39.4204 17.7938 39.61C17.8462 39.7709 17.9208 39.9396 17.9595 39.985C18.046 40.0863 18.4943 40.9031 18.6688 41.2775C18.7393 41.4287 18.9237 41.7608 19.0785 42.0153C19.2333 42.2698 19.36 42.5099 19.36 42.5488C19.36 42.5877 19.3935 42.6393 19.4346 42.6635C19.4756 42.6877 19.5955 42.8838 19.701 43.0992C19.8064 43.3147 20.0142 43.645 20.1627 43.8331C20.469 44.2214 20.673 44.5273 20.8514 44.8662C20.9191 44.9948 20.9932 45.1 21.016 45.1C21.0388 45.1 21.0731 45.1488 21.0921 45.2085C21.1109 45.2683 21.2078 45.4354 21.3071 45.5797C21.4065 45.7242 21.5807 46.0219 21.6942 46.2412C21.8076 46.4605 21.9199 46.64 21.9436 46.64C21.9672 46.64 22.0158 46.7105 22.0515 46.7967C22.0873 46.8829 22.2264 47.0613 22.3608 47.1931C22.4951 47.325 22.605 47.4501 22.605 47.4712C22.605 47.5654 23.3937 48.8789 23.5094 48.9775C23.5804 49.038 23.7257 49.2271 23.8322 49.3977C23.9387 49.5683 24.053 49.7247 24.0861 49.745C24.1496 49.7843 24.585 50.4205 24.585 50.4742C24.585 50.4915 24.6972 50.637 24.8344 50.7976C24.9715 50.9582 25.1119 51.1712 25.1462 51.271C25.2224 51.492 25.5571 51.9604 25.9069 52.3356C26.0495 52.4887 26.2091 52.6991 26.2615 52.8032C26.6944 53.6636 27.2185 53.8696 27.4655 53.2764C27.5155 53.1564 27.7732 52.8469 28.0629 52.559C28.3621 52.2617 28.6381 51.9286 28.7313 51.7525C28.8186 51.5875 28.9582 51.3782 29.0415 51.2875C29.1247 51.1967 29.2107 51.0631 29.2327 50.9906C29.2546 50.918 29.412 50.7031 29.5825 50.5131C30.0019 50.0455 30.0929 49.9166 30.2986 49.5C30.3957 49.3034 30.5877 49.0187 30.7253 48.8675C30.8629 48.7162 31.0333 48.4632 31.104 48.3054C31.1747 48.1475 31.3229 47.9205 31.4336 47.801C31.5441 47.6814 31.6757 47.5095 31.726 47.4189C31.7764 47.3284 31.9163 47.1098 32.0372 46.9334C32.1582 46.7569 32.2697 46.5877 32.2851 46.5575C32.4342 46.2652 32.6999 45.8549 32.7757 45.8003C32.8275 45.763 32.9425 45.5867 33.0312 45.4087C33.1199 45.2306 33.2559 45.0164 33.3334 44.9326C33.411 44.8488 33.5058 44.6758 33.5441 44.5479C33.5893 44.3971 33.6989 44.238 33.8569 44.0943C33.9905 43.9726 34.1 43.8461 34.1 43.8131C34.1 43.661 34.7385 42.4971 35.0385 42.1025C35.2225 41.8605 35.4712 41.4645 35.5911 41.2225C35.8529 40.6946 36.0842 40.2827 36.3479 39.875C36.4556 39.7086 36.589 39.4742 36.6445 39.354C36.7001 39.2338 36.7643 39.1225 36.7871 39.1065C36.8357 39.0727 36.9374 38.8102 36.9822 38.6035C36.9994 38.5242 37.0994 38.3138 37.2044 38.136C37.3095 37.9581 37.45 37.7011 37.5167 37.565C37.5835 37.4289 37.6689 37.2804 37.7066 37.235C37.8404 37.0737 38.0627 36.6062 38.1364 36.3315C38.2065 36.0701 38.2823 35.9254 38.7773 35.1088C38.8844 34.9321 39.0044 34.6761 39.0442 34.54C39.0838 34.4039 39.1623 34.249 39.2185 34.196C39.2748 34.1429 39.3475 33.9944 39.38 33.866C39.4125 33.7375 39.4729 33.5459 39.5143 33.44C39.5555 33.3341 39.6687 33.0371 39.7658 32.78C39.8629 32.5229 39.9892 32.2303 40.0466 32.1297C40.104 32.0292 40.2524 31.7089 40.3763 31.4178C40.5002 31.1267 40.637 30.8342 40.6806 30.7679C40.7875 30.6046 41.1031 29.6092 41.2768 28.8872C41.4778 28.0514 41.5255 27.8927 41.6689 27.5825C42.1377 26.569 42.5429 25.205 42.7064 24.09C42.7263 23.9539 42.7898 23.5826 42.8474 23.265C42.9052 22.9474 42.9786 22.4524 43.0106 22.165C43.0427 21.8776 43.1146 21.4445 43.1704 21.2025C43.2262 20.9605 43.3015 20.5397 43.3375 20.2675C43.3735 19.9952 43.4383 19.6189 43.4814 19.4312C43.5705 19.0437 43.5952 16.6697 43.511 16.5797C43.3697 16.4286 43.1374 15.1022 43.1928 14.7613C43.2312 14.5251 42.9721 13.402 42.7312 12.76C42.6349 12.5029 42.4352 11.9336 42.2877 11.495C42.1403 11.0564 41.9857 10.6356 41.9443 10.56C41.9029 10.4844 41.8376 10.3235 41.7991 10.2025C41.7605 10.0815 41.6813 9.93298 41.623 9.87248C41.4957 9.74021 41.0474 9.03456 40.8718 8.68998C40.8025 8.55386 40.6524 8.34348 40.5384 8.22248C40.4244 8.10148 40.1951 7.79211 40.0288 7.53498C39.8626 7.27786 39.6358 6.96848 39.525 6.84748C39.2713 6.57056 39.2893 6.58788 38.995 6.34052C38.8588 6.22612 38.5495 5.9338 38.3075 5.69097C37.4713 4.85181 36.8546 4.34017 36.4718 4.16802C36.2715 4.07782 36.058 3.95971 35.9975 3.9054C35.937 3.85122 35.7625 3.73998 35.6096 3.65845C35.4568 3.57691 35.2866 3.44298 35.2315 3.3609C35.0996 3.16468 33.7557 2.58498 33.4325 2.58498C33.3164 2.58498 32.1543 2.13618 32.0607 2.0552C32.0129 2.01381 31.9364 1.97998 31.8908 1.97998C31.845 1.97998 31.5971 1.90711 31.3399 1.81787C30.8346 1.64283 30.5401 1.58577 29.48 1.45721C27.8825 1.26347 26.7925 1.2258 25.63 1.32438ZM19.5829 8.3351C19.6346 8.38198 19.847 8.44606 20.0548 8.47755C20.4465 8.53681 20.7765 8.69163 21.0112 8.92607C21.0861 9.00087 21.2341 9.10221 21.34 9.15116C21.4458 9.19997 21.6686 9.32565 21.835 9.43028C22.0013 9.53492 22.2673 9.65936 22.4259 9.7068C22.7148 9.79301 23.04 9.97685 23.2274 10.1599C23.3174 10.2477 24.1164 10.7061 24.3925 10.8282C25.0501 11.1193 26.1177 11.6653 26.4143 11.8622C26.8699 12.1649 27.1405 12.1913 27.4727 11.9659C27.5889 11.887 27.8467 11.7465 28.0457 11.6534C28.2447 11.5604 28.457 11.4573 28.5175 11.4244C28.8436 11.2472 30.2886 10.56 30.3351 10.56C30.3553 10.56 30.6062 10.3965 30.8929 10.1966C31.1796 9.99678 31.5566 9.77733 31.7308 9.70913C31.9052 9.6408 32.2187 9.48872 32.4276 9.37116C33.2746 8.89472 33.3887 8.83601 34.1825 8.46971C35.2361 7.98365 35.7995 8.54588 35.4778 9.7629C35.4139 10.0046 35.3241 10.4624 35.2783 10.78C35.2327 11.0976 35.1564 11.5184 35.1088 11.715C35.0614 11.9116 35.0022 12.2053 34.9776 12.3676C34.9529 12.5299 34.8705 12.9383 34.7945 13.2751C34.5735 14.2531 34.3238 16.2169 34.3211 16.9976C34.3197 17.3679 34.5372 17.7512 34.925 18.0618C35.253 18.3246 35.6866 18.7702 36.025 19.1924C36.1006 19.2868 36.2429 19.4117 36.3412 19.4701C36.4395 19.5286 36.52 19.5988 36.52 19.6265C36.52 19.6706 36.8916 20.0517 37.762 20.9C37.9017 21.0361 38.1558 21.2913 38.3267 21.4672C38.4976 21.643 38.7241 21.8325 38.83 21.8883C39.1336 22.0481 39.4252 22.3239 39.7018 22.7131C39.8425 22.9108 40.0283 23.1467 40.1149 23.2375C40.8296 23.9869 39.9851 24.5839 38.2085 24.5851C38.0814 24.5853 37.6928 24.6324 37.345 24.69C36.9971 24.7476 36.3288 24.824 35.86 24.8594C35.3911 24.8949 34.859 24.9579 34.6775 24.9994C34.1122 25.1285 33.8787 25.179 33 25.3613C31.9035 25.5889 31.3793 25.8382 31.2331 26.2016C31.1951 26.2956 31.107 26.4647 31.0372 26.5776C30.9672 26.6905 30.91 26.8298 30.91 26.8871C30.91 26.9446 30.8756 27.0201 30.8335 27.0549C30.7916 27.0898 30.7308 27.2229 30.6986 27.3508C30.6438 27.5687 30.4036 27.9925 30.1933 28.2425C30.1424 28.303 30.0539 28.4375 29.9967 28.5413C29.9394 28.6451 29.7873 28.8926 29.6589 29.0913C29.5303 29.29 29.4251 29.4834 29.4251 29.5211C29.425 29.5588 29.3478 29.7568 29.2536 29.9611C28.7672 31.0154 28.6947 31.1639 28.6299 31.24C28.5913 31.2854 28.5424 31.3952 28.5212 31.4842C28.5 31.573 28.4391 31.7091 28.3859 31.7867C28.3327 31.8641 28.2562 32.0141 28.2161 32.12C28.0315 32.6055 27.471 33.3459 27.2222 33.4327C26.8639 33.5575 26.36 33.1441 26.2086 32.6008C26.0756 32.1238 25.6936 31.36 25.4544 31.0924C25.3539 30.9801 25.0782 30.392 24.9691 30.0578C24.8561 29.7108 24.6203 29.2403 24.4988 29.1188C24.4374 29.0574 24.3294 28.8352 24.2584 28.625C24.0949 28.1398 23.7899 27.5572 23.4991 27.1742C23.3746 27.0102 23.232 26.7627 23.1821 26.6242C22.7788 25.5033 22.4779 25.352 20.3775 25.2131C20.0289 25.1901 19.6905 25.1298 19.4536 25.0484C19.2479 24.9777 18.9262 24.9056 18.7386 24.8882C17.998 24.8194 17.3406 24.7406 17.105 24.6922C16.9688 24.6643 16.5233 24.6158 16.115 24.5846C14.0156 24.4237 13.6378 24.1714 14.1275 23.2569C14.2143 23.0949 14.3442 22.8533 14.4163 22.7198C14.5086 22.5492 14.6945 22.3681 15.0425 22.1096C15.3147 21.9074 15.6612 21.611 15.8125 21.4508C15.9637 21.2906 16.1308 21.1135 16.1837 21.0573C16.2367 21.001 16.3047 20.955 16.335 20.955C16.3652 20.955 16.39 20.9234 16.39 20.8846C16.39 20.7949 17.092 20.0865 17.2218 20.0453C17.2755 20.0282 17.3347 19.9658 17.3536 19.9064C17.3725 19.847 17.5532 19.6648 17.7552 19.5016C19.4499 18.1321 20.1238 17.2115 19.9459 16.5085C19.895 16.3072 19.828 15.9445 19.7971 15.7025C19.7385 15.2442 19.6784 14.9036 19.549 14.3C19.4544 13.8582 19.2816 12.6222 19.1915 11.7425C19.1484 11.322 19.0869 11.0117 19.0221 10.8872C18.9662 10.7798 18.8853 10.4419 18.8424 10.1362C18.7994 9.83041 18.7357 9.52681 18.7008 9.46136C18.3609 8.82652 19.0931 7.8918 19.5829 8.3351Z" fill="#F8B336"/>
<path fill-rule="evenodd" clip-rule="evenodd" d="M26.235 0.698934C25.0686 0.792022 23.8996 0.943272 23.21 1.0904C22.3717 1.26915 22.1536 1.32731 21.964 1.4226C21.8477 1.48103 21.5793 1.59598 21.3675 1.67821C21.1558 1.76043 20.8216 1.90247 20.625 1.99391C20.4284 2.08535 20.1066 2.22051 19.91 2.29435C19.7134 2.36805 19.503 2.4731 19.4425 2.52782C19.382 2.58255 19.2706 2.6458 19.195 2.66835C18.9871 2.73022 18.6654 2.90952 18.149 3.25121C17.31 3.80643 16.717 4.18002 16.6746 4.18002C16.5404 4.18002 13.9138 6.88217 13.6641 7.27707C13.5147 7.5133 13.2799 7.84742 13.1421 8.01957C12.9203 8.29663 12.6831 8.64368 12.4204 9.07502C12.3743 9.15065 12.3061 9.30602 12.2686 9.42015C12.2312 9.53441 12.1396 9.70023 12.0651 9.78892C11.9904 9.87747 11.8306 10.2171 11.7099 10.5438C11.5892 10.8704 11.4066 11.3231 11.304 11.55C11.0286 12.1597 10.9666 12.3244 10.9214 12.5656C10.8989 12.6856 10.843 12.8564 10.7971 12.9452C10.2721 13.9605 10.0638 18.0908 10.396 20.9C10.5335 22.0635 10.9321 24.3207 11.0272 24.4746C11.0451 24.5035 11.1932 25.0616 11.3561 25.7147C11.5192 26.368 11.6786 26.9335 11.7102 26.9717C11.7418 27.0098 11.8203 27.2124 11.8847 27.4218C11.9489 27.6312 12.0198 27.8273 12.0423 27.8575C12.0647 27.8878 12.1271 28.1229 12.181 28.38C12.3646 29.256 12.7244 30.2915 13.277 31.5339C13.4767 31.9828 13.64 32.3626 13.64 32.3777C13.64 32.4326 14.3693 34.0214 14.4726 34.1916C14.5306 34.2873 14.6157 34.492 14.6616 34.6466C14.7074 34.801 14.979 35.391 15.265 35.9575C15.551 36.524 15.785 37.0053 15.785 37.0269C15.785 37.0484 15.9163 37.3083 16.0769 37.6043C16.2375 37.9004 16.4032 38.2291 16.4453 38.335C16.4874 38.4409 16.6158 38.676 16.7309 38.8575C16.8458 39.039 16.9895 39.2989 17.0499 39.435C17.1104 39.5711 17.1848 39.7197 17.215 39.765C17.2454 39.8104 17.2961 39.9079 17.3278 39.9817C17.3594 40.0556 17.5017 40.3026 17.6439 40.5309C18.0307 41.1513 18.0792 41.2381 18.3164 41.7318C18.4364 41.9817 18.6183 42.3158 18.7208 42.4743C18.8232 42.6329 19.0561 43.0224 19.2385 43.34C19.4206 43.6577 19.6153 43.967 19.671 44.0275C19.7267 44.0879 19.8095 44.2035 19.855 44.2842C19.9004 44.3649 19.9841 44.5136 20.0409 44.6142C20.1392 44.7883 20.801 45.8102 21.1214 46.2825C21.2033 46.4035 21.3334 46.6263 21.4101 46.7775C21.4869 46.9288 21.6263 47.1253 21.7199 47.2141C21.8134 47.3029 21.89 47.4053 21.89 47.4416C21.89 47.4779 21.9814 47.6403 22.0931 47.8026C22.2047 47.9648 22.3769 48.2402 22.4756 48.4149C22.5745 48.5894 22.7514 48.8492 22.8691 48.9924C22.9868 49.1354 23.1817 49.4258 23.302 49.6375C23.4223 49.8493 23.5736 50.0844 23.6379 50.16C24.0404 50.6327 24.3123 50.994 24.41 51.1852C24.4716 51.3061 24.5609 51.4373 24.6085 51.4767C24.6561 51.5162 24.695 51.5723 24.695 51.6013C24.695 51.669 25.1574 52.3105 25.4169 52.6029C25.5266 52.7265 25.7302 53.0044 25.8695 53.2205C26.1768 53.6974 26.5121 54.0582 26.8302 54.2546L27.068 54.4015L27.2775 54.2744C27.3928 54.2047 27.5902 54.0238 27.7164 53.8725C28.0093 53.5216 28.3995 53.0518 28.8479 52.5102C29.0423 52.2752 29.27 51.9658 29.3538 51.8227C29.4375 51.6797 29.7047 51.3248 29.9475 51.0341C30.1903 50.7434 30.4608 50.3722 30.5487 50.2091C30.7403 49.8529 31.2918 48.9997 31.3803 48.9225C31.4589 48.8539 32.395 47.4851 32.395 47.4386C32.395 47.4201 32.487 47.2636 32.5996 47.0912C32.7121 46.9186 32.8296 46.7378 32.8609 46.6894C33.3179 45.9784 33.4997 45.7079 33.6673 45.4898C33.7772 45.3467 33.9074 45.1517 33.9566 45.0564C34.006 44.961 34.1061 44.7949 34.1792 44.6872C34.2522 44.5794 34.3294 44.4129 34.3504 44.317C34.3714 44.2211 34.4484 44.0956 34.5216 44.0381C34.5946 43.9806 34.7376 43.7683 34.8393 43.5662C34.9411 43.3642 35.1775 42.9677 35.3646 42.6851C35.5516 42.4026 35.7536 42.0574 35.8134 41.9181C35.8731 41.7787 35.9414 41.6518 35.9653 41.6361C35.9893 41.6205 36.0958 41.4343 36.2021 41.2225C36.3085 41.0108 36.4854 40.7019 36.5952 40.5363C36.7051 40.3706 36.795 40.2074 36.795 40.1735C36.795 40.1397 36.8424 40.0692 36.9003 40.0166C36.9584 39.9643 37.0618 39.781 37.1301 39.6094C37.1986 39.4379 37.3464 39.1243 37.4584 38.9125C38.0146 37.8626 38.2491 37.4106 38.3285 37.235C38.3764 37.1291 38.5798 36.7208 38.7805 36.3275C38.9811 35.9343 39.1762 35.5168 39.214 35.3998C39.2519 35.2829 39.4002 34.9612 39.5436 34.6848C39.6871 34.4086 39.8239 34.1209 39.8477 34.0454C39.8714 33.9701 39.9585 33.7597 40.0411 33.5779C40.1239 33.3963 40.2588 33.0743 40.341 32.8625C40.4232 32.6508 40.5207 32.428 40.5576 32.3675C40.5945 32.307 40.6941 32.0595 40.7788 31.8175C40.8635 31.5755 41.0065 31.2314 41.0966 31.0527C41.2651 30.7183 41.635 29.6502 41.635 29.498C41.635 29.4509 41.7177 29.2357 41.8186 29.0199C41.9195 28.8041 42.0694 28.3924 42.1516 28.105C42.2338 27.8176 42.3338 27.5323 42.3738 27.4709C42.4647 27.3317 42.8079 26.2759 42.9206 25.7892C43.1893 24.629 43.4019 23.5381 43.477 22.935C43.5241 22.5569 43.5879 22.1881 43.6189 22.1157C43.6498 22.0431 43.6967 21.8203 43.7231 21.6207C43.7494 21.4209 43.8088 21.01 43.8548 20.7075C44.1033 19.0783 44.1095 16.272 43.8671 15.0851C43.4143 12.8684 43.3297 12.5587 42.8863 11.495C42.7665 11.2076 42.644 10.8859 42.6142 10.78C42.5432 10.5289 41.9914 9.42468 41.8307 9.21252C41.7621 9.12177 41.69 8.99802 41.6708 8.93752C41.6515 8.87702 41.5725 8.75423 41.4953 8.66472C41.418 8.57521 41.2808 8.37721 41.1905 8.22472C41.1 8.07223 40.9039 7.79902 40.7547 7.61752C40.6056 7.43602 40.3722 7.12665 40.2362 6.93002C39.994 6.57953 39.6488 6.19055 39.3786 5.96298C39.3037 5.90001 39.1783 5.77626 39.0998 5.68798C38.6454 5.17703 37.1148 3.79502 37.0033 3.79502C36.9331 3.79502 36.0389 3.23663 35.6626 2.95765C35.5086 2.84338 35.3643 2.75002 35.3419 2.75002C35.3196 2.75002 35.124 2.66656 34.907 2.5644C34.69 2.46237 34.2898 2.28733 34.0175 2.17555C33.7453 2.06376 33.473 1.94977 33.4125 1.92241C33.3051 1.87373 32.9678 1.74558 32.1065 1.42603C31.2484 1.10772 30.4446 0.964447 28.1325 0.717634C27.6154 0.662497 26.7939 0.654384 26.235 0.698934ZM28.325 0.964447C28.6729 0.982184 29.1926 1.04255 29.48 1.09865C29.7674 1.15488 30.1634 1.21703 30.36 1.23697C30.9867 1.3005 31.7456 1.53053 33.11 2.07077C33.5184 2.23233 33.8869 2.36475 33.9288 2.36488C34.0046 2.36502 34.7914 2.7173 35.1275 2.90155C35.2238 2.95435 35.6418 3.22646 36.0564 3.50627C36.4711 3.78608 36.8382 4.01502 36.8724 4.01502C37.0811 4.01502 39.6943 6.49566 40.0591 7.04002C40.3301 7.44455 40.5166 7.69892 40.6641 7.86502C41.0274 8.27436 41.9544 9.80418 42.1971 10.395C42.2903 10.6219 42.3851 10.8323 42.4076 10.8625C42.4302 10.8928 42.474 11.0041 42.5053 11.11C42.5365 11.2159 42.6353 11.4881 42.7251 11.715C42.8149 11.9419 42.9259 12.2265 42.9718 12.3475C43.1045 12.6975 43.382 13.742 43.4539 14.1625C43.49 14.3743 43.5419 14.6065 43.5688 14.6786C43.6135 14.798 43.679 15.3204 43.8416 16.8575C43.9087 17.4908 43.8677 18.7872 43.754 19.635C43.7114 19.9526 43.6358 20.5714 43.5861 21.01C43.5364 21.4486 43.4742 21.862 43.4478 21.9285C43.4214 21.9951 43.3128 22.5643 43.2062 23.1935C43.0998 23.8227 42.9007 24.788 42.7638 25.3384C42.6269 25.8889 42.515 26.3658 42.515 26.3981C42.515 26.4304 42.3825 26.7967 42.2204 27.2122C41.8675 28.1168 41.58 28.9762 41.58 29.1265C41.58 29.1865 41.5462 29.2844 41.5048 29.344C41.4634 29.4037 41.3652 29.6775 41.2865 29.9523C41.2077 30.2272 41.0435 30.669 40.9217 30.9341C40.7997 31.199 40.7 31.4448 40.7 31.4801C40.7 31.5153 40.6493 31.6388 40.5873 31.7545C40.5253 31.8702 40.4289 32.0801 40.3732 32.2212C40.3173 32.3622 40.2111 32.6136 40.1368 32.78C40.0626 32.9464 39.9344 33.2558 39.8521 33.4675C39.7697 33.6793 39.5831 34.0876 39.4375 34.375C39.2919 34.6624 39.1424 34.9965 39.1053 35.1175C39.0682 35.2385 38.9312 35.5231 38.8009 35.75C38.6706 35.9769 38.5373 36.2637 38.5047 36.3875C38.4721 36.5114 38.3981 36.6555 38.3402 36.7078C38.2824 36.7602 38.2187 36.8679 38.1987 36.947C38.1789 37.0262 38.068 37.2533 37.9523 37.4517C37.8367 37.6501 37.5775 38.1466 37.3764 38.555C36.8361 39.652 36.5702 40.1577 36.4364 40.3425C36.3707 40.4333 36.1504 40.8271 35.9469 41.2176C35.7434 41.6081 35.421 42.1575 35.2305 42.4384C35.04 42.7194 34.7634 43.1757 34.6158 43.4525C34.1626 44.3025 33.872 44.7911 33.6177 45.1311C33.5187 45.2632 33.3205 45.5641 33.1772 45.7995C33.0341 46.0349 32.8727 46.2894 32.8188 46.365C32.7647 46.4407 32.4873 46.8614 32.202 47.3C31.9168 47.7386 31.5996 48.2089 31.497 48.345C31.3944 48.4812 31.2686 48.6742 31.2175 48.7742C31.1662 48.874 31.09 48.9689 31.0481 48.9849C31.0061 49.001 30.7934 49.3107 30.5752 49.673C30.357 50.0354 30.0065 50.5469 29.7961 50.8097C29.5859 51.0725 29.3762 51.3618 29.3303 51.4525C29.1895 51.731 28.274 52.9115 27.9538 53.2278C27.8857 53.295 27.83 53.3753 27.83 53.4063C27.83 53.5974 27.1257 54.1658 26.9896 54.0844C26.744 53.9374 26.4118 53.5971 26.1922 53.2675C26.0512 53.0558 25.8228 52.7464 25.6846 52.58C25.384 52.2181 25.1566 51.9027 24.6925 51.205C24.5014 50.9176 24.1677 50.4474 23.9511 50.16C23.7344 49.8726 23.4799 49.4998 23.3853 49.3313C23.2909 49.163 23.1605 48.9774 23.0959 48.9188C23.0313 48.8604 22.9312 48.7259 22.8735 48.62C22.6794 48.2632 22.3244 47.7129 22.2525 47.6574C22.2133 47.627 22.1246 47.4909 22.0556 47.3549C21.9865 47.2188 21.8703 47.0362 21.7973 46.949C21.7245 46.8617 21.6131 46.6884 21.5501 46.564C21.487 46.4394 21.222 46.0141 20.9615 45.6187C20.7008 45.2234 20.4009 44.757 20.295 44.5822C20.1891 44.4074 20.0138 44.1617 19.9055 44.036C19.7971 43.9104 19.6655 43.6961 19.613 43.56C19.5605 43.4239 19.4618 43.2259 19.3936 43.12C19.1203 42.696 18.7019 41.9701 18.5059 41.58C18.3919 41.3531 18.1166 40.8672 17.8943 40.5002C17.6719 40.1332 17.49 39.8108 17.49 39.7839C17.49 39.7568 17.3804 39.5586 17.2465 39.3433C17.1126 39.1281 16.939 38.8317 16.8609 38.6847C16.7828 38.5378 16.6959 38.3804 16.6678 38.335C16.6396 38.2896 16.416 37.8318 16.1708 37.3175C15.9258 36.8033 15.6305 36.1845 15.5144 35.9425C14.8844 34.6276 14.7201 34.2704 14.6179 33.9929C14.556 33.825 14.4852 33.6618 14.4606 33.6303C14.4359 33.5988 14.3279 33.3637 14.2204 33.1078C14.113 32.8519 13.9965 32.5934 13.9615 32.5333C13.9266 32.4733 13.7804 32.1391 13.6368 31.7908C13.4932 31.4426 13.2972 30.9719 13.2012 30.745C13.1054 30.5181 12.9401 30.085 12.8343 29.7825C12.7282 29.48 12.5949 29.1015 12.5378 28.9414C12.4807 28.7812 12.3806 28.3976 12.3152 28.0889C12.2499 27.7801 12.1777 27.5028 12.155 27.4725C12.1322 27.4423 12.0761 27.2938 12.0302 27.1425C11.9844 26.9913 11.8841 26.6943 11.8077 26.4825C11.7311 26.2708 11.5774 25.7263 11.466 25.2725C11.3545 24.8188 11.2391 24.4175 11.2094 24.3811C11.1796 24.3445 11.0708 23.8124 10.9674 23.1986C10.8642 22.5847 10.7561 21.9464 10.7273 21.78C10.52 20.5772 10.3708 18.2647 10.4294 17.16C10.5423 15.0301 10.9219 12.6621 11.2075 12.3052C11.2373 12.2679 11.4744 11.7301 11.7345 11.11C11.9945 10.4899 12.2574 9.8959 12.3185 9.79002C12.3797 9.68415 12.5456 9.39361 12.6873 9.14446C12.829 8.89531 13.1123 8.48006 13.3167 8.22183C13.5212 7.96347 13.706 7.69713 13.7273 7.6299C13.7669 7.50491 14.0221 7.1745 14.3418 6.83391C14.4405 6.72886 14.5761 6.5651 14.6433 6.47022C14.7763 6.28198 15.3905 5.66227 15.6357 5.46881C15.7198 5.4024 15.965 5.178 16.1805 4.97023C16.5869 4.57836 16.988 4.26678 17.333 4.07511C17.4433 4.01378 17.8091 3.77646 18.1462 3.54766C18.4832 3.31886 18.9358 3.04565 19.1521 2.94032C19.3684 2.83513 19.5894 2.70162 19.6433 2.64373C19.6972 2.58598 19.8722 2.51146 20.0321 2.47818C20.1919 2.44505 20.58 2.29393 20.8945 2.14241C21.209 1.99088 21.5597 1.84596 21.6739 1.82025C21.788 1.79467 21.9513 1.72565 22.037 1.66707C22.2149 1.54497 23.3027 1.28028 23.8227 1.23243C24.0151 1.2147 24.2839 1.16698 24.42 1.12628C24.7983 1.01326 26.6292 0.880572 27.335 0.914947C27.5316 0.924434 27.9771 0.946709 28.325 0.964447ZM19.195 8.74502C19.0702 8.86987 19.0417 9.33902 19.1429 9.60508C19.1747 9.68882 19.2369 10.0678 19.2812 10.4474C19.3254 10.8269 19.3964 11.3231 19.4391 11.55C19.4817 11.7769 19.5576 12.3214 19.6078 12.76C19.6578 13.1986 19.7593 13.805 19.8333 14.1075C19.9964 14.774 20.2104 15.997 20.2967 16.7544C20.3748 17.4404 20.3429 17.521 19.7803 18.0568C19.5643 18.2625 19.0905 18.7172 18.7275 19.067C18.3645 19.4169 18.0428 19.7241 18.0125 19.7496C17.9037 19.8415 17.2497 20.4958 16.8651 20.8974C16.3658 21.4185 15.9433 21.8386 15.2578 22.495C13.8251 23.8671 13.9721 24.1182 16.335 24.3352C17.0918 24.4046 18.0901 24.5277 18.3213 24.5798C18.5593 24.6336 18.7831 24.663 20.0637 24.8085C20.3448 24.8405 20.6691 24.8999 20.7845 24.9406C20.8999 24.9813 21.1648 25.0309 21.3734 25.051C22.7107 25.1793 23.0603 25.3711 23.3801 26.1525C23.4792 26.3945 23.6382 26.7163 23.7333 26.8675C24.1387 27.5118 24.3601 27.9315 24.4443 28.215C24.4937 28.3814 24.633 28.6908 24.7537 28.9025C24.8744 29.1143 25.0158 29.3857 25.0679 29.5057C25.1714 29.7447 25.693 30.7784 26.0814 31.515C26.217 31.7721 26.3596 32.0815 26.3982 32.2025C26.4633 32.406 26.8082 32.9145 26.975 33.053C27.1751 33.2189 27.5495 32.7686 28.025 31.79C28.194 31.4421 28.4313 30.9595 28.5523 30.7175C28.6734 30.4755 28.8365 30.1166 28.9147 29.92C28.9931 29.7234 29.1125 29.4883 29.1801 29.3975C29.2476 29.3068 29.3189 29.1573 29.3382 29.0653C29.3578 28.9733 29.5368 28.6145 29.7363 28.2678C29.9358 27.9212 30.1437 27.5509 30.1986 27.445C30.3896 27.0754 30.91 25.9652 30.91 25.9273C30.91 25.6079 31.6023 25.2494 32.4397 25.1353C32.691 25.1011 33.186 25.0113 33.5397 24.9358C33.8932 24.8603 34.4875 24.764 34.8601 24.722C35.2327 24.6798 35.9134 24.5962 36.3726 24.5361C36.8319 24.476 37.5416 24.3876 37.95 24.3396C39.7036 24.1335 40.0672 23.9696 39.8248 23.4945C39.7634 23.3739 39.6932 23.2667 39.6693 23.2564C39.6453 23.246 39.5278 23.1138 39.4083 22.9625C39.1222 22.6005 38.6242 22.1031 38.4175 21.9733C38.3268 21.9163 38.2053 21.8097 38.1477 21.7366C38.0901 21.6633 37.5828 21.1485 37.0202 20.5923C33.5156 17.1274 33.7919 17.5753 34.0996 15.8569C34.1604 15.5177 34.21 15.1528 34.21 15.046C34.21 14.939 34.2338 14.7461 34.2628 14.6171C34.2918 14.4881 34.3413 14.1598 34.3728 13.8875C34.4044 13.6153 34.4934 13.1203 34.5707 12.7875C34.7368 12.0725 35.2 9.36061 35.2 9.10348C35.2 8.43523 34.4576 8.56957 32.9725 9.50622C32.8515 9.58253 32.6535 9.68456 32.5325 9.73296C32.4115 9.78122 32.1888 9.88916 32.0375 9.97262C31.8863 10.0562 31.5398 10.2472 31.2675 10.3972C30.9953 10.5472 30.5374 10.7821 30.25 10.919C29.9626 11.056 29.678 11.1966 29.6175 11.2318C29.557 11.2669 29.1981 11.454 28.82 11.6479C28.4419 11.8417 28.0954 12.0322 28.05 12.0713C27.4594 12.5807 26.9019 12.5729 26.0359 12.0434C25.7903 11.8932 25.3448 11.657 25.0459 11.5185C24.7471 11.3801 24.453 11.2226 24.3925 11.1686C24.332 11.1144 24.201 11.0429 24.1013 11.0096C24.0017 10.9764 23.8532 10.9018 23.7713 10.8441C23.6895 10.7863 23.4864 10.6707 23.32 10.5871C23.1536 10.5036 22.9104 10.3617 22.7794 10.272C22.6485 10.1822 22.4505 10.0841 22.3394 10.0542C22.2284 10.024 22.088 9.95557 22.0275 9.90195C21.967 9.84832 21.845 9.78727 21.7564 9.76623C21.6677 9.7452 21.2564 9.53152 20.8424 9.29158C20.4284 9.05151 20.0058 8.83921 19.9035 8.81968C19.8012 8.8003 19.6507 8.75066 19.569 8.70968C19.3718 8.61055 19.3251 8.61495 19.195 8.74502ZM34.8473 9.10211C34.9458 9.25226 34.848 10.4632 34.6783 11.1957C34.416 12.328 34.2965 12.9502 34.1822 13.7775C34.1111 14.2918 34.0149 14.9353 33.9683 15.2075C33.9215 15.4798 33.844 16.0705 33.7959 16.5201L33.7083 17.3377L33.8485 17.6242C33.9947 17.9231 34.0984 18.0359 35.1557 19.0473C35.5094 19.3857 35.8435 19.7079 35.8982 19.7634C36.7283 20.6069 38.2631 22.1074 38.2966 22.1085C38.3752 22.1111 38.9639 22.7759 39.0867 23.0006C39.1523 23.1206 39.2462 23.2634 39.2955 23.3177C39.6007 23.655 39.2781 23.9334 38.4692 24.0309C38.1988 24.0633 37.7919 24.1258 37.565 24.1695C37.1642 24.2468 36.9138 24.2798 35.475 24.4455C34.6302 24.5427 33.522 24.7178 32.8625 24.8584C32.5903 24.9164 32.1575 24.99 31.9011 25.022C31.1244 25.1188 30.613 25.6901 30.1626 26.9645C30.1224 27.0782 29.9153 27.4586 29.7025 27.8098C29.4898 28.1611 29.2892 28.5507 29.2567 28.6755C29.2244 28.8004 29.1118 29.0441 29.0065 29.2173C28.9013 29.3904 28.7665 29.6735 28.707 29.8462C28.6476 30.019 28.479 30.3848 28.3326 30.6589C28.1861 30.9331 27.9753 31.3643 27.8642 31.6172C27.4465 32.5673 27.1781 32.8061 26.867 32.5045C26.7618 32.4026 26.6606 32.2682 26.642 32.2058C26.5946 32.0465 26.007 30.8684 25.6802 30.2775C25.5298 30.0053 25.3909 29.7206 25.3719 29.645C25.3397 29.518 24.7904 28.4224 24.6961 28.2975C24.6733 28.2673 24.6111 28.1064 24.5581 27.94C24.4558 27.6196 24.353 27.423 24.0549 26.9775C23.9537 26.8263 23.7597 26.4333 23.6239 26.1043C23.2719 25.2518 23.1505 25.1602 22.165 25.0021C21.8474 24.951 21.3895 24.863 21.1475 24.8063C20.9055 24.7496 20.4724 24.6879 20.185 24.6689C19.8976 24.6499 19.5511 24.5997 19.415 24.5574C19.1648 24.4794 18.2471 24.3476 17.49 24.2805C17.2631 24.2604 16.929 24.2118 16.7475 24.1724C16.566 24.1331 16.2566 24.0845 16.06 24.0644C14.5793 23.9142 14.4459 23.5062 15.554 22.5161C15.8172 22.2809 16.577 21.5426 17.2425 20.8753C17.908 20.2081 18.9039 19.2291 19.4556 18.6999C20.1594 18.0245 20.4776 17.6811 20.522 17.5483C20.6119 17.2802 20.5462 16.288 20.4072 15.8125C20.3453 15.6008 20.2709 15.1924 20.2419 14.905C20.2131 14.6176 20.1372 14.2216 20.0735 14.025C19.9297 13.5812 19.7733 12.6797 19.6346 11.495C19.576 10.9959 19.489 10.3862 19.441 10.1401C19.393 9.89397 19.3614 9.55985 19.3707 9.3976L19.3875 9.10252L19.69 9.10898C19.8913 9.11338 20.0768 9.15931 20.2444 9.24648C20.3829 9.31853 20.5932 9.4262 20.7119 9.48573C20.8304 9.54527 20.9894 9.63451 21.065 9.68415C21.1406 9.73378 21.351 9.82935 21.5325 9.89645C21.714 9.96355 21.8996 10.0496 21.945 10.0877C21.9904 10.1258 22.1265 10.2061 22.2475 10.2662C22.5357 10.4093 23.0729 10.7093 23.3401 10.8764C23.457 10.9496 23.6475 11.0428 23.7637 11.0838C23.8798 11.1247 24.106 11.2419 24.2661 11.3442C24.4263 11.4463 24.7431 11.6197 24.97 11.7292C25.1969 11.8388 25.5377 12.03 25.7275 12.1541C26.8558 12.892 27.3215 12.8836 28.49 12.1046C28.5656 12.0542 28.7636 11.9528 28.93 11.8792C29.0964 11.8056 29.3068 11.6927 29.3975 11.6284C29.5871 11.4941 30.3211 11.1374 30.525 11.0805C30.6006 11.0594 30.7986 10.9612 30.965 10.8624C31.1314 10.7635 31.3789 10.6275 31.515 10.5602C31.6511 10.4928 31.812 10.3945 31.8725 10.3418C31.9987 10.2319 32.3102 10.0685 33.4675 9.50457C34.7181 8.89517 34.7127 8.89668 34.8473 9.10211Z" fill="#FADFA7"/>
<path fill-rule="evenodd" clip-rule="evenodd" d="M0 27.5V55H27.5H55V27.5V0H27.5H0V27.5ZM27.621 0.407413C27.9628 0.450038 28.5766 0.500638 28.985 0.520025C30.926 0.611738 32.1597 0.914512 33.4107 1.60614C33.4703 1.639 33.693 1.72205 33.9057 1.79053C35.0195 2.14954 35.5422 2.3837 35.915 2.69074C36.3549 3.05305 36.9134 3.41839 37.2765 3.58133C37.5292 3.69463 37.7125 3.83006 37.9144 4.05212C38.07 4.22345 38.3182 4.47714 38.4658 4.6156C38.6134 4.7542 38.8238 4.96581 38.9333 5.08585C39.2788 5.46466 39.5841 5.75713 39.6675 5.78916C39.7632 5.82588 40.1878 6.31744 40.3917 6.6275C40.4712 6.7485 40.5747 6.897 40.6218 6.9575C40.8305 7.22617 41.2849 7.83131 41.36 7.94049C41.4054 8.00649 41.5821 8.24766 41.7528 8.4766C41.9235 8.70554 42.1322 9.06991 42.2168 9.28634C42.3013 9.5029 42.3917 9.68 42.4174 9.68C42.486 9.68 42.8389 10.4402 42.8761 10.6678C42.9118 10.8875 43.2073 11.5875 43.3197 11.7184C43.4204 11.8359 43.8298 13.3792 43.8331 13.6544C43.8342 13.738 43.887 13.9855 43.9504 14.2044C44.2047 15.0818 44.2178 15.1944 44.2793 17.0583C44.3328 18.6805 44.3295 18.9827 44.2526 19.5066C44.2045 19.8352 44.165 20.2191 44.165 20.3595C44.165 20.6819 44.0117 21.9009 43.9345 22.1925C43.8705 22.4339 43.6631 23.5554 43.5073 24.5025C43.2953 25.7916 42.9743 27.1008 42.7657 27.5275C42.4874 28.097 42.336 28.4721 42.2641 28.7713C42.2232 28.9411 42.1153 29.201 42.0244 29.3488C41.9225 29.5142 41.8161 29.8118 41.7475 30.1234C41.6824 30.4187 41.5258 30.8649 41.371 31.1959C41.2253 31.5074 41.0285 31.9481 40.9336 32.175C40.6842 32.7718 40.5989 32.962 40.5391 33.055C40.4843 33.1404 40.3088 33.6533 40.1746 34.1208C40.1323 34.2683 40.0517 34.4667 39.9957 34.5616C39.9398 34.6566 39.8771 34.8184 39.8564 34.9213C39.8359 35.0241 39.7616 35.1846 39.6912 35.278C39.6209 35.3712 39.5351 35.5299 39.5005 35.6305C39.4659 35.7313 39.3284 35.9788 39.1948 36.1805C38.9098 36.611 38.6855 37.0633 38.6037 37.3721C38.5716 37.4934 38.4238 37.7955 38.2752 38.0436C38.1265 38.2917 38.005 38.5106 38.005 38.5301C38.005 38.5496 37.9493 38.6434 37.8813 38.7384C37.693 39.0016 37.4 39.5935 37.4 39.7107C37.4 39.9079 37.0923 40.4577 36.8415 40.7085C36.7856 40.7644 36.74 40.8301 36.74 40.8547C36.74 40.8792 36.6959 40.9472 36.642 41.0059C36.5881 41.0645 36.4983 41.2115 36.4425 41.3325C36.3866 41.4535 36.3102 41.5896 36.2725 41.635C36.235 41.6804 36.1618 41.8474 36.1101 42.0063C36.0584 42.1651 35.9961 42.295 35.9715 42.295C35.947 42.295 35.9118 42.355 35.8934 42.4282C35.8751 42.5015 35.8017 42.6315 35.7305 42.717C35.6593 42.8025 35.4927 43.0705 35.3606 43.3125C35.2283 43.5545 34.9958 43.9264 34.8439 44.1392C34.6918 44.3519 34.4853 44.7263 34.3848 44.9713C34.2713 45.2482 34.1045 45.5287 33.9445 45.7122C33.8029 45.8745 33.6003 46.1374 33.4947 46.2961C33.389 46.4549 33.2827 46.5849 33.2585 46.5849C33.2344 46.585 33.1726 46.678 33.121 46.7917C33.0696 46.9054 32.9599 47.0865 32.8774 47.1943C32.7947 47.3019 32.6498 47.5608 32.5551 47.7694C32.4605 47.9782 32.2744 48.2901 32.1416 48.4627C32.0088 48.6354 31.9 48.7981 31.9 48.8242C31.9 48.8503 31.776 48.9939 31.6243 49.1432C31.4428 49.3219 31.3104 49.5168 31.2368 49.7137C31.1752 49.8781 31.0798 50.0767 31.0245 50.1551C30.9693 50.2334 30.8617 50.4212 30.7856 50.5725C30.6427 50.8559 30.1923 51.4188 29.7386 51.8808C29.5965 52.0256 29.428 52.2463 29.3642 52.3713C29.2464 52.6021 29.1277 52.7423 28.49 53.4036C28.1337 53.7731 27.775 54.237 27.775 54.3285C27.775 54.5358 27.1208 54.8558 26.8484 54.7816C26.4771 54.6806 25.63 53.7012 25.63 53.373C25.63 53.3312 25.4734 53.1296 25.2819 52.9247C24.8568 52.4703 24.4951 51.982 24.3823 51.7104C24.2986 51.509 24.1159 51.2878 23.4655 50.6C23.2731 50.3965 23.0952 50.1478 23.0524 50.0225C22.912 49.6111 22.8074 49.4181 22.3761 48.7752C22.1392 48.422 21.9204 48.0755 21.8899 48.0052C21.8595 47.935 21.7477 47.7661 21.6415 47.63C21.3621 47.272 21.0111 46.7325 21.0106 46.6605C21.0103 46.6264 20.9689 46.5645 20.9186 46.523C20.8684 46.4815 20.7713 46.3237 20.7031 46.1725C20.6348 46.0212 20.4303 45.7431 20.2488 45.5544C19.951 45.2449 19.6372 44.7271 19.6336 44.5397C19.6329 44.4999 19.5466 44.3561 19.4419 44.22C19.1565 43.849 18.883 43.4285 18.8411 43.2963C18.8206 43.2315 18.6985 43.0232 18.5697 42.833C18.441 42.643 18.3026 42.4009 18.2622 42.295C18.1151 41.9097 17.8546 41.3835 17.7288 41.2173C17.658 41.1236 17.6 41.0292 17.6 41.0074C17.6 40.9856 17.5381 40.8866 17.4625 40.7874C17.3869 40.6882 17.325 40.5816 17.325 40.5503C17.325 40.5191 17.2847 40.4599 17.2354 40.4191C17.186 40.3781 17.0632 40.1636 16.9624 39.9424C16.8615 39.7211 16.727 39.467 16.6634 39.3778C16.5998 39.2884 16.4374 38.9863 16.3028 38.7064C16.1681 38.4266 16.0083 38.1109 15.9479 38.005C15.8876 37.8991 15.7002 37.5279 15.5316 37.18C15.1751 36.4444 15.0864 36.2687 14.7608 35.6505C14.6284 35.3991 14.52 35.138 14.52 35.0702C14.52 35.0024 14.4983 34.9235 14.4716 34.8948C14.4451 34.866 14.3935 34.7494 14.3572 34.6357C14.3209 34.522 14.2589 34.3967 14.2194 34.3573C14.117 34.2548 13.9398 33.8942 13.7781 33.4586C13.7012 33.2518 13.5795 32.9711 13.5076 32.835C13.4357 32.6989 13.3591 32.5009 13.3374 32.395C13.3158 32.2891 13.1795 31.9674 13.0347 31.68C12.8899 31.3926 12.6954 30.9936 12.6024 30.7931C12.4218 30.404 12.1 29.3546 12.1 29.1547C12.1 28.9427 11.8341 28.0797 11.6618 27.7322C11.5701 27.5474 11.495 27.3607 11.495 27.3173C11.495 27.2738 11.4312 27.0991 11.3534 26.929C11.1797 26.5497 11.0239 25.9127 10.9462 25.2649C10.9134 24.9912 10.8299 24.645 10.7558 24.475C10.5846 24.0822 10.3059 22.6743 10.2604 21.9725C10.2409 21.67 10.2017 21.2988 10.1735 21.1475C9.87566 19.5502 9.83991 16.8385 10.094 15.125C10.2002 14.4092 10.2761 13.8633 10.3463 13.31C10.3789 13.0529 10.4622 12.7064 10.5314 12.54C10.6006 12.3736 10.6718 12.1737 10.6897 12.0957C10.7077 12.0178 10.8467 11.7286 10.9986 11.4531C11.1507 11.1776 11.275 10.9317 11.275 10.9065C11.275 10.8815 11.3209 10.7746 11.3772 10.6692C11.4334 10.5637 11.4969 10.3588 11.5184 10.2139C11.5442 10.0398 11.612 9.88817 11.7183 9.76717C11.8936 9.56752 12.0968 9.16025 12.0988 9.00474C12.1011 8.82227 12.4285 8.25495 12.7001 7.96304C13.1153 7.51671 13.282 7.29094 13.4505 6.9465C13.6129 6.61458 13.8806 6.32651 14.7418 5.55748C15.0282 5.30159 15.3739 4.97035 15.51 4.82116C16.107 4.16708 16.4451 3.86238 16.7505 3.70356C17.3544 3.38924 17.6257 3.22616 17.9344 2.99131C18.3681 2.66159 18.8731 2.36541 19.0025 2.365C19.063 2.36473 19.1991 2.31151 19.305 2.24661C19.6976 2.00585 19.977 1.8744 20.2832 1.78613C20.456 1.73635 20.647 1.65096 20.7075 1.59651C21.2714 1.08859 23.1765 0.627963 25.3 0.485925C26.095 0.432712 26.9677 0.35695 26.9885 0.33935C26.9944 0.334125 27.279 0.364788 27.621 0.407413ZM34.155 9.6283C34.0491 9.68399 33.8264 9.76979 33.66 9.81874C33.3108 9.92159 32.5963 10.2356 32.5691 10.2983C32.4895 10.4812 31.1631 11.3098 30.8303 11.3843C30.4242 11.4753 28.8629 12.2233 28.2425 12.6241C27.5087 13.0981 26.4443 13.1099 25.8225 12.651C25.3714 12.3181 24.9865 12.0726 24.6093 11.8774C24.3958 11.7668 24.1579 11.635 24.0805 11.5842C24.0032 11.5336 23.7599 11.4422 23.5399 11.3813C23.0977 11.2588 22.3575 10.9013 22.047 10.6605C21.9369 10.575 21.8226 10.505 21.7933 10.505C21.764 10.505 21.68 10.4451 21.6068 10.3718C21.5335 10.2985 21.3631 10.1948 21.2281 10.1414C21.0929 10.088 20.8258 9.94895 20.6342 9.83249C19.953 9.41806 19.7189 9.54195 19.7785 10.285C19.8766 11.5071 20.0727 12.7441 20.2404 13.2C20.5348 14 20.6222 14.3536 20.6192 14.7335C20.6176 14.9337 20.6828 15.4316 20.764 15.84C20.9667 16.8594 20.9474 17.5175 20.7038 17.8922C20.3866 18.3798 18.392 20.295 18.2014 20.295C18.1731 20.295 18.15 20.3265 18.15 20.365C18.15 20.4036 18.0128 20.5707 17.845 20.7362C17.6774 20.9019 17.4075 21.2109 17.2454 21.4228C17.0833 21.6347 16.7812 21.9489 16.5741 22.121C16.3669 22.293 16.0366 22.5666 15.84 22.7289C14.9967 23.4248 15.6054 23.8604 17.435 23.8701C17.6921 23.8715 17.9891 23.8948 18.095 23.9218C18.3613 23.99 18.8893 24.1344 19.2472 24.2369C19.4121 24.284 19.9195 24.3412 20.3747 24.3639C20.9674 24.3935 21.2651 24.4325 21.4225 24.5013C21.5435 24.5541 21.8281 24.6412 22.055 24.6949C23.7403 25.0932 23.8486 25.1636 23.9328 25.9177C23.9788 26.3275 24.3122 27.0079 24.5348 27.1454C24.5625 27.1626 24.585 27.2246 24.585 27.2833C24.585 27.342 24.608 27.39 24.636 27.39C24.6641 27.39 24.7495 27.5221 24.8259 27.6836C24.9024 27.8451 25.0031 28.009 25.0499 28.0478C25.0968 28.0867 25.135 28.1472 25.135 28.1823C25.135 28.2175 25.2185 28.3759 25.3206 28.5343C25.4301 28.7042 25.5331 28.9594 25.572 29.1569C25.6612 29.6108 25.7995 30.0457 25.8757 30.1125C25.9798 30.2038 26.3681 30.8131 26.4356 30.9911C26.676 31.6249 26.7519 31.7765 26.8837 31.886C27.2385 32.1804 27.3103 32.1163 27.8388 31.0333C28.1009 30.4967 28.3581 29.9391 28.4108 29.7945C28.4633 29.6498 28.5274 29.5184 28.5531 29.5024C28.579 29.4866 28.6 29.4301 28.6 29.377C28.6 29.3239 28.6583 29.1584 28.7297 29.0091C28.801 28.8597 28.9033 28.6014 28.9569 28.435C29.0106 28.2686 29.0738 28.1078 29.0973 28.0775C29.1209 28.0473 29.2303 27.8495 29.3404 27.6381C29.4504 27.4266 29.5844 27.2038 29.6379 27.1431C29.6913 27.0823 29.9163 26.6613 30.1377 26.2075C30.7865 24.8783 30.9104 24.7825 32.1038 24.6894C32.5332 24.6558 32.9253 24.5924 33.11 24.5266C33.4078 24.4204 33.7833 24.357 34.705 24.2572C34.9621 24.2294 35.4076 24.181 35.695 24.1498C35.9824 24.1186 36.4155 24.0402 36.6575 23.9756C37.126 23.8503 37.3633 23.803 37.9778 23.712C38.3864 23.6515 38.716 23.5195 38.7261 23.4123C38.742 23.2438 38.7035 23.0603 38.6261 22.935C38.5056 22.7402 37.0971 21.365 36.7675 21.1207C36.6162 21.0085 36.2862 20.6668 36.0343 20.3614C35.7823 20.056 35.5531 19.7985 35.5252 19.7893C35.4971 19.7799 35.2301 19.5371 34.9317 19.2499C34.6335 18.9626 34.2255 18.579 34.0255 18.3975C33.402 17.8321 33.2096 17.2267 33.3873 16.39C33.4164 16.2539 33.4764 15.9134 33.5211 15.6336C33.5658 15.3537 33.6372 15.0567 33.6797 14.9736C33.7221 14.8904 33.7847 14.6245 33.8185 14.3825C33.8525 14.1405 33.929 13.6331 33.9885 13.255C34.048 12.8769 34.0975 12.4035 34.0984 12.2029C34.0996 11.9324 34.1358 11.7601 34.2387 11.5352C34.3611 11.268 34.5906 10.1515 34.5939 9.80774C34.5964 9.54553 34.4363 9.48008 34.155 9.6283Z" fill="#FCFCFB"/>
<path fill-rule="evenodd" clip-rule="evenodd" d="M26.5925 0.914504C25.7177 0.953141 24.6517 1.05709 24.42 1.12625C24.2839 1.16695 24.0151 1.21467 23.8227 1.2324C23.3027 1.28025 22.2149 1.54494 22.037 1.66704C21.9513 1.72562 21.788 1.79464 21.6739 1.82022C21.5597 1.84593 21.209 1.99085 20.8945 2.14238C20.58 2.2939 20.1919 2.44502 20.0321 2.47815C19.8722 2.51143 19.6972 2.58595 19.6433 2.6437C19.5894 2.70159 19.3684 2.8351 19.1521 2.94029C18.9358 3.04562 18.4832 3.31883 18.1462 3.54763C17.8091 3.77643 17.4433 4.01375 17.333 4.07508C16.988 4.26675 16.5869 4.57833 16.1805 4.9702C15.965 5.17797 15.7198 5.40237 15.6357 5.46878C15.3905 5.66224 14.7763 6.28195 14.6433 6.47019C14.5761 6.56507 14.4405 6.72883 14.3418 6.83388C14.0221 7.17447 13.7669 7.50488 13.7273 7.62987C13.706 7.6971 13.5212 7.96344 13.3167 8.2218C13.1123 8.48003 12.829 8.89528 12.6873 9.14443C12.5456 9.39358 12.3797 9.68412 12.3185 9.78999C12.2574 9.89587 11.9945 10.4899 11.7345 11.11C11.4744 11.7301 11.2373 12.2679 11.2075 12.3051C10.9219 12.6621 10.5423 15.0301 10.4294 17.16C10.3708 18.2647 10.52 20.5771 10.7273 21.78C10.7561 21.9464 10.8642 22.5846 10.9674 23.1986C11.0708 23.8124 11.1796 24.3445 11.2094 24.3811C11.2391 24.4175 11.3545 24.8187 11.466 25.2725C11.5774 25.7262 11.7311 26.2707 11.8077 26.4825C11.8841 26.6942 11.9844 26.9912 12.0302 27.1425C12.0761 27.2937 12.1322 27.4422 12.155 27.4725C12.1777 27.5027 12.2499 27.7801 12.3152 28.0889C12.3806 28.3976 12.4807 28.7812 12.5378 28.9414C12.5949 29.1015 12.7282 29.48 12.8343 29.7825C12.9401 30.085 13.1054 30.5181 13.2012 30.745C13.2972 30.9719 13.4932 31.4425 13.6368 31.7908C13.7804 32.1391 13.9266 32.4732 13.9615 32.5333C13.9965 32.5934 14.113 32.8519 14.2204 33.1078C14.3279 33.3637 14.4359 33.5988 14.4606 33.6303C14.4852 33.6618 14.556 33.825 14.6179 33.9929C14.7201 34.2703 14.8844 34.6276 15.5144 35.9425C15.6305 36.1845 15.9258 36.8032 16.1708 37.3175C16.416 37.8317 16.6396 38.2896 16.6678 38.335C16.6959 38.3804 16.7828 38.5378 16.8609 38.6846C16.939 38.8316 17.1126 39.1281 17.2465 39.3433C17.3804 39.5586 17.49 39.7567 17.49 39.7838C17.49 39.8108 17.6719 40.1332 17.8943 40.5002C18.1166 40.8672 18.3919 41.3531 18.5059 41.58C18.7019 41.9701 19.1203 42.6959 19.3936 43.12C19.4618 43.2259 19.5605 43.4239 19.613 43.56C19.6655 43.6961 19.7971 43.9103 19.9055 44.036C20.0138 44.1617 20.1891 44.4074 20.295 44.5822C20.4009 44.7569 20.7008 45.2233 20.9615 45.6186C21.222 46.0141 21.487 46.4394 21.5501 46.564C21.6131 46.6884 21.7245 46.8616 21.7973 46.9489C21.8703 47.0361 21.9865 47.2187 22.0556 47.3548C22.1246 47.4908 22.2133 47.627 22.2525 47.6573C22.3244 47.7129 22.6794 48.2632 22.8735 48.62C22.9312 48.7259 23.0313 48.8603 23.0959 48.9188C23.1605 48.9774 23.2909 49.163 23.3853 49.3313C23.4799 49.4997 23.7344 49.8726 23.9511 50.16C24.1677 50.4474 24.5014 50.9176 24.6925 51.205C25.1566 51.9027 25.384 52.2181 25.6846 52.58C25.8228 52.7464 26.0512 53.0557 26.1922 53.2675C26.4118 53.5971 26.744 53.9374 26.9896 54.0844C27.1257 54.1658 27.83 53.5973 27.83 53.4062C27.83 53.3753 27.8857 53.295 27.9538 53.2277C28.274 52.9115 29.1895 51.7309 29.3303 51.4525C29.3762 51.3617 29.5859 51.0724 29.7961 50.8097C30.0065 50.5469 30.357 50.0354 30.5752 49.673C30.7934 49.3106 31.0061 49.001 31.0481 48.9849C31.09 48.9688 31.1662 48.874 31.2175 48.7741C31.2686 48.6742 31.3944 48.4811 31.497 48.345C31.5996 48.2089 31.9168 47.7386 32.202 47.3C32.4873 46.8614 32.7648 46.4406 32.8188 46.365C32.8727 46.2894 33.0341 46.0349 33.1773 45.7995C33.3205 45.5641 33.5187 45.2632 33.6177 45.1311C33.872 44.791 34.1626 44.3025 34.6158 43.4525C34.7635 43.1757 35.04 42.7193 35.2305 42.4384C35.421 42.1575 35.7434 41.608 35.9469 41.2175C36.1504 40.827 36.3707 40.4332 36.4364 40.3425C36.5702 40.1577 36.8361 39.652 37.3764 38.555C37.5775 38.1466 37.8367 37.6501 37.9524 37.4517C38.068 37.2533 38.179 37.0261 38.1988 36.9469C38.2187 36.8679 38.2824 36.7602 38.3402 36.7078C38.3981 36.6554 38.4721 36.5113 38.5047 36.3874C38.5373 36.2637 38.6707 35.9769 38.8009 35.75C38.9312 35.5231 39.0682 35.2385 39.1053 35.1175C39.1424 34.9965 39.2919 34.6624 39.4375 34.375C39.5831 34.0876 39.7697 33.6792 39.8521 33.4675C39.9344 33.2557 40.0626 32.9464 40.1368 32.78C40.2111 32.6136 40.3174 32.3621 40.3732 32.2212C40.4289 32.0801 40.5253 31.8702 40.5873 31.7545C40.6493 31.6387 40.7 31.5153 40.7 31.4801C40.7 31.4447 40.7997 31.199 40.9217 30.9341C41.0435 30.669 41.2077 30.2272 41.2865 29.9523C41.3652 29.6774 41.4634 29.4037 41.5048 29.344C41.5462 29.2843 41.58 29.1864 41.58 29.1265C41.58 28.9762 41.8675 28.1168 42.2204 27.2122C42.3825 26.7967 42.515 26.4304 42.515 26.3981C42.515 26.3658 42.6269 25.8889 42.7638 25.3384C42.9007 24.7879 43.0998 23.8227 43.2062 23.1935C43.3128 22.5643 43.4214 21.995 43.4478 21.9285C43.4742 21.8619 43.5364 21.4486 43.5861 21.01C43.6358 20.5714 43.7114 19.9526 43.754 19.635C43.8677 18.7872 43.9087 17.4908 43.8416 16.8575C43.679 15.3204 43.6135 14.798 43.5688 14.6785C43.5419 14.6065 43.49 14.3742 43.4539 14.1625C43.382 13.742 43.1045 12.6974 42.9718 12.3475C42.9259 12.2265 42.8149 11.9419 42.7251 11.715C42.6353 11.4881 42.5365 11.2159 42.5053 11.11C42.474 11.0041 42.4302 10.8927 42.4076 10.8625C42.3851 10.8322 42.2903 10.6219 42.1971 10.395C41.9544 9.80415 41.0274 8.27433 40.6641 7.86499C40.5166 7.69889 40.3301 7.44452 40.0591 7.03999C39.6943 6.49563 37.0812 4.01499 36.8724 4.01499C36.8382 4.01499 36.4711 3.78605 36.0564 3.50624C35.6418 3.22643 35.2238 2.95432 35.1276 2.90152C34.7914 2.71727 34.0046 2.36499 33.9288 2.36485C33.8869 2.36472 33.5184 2.2323 33.11 2.07074C31.7456 1.5305 30.9867 1.30047 30.36 1.23694C30.1634 1.217 29.7674 1.15485 29.48 1.09862C29.0147 1.00773 28.713 0.981879 27.335 0.914916C27.1384 0.905291 26.8043 0.905154 26.5925 0.914504ZM28.16 1.31985C29.7899 1.45887 30.7274 1.60572 31.34 1.81788C31.5971 1.90712 31.845 1.97999 31.8908 1.97999C31.9365 1.97999 32.0129 2.01382 32.0608 2.0552C32.1544 2.13619 33.3164 2.58499 33.4326 2.58499C33.7557 2.58499 35.0996 3.16469 35.2315 3.3609C35.2866 3.44299 35.4569 3.57692 35.6096 3.65845C35.7625 3.73999 35.937 3.85123 35.9975 3.9054C36.058 3.95972 36.2716 4.07783 36.4719 4.16803C36.8547 4.34018 37.4714 4.85182 38.3075 5.69098C38.5495 5.9338 38.8589 6.22613 38.995 6.34053C39.2894 6.58789 39.2714 6.57057 39.5251 6.84749C39.6359 6.96849 39.8626 7.27787 40.0289 7.53499C40.1951 7.79212 40.4245 8.10149 40.5385 8.22249C40.6524 8.34349 40.8026 8.55387 40.8719 8.68999C41.0475 9.03457 41.4957 9.74022 41.6231 9.87249C41.6814 9.93299 41.7606 10.0815 41.7992 10.2025C41.8377 10.3235 41.903 10.4844 41.9444 10.56C41.9858 10.6356 42.1403 11.0564 42.2877 11.495C42.4353 11.9336 42.6349 12.5029 42.7313 12.76C42.9722 13.402 43.2313 14.5251 43.1929 14.7613C43.1375 15.1022 43.3697 16.4286 43.5111 16.5797C43.5952 16.6697 43.5706 19.0437 43.4815 19.4312C43.4383 19.6189 43.3736 19.9952 43.3375 20.2675C43.3015 20.5397 43.2263 20.9605 43.1705 21.2025C43.1147 21.4445 43.0427 21.8776 43.0107 22.165C42.9787 22.4524 42.9052 22.9474 42.8475 23.265C42.7899 23.5826 42.7264 23.9539 42.7064 24.09C42.5429 25.205 42.1377 26.569 41.669 27.5825C41.5256 27.8927 41.4779 28.0514 41.2768 28.8872C41.1032 29.6092 40.7876 30.6046 40.6806 30.768C40.637 30.8342 40.5002 31.1267 40.3763 31.4178C40.2525 31.7089 40.1041 32.0292 40.0466 32.1298C39.9893 32.2303 39.8629 32.5229 39.7658 32.78C39.6688 33.0371 39.5556 33.3341 39.5144 33.44C39.473 33.5459 39.4126 33.7375 39.38 33.866C39.3476 33.9944 39.2748 34.1429 39.2186 34.196C39.1624 34.249 39.0838 34.4039 39.0442 34.54C39.0045 34.6761 38.8845 34.9321 38.7774 35.1088C38.2824 35.9254 38.2066 36.0701 38.1365 36.3315C38.0628 36.6062 37.8404 37.0737 37.7066 37.235C37.669 37.2804 37.5836 37.4289 37.5168 37.565C37.4501 37.7011 37.3095 37.9581 37.2045 38.136C37.0994 38.3138 36.9995 38.5242 36.9823 38.6035C36.9375 38.8102 36.8357 39.0727 36.7872 39.1065C36.7644 39.1225 36.7001 39.2338 36.6446 39.354C36.589 39.4742 36.4557 39.7086 36.348 39.875C36.0843 40.2827 35.853 40.6946 35.5912 41.2225C35.4713 41.4645 35.2226 41.8605 35.0386 42.1025C34.7386 42.4971 34.1 43.661 34.1 43.8131C34.1 43.8461 33.9906 43.9726 33.8569 44.0943C33.6989 44.238 33.5893 44.3971 33.5441 44.5479C33.5059 44.6758 33.411 44.8488 33.3335 44.9326C33.2559 45.0164 33.1199 45.2306 33.0312 45.4087C32.9425 45.5867 32.8276 45.763 32.7758 45.8003C32.7 45.8549 32.4342 46.2652 32.2852 46.5575C32.2698 46.5877 32.1582 46.7569 32.0372 46.9334C31.9164 47.1098 31.7764 47.3284 31.7261 47.4189C31.6758 47.5095 31.5442 47.6814 31.4336 47.801C31.3229 47.9205 31.1747 48.1475 31.104 48.3054C31.0333 48.4632 30.863 48.7162 30.7253 48.8675C30.5877 49.0187 30.3958 49.3034 30.2987 49.5C30.093 49.9166 30.002 50.0455 29.5826 50.5131C29.4121 50.7031 29.2546 50.918 29.2328 50.9906C29.2108 51.0631 29.1247 51.1967 29.0415 51.2875C28.9582 51.3782 28.8186 51.5875 28.7313 51.7525C28.6381 51.9286 28.3621 52.2617 28.0629 52.559C27.7732 52.8469 27.5155 53.1564 27.4655 53.2764C27.2185 53.8696 26.6944 53.6636 26.2615 52.8032C26.2092 52.6991 26.0495 52.4887 25.9069 52.3356C25.5571 51.9604 25.2225 51.492 25.1463 51.271C25.1119 51.1712 24.9715 50.9582 24.8344 50.7976C24.6972 50.637 24.585 50.4915 24.585 50.4742C24.585 50.4205 24.1497 49.7843 24.0862 49.745C24.053 49.7247 23.9388 49.5683 23.8322 49.3977C23.7258 49.2271 23.5804 49.038 23.5095 48.9775C23.3937 48.8789 22.605 47.5654 22.605 47.4712C22.605 47.4501 22.4951 47.325 22.3608 47.1931C22.2265 47.0613 22.0873 46.8829 22.0516 46.7967C22.0158 46.7105 21.9673 46.64 21.9436 46.64C21.92 46.64 21.8076 46.4605 21.6942 46.2412C21.5808 46.0219 21.4066 45.7242 21.3071 45.5797C21.2079 45.4354 21.1109 45.2683 21.0921 45.2085C21.0731 45.1488 21.0389 45.1 21.0161 45.1C20.9932 45.1 20.9191 44.9948 20.8515 44.8662C20.673 44.5273 20.4691 44.2214 20.1627 43.8331C20.0142 43.645 19.8065 43.3147 19.701 43.0992C19.5955 42.8838 19.4756 42.6877 19.4347 42.6635C19.3936 42.6393 19.36 42.5877 19.36 42.5488C19.36 42.5099 19.2334 42.2698 19.0785 42.0153C18.9237 41.7608 18.7393 41.4287 18.6688 41.2775C18.4943 40.9031 18.0461 40.0863 17.9596 39.985C17.9208 39.9396 17.8463 39.7709 17.7939 39.61C17.7321 39.4204 17.6138 39.2301 17.4569 39.0687C17.3239 38.9319 17.215 38.7931 17.215 38.7605C17.215 38.6974 16.933 38.0709 16.8007 37.84C16.7574 37.7644 16.6823 37.6159 16.6338 37.51C16.4612 37.1334 15.8826 35.9411 15.8331 35.86C15.8055 35.8146 15.7457 35.6909 15.7004 35.585C15.4355 34.9657 15.0018 34.1 14.9566 34.1C14.9075 34.1 14.8136 33.8507 14.7715 33.6087C14.7535 33.5049 14.605 33.146 14.4414 32.8112C14.0645 32.0394 13.86 31.5748 13.86 31.4896C13.86 31.4528 13.7394 31.1762 13.5922 30.8749C13.4448 30.5737 13.2817 30.1807 13.2296 30.0015C13.1775 29.8224 13.0856 29.5791 13.0254 29.461C12.8862 29.1884 12.6523 28.3041 12.651 28.0456C12.6496 27.771 12.2838 26.4568 12.1624 26.29C12.0729 26.1669 11.8669 25.5776 11.5475 24.53C11.4876 24.3334 11.3908 23.9185 11.3322 23.6082C11.2736 23.2979 11.2134 23.0237 11.1981 22.9992C11.183 22.9746 11.1426 22.6717 11.1085 22.326C11.0743 21.9803 10.9999 21.4376 10.9429 21.12C10.6529 19.5009 10.6666 15.8591 10.9673 14.6025C11.0107 14.421 11.063 14.0745 11.0835 13.8325C11.1075 13.5491 11.1689 13.2868 11.2559 13.0955C11.3303 12.9321 11.4053 12.7218 11.4229 12.628C11.4404 12.5342 11.4982 12.408 11.5514 12.3475C11.6947 12.1843 11.913 11.7249 12.0163 11.3699C12.0663 11.1979 12.1285 11.044 12.1543 11.0279C12.1802 11.012 12.2537 10.8417 12.3177 10.6496C12.3815 10.4577 12.5026 10.1919 12.5868 10.0591C12.6709 9.92612 12.8066 9.68137 12.8883 9.51499C13.0673 9.1502 13.273 8.80233 13.3759 8.68999C13.4174 8.64462 13.5372 8.4891 13.6419 8.34432C13.7467 8.19967 13.9006 7.99204 13.9838 7.883C14.0669 7.7741 14.135 7.66383 14.135 7.63812C14.135 7.61254 14.2655 7.4364 14.4249 7.24693C14.5844 7.05745 14.7687 6.83264 14.8347 6.74712C14.9007 6.66173 15.0538 6.5201 15.1749 6.43238C15.2961 6.34465 15.5013 6.15683 15.6313 6.01493C16.435 5.13754 17.2715 4.39999 17.4631 4.39999C17.4873 4.39999 17.5836 4.34169 17.6773 4.27047C17.7709 4.1991 17.9465 4.08635 18.0675 4.01967C18.5747 3.7404 18.8202 3.59218 19.0691 3.41453C19.4292 3.15768 19.9319 2.89657 20.295 2.7779C20.6557 2.65993 21.6847 2.23684 21.9175 2.11062C22.2221 1.94548 23.1516 1.65769 23.5815 1.59527C23.8158 1.5613 24.255 1.4964 24.5575 1.45103C25.7458 1.2731 27.053 1.22553 28.16 1.31985ZM18.932 8.33579C18.6659 8.5221 18.5362 9.15392 18.7008 9.46137C18.7358 9.52682 18.7994 9.83042 18.8425 10.1362C18.8854 10.4419 18.9662 10.7799 19.0222 10.8872C19.0869 11.0117 19.1484 11.322 19.1916 11.7425C19.2816 12.6222 19.4545 13.8582 19.5491 14.3C19.6785 14.9036 19.7385 15.2442 19.7971 15.7025C19.8281 15.9445 19.895 16.3072 19.9459 16.5085C20.1238 17.2116 19.4499 18.1321 17.7552 19.5016C17.5533 19.6648 17.3726 19.847 17.3536 19.9064C17.3348 19.9658 17.2755 20.0282 17.2219 20.0453C17.0921 20.0865 16.39 20.7949 16.39 20.8846C16.39 20.9234 16.3653 20.955 16.335 20.955C16.3048 20.955 16.2367 21.0011 16.1838 21.0573C16.1308 21.1135 15.9638 21.2906 15.8125 21.4508C15.6613 21.611 15.3148 21.9075 15.0425 22.1096C14.6945 22.3681 14.5086 22.5492 14.4163 22.7198C14.3443 22.8533 14.2143 23.0949 14.1276 23.2569C13.6378 24.1714 14.0157 24.4237 16.115 24.5846C16.5234 24.6158 16.9689 24.6643 17.105 24.6922C17.3407 24.7406 17.9981 24.8194 18.7386 24.8882C18.9262 24.9056 19.2479 24.9777 19.4536 25.0484C19.6906 25.1298 20.0289 25.1901 20.3775 25.2131C22.478 25.352 22.7788 25.5034 23.1821 26.6243C23.232 26.7627 23.3746 27.0102 23.4992 27.1743C23.79 27.5572 24.095 28.1398 24.2584 28.625C24.3294 28.8353 24.4375 29.0575 24.4988 29.1188C24.6203 29.2403 24.8562 29.7109 24.9692 30.0578C25.0782 30.392 25.3539 30.9801 25.4544 31.0925C25.6937 31.36 26.0756 32.1238 26.2086 32.6008C26.36 33.1441 26.8639 33.5576 27.2223 33.4327C27.471 33.3459 28.0316 32.6055 28.2161 32.12C28.2563 32.0141 28.3327 31.8641 28.3859 31.7867C28.4391 31.7091 28.5 31.573 28.5212 31.4842C28.5424 31.3952 28.5913 31.2854 28.63 31.24C28.6947 31.164 28.7672 31.0155 29.2537 29.9611C29.3479 29.7568 29.425 29.5588 29.4252 29.5211C29.4252 29.4834 29.5303 29.29 29.6589 29.0913C29.7873 28.8926 29.9394 28.6451 29.9967 28.5413C30.0539 28.4375 30.1425 28.303 30.1934 28.2425C30.4036 27.9925 30.6438 27.5687 30.6987 27.3508C30.7308 27.2229 30.7916 27.0898 30.8336 27.0549C30.8756 27.0201 30.91 26.9446 30.91 26.8872C30.91 26.8298 30.9672 26.6905 31.0372 26.5776C31.1071 26.4648 31.1952 26.2956 31.2331 26.2016C31.3793 25.8382 31.9036 25.5889 33 25.3613C33.8788 25.179 34.1123 25.1285 34.6775 24.9994C34.859 24.9579 35.3911 24.8949 35.86 24.8594C36.3289 24.824 36.9971 24.7477 37.345 24.69C37.6929 24.6324 38.0815 24.5853 38.2085 24.5851C39.9852 24.5839 40.8297 23.9869 40.115 23.2375C40.0283 23.1467 39.8426 22.9108 39.7019 22.7131C39.4253 22.3239 39.1336 22.0481 38.83 21.8883C38.7241 21.8325 38.4977 21.643 38.3268 21.4672C38.1559 21.2913 37.9018 21.0361 37.7621 20.9C36.8917 20.0518 36.52 19.6706 36.52 19.6265C36.52 19.5988 36.4396 19.5286 36.3413 19.4701C36.243 19.4117 36.1006 19.2868 36.025 19.1924C35.6866 18.7703 35.2531 18.3246 34.925 18.0619C34.5373 17.7512 34.3197 17.3679 34.3211 16.9976C34.3239 16.2169 34.5736 14.2531 34.7945 13.2751C34.8706 12.9383 34.9529 12.53 34.9777 12.3676C35.0023 12.2053 35.0614 11.9116 35.1089 11.715C35.1564 11.5184 35.2327 11.0976 35.2784 10.78C35.3242 10.4624 35.414 10.0046 35.4779 9.7629C35.7995 8.54589 35.2362 7.98365 34.1825 8.46972C33.3887 8.83602 33.2746 8.89473 32.4276 9.37117C32.2187 9.48873 31.9052 9.6408 31.7309 9.70914C31.5567 9.77734 31.1796 9.99679 30.893 10.1966C30.6063 10.3965 30.3553 10.56 30.3351 10.56C30.2887 10.56 28.8437 11.2472 28.5175 11.4245C28.457 11.4573 28.2447 11.5604 28.0457 11.6534C27.8468 11.7465 27.589 11.887 27.4728 11.9659C27.1406 12.1913 26.87 12.1649 26.4143 11.8623C26.1177 11.6654 25.0502 11.1193 24.3925 10.8283C24.1164 10.7062 23.3174 10.2477 23.2275 10.1599C23.0401 9.97685 22.7149 9.79302 22.426 9.7068C22.2673 9.65937 22.0014 9.53493 21.835 9.43029C21.6686 9.32565 21.4459 9.19998 21.34 9.15117C21.2341 9.10222 21.0862 9.00088 21.0112 8.92608C20.7765 8.69164 20.4465 8.53682 20.0548 8.47755C19.847 8.44607 19.6346 8.38199 19.5829 8.3351C19.4615 8.22524 19.0893 8.22565 18.932 8.33579ZM19.569 8.70965C19.6507 8.75063 19.8012 8.80027 19.9035 8.81965C20.0058 8.83918 20.4284 9.05148 20.8424 9.29155C21.2564 9.53149 21.6677 9.74517 21.7564 9.7662C21.845 9.78724 21.967 9.84829 22.0275 9.90192C22.088 9.95554 22.2284 10.024 22.3394 10.0541C22.4505 10.0841 22.6485 10.1821 22.7794 10.2719C22.9104 10.3617 23.1536 10.5036 23.32 10.5871C23.4864 10.6707 23.6895 10.7863 23.7713 10.8441C23.8532 10.9018 24.0017 10.9763 24.1013 11.0096C24.201 11.0429 24.332 11.1144 24.3925 11.1686C24.453 11.2226 24.7471 11.38 25.0459 11.5185C25.3448 11.657 25.7903 11.8932 26.0359 12.0433C26.9019 12.5729 27.4594 12.5807 28.05 12.0713C28.0954 12.0322 28.4419 11.8416 28.82 11.6479C29.1981 11.454 29.557 11.2669 29.6175 11.2318C29.678 11.1966 29.9626 11.056 30.25 10.919C30.5374 10.7821 30.9953 10.5472 31.2675 10.3972C31.5398 10.2472 31.8863 10.0562 32.0375 9.97259C32.1888 9.88913 32.4115 9.78119 32.5325 9.73293C32.6535 9.68453 32.8515 9.5825 32.9725 9.50619C34.4577 8.56954 35.2 8.4352 35.2 9.10345C35.2 9.36058 34.7368 12.0725 34.5707 12.7875C34.4934 13.1202 34.4044 13.6152 34.3728 13.8875C34.3413 14.1597 34.2918 14.4881 34.2628 14.6171C34.2338 14.746 34.21 14.939 34.21 15.0459C34.21 15.1528 34.1604 15.5177 34.0996 15.8569C33.8227 17.4038 33.836 17.4406 35.1446 18.7366C35.6138 19.201 36.4577 20.0362 37.0202 20.5923C37.5828 21.1485 38.0901 21.6633 38.1477 21.7365C38.2054 21.8097 38.3268 21.9163 38.4175 21.9733C38.6242 22.1031 39.1222 22.6005 39.4083 22.9625C39.5278 23.1137 39.6453 23.246 39.6693 23.2563C39.6932 23.2666 39.7634 23.3739 39.8248 23.4945C40.0672 23.9695 39.7036 24.1334 37.95 24.3396C37.5416 24.3875 36.8319 24.476 36.3726 24.536C35.9134 24.5961 35.2327 24.6797 34.8601 24.7219C34.4875 24.764 33.8932 24.8603 33.5397 24.9358C33.1861 25.0112 32.6911 25.101 32.4397 25.1353C31.6023 25.2494 30.91 25.6079 30.91 25.9273C30.91 25.9652 30.3896 27.0754 30.1986 27.445C30.1437 27.5509 29.9358 27.9212 29.7363 28.2678C29.5368 28.6144 29.3578 28.9733 29.3382 29.0653C29.3189 29.1573 29.2476 29.3067 29.1801 29.3975C29.1125 29.4882 28.9931 29.7234 28.9147 29.92C28.8365 30.1166 28.6734 30.4755 28.5523 30.7175C28.4313 30.9595 28.194 31.4421 28.025 31.79C27.5495 32.7686 27.1751 33.2189 26.975 33.0529C26.8082 32.9145 26.4633 32.406 26.3982 32.2025C26.3596 32.0815 26.217 31.7721 26.0814 31.515C25.693 30.7784 25.1714 29.7447 25.0679 29.5057C25.0158 29.3857 24.8744 29.1142 24.7537 28.9025C24.633 28.6907 24.4937 28.3814 24.4443 28.215C24.3601 27.9315 24.1387 27.5118 23.7333 26.8675C23.6382 26.7162 23.4792 26.3945 23.3801 26.1525C23.0603 25.3711 22.7107 25.1793 21.3734 25.051C21.1648 25.0309 20.8999 24.9813 20.7845 24.9406C20.6691 24.8999 20.3448 24.8405 20.0637 24.8084C18.7831 24.663 18.5593 24.6335 18.3213 24.5798C18.0901 24.5277 17.0918 24.4046 16.335 24.3352C13.9721 24.1182 13.8251 23.8671 15.2578 22.495C15.9433 21.8386 16.3658 21.4185 16.8651 20.8974C17.2497 20.4957 17.9037 19.8415 18.0125 19.7495C18.0428 19.7241 18.3645 19.4169 18.7275 19.067C19.0905 18.7172 19.5643 18.2625 19.7803 18.0568C20.3429 17.5209 20.3748 17.4404 20.2967 16.7544C20.2104 15.997 19.9964 14.774 19.8333 14.1075C19.7593 13.805 19.6578 13.1986 19.6078 12.76C19.5576 12.3214 19.4817 11.7769 19.4391 11.55C19.3964 11.3231 19.3254 10.8269 19.2812 10.4474C19.2369 10.0677 19.1747 9.68879 19.1429 9.60505C18.9269 9.03704 19.1766 8.51248 19.569 8.70965Z" fill="#EDC473"/>
<path fill-rule="evenodd" clip-rule="evenodd" d="M26.5375 0.390613C26.2955 0.413713 25.7386 0.456475 25.3 0.4859C23.1765 0.627938 21.2714 1.08856 20.7075 1.59649C20.647 1.65094 20.456 1.73633 20.2832 1.7861C19.977 1.87438 19.6976 2.00583 19.305 2.24659C19.1991 2.31149 19.063 2.3647 19.0025 2.36498C18.8731 2.36539 18.3681 2.66156 17.9344 2.99129C17.6257 3.22614 17.3544 3.38921 16.7505 3.70354C16.4451 3.86235 16.107 4.16705 15.51 4.82114C15.3739 4.97033 15.0282 5.30156 14.7418 5.55745C13.8806 6.32649 13.6129 6.61455 13.4505 6.94648C13.282 7.29091 13.1153 7.51669 12.7001 7.96301C12.4285 8.25493 12.1011 8.82225 12.0988 9.00471C12.0968 9.16023 11.8936 9.5675 11.7183 9.76715C11.612 9.88815 11.5442 10.0398 11.5184 10.2139C11.4969 10.3588 11.4334 10.5637 11.3772 10.6692C11.3209 10.7746 11.275 10.8815 11.275 10.9065C11.275 10.9316 11.1507 11.1776 10.9986 11.453C10.8467 11.7286 10.7077 12.0178 10.6897 12.0957C10.6718 12.1737 10.6006 12.3736 10.5314 12.54C10.4622 12.7063 10.3789 13.0529 10.3463 13.31C10.2761 13.8633 10.2002 14.4092 10.094 15.125C9.83992 16.8385 9.87567 19.5501 10.1735 21.1475C10.2017 21.2987 10.2409 21.67 10.2604 21.9725C10.3059 22.6743 10.5846 24.0821 10.7558 24.475C10.8299 24.6449 10.9134 24.9912 10.9462 25.2649C11.0239 25.9127 11.1797 26.5497 11.3534 26.9289C11.4312 27.099 11.495 27.2738 11.495 27.3172C11.495 27.3607 11.5701 27.5474 11.6618 27.7322C11.8341 28.0797 12.1 28.9426 12.1 29.1547C12.1 29.3546 12.4218 30.404 12.6024 30.7931C12.6954 30.9936 12.8899 31.3926 13.0347 31.68C13.1795 31.9674 13.3158 32.2891 13.3374 32.395C13.3591 32.5009 13.4357 32.6989 13.5076 32.835C13.5795 32.9711 13.7012 33.2517 13.7781 33.4585C13.9398 33.8941 14.117 34.2548 14.2194 34.3572C14.2589 34.3967 14.3209 34.522 14.3572 34.6357C14.3935 34.7494 14.4451 34.866 14.4716 34.8947C14.4983 34.9235 14.52 35.0024 14.52 35.0702C14.52 35.138 14.6284 35.3991 14.7608 35.6504C15.0864 36.2686 15.1751 36.4444 15.5316 37.18C15.7002 37.5279 15.8876 37.8991 15.9479 38.005C16.0083 38.1109 16.1681 38.4266 16.3028 38.7064C16.4374 38.9863 16.5998 39.2884 16.6634 39.3778C16.727 39.467 16.8615 39.7211 16.9624 39.9424C17.0632 40.1636 17.186 40.3781 17.2354 40.4191C17.2847 40.4599 17.325 40.519 17.325 40.5502C17.325 40.5816 17.3869 40.6881 17.4625 40.7874C17.5381 40.8866 17.6 40.9856 17.6 41.0074C17.6 41.0292 17.658 41.1236 17.7288 41.2173C17.8547 41.3835 18.1151 41.9097 18.2622 42.295C18.3026 42.4009 18.441 42.643 18.5697 42.833C18.6985 43.0232 18.8206 43.2315 18.8411 43.2963C18.883 43.4285 19.1565 43.849 19.442 44.22C19.5466 44.3561 19.6329 44.4999 19.6336 44.5397C19.6372 44.7271 19.951 45.2449 20.2488 45.5544C20.4303 45.7431 20.6348 46.0212 20.7031 46.1725C20.7713 46.3237 20.8684 46.4814 20.9186 46.523C20.9689 46.5645 21.0103 46.6264 21.0106 46.6605C21.0111 46.7325 21.3621 47.2719 21.6415 47.63C21.7477 47.7661 21.8595 47.935 21.8899 48.0052C21.9204 48.0755 22.1392 48.422 22.3761 48.7752C22.8074 49.418 22.912 49.6111 23.0524 50.0225C23.0952 50.1477 23.2731 50.3965 23.4655 50.6C24.1159 51.2878 24.2986 51.509 24.3823 51.7104C24.4951 51.982 24.8568 52.4703 25.2819 52.9247C25.4734 53.1296 25.63 53.3311 25.63 53.3729C25.63 53.7012 26.4771 54.6806 26.8484 54.7816C27.1208 54.8557 27.775 54.5358 27.775 54.3284C27.775 54.237 28.1337 53.7731 28.49 53.4036C29.1277 52.7422 29.2464 52.6021 29.3642 52.3713C29.428 52.2463 29.5965 52.0256 29.7386 51.8808C30.1923 51.4188 30.6427 50.8559 30.7856 50.5725C30.8617 50.4212 30.9693 50.2334 31.0245 50.155C31.0798 50.0767 31.1752 49.8781 31.2368 49.7137C31.3104 49.5168 31.4428 49.3219 31.6243 49.1432C31.776 48.9938 31.9 48.8503 31.9 48.8242C31.9 48.798 32.0088 48.6354 32.1416 48.4627C32.2744 48.2901 32.4605 47.9781 32.5551 47.7694C32.6498 47.5608 32.7947 47.3019 32.8774 47.1942C32.9599 47.0864 33.0696 46.9054 33.121 46.7916C33.1726 46.6779 33.2344 46.585 33.2585 46.5848C33.2827 46.5848 33.389 46.4549 33.4947 46.2961C33.6003 46.1374 33.8029 45.8745 33.9445 45.7121C34.1045 45.5287 34.2713 45.2482 34.3848 44.9713C34.4853 44.7263 34.6918 44.3518 34.8439 44.1391C34.9958 43.9264 35.2283 43.5545 35.3606 43.3125C35.4927 43.0705 35.6593 42.8025 35.7305 42.717C35.8017 42.6314 35.8751 42.5015 35.8934 42.4282C35.9118 42.3549 35.947 42.295 35.9715 42.295C35.9961 42.295 36.0584 42.165 36.1101 42.0062C36.1618 41.8474 36.235 41.6804 36.2725 41.635C36.3102 41.5896 36.3866 41.4535 36.4425 41.3325C36.4983 41.2115 36.5881 41.0645 36.642 41.0059C36.6959 40.9472 36.74 40.8791 36.74 40.8547C36.74 40.8301 36.7856 40.7643 36.8415 40.7085C37.0923 40.4577 37.4 39.9078 37.4 39.7107C37.4 39.5935 37.693 39.0016 37.8813 38.7384C37.9493 38.6434 38.005 38.5496 38.005 38.5301C38.005 38.5106 38.1265 38.2917 38.2752 38.0436C38.4238 37.7954 38.5716 37.4933 38.6037 37.3721C38.6855 37.0632 38.9098 36.611 39.1948 36.1805C39.3284 35.9788 39.4659 35.7313 39.5005 35.6305C39.5351 35.5298 39.6209 35.3712 39.6912 35.2779C39.7616 35.1846 39.8359 35.0241 39.8564 34.9213C39.8771 34.8184 39.9398 34.6566 39.9957 34.5616C40.0517 34.4667 40.1323 34.2683 40.1746 34.1207C40.3088 33.6532 40.4843 33.1404 40.5391 33.055C40.5989 32.962 40.6842 32.7717 40.9336 32.175C41.0285 31.9481 41.2253 31.5074 41.371 31.1958C41.5258 30.8649 41.6824 30.4187 41.7475 30.1233C41.8161 29.8118 41.9225 29.5142 42.0244 29.3488C42.1153 29.201 42.2232 28.9411 42.2641 28.7713C42.336 28.4721 42.4874 28.097 42.7657 27.5275C42.9743 27.1008 43.2953 25.7915 43.5073 24.5025C43.6631 23.5554 43.8705 22.4339 43.9345 22.1925C44.0117 21.9008 44.165 20.6819 44.165 20.3595C44.165 20.2191 44.2045 19.8352 44.2526 19.5066C44.3295 18.9827 44.3328 18.6805 44.2793 17.0582C44.2178 15.1944 44.2047 15.0818 43.9504 14.2044C43.887 13.9855 43.8342 13.738 43.8331 13.6544C43.8298 13.3791 43.4204 11.8358 43.3197 11.7184C43.2073 11.5875 42.9118 10.8875 42.8761 10.6678C42.8389 10.4402 42.486 9.67998 42.4174 9.67998C42.3917 9.67998 42.3013 9.50288 42.2168 9.28631C42.1322 9.06989 41.9235 8.70551 41.7528 8.47658C41.5821 8.24764 41.4054 8.00646 41.36 7.94046C41.2849 7.83129 40.8305 7.22615 40.6218 6.95748C40.5747 6.89698 40.4712 6.74848 40.3917 6.62748C40.1878 6.31741 39.7632 5.82585 39.6675 5.78914C39.5841 5.7571 39.2788 5.46464 38.9333 5.08583C38.8238 4.96579 38.6134 4.75418 38.4658 4.61558C38.3182 4.47711 38.07 4.22343 37.9144 4.0521C37.7125 3.83004 37.5292 3.6946 37.2765 3.5813C36.9134 3.41836 36.3549 3.05303 35.915 2.69071C35.5422 2.38368 35.0195 2.14951 33.9057 1.7905C33.693 1.72203 33.4703 1.63898 33.4107 1.60611C32.1597 0.914488 30.926 0.611713 28.985 0.52C28.5766 0.500613 27.9628 0.450013 27.621 0.407388C27.279 0.364763 26.9944 0.3341 26.9885 0.339325C26.9825 0.344413 26.7795 0.367513 26.5375 0.390613ZM28.1325 0.717588C30.4446 0.9644 31.2484 1.10768 32.1065 1.42599C32.9678 1.74554 33.3051 1.87369 33.4125 1.92236C33.473 1.94973 33.7453 2.06371 34.0175 2.1755C34.2898 2.28729 34.69 2.46233 34.907 2.56435C35.124 2.66651 35.3196 2.74998 35.3419 2.74998C35.3643 2.74998 35.5086 2.84334 35.6626 2.9576C36.0389 3.23659 36.933 3.79498 37.0033 3.79498C37.1148 3.79498 38.6453 5.17699 39.0998 5.68794C39.1783 5.77621 39.3037 5.89996 39.3786 5.96294C39.6488 6.1905 39.9939 6.57949 40.2362 6.92998C40.3722 7.1266 40.6055 7.43598 40.7547 7.61748C40.9039 7.79898 41.1 8.07219 41.1905 8.22468C41.2808 8.37716 41.418 8.57516 41.4953 8.66468C41.5724 8.75419 41.6515 8.87698 41.6708 8.93748C41.69 8.99798 41.762 9.12173 41.8307 9.21248C41.9914 9.42464 42.5432 10.5289 42.6141 10.78C42.644 10.8859 42.7665 11.2076 42.8862 11.495C43.3297 12.5587 43.4142 12.8683 43.867 15.0851C44.1094 16.272 44.1033 19.0782 43.8548 20.7075C43.8087 21.01 43.7493 21.4208 43.7231 21.6206C43.6967 21.8203 43.6498 22.043 43.6189 22.1156C43.5879 22.1881 43.5241 22.5569 43.477 22.935C43.4019 23.5381 43.1893 24.629 42.9206 25.7892C42.8079 26.2758 42.4647 27.3317 42.3738 27.4708C42.3338 27.5323 42.2338 27.8176 42.1516 28.105C42.0694 28.3924 41.9195 28.804 41.8186 29.0199C41.7176 29.2356 41.635 29.4508 41.635 29.498C41.635 29.6502 41.2651 30.7183 41.0966 31.0527C41.0065 31.2313 40.8635 31.5755 40.7788 31.8175C40.6941 32.0595 40.5945 32.307 40.5575 32.3675C40.5207 32.428 40.4232 32.6507 40.341 32.8625C40.2588 33.0742 40.1239 33.3963 40.0411 33.5779C39.9585 33.7597 39.8714 33.97 39.8476 34.0454C39.8239 34.1209 39.687 34.4085 39.5436 34.6848C39.4002 34.9611 39.2518 35.2829 39.214 35.3998C39.1762 35.5168 38.9811 35.9342 38.7805 36.3275C38.5798 36.7207 38.3764 37.1291 38.3285 37.235C38.2491 37.4106 38.0146 37.8625 37.4584 38.9125C37.3464 39.1242 37.1986 39.4379 37.1301 39.6093C37.0617 39.7809 36.9584 39.9642 36.9003 40.0166C36.8424 40.0691 36.795 40.1397 36.795 40.1735C36.795 40.2073 36.7051 40.3705 36.5952 40.5362C36.4854 40.7019 36.3085 41.0107 36.2021 41.2225C36.0958 41.4342 35.9893 41.6204 35.9653 41.6361C35.9414 41.6518 35.8731 41.7787 35.8134 41.9181C35.7536 42.0574 35.5516 42.4025 35.3646 42.6851C35.1775 42.9676 34.9411 43.3642 34.8393 43.5662C34.7376 43.7683 34.5946 43.9806 34.5216 44.0381C34.4484 44.0955 34.3714 44.2211 34.3504 44.3169C34.3294 44.4129 34.2522 44.5794 34.1792 44.6872C34.1061 44.7949 34.006 44.961 33.9566 45.0564C33.9074 45.1517 33.7772 45.3467 33.6673 45.4898C33.4997 45.7079 33.3179 45.9783 32.8609 46.6893C32.8296 46.7377 32.7121 46.9186 32.5996 47.0911C32.487 47.2635 32.395 47.42 32.395 47.4386C32.395 47.4851 31.4589 48.8539 31.3803 48.9225C31.2918 48.9996 30.7403 49.8528 30.5487 50.2091C30.4608 50.3721 30.1903 50.7434 29.9475 51.0341C29.7047 51.3247 29.4375 51.6796 29.3538 51.8226C29.27 51.9658 29.0423 52.2751 28.8479 52.5101C28.3995 53.0517 28.0093 53.5216 27.7164 53.8725C27.5902 54.0237 27.3928 54.2047 27.2775 54.2744L27.068 54.4014L26.8302 54.2546C26.5121 54.0581 26.1768 53.6973 25.8695 53.2205C25.7302 53.0043 25.5266 52.7264 25.4169 52.6028C25.1574 52.3105 24.695 51.6689 24.695 51.6013C24.695 51.5722 24.6561 51.5161 24.6085 51.4767C24.5609 51.4372 24.4716 51.306 24.41 51.1852C24.3123 50.9939 24.0404 50.6327 23.6379 50.16C23.5736 50.0844 23.4223 49.8492 23.302 49.6375C23.1817 49.4257 22.9868 49.1353 22.8691 48.9923C22.7514 48.8492 22.5745 48.5893 22.4756 48.4148C22.3769 48.2402 22.2047 47.9648 22.0931 47.8025C21.9814 47.6403 21.89 47.4779 21.89 47.4416C21.89 47.4053 21.8134 47.3029 21.7199 47.214C21.6263 47.1252 21.4869 46.9287 21.4101 46.7775C21.3334 46.6262 21.2033 46.4035 21.1214 46.2825C20.801 45.8102 20.1392 44.7883 20.0409 44.6142C19.9841 44.5135 19.9004 44.3649 19.855 44.2842C19.8095 44.2035 19.7267 44.0878 19.671 44.0275C19.6153 43.967 19.4206 43.6576 19.2385 43.34C19.0561 43.0224 18.8232 42.6328 18.7208 42.4743C18.6183 42.3157 18.4364 41.9816 18.3164 41.7318C18.0792 41.238 18.0307 41.1513 17.6439 40.5309C17.5017 40.3026 17.3594 40.0555 17.3278 39.9817C17.2961 39.9078 17.2454 39.8104 17.215 39.765C17.1848 39.7196 17.1104 39.5711 17.0499 39.435C16.9895 39.2989 16.8458 39.039 16.7309 38.8575C16.6158 38.676 16.4874 38.4409 16.4453 38.335C16.4032 38.2291 16.2375 37.9003 16.0769 37.6043C15.9163 37.3083 15.785 37.0484 15.785 37.0268C15.785 37.0052 15.551 36.524 15.265 35.9575C14.979 35.391 14.7074 34.801 14.6616 34.6465C14.6157 34.492 14.5306 34.2873 14.4726 34.1916C14.3693 34.0213 13.64 32.4325 13.64 32.3777C13.64 32.3625 13.4767 31.9828 13.277 31.5338C12.7244 30.2915 12.3646 29.256 12.181 28.38C12.1271 28.1229 12.0647 27.8877 12.0423 27.8575C12.0198 27.8272 11.9489 27.6312 11.8847 27.4217C11.8203 27.2123 11.7418 27.0098 11.7102 26.9717C11.6786 26.9335 11.5192 26.3679 11.3561 25.7147C11.1932 25.0616 11.0451 24.5034 11.0272 24.4746C10.9321 24.3207 10.5335 22.0635 10.396 20.9C10.0638 18.0907 10.2721 13.9605 10.7971 12.9452C10.843 12.8564 10.8989 12.6856 10.9214 12.5656C10.9666 12.3244 11.0286 12.1597 11.304 11.55C11.4066 11.3231 11.5892 10.8703 11.7099 10.5438C11.8306 10.2171 11.9904 9.87743 12.0651 9.78888C12.1396 9.70019 12.2312 9.53436 12.2686 9.4201C12.3061 9.30598 12.3743 9.1506 12.4204 9.07498C12.6831 8.64364 12.9203 8.29659 13.1421 8.01953C13.2799 7.84738 13.5147 7.51325 13.6641 7.27703C13.9138 6.88213 16.5404 4.17998 16.6746 4.17998C16.717 4.17998 17.31 3.80639 18.149 3.25116C18.6654 2.90948 18.9871 2.73018 19.195 2.6683C19.2706 2.64575 19.382 2.5825 19.4425 2.52778C19.503 2.47305 19.7134 2.368 19.91 2.2943C20.1066 2.22046 20.4284 2.0853 20.625 1.99386C20.8216 1.90243 21.1558 1.76039 21.3675 1.67816C21.5793 1.59594 21.8477 1.48099 21.964 1.42255C22.1536 1.32726 22.3717 1.2691 23.21 1.09035C23.8996 0.943225 25.0686 0.791975 26.235 0.698888C26.7939 0.654338 27.6154 0.66245 28.1325 0.717588ZM34.4575 9.03689C34.2766 9.1088 32.8375 9.8062 32.3125 10.0762C32.131 10.1696 31.933 10.2891 31.8725 10.3418C31.812 10.3944 31.6511 10.4927 31.515 10.5601C31.3789 10.6275 31.1314 10.7635 30.965 10.8623C30.7986 10.9612 30.6006 11.0594 30.525 11.0804C30.3211 11.1373 29.5871 11.494 29.3975 11.6284C29.3068 11.6927 29.0964 11.8056 28.93 11.8791C28.7636 11.9527 28.5656 12.0542 28.49 12.1045C27.3215 12.8836 26.8558 12.892 25.7275 12.154C25.5377 12.03 25.1969 11.8387 24.97 11.7291C24.7431 11.6197 24.4263 11.4463 24.2661 11.3441C24.106 11.2418 23.8798 11.1247 23.7637 11.0837C23.6475 11.0427 23.457 10.9495 23.3401 10.8764C23.0729 10.7093 22.5357 10.4093 22.2475 10.2661C22.1265 10.2061 21.9904 10.1257 21.945 10.0877C21.8996 10.0496 21.714 9.9635 21.5325 9.8964C21.351 9.8293 21.1406 9.73374 21.065 9.6841C20.9894 9.63446 20.8304 9.54523 20.7119 9.48569C20.5932 9.42615 20.3829 9.31849 20.2444 9.24644C20.0768 9.15926 19.8913 9.11334 19.69 9.10894L19.3875 9.10248L19.3707 9.39755C19.3614 9.5598 19.393 9.89393 19.441 10.1401C19.489 10.3862 19.576 10.9958 19.6346 11.495C19.7733 12.6797 19.9297 13.5811 20.0735 14.025C20.1372 14.2216 20.2131 14.6176 20.2419 14.905C20.2709 15.1924 20.3453 15.6007 20.4072 15.8125C20.5462 16.288 20.6119 17.2802 20.522 17.5483C20.4776 17.6811 20.1594 18.0244 19.4556 18.6998C18.9039 19.2291 17.908 20.2081 17.2425 20.8752C16.577 21.5425 15.8172 22.2809 15.554 22.516C14.4459 23.5062 14.5793 23.9141 16.06 24.0644C16.2566 24.0845 16.566 24.133 16.7475 24.1723C16.929 24.2118 17.2631 24.2603 17.49 24.2804C18.2471 24.3475 19.1648 24.4794 19.415 24.5573C19.5511 24.5997 19.8976 24.6499 20.185 24.6689C20.4724 24.6878 20.9055 24.7496 21.1475 24.8062C21.3895 24.863 21.8474 24.951 22.165 25.002C23.1505 25.1601 23.2719 25.2517 23.6239 26.1042C23.7597 26.4333 23.9537 26.8262 24.0549 26.9775C24.353 27.423 24.4558 27.6196 24.5581 27.94C24.6111 28.1064 24.6733 28.2672 24.6961 28.2975C24.7904 28.4223 25.3397 29.5179 25.3719 29.645C25.3909 29.7206 25.5298 30.0052 25.6802 30.2775C26.007 30.8683 26.5946 32.0464 26.642 32.2058C26.6606 32.2682 26.7618 32.4025 26.867 32.5044C27.1781 32.8061 27.4465 32.5673 27.8642 31.6171C27.9753 31.3643 28.1861 30.9331 28.3326 30.6589C28.479 30.3847 28.6476 30.019 28.707 29.8461C28.7665 29.6734 28.9013 29.3903 29.0065 29.2172C29.1118 29.0441 29.2244 28.8003 29.2567 28.6755C29.2892 28.5506 29.4898 28.1611 29.7025 27.8098C29.9153 27.4586 30.1224 27.0781 30.1626 26.9644C30.613 25.6901 31.1244 25.1188 31.9011 25.022C32.1575 24.9899 32.5903 24.9164 32.8625 24.8583C33.522 24.7178 34.6302 24.5426 35.475 24.4454C36.9138 24.2797 37.1642 24.2467 37.565 24.1695C37.7919 24.1257 38.1987 24.0633 38.4692 24.0309C39.2781 23.9334 39.6007 23.6549 39.2954 23.3176C39.2462 23.2633 39.1523 23.1206 39.0867 23.0006C38.9639 22.7759 38.3752 22.1111 38.2966 22.1085C38.2631 22.1074 36.7283 20.6068 35.8982 19.7634C35.8435 19.7079 35.5094 19.3857 35.1557 19.0473C34.0984 18.0359 33.9947 17.9231 33.8485 17.6242L33.7083 17.3376L33.7959 16.5201C33.844 16.0704 33.9215 15.4797 33.9683 15.2075C34.0149 14.9352 34.1111 14.2917 34.1822 13.7775C34.2965 12.9501 34.416 12.3279 34.6783 11.1956C34.848 10.4632 34.9458 9.25221 34.8473 9.10206C34.7475 8.94971 34.6974 8.94133 34.4575 9.03689ZM34.5085 9.60146C34.6551 9.7479 34.479 11.0104 34.2387 11.5351C34.1358 11.7601 34.0996 11.9324 34.0984 12.2028C34.0975 12.4034 34.048 12.8769 33.9885 13.255C33.929 13.6331 33.8525 14.1405 33.8185 14.3825C33.7847 14.6245 33.7222 14.8904 33.6797 14.9736C33.6372 15.0566 33.5658 15.3536 33.5211 15.6336C33.4764 15.9134 33.4164 16.2538 33.3873 16.39C33.2096 17.2267 33.4021 17.8321 34.0255 18.3975C34.2255 18.579 34.6335 18.9626 34.9317 19.2498C35.2301 19.5371 35.4971 19.7799 35.5252 19.7893C35.5531 19.7985 35.7823 20.056 36.0344 20.3614C36.2863 20.6668 36.6163 21.0085 36.7675 21.1207C37.0971 21.365 38.5056 22.7401 38.6261 22.935C38.7035 23.0602 38.742 23.2438 38.7261 23.4122C38.716 23.5195 38.3864 23.6515 37.9778 23.712C37.3633 23.803 37.126 23.8503 36.6575 23.9756C36.4155 24.0402 35.9824 24.1186 35.695 24.1498C35.4076 24.181 34.9621 24.2294 34.705 24.2572C33.7833 24.357 33.4078 24.4204 33.11 24.5265C32.9253 24.5924 32.5332 24.6558 32.1038 24.6893C30.9104 24.7824 30.7865 24.8783 30.1377 26.2075C29.9163 26.6612 29.6913 27.0823 29.6379 27.143C29.5844 27.2038 29.4504 27.4266 29.3404 27.638C29.2303 27.8495 29.1209 28.0472 29.0973 28.0775C29.0738 28.1077 29.0106 28.2686 28.957 28.435C28.9033 28.6014 28.801 28.8597 28.7297 29.009C28.6583 29.1584 28.6 29.3239 28.6 29.377C28.6 29.4301 28.579 29.4866 28.5531 29.5024C28.5274 29.5183 28.4633 29.6498 28.4108 29.7944C28.3581 29.9391 28.1009 30.4967 27.8388 31.0333C27.3103 32.1163 27.2385 32.1803 26.8837 31.886C26.7519 31.7765 26.676 31.6248 26.4356 30.9911C26.3681 30.813 25.9798 30.2038 25.8757 30.1125C25.7995 30.0457 25.6612 29.6107 25.572 29.1569C25.5331 28.9594 25.4301 28.7042 25.3206 28.5343C25.2185 28.3759 25.135 28.2175 25.135 28.1823C25.135 28.1472 25.0968 28.0867 25.0499 28.0478C25.0031 28.009 24.9024 27.8451 24.8259 27.6835C24.7495 27.5221 24.6641 27.39 24.636 27.39C24.608 27.39 24.585 27.342 24.585 27.2833C24.585 27.2246 24.5625 27.1626 24.5348 27.1454C24.3122 27.0079 23.9788 26.3275 23.9328 25.9176C23.8486 25.1636 23.7403 25.0932 22.055 24.6948C21.8281 24.6412 21.5435 24.554 21.4225 24.5012C21.2651 24.4325 20.9674 24.3934 20.3748 24.3639C19.9195 24.3412 19.4121 24.284 19.2473 24.2368C18.8893 24.1344 18.3613 23.99 18.095 23.9218C17.9891 23.8947 17.6921 23.8715 17.435 23.8701C15.6054 23.8604 14.9967 23.4248 15.84 22.7289C16.0366 22.5666 16.3669 22.293 16.5741 22.121C16.7812 21.9488 17.0833 21.6346 17.2454 21.4228C17.4075 21.2109 17.6774 20.9019 17.845 20.7362C18.0128 20.5707 18.15 20.4036 18.15 20.365C18.15 20.3265 18.1731 20.295 18.2014 20.295C18.392 20.295 20.3866 18.3797 20.7038 17.8922C20.9474 17.5175 20.9667 16.8594 20.764 15.84C20.6828 15.4316 20.6176 14.9337 20.6192 14.7335C20.6223 14.3536 20.5348 14 20.2404 13.2C20.0727 12.744 19.8766 11.5071 19.7786 10.285C19.7189 9.54193 19.953 9.41804 20.6342 9.83246C20.8258 9.94893 21.0929 10.0879 21.2281 10.1414C21.3631 10.1948 21.5335 10.2985 21.6068 10.3717C21.68 10.445 21.7641 10.505 21.7933 10.505C21.8226 10.505 21.9369 10.575 22.047 10.6605C22.3575 10.9012 23.0977 11.2588 23.5399 11.3813C23.7599 11.4422 24.0032 11.5336 24.0805 11.5842C24.1579 11.635 24.3958 11.7668 24.6093 11.8774C24.9865 12.0726 25.3714 12.3181 25.8225 12.6509C26.4443 13.1099 27.5087 13.0981 28.2425 12.6241C28.8629 12.2233 30.4242 11.4753 30.8303 11.3843C31.1631 11.3098 32.4895 10.4812 32.5691 10.2983C32.5963 10.2356 33.3108 9.92156 33.66 9.81871C33.8264 9.76976 34.0491 9.68396 34.155 9.62828C34.4009 9.49889 34.4057 9.49848 34.5085 9.60146Z" fill="#FCF3CD"/>
</svg>
