<svg width="24" height="24" viewBox="0 0 24 24" fill="none" xmlns="http://www.w3.org/2000/svg">
<path fill-rule="evenodd" clip-rule="evenodd" d="M5.4842 3C5.38204 3.00044 5.23286 3.04503 5.08441 3.22647L3.51299 5.1471C3.31971 5.38333 3.14465 5.76915 3.05678 6.22439C2.96883 6.68001 2.98841 7.1003 3.07839 7.3855C3.08989 7.42198 3.09929 7.45908 3.10655 7.49663C3.10659 7.4968 3.10663 7.49702 3.10668 7.49728C3.10718 7.49971 3.10844 7.50579 3.11057 7.51543C3.11483 7.53472 3.12255 7.56827 3.13453 7.61535C3.1585 7.70952 3.19951 7.85787 3.26395 8.05474C3.39282 8.4484 3.61548 9.03641 3.98319 9.77362C4.71787 11.2466 6.03528 13.3227 8.35145 15.6389C10.6676 17.955 12.7437 19.2724 14.2167 20.0071C14.9539 20.3748 15.5419 20.5975 15.9356 20.7264C16.1324 20.7908 16.2808 20.8318 16.375 20.8558C16.422 20.8678 16.4556 20.8755 16.4749 20.8797C16.4845 20.8819 16.4906 20.8831 16.493 20.8836L16.4923 20.8835L16.491 20.8832L16.4902 20.8831C16.537 20.892 16.5831 20.9042 16.6281 20.9196C16.8936 21.0106 17.302 21.0329 17.7596 20.942C18.2147 20.8517 18.6056 20.6717 18.8432 20.4773L20.7638 18.9059C20.9482 18.755 20.9914 18.6059 20.9917 18.506C20.992 18.4053 20.9488 18.2551 20.7665 18.1032L17.9203 15.7313C17.856 15.6778 17.7235 15.6167 17.5422 15.6069C17.3613 15.597 17.2228 15.6431 17.1519 15.6904L15.5709 16.7444C15.4053 16.8548 15.2104 16.9133 15.0114 16.9123L15.0162 15.9123C15.0114 16.9123 15.011 16.9123 15.0105 16.9123L15.0077 16.9123L15.003 16.9122L14.9907 16.9121C14.9813 16.9119 14.9693 16.9116 14.9549 16.9112C14.926 16.9103 14.8873 16.9086 14.8396 16.9058C14.7441 16.9 14.6122 16.8892 14.4499 16.8689C14.126 16.8284 13.6776 16.7495 13.1563 16.5956C12.1143 16.2878 10.7619 15.6741 9.53908 14.4512C8.31623 13.2284 7.70247 11.876 7.39475 10.834C7.24076 10.3127 7.16191 9.86435 7.12139 9.5404C7.10109 9.37813 7.09029 9.24616 7.08455 9.15073C7.08167 9.10299 7.08005 9.06429 7.07915 9.03543C7.07869 9.021 7.07841 9.00901 7.07824 8.99956L7.07806 8.98731L7.07802 8.98264L7.078 8.97977C7.07799 8.97935 7.07799 8.97894 8.07798 8.97406L7.07799 8.97894C7.07702 8.77986 7.1355 8.58501 7.24593 8.41936L8.29993 6.83836C8.43187 6.64045 8.41018 6.25142 8.25903 6.07005L5.88713 3.22376C5.73637 3.04285 5.58635 2.99956 5.4842 3ZM9.1001 9.24366L9.96403 7.94776C10.5889 7.01039 10.5117 5.64919 9.79548 4.78968L7.42357 1.94339C6.9225 1.34211 6.22197 0.996802 5.47557 1.00002C4.7292 1.00324 4.03184 1.35458 3.5365 1.95999L1.96507 3.88062C1.51094 4.43568 1.22658 5.15346 1.09303 5.84532C0.962945 6.51921 0.956745 7.26796 1.15508 7.93509C1.15587 7.93875 1.15671 7.94256 1.15758 7.94652C1.16635 7.98625 1.17899 8.04053 1.19631 8.10861C1.23097 8.24478 1.28439 8.43618 1.3632 8.67694C1.52085 9.15853 1.77999 9.83733 2.19346 10.6663C3.02112 12.3257 4.46352 14.5794 6.93723 17.0531C9.41094 19.5268 11.6646 20.9692 13.324 21.7968C14.153 22.2103 14.8318 22.4695 15.3134 22.6271C15.5541 22.7059 15.7455 22.7593 15.8817 22.794C15.9496 22.8113 16.0038 22.8239 16.0435 22.8327C16.7199 23.0482 17.4776 23.037 18.1489 22.9038C18.8439 22.7659 19.5604 22.4746 20.1097 22.0252L22.0303 20.4538C22.6372 19.9572 22.9896 19.2595 22.9917 18.5117C22.9938 17.7646 22.6461 17.0661 22.0469 16.5667L19.2006 14.1948C18.7483 13.8179 18.1812 13.6387 17.6509 13.6098C17.1204 13.5809 16.5355 13.6977 16.0425 14.0263L14.7466 14.8902C14.7311 14.8884 14.7149 14.8865 14.6982 14.8844C14.4645 14.8552 14.1245 14.7961 13.7227 14.6775C12.9185 14.4399 11.8859 13.9696 10.9533 13.037C10.0207 12.1044 9.55036 11.0718 9.31284 10.2676C9.1942 9.86584 9.13515 9.52579 9.10592 9.29215C9.10383 9.27542 9.10189 9.25925 9.1001 9.24366Z" fill="#576777"/>
</svg>
