<svg width="24" height="24" viewBox="0 0 24 24" fill="none" xmlns="http://www.w3.org/2000/svg">
<path fill-rule="evenodd" clip-rule="evenodd" d="M6.02381 3.36252C7.59305 1.9227 9.74611 1 12 1C14.2539 1 16.4069 1.9227 17.9762 3.36252C19.5456 4.8025 20.5945 6.82377 20.4933 9.04548C20.4305 10.4249 19.9643 11.9678 19.3304 13.4618C18.6909 14.9692 17.8522 16.4925 16.9862 17.8508C16.1211 19.2079 15.2138 20.4236 14.4267 21.3119C14.0354 21.7535 13.655 22.1355 13.3097 22.4159C13.1377 22.5556 12.9532 22.6875 12.7635 22.789C12.5919 22.8807 12.321 23 12.0001 23H11.9999C11.679 23 11.4081 22.8807 11.2365 22.789C11.0468 22.6875 10.8623 22.5556 10.6903 22.4159C10.3449 22.1355 9.96463 21.7535 9.57331 21.3119C8.7862 20.4236 7.87892 19.2079 7.01375 17.8508C6.14782 16.4925 5.30911 14.9692 4.66954 13.4618C4.03567 11.9678 3.56948 10.4249 3.50668 9.04548C3.40553 6.82377 4.4544 4.8025 6.02381 3.36252ZM7.37595 4.8362C6.14845 5.96246 5.43571 7.44119 5.50461 8.95452C5.55189 9.99284 5.91806 11.2838 6.51068 12.6806C7.09761 14.064 7.87952 15.4884 8.70019 16.7757C9.52162 18.0641 10.3669 19.1918 11.0702 19.9855C11.4241 20.3848 11.7234 20.6785 11.9511 20.8634C11.9683 20.8774 11.9846 20.8903 12 20.9023C12.0154 20.8903 12.0317 20.8774 12.0489 20.8634C12.2766 20.6785 12.5759 20.3848 12.9298 19.9855C13.6331 19.1918 14.4784 18.0641 15.2998 16.7757C16.1205 15.4884 16.9024 14.064 17.4893 12.6806C18.0819 11.2838 18.4481 9.99284 18.4954 8.95452C18.5643 7.44119 17.8515 5.96246 16.624 4.8362C15.3964 3.70978 13.7172 3 12 3C10.2828 3 8.60362 3.70978 7.37595 4.8362ZM11.8017 21.0342C11.8018 21.034 11.8051 21.0324 11.8115 21.0299C11.8048 21.0332 11.8016 21.0344 11.8017 21.0342ZM12.1885 21.0299C12.1948 21.0323 12.1982 21.034 12.1983 21.0342C12.1984 21.0344 12.1952 21.0332 12.1885 21.0299Z" fill="#576777"/>
<path fill-rule="evenodd" clip-rule="evenodd" d="M8.5 9.5C8.5 7.567 10.067 6 12 6C13.933 6 15.5 7.567 15.5 9.5C15.5 11.433 13.933 13 12 13C10.067 13 8.5 11.433 8.5 9.5ZM12 8C11.1716 8 10.5 8.67157 10.5 9.5C10.5 10.3284 11.1716 11 12 11C12.8284 11 13.5 10.3284 13.5 9.5C13.5 8.67157 12.8284 8 12 8Z" fill="#576777"/>
</svg>
