<svg width="55" height="55" viewBox="0 0 55 55" fill="none" xmlns="http://www.w3.org/2000/svg">
<path fill-rule="evenodd" clip-rule="evenodd" d="M26.7696 15.8173C26.6856 15.8628 26.4161 15.923 26.1707 15.9511C25.9254 15.979 25.6847 16.037 25.6361 16.0799C25.5874 16.123 25.4361 16.1763 25.3 16.1986C25.1639 16.2209 24.9935 16.2854 24.9213 16.342C24.8491 16.3987 24.7354 16.445 24.6685 16.445C24.6016 16.445 24.4897 16.4945 24.42 16.555C24.3503 16.6155 24.2523 16.665 24.2023 16.665C24.1523 16.665 24.0274 16.7269 23.925 16.8025C23.8226 16.8781 23.6948 16.94 23.6412 16.94C23.5877 16.94 23.5173 16.9895 23.485 17.05C23.4527 17.1105 23.3911 17.16 23.3485 17.16C23.3057 17.16 23.204 17.2219 23.1223 17.2975C23.0407 17.3731 22.9566 17.435 22.9353 17.435C22.8748 17.435 22.403 17.8568 21.8721 18.3858C21.4519 18.8046 21.1141 19.0222 21.0536 18.9131C21.0473 18.9018 21.0287 18.2366 21.0123 17.435L20.9825 15.9775L18.6036 15.9632L16.2247 15.9489L16.2386 29.5757L16.2525 43.2025H18.59H20.9275L20.955 38.0935C20.9814 33.194 20.9866 32.982 21.0844 32.9235C21.167 32.874 21.1984 32.883 21.2494 32.9704C21.3936 33.2172 22.507 34.2598 22.9501 34.5628C23.1232 34.6813 23.265 34.797 23.265 34.8198C23.265 34.8426 23.3366 34.877 23.4244 34.8963C23.512 34.9155 23.6272 34.9793 23.6804 35.0382C23.7335 35.0969 23.8117 35.145 23.8539 35.145C23.8963 35.145 24.0219 35.2069 24.1332 35.2825C24.2444 35.3581 24.3693 35.42 24.4104 35.42C24.4515 35.42 24.548 35.4695 24.625 35.53C24.7019 35.5905 24.82 35.64 24.8875 35.64C24.955 35.64 25.0691 35.6858 25.1413 35.7416C25.2135 35.7976 25.4059 35.8586 25.5688 35.8775C25.7318 35.8963 25.91 35.9523 25.9648 36.0019C26.0358 36.0661 26.2362 36.1057 26.6585 36.139C26.9852 36.1648 27.4512 36.2098 27.694 36.2391C27.9759 36.2732 28.2741 36.2734 28.519 36.2399C28.7299 36.211 29.1679 36.1677 29.4921 36.1437C29.9094 36.1127 30.1104 36.0739 30.1799 36.0111C30.2339 35.9623 30.414 35.9047 30.5803 35.8831C30.7465 35.8615 30.9415 35.798 31.0137 35.7419C31.0859 35.6858 31.2159 35.64 31.303 35.64C31.393 35.64 31.5017 35.5927 31.5553 35.53C31.6071 35.4695 31.701 35.42 31.764 35.42C31.8271 35.42 31.9626 35.3581 32.065 35.2825C32.1674 35.2069 32.2905 35.145 32.3385 35.145C32.3863 35.145 32.4686 35.0948 32.5211 35.0335C32.5736 34.9722 32.6905 34.9071 32.7808 34.8891C32.8712 34.871 32.945 34.8223 32.945 34.7806C32.945 34.7391 32.9666 34.705 32.993 34.705C33.0375 34.705 33.5486 34.3232 33.8917 34.0334C34.1917 33.7802 34.65 33.3191 34.65 33.2707C34.65 33.2434 34.6995 33.19 34.76 33.1522C34.8205 33.1144 34.87 33.0619 34.87 33.0353C34.87 32.9869 35.1073 32.6861 35.3115 32.4756C35.3712 32.414 35.42 32.3348 35.42 32.2996C35.42 32.2642 35.4509 32.2157 35.4888 32.1915C35.5266 32.1673 35.6004 32.0547 35.6529 31.9412C35.7053 31.8278 35.7706 31.735 35.7981 31.735C35.8256 31.735 35.8647 31.6689 35.8849 31.5881C35.9052 31.5073 35.9697 31.3802 36.0284 31.3057C36.087 31.2312 36.135 31.1278 36.135 31.0761C36.135 31.0244 36.182 30.9394 36.2395 30.8874C36.2971 30.8353 36.3604 30.7064 36.3802 30.6009C36.4 30.4953 36.4643 30.3607 36.523 30.302C36.5828 30.2422 36.63 30.1201 36.63 30.0249C36.63 29.9314 36.6766 29.7956 36.7335 29.7232C36.7905 29.6508 36.8541 29.4552 36.8749 29.2889C36.8958 29.1224 36.9465 28.9673 36.9879 28.944C37.0359 28.9172 37.0765 28.744 37.1004 28.4622C37.121 28.2204 37.1844 27.9141 37.2415 27.7817C37.385 27.448 37.3992 24.5527 37.2584 24.2828C37.2112 24.1922 37.1462 23.9075 37.114 23.6503C37.0818 23.393 37.0224 23.1443 36.9821 23.0977C36.9417 23.051 36.8922 22.8654 36.8721 22.6852C36.8515 22.4988 36.7945 22.3101 36.7401 22.2475C36.6876 22.187 36.6304 22.0443 36.6131 21.9304C36.5958 21.8164 36.5306 21.6584 36.4683 21.5792C36.406 21.5 36.355 21.3702 36.355 21.2908C36.355 21.2092 36.3102 21.1185 36.2519 21.082C36.1951 21.0466 36.1321 20.9293 36.1119 20.8213C36.0916 20.7133 36.0502 20.625 36.0196 20.625C35.9893 20.625 35.9264 20.5446 35.8799 20.4462C35.7308 20.1305 35.6162 19.9444 35.3781 19.63C35.2499 19.4609 35.145 19.2947 35.145 19.2607C35.145 19.2266 35.0972 19.1733 35.0387 19.1419C34.9803 19.1107 34.9168 19.0356 34.8975 18.975C34.8783 18.9145 34.8271 18.865 34.7838 18.865C34.7405 18.865 34.705 18.8418 34.705 18.8133C34.705 18.7459 33.8341 17.875 33.7667 17.875C33.7382 17.875 33.715 17.8395 33.715 17.7962C33.715 17.7529 33.6593 17.6998 33.5913 17.6784C33.5232 17.6568 33.4371 17.5961 33.4 17.5433C33.3629 17.4907 33.2709 17.4321 33.1954 17.4131C33.1199 17.3942 33.0319 17.3295 32.9996 17.2693C32.9674 17.2092 32.8937 17.16 32.8358 17.16C32.7778 17.16 32.7107 17.1255 32.6865 17.0834C32.6623 17.0413 32.5497 16.9683 32.4363 16.9212C32.3228 16.8741 32.23 16.8116 32.23 16.7821C32.23 16.7527 32.1496 16.7115 32.0513 16.6904C31.9529 16.6694 31.8282 16.6056 31.7741 16.5485C31.72 16.4916 31.6062 16.445 31.5213 16.445C31.4364 16.445 31.3111 16.3966 31.2429 16.3376C31.1748 16.2785 31.0039 16.2136 30.8633 16.1934C30.7226 16.173 30.5682 16.1223 30.5202 16.0803C30.4722 16.0384 30.227 15.9783 29.9756 15.9468C29.7241 15.9152 29.4669 15.8536 29.4044 15.8097C29.2354 15.6914 26.99 15.6978 26.7696 15.8173ZM28.9443 19.14C29.0572 19.2005 29.2188 19.25 29.3032 19.25C29.3876 19.25 29.5527 19.2989 29.6702 19.3588C29.7875 19.4186 29.964 19.4942 30.0623 19.5266C30.1608 19.5591 30.2709 19.6215 30.3073 19.6652C30.3438 19.7091 30.418 19.745 30.4725 19.745C30.5269 19.745 30.645 19.8069 30.735 19.8825C30.8249 19.9581 30.9122 20.02 30.9293 20.02C30.9462 20.02 31.0192 20.0757 31.0916 20.1437C31.164 20.2118 31.3308 20.3541 31.4622 20.46C31.5935 20.5659 31.795 20.7515 31.9098 20.8725C32.0244 20.9935 32.1683 21.1428 32.2292 21.2044C32.2901 21.266 32.34 21.3374 32.34 21.3631C32.34 21.3888 32.3957 21.4653 32.4638 21.5329C32.7069 21.7748 32.835 21.9559 32.835 22.0577C32.835 22.1145 32.8816 22.186 32.9385 22.2166C32.9956 22.2471 33.0582 22.3569 33.0776 22.4608C33.0971 22.5644 33.1481 22.6629 33.191 22.6792C33.2339 22.6957 33.286 22.8033 33.3068 22.9184C33.3275 23.0334 33.3871 23.1683 33.439 23.2181C33.4914 23.2684 33.5482 23.4341 33.5668 23.5909C33.5852 23.7461 33.6354 23.9082 33.6783 23.9513C33.7263 23.9991 33.7721 24.2154 33.7965 24.509C33.8184 24.7727 33.8724 25.0895 33.9164 25.213C34.0282 25.5262 34.03 26.6355 33.9193 26.895C33.8741 27.0009 33.8195 27.2907 33.7981 27.5392C33.77 27.8624 33.7292 28.0252 33.6545 28.1115C33.5922 28.1831 33.55 28.3144 33.55 28.436C33.55 28.5568 33.5052 28.6972 33.44 28.78C33.3795 28.857 33.33 28.9609 33.33 29.011C33.33 29.1171 33.2346 29.3083 33.1288 29.414C33.0883 29.4547 33.055 29.5467 33.055 29.6187C33.055 29.6906 33.0212 29.7693 32.9799 29.7935C32.9387 29.8177 32.8637 29.9179 32.8136 30.0162C32.7632 30.1146 32.7008 30.195 32.6745 30.195C32.6484 30.195 32.6128 30.2515 32.5953 30.3207C32.578 30.3897 32.4517 30.5635 32.3144 30.7066C32.1772 30.8498 32.065 30.9913 32.065 31.021C32.065 31.0507 32.0445 31.075 32.0195 31.075C31.9945 31.075 31.815 31.2257 31.6207 31.4098C31.2495 31.7617 30.8853 32.0305 30.7002 32.0892C30.6397 32.1084 30.5771 32.1581 30.5613 32.1995C30.5455 32.2407 30.4503 32.2923 30.35 32.3137C30.2496 32.3352 30.1232 32.3994 30.0691 32.4565C30.015 32.5134 29.9052 32.56 29.8251 32.56C29.7451 32.56 29.627 32.6094 29.5628 32.6697C29.4823 32.7453 29.3356 32.79 29.0917 32.8131C28.8969 32.8317 28.632 32.8959 28.5032 32.956C28.1964 33.0991 26.7891 33.0873 26.5624 32.9396C26.4883 32.8914 26.2705 32.8377 26.0785 32.8207C25.8093 32.7966 25.7111 32.7632 25.6491 32.6747C25.5911 32.5918 25.5094 32.56 25.3546 32.56C25.2293 32.56 25.1222 32.5282 25.0965 32.4834C25.0723 32.4413 24.9659 32.3661 24.86 32.3162C24.4351 32.1163 24.2254 31.9939 24.1835 31.9213C24.1593 31.8794 24.1124 31.845 24.0793 31.845C24.0461 31.845 23.9669 31.794 23.9033 31.7317C23.8396 31.6694 23.6452 31.4869 23.4713 31.3263C23.2973 31.1656 23.155 31.0079 23.155 30.9759C23.155 30.9437 23.1055 30.9017 23.045 30.8825C22.9845 30.8632 22.935 30.8192 22.935 30.7845C22.935 30.7498 22.8861 30.671 22.8261 30.6094C22.5683 30.3445 22.4353 30.168 22.4062 30.052C22.3891 29.9838 22.3402 29.9146 22.2976 29.8981C22.2549 29.8818 22.22 29.8353 22.22 29.7949C22.22 29.7544 22.1581 29.6374 22.0825 29.535C22.0069 29.4326 21.945 29.3017 21.945 29.2442C21.945 29.1868 21.8967 29.0785 21.8378 29.0036C21.7788 28.9286 21.7141 28.7576 21.6941 28.6236C21.674 28.4896 21.6367 28.38 21.6113 28.38C21.55 28.38 21.4507 28.0137 21.4503 27.7857C21.4501 27.6858 21.3989 27.4916 21.3363 27.3544C21.1842 27.0205 21.1918 24.6701 21.3454 24.5167C21.3994 24.4626 21.4467 24.2843 21.4683 24.0531C21.4889 23.8322 21.5347 23.6544 21.5797 23.6215C21.6216 23.5907 21.6741 23.4582 21.6963 23.327C21.7185 23.1957 21.7836 23.0414 21.8408 22.9842C21.8981 22.9269 21.945 22.8191 21.945 22.7447C21.945 22.6702 21.9924 22.565 22.0506 22.5109C22.1086 22.4568 22.1727 22.3462 22.1931 22.2652C22.2133 22.1844 22.2772 22.0753 22.335 22.023C22.3927 21.9707 22.44 21.8948 22.44 21.8544C22.44 21.814 22.4895 21.75 22.55 21.7122C22.6105 21.6744 22.66 21.6249 22.66 21.6022C22.66 21.4477 23.5036 20.5598 23.896 20.3013C24.0162 20.2223 24.1559 20.1204 24.2065 20.075C24.4916 19.8192 24.6069 19.745 24.7187 19.745C24.787 19.745 24.8874 19.696 24.9415 19.6361C24.9957 19.5761 25.1233 19.5115 25.2251 19.4924C25.3268 19.4734 25.41 19.4382 25.41 19.4143C25.41 19.3497 25.7301 19.25 25.9375 19.25C26.037 19.25 26.1349 19.2235 26.1548 19.1911C26.2791 18.9901 28.5857 18.9478 28.9443 19.14Z" fill="#0B3B73"/>
<path fill-rule="evenodd" clip-rule="evenodd" d="M0 27.5V55H27.5H55V27.5V0H27.5H0V27.5ZM40.3062 11.9651C40.4119 12.1971 40.396 20.2049 40.2897 20.2932C40.2233 20.3482 40.1539 20.3009 39.891 20.0217C39.7158 19.8355 39.4116 19.5151 39.215 19.3095C39.0184 19.104 38.6995 18.7652 38.5063 18.5566C38.3131 18.3481 37.9666 17.979 37.7363 17.7364C37.506 17.4939 37.1071 17.0709 36.85 16.7967C36.5929 16.5224 36.0113 15.9068 35.5575 15.4287C35.1038 14.9505 34.6706 14.4928 34.595 14.4114C34.5194 14.33 34.2348 14.0286 33.9625 13.7416C32.7569 12.4708 32.34 11.9838 32.34 11.8462C32.34 11.8345 34.118 11.825 36.2912 11.825H40.2424L40.3062 11.9651ZM29.9339 15.6901C30.0475 15.7394 30.2884 15.8087 30.4692 15.8443C30.6501 15.8799 30.8263 15.943 30.8608 15.9845C30.8953 16.026 30.9786 16.06 31.046 16.06C31.2078 16.06 31.515 16.1688 31.515 16.226C31.515 16.2509 31.5954 16.2887 31.6938 16.31C31.7921 16.3313 31.9344 16.3901 32.01 16.4407C32.0856 16.4915 32.2094 16.5638 32.285 16.6016C32.6777 16.7978 33.5371 17.377 33.5726 17.4692C33.5885 17.5109 33.6339 17.545 33.6733 17.545C33.756 17.545 34.815 18.564 34.815 18.6435C34.815 18.6724 34.8645 18.7227 34.925 18.755C34.9855 18.7873 35.035 18.8485 35.035 18.8907C35.035 18.9331 35.0845 18.9832 35.145 19.0025C35.2055 19.0217 35.255 19.0692 35.255 19.1082C35.255 19.1471 35.3107 19.2434 35.3787 19.3223C35.6205 19.6024 35.97 20.1026 35.97 20.1685C35.97 20.1869 36.0319 20.2832 36.1075 20.3824C36.1831 20.4816 36.245 20.5981 36.245 20.6414C36.245 20.6847 36.293 20.7812 36.3516 20.8557C36.4103 20.9302 36.4754 21.0635 36.4965 21.1519C36.5175 21.2402 36.5663 21.3496 36.6048 21.395C36.6432 21.4404 36.7022 21.5765 36.7357 21.6975C36.7693 21.8185 36.8335 21.9655 36.8783 22.0242C36.9233 22.083 36.96 22.1947 36.96 22.2725C36.96 22.3505 37.0084 22.5044 37.0674 22.6146C37.1265 22.7249 37.191 22.9472 37.2107 23.1088C37.2303 23.2704 37.2918 23.5386 37.3475 23.705C37.6019 24.4661 37.6013 27.5517 37.3465 28.325C37.2916 28.4914 37.2316 28.7496 37.213 28.8989C37.1944 29.0483 37.1452 29.2225 37.1034 29.2861C37.0617 29.3498 36.9982 29.5433 36.9623 29.716C36.9266 29.8887 36.876 30.03 36.85 30.03C36.824 30.03 36.7632 30.1661 36.7148 30.3325C36.6664 30.4989 36.6057 30.635 36.5795 30.635C36.5535 30.635 36.5164 30.7192 36.4972 30.8219C36.4779 30.9247 36.4185 31.067 36.3652 31.1381C36.3118 31.2093 36.2377 31.3294 36.2005 31.405C36.1633 31.4806 36.0731 31.6415 36.0003 31.7625C35.9272 31.8835 35.8254 32.0568 35.7738 32.1475C35.7222 32.2383 35.6463 32.3323 35.6051 32.3565C35.5638 32.3807 35.53 32.4266 35.53 32.4585C35.53 32.5405 35.1399 33.0395 34.7737 33.4257C34.6452 33.5613 34.54 33.6942 34.54 33.7212C34.54 33.748 34.5184 33.77 34.492 33.77C34.4658 33.77 34.32 33.8876 34.1683 34.0313C33.7953 34.3846 33.4569 34.6624 33.2932 34.75C33.2186 34.7898 33.1097 34.8703 33.0513 34.9287C32.9929 34.9871 32.9079 35.035 32.8625 35.035C32.8171 35.035 32.78 35.0569 32.78 35.0837C32.78 35.1105 32.6872 35.1761 32.5737 35.2293C32.4603 35.2826 32.3085 35.3722 32.2363 35.4281C32.1641 35.4842 32.062 35.53 32.0093 35.53C31.9567 35.53 31.8828 35.567 31.8453 35.6121C31.8079 35.6573 31.6749 35.7215 31.5498 35.755C31.4248 35.7884 31.288 35.8443 31.2456 35.8791C31.2034 35.914 31.0549 35.9712 30.9156 36.0064C30.7765 36.0416 30.5511 36.1083 30.415 36.1547C30.2789 36.2009 30.0314 36.2656 29.865 36.2985C29.6986 36.3314 29.4635 36.3813 29.3425 36.4092C28.8952 36.5129 27.0914 36.4757 26.5433 36.3516C25.6109 36.1405 25.2885 36.0447 24.8875 35.8593C24.7665 35.8034 24.5994 35.7408 24.5163 35.7203C24.4331 35.6998 24.365 35.6643 24.365 35.6415C24.365 35.6187 24.2536 35.5574 24.1175 35.5054C23.9814 35.4534 23.87 35.3902 23.87 35.3649C23.87 35.3394 23.7984 35.303 23.7106 35.2837C23.623 35.2645 23.5078 35.2007 23.4546 35.1418C23.4015 35.0831 23.3309 35.035 23.2977 35.035C23.2646 35.0349 23.1656 34.973 23.0777 34.8975C22.9899 34.8219 22.9006 34.76 22.8794 34.76C22.8584 34.76 22.7778 34.7043 22.7006 34.6362C22.6233 34.5682 22.4404 34.4135 22.2943 34.2925C21.9692 34.0234 21.2571 33.3123 21.1798 33.1794C21.1409 33.1126 21.1229 34.6437 21.1217 38.1048C21.1206 41.4586 21.101 43.1626 21.0631 43.2336C20.9928 43.3649 16.2557 43.4037 16.126 43.274C16.0381 43.1861 16.0291 16.0555 16.1169 15.8914C16.1829 15.7681 20.9535 15.7215 21.1786 15.8419C21.2792 15.8958 21.285 15.9699 21.285 17.2077C21.285 17.9277 21.3005 18.5323 21.3197 18.5514C21.3386 18.5703 21.5057 18.4355 21.6909 18.2516C22.0851 17.86 22.7994 17.27 22.8794 17.27C22.91 17.27 22.935 17.2477 22.935 17.2205C22.935 17.1762 23.0251 17.1094 23.4025 16.8739C23.463 16.8362 23.6005 16.7489 23.708 16.6801C23.8154 16.6112 23.9415 16.555 23.9883 16.555C24.0349 16.555 24.1178 16.5055 24.1725 16.445C24.2272 16.3845 24.3118 16.335 24.3602 16.335C24.4087 16.335 24.5647 16.2731 24.7067 16.1975C24.8487 16.1219 25.0156 16.06 25.0777 16.06C25.1397 16.06 25.2828 16.0105 25.3957 15.95C25.5085 15.8895 25.6631 15.8389 25.7392 15.8375C25.8152 15.8363 25.9765 15.7975 26.0975 15.7513C26.6343 15.5469 29.4975 15.5011 29.9339 15.6901ZM27.1677 19.1931C26.9697 19.213 26.7836 19.2444 26.7542 19.2625C26.7248 19.2807 26.5046 19.3229 26.265 19.3562C26.0253 19.3896 25.7906 19.4507 25.7433 19.4923C25.6961 19.5338 25.5709 19.5861 25.465 19.6086C25.3591 19.631 25.2135 19.6956 25.1413 19.7521C25.0691 19.8087 24.9678 19.855 24.9161 19.855C24.8644 19.855 24.7501 19.9169 24.6623 19.9925C24.5744 20.068 24.4728 20.1299 24.4365 20.13C24.4002 20.13 24.3507 20.1631 24.3265 20.2036C24.3023 20.2441 24.2411 20.2998 24.1905 20.3273C24.0662 20.3951 23.6176 20.7791 23.4251 20.9825C22.9266 21.5093 22.77 21.6953 22.77 21.7613C22.77 21.8019 22.7458 21.835 22.7161 21.835C22.6865 21.835 22.6119 21.9278 22.5503 22.0413C22.4887 22.1547 22.352 22.4043 22.2465 22.5959C22.1412 22.7875 22.055 22.976 22.055 23.0148C22.055 23.0535 22.0092 23.1441 21.9533 23.2163C21.8974 23.2885 21.8342 23.4589 21.813 23.595C21.7918 23.7311 21.7372 23.8994 21.6916 23.969C21.6461 24.0386 21.5842 24.3232 21.554 24.6015C21.5238 24.8798 21.4759 25.1941 21.4474 25.3C21.3817 25.5443 21.3822 26.25 21.4482 26.5375C21.476 26.6585 21.5247 27.0117 21.5564 27.3225C21.5881 27.6332 21.6495 27.9426 21.693 28.01C21.7364 28.0774 21.7884 28.2315 21.8086 28.3525C21.8288 28.4735 21.8886 28.6344 21.9416 28.71C21.9945 28.7856 22.0551 28.9403 22.0763 29.0538C22.0976 29.1672 22.1365 29.26 22.1629 29.26C22.1893 29.26 22.2534 29.3714 22.3054 29.5075C22.3574 29.6436 22.4183 29.755 22.4408 29.755C22.4632 29.755 22.5125 29.8293 22.55 29.92C22.5875 30.0108 22.6344 30.085 22.6542 30.085C22.6739 30.085 22.7359 30.1701 22.7919 30.2743C22.848 30.3784 22.9279 30.4766 22.9694 30.4926C23.011 30.5085 23.045 30.5491 23.045 30.5828C23.045 30.6603 23.8414 31.46 23.9187 31.46C23.9503 31.46 24.0008 31.5061 24.031 31.5624C24.0611 31.6188 24.1592 31.6953 24.249 31.7325C24.3387 31.7697 24.4243 31.8318 24.4391 31.8704C24.454 31.9092 24.5307 31.9571 24.6095 31.9769C24.6883 31.9967 24.8017 32.0617 24.8614 32.1214C24.9212 32.1812 25.0104 32.23 25.0598 32.23C25.1092 32.23 25.2267 32.2769 25.321 32.3341C25.4154 32.3913 25.5791 32.4556 25.685 32.477C25.7909 32.4983 25.927 32.5467 25.9875 32.5845C26.3764 32.8272 28.6887 32.8309 29.15 32.5896C29.2256 32.5501 29.3741 32.4998 29.48 32.4779C29.5859 32.4561 29.7496 32.3913 29.844 32.3341C29.9383 32.2769 30.0541 32.23 30.1014 32.23C30.1485 32.23 30.2251 32.1919 30.2716 32.1454C30.3181 32.099 30.4414 32.0254 30.5455 31.9818C30.6497 31.9384 30.7433 31.8835 30.7537 31.8601C30.7641 31.8366 30.898 31.7309 31.0516 31.625C31.4931 31.3204 31.6276 31.1912 32.0814 30.635C32.3158 30.3476 32.5398 30.0754 32.5791 30.03C32.6184 29.9846 32.6828 29.8671 32.722 29.7688C32.7613 29.6704 32.8141 29.59 32.8395 29.59C32.865 29.59 32.9128 29.4898 32.9458 29.3671C32.9788 29.2446 33.0386 29.1317 33.0789 29.1163C33.1191 29.1008 33.1679 28.989 33.1873 28.8676C33.2067 28.7463 33.269 28.5808 33.3257 28.4998C33.3824 28.4188 33.4433 28.2345 33.461 28.0903C33.4786 27.9461 33.5368 27.7481 33.5902 27.6503C33.7545 27.349 33.7341 24.7973 33.5638 24.3235C33.4957 24.1344 33.44 23.9145 33.44 23.8351C33.44 23.7555 33.3931 23.6133 33.3359 23.519C33.2787 23.4246 33.214 23.2629 33.1921 23.1595C33.1702 23.0563 33.1056 22.9217 33.0487 22.8605C32.9916 22.7993 32.945 22.6959 32.945 22.6307C32.945 22.5654 32.8955 22.4672 32.835 22.4125C32.7745 22.3578 32.725 22.2834 32.725 22.2472C32.725 22.1331 32.0913 21.325 31.6994 20.9392C31.2073 20.4549 31.1817 20.4328 31.02 20.3493C30.9444 20.3104 30.8696 20.259 30.8538 20.2351C30.7957 20.1472 30.4244 19.9217 30.2349 19.8591C30.1275 19.8236 30.0273 19.7622 30.0121 19.7226C29.9969 19.683 29.8778 19.6335 29.7474 19.6127C29.6171 19.5918 29.4711 19.5392 29.4231 19.4957C29.3751 19.4524 29.14 19.3896 28.9006 19.3563C28.6613 19.323 28.4277 19.2764 28.3815 19.2529C28.2512 19.1863 27.5664 19.1527 27.1677 19.1931Z" fill="#F5F5F5"/>
<path fill-rule="evenodd" clip-rule="evenodd" d="M32.5738 11.9164C32.4356 11.9721 32.513 12.1353 32.8435 12.485C33.0294 12.6816 33.3201 12.9914 33.4895 13.1733C33.6589 13.3552 34.0079 13.7284 34.265 14.0025C34.5221 14.2766 35.0047 14.7913 35.3375 15.146C35.6702 15.5009 36.1652 16.0211 36.4375 16.302C36.7097 16.5829 37.2047 17.1043 37.5375 17.4606C37.8702 17.817 38.2539 18.2273 38.39 18.3724C38.5261 18.5176 38.8479 18.8658 39.105 19.1466C39.8909 20.0043 40.1998 20.3048 40.2586 20.2683C40.3373 20.2198 40.3366 12.1331 40.2581 11.9864C40.2032 11.8839 32.8208 11.8168 32.5738 11.9164Z" fill="#B3DB1A"/>
<path fill-rule="evenodd" clip-rule="evenodd" d="M32.34 11.8441C32.34 11.9239 32.53 12.2128 32.6549 12.3226L32.8075 12.4571L32.6563 12.2893C32.4862 12.1007 32.4627 11.9631 32.592 11.9134C32.8622 11.8097 40.2013 11.8803 40.2584 11.9871C40.377 12.2086 40.3058 20.269 40.1854 20.2589C40.1132 20.2528 40.1004 20.2674 40.1418 20.3088C40.1832 20.3501 40.2252 20.3467 40.2852 20.2969C40.3956 20.2054 40.4158 12.2056 40.3062 11.9651L40.2424 11.825H36.2912C34.118 11.825 32.34 11.8335 32.34 11.8441ZM32.9402 12.6363C33.0074 12.7346 33.0903 12.815 33.1243 12.815C33.1606 12.815 33.1535 12.7867 33.1067 12.7463C33.0631 12.7084 32.9803 12.628 32.9227 12.5675C32.8457 12.4867 32.8504 12.5049 32.9402 12.6363ZM33.3575 13.0831C33.5587 13.3165 33.6276 13.391 34.1725 13.9642C34.4088 14.213 34.5762 14.3716 34.5441 14.3171C34.5121 14.2623 34.1949 13.9191 33.8392 13.5546C33.4835 13.19 33.2668 12.9778 33.3575 13.0831ZM34.8465 14.6902C34.935 14.799 35.0186 14.8786 35.0321 14.8672C35.0457 14.8558 34.9733 14.7668 34.8712 14.6695L34.6855 14.4925L34.8465 14.6902ZM35.2781 15.125C35.5663 15.4609 35.6242 15.5136 35.4893 15.3175C35.4269 15.2268 35.306 15.0906 35.2206 15.015C35.1176 14.9237 35.1369 14.9606 35.2781 15.125ZM26.62 15.6203C26.4536 15.6463 26.2185 15.7053 26.0975 15.7513C25.9765 15.7975 25.8152 15.8363 25.7392 15.8375C25.6631 15.8389 25.5085 15.8895 25.3957 15.95C25.2828 16.0105 25.1397 16.06 25.0777 16.06C25.0157 16.06 24.8487 16.1219 24.7067 16.1975C24.5647 16.2731 24.4087 16.335 24.3602 16.335C24.3118 16.335 24.2272 16.3845 24.1725 16.445C24.1178 16.5055 24.0349 16.555 23.9883 16.555C23.9415 16.555 23.8154 16.6112 23.708 16.6801C23.6005 16.7489 23.463 16.8362 23.4025 16.8739C23.0251 17.1094 22.935 17.1762 22.935 17.2205C22.935 17.2477 22.91 17.27 22.8795 17.27C22.7994 17.27 22.0851 17.86 21.6909 18.2516C21.5057 18.4355 21.3386 18.5704 21.3197 18.5514C21.3005 18.5323 21.285 17.9277 21.285 17.2077C21.285 15.97 21.2792 15.8958 21.1786 15.8419C20.9535 15.7215 16.1829 15.7681 16.1169 15.8914C16.0291 16.0555 16.0381 43.1862 16.126 43.274C16.2557 43.4037 20.9928 43.3649 21.0631 43.2336C21.101 43.1626 21.1206 41.4586 21.1217 38.1048C21.1229 34.6437 21.1409 33.1126 21.1798 33.1794C21.2571 33.3123 21.9692 34.0234 22.2943 34.2925C22.4404 34.4135 22.6233 34.5682 22.7006 34.6363C22.7778 34.7043 22.8584 34.76 22.8795 34.76C22.9006 34.76 22.9899 34.8219 23.0777 34.8975C23.1656 34.973 23.2646 35.0349 23.2977 35.035C23.3309 35.035 23.4015 35.0831 23.4546 35.1418C23.5078 35.2007 23.6231 35.2645 23.7106 35.2838C23.7984 35.303 23.87 35.3394 23.87 35.3649C23.87 35.3902 23.9814 35.4534 24.1175 35.5054C24.2536 35.5574 24.365 35.6187 24.365 35.6415C24.365 35.6644 24.4331 35.6998 24.5163 35.7203C24.5994 35.7408 24.7665 35.8034 24.8875 35.8593C25.2885 36.0447 25.6109 36.1405 26.5433 36.3516C27.0914 36.4757 28.8952 36.5129 29.3425 36.4092C29.4635 36.3813 29.6986 36.3314 29.865 36.2985C30.0314 36.2656 30.2789 36.2009 30.415 36.1547C30.5511 36.1083 30.7765 36.0416 30.9156 36.0064C31.0549 35.9712 31.2034 35.914 31.2456 35.8791C31.288 35.8443 31.4248 35.7884 31.5498 35.755C31.6749 35.7216 31.8079 35.6573 31.8453 35.6121C31.8828 35.567 31.9567 35.53 32.0093 35.53C32.062 35.53 32.1641 35.4842 32.2363 35.4281C32.3085 35.3722 32.4603 35.2827 32.5738 35.2293C32.6872 35.1761 32.78 35.1105 32.78 35.0837C32.78 35.0569 32.8171 35.035 32.8625 35.035C32.9079 35.035 32.9929 34.9872 33.0513 34.9287C33.1097 34.8703 33.2186 34.7899 33.2932 34.75C33.4569 34.6624 33.7953 34.3846 34.1683 34.0313C34.32 33.8876 34.4658 33.77 34.492 33.77C34.5184 33.77 34.54 33.748 34.54 33.7212C34.54 33.6942 34.6452 33.5613 34.7738 33.4257C35.1399 33.0395 35.53 32.5405 35.53 32.4585C35.53 32.4266 35.5638 32.3807 35.6051 32.3565C35.6463 32.3323 35.7222 32.2383 35.7738 32.1475C35.8254 32.0568 35.9273 31.8835 36.0003 31.7625C36.0731 31.6415 36.1633 31.4806 36.2005 31.405C36.2377 31.3294 36.3118 31.2094 36.3652 31.1381C36.4185 31.067 36.4779 30.9247 36.4972 30.8219C36.5164 30.7192 36.5536 30.635 36.5795 30.635C36.6057 30.635 36.6664 30.4989 36.7148 30.3325C36.7632 30.1661 36.824 30.03 36.85 30.03C36.876 30.03 36.9266 29.8887 36.9623 29.716C36.9982 29.5433 37.0618 29.3498 37.1034 29.2861C37.1452 29.2225 37.1945 29.0483 37.213 28.8989C37.2316 28.7496 37.2917 28.4914 37.3465 28.325C37.6013 27.5517 37.6019 24.4661 37.3475 23.705C37.2918 23.5386 37.2303 23.2704 37.2107 23.1088C37.191 22.9472 37.1265 22.7249 37.0674 22.6146C37.0084 22.5044 36.96 22.3505 36.96 22.2725C36.96 22.1947 36.9233 22.0831 36.8783 22.0242C36.8335 21.9655 36.7693 21.8185 36.7358 21.6975C36.7022 21.5765 36.6432 21.4404 36.6049 21.395C36.5664 21.3496 36.5175 21.2402 36.4965 21.1519C36.4755 21.0635 36.4103 20.9303 36.3516 20.8557C36.293 20.7812 36.245 20.6847 36.245 20.6414C36.245 20.5981 36.1831 20.4816 36.1075 20.3825C36.0319 20.2832 35.97 20.1869 35.97 20.1685C35.97 20.1026 35.6205 19.6024 35.3788 19.3223C35.3107 19.2434 35.255 19.1472 35.255 19.1082C35.255 19.0692 35.2055 19.0218 35.145 19.0025C35.0845 18.9833 35.035 18.9331 35.035 18.8907C35.035 18.8485 34.9855 18.7873 34.925 18.755C34.8645 18.7227 34.815 18.6724 34.815 18.6435C34.815 18.564 33.756 17.545 33.6733 17.545C33.6339 17.545 33.5885 17.5109 33.5726 17.4693C33.5371 17.377 32.6777 16.7978 32.285 16.6016C32.2094 16.5638 32.0856 16.4915 32.01 16.4407C31.9344 16.3901 31.7921 16.3313 31.6938 16.31C31.5954 16.2887 31.515 16.2509 31.515 16.226C31.515 16.1688 31.2078 16.06 31.046 16.06C30.9786 16.06 30.8953 16.026 30.8608 15.9845C30.8263 15.943 30.6501 15.8799 30.4692 15.8443C30.2884 15.8087 30.0475 15.7394 29.9339 15.6901C29.6966 15.5874 27.1719 15.5342 26.62 15.6203ZM29.7415 15.7831C30.8459 16.0449 31.1541 16.1524 31.9825 16.5653C32.3654 16.7562 32.6131 16.9022 32.9442 17.1325C33.0747 17.2233 33.2211 17.3223 33.2695 17.3525C33.9219 17.7602 35.4388 19.382 35.713 19.965C35.7343 20.0104 35.8236 20.1589 35.9112 20.295C36.107 20.599 36.465 21.2996 36.465 21.3787C36.465 21.4106 36.4995 21.4651 36.5417 21.5002C36.5839 21.5353 36.6352 21.6558 36.6559 21.7682C36.6764 21.8805 36.7316 22.032 36.7785 22.1049C36.8255 22.1778 36.8955 22.3758 36.934 22.5449C36.9725 22.714 37.0427 22.9515 37.0897 23.0725C37.1367 23.1935 37.1763 23.3613 37.1775 23.4453C37.1789 23.5292 37.2346 23.8014 37.3013 24.0503C37.485 24.7353 37.4855 27.3002 37.3021 27.9797C37.235 28.2286 37.1789 28.5009 37.1775 28.5848C37.1763 28.6688 37.1371 28.8365 37.0906 28.9575C37.044 29.0785 36.9728 29.309 36.9322 29.4694C36.8917 29.63 36.8193 29.821 36.7718 29.8937C36.7241 29.9666 36.685 30.0627 36.685 30.1074C36.685 30.1949 36.1589 31.2913 35.9437 31.6525C35.8716 31.7735 35.7737 31.9396 35.726 32.0217C35.557 32.3128 34.8703 33.1837 34.5267 33.5429C33.9932 34.1007 32.9126 34.98 32.7608 34.98C32.7183 34.98 32.6545 35.0151 32.619 35.0578C32.5834 35.1006 32.3019 35.2579 31.9935 35.4074C31.1732 35.8047 30.9594 35.8958 30.745 35.9392C30.6391 35.9607 30.4737 36.0139 30.3775 36.0575C30.1796 36.147 29.3002 36.2927 28.6 36.3521C27.8345 36.4169 26.2789 36.2519 25.795 36.0544C25.6891 36.0113 25.5159 35.9589 25.41 35.9381C25.1225 35.8816 23.7325 35.2272 23.5357 35.0556C23.4879 35.0141 23.4211 34.98 23.3872 34.98C23.3534 34.98 23.259 34.9181 23.1773 34.8425C23.0957 34.7669 23.0139 34.705 22.9958 34.705C22.9775 34.7049 22.8906 34.643 22.8027 34.5675C22.7149 34.4919 22.6214 34.43 22.5952 34.43C22.569 34.43 22.2273 34.1106 21.8361 33.7202C21.2986 33.184 21.1108 33.0274 21.0676 33.0793C21.0294 33.1254 21.006 34.8109 20.9965 38.2027L20.9825 43.2575H18.59H16.1975L16.1836 29.5757L16.1697 15.8939L18.6311 15.9082L21.0925 15.9225L21.1072 17.3388L21.1219 18.755H21.244C21.3191 18.755 21.4618 18.6526 21.6143 18.4894C21.7509 18.3433 22.0481 18.0649 22.275 17.8706C22.5019 17.6765 22.6963 17.4973 22.707 17.4727C22.7178 17.4481 22.7796 17.4046 22.8445 17.3763C22.9094 17.3478 23.0739 17.2394 23.21 17.1353C23.3461 17.0312 23.6376 16.8519 23.8578 16.7368C24.0778 16.6217 24.3376 16.4854 24.4353 16.4339C24.5328 16.3824 24.6528 16.3391 24.702 16.3376C24.7512 16.3362 24.8201 16.3005 24.8552 16.2583C24.8903 16.2161 25.0108 16.1647 25.1232 16.1439C25.2355 16.1233 25.4359 16.0588 25.5683 16.0006C25.7007 15.9426 25.8739 15.8947 25.9533 15.8945C26.0326 15.894 26.2213 15.8553 26.3725 15.8081C27.0735 15.5898 28.8695 15.5764 29.7415 15.7831ZM36.96 16.9142C37.4633 17.4483 38.2367 18.227 37.9749 17.9359C37.8553 17.8031 37.6956 17.6297 37.62 17.5508C37.5444 17.4719 37.3342 17.2465 37.1529 17.0499C36.9717 16.8534 36.7737 16.657 36.7129 16.6136C36.6521 16.5703 36.7634 16.7056 36.96 16.9142ZM38.555 18.5705C38.555 18.6002 38.6355 18.6971 38.7338 18.7859L38.9125 18.9475L38.7475 18.7553C38.6568 18.6495 38.5763 18.5526 38.5688 18.5398C38.5612 18.5272 38.555 18.5409 38.555 18.5705ZM26.51 19.1725C26.3739 19.2165 26.1388 19.2768 25.9875 19.3067C25.8363 19.3366 25.6011 19.4141 25.465 19.4788C25.3289 19.5437 25.0814 19.661 24.915 19.7395C24.7486 19.818 24.4967 19.9752 24.3551 20.0886C24.2136 20.2022 24.0724 20.295 24.0413 20.295C23.8337 20.295 22.5053 21.8313 22.2349 22.384C22.1976 22.4602 22.1444 22.5596 22.1166 22.605C21.9882 22.815 21.7799 23.2843 21.7788 23.3663C21.7781 23.4165 21.7262 23.5689 21.6634 23.705C21.6006 23.8411 21.5276 24.101 21.501 24.2825C21.4745 24.464 21.4151 24.7478 21.3689 24.9132C21.2564 25.3164 21.259 26.5209 21.3733 27.005C21.4198 27.2016 21.4792 27.511 21.5053 27.6925C21.5314 27.874 21.6033 28.1339 21.6652 28.27C21.7269 28.4061 21.7781 28.5594 21.7788 28.6109C21.7795 28.6622 21.838 28.8134 21.9091 28.9469C21.9801 29.0806 22.0543 29.2365 22.074 29.2937C22.0936 29.3508 22.17 29.4965 22.2435 29.6175C22.3172 29.7385 22.4199 29.9118 22.4719 30.0025C22.9061 30.7612 24.5729 32.285 24.9685 32.285C25.0052 32.285 25.098 32.3345 25.175 32.395C25.2519 32.4555 25.362 32.505 25.4196 32.505C25.4772 32.505 25.619 32.5533 25.7348 32.6123C26.2406 32.8705 27.7471 33.0156 28.4075 32.8699C28.6193 32.8232 28.9039 32.7608 29.04 32.7312C29.3688 32.6597 29.8177 32.4936 29.9938 32.3782C30.0721 32.3269 30.1667 32.285 30.2038 32.285C30.2704 32.285 30.331 32.2484 30.9869 31.8128C31.5844 31.416 32.2893 30.6584 32.791 29.8737C33.0202 29.5149 33.495 28.4778 33.495 28.3355C33.495 28.2769 33.5422 28.1207 33.5999 27.9883C33.9169 27.2602 33.9164 24.7761 33.5991 24.0417C33.5418 23.9093 33.495 23.7436 33.495 23.6734C33.495 23.6033 33.4331 23.4295 33.3575 23.2873C33.2819 23.145 33.22 22.9859 33.22 22.9335C33.22 22.8813 33.1845 22.8089 33.1411 22.7729C33.0976 22.7369 33.0468 22.6375 33.0279 22.5519C33.0091 22.4664 32.9457 22.3528 32.8868 22.2996C32.8281 22.2466 32.78 22.1785 32.78 22.1484C32.78 21.901 31.6491 20.6722 30.965 20.1762C30.4158 19.778 29.6277 19.3962 29.1756 19.3091C29.0254 19.2801 28.7942 19.218 28.6619 19.1708C28.337 19.055 26.8696 19.0561 26.51 19.1725ZM28.3815 19.2529C28.4277 19.2764 28.6613 19.323 28.9006 19.3563C29.14 19.3896 29.3751 19.4524 29.4231 19.4957C29.4711 19.5392 29.6171 19.5918 29.7474 19.6127C29.8778 19.6335 29.9969 19.683 30.0121 19.7226C30.0273 19.7622 30.1275 19.8237 30.2349 19.8591C30.4244 19.9217 30.7957 20.1472 30.8538 20.2351C30.8696 20.259 30.9444 20.3104 31.02 20.3493C31.1817 20.4328 31.2073 20.4549 31.6994 20.9392C32.0913 21.325 32.725 22.1331 32.725 22.2472C32.725 22.2834 32.7745 22.3578 32.835 22.4125C32.8955 22.4672 32.945 22.5654 32.945 22.6307C32.945 22.6959 32.9916 22.7993 33.0487 22.8605C33.1056 22.9217 33.1702 23.0563 33.1921 23.1595C33.214 23.2629 33.2787 23.4246 33.3359 23.519C33.3931 23.6133 33.44 23.7555 33.44 23.8351C33.44 23.9146 33.4957 24.1344 33.5638 24.3235C33.7341 24.7973 33.7545 27.349 33.5902 27.6503C33.5368 27.7481 33.4786 27.9461 33.461 28.0903C33.4433 28.2345 33.3824 28.4188 33.3257 28.4998C33.269 28.5808 33.2067 28.7463 33.1873 28.8676C33.1679 28.989 33.1191 29.1008 33.0789 29.1163C33.0386 29.1317 32.9788 29.2446 32.9458 29.3671C32.9128 29.4898 32.865 29.59 32.8395 29.59C32.8141 29.59 32.7613 29.6705 32.722 29.7688C32.6828 29.8671 32.6184 29.9846 32.5791 30.03C32.5398 30.0754 32.3158 30.3476 32.0814 30.635C31.6276 31.1912 31.4931 31.3205 31.0516 31.625C30.898 31.7309 30.7641 31.8366 30.7537 31.8601C30.7434 31.8835 30.6497 31.9384 30.5455 31.9818C30.4414 32.0254 30.3181 32.099 30.2716 32.1455C30.2251 32.1919 30.1485 32.23 30.1014 32.23C30.0541 32.23 29.9383 32.2769 29.844 32.3341C29.7496 32.3913 29.5859 32.4561 29.48 32.4779C29.3741 32.4998 29.2256 32.5501 29.15 32.5896C28.6887 32.8309 26.3764 32.8272 25.9875 32.5845C25.927 32.5467 25.7909 32.4983 25.685 32.477C25.5791 32.4557 25.4154 32.3913 25.321 32.3341C25.2267 32.2769 25.1092 32.23 25.0598 32.23C25.0104 32.23 24.9212 32.1812 24.8614 32.1214C24.8017 32.0617 24.6883 31.9967 24.6095 31.9769C24.5307 31.9571 24.454 31.9092 24.4391 31.8705C24.4243 31.8318 24.3387 31.7697 24.249 31.7325C24.1592 31.6953 24.0611 31.6188 24.031 31.5624C24.0008 31.5061 23.9503 31.46 23.9187 31.46C23.8414 31.46 23.045 30.6603 23.045 30.5828C23.045 30.5491 23.011 30.5085 22.9694 30.4926C22.9279 30.4766 22.848 30.3784 22.7919 30.2744C22.7359 30.1701 22.6739 30.085 22.6542 30.085C22.6344 30.085 22.5875 30.0108 22.55 29.92C22.5125 29.8293 22.4632 29.755 22.4408 29.755C22.4183 29.755 22.3574 29.6436 22.3054 29.5075C22.2534 29.3714 22.1893 29.26 22.1629 29.26C22.1365 29.26 22.0976 29.1672 22.0763 29.0538C22.0551 28.9403 21.9945 28.7856 21.9416 28.71C21.8886 28.6344 21.8288 28.4735 21.8086 28.3525C21.7884 28.2315 21.7364 28.0774 21.693 28.01C21.6495 27.9426 21.5881 27.6332 21.5564 27.3225C21.5247 27.0117 21.476 26.6585 21.4482 26.5375C21.3822 26.25 21.3817 25.5443 21.4474 25.3C21.4759 25.1941 21.5238 24.8798 21.554 24.6015C21.5842 24.3232 21.6461 24.0386 21.6916 23.969C21.7372 23.8994 21.7918 23.7311 21.813 23.595C21.8342 23.4589 21.8974 23.2885 21.9533 23.2163C22.0092 23.1441 22.055 23.0535 22.055 23.0148C22.055 22.976 22.1412 22.7875 22.2465 22.5959C22.352 22.4043 22.4887 22.1547 22.5503 22.0413C22.6119 21.9278 22.6865 21.835 22.7161 21.835C22.7458 21.835 22.77 21.8019 22.77 21.7613C22.77 21.6953 22.9266 21.5093 23.4251 20.9825C23.6176 20.7792 24.0662 20.3951 24.1905 20.3273C24.2411 20.2998 24.3023 20.2441 24.3265 20.2036C24.3507 20.1631 24.4002 20.13 24.4365 20.13C24.4728 20.1299 24.5744 20.068 24.6623 19.9925C24.7501 19.9169 24.8644 19.855 24.9161 19.855C24.9678 19.855 25.0691 19.8087 25.1413 19.7522C25.2135 19.6956 25.3591 19.631 25.465 19.6086C25.5709 19.5861 25.6961 19.5338 25.7433 19.4923C25.7906 19.4508 26.0253 19.3896 26.265 19.3562C26.5046 19.3229 26.7248 19.2807 26.7542 19.2625C26.9253 19.1568 28.1786 19.1494 28.3815 19.2529Z" fill="#95A2B5"/>
<path fill-rule="evenodd" clip-rule="evenodd" d="M27.005 15.6745C26.8084 15.7009 26.5238 15.761 26.3725 15.8081C26.2213 15.8553 26.0326 15.8941 25.9533 15.8945C25.8739 15.8948 25.7007 15.9426 25.5683 16.0006C25.4359 16.0588 25.2355 16.1233 25.1232 16.1439C25.0109 16.1647 24.8903 16.2161 24.8552 16.2583C24.8201 16.3005 24.7513 16.3363 24.702 16.3376C24.6528 16.3392 24.5328 16.3825 24.4353 16.4339C24.3377 16.4855 24.0778 16.6217 23.8578 16.7368C23.6376 16.8519 23.3461 17.0312 23.21 17.1353C23.0739 17.2394 22.9094 17.3479 22.8445 17.3763C22.7796 17.4046 22.7178 17.4481 22.707 17.4727C22.6963 17.4973 22.5019 17.6765 22.275 17.8706C22.0481 18.0649 21.7509 18.3434 21.6143 18.4894C21.4618 18.6526 21.3191 18.755 21.244 18.755H21.1219L21.1072 17.3388L21.0925 15.9225L18.6311 15.9082L16.1697 15.8939L16.1836 29.5757L16.1975 43.2575H18.59H20.9825L20.9965 38.2028C21.006 34.8109 21.0294 33.1254 21.0676 33.0794C21.1108 33.0274 21.2986 33.184 21.8361 33.7203C22.2273 34.1106 22.569 34.43 22.5953 34.43C22.6214 34.43 22.7149 34.4919 22.8027 34.5675C22.8906 34.643 22.9775 34.7049 22.9958 34.705C23.0139 34.705 23.0958 34.7669 23.1773 34.8425C23.259 34.9182 23.3534 34.98 23.3873 34.98C23.4211 34.98 23.4879 35.0141 23.5358 35.0557C23.7325 35.2273 25.1225 35.8816 25.41 35.9381C25.5159 35.9589 25.6891 36.0113 25.795 36.0545C26.2789 36.2519 27.8346 36.4169 28.6 36.3522C29.3002 36.2928 30.1796 36.147 30.3775 36.0575C30.4737 36.0139 30.6391 35.9607 30.745 35.9392C30.9594 35.8958 31.1732 35.8048 31.9935 35.4074C32.3019 35.2579 32.5834 35.1006 32.619 35.0579C32.6545 35.0151 32.7183 34.98 32.7608 34.98C32.9126 34.98 33.9932 34.1007 34.5267 33.5429C34.8703 33.1837 35.557 32.3128 35.726 32.0217C35.7737 31.9396 35.8716 31.7735 35.9438 31.6525C36.1589 31.2913 36.685 30.1949 36.685 30.1075C36.685 30.0628 36.7241 29.9667 36.7718 29.8938C36.8194 29.821 36.8917 29.6301 36.9322 29.4695C36.9728 29.309 37.044 29.0785 37.0906 28.9575C37.1371 28.8365 37.1763 28.6688 37.1775 28.5848C37.1789 28.5009 37.235 28.2287 37.3021 27.9798C37.4855 27.3003 37.485 24.7353 37.3013 24.0503C37.2346 23.8014 37.1789 23.5292 37.1775 23.4453C37.1763 23.3613 37.1367 23.1935 37.0897 23.0725C37.0427 22.9515 36.9725 22.7141 36.934 22.5449C36.8955 22.3758 36.8255 22.1778 36.7785 22.105C36.7316 22.0321 36.6764 21.8805 36.6559 21.7682C36.6352 21.6559 36.584 21.5353 36.5417 21.5002C36.4995 21.4652 36.465 21.4106 36.465 21.3787C36.465 21.2996 36.107 20.5991 35.9112 20.295C35.8236 20.1589 35.7343 20.0104 35.713 19.965C35.4389 19.382 33.922 17.7602 33.2695 17.3525C33.2211 17.3223 33.0747 17.2233 32.9442 17.1325C32.2141 16.6247 31.2007 16.1497 30.415 15.9467C29.4704 15.7029 29.2273 15.6683 28.3115 15.6478C27.7896 15.636 27.2016 15.6479 27.005 15.6745ZM29.4044 15.8098C29.467 15.8536 29.7241 15.9152 29.9756 15.9469C30.2271 15.9784 30.4722 16.0384 30.5202 16.0804C30.5682 16.1223 30.7226 16.1731 30.8633 16.1934C31.0039 16.2136 31.1748 16.2785 31.2429 16.3376C31.3111 16.3966 31.4364 16.445 31.5213 16.445C31.6062 16.445 31.72 16.4916 31.7741 16.5486C31.8282 16.6056 31.953 16.6694 32.0513 16.6905C32.1496 16.7115 32.23 16.7528 32.23 16.7822C32.23 16.8116 32.3228 16.8742 32.4363 16.9212C32.5497 16.9684 32.6623 17.0414 32.6865 17.0834C32.7107 17.1255 32.7778 17.16 32.8358 17.16C32.8937 17.16 32.9674 17.2093 32.9996 17.2693C33.0319 17.3296 33.1199 17.3942 33.1954 17.4132C33.2709 17.4321 33.3629 17.4907 33.4 17.5434C33.4371 17.5962 33.5232 17.6568 33.5913 17.6784C33.6593 17.6999 33.715 17.7529 33.715 17.7962C33.715 17.8396 33.7383 17.875 33.7667 17.875C33.8341 17.875 34.705 18.746 34.705 18.8133C34.705 18.8418 34.7405 18.865 34.7838 18.865C34.8271 18.865 34.8783 18.9145 34.8975 18.975C34.9168 19.0357 34.9803 19.1107 35.0387 19.142C35.0972 19.1733 35.145 19.2267 35.145 19.2608C35.145 19.2947 35.2499 19.461 35.3781 19.6301C35.6162 19.9444 35.7308 20.1306 35.88 20.4463C35.9264 20.5446 35.9893 20.625 36.0197 20.625C36.0502 20.625 36.0916 20.7133 36.1119 20.8214C36.1321 20.9293 36.1951 21.0466 36.2519 21.0821C36.3102 21.1185 36.355 21.2093 36.355 21.2908C36.355 21.3703 36.406 21.5001 36.4683 21.5793C36.5306 21.6585 36.5958 21.8165 36.6131 21.9305C36.6304 22.0443 36.6876 22.187 36.7402 22.2475C36.7945 22.3101 36.8515 22.4989 36.8722 22.6852C36.8922 22.8655 36.9417 23.0511 36.9822 23.0977C37.0224 23.1443 37.0818 23.3931 37.114 23.6503C37.1462 23.9076 37.2112 24.1922 37.2584 24.2828C37.3992 24.5527 37.385 27.4481 37.2415 27.7818C37.1844 27.9142 37.121 28.2204 37.1004 28.4623C37.0765 28.744 37.0359 28.9173 36.9879 28.9441C36.9465 28.9673 36.8958 29.1224 36.8749 29.2889C36.8541 29.4553 36.7905 29.6508 36.7336 29.7233C36.6766 29.7956 36.63 29.9315 36.63 30.025C36.63 30.1201 36.5829 30.2422 36.523 30.302C36.4643 30.3607 36.4 30.4953 36.3802 30.6009C36.3604 30.7064 36.2971 30.8354 36.2395 30.8875C36.182 30.9395 36.135 31.0244 36.135 31.0761C36.135 31.1278 36.087 31.2312 36.0285 31.3058C35.9697 31.3803 35.9053 31.5073 35.8849 31.5882C35.8647 31.6689 35.8256 31.735 35.7981 31.735C35.7706 31.735 35.7053 31.8279 35.6529 31.9413C35.6004 32.0547 35.5266 32.1673 35.4888 32.1915C35.451 32.2157 35.42 32.2643 35.42 32.2996C35.42 32.3348 35.3712 32.414 35.3115 32.4756C35.1073 32.6861 34.87 32.987 34.87 33.0354C34.87 33.0619 34.8205 33.1144 34.76 33.1523C34.6995 33.1901 34.65 33.2434 34.65 33.2708C34.65 33.3192 34.1917 33.7802 33.8917 34.0335C33.5486 34.3232 33.0376 34.705 32.993 34.705C32.9666 34.705 32.945 34.7391 32.945 34.7807C32.945 34.8223 32.8712 34.871 32.7808 34.8892C32.6905 34.9072 32.5736 34.9722 32.5211 35.0335C32.4686 35.0949 32.3864 35.145 32.3385 35.145C32.2905 35.145 32.1675 35.2069 32.065 35.2825C31.9626 35.3582 31.8271 35.42 31.764 35.42C31.7011 35.42 31.6071 35.4695 31.5553 35.53C31.5017 35.5927 31.3931 35.64 31.303 35.64C31.216 35.64 31.0859 35.6858 31.0137 35.7419C30.9415 35.798 30.7465 35.8616 30.5803 35.8831C30.4141 35.9047 30.2339 35.9623 30.1799 36.0112C30.1105 36.074 29.9094 36.1128 29.4921 36.1437C29.1679 36.1678 28.73 36.2111 28.519 36.24C28.2741 36.2735 27.9759 36.2732 27.694 36.2391C27.4512 36.2098 26.9852 36.1649 26.6585 36.139C26.2363 36.1058 26.0358 36.0662 25.9648 36.0019C25.91 35.9523 25.7318 35.8963 25.5688 35.8775C25.4059 35.8587 25.2135 35.7976 25.1413 35.7417C25.0692 35.6858 24.955 35.64 24.8875 35.64C24.82 35.64 24.7019 35.5905 24.625 35.53C24.548 35.4695 24.4515 35.42 24.4104 35.42C24.3693 35.42 24.2444 35.3582 24.1332 35.2825C24.022 35.2069 23.8963 35.145 23.8539 35.145C23.8117 35.145 23.7335 35.0969 23.6804 35.0382C23.6272 34.9794 23.512 34.9156 23.4244 34.8963C23.3367 34.8771 23.265 34.8427 23.265 34.8199C23.265 34.797 23.1233 34.6814 22.9501 34.5629C22.507 34.2598 21.3936 33.2173 21.2494 32.9705C21.1984 32.883 21.167 32.8741 21.0844 32.9236C20.9866 32.982 20.9814 33.1941 20.955 38.0936L20.9275 43.2025H18.59H16.2525L16.2386 29.5757L16.2247 15.9489L18.6036 15.9632L20.9825 15.9775L21.0124 17.435C21.0287 18.2367 21.0473 18.9019 21.0536 18.9132C21.1141 19.0222 21.4519 18.8047 21.8721 18.3858C22.403 17.8569 22.8748 17.435 22.9353 17.435C22.9566 17.435 23.0408 17.3732 23.1223 17.2975C23.204 17.2219 23.3057 17.16 23.3485 17.16C23.3911 17.16 23.4527 17.1105 23.485 17.05C23.5173 16.9895 23.5877 16.94 23.6412 16.94C23.6948 16.94 23.8226 16.8782 23.925 16.8025C24.0275 16.7269 24.1523 16.665 24.2024 16.665C24.2523 16.665 24.3503 16.6155 24.42 16.555C24.4897 16.4945 24.6017 16.445 24.6685 16.445C24.7354 16.445 24.8492 16.3987 24.9213 16.342C24.9935 16.2854 25.1639 16.2209 25.3 16.1986C25.4361 16.1764 25.5874 16.123 25.6361 16.08C25.6847 16.0371 25.9254 15.979 26.1707 15.9511C26.4161 15.9231 26.6856 15.8629 26.7696 15.8173C26.99 15.6979 29.2354 15.6914 29.4044 15.8098ZM26.3094 19.0846C26.2444 19.1109 26.1749 19.1589 26.1549 19.1912C26.1349 19.2235 26.037 19.25 25.9375 19.25C25.7301 19.25 25.41 19.3497 25.41 19.4144C25.41 19.4383 25.3268 19.4735 25.2251 19.4924C25.1233 19.5116 24.9957 19.5762 24.9416 19.6361C24.8874 19.6961 24.787 19.745 24.7187 19.745C24.6069 19.745 24.4917 19.8193 24.2065 20.075C24.1559 20.1204 24.0162 20.2223 23.896 20.3014C23.5036 20.5599 22.66 21.4477 22.66 21.6022C22.66 21.6249 22.6105 21.6744 22.55 21.7122C22.4895 21.7501 22.44 21.814 22.44 21.8544C22.44 21.8948 22.3927 21.9708 22.335 22.023C22.2772 22.0754 22.2133 22.1844 22.1931 22.2653C22.1727 22.3463 22.1086 22.4568 22.0506 22.511C21.9925 22.565 21.945 22.6702 21.945 22.7447C21.945 22.8191 21.8981 22.9269 21.8408 22.9843C21.7836 23.0415 21.7186 23.1957 21.6963 23.3271C21.6741 23.4582 21.6216 23.5908 21.5797 23.6216C21.5347 23.6544 21.4889 23.8322 21.4683 24.0532C21.4467 24.2843 21.3994 24.4627 21.3454 24.5167C21.1918 24.6701 21.1842 27.0206 21.3363 27.3544C21.3989 27.4917 21.4502 27.6858 21.4503 27.7858C21.4507 28.0137 21.55 28.38 21.6113 28.38C21.6367 28.38 21.674 28.4896 21.6941 28.6237C21.7142 28.7576 21.7788 28.9287 21.8378 29.0036C21.8968 29.0785 21.945 29.1869 21.945 29.2442C21.945 29.3017 22.0069 29.4326 22.0825 29.535C22.1581 29.6375 22.22 29.7545 22.22 29.7949C22.22 29.8353 22.2549 29.8818 22.2976 29.8982C22.3402 29.9147 22.3891 29.9838 22.4062 30.052C22.4353 30.1681 22.5683 30.3445 22.8261 30.6095C22.8861 30.6711 22.935 30.7499 22.935 30.7845C22.935 30.8193 22.9845 30.8633 23.045 30.8825C23.1055 30.9018 23.155 30.9437 23.155 30.9759C23.155 31.0079 23.2973 31.1657 23.4713 31.3264C23.6452 31.487 23.8396 31.6695 23.9033 31.7317C23.967 31.794 24.0462 31.845 24.0793 31.845C24.1124 31.845 24.1593 31.8794 24.1835 31.9214C24.2255 31.994 24.4351 32.1163 24.86 32.3163C24.9659 32.3662 25.0723 32.4414 25.0965 32.4835C25.1222 32.5283 25.2293 32.56 25.3546 32.56C25.5094 32.56 25.5911 32.5918 25.6491 32.6747C25.7111 32.7633 25.8093 32.7967 26.0785 32.8207C26.2705 32.8378 26.4883 32.8914 26.5624 32.9397C26.7891 33.0874 28.1965 33.0992 28.5032 32.956C28.6321 32.896 28.8969 32.8317 29.0917 32.8132C29.3356 32.7901 29.4824 32.7454 29.5628 32.6698C29.627 32.6094 29.7451 32.56 29.8251 32.56C29.9052 32.56 30.015 32.5134 30.0691 32.4565C30.1232 32.3994 30.2496 32.3352 30.35 32.3138C30.4504 32.2923 30.5455 32.2408 30.5613 32.1995C30.5771 32.1581 30.6397 32.1085 30.7002 32.0892C30.8853 32.0305 31.2495 31.7617 31.6208 31.4099C31.815 31.2257 31.9945 31.075 32.0195 31.075C32.0445 31.075 32.065 31.0507 32.065 31.021C32.065 30.9913 32.1772 30.8498 32.3144 30.7067C32.4517 30.5635 32.578 30.3897 32.5954 30.3207C32.6128 30.2516 32.6484 30.195 32.6746 30.195C32.7008 30.195 32.7632 30.1146 32.8136 30.0163C32.8638 29.918 32.9387 29.8177 32.9799 29.7935C33.0212 29.7693 33.055 29.6907 33.055 29.6188C33.055 29.5467 33.0883 29.4547 33.1289 29.414C33.2346 29.3083 33.33 29.1172 33.33 29.011C33.33 28.961 33.3795 28.857 33.44 28.78C33.5052 28.6973 33.55 28.5569 33.55 28.436C33.55 28.3145 33.5922 28.1831 33.6545 28.1115C33.7292 28.0253 33.77 27.8625 33.7981 27.5392C33.8195 27.2908 33.8741 27.0009 33.9193 26.895C34.03 26.6356 34.0282 25.5262 33.9165 25.213C33.8725 25.0895 33.8184 24.7727 33.7966 24.509C33.7721 24.2154 33.7263 23.9991 33.6783 23.9513C33.6354 23.9083 33.5852 23.7462 33.5668 23.5909C33.5482 23.4342 33.4914 23.2685 33.4391 23.2181C33.3871 23.1684 33.3275 23.0335 33.3068 22.9184C33.286 22.8033 33.2339 22.6958 33.191 22.6793C33.1481 22.6629 33.0971 22.5645 33.0776 22.4608C33.0582 22.357 32.9956 22.2471 32.9386 22.2166C32.8816 22.1861 32.835 22.1146 32.835 22.0578C32.835 21.9559 32.7069 21.7748 32.4638 21.5329C32.3957 21.4653 32.34 21.3888 32.34 21.3631C32.34 21.3374 32.2901 21.2661 32.2292 21.2045C32.1683 21.1429 32.0245 20.9935 31.9098 20.8725C31.795 20.7515 31.5935 20.5659 31.4622 20.46C31.3308 20.3542 31.164 20.2118 31.0917 20.1438C31.0192 20.0757 30.9462 20.02 30.9293 20.02C30.9122 20.02 30.8249 19.9582 30.735 19.8825C30.6451 19.8069 30.5269 19.745 30.4725 19.745C30.418 19.745 30.3438 19.7091 30.3074 19.6653C30.2709 19.6216 30.1608 19.5591 30.0623 19.5267C29.964 19.4942 29.7875 19.4186 29.6702 19.3588C29.5528 19.299 29.3876 19.25 29.3032 19.25C29.2188 19.25 29.0572 19.2005 28.9443 19.14C28.7225 19.0211 26.5786 18.976 26.3094 19.0846ZM28.6619 19.1708C28.7942 19.218 29.0254 19.2801 29.1756 19.3092C29.6277 19.3962 30.4158 19.778 30.965 20.1762C31.6491 20.6722 32.78 21.901 32.78 22.1484C32.78 22.1785 32.8281 22.2466 32.8869 22.2997C32.9457 22.3529 33.0091 22.4664 33.0279 22.552C33.0468 22.6375 33.0976 22.7369 33.1411 22.7729C33.1845 22.809 33.22 22.8813 33.22 22.9335C33.22 22.9859 33.2819 23.145 33.3575 23.2873C33.4331 23.4295 33.495 23.6033 33.495 23.6734C33.495 23.7437 33.5418 23.9094 33.5991 24.0418C33.9165 24.7762 33.9169 27.2602 33.5999 27.9883C33.5422 28.1207 33.495 28.2769 33.495 28.3355C33.495 28.4778 33.0202 29.515 32.791 29.8737C32.2893 30.6584 31.5845 31.416 30.9869 31.8129C30.331 32.2485 30.2704 32.285 30.2038 32.285C30.1667 32.285 30.0721 32.327 29.9939 32.3783C29.8177 32.4936 29.3688 32.6597 29.04 32.7312C28.9039 32.7608 28.6193 32.8232 28.4075 32.87C27.7471 33.0156 26.2407 32.8705 25.7348 32.6123C25.619 32.5533 25.4773 32.505 25.4196 32.505C25.362 32.505 25.2519 32.4555 25.175 32.395C25.098 32.3345 25.0052 32.285 24.9685 32.285C24.5729 32.285 22.9061 30.7613 22.4719 30.0025C22.4199 29.9118 22.3172 29.7385 22.2435 29.6175C22.17 29.4965 22.0937 29.3508 22.074 29.2937C22.0543 29.2365 21.9801 29.0806 21.9091 28.947C21.838 28.8134 21.7795 28.6622 21.7788 28.6109C21.7781 28.5595 21.7269 28.4062 21.6652 28.27C21.6033 28.1339 21.5314 27.874 21.5053 27.6925C21.4792 27.511 21.4198 27.2017 21.3733 27.005C21.259 26.5209 21.2564 25.3164 21.3689 24.9132C21.4151 24.7478 21.4745 24.464 21.501 24.2825C21.5276 24.101 21.6006 23.8412 21.6634 23.705C21.7263 23.5689 21.7781 23.4166 21.7788 23.3664C21.7799 23.2843 21.9882 22.815 22.1166 22.605C22.1444 22.5597 22.1976 22.4603 22.2349 22.3841C22.5053 21.8313 23.8337 20.295 24.0413 20.295C24.0724 20.295 24.2136 20.2022 24.3551 20.0886C24.4967 19.9752 24.7486 19.818 24.915 19.7395C25.0814 19.661 25.3289 19.5437 25.465 19.4788C25.6011 19.4141 25.8363 19.3367 25.9875 19.3067C26.1388 19.2768 26.3739 19.2165 26.51 19.1725C26.8696 19.0562 28.337 19.0551 28.6619 19.1708Z" fill="#5C7494"/>
</svg>
