<svg width="50" height="50" viewBox="0 0 50 50" fill="none" xmlns="http://www.w3.org/2000/svg">
<g clip-path="url(#clip0_9:86)">
<path fill-rule="evenodd" clip-rule="evenodd" d="M0.005875 11.7375C0.012125 24.2699 -0.000499994 23.692 0.226875 21.875C0.36925 20.7376 0.474625 20.178 0.80525 18.805C0.903875 18.3953 1.11488 17.6753 1.195 17.475C1.217 17.42 1.29725 17.1838 1.3735 16.95C2.29088 14.1341 4.14063 10.944 6.19938 8.62737C6.78638 7.96675 8.19525 6.55188 8.47738 6.33938C8.561 6.2765 8.67437 6.179 8.72937 6.12275C8.91275 5.9355 10.0943 5 10.1475 5C10.1764 5 10.2 4.98062 10.2 4.95687C10.2 4.88675 11.7374 3.87612 12.625 3.36287C13.3255 2.95787 14.4159 2.40775 14.984 2.173C15.2265 2.07263 15.515 1.95125 15.625 1.90325C15.735 1.85512 15.9038 1.78712 16 1.752C16.0962 1.717 16.2425 1.65938 16.325 1.62388C16.7504 1.44138 18.322 0.953 18.9 0.823625C19.1062 0.7775 19.3425 0.720375 19.425 0.696625C19.6556 0.630375 20.5164 0.466 21.1 0.37675C21.3888 0.332625 21.7639 0.2745 21.9335 0.24775C23.3595 0.022375 26.6756 0.022375 28.1186 0.247625C28.2871 0.273875 28.6613 0.3315 28.95 0.3755C32.2875 0.88475 35.4518 2.08963 38.525 4.02175C39.0103 4.32687 40.5554 5.43787 40.65 5.54975C40.6638 5.566 40.81 5.688 40.975 5.82088C41.92 6.58175 44.4 9.07737 44.4 9.2675C44.4 9.2825 44.4586 9.35787 44.5301 9.43487C44.8976 9.83037 46.1949 11.6915 46.5621 12.35C46.6313 12.4738 46.7719 12.7212 46.8749 12.9C48.3515 15.4627 49.5126 18.9911 49.853 21.95C49.8831 22.2113 49.9259 22.515 49.9481 22.625C49.9704 22.735 49.9911 17.6894 49.9943 11.4125L50 0H25H0L0.005875 11.7375ZM21.2381 9.35163C16.797 10.0995 16.5721 16.5359 20.95 17.6003C21.5579 17.7481 21.5319 17.7124 21.4334 18.2638C21.3056 18.979 21.3386 19.4952 21.5553 20.1707C21.7164 20.6734 21.7189 20.6689 21.1625 20.8538C19.9201 21.2665 19.3079 22.1206 19.3015 23.45C19.3004 23.6838 19.278 23.9987 19.2518 24.15C19.2255 24.3012 19.1578 24.6838 19.1014 25C19.0449 25.3162 18.9776 25.71 18.9519 25.875C18.926 26.04 18.8824 26.2988 18.8549 26.45C18.7889 26.8123 18.5077 28.45 18.4514 28.8C18.427 28.9512 18.36 29.345 18.3024 29.675C18.2448 30.005 18.0734 31.0062 17.9214 31.9C17.7695 32.7937 17.623 33.6487 17.5958 33.8C17.4983 34.3411 17.3961 34.9319 17.328 35.35C17.2899 35.5837 17.178 36.2475 17.0794 36.825C16.8709 38.0465 16.868 38.1072 16.9988 38.5446C17.4231 39.9647 19.5001 40.3275 20.2655 39.1151C20.426 38.8607 20.4625 38.7209 20.6472 37.65C20.7302 37.1688 20.8895 36.2462 21.0011 35.6C21.4009 33.2859 21.5054 32.6702 21.5527 32.35C21.5791 32.1712 21.6219 31.9125 21.6478 31.775C21.6735 31.6375 21.7305 31.3225 21.7743 31.075C21.818 30.8275 21.886 30.445 21.9254 30.225C21.9647 30.005 22.0551 29.4762 22.1264 29.05C22.5311 26.6264 22.6522 25.9868 22.7192 25.9169C22.7696 25.8644 23.7276 25.577 24.0602 25.5146C24.1719 25.4938 24.1996 25.5099 24.2195 25.6071C24.3267 26.1315 24.2734 28.56 24.1256 29.875C23.9503 31.4354 23.891 31.8211 23.5728 33.475C23.4755 33.9807 23.2045 35.0536 22.834 36.4C22.4467 37.8075 22.391 38.1276 22.453 38.586C22.6746 40.2217 24.2576 41.2248 25.8143 40.7156C26.0401 40.6418 26.2363 40.5662 26.25 40.5479C26.2637 40.5295 26.3345 40.4831 26.4071 40.4448C26.9259 40.1709 27.3911 39.4619 27.5987 38.629C27.7991 37.8249 27.8415 37.7941 27.967 38.3625C28.3191 39.9577 29.1095 40.7562 30.418 40.8387C32.3109 40.958 33.4735 39.3365 33.0091 37.225C32.712 35.8747 32.6894 35.4304 32.6495 30.2C32.6128 25.3541 32.5884 24.6854 32.4022 23.4061C32.2189 22.1457 31.8641 20.8696 31.4431 19.9556C31.3369 19.7249 31.25 19.5204 31.25 19.501C31.25 19.4526 30.8116 18.7276 30.5494 18.3425C29.519 16.8289 27.5726 15.2795 26.3867 15.0289C26.3115 15.013 26.1938 14.9884 26.125 14.974C25.975 14.9429 25.9635 14.791 26.076 14.325C26.44 12.8176 25.5751 10.7487 24.2605 9.98137C23.2483 9.39062 22.2464 9.18188 21.2381 9.35163ZM22.9438 10.5761C26.2171 11.7569 25.4256 16.6 21.9594 16.6C19.2451 16.6 17.8356 13.3954 19.6756 11.4079C20.5052 10.5119 21.8305 10.1746 22.9438 10.5761ZM25.829 16.0537C27.8245 16.3312 30.2184 19.0804 30.9634 21.95C31.1944 22.8395 31.1959 22.8478 31.3761 24.225C31.4889 25.0858 31.5484 27.27 31.5445 30.4C31.5396 34.2081 31.6474 36.0109 31.985 37.7745C32.2018 38.907 31.6054 39.7286 30.5713 39.7219C29.769 39.7166 29.2306 39.2324 29.1019 38.4C29.07 38.1938 29.0228 37.9013 28.9971 37.75C28.9714 37.5987 28.9275 37.3062 28.8996 37.1C28.8436 36.6852 28.7464 36.0368 28.6257 35.275C28.5821 35 28.526 34.6167 28.5009 34.4234C28.4758 34.23 28.4434 34.0387 28.429 33.9984C28.4146 33.958 28.3799 33.745 28.352 33.525C28.3077 33.1769 28.2659 32.906 28.1044 31.925C28.0725 31.7316 28.0676 31.7406 27.9578 32.2C27.7818 32.9363 27.7657 33.0074 27.5245 34.125C27.3999 34.7025 27.2398 35.445 27.1685 35.775C26.5741 38.5298 26.2545 39.3234 25.625 39.6075C24.4173 40.1526 23.2482 39.0351 23.6297 37.7C23.7192 37.3866 23.7799 37.1605 23.9912 36.35C24.0737 36.0337 24.1765 35.6723 24.2195 35.5465C24.5082 34.7039 24.9744 32.233 25.176 30.475C25.4386 28.1871 25.4596 25.4652 25.2214 24.6185C25.1872 24.4969 25.1749 24.5092 25.7519 24.0859C27.112 23.0876 28.0023 21.4144 28.0853 19.7C28.1454 18.457 27.3156 17.5701 26.1 17.5781C25.1131 17.5846 24.5026 18.0791 24.1461 19.1611C23.871 19.996 23.3301 20.8467 23.1248 20.768C22.701 20.6054 22.2833 18.6139 22.5755 18.15C22.6015 18.1087 22.6574 17.9738 22.6999 17.85C22.8719 17.3483 23.4182 16.7183 23.9359 16.4249C24.3702 16.1786 24.6831 16.0882 25.3839 16.0069C25.4162 16.0031 25.6165 16.0241 25.829 16.0537ZM26.6134 18.1787C27.3612 18.4336 27.7069 19.1818 27.5058 20.1103C26.9443 22.7016 24.6921 24.5902 21.9 24.8111C21.6831 24.8284 21.7652 24.4746 21.2235 27.725C21.1869 27.945 21.123 28.3275 21.0818 28.575C21.0404 28.8225 20.97 29.2275 20.9252 29.475C20.8316 29.9928 20.628 31.179 20.5264 31.8C20.488 32.0337 20.4206 32.4275 20.3765 32.675C20.3322 32.9225 20.2645 33.3162 20.2256 33.55C20.1869 33.7837 20.0964 34.3125 20.0246 34.725C19.9084 35.3926 19.8601 35.6791 19.7048 36.625C19.3614 38.715 19.3293 38.7881 18.7784 38.7275C17.9855 38.6403 17.8889 38.153 18.2974 36.3C18.3246 36.1762 18.429 35.58 18.5292 34.975C18.6296 34.37 18.7415 33.695 18.778 33.475C18.8146 33.255 18.8804 32.8725 18.9241 32.625C18.968 32.3775 19.0235 32.0512 19.0476 31.9C19.0717 31.7487 19.1375 31.3662 19.1936 31.05C19.2499 30.7337 19.4102 29.8 19.5502 28.975C19.6901 28.15 19.8391 27.2837 19.8814 27.05C19.9236 26.8162 19.9891 26.4338 20.027 26.2C20.0649 25.9663 20.1315 25.5725 20.1749 25.325C20.2183 25.0775 20.2757 24.7287 20.3025 24.55C20.3292 24.3712 20.3651 24.1912 20.3822 24.15C20.3994 24.1087 20.4176 23.8162 20.4229 23.5C20.4405 22.4266 20.8661 21.9365 21.8606 21.8441C22.9966 21.7386 23.928 21.076 24.3826 20.05C24.4998 19.7857 24.5971 19.5146 24.6701 19.25C24.9175 18.353 25.7606 17.8882 26.6134 18.1787ZM0.007 38.3125L0 50L11.1875 49.9945C20.3246 49.9901 22.3063 49.9776 22 49.9265C21.7938 49.8921 21.3662 49.825 21.05 49.7775C20.3884 49.678 20.0079 49.5974 18.825 49.3061C17.6253 49.0106 16.0491 48.4682 15.0112 47.9935C14.8386 47.9146 14.685 47.85 14.6696 47.85C14.6345 47.85 13.4504 47.253 13.15 47.0838C13.0262 47.014 12.8462 46.9135 12.75 46.8602C12.2094 46.5614 12.1774 46.5423 11.525 46.1236C10.9926 45.782 10.0965 45.1594 10.0239 45.0805C9.99575 45.05 9.9365 45.0025 9.89213 44.975C8.97075 44.403 6.3 41.789 5.43038 40.6082C5.37238 40.5296 5.13188 40.2086 4.89575 39.8951C2.31687 36.47 0.590125 32.038 0.144625 27.7C0.112125 27.3838 0.0695 27.0125 0.049875 26.875C0.030125 26.7375 0.010875 31.8844 0.007 38.3125ZM49.9076 27.8125C49.8755 28.0394 49.8255 28.405 49.7966 28.625C49.664 29.6325 49.3966 30.8826 49.0906 31.925C48.8999 32.5751 48.5457 33.661 48.5037 33.725C48.4856 33.7525 48.4408 33.865 48.4041 33.975C47.8986 35.4889 46.5599 37.9781 45.3714 39.6141C45.2359 39.8007 45.0783 40.0176 45.0213 40.0961C44.0013 41.4994 42.233 43.3289 40.8 44.4636C40.4287 44.7576 40.0874 45.0306 40.0412 45.0704C39.7549 45.3171 38.7511 45.9934 37.9 46.513C35.7456 47.8283 33.121 48.8973 30.75 49.4251C30.4338 49.4955 30.0962 49.5729 30 49.5971C29.9038 49.6213 29.5325 49.6889 29.175 49.7474C28.8175 49.8059 28.345 49.8841 28.125 49.9214C27.7822 49.9794 29.3197 49.9899 38.8625 49.9945L50 50V38.7C50 32.485 49.9924 27.4 49.983 27.4C49.9738 27.4 49.9397 27.5856 49.9076 27.8125Z" fill="#F5F4F1"/>
<path fill-rule="evenodd" clip-rule="evenodd" d="M21.5 10.5061C19.6664 10.7646 18.435 12.7669 19.0591 14.475C20.1309 17.4082 24.1684 17.1712 24.926 14.1306C25.2566 12.8034 24.4478 11.2736 23.117 10.71C22.7969 10.5744 22.633 10.5402 22 10.4776C21.9038 10.468 21.6788 10.4809 21.5 10.5061ZM24.6094 16.2007C23.046 16.662 22.1346 18.4374 22.6973 19.925C22.7931 20.1784 23.0141 20.5995 23.0799 20.654C23.2829 20.8225 23.8985 19.8677 24.094 19.0814C24.6763 16.7382 28.1734 17.1414 28.16 19.55C28.1508 21.2325 27.1379 23.2041 25.8031 24.1379C25.2336 24.5364 25.2593 24.4942 25.3308 24.9124C25.4789 25.779 25.4613 28.7271 25.3008 29.95C25.2736 30.1562 25.2255 30.5387 25.1938 30.8C25.162 31.0612 25.1184 31.3875 25.097 31.525C25.0755 31.6625 25.0328 31.955 25.002 32.175C24.8556 33.221 24.5294 34.6967 24.1565 36C24.0739 36.2887 23.9465 36.75 23.8735 37.025C23.8004 37.3 23.709 37.6442 23.6703 37.79C23.3745 38.9046 24.2136 39.8704 25.2848 39.648C25.9619 39.5074 26.2296 39.183 26.5003 38.175C26.5889 37.845 26.716 37.3725 26.7828 37.125C26.8495 36.8775 26.9699 36.3712 27.0503 36C27.1305 35.6287 27.255 35.0662 27.3268 34.75C27.3985 34.4337 27.4748 34.085 27.496 33.975C27.754 32.6439 28.0323 31.5156 28.0888 31.572C28.127 31.6102 28.2554 32.3584 28.4283 33.55C28.4703 33.8387 28.538 34.3 28.5791 34.575C28.6201 34.85 28.6835 35.2775 28.72 35.525C29.1901 38.7102 29.2161 38.8364 29.4639 39.1399C30.4076 40.2962 32.2044 39.4511 31.946 37.9725C31.5779 35.8645 31.4176 33.2047 31.461 29.925C31.5024 26.8091 31.4056 24.4112 31.1938 23.3C30.9779 22.1679 30.7498 21.3261 30.5209 20.8175C30.4819 20.7307 30.45 20.648 30.45 20.6336C30.45 20.2829 29.3845 18.6632 28.6659 17.9216C27.1675 16.3752 25.8755 15.8272 24.6094 16.2007ZM25.6941 18.219C25.167 18.4074 24.9199 18.6967 24.7003 19.3821C24.1978 20.9509 23.1344 21.9 21.8795 21.9C21.0336 21.9 20.3959 22.626 20.48 23.4931C20.4978 23.6761 20.4694 23.9855 20.3991 24.375C20.3396 24.705 20.2606 25.1662 20.2236 25.4C20.1868 25.6337 20.1314 25.96 20.1008 26.125C20.0701 26.29 20.014 26.6162 19.9761 26.85C19.9383 27.0837 19.8481 27.6125 19.776 28.025C19.5424 29.3614 19.4459 29.9196 19.4001 30.2C19.3754 30.3512 19.3194 30.6775 19.2758 30.925C19.232 31.1725 19.1745 31.5212 19.148 31.7C19.1215 31.8787 19.0779 32.1262 19.051 32.25C19.0241 32.3737 18.9666 32.7 18.9233 32.975C18.8799 33.25 18.8233 33.5762 18.7974 33.7C18.7714 33.8237 18.693 34.2737 18.623 34.7C18.5531 35.1262 18.4053 36.0037 18.2946 36.65C18.0013 38.3629 18.0775 38.65 18.8256 38.65C19.2954 38.65 19.326 38.5787 19.5994 36.85C19.6233 36.6987 19.7128 36.17 19.798 35.675C20.0956 33.949 20.4065 32.123 20.4493 31.85C20.4729 31.6987 20.5146 31.4625 20.5421 31.325C20.599 31.0397 20.6623 30.681 20.7755 30C20.819 29.7387 20.9334 29.075 21.0296 28.525C21.126 27.975 21.2378 27.3112 21.278 27.05C21.3183 26.7887 21.3618 26.5412 21.3745 26.5C21.3874 26.4587 21.4194 26.2787 21.4458 26.1C21.6536 24.6931 21.6504 24.7 22.0936 24.7C24.6216 24.6999 27.5 21.974 27.5 19.5799C27.5 18.6117 26.5656 17.9076 25.6941 18.219Z" fill="#824507"/>
<path fill-rule="evenodd" clip-rule="evenodd" d="M23.05 0.331499C22.7612 0.367124 22.1987 0.432124 21.8 0.475999C21.0142 0.562249 20.744 0.606874 20.1142 0.753999C19.8884 0.806749 19.6352 0.849999 19.5517 0.849999C19.4684 0.849999 19.4 0.872499 19.4 0.899999C19.4 0.927499 19.3317 0.949999 19.2484 0.949999C19.165 0.949999 19.0244 0.980249 18.9359 1.01712C18.8474 1.05412 18.685 1.101 18.575 1.12137C18.465 1.14162 18.2512 1.19912 18.1 1.24912C17.9487 1.299 17.5887 1.412 17.3 1.50025C16.6524 1.698 16.5001 1.75975 16.5324 1.81187C16.5461 1.83425 16.5389 1.84775 16.5162 1.84187C16.4474 1.82412 16.0284 1.90862 15.975 1.951C15.9475 1.97287 15.7225 2.07425 15.475 2.1765C15.2275 2.27875 14.8536 2.4495 14.6442 2.55612C14.4347 2.66275 14.2475 2.75 14.2281 2.75C14.2087 2.75 14.1591 2.78375 14.1179 2.825C14.0766 2.86625 13.9882 2.9 13.9214 2.9C13.7815 2.9 13.7576 2.98162 13.8875 3.0155C13.9356 3.02812 13.8807 3.041 13.7655 3.04425C13.6502 3.04737 13.542 3.0725 13.525 3.1C13.508 3.1275 13.4504 3.15 13.397 3.15C13.3436 3.15 13.3 3.1715 13.3 3.19762C13.3 3.22387 13.1987 3.29012 13.075 3.34487C12.9512 3.39962 12.85 3.46812 12.85 3.49725C12.85 3.52625 12.8029 3.55 12.7454 3.55C12.6879 3.55 12.5836 3.595 12.5136 3.65C12.4437 3.705 12.35 3.75 12.3054 3.75C12.2607 3.75 12.1535 3.82712 12.067 3.9215C11.9804 4.01575 11.8972 4.0805 11.8821 4.06537C11.867 4.05037 11.7692 4.10362 11.6647 4.18387C11.5604 4.26412 11.4097 4.37375 11.33 4.42737C11.2504 4.48112 11.1364 4.55875 11.0767 4.6C11.0172 4.64125 10.8912 4.72525 10.7967 4.78675C10.7022 4.84825 10.5462 4.9675 10.45 5.05188C10.3537 5.13613 10.1182 5.30838 9.92662 5.43463C9.73499 5.561 9.53637 5.71738 9.48549 5.78213C9.43449 5.847 9.37424 5.9 9.35162 5.9C9.32912 5.9 9.23562 5.97 9.14412 6.0555C9.05262 6.141 8.92712 6.23025 8.86524 6.25375C8.80337 6.27725 8.73899 6.35163 8.72199 6.419C8.70387 6.49163 8.63037 6.56675 8.54174 6.60338C8.45949 6.6375 8.35762 6.71813 8.31537 6.78263C8.27312 6.84725 8.21137 6.9 8.17812 6.9C8.14499 6.9 8.04062 6.99338 7.94637 7.10763C7.85212 7.22188 7.70749 7.37813 7.62499 7.45488C7.47937 7.5905 6.90287 8.16738 6.70024 8.38025C6.64512 8.43813 6.59999 8.522 6.59999 8.5665C6.59999 8.611 6.53287 8.68213 6.45074 8.72463C6.36862 8.76713 6.28774 8.85613 6.27112 8.92263C6.25024 9.00588 6.21662 9.03413 6.16287 9.0135C6.09962 8.98913 6.09149 9.00925 6.11949 9.12075C6.14899 9.23813 6.14074 9.25375 6.06274 9.229C5.99862 9.20875 5.94687 9.241 5.88862 9.3375C5.84299 9.41313 5.74812 9.53588 5.67787 9.61038C5.60749 9.68475 5.54999 9.76413 5.54999 9.78675C5.54999 9.80925 5.50499 9.86625 5.44999 9.91338C5.39499 9.9605 5.34999 10.0311 5.34999 10.0704C5.34999 10.1096 5.33312 10.1491 5.31249 10.1584C5.18937 10.213 4.84774 10.6641 4.87187 10.7401C4.89012 10.7978 4.86212 10.843 4.78812 10.8758C4.72699 10.9029 4.63149 11.0063 4.57599 11.1055C4.47537 11.2855 4.41524 11.3723 4.11849 11.7669C3.95687 11.9819 3.82987 12.192 3.52437 12.75C3.17849 13.3819 3.00862 13.6758 2.95462 13.7354C2.92462 13.7686 2.89999 13.8224 2.89999 13.8549C2.89999 13.9324 2.68587 14.3701 2.63749 14.3916C2.61687 14.4009 2.59987 14.4459 2.59962 14.4916C2.59949 14.5375 2.55462 14.6425 2.49999 14.725C2.44537 14.8075 2.40049 14.9369 2.40037 15.0125C2.40012 15.0881 2.37749 15.15 2.34999 15.15C2.32249 15.15 2.29999 15.228 2.29999 15.3234C2.29999 15.4418 2.28012 15.4893 2.23749 15.4729C2.16749 15.446 2.02599 15.7208 2.07174 15.7948C2.08774 15.8208 2.06762 15.8753 2.02699 15.9159C1.98624 15.9566 1.92087 16.0765 1.88162 16.1824C1.56074 17.0489 1.38649 17.554 1.35224 17.7165C1.33012 17.8219 1.28674 17.9333 1.25599 17.964C1.22524 17.9948 1.19999 18.079 1.19999 18.1513C1.19999 18.2234 1.14637 18.4401 1.08087 18.6328C1.01537 18.8255 0.945242 19.105 0.925117 19.254C0.904992 19.4031 0.868367 19.5631 0.843867 19.6099C0.819367 19.6565 0.777992 19.8253 0.751992 19.9849C0.725992 20.1444 0.668492 20.4438 0.624242 20.65C0.579992 20.8563 0.533742 21.1038 0.521617 21.2C0.509492 21.2963 0.466742 21.6225 0.426617 21.925C0.246742 23.2795 0.168492 26.05 0.309992 26.05C0.356617 26.05 0.356617 26.0634 0.309992 26.11C0.271992 26.148 0.251492 26.3268 0.253992 26.5975C0.256117 26.8326 0.269242 26.9969 0.283117 26.9625C0.346742 26.8049 0.387992 26.9276 0.363242 27.2008C0.348242 27.3661 0.361617 27.698 0.392867 27.9383C0.424242 28.1784 0.462367 28.4988 0.477617 28.65C0.492992 28.8013 0.537992 29.036 0.577742 29.1716C0.617492 29.3073 0.650617 29.5098 0.651492 29.6216C0.652242 29.7335 0.696617 29.9825 0.749992 30.175C0.803367 30.3675 0.847742 30.5855 0.848492 30.6595C0.849367 30.7335 0.872492 30.808 0.899992 30.825C0.927492 30.842 0.949992 30.9428 0.949992 31.0488C0.949992 31.1549 0.971367 31.2491 0.997367 31.2584C1.04124 31.2738 1.22574 31.9655 1.28499 32.3375C1.29924 32.4269 1.32887 32.5 1.35074 32.5C1.37274 32.5 1.37924 32.5435 1.36537 32.5966C1.34512 32.6741 1.36037 32.6879 1.44274 32.6664C1.53587 32.642 1.54262 32.6564 1.51612 32.8198C1.49699 32.9378 1.50649 33 1.54349 33C1.57449 33 1.59999 33.063 1.59999 33.14C1.59999 33.217 1.62812 33.3081 1.66249 33.3425C1.69687 33.3769 1.72674 33.4208 1.72887 33.44C1.75074 33.6376 1.83699 33.9143 1.93287 34.0945C1.99724 34.2158 2.04999 34.3435 2.04999 34.3784C2.04999 34.4134 2.08137 34.5056 2.11974 34.5835C2.38712 35.1264 2.55137 35.4805 2.55074 35.513C2.54849 35.6256 2.77349 36.0008 2.85962 36.028C2.92849 36.0499 2.94387 36.0761 2.90862 36.1114C2.87837 36.1416 2.87449 36.1963 2.89937 36.2439C2.92262 36.2885 2.97874 36.4038 3.02412 36.5C3.06949 36.5963 3.18312 36.7988 3.27674 36.95C3.37024 37.1013 3.46037 37.2588 3.47699 37.3C3.52974 37.4308 3.71137 37.762 3.75112 37.8C3.79962 37.8463 3.97187 38.1233 4.10874 38.375C4.18362 38.5125 4.26762 38.6196 4.29562 38.6131C4.32349 38.6065 4.33562 38.6293 4.32249 38.6635C4.30937 38.6978 4.41087 38.8494 4.54799 39.0004C4.68524 39.1514 4.79874 39.3088 4.80037 39.35C4.80412 39.4493 4.90374 39.5733 5.01249 39.614C5.06249 39.6328 5.09999 39.6984 5.09999 39.7671C5.09999 39.8523 5.14537 39.9095 5.25512 39.9626C5.35249 40.0098 5.38887 40.051 5.35274 40.0734C5.30937 40.1001 5.30949 40.1263 5.35324 40.1789C5.38524 40.2174 5.43474 40.2344 5.46337 40.2168C5.49199 40.199 5.50099 40.208 5.48324 40.2366C5.46562 40.2653 5.48462 40.3165 5.52549 40.3505C5.56649 40.3845 5.59999 40.4416 5.59999 40.4775C5.59999 40.5134 5.65212 40.5838 5.71587 40.6339C5.77949 40.684 5.91062 40.8285 6.00712 40.955C6.10374 41.0815 6.27462 41.284 6.38699 41.405C6.94862 42.0098 7.51424 42.596 7.86924 42.9415C8.08612 43.1524 8.36137 43.4206 8.48087 43.5375C8.60049 43.6544 8.71874 43.75 8.74362 43.75C8.76862 43.75 8.87587 43.8284 8.98199 43.9241C9.08812 44.0199 9.21437 44.1114 9.26249 44.1275C9.34112 44.1538 9.35774 44.1839 9.34649 44.2798C9.34162 44.3218 9.93724 44.75 10.0005 44.75C10.0291 44.75 10.0739 44.8063 10.1 44.875C10.1305 44.9551 10.1864 45 10.2556 45C10.3151 45 10.4615 45.09 10.5807 45.2C10.7001 45.31 10.8307 45.4 10.871 45.4C10.9114 45.4 10.9737 45.4415 11.0096 45.4921C11.0456 45.5428 11.1425 45.6085 11.225 45.6381C11.3075 45.6679 11.3426 45.6939 11.303 45.696C11.1987 45.7018 11.3991 45.8464 11.5141 45.8484C11.563 45.8493 11.6152 45.8818 11.6301 45.9205C11.6451 45.9593 11.7115 46.0046 11.7777 46.0213C11.844 46.0379 11.9717 46.1138 12.0616 46.1899C12.1515 46.266 12.3094 46.372 12.4125 46.4255C12.5156 46.479 12.6 46.5401 12.6 46.5614C12.6 46.5826 12.6352 46.6 12.6784 46.6C12.7214 46.6 12.8304 46.6563 12.9205 46.725C13.0107 46.7938 13.1204 46.85 13.1642 46.85C13.2081 46.85 13.2567 46.8705 13.2724 46.8956C13.2879 46.9208 13.4072 46.9903 13.5377 47.0499C13.6682 47.1096 13.8537 47.2006 13.95 47.252C14.3126 47.4459 15.0297 47.7875 15.15 47.8236C15.2187 47.8444 15.3762 47.9126 15.5 47.9753C15.8611 48.1581 16.0845 48.25 16.1676 48.25C16.2102 48.25 16.4206 48.3263 16.6351 48.4194C16.8495 48.5126 17.1937 48.6386 17.4 48.6996C17.6062 48.7605 17.8312 48.8294 17.9 48.8525C17.9687 48.8756 18.1712 48.933 18.35 48.9801C18.5287 49.0271 18.6975 49.0821 18.725 49.1023C18.7525 49.1224 18.8982 49.1554 19.0487 49.1756C19.1994 49.1959 19.3681 49.2423 19.4237 49.2786C19.4795 49.315 19.7275 49.3594 19.975 49.3773C20.2225 49.3951 20.4887 49.4405 20.5667 49.4783C20.6447 49.5159 20.881 49.5604 21.0917 49.5773C21.3025 49.594 21.5312 49.6269 21.6 49.6503C21.6687 49.6736 21.9755 49.7035 22.2815 49.7166C22.6502 49.7325 22.8865 49.7668 22.9815 49.8183L23.125 49.896L22.975 49.9015C22.8454 49.9063 22.8386 49.9129 22.925 49.95C23.0555 50.0061 26.9945 50.0061 27.125 49.95C27.2074 49.9146 27.1941 49.906 27.05 49.9015L26.875 49.896L27.0024 49.8268C27.0792 49.7849 27.3174 49.7524 27.6024 49.7446C27.8624 49.7376 28.1539 49.7146 28.2501 49.6935C28.3465 49.6724 28.639 49.6295 28.9001 49.5984C29.1614 49.5671 29.482 49.5071 29.6126 49.465C29.7434 49.4229 29.9105 49.3999 29.9841 49.414C30.0577 49.4281 30.1534 49.4221 30.1965 49.4006C30.3551 49.322 30.9861 49.15 31.116 49.15C31.1897 49.15 31.25 49.1275 31.25 49.1C31.25 49.0725 31.3055 49.05 31.3732 49.05C31.4909 49.05 31.8624 48.9446 32.075 48.8509C32.13 48.8266 32.2481 48.794 32.3375 48.7784C32.7324 48.7094 32.8102 48.6821 32.8655 48.5939C32.9 48.5385 32.9812 48.5 33.0636 48.5C33.1404 48.5 33.284 48.4663 33.3827 48.425C33.4814 48.3838 33.6045 48.35 33.6561 48.35C33.7077 48.35 33.75 48.3285 33.75 48.3023C33.75 48.276 33.8344 48.239 33.9375 48.22C34.0406 48.2011 34.1362 48.1708 34.15 48.1528C34.1637 48.1346 34.2849 48.0786 34.4192 48.0283C34.5535 47.9779 34.7065 47.8935 34.7592 47.8408C34.8186 47.7814 34.8912 47.7564 34.9499 47.775C35.0075 47.7933 35.1191 47.7569 35.2347 47.6821C35.3394 47.6145 35.4949 47.5448 35.5804 47.5271C35.6657 47.5096 35.8145 47.4231 35.9109 47.3351C36.0071 47.247 36.1506 47.1671 36.2296 47.1574C36.3087 47.1478 36.4525 47.098 36.5492 47.0469C36.6459 46.9958 36.7954 46.9201 36.8814 46.8789C36.9675 46.8375 37.0504 46.7713 37.0655 46.7316C37.0807 46.6919 37.1679 46.6431 37.2591 46.6233C37.3504 46.6033 37.5219 46.5205 37.6402 46.4393C37.7586 46.3579 37.8877 46.3038 37.9271 46.3189C37.9667 46.3341 37.9935 46.3201 37.9869 46.2875C37.9804 46.2551 38.0255 46.2058 38.0871 46.1776C38.1652 46.1421 38.192 46.0959 38.1751 46.0258C38.1617 45.9704 38.1635 45.952 38.1787 45.985C38.2099 46.0518 38.5457 45.9006 38.6527 45.7718C38.6855 45.7323 38.7414 45.7 38.777 45.7C38.8125 45.7 38.8491 45.6831 38.8584 45.6625C38.8675 45.6419 38.9762 45.57 39.1 45.5028C39.2237 45.4355 39.3925 45.3153 39.475 45.2358C39.5575 45.1561 39.6965 45.0596 39.7839 45.0214C39.8712 44.983 39.9571 44.9064 39.9747 44.8509C39.9924 44.7954 40.0479 44.75 40.098 44.75C40.1817 44.75 40.2764 44.6254 40.2584 44.5389C40.2542 44.519 40.322 44.5169 40.4089 44.5343C40.5421 44.5609 40.5619 44.5529 40.535 44.4829C40.5175 44.4374 40.5192 44.3995 40.5391 44.3988C40.5589 44.3981 40.6982 44.2856 40.8489 44.1488C40.9995 44.012 41.1385 43.9 41.1579 43.9C41.2374 43.9 43.35 41.8304 43.35 41.7525C43.35 41.7339 43.485 41.5903 43.65 41.4331C43.815 41.276 43.95 41.1241 43.95 41.0955C43.95 41.0669 44.0159 40.9881 44.0964 40.9204C44.177 40.8525 44.3464 40.6401 44.4727 40.4481C44.5992 40.2563 44.7471 40.0715 44.8014 40.0376C44.8556 40.0036 44.9 39.9485 44.9 39.9149C44.9 39.8814 45.0012 39.7296 45.125 39.5776C45.2487 39.4258 45.35 39.2825 45.35 39.2594C45.35 39.2364 45.4062 39.1646 45.475 39.1C45.5437 39.0354 45.6 38.9563 45.6 38.924C45.6 38.8919 45.6562 38.8001 45.725 38.7203C45.7936 38.6404 45.8499 38.5368 45.85 38.49C45.85 38.4433 45.8781 38.387 45.9125 38.365C45.9804 38.3216 46.0657 38.1966 46.1619 38C46.1955 37.9313 46.2357 37.8638 46.2514 37.85C46.305 37.8029 46.5246 37.475 46.5194 37.45C46.5139 37.424 46.6046 37.2648 46.7474 37.05C46.7931 36.9813 46.8619 36.8463 46.9002 36.75C46.9387 36.6538 47.0331 36.4671 47.11 36.3353C47.187 36.2035 47.25 36.0769 47.25 36.0539C47.25 36.031 47.2837 35.9843 47.325 35.95C47.3662 35.9158 47.4 35.8494 47.4 35.8024C47.4 35.7554 47.4979 35.5163 47.6174 35.271C47.737 35.0258 47.886 34.69 47.9485 34.525C48.0111 34.36 48.0937 34.1644 48.1322 34.0904C48.2049 33.9508 48.45 33.229 48.45 33.1548C48.45 33.1316 48.4996 33.003 48.5604 32.8689C48.6211 32.7348 48.6717 32.61 48.6729 32.5916C48.674 32.5734 48.6919 32.5415 48.7125 32.5209C48.7331 32.5003 48.75 32.4185 48.75 32.3391C48.75 32.2599 48.7811 32.1343 48.8191 32.06C48.8571 31.9858 48.9049 31.8246 48.9252 31.7019C48.9456 31.5793 48.9794 31.4443 49.0002 31.4019C49.0842 31.2314 49.2506 30.455 49.4187 29.45C49.4302 29.3813 49.4774 29.1675 49.5234 28.975C49.5695 28.7825 49.6164 28.4253 49.6276 28.1813C49.6389 27.9371 49.6707 27.7104 49.6982 27.6771C49.7257 27.644 49.745 27.4949 49.7409 27.3459C49.7309 26.9794 49.8044 26.35 49.8572 26.35C49.8807 26.35 49.9016 26.4119 49.9035 26.4875C49.9066 26.6094 49.9119 26.6136 49.95 26.525C50.0029 26.4019 50.0029 23.8329 49.95 23.625L49.9119 23.475L49.9059 23.6095C49.8971 23.8091 49.8005 23.8366 49.7974 23.6405C49.7852 22.897 49.4244 20.4556 49.2295 19.7996C49.1899 19.6663 49.17 19.5094 49.1852 19.451C49.2005 19.3926 49.1785 19.2729 49.1364 19.185C49.0249 18.9521 48.9 18.4903 48.9 18.311C48.9 18.2258 48.8814 18.1444 48.8585 18.1303C48.8357 18.1163 48.7862 17.9743 48.7485 17.8149C48.7107 17.6554 48.645 17.4953 48.6025 17.4588C48.5599 17.4224 48.5531 17.4069 48.5875 17.4243C48.6242 17.4429 48.65 17.4239 48.65 17.378C48.65 17.3351 48.6292 17.3 48.604 17.3C48.5786 17.3 48.5431 17.2323 48.5249 17.1496C48.5052 17.0603 48.47 17.0126 48.438 17.0324C48.4034 17.0539 48.3941 17.0278 48.4122 16.9588C48.4276 16.8998 48.3975 16.7683 48.3451 16.6654C48.2927 16.5628 48.25 16.4274 48.25 16.3644C48.25 16.3015 48.2265 16.25 48.1977 16.25C48.1691 16.25 48.1506 16.2219 48.1567 16.1875C48.1629 16.1531 48.1054 15.99 48.0287 15.825C47.9522 15.66 47.8725 15.48 47.8515 15.425C47.7607 15.1871 47.7044 15.0561 47.5611 14.75C47.2102 14.0006 47.15 13.8625 47.15 13.8076C47.15 13.776 47.129 13.75 47.1034 13.75C47.0777 13.75 47.0437 13.7091 47.0279 13.6591C47.012 13.6091 46.853 13.3139 46.6745 13.003C46.496 12.6921 46.35 12.428 46.35 12.4161C46.35 12.4043 46.2656 12.2659 46.1625 12.1086C46.0594 11.9513 45.9462 11.7781 45.911 11.7239C45.8759 11.6695 45.8335 11.5844 45.817 11.5346C45.7995 11.4821 45.7569 11.4559 45.7151 11.4719C45.664 11.4915 45.6517 11.4734 45.6722 11.4086C45.6919 11.3469 45.6371 11.2485 45.5016 11.1018C45.392 10.983 45.2881 10.8415 45.271 10.7874C45.2539 10.7334 45.1296 10.5748 44.9949 10.435C44.8602 10.2953 44.75 10.1506 44.75 10.1135C44.75 10.0765 44.66 9.9525 44.55 9.838C44.44 9.7235 44.35 9.61013 44.35 9.58613C44.35 9.562 44.2804 9.47263 44.1951 9.3875C44.11 9.30225 43.9477 9.10713 43.8347 8.95388C43.7216 8.8005 43.5325 8.57688 43.4145 8.45688C43.2965 8.337 43.2 8.21888 43.2 8.19438C43.2 8.17 43.1775 8.15 43.15 8.15C43.1225 8.15 43.1 8.11625 43.1 8.075C43.1 8.03375 43.0806 8 43.057 8C43.0057 8 42.65 7.67113 42.65 7.62388C42.65 7.57213 42.4317 7.4035 42.3625 7.40163C42.3281 7.40075 42.3 7.37063 42.3 7.33463C42.3 7.29875 42.1502 7.13563 41.9671 6.97213C41.784 6.80875 41.5309 6.58 41.4046 6.46388C41.2784 6.34788 41.1596 6.25225 41.1409 6.25138C41.1221 6.25063 40.9136 6.08163 40.6777 5.876C40.4417 5.67025 40.1855 5.46925 40.1082 5.42925C40.031 5.38925 39.9385 5.32138 39.9027 5.27825C39.867 5.23525 39.7819 5.2 39.7135 5.2C39.6236 5.2 39.5972 5.17925 39.6181 5.125C39.6379 5.0735 39.615 5.05 39.5455 5.05C39.4897 5.05 39.4561 5.0305 39.4709 5.00663C39.5021 4.956 39.395 4.86263 39.15 4.727C39.0537 4.67375 38.919 4.57837 38.8505 4.515C38.782 4.45175 38.7065 4.4 38.6827 4.4C38.6589 4.4 38.5574 4.33562 38.4572 4.25687C38.357 4.17825 38.1875 4.08262 38.0805 4.04437C37.9735 4.00625 37.8551 3.92787 37.8174 3.87037C37.7796 3.81287 37.6197 3.7015 37.4619 3.62287C37.3041 3.54437 37.1075 3.43212 37.025 3.37337C36.9425 3.31462 36.74 3.20275 36.575 3.12475C36.41 3.04675 36.2637 2.96712 36.25 2.94775C36.2362 2.92837 36.1462 2.89587 36.05 2.8755C35.9537 2.855 35.835 2.79625 35.7861 2.74475C35.7372 2.69337 35.6371 2.63612 35.5636 2.61762C35.4901 2.59925 35.3085 2.52025 35.1599 2.44212C35.0114 2.36387 34.8527 2.2995 34.8074 2.29887C34.7621 2.29825 34.6687 2.25375 34.6 2.2C34.5312 2.14625 34.4187 2.10175 34.35 2.10112C34.1491 2.09937 33.5755 1.78662 33.6856 1.73887C33.7365 1.71687 33.7024 1.71325 33.6066 1.73037C33.513 1.74712 33.3797 1.73362 33.3066 1.7C33.2342 1.66675 33.1075 1.60887 33.025 1.57137C32.9425 1.534 32.719 1.46825 32.5285 1.42525C32.3379 1.38237 32.1534 1.32362 32.1186 1.29462C32.0837 1.26575 31.8347 1.19787 31.5651 1.14375C31.2955 1.08962 31.03 1.02587 30.975 1.002C30.92 0.978249 30.6725 0.920874 30.425 0.874624C30.1775 0.828249 29.885 0.759124 29.775 0.720874C29.665 0.682749 29.5214 0.651124 29.4557 0.650749C29.3902 0.650374 29.2552 0.628749 29.1557 0.602749C28.8042 0.510999 27.8995 0.392999 27.5559 0.394124C27.3644 0.394749 27.1327 0.371374 27.0414 0.342249C26.7854 0.260624 23.6907 0.252374 23.05 0.331499ZM23.075 9.2475C23.4357 9.358 23.4929 9.37888 23.8142 9.51813C23.9182 9.56313 24.0364 9.6 24.0767 9.6C24.117 9.6 24.15 9.62025 24.15 9.64513C24.15 9.66988 24.2141 9.71263 24.2925 9.73988C24.3709 9.76725 24.4936 9.84813 24.5652 9.91975C24.6369 9.99138 24.7164 10.05 24.7419 10.05C24.7675 10.05 24.7992 10.0916 24.8125 10.1426C24.8259 10.1935 24.9351 10.2895 25.0554 10.3558C25.1755 10.4221 25.2821 10.5191 25.2922 10.5715C25.3022 10.6239 25.3762 10.7361 25.4564 10.8209C25.5366 10.9056 25.6151 11.024 25.6306 11.0839C25.6462 11.1438 25.6896 11.2045 25.7271 11.2189C25.7931 11.2443 25.9175 11.4896 26.0471 11.85C26.0817 11.9463 26.1279 12.07 26.1496 12.125C26.3461 12.6225 26.4306 13.8084 26.3046 14.3C26.189 14.7508 26.1872 14.7365 26.3629 14.7698C26.4521 14.7868 26.5925 14.8363 26.675 14.8798C26.7575 14.9234 26.8632 14.9666 26.9099 14.9761C26.9565 14.9855 27.1362 15.0623 27.3091 15.1466C27.482 15.231 27.6517 15.3 27.6864 15.3C27.7209 15.3 27.8112 15.3641 27.8871 15.4424C27.9629 15.5206 28.1262 15.65 28.25 15.7298C28.3737 15.8095 28.5047 15.903 28.5411 15.9374C28.5774 15.9719 28.6242 16 28.6451 16C28.666 16 28.7132 16.0563 28.75 16.125C28.7867 16.1938 28.8412 16.2504 28.871 16.2508C29.0131 16.2526 30.05 17.2853 30.05 17.4251C30.05 17.4663 30.0894 17.5009 30.1375 17.502C30.2311 17.504 30.55 17.9001 30.55 18.0145C30.55 18.0523 30.6062 18.1133 30.675 18.15C30.7437 18.1868 30.8 18.2438 30.8 18.2768C30.8 18.3096 30.845 18.3938 30.9 18.4636C30.955 18.5336 31 18.6266 31 18.6704C31 18.7141 31.0187 18.75 31.0416 18.75C31.0646 18.75 31.149 18.8794 31.2291 19.0375C31.3094 19.1956 31.3876 19.3363 31.403 19.35C31.474 19.4135 31.6951 19.8643 31.7274 20.0111C31.7471 20.1013 31.8054 20.2534 31.8566 20.3493C31.908 20.4451 31.95 20.5738 31.95 20.6353C31.95 20.6966 31.9954 20.8279 32.051 20.9268C32.1065 21.0256 32.14 21.1259 32.1254 21.1495C32.1107 21.1731 32.1244 21.2561 32.1556 21.3338C32.1869 21.4115 32.2307 21.52 32.253 21.575C32.2754 21.63 32.3187 21.81 32.3495 21.975C32.3801 22.14 32.4254 22.3763 32.45 22.5C32.5706 23.1054 32.5982 23.2966 32.6054 23.5741C32.6096 23.7396 32.633 23.9004 32.6575 23.9314C32.7034 23.9895 32.7287 24.2489 32.7981 25.3703C32.8204 25.7304 32.8385 27.6338 32.8384 29.6C32.8381 32.9715 32.9025 35.3775 32.9995 35.625C33.0211 35.68 33.0645 35.9725 33.0959 36.275C33.1274 36.5775 33.1966 37.0388 33.2499 37.3C33.3031 37.5613 33.3474 37.8594 33.3484 37.9625C33.35 38.155 33.4247 38.2188 33.4655 38.0625C33.4781 38.0144 33.4892 38.0538 33.4902 38.15C33.4912 38.2463 33.4807 38.2969 33.4669 38.2625C33.4077 38.1161 33.35 38.2198 33.35 38.472C33.35 38.6216 33.3305 38.7561 33.3067 38.7709C33.2829 38.7856 33.2749 38.8579 33.289 38.9314C33.336 39.1775 32.8166 40.0856 32.6625 40.027C32.6235 40.0121 32.6 40.0474 32.6 40.1209C32.6 40.1856 32.5664 40.303 32.5252 40.3818C32.4842 40.4605 32.4505 40.4969 32.4502 40.4625C32.4499 40.365 32.3361 40.3888 32.1995 40.5151C32.131 40.5784 32.0412 40.6468 32 40.667C31.7611 40.7845 31.6776 40.8485 31.7625 40.8493C31.8106 40.8496 31.85 40.8704 31.85 40.8953C31.85 40.9201 31.7602 40.9285 31.6505 40.9138C31.5279 40.8973 31.4222 40.9108 31.3764 40.9489C31.2651 41.0411 30.3072 41.0781 30.0145 41.0014C29.605 40.8939 29.4295 40.8316 29.3 40.7475C29.2312 40.7028 29.1334 40.6513 29.0825 40.6328C28.8509 40.549 28.3007 40.0389 28.2989 39.9064C28.2982 39.8616 28.2537 39.7688 28.2 39.7C28.1462 39.6313 28.1017 39.5401 28.1011 39.4975C28.1005 39.4549 28.0794 39.3986 28.0542 39.3725C28.029 39.3464 27.9761 39.2125 27.9365 39.075C27.841 38.7431 27.7984 38.7588 27.65 39.1799C27.5812 39.375 27.4585 39.6338 27.3772 39.7549C27.2926 39.8809 27.2357 40.0255 27.244 40.0931C27.2534 40.169 27.239 40.1991 27.2035 40.1771C27.1731 40.1584 27.1614 40.1221 27.1771 40.0965C27.193 40.071 27.1829 40.05 27.1547 40.05C27.1265 40.05 27.0777 40.0983 27.0461 40.1573C26.9646 40.3096 26.7594 40.4813 26.5125 40.6036C26.3956 40.6615 26.3 40.7294 26.3 40.7545C26.3 40.7795 26.2606 40.8004 26.2125 40.8008C26.1377 40.8014 26.1359 40.8086 26.2 40.85C26.2552 40.8858 26.2216 40.8986 26.0725 40.8993C25.9611 40.8996 25.8419 40.9281 25.8075 40.9625C25.7172 41.0526 24.2072 41.0426 24.1509 40.9515C24.1234 40.9069 24.055 40.8973 23.9305 40.9206C23.7487 40.9548 23.6671 40.879 23.8375 40.8345C23.9115 40.8151 23.9095 40.8106 23.825 40.8049C23.77 40.8013 23.672 40.7424 23.6072 40.6741C23.5425 40.6059 23.46 40.55 23.4239 40.55C23.3879 40.55 23.3509 40.5331 23.3416 40.5125C23.3325 40.4919 23.2294 40.4101 23.1125 40.3308C22.9956 40.2514 22.9 40.1628 22.9 40.1339C22.9 40.105 22.8572 40.035 22.805 39.9783C22.6865 39.8495 22.3276 39.1648 22.2765 38.9699C22.242 38.8383 22.2349 38.8341 22.1977 38.925C22.1591 39.02 22.1569 39.0194 22.1535 38.9125C22.1516 38.8506 22.1755 38.8 22.2065 38.8C22.2444 38.8 22.2521 38.7381 22.23 38.6125C22.1711 38.2785 22.1637 37.9273 22.2135 37.8294C22.2402 37.7769 22.2926 37.5969 22.3299 37.4294C22.3671 37.262 22.445 36.9675 22.503 36.775C22.7594 35.9228 22.811 35.6171 22.7291 35.4375C22.7042 35.3829 22.7101 35.35 22.7446 35.35C22.7751 35.35 22.8 35.3838 22.8 35.425C22.8 35.4663 22.8225 35.5 22.85 35.5C22.8775 35.5 22.9 35.4213 22.9 35.325C22.9 35.2288 22.9201 35.15 22.9447 35.15C22.9692 35.15 22.9885 35.0994 22.9872 35.0375C22.9861 34.9756 23.054 34.6665 23.1381 34.3506C23.2224 34.0348 23.2785 33.7556 23.2629 33.7304C23.2472 33.7051 23.2605 33.7006 23.2922 33.7203C23.3319 33.7448 23.35 33.6985 23.35 33.5731C23.35 33.4726 23.3826 33.2744 23.4224 33.1328C23.4622 32.991 23.5049 32.736 23.5172 32.566C23.5296 32.3961 23.5567 32.2295 23.5776 32.1959C23.5984 32.1621 23.6224 32.0874 23.6307 32.0298C23.9015 30.179 23.9656 29.5421 23.8867 29.4863C23.8379 29.4515 23.838 29.4371 23.8875 29.417C23.924 29.4023 23.95 29.3013 23.95 29.1738C23.95 29.054 23.9704 28.9434 23.9951 28.928C24.02 28.9126 24.0429 28.6133 24.0461 28.2625C24.0492 27.9119 24.0655 27.5501 24.0822 27.4585C24.1 27.361 24.0862 27.2428 24.049 27.1731C24.0017 27.0849 23.9976 26.9859 24.033 26.7896C24.0592 26.6441 24.072 26.3619 24.0612 26.1625L24.0417 25.8H23.843C23.7336 25.8 23.6562 25.8196 23.6711 25.8438C23.686 25.8678 23.5805 25.9023 23.4366 25.9203C23.2927 25.9384 23.1316 25.9599 23.0786 25.968C23.0257 25.9761 22.9654 26.026 22.9447 26.0789C22.924 26.1318 22.9055 26.1455 22.9035 26.1095C22.8966 25.9811 22.8044 26.1059 22.8076 26.2391C22.8121 26.4261 22.6714 27.2969 22.6117 27.45C22.585 27.5188 22.5466 27.755 22.5264 27.975C22.5062 28.195 22.4564 28.4735 22.4157 28.5939C22.375 28.7143 22.3527 28.855 22.3662 28.9068C22.3797 28.9584 22.3581 29.1186 22.3182 29.2628C22.2784 29.407 22.2256 29.6825 22.2009 29.875C22.1761 30.0675 22.132 30.3488 22.1029 30.5C22.0736 30.6513 22.0396 30.8538 22.0275 30.95C22.0152 31.0463 21.9575 31.3725 21.8992 31.675C21.7687 32.3519 21.6926 32.7929 21.4244 34.425C21.3791 34.7 21.3304 34.9588 21.316 35C21.29 35.0744 21.2634 35.2901 21.2322 35.6758C21.2234 35.7863 21.19 35.9254 21.158 35.985C21.1261 36.0446 21.1 36.1666 21.1 36.256C21.1 36.3455 21.0684 36.555 21.0297 36.7218C20.9911 36.8885 20.9342 37.1938 20.9035 37.4C20.7001 38.7618 20.5525 39.2571 20.2949 39.4436C20.2426 39.4814 20.2 39.5394 20.2 39.5726C20.2 39.6558 19.5667 39.9671 19.4717 39.9306C19.4246 39.9126 19.4076 39.9219 19.4279 39.9546C19.4625 40.0108 18.2822 39.9953 18.0674 39.9369C17.8919 39.8891 17.65 39.7511 17.65 39.6988C17.65 39.6719 17.6206 39.65 17.5847 39.65C17.4495 39.65 17.0129 39.1649 16.8801 38.8671C16.8331 38.7615 16.7669 38.6188 16.733 38.55C16.6515 38.3843 16.666 37.9329 16.7719 37.35C16.9119 36.5784 16.9632 36.146 16.9572 35.7875C16.9521 35.483 17.0401 35.2839 17.0566 35.5625C17.0637 35.6823 17.1141 35.4386 17.196 34.8876C17.2235 34.7021 17.2837 34.3646 17.3296 34.1376C17.3756 33.9106 17.4299 33.5788 17.4502 33.4C17.4707 33.2213 17.524 32.9218 17.5687 32.7344C17.6134 32.5471 17.65 32.284 17.65 32.1499C17.65 32.0156 17.6721 31.8923 17.6992 31.8755C17.7264 31.8588 17.7459 31.7955 17.7427 31.735C17.7395 31.6745 17.7606 31.5266 17.7895 31.4064C17.8185 31.2861 17.8309 31.1585 17.8172 31.1228C17.8035 31.087 17.8152 31.015 17.8432 30.9626C17.8712 30.9103 17.9075 30.7253 17.9237 30.5514C17.94 30.3775 17.9624 30.2205 17.9734 30.2025C18.0064 30.1491 18.2119 28.9459 18.2342 28.675C18.2455 28.5375 18.2746 28.38 18.2987 28.325C18.3399 28.2314 18.4295 27.7641 18.4712 27.425C18.5176 27.049 18.6584 26.3154 18.7015 26.225C18.7276 26.17 18.749 26.08 18.7489 26.025C18.7484 25.7748 18.8162 25.2695 18.8571 25.2184C18.8821 25.1873 18.9005 25.0973 18.898 25.0184C18.8956 24.9395 18.9269 24.7288 18.9675 24.55C19.0854 24.0316 19.1094 23.6998 19.0555 23.3296C19.0147 23.0488 19.0189 22.965 19.0776 22.881C19.1175 22.8243 19.15 22.7166 19.15 22.6419C19.15 22.5671 19.1725 22.492 19.2 22.475C19.2275 22.458 19.25 22.4131 19.25 22.3753C19.25 22.2856 19.327 22.1123 19.45 21.925C19.5041 21.8425 19.5695 21.73 19.5951 21.675C19.6207 21.62 19.7817 21.4513 19.953 21.3C20.1241 21.1488 20.3285 20.9608 20.4071 20.8823C20.4857 20.8036 20.55 20.7646 20.55 20.7954C20.55 20.833 20.6092 20.8266 20.7311 20.7756C20.8307 20.734 20.951 20.7 20.9984 20.7C21.2826 20.7 21.4762 20.4681 21.3294 20.3039C21.23 20.1928 21.1282 19.1253 21.1721 18.654C21.1916 18.4455 21.2114 18.2263 21.2162 18.1666C21.221 18.107 21.2419 18.0414 21.2625 18.0209C21.3267 17.9566 21.3036 17.9018 21.225 17.9319C21.1837 17.9478 21.15 17.9413 21.15 17.9175C21.15 17.8578 20.7869 17.75 20.5857 17.75C20.4946 17.75 20.3986 17.7288 20.3725 17.7029C20.3464 17.677 20.1454 17.5618 19.9257 17.447C19.5401 17.2453 18.9672 16.841 18.885 16.7125C18.863 16.6781 18.8147 16.65 18.7777 16.65C18.6645 16.65 18.3965 16.3673 18.4291 16.2823C18.4465 16.237 18.405 16.1473 18.3289 16.065C18.2574 15.988 18.185 15.88 18.1679 15.825C18.1509 15.77 18.0954 15.6661 18.0447 15.5941C17.9081 15.4 17.65 14.7001 17.65 14.5236C17.65 14.4391 17.6219 14.3419 17.5875 14.3075C17.5105 14.2305 17.4872 13.3931 17.5512 13C17.6375 12.4703 17.682 12.2741 17.7407 12.1658C17.7734 12.1058 17.8002 12.0045 17.8005 11.9408C17.8007 11.8771 17.8854 11.69 17.9885 11.525C18.0916 11.36 18.2207 11.1395 18.2755 11.0349C18.3302 10.9304 18.4481 10.7671 18.5375 10.6723C18.6269 10.5774 18.7 10.4774 18.7 10.4499C18.7 10.4225 18.7199 10.4 18.7441 10.4C18.7684 10.4 18.883 10.3121 18.9989 10.2048C19.2832 9.94125 19.3942 9.85 19.4302 9.85C19.4469 9.85 19.5274 9.79375 19.6091 9.725C19.6909 9.65625 19.7976 9.6 19.8464 9.6C19.8951 9.6 20.0341 9.54863 20.155 9.48575C20.8889 9.10463 22.2464 8.99388 23.075 9.2475ZM4.14999 12.0189C4.14999 12.0568 4.11624 12.1158 4.07499 12.15C3.99549 12.216 3.97737 12.167 4.03037 12.0291C4.06762 11.9318 4.14999 11.9248 4.14999 12.0189ZM18.5057 16.2954C18.4501 16.3306 18.4565 16.3499 18.5382 16.3938C18.6167 16.4358 18.6461 16.4324 18.6665 16.379C18.7117 16.2611 18.6284 16.2178 18.5057 16.2954ZM48.26 16.91C48.2134 16.9566 48.2 16.9434 48.2 16.85C48.2 16.7566 48.2134 16.7434 48.26 16.79C48.3066 16.8366 48.3066 16.8634 48.26 16.91ZM21.8 33.05C21.8 33.105 21.7775 33.15 21.75 33.15C21.7225 33.15 21.7 33.105 21.7 33.05C21.7 32.995 21.7225 32.95 21.75 32.95C21.7775 32.95 21.8 32.995 21.8 33.05ZM21.7845 34.2375C21.7719 34.2856 21.7616 34.2463 21.7616 34.15C21.7616 34.0538 21.7719 34.0144 21.7845 34.0625C21.797 34.1106 21.797 34.1894 21.7845 34.2375Z" fill="#F37C04"/>
<path fill-rule="evenodd" clip-rule="evenodd" d="M23.849 0.0670035C23.8346 0.0817535 23.4672 0.117379 23.0325 0.146379C22.5977 0.175254 22.1032 0.220879 21.9335 0.247754C21.7639 0.274504 21.3887 0.332629 21.1 0.376754C20.5164 0.466004 19.6556 0.630379 19.425 0.696629C19.3425 0.720379 19.1062 0.777504 18.9 0.823629C18.322 0.953004 16.7504 1.44138 16.325 1.62388C16.2425 1.65938 16.0962 1.717 16 1.752C15.9037 1.78713 15.735 1.85513 15.625 1.90325C15.515 1.95125 15.2265 2.07263 14.984 2.173C14.4159 2.40775 13.3255 2.95788 12.625 3.36288C11.7374 3.87613 10.2 4.88676 10.2 4.95688C10.2 4.98063 10.1764 5.00001 10.1475 5.00001C10.0942 5.00001 8.91274 5.93551 8.72937 6.12276C8.67437 6.17901 8.56099 6.27651 8.47737 6.33938C8.19524 6.55188 6.78637 7.96676 6.19937 8.62738C4.14062 10.944 2.29087 14.1341 1.37349 16.95C1.29724 17.1838 1.21699 17.42 1.19499 17.475C1.11487 17.6753 0.903868 18.3953 0.805243 18.805C0.474243 20.1799 0.368368 20.7418 0.227243 21.875C0.182743 22.2325 0.113118 22.7725 0.0726184 23.075C-0.0126316 23.7106 -0.0272566 26.3025 0.0512434 26.875C0.0776184 27.0675 0.122743 27.4613 0.151493 27.75C0.574118 31.9924 2.33012 36.4878 4.89574 39.8951C5.13187 40.2086 5.37237 40.5296 5.43037 40.6083C6.29999 41.789 8.97074 44.403 9.89212 44.975C9.93649 45.0025 9.99574 45.05 10.0239 45.0805C10.0965 45.1594 10.9926 45.782 11.525 46.1237C12.1774 46.5423 12.2094 46.5614 12.75 46.8603C12.8462 46.9135 13.0262 47.014 13.15 47.0838C13.4504 47.253 14.6345 47.85 14.6696 47.85C14.685 47.85 14.8386 47.9147 15.0112 47.9935C16.0491 48.4683 17.6252 49.0107 18.825 49.3062C19.9776 49.5899 20.3801 49.6757 21 49.7695C21.2887 49.8132 21.7415 49.8829 22.0062 49.9245C22.4682 49.997 23.0434 50.0268 22.992 49.9754C22.9582 49.9417 22.197 49.8152 21.8 49.7774C19.9886 49.605 16.9747 48.7722 15.1624 47.943C14.9904 47.8644 14.8372 47.8 14.822 47.8C14.7732 47.8 13.1855 46.9954 12.8875 46.8195C12.7294 46.7263 12.4594 46.5678 12.2875 46.4673C12.1156 46.3668 11.7192 46.1137 11.4066 45.9048C11.094 45.6959 10.8025 45.5025 10.7586 45.475C10.5894 45.3688 9.22099 44.3247 9.14999 44.2475C9.10874 44.2027 8.95462 44.0685 8.80762 43.9493C7.88362 43.2003 6.50874 41.776 5.61674 40.6439C5.37374 40.3355 5.13562 40.0483 5.08749 40.0055C5.03937 39.9628 4.99999 39.9041 4.99999 39.8753C4.99999 39.8464 4.93649 39.7445 4.85899 39.6489C4.59824 39.3274 4.00674 38.4303 3.59062 37.725C3.44449 37.4775 3.29824 37.23 3.26549 37.175C3.09662 36.8913 2.18812 35.0214 2.05087 34.675C1.96362 34.455 1.85087 34.185 1.80024 34.075C1.74962 33.965 1.68162 33.7738 1.64924 33.65C1.61674 33.5263 1.57324 33.4025 1.55237 33.375C1.50124 33.3073 1.16849 32.2795 1.07162 31.8895C1.02862 31.7165 0.973743 31.5075 0.949743 31.425C-0.179256 27.549 -0.145382 22.4594 1.03612 18.4C1.10424 18.1663 1.18874 17.8738 1.22412 17.75C1.31887 17.4181 1.66199 16.4403 1.86449 15.925C2.26999 14.8931 3.16212 13.0916 3.65087 12.3178C3.76037 12.1444 3.84999 11.9813 3.84999 11.9554C3.84999 11.9295 3.86724 11.9009 3.88837 11.8916C3.90949 11.8825 4.00474 11.7513 4.10012 11.6C5.35249 9.61301 7.20337 7.54663 9.34999 5.73901C9.41874 5.68101 9.77874 5.40626 10.15 5.12813C11.9349 3.79151 13.4955 2.91138 15.825 1.928C16.6477 1.58063 18.0601 1.12813 19.025 0.902754C19.2725 0.844879 19.5987 0.764629 19.75 0.724379C20.285 0.582004 21.6645 0.372254 22.875 0.249254C23.5197 0.183754 26.4679 0.183629 27.15 0.249004C28.3 0.359379 29.7464 0.577504 30.3 0.724004C30.4512 0.764129 30.7775 0.843129 31.025 0.899754C31.7362 1.06238 32.26 1.21638 33.125 1.51725C34.6377 2.04338 36.8465 3.08151 37.925 3.77326C38.0625 3.86138 38.2875 4.00413 38.425 4.09038C38.9814 4.43938 40.3376 5.42638 40.7502 5.78263C40.8189 5.84188 41.115 6.09413 41.4084 6.34338C42.4224 7.20463 44.0362 8.90838 44.6471 9.76251C44.7405 9.89313 44.832 10 44.8505 10C44.8689 10 44.9075 10.0516 44.9362 10.1148C44.965 10.1779 45.1071 10.386 45.2521 10.5773C45.5005 10.9049 46.2 11.936 46.2 11.9744C46.2 11.9841 46.3125 12.1735 46.45 12.3951C46.5875 12.6169 46.7 12.8138 46.7 12.8326C46.7 12.8516 46.7315 12.9026 46.7701 12.9461C46.8086 12.9895 47.0007 13.3513 47.1971 13.75C47.3934 14.1488 47.5765 14.5156 47.6041 14.5653C47.7622 14.8499 48.55 16.8066 48.55 16.915C48.55 16.9525 48.5654 16.9988 48.5842 17.0176C48.625 17.0583 48.733 17.3549 48.7964 17.6C48.8212 17.6963 48.9304 18.09 49.039 18.475C49.4185 19.821 49.6529 21.1003 49.8497 22.9C49.8814 23.1888 49.9257 23.5038 49.9485 23.6C50.0236 23.9186 50.0061 22.9633 49.9282 22.5C49.889 22.2663 49.8422 21.9288 49.8242 21.75C49.564 19.1563 48.308 15.3873 46.8749 12.9C46.7719 12.7213 46.6312 12.4738 46.5621 12.35C46.1949 11.6915 44.8976 9.83038 44.5301 9.43488C44.4586 9.35788 44.4 9.28251 44.4 9.26751C44.4 9.07738 41.92 6.58176 40.975 5.82088C40.81 5.68801 40.6637 5.56601 40.65 5.54976C40.5554 5.43788 39.0102 4.32688 38.525 4.02176C35.4679 2.09988 32.3352 0.902879 29 0.382379C28.0286 0.230754 27.7574 0.196004 27.1485 0.144754C26.4496 0.0860035 23.8894 0.0256285 23.849 0.0670035ZM21.1 9.27751C20.0659 9.54413 19.4546 9.88313 18.8066 10.5491C17.4176 11.9765 17.2504 14.2969 18.414 15.9965C18.6126 16.2866 19.205 16.8991 19.2875 16.8996C19.3219 16.8999 19.35 16.9199 19.35 16.9443C19.35 16.9961 19.9572 17.3691 20.1742 17.4505C20.2564 17.4813 20.3914 17.5369 20.4742 17.5739C20.5571 17.611 20.802 17.6791 21.0182 17.7254L21.4115 17.8094L21.3779 17.9923C21.209 18.9078 21.2634 19.8251 21.5271 20.5125C21.5565 20.5891 21.3677 20.686 20.9067 20.8309C19.8641 21.1588 19.2775 22.0419 19.2005 23.4C19.1779 23.7988 19.122 24.305 19.0764 24.525C19.0307 24.745 18.9627 25.1388 18.9251 25.4C18.8875 25.6613 18.7979 26.19 18.7261 26.575C18.6542 26.96 18.5645 27.4663 18.5266 27.7C18.3932 28.5238 18.3064 29.0339 18.152 29.9C18.0662 30.3813 17.9654 30.9663 17.9277 31.2C17.7982 32.0065 17.6464 32.9258 17.6014 33.175C17.5766 33.3125 17.5311 33.5713 17.5004 33.75C17.4696 33.9288 17.3882 34.39 17.3196 34.775C17.2509 35.16 17.1611 35.6775 17.1202 35.925C17.0792 36.1725 17.0264 36.4875 17.0027 36.625C16.6695 38.5599 16.8686 39.2653 17.8797 39.7325C19.2071 40.3459 20.4386 39.7083 20.646 38.3C20.6724 38.1213 20.7495 37.66 20.8174 37.275C21.0151 36.1541 21.4011 33.9125 21.476 33.45C21.5427 33.0378 21.5776 32.8348 21.7965 31.5825C21.8534 31.2566 21.9 30.9324 21.9 30.8619C21.9 30.7915 21.9326 30.6193 21.9725 30.4794C22.0506 30.2053 22.1487 29.6436 22.4496 27.75C22.4737 27.5988 22.5302 27.2725 22.5752 27.025C22.6202 26.7775 22.6777 26.4513 22.7029 26.3C22.7565 25.9778 22.8004 25.9373 23.1856 25.8548C23.3447 25.8206 23.5677 25.7586 23.681 25.717C24.1664 25.5388 24.1882 25.5889 24.195 26.8911C24.2085 29.5004 23.7491 32.6168 22.8744 35.85C22.7066 36.4701 22.5169 37.1831 22.3965 37.6455C22.0357 39.031 22.9357 40.5131 24.3532 40.8679C25.8299 41.2375 27.2035 40.3863 27.6501 38.8248C27.7791 38.3736 27.8571 38.3278 27.9251 38.6631C28.3431 40.7264 30.5651 41.6356 32.1929 40.4095C33.0964 39.7289 33.4149 38.733 33.1474 37.425C33.0911 37.15 33.0252 36.7504 33.0009 36.5369C32.9765 36.3234 32.9335 35.9859 32.9051 35.7869C32.7711 34.8448 32.7352 33.5599 32.7281 29.45C32.7226 26.2743 32.704 25.0465 32.6559 24.675C32.6201 24.4 32.5495 23.86 32.4987 23.475C32.0672 20.2005 30.8575 17.9264 28.5849 16.1175C27.7789 15.476 27.1526 15.131 26.5142 14.9771C26.1014 14.8775 26.0604 14.8214 26.1584 14.49C26.2601 14.1455 26.2439 12.8519 26.1324 12.425C25.6331 10.5134 23.8925 9.19063 21.8929 9.20326C21.608 9.20513 21.2512 9.23851 21.1 9.27751ZM22.7 9.37213C23.2427 9.46376 23.6382 9.61826 24.2605 9.98138C25.5751 10.7488 26.44 12.8176 26.076 14.325C25.9635 14.791 25.975 14.9429 26.125 14.974C26.1937 14.9884 26.3115 15.013 26.3867 15.0289C27.5726 15.2795 29.519 16.8289 30.5494 18.3425C30.8116 18.7276 31.25 19.4526 31.25 19.501C31.25 19.5204 31.3369 19.7249 31.4431 19.9556C31.8641 20.8696 32.2189 22.1458 32.4022 23.4061C32.5884 24.6854 32.6127 25.3541 32.6495 30.2C32.6894 35.4304 32.712 35.8748 33.0091 37.225C33.4735 39.3365 32.3109 40.958 30.418 40.8388C29.1095 40.7563 28.3191 39.9578 27.967 38.3625C27.8415 37.7941 27.7991 37.8249 27.5987 38.629C27.3911 39.4619 26.9259 40.1709 26.4071 40.4448C26.3345 40.4831 26.2637 40.5295 26.25 40.5479C26.2362 40.5663 26.0401 40.6418 25.8142 40.7156C24.2576 41.2248 22.6746 40.2218 22.453 38.586C22.391 38.1276 22.4467 37.8075 22.834 36.4C23.2045 35.0536 23.4755 33.9808 23.5727 33.475C23.891 31.8211 23.9502 31.4354 24.1256 29.875C24.2734 28.56 24.3267 26.1315 24.2195 25.6071C24.1996 25.5099 24.1719 25.4938 24.0602 25.5146C23.7276 25.577 22.7696 25.8644 22.7192 25.9169C22.6522 25.9868 22.5311 26.6264 22.1264 29.05C22.0551 29.4763 21.9647 30.005 21.9254 30.225C21.886 30.445 21.818 30.8275 21.7742 31.075C21.7305 31.3225 21.6735 31.6375 21.6477 31.775C21.6219 31.9125 21.5791 32.1713 21.5527 32.35C21.5054 32.6703 21.4009 33.2859 21.0011 35.6C20.8895 36.2463 20.7302 37.1688 20.6472 37.65C20.4625 38.7209 20.426 38.8608 20.2655 39.1151C19.5001 40.3275 17.4231 39.9648 16.9987 38.5446C16.868 38.1073 16.8709 38.0465 17.0794 36.825C17.178 36.2475 17.2899 35.5838 17.328 35.35C17.3961 34.9319 17.4982 34.3411 17.5957 33.8C17.623 33.6488 17.7695 32.7938 17.9214 31.9C18.0734 31.0063 18.2447 30.005 18.3024 29.675C18.36 29.345 18.427 28.9513 18.4514 28.8C18.5077 28.45 18.7889 26.8123 18.8549 26.45C18.8824 26.2988 18.926 26.04 18.9519 25.875C18.9776 25.71 19.0449 25.3163 19.1014 25C19.1577 24.6838 19.2255 24.3013 19.2517 24.15C19.278 23.9988 19.3004 23.6838 19.3015 23.45C19.3079 22.1206 19.9201 21.2665 21.1625 20.8538C21.7189 20.6689 21.7164 20.6734 21.5552 20.1708C21.3386 19.4953 21.3056 18.979 21.4334 18.2638C21.5319 17.7124 21.5579 17.7481 20.95 17.6003C17.6585 16.8 16.6312 12.6173 19.1722 10.3619C20.166 9.47988 21.3577 9.14551 22.7 9.37213ZM21.425 10.4473C19.5706 10.7536 18.4005 12.7308 19.0169 14.5164C19.8752 17.0035 23.2736 17.3541 24.6141 15.0939C24.8164 14.7529 25.021 14.1629 24.9885 14.0149C24.9776 13.9655 24.9419 14.0449 24.909 14.1915C24.2444 17.1604 20.1135 17.3606 19.0591 14.475C18.429 12.7506 19.6741 10.7515 21.5306 10.507C23.1787 10.2899 24.4776 11.2413 24.9684 13.025C24.9835 13.08 24.9844 13.0194 24.9702 12.8903C24.8064 11.3868 23.0526 10.1784 21.425 10.4473ZM25.0142 13.525C25.0146 13.6625 25.0244 13.7129 25.0359 13.6369C25.0474 13.5608 25.0471 13.4483 25.0352 13.3869C25.0234 13.3254 25.0139 13.3875 25.0142 13.525ZM25.025 16.0515C24.0191 16.1783 23.0037 16.9636 22.6999 17.85C22.6574 17.9738 22.6056 18.1023 22.5846 18.1355C22.5637 18.1688 22.5362 18.3488 22.5236 18.5355L22.5006 18.875L22.5706 18.525C23.0121 16.3199 25.2911 15.398 27.1726 16.6634C28.2399 17.3813 29.2157 18.3998 29.8666 19.475C30.0805 19.8284 30.45 20.5621 30.45 20.6336C30.45 20.648 30.4819 20.7308 30.5209 20.8175C30.7064 21.2296 30.9299 21.9929 31.0721 22.7C31.1964 23.318 31.2546 23.4935 31.2214 23.15C31.2067 22.9988 31.175 22.7963 31.1509 22.7C31.1266 22.6038 31.0575 22.3225 30.9971 22.075C30.2361 18.954 27.3035 15.7838 25.3839 16.0069C25.3515 16.0106 25.19 16.0308 25.025 16.0515ZM25.6141 17.5485C24.914 17.7149 24.2729 18.3614 24.094 19.0814C23.9512 19.6556 23.4984 20.4833 23.2377 20.646C23.1126 20.7243 23.052 20.6713 22.8857 20.3386C22.6912 19.9493 22.6464 19.8139 22.575 19.4C22.5161 19.059 22.5097 19.046 22.5051 19.2555C22.4954 19.6925 22.9009 20.682 23.1247 20.768C23.3301 20.8468 23.871 19.996 24.1461 19.1611C24.6005 17.7823 25.7892 17.1881 26.95 17.7596C28.0214 18.287 28.325 19.2065 27.9296 20.725C27.5381 22.2283 26.8627 23.2706 25.7519 24.0859C25.163 24.518 25.1871 24.4925 25.2264 24.6433C25.2454 24.7158 25.2892 25.0563 25.324 25.4C25.3829 25.9833 25.3875 26 25.3916 25.65C25.394 25.4438 25.3674 25.1119 25.3324 24.9124C25.259 24.4941 25.2331 24.5368 25.8031 24.1379C27.1379 23.2041 28.1507 21.2325 28.16 19.55C28.1674 18.2178 26.921 17.2379 25.6141 17.5485ZM25.625 18.1614C25.1735 18.3224 24.8125 18.7339 24.6701 19.25C24.2352 20.8271 23.2762 21.7126 21.8606 21.8441C20.8832 21.9349 20.4365 22.4344 20.4245 23.45C20.421 23.7388 20.3902 24.1213 20.3561 24.3C20.3219 24.4788 20.2612 24.8163 20.2212 25.05C20.1814 25.2838 20.1277 25.5875 20.1022 25.725C20.0325 26.1 19.985 26.5285 20.0165 26.4988C20.0446 26.4721 20.1019 26.1685 20.2236 25.4C20.2606 25.1663 20.3396 24.705 20.3991 24.375C20.4694 23.9855 20.4977 23.6761 20.48 23.4931C20.3959 22.626 21.0336 21.9 21.8795 21.9C23.1366 21.9 24.1976 20.9511 24.7022 19.376C25.2669 17.6131 27.4847 17.799 27.5045 19.6109C27.5085 19.9761 27.515 20.0044 27.5596 19.85C27.8479 18.8524 26.6412 17.7991 25.625 18.1614ZM27.354 20.4706C26.7666 22.6943 24.2737 24.6999 22.0975 24.7C21.751 24.7 21.6479 24.7516 21.6531 24.9225C21.6561 25.0193 21.6589 25.0186 21.7015 24.9125C21.7365 24.8255 21.787 24.8 21.9239 24.8C24.3135 24.8 27.0957 22.5251 27.4734 20.2625C27.5307 19.9184 27.4735 20.0181 27.354 20.4706ZM31.25 23.6391C31.25 23.6973 31.2841 24.0055 31.3259 24.324C31.4301 25.1185 31.492 27.6554 31.4609 29.85C31.4356 31.6348 31.5145 34.5663 31.6036 35.15C31.6326 35.3404 31.6379 35.225 31.6205 34.775C31.5276 32.3723 31.508 31.2048 31.5329 29.575C31.5635 27.5666 31.4929 25.138 31.376 24.1809C31.3095 23.6356 31.25 23.3801 31.25 23.6391ZM21.5819 25.275C21.5411 25.5469 21.4989 25.7896 21.3484 26.615C21.2569 27.1171 21.2237 27.445 21.2694 27.3959C21.3074 27.3549 21.6559 25.1924 21.6377 25.1095C21.6276 25.063 21.6025 25.1375 21.5819 25.275ZM25.4209 27.175C25.4209 27.6975 25.4282 27.9045 25.4372 27.6349C25.4464 27.3654 25.4462 26.9379 25.4372 26.6849C25.4281 26.432 25.4207 26.6525 25.4209 27.175ZM49.938 26.6C49.8947 26.8041 49.8199 27.4154 49.7725 27.95C49.7541 28.1563 49.6955 28.5838 49.642 28.9C49.5885 29.2163 49.5246 29.5988 49.5001 29.75C49.3766 30.5126 48.7955 32.6949 48.6014 33.125C48.5765 33.18 48.4994 33.3938 48.4299 33.6C48.1286 34.4941 47.221 36.4708 46.8175 37.1115C46.7529 37.2141 46.7 37.3129 46.7 37.3311C46.7 37.3493 46.61 37.5068 46.5 37.6809C46.39 37.855 46.3 38.0079 46.3 38.0206C46.3 38.0771 45.1311 39.7706 44.7614 40.25C44.6446 40.4013 44.5319 40.5475 44.5106 40.575C43.7152 41.6064 42.1792 43.1829 41.1 44.0758C40.9762 44.1781 40.8637 44.2788 40.85 44.2995C40.8011 44.3729 39.1687 45.5848 38.8 45.8213C38.5937 45.9537 38.3462 46.1134 38.25 46.1764C37.914 46.3962 37.398 46.7 37.3607 46.7C37.3401 46.7 37.2394 46.7569 37.137 46.8265C36.9635 46.9445 35.0852 47.9 35.027 47.9C35.0125 47.9 34.6799 48.0324 34.2877 48.194C33.8957 48.3558 33.35 48.5618 33.075 48.6518C32.8 48.7418 32.53 48.8313 32.475 48.8508C31.5307 49.1839 29.3432 49.6682 28.3 49.775C27.8441 49.8217 27.0911 49.9423 27.0596 49.9738C27.0056 50.0278 27.6294 49.9974 28.0937 49.9233C29.0746 49.767 29.7812 49.6459 30 49.5967C33.5429 48.7993 35.9734 47.7927 38.7831 45.9588C39.173 45.7043 39.9074 45.1858 40.0412 45.0704C40.0874 45.0306 40.4287 44.7577 40.8 44.4637C42.233 43.3289 44.0012 41.4994 45.0212 40.0961C45.0782 40.0176 45.2359 39.8008 45.3714 39.6141C45.8875 38.9038 46.278 38.2939 46.8371 37.325C47.3381 36.457 48.1674 34.6841 48.4041 33.975C48.4407 33.865 48.4856 33.7525 48.5037 33.725C48.584 33.6029 49.1625 31.7338 49.3162 31.1C49.5546 30.1166 49.7575 29.0461 49.8232 28.425C49.8407 28.26 49.889 27.9225 49.9305 27.675C50.0072 27.217 50.0141 26.2403 49.938 26.6ZM19.954 26.581C19.9517 26.6118 19.9172 26.8255 19.8772 27.056C19.8372 27.2864 19.6901 28.15 19.5502 28.975C19.4102 29.8 19.2499 30.7338 19.1936 31.05C19.1375 31.3663 19.0717 31.7488 19.0476 31.9C19.0235 32.0513 18.9701 32.3663 18.9289 32.6C18.7376 33.6839 18.7227 33.7939 18.775 33.7416C18.7887 33.7279 18.8452 33.4373 18.9004 33.0958C18.9556 32.7544 19.023 32.3738 19.0502 32.25C19.0775 32.1263 19.1215 31.8788 19.148 31.7C19.1745 31.5213 19.232 31.1725 19.2757 30.925C19.3194 30.6775 19.3754 30.3513 19.4001 30.2C19.445 29.9244 19.5315 29.424 19.7759 28.025C19.9821 26.8441 20.0096 26.6531 19.983 26.587C19.9672 26.5483 19.9564 26.546 19.954 26.581ZM21.2 27.4791C21.2 27.5044 21.1207 27.9863 21.0237 28.55C20.9269 29.1138 20.8134 29.7775 20.7715 30.025C20.6394 30.807 20.5934 31.0681 20.5421 31.325C20.5146 31.4625 20.4729 31.6988 20.4492 31.85C20.4065 32.123 20.0956 33.949 19.798 35.675C19.7127 36.17 19.6232 36.6988 19.5994 36.85C19.326 38.5788 19.2954 38.65 18.8256 38.65C18.1344 38.65 18.0139 38.3364 18.2227 37.0815C18.2954 36.6451 18.3446 36.2779 18.3321 36.2655C18.2482 36.1816 17.997 38.0336 18.0649 38.2359C18.1565 38.5093 18.4152 38.6875 18.7784 38.7275C19.3292 38.7881 19.3614 38.715 19.7047 36.625C19.8601 35.6791 19.9084 35.3926 20.0246 34.725C20.0964 34.3125 20.1869 33.7838 20.2256 33.55C20.2645 33.3163 20.3322 32.9225 20.3765 32.675C20.4206 32.4275 20.488 32.0338 20.5264 31.8C20.6292 31.1714 20.8324 29.9883 20.9254 29.475C21.1531 28.2186 21.2619 27.4953 21.2282 27.4616C21.2127 27.4461 21.2 27.454 21.2 27.4791ZM25.3359 28.75C25.2924 29.443 25.1771 30.5993 25.1016 31.1C25.0195 31.6453 24.9949 31.9506 25.0474 31.775C25.1011 31.5954 25.191 30.985 25.2499 30.4C25.3855 29.0518 25.4044 28.7929 25.3904 28.475C25.3771 28.173 25.3696 28.2106 25.3359 28.75ZM28.0091 31.6859C27.9406 31.8613 27.5384 33.7149 27.5177 33.95C27.504 34.1065 27.6657 33.4916 27.794 32.9C27.9411 32.2206 28.0724 31.7371 28.0857 31.825C28.0941 31.88 28.1219 32.0375 28.1474 32.175C28.1729 32.3125 28.2297 32.6725 28.2739 32.975C28.318 33.2775 28.3866 33.7275 28.4265 33.975C28.4662 34.2225 28.5339 34.6613 28.5766 34.95C28.6194 35.2388 28.6679 35.565 28.6845 35.675C28.7011 35.785 28.7241 35.8484 28.7355 35.8159C28.7469 35.7833 28.7314 35.592 28.701 35.3909C28.6035 34.7439 28.5064 34.0883 28.4282 33.55C28.1547 31.6646 28.1045 31.4416 28.0091 31.6859ZM24.8994 32.4125C24.7232 33.482 24.3716 35.1025 24.2195 35.5465C24.1765 35.6723 24.0737 36.0338 23.9912 36.35C23.7799 37.1605 23.7192 37.3866 23.6297 37.7C23.1276 39.4576 25.3706 40.5811 26.2752 39.025C26.4817 38.6696 27.5781 34.2615 27.4835 34.1668C27.4677 34.151 27.4427 34.1915 27.428 34.2566C27.3695 34.5143 27.0377 36.044 26.9741 36.35C26.9369 36.5288 26.8512 36.8775 26.7839 37.125C26.7165 37.3725 26.5889 37.845 26.5002 38.175C26.2296 39.183 25.9619 39.5074 25.2847 39.648C24.2136 39.8704 23.3745 38.9046 23.6702 37.79C23.709 37.6443 23.8004 37.3 23.8735 37.025C23.9465 36.75 24.0739 36.2888 24.1565 36C24.5137 34.7514 24.873 33.1415 24.9792 32.3125C25.0296 31.919 24.9679 31.9964 24.8994 32.4125ZM18.6837 34C18.462 35.1898 18.2976 36.3301 18.3774 36.125C18.4251 36.002 18.7519 33.9735 18.7351 33.9034C18.7249 33.8603 18.7017 33.9038 18.6837 34ZM31.6816 36.0295C31.6969 36.2794 31.7285 36.5606 31.752 36.6545C31.7794 36.7643 31.7842 36.66 31.7657 36.3614C31.7499 36.1065 31.7182 35.8253 31.6954 35.7364C31.6695 35.6359 31.6644 35.7464 31.6816 36.0295ZM28.75 36.0351C28.75 36.0911 28.7819 36.3255 28.8209 36.556C28.8597 36.7864 28.906 37.0988 28.9236 37.25C28.9412 37.4013 28.9757 37.6375 29.0002 37.775C29.0247 37.9125 29.0706 38.1938 29.1024 38.4C29.3312 39.891 31.2089 40.2515 31.8822 38.9336C32.0545 38.5966 32.0776 38.2959 31.9757 37.718C31.83 36.8909 31.8 36.7788 31.8302 37.175C31.8449 37.3675 31.8809 37.615 31.9102 37.725C32.2741 39.0868 30.9652 40.1774 29.825 39.4628C29.311 39.1405 29.2289 38.9221 28.975 37.2014C28.8089 36.0751 28.75 35.7703 28.75 36.0351Z" fill="#DFA45F"/>
<path fill-rule="evenodd" clip-rule="evenodd" d="M23.9 0.206249C23.2812 0.223499 22.5162 0.272874 22.2 0.315874C21.8837 0.358874 21.5462 0.403874 21.45 0.415749C21.0722 0.462374 20.0105 0.655124 19.75 0.724249C19.5987 0.764374 19.1825 0.868124 18.825 0.954749C18.2448 1.09537 16.6851 1.57612 16.425 1.69437C16.37 1.71937 16.2462 1.768 16.15 1.8025C15.9586 1.87087 15.9098 1.891 15.175 2.20487C13.232 3.03475 10.8781 4.46325 9.34935 5.74037C7.25772 7.4875 5.34947 9.61775 4.1001 11.6C4.00472 11.7512 3.90947 11.8825 3.88835 11.8916C3.86722 11.9009 3.84997 11.9295 3.84997 11.9554C3.84997 11.9812 3.76035 12.1444 3.65085 12.3177C3.1621 13.0916 2.26997 14.8931 1.86447 15.925C1.66197 16.4402 1.31885 17.4181 1.2241 17.75C1.18872 17.8737 1.10422 18.1662 1.0361 18.4C-0.145403 22.4594 -0.179278 27.549 0.949722 31.425C0.973722 31.5075 1.0286 31.7165 1.0716 31.8895C1.16847 32.2795 1.50122 33.3072 1.55235 33.375C1.57322 33.4025 1.61672 33.5262 1.64922 33.65C1.6816 33.7737 1.7496 33.965 1.80022 34.075C1.85085 34.185 1.9636 34.455 2.05085 34.675C2.1881 35.0214 3.0966 36.8912 3.26547 37.175C3.29822 37.23 3.44447 37.4775 3.5906 37.725C4.00672 38.4302 4.59822 39.3274 4.85897 39.6489C4.93647 39.7445 4.99997 39.8464 4.99997 39.8752C4.99997 39.9041 5.03935 39.9627 5.08747 40.0055C5.1356 40.0482 5.37372 40.3355 5.61672 40.6439C6.50135 41.7666 7.89122 43.2064 8.8076 43.9492C8.9546 44.0685 9.10872 44.2026 9.14997 44.2475C9.22097 44.3246 10.5893 45.3687 10.7586 45.475C10.8025 45.5025 11.094 45.6959 11.4066 45.9047C11.7192 46.1136 12.1156 46.3667 12.2875 46.4672C12.4593 46.5677 12.7293 46.7262 12.8875 46.8195C13.1855 46.9954 14.7732 47.8 14.822 47.8C14.8372 47.8 14.9903 47.8644 15.1623 47.943C16.4785 48.5451 19.8697 49.6136 19.425 49.286C19.37 49.2455 19.2012 49.1959 19.05 49.1756C18.8987 49.1554 18.7525 49.1224 18.725 49.1022C18.6975 49.0821 18.5287 49.0271 18.35 48.9801C18.1712 48.933 17.9687 48.8756 17.9 48.8525C17.8312 48.8294 17.6062 48.7605 17.4 48.6996C17.1937 48.6386 16.8495 48.5126 16.6351 48.4194C16.4206 48.3262 16.2102 48.25 16.1676 48.25C16.0845 48.25 15.8611 48.1581 15.5 47.9752C15.3762 47.9126 15.2187 47.8444 15.15 47.8236C15.0297 47.7875 14.3126 47.4459 13.95 47.252C13.8537 47.2006 13.6682 47.1096 13.5377 47.0499C13.4072 46.9902 13.2878 46.9207 13.2723 46.8956C13.2567 46.8705 13.2081 46.85 13.1642 46.85C13.1203 46.85 13.0107 46.7937 12.9205 46.725C12.8303 46.6562 12.7213 46.6 12.6783 46.6C12.6352 46.6 12.6 46.5826 12.6 46.5614C12.6 46.5401 12.5156 46.479 12.4125 46.4255C12.3093 46.372 12.1515 46.266 12.0616 46.1899C11.9717 46.1137 11.844 46.0379 11.7777 46.0212C11.7115 46.0046 11.6451 45.9592 11.6301 45.9205C11.6152 45.8817 11.563 45.8492 11.5141 45.8484C11.3991 45.8464 11.1987 45.7017 11.303 45.696C11.3426 45.6939 11.3075 45.6679 11.225 45.6381C11.1425 45.6085 11.0456 45.5427 11.0096 45.4921C10.9737 45.4415 10.9113 45.4 10.871 45.4C10.8307 45.4 10.7001 45.31 10.5807 45.2C10.4615 45.09 10.3151 45 10.2556 45C10.1863 45 10.1305 44.9551 10.1 44.875C10.0738 44.8062 10.0291 44.75 10.0005 44.75C9.93722 44.75 9.3416 44.3217 9.34647 44.2797C9.35772 44.1839 9.3411 44.1537 9.26247 44.1275C9.21435 44.1114 9.0881 44.0199 8.98197 43.9241C8.87585 43.8284 8.7686 43.75 8.7436 43.75C8.71872 43.75 8.60047 43.6544 8.48085 43.5375C8.36135 43.4206 8.0861 43.1524 7.86922 42.9415C7.51422 42.596 6.9486 42.0097 6.38697 41.405C6.2746 41.284 6.10372 41.0815 6.0071 40.955C5.9106 40.8285 5.77947 40.684 5.71585 40.6339C5.6521 40.5837 5.59997 40.5134 5.59997 40.4775C5.59997 40.4416 5.56647 40.3845 5.52547 40.3505C5.4846 40.3165 5.4656 40.2652 5.48322 40.2366C5.50097 40.208 5.49197 40.199 5.46335 40.2167C5.43472 40.2344 5.38522 40.2174 5.35322 40.1789C5.30947 40.1262 5.30935 40.1001 5.35272 40.0734C5.38885 40.051 5.35247 40.0097 5.2551 39.9626C5.14535 39.9095 5.09997 39.8522 5.09997 39.7671C5.09997 39.6984 5.06247 39.6327 5.01247 39.614C4.90372 39.5732 4.8041 39.4492 4.80035 39.35C4.79872 39.3087 4.68522 39.1514 4.54797 39.0004C4.41085 38.8494 4.30935 38.6977 4.32247 38.6635C4.3356 38.6292 4.32347 38.6065 4.2956 38.6131C4.2676 38.6196 4.1836 38.5125 4.10872 38.375C3.97185 38.1232 3.7996 37.8462 3.7511 37.8C3.71135 37.762 3.52972 37.4307 3.47697 37.3C3.46035 37.2587 3.37022 37.1012 3.27672 36.95C3.1831 36.7987 3.06947 36.5962 3.0241 36.5C2.97872 36.4037 2.9226 36.2885 2.89935 36.2439C2.87447 36.1962 2.87835 36.1416 2.9086 36.1114C2.94385 36.0761 2.92847 36.0499 2.8596 36.028C2.77347 36.0007 2.54847 35.6256 2.55072 35.513C2.55135 35.4805 2.3871 35.1264 2.11972 34.5835C2.08135 34.5056 2.04997 34.4134 2.04997 34.3784C2.04997 34.3435 1.99722 34.2157 1.93285 34.0945C1.83697 33.9142 1.75072 33.6376 1.72885 33.44C1.72672 33.4207 1.69685 33.3769 1.66247 33.3425C1.6281 33.3081 1.59997 33.217 1.59997 33.14C1.59997 33.063 1.57447 33 1.54347 33C1.50647 33 1.49697 32.9377 1.5161 32.8197C1.5426 32.6564 1.53585 32.642 1.44272 32.6664C1.36035 32.6879 1.3451 32.6741 1.36535 32.5966C1.37922 32.5435 1.37272 32.5 1.35072 32.5C1.32885 32.5 1.29922 32.4269 1.28497 32.3375C1.22572 31.9655 1.04122 31.2737 0.997347 31.2584C0.971347 31.2491 0.949972 31.1549 0.949972 31.0487C0.949972 30.9427 0.927472 30.842 0.899972 30.825C0.872472 30.808 0.849347 30.7335 0.848472 30.6595C0.847722 30.5855 0.803347 30.3675 0.749972 30.175C0.696597 29.9825 0.652222 29.7335 0.651472 29.6216C0.650597 29.5097 0.617472 29.3072 0.577722 29.1716C0.537972 29.036 0.492972 28.8012 0.477597 28.65C0.462347 28.4987 0.424222 28.1784 0.392847 27.9382C0.361597 27.698 0.348222 27.3661 0.363222 27.2007C0.387972 26.9276 0.346722 26.8049 0.283097 26.9625C0.269222 26.9969 0.256097 26.8326 0.253972 26.5975C0.251472 26.3267 0.271972 26.148 0.309972 26.11C0.356597 26.0634 0.356597 26.05 0.309972 26.05C0.168472 26.05 0.246722 23.2795 0.426597 21.925C0.466722 21.6225 0.509472 21.2962 0.521597 21.2C0.533722 21.1037 0.579972 20.8562 0.624222 20.65C0.668472 20.4437 0.725972 20.1444 0.751972 19.9849C0.777972 19.8252 0.819347 19.6565 0.843847 19.6099C0.868347 19.5631 0.904972 19.4031 0.925097 19.254C0.945222 19.105 1.01535 18.8255 1.08085 18.6327C1.14635 18.4401 1.19997 18.2234 1.19997 18.1512C1.19997 18.079 1.22522 17.9947 1.25597 17.964C1.28672 17.9332 1.3301 17.8219 1.35222 17.7165C1.38647 17.554 1.56072 17.0489 1.8816 16.1824C1.92085 16.0765 1.98622 15.9566 2.02697 15.9159C2.0676 15.8752 2.08772 15.8207 2.07172 15.7947C2.02597 15.7207 2.16747 15.446 2.23747 15.4729C2.2801 15.4892 2.29997 15.4417 2.29997 15.3234C2.29997 15.228 2.32247 15.15 2.34997 15.15C2.37747 15.15 2.4001 15.0881 2.40035 15.0125C2.40047 14.9369 2.44535 14.8075 2.49997 14.725C2.5546 14.6425 2.59947 14.5375 2.5996 14.4916C2.59985 14.4459 2.61685 14.4009 2.63747 14.3916C2.68585 14.3701 2.89997 13.9324 2.89997 13.8549C2.89997 13.8224 2.9246 13.7686 2.9546 13.7354C3.0086 13.6757 3.17847 13.3819 3.52435 12.75C3.82985 12.192 3.95685 11.9819 4.11847 11.7669C4.41522 11.3722 4.47535 11.2855 4.57597 11.1055C4.63147 11.0062 4.72697 10.9029 4.7881 10.8757C4.8621 10.843 4.8901 10.7977 4.87185 10.7401C4.84772 10.6641 5.18935 10.213 5.31247 10.1584C5.3331 10.1491 5.34997 10.1096 5.34997 10.0704C5.34997 10.0311 5.39497 9.9605 5.44997 9.91337C5.50497 9.86625 5.54997 9.80925 5.54997 9.78675C5.54997 9.76412 5.60747 9.68475 5.67785 9.61037C5.7481 9.53587 5.84297 9.41312 5.8886 9.3375C5.94685 9.241 5.9986 9.20875 6.06272 9.229C6.14072 9.25375 6.14897 9.23812 6.11947 9.12075C6.09147 9.00925 6.0996 8.98912 6.16285 9.0135C6.2166 9.03412 6.25022 9.00587 6.2711 8.92262C6.28772 8.85612 6.3686 8.76712 6.45072 8.72462C6.53285 8.68212 6.59997 8.611 6.59997 8.5665C6.59997 8.522 6.6451 8.43812 6.70022 8.38025C6.90285 8.16737 7.47935 7.5905 7.62497 7.45487C7.70747 7.37812 7.8521 7.22187 7.94635 7.10762C8.0406 6.99337 8.14497 6.9 8.1781 6.9C8.21135 6.9 8.2731 6.84725 8.31535 6.78262C8.3576 6.71812 8.45947 6.6375 8.54172 6.60337C8.63035 6.56675 8.70385 6.49162 8.72197 6.419C8.73897 6.35162 8.80335 6.27725 8.86522 6.25375C8.9271 6.23025 9.0526 6.141 9.1441 6.0555C9.2356 5.97 9.3291 5.9 9.3516 5.9C9.37422 5.9 9.43447 5.847 9.48547 5.78212C9.53635 5.71737 9.73497 5.561 9.9266 5.43462C10.1182 5.30837 10.3537 5.13612 10.45 5.05187C10.5462 4.9675 10.7022 4.84825 10.7967 4.78675C10.8912 4.72525 11.0172 4.64125 11.0767 4.6C11.1363 4.55875 11.2503 4.48112 11.33 4.42737C11.4097 4.37375 11.5603 4.26412 11.6647 4.18387C11.7692 4.10362 11.867 4.05037 11.8821 4.06537C11.8972 4.0805 11.9803 4.01575 12.067 3.9215C12.1535 3.82712 12.2607 3.75 12.3053 3.75C12.35 3.75 12.4437 3.705 12.5136 3.65C12.5836 3.595 12.6878 3.55 12.7453 3.55C12.8028 3.55 12.85 3.52625 12.85 3.49725C12.85 3.46812 12.9512 3.39962 13.075 3.34487C13.1987 3.29012 13.3 3.22387 13.3 3.19762C13.3 3.1715 13.3436 3.15 13.397 3.15C13.4503 3.15 13.508 3.1275 13.525 3.1C13.542 3.0725 13.6502 3.04737 13.7655 3.04425C13.8807 3.041 13.9356 3.02812 13.8875 3.0155C13.7576 2.98162 13.7815 2.9 13.9213 2.9C13.9882 2.9 14.0766 2.86625 14.1178 2.825C14.1591 2.78375 14.2087 2.75 14.2281 2.75C14.2475 2.75 14.4347 2.66275 14.6442 2.55612C14.8536 2.4495 15.2275 2.27875 15.475 2.1765C15.7225 2.07425 15.9475 1.97287 15.975 1.951C16.0283 1.90862 16.4473 1.82412 16.5162 1.84187C16.5388 1.84775 16.5461 1.83425 16.5323 1.81187C16.5001 1.75975 16.6523 1.698 17.3 1.50025C17.5887 1.412 17.9487 1.299 18.1 1.24912C18.2512 1.19912 18.465 1.14162 18.575 1.12137C18.685 1.101 18.8473 1.05412 18.9358 1.01712C19.0243 0.980249 19.165 0.949998 19.2483 0.949998C19.3317 0.949998 19.4 0.927498 19.4 0.899998C19.4 0.872499 19.4683 0.849999 19.5517 0.849999C19.6352 0.849999 19.8883 0.806749 20.1142 0.753999C20.7451 0.606499 21.0151 0.562124 21.8 0.476499C22.1987 0.432999 22.7837 0.366124 23.1 0.328124C23.7865 0.245499 26.7725 0.255999 27.0413 0.341999C27.1327 0.371249 27.3643 0.394749 27.5558 0.394124C27.8995 0.392999 28.8042 0.510999 29.1557 0.602749C29.2552 0.628749 29.3902 0.650374 29.4557 0.650749C29.5213 0.651124 29.665 0.682749 29.775 0.720874C29.885 0.759124 30.1775 0.828249 30.425 0.874624C30.6725 0.920874 30.92 0.978248 30.975 1.002C31.03 1.02587 31.2955 1.08962 31.5651 1.14375C31.8347 1.19787 32.0837 1.26575 32.1186 1.29462C32.1533 1.32362 32.3378 1.38237 32.5285 1.42525C32.8352 1.49437 32.9963 1.5525 33.3118 1.70737C33.3596 1.73075 33.434 1.75 33.4771 1.75C33.5202 1.75 33.7038 1.82875 33.8852 1.925C34.0666 2.02125 34.2735 2.1005 34.345 2.10112C34.4165 2.10175 34.5312 2.14625 34.6 2.2C34.6687 2.25375 34.7621 2.29825 34.8074 2.29887C34.8527 2.2995 35.0113 2.36387 35.1598 2.44212C35.3085 2.52025 35.4901 2.59925 35.5636 2.61762C35.6371 2.63612 35.7372 2.69337 35.7861 2.74475C35.835 2.79625 35.9537 2.855 36.05 2.8755C36.1462 2.89587 36.2362 2.92837 36.25 2.94775C36.2637 2.96712 36.41 3.04675 36.575 3.12475C36.74 3.20275 36.9425 3.31462 37.025 3.37337C37.1075 3.43212 37.3041 3.54437 37.4618 3.62287C37.6197 3.7015 37.7796 3.81287 37.8173 3.87037C37.8551 3.92787 37.9735 4.00625 38.0805 4.04437C38.1875 4.08262 38.357 4.17825 38.4572 4.25687C38.5573 4.33562 38.6588 4.4 38.6827 4.4C38.7065 4.4 38.782 4.45175 38.8505 4.515C38.919 4.57837 39.0537 4.67375 39.15 4.727C39.395 4.86262 39.5021 4.956 39.4708 5.00662C39.4561 5.0305 39.4897 5.05 39.5455 5.05C39.615 5.05 39.6378 5.0735 39.6181 5.125C39.5972 5.17925 39.6236 5.2 39.7135 5.2C39.7818 5.2 39.867 5.23525 39.9027 5.27825C39.9385 5.32137 40.031 5.38925 40.1082 5.42925C40.1855 5.46925 40.4417 5.67025 40.6777 5.876C40.9136 6.08162 41.1221 6.25062 41.1409 6.25137C41.1596 6.25225 41.2783 6.34787 41.4046 6.46387C41.5308 6.58 41.784 6.80875 41.9671 6.97212C42.1502 7.13562 42.3 7.29875 42.3 7.33462C42.3 7.37062 42.3281 7.40075 42.3625 7.40162C42.4317 7.4035 42.65 7.57212 42.65 7.62387C42.65 7.67112 43.0057 8 43.057 8C43.0806 8 43.1 8.03375 43.1 8.075C43.1 8.11625 43.1225 8.15 43.15 8.15C43.1775 8.15 43.2 8.17 43.2 8.19437C43.2 8.21887 43.2965 8.337 43.4145 8.45687C43.5325 8.57687 43.7216 8.8005 43.8347 8.95387C43.9477 9.10712 44.11 9.30225 44.1951 9.3875C44.2803 9.47262 44.35 9.562 44.35 9.58612C44.35 9.61012 44.44 9.7235 44.55 9.838C44.66 9.9525 44.75 10.0765 44.75 10.1135C44.75 10.1506 44.8602 10.2952 44.9949 10.435C45.1296 10.5747 45.2538 10.7334 45.271 10.7874C45.2881 10.8415 45.392 10.983 45.5016 11.1017C45.6371 11.2485 45.6918 11.3469 45.6722 11.4086C45.6517 11.4734 45.664 11.4915 45.7151 11.4719C45.7568 11.4559 45.7995 11.4821 45.817 11.5346C45.8335 11.5844 45.8758 11.6695 45.911 11.7239C45.9462 11.7781 46.0593 11.9512 46.1625 12.1086C46.2656 12.2659 46.35 12.4042 46.35 12.4161C46.35 12.428 46.496 12.6921 46.6745 13.003C46.853 13.3139 47.012 13.6091 47.0278 13.6591C47.0437 13.7091 47.0777 13.75 47.1033 13.75C47.129 13.75 47.15 13.776 47.15 13.8076C47.15 13.8625 47.2102 14.0006 47.5611 14.75C47.6447 14.9287 47.7297 15.12 47.75 15.175C47.8133 15.348 47.8852 15.5155 48.0287 15.825C48.1053 15.99 48.1628 16.1531 48.1567 16.1875C48.1506 16.2219 48.1691 16.25 48.1977 16.25C48.2265 16.25 48.25 16.3015 48.25 16.3644C48.25 16.4274 48.2927 16.5627 48.3451 16.6654C48.3975 16.7682 48.4276 16.8997 48.4122 16.9587C48.3941 17.0277 48.4033 17.0539 48.438 17.0324C48.47 17.0126 48.5052 17.0602 48.5248 17.1496C48.5431 17.2322 48.5786 17.3 48.604 17.3C48.6292 17.3 48.65 17.3351 48.65 17.378C48.65 17.4239 48.6242 17.4429 48.5875 17.4242C48.5531 17.4069 48.5598 17.4224 48.6025 17.4587C48.645 17.4952 48.7107 17.6554 48.7485 17.8149C48.7862 17.9742 48.8357 18.1162 48.8585 18.1302C48.8813 18.1444 48.9 18.2257 48.9 18.311C48.9 18.4902 49.0248 18.9521 49.1363 19.185C49.1785 19.2729 49.2005 19.3926 49.1852 19.451C49.17 19.5094 49.1898 19.6662 49.2295 19.7996C49.4243 20.4556 49.7852 22.897 49.7973 23.6405C49.7988 23.7375 49.8206 23.7931 49.85 23.775C50.062 23.644 49.5465 20.275 49.039 18.475C48.9303 18.09 48.8212 17.6962 48.7963 17.6C48.733 17.3549 48.625 17.0582 48.5842 17.0176C48.5653 16.9987 48.55 16.9525 48.55 16.915C48.55 16.8066 47.7622 14.8499 47.6041 14.5652C47.5765 14.5156 47.3933 14.1487 47.1971 13.75C47.0007 13.3512 46.8086 12.9895 46.7701 12.9461C46.7315 12.9026 46.7 12.8516 46.7 12.8326C46.7 12.8137 46.5875 12.6169 46.45 12.3951C46.3125 12.1735 46.2 11.9831 46.2 11.9722C46.2 11.9369 45.417 10.784 45.1925 10.4889C45.0728 10.3316 44.8625 10.0507 44.725 9.86487C43.9512 8.81875 42.4658 7.24162 41.4083 6.34337C41.115 6.09412 40.8189 5.84187 40.7502 5.78262C40.3232 5.41387 38.9348 4.40525 38.414 4.08537C38.2703 3.99712 38.0003 3.82912 37.814 3.712C37.039 3.22512 35.4191 2.41987 34.2737 1.952C34.0017 1.84087 33.7407 1.75 33.6937 1.75C33.6467 1.75 33.6008 1.7315 33.5916 1.70875C33.5577 1.625 31.8692 1.09275 31.025 0.899749C30.7775 0.843124 30.4512 0.764124 30.3 0.723999C28.8078 0.328999 26.423 0.136124 23.9 0.206249ZM21.2947 9.1485C20.8985 9.19862 20.4551 9.32987 20.155 9.48575C20.0341 9.54862 19.8951 9.6 19.8463 9.6C19.7976 9.6 19.6908 9.65625 19.6091 9.725C19.5273 9.79375 19.4468 9.85 19.4302 9.85C19.3942 9.85 19.2832 9.94125 18.9988 10.2047C18.883 10.3121 18.7683 10.4 18.7441 10.4C18.7198 10.4 18.7 10.4225 18.7 10.4499C18.7 10.4774 18.6268 10.5774 18.5375 10.6722C18.4481 10.7671 18.3302 10.9304 18.2755 11.0349C18.2207 11.1395 18.0916 11.36 17.9885 11.525C17.8853 11.69 17.8007 11.8771 17.8005 11.9407C17.8002 12.0045 17.7733 12.1057 17.7407 12.1657C17.682 12.2741 17.6375 12.4702 17.5512 13C17.4872 13.3931 17.5105 14.2305 17.5875 14.3075C17.6218 14.3419 17.65 14.4391 17.65 14.5236C17.65 14.7001 17.9081 15.4 18.0447 15.5941C18.0953 15.6661 18.1508 15.77 18.1678 15.825C18.185 15.88 18.2573 15.988 18.3288 16.065C18.405 16.1472 18.4465 16.237 18.4291 16.2822C18.3965 16.3672 18.6645 16.65 18.7777 16.65C18.8147 16.65 18.863 16.6781 18.885 16.7125C18.9672 16.841 19.5401 17.2452 19.9257 17.447C20.1453 17.5617 20.3463 17.677 20.3725 17.7029C20.3986 17.7287 20.4946 17.75 20.5857 17.75C20.7868 17.75 21.15 17.8577 21.15 17.9175C21.15 17.9412 21.1837 17.9477 21.225 17.9319C21.3036 17.9017 21.3267 17.9566 21.2625 18.0209C21.2418 18.0414 21.221 18.107 21.2162 18.1666C21.2113 18.2262 21.1916 18.4455 21.1721 18.654C21.1282 19.1252 21.23 20.1927 21.3293 20.3039C21.4762 20.4681 21.2826 20.7 20.9983 20.7C20.951 20.7 20.8307 20.734 20.7311 20.7756C20.6092 20.8266 20.55 20.833 20.55 20.7954C20.55 20.7646 20.4857 20.8036 20.4071 20.8822C20.3285 20.9607 20.1241 21.1487 19.953 21.3C19.7817 21.4512 19.6207 21.62 19.5951 21.675C19.5695 21.73 19.5041 21.8425 19.45 21.925C19.327 22.1122 19.25 22.2856 19.25 22.3752C19.25 22.4131 19.2275 22.458 19.2 22.475C19.1725 22.492 19.15 22.5671 19.15 22.6419C19.15 22.7166 19.1175 22.8242 19.0776 22.881C19.0188 22.965 19.0147 23.0487 19.0555 23.3296C19.1093 23.6997 19.0853 24.0316 18.9675 24.55C18.9268 24.7287 18.8956 24.9395 18.898 25.0184C18.9005 25.0972 18.8821 25.1872 18.8571 25.2184C18.8162 25.2695 18.7483 25.7747 18.7488 26.025C18.749 26.08 18.7276 26.17 18.7015 26.225C18.6583 26.3154 18.5176 27.049 18.4712 27.425C18.4295 27.7641 18.3398 28.2314 18.2987 28.325C18.2746 28.38 18.2455 28.5375 18.2342 28.675C18.2118 28.9459 18.0063 30.1491 17.9733 30.2025C17.9623 30.2205 17.94 30.3775 17.9237 30.5514C17.9075 30.7252 17.8712 30.9102 17.8432 30.9626C17.8152 31.015 17.8035 31.087 17.8172 31.1227C17.8308 31.1585 17.8185 31.2861 17.7895 31.4064C17.7606 31.5266 17.7395 31.6745 17.7427 31.735C17.7458 31.7955 17.7263 31.8587 17.6992 31.8755C17.6721 31.8922 17.65 32.0156 17.65 32.1499C17.65 32.284 17.6133 32.5471 17.5687 32.7344C17.524 32.9217 17.4707 33.2212 17.4502 33.4C17.4298 33.5787 17.3756 33.9106 17.3296 34.1376C17.2837 34.3646 17.2235 34.7021 17.196 34.8876C17.1141 35.4386 17.0637 35.6822 17.0566 35.5625C17.0401 35.2839 16.9521 35.483 16.9572 35.7875C16.9632 36.146 16.9118 36.5784 16.7718 37.35C16.666 37.9329 16.6515 38.3842 16.733 38.55C16.7668 38.6187 16.8331 38.7615 16.8801 38.8671C17.0128 39.1649 17.4495 39.65 17.5847 39.65C17.6206 39.65 17.65 39.6719 17.65 39.6987C17.65 40.0195 19.2838 40.0972 19.8625 39.804C20.0481 39.7099 20.2 39.6057 20.2 39.5726C20.2 39.5394 20.2426 39.4814 20.2948 39.4436C20.5525 39.2571 20.7001 38.7617 20.9035 37.4C20.9342 37.1937 20.9911 36.8885 21.0297 36.7217C21.0683 36.555 21.1 36.3455 21.1 36.256C21.1 36.1666 21.1261 36.0446 21.158 35.985C21.19 35.9254 21.2233 35.7862 21.2322 35.6757C21.2633 35.2901 21.29 35.0744 21.316 35C21.3303 34.9587 21.3791 34.7 21.4243 34.425C21.6926 32.7929 21.7687 32.3519 21.8992 31.675C21.9575 31.3725 22.0152 31.0462 22.0275 30.95C22.0396 30.8537 22.0736 30.6512 22.1028 30.5C22.132 30.3487 22.1761 30.0675 22.2008 29.875C22.2256 29.6825 22.2783 29.407 22.3182 29.2627C22.3581 29.1186 22.3797 28.9584 22.3662 28.9067C22.3527 28.855 22.375 28.7142 22.4157 28.5939C22.4563 28.4735 22.5062 28.195 22.5263 27.975C22.5466 27.755 22.585 27.5187 22.6117 27.45C22.6713 27.2969 22.8121 26.4261 22.8076 26.2391C22.8043 26.1059 22.8966 25.9811 22.9035 26.1095C22.9055 26.1455 22.924 26.1317 22.9447 26.0789C22.9653 26.026 23.0257 25.9761 23.0786 25.968C23.1316 25.9599 23.2927 25.9384 23.4366 25.9202C23.5805 25.9022 23.686 25.8677 23.6711 25.8437C23.6562 25.8196 23.7336 25.8 23.843 25.8H24.0417L24.0612 26.1625C24.072 26.3619 24.0592 26.6441 24.033 26.7896C23.9976 26.9859 24.0017 27.0849 24.049 27.1731C24.0862 27.2427 24.1 27.361 24.0822 27.4585C24.0655 27.5501 24.0492 27.9119 24.0461 28.2625C24.0428 28.6132 24.02 28.9126 23.9951 28.928C23.9703 28.9434 23.95 29.054 23.95 29.1737C23.95 29.3012 23.924 29.4022 23.8875 29.417C23.838 29.4371 23.8378 29.4515 23.8867 29.4862C23.9656 29.5421 23.9015 30.179 23.6307 32.0297C23.6223 32.0874 23.5983 32.1621 23.5776 32.1959C23.5567 32.2295 23.5296 32.3961 23.5172 32.566C23.5048 32.736 23.4622 32.991 23.4223 33.1327C23.3826 33.2744 23.35 33.4726 23.35 33.5731C23.35 33.6985 23.3318 33.7447 23.2922 33.7202C23.2605 33.7006 23.2472 33.7051 23.2628 33.7304C23.2785 33.7556 23.2223 34.0347 23.1381 34.3506C23.054 34.6665 22.9861 34.9756 22.9872 35.0375C22.9885 35.0994 22.9692 35.15 22.9447 35.15C22.9201 35.15 22.9 35.2287 22.9 35.325C22.9 35.4212 22.8775 35.5 22.85 35.5C22.8225 35.5 22.8 35.4662 22.8 35.425C22.8 35.3837 22.7751 35.35 22.7446 35.35C22.7101 35.35 22.7042 35.3829 22.7291 35.4375C22.811 35.6171 22.7593 35.9227 22.503 36.775C22.445 36.9675 22.3671 37.262 22.3298 37.4294C22.2926 37.5969 22.2402 37.7769 22.2135 37.8294C22.1637 37.9272 22.1711 38.2785 22.23 38.6125C22.2521 38.7381 22.2443 38.8 22.2065 38.8C22.1755 38.8 22.1516 38.8506 22.1535 38.9125C22.1568 39.0194 22.1591 39.02 22.1977 38.925C22.2348 38.8341 22.242 38.8382 22.2765 38.9699C22.3276 39.1647 22.6865 39.8495 22.805 39.9782C22.8572 40.035 22.9 40.105 22.9 40.1339C22.9 40.1627 22.9956 40.2514 23.1125 40.3307C23.2293 40.4101 23.3325 40.4919 23.3416 40.5125C23.3508 40.5331 23.3878 40.55 23.4238 40.55C23.46 40.55 23.5425 40.6059 23.6072 40.6741C23.672 40.7424 23.77 40.8012 23.825 40.8049C23.9095 40.8106 23.9115 40.8151 23.8375 40.8345C23.6671 40.879 23.7487 40.9547 23.9305 40.9206C24.055 40.8972 24.1233 40.9069 24.1508 40.9515C24.2072 41.0426 25.7172 41.0526 25.8075 40.9625C25.8418 40.9281 25.9611 40.8996 26.0725 40.8992C26.2216 40.8986 26.2552 40.8857 26.2 40.85C26.1358 40.8086 26.1377 40.8014 26.2125 40.8007C26.2606 40.8004 26.3 40.7795 26.3 40.7545C26.3 40.7294 26.3956 40.6615 26.5125 40.6036C26.7593 40.4812 26.9646 40.3096 27.0461 40.1572C27.0777 40.0982 27.1265 40.05 27.1547 40.05C27.1828 40.05 27.193 40.071 27.1771 40.0965C27.1613 40.1221 27.1731 40.1584 27.2035 40.1771C27.239 40.1991 27.2533 40.169 27.244 40.0931C27.2357 40.0255 27.2926 39.8809 27.3772 39.7549C27.4585 39.6337 27.5812 39.375 27.65 39.1799C27.7983 38.7587 27.841 38.7431 27.9365 39.075C27.9761 39.2125 28.029 39.3464 28.0542 39.3725C28.0793 39.3986 28.1005 39.4549 28.1011 39.4975C28.1017 39.5401 28.1462 39.6312 28.2 39.7C28.2537 39.7687 28.2982 39.8616 28.2988 39.9064C28.3007 40.0389 28.8508 40.549 29.0825 40.6327C29.1333 40.6512 29.2312 40.7027 29.3 40.7475C29.4295 40.8316 29.605 40.8939 30.0145 41.0014C30.3072 41.0781 31.2651 41.0411 31.3763 40.9489C31.4222 40.9107 31.5278 40.8972 31.6505 40.9137C31.7602 40.9285 31.85 40.9201 31.85 40.8952C31.85 40.8704 31.8106 40.8496 31.7625 40.8492C31.6776 40.8485 31.7611 40.7845 32 40.667C32.0412 40.6467 32.131 40.5784 32.1995 40.5151C32.3361 40.3887 32.4498 40.365 32.4502 40.4625C32.4505 40.4969 32.4842 40.4605 32.5252 40.3817C32.6645 40.1149 32.6231 40.0192 32.4453 40.1969C30.9185 41.7239 28.37 40.859 27.9251 38.6631C27.8571 38.3277 27.7791 38.3736 27.6501 38.8247C27.2035 40.3862 25.8298 41.2375 24.3532 40.8679C22.9357 40.5131 22.0357 39.031 22.3965 37.6455C22.5168 37.1831 22.7066 36.4701 22.8743 35.85C23.7475 32.6227 24.2085 29.4955 24.195 26.8911C24.1882 25.5889 24.1663 25.5387 23.681 25.717C23.5677 25.7586 23.3447 25.8206 23.1856 25.8547C22.7822 25.9411 22.7613 25.9665 22.672 26.475C22.6285 26.7225 22.5708 27.0487 22.544 27.2C22.4933 27.4841 22.4568 27.7057 22.3342 28.475C22.1481 29.6416 22.039 30.2459 21.9725 30.4794C21.9326 30.6192 21.9 30.7915 21.9 30.8619C21.9 30.9324 21.8533 31.2566 21.7965 31.5825C21.5776 32.8347 21.5427 33.0377 21.476 33.45C21.4011 33.9125 21.0151 36.1541 20.8173 37.275C20.7495 37.66 20.6723 38.1212 20.646 38.3C20.5302 39.086 20.1066 39.697 19.5875 39.8265C19.5118 39.8454 19.45 39.8752 19.45 39.8929C19.4497 40.0557 18.0758 39.8807 17.7527 39.6767C16.817 39.086 16.677 38.5165 17.0027 36.625C17.0263 36.4875 17.0792 36.1725 17.1202 35.925C17.1611 35.6775 17.2508 35.16 17.3196 34.775C17.3882 34.39 17.4696 33.9287 17.5003 33.75C17.5311 33.5712 17.5766 33.3125 17.6013 33.175C17.6463 32.9257 17.7982 32.0065 17.9277 31.2C17.9653 30.9662 18.0662 30.3812 18.152 29.9C18.3063 29.0339 18.3932 28.5237 18.5266 27.7C18.5645 27.4662 18.6542 26.96 18.7261 26.575C18.7978 26.19 18.8875 25.6612 18.9251 25.4C18.9627 25.1387 19.0307 24.745 19.0763 24.525C19.122 24.305 19.1778 23.7987 19.2005 23.4C19.2775 22.0419 19.8641 21.1587 20.9067 20.8309C21.3677 20.686 21.5565 20.5891 21.5271 20.5125C21.2633 19.8251 21.209 18.9077 21.3778 17.9922L21.4115 17.8094L21.0182 17.7254C20.802 17.6791 20.5571 17.611 20.4742 17.5739C20.3913 17.5369 20.2563 17.4812 20.1742 17.4505C19.9572 17.3691 19.35 16.9961 19.35 16.9442C19.35 16.9199 19.3218 16.8991 19.2875 16.898C19.2531 16.897 19.1018 16.7744 18.9513 16.6256C18.8008 16.4769 18.6645 16.3765 18.6483 16.4026C18.6313 16.4301 18.5783 16.4192 18.522 16.3766C18.4673 16.3352 18.4522 16.3025 18.4875 16.3016C18.5852 16.2991 18.5621 16.2107 18.4037 15.9805C16.8866 13.7754 17.7515 10.5997 20.1418 9.59937C20.7016 9.36512 20.694 9.36762 21.0821 9.28037C23.2458 8.7935 25.5603 10.2346 26.1323 12.425C26.2438 12.8519 26.2601 14.1455 26.1583 14.49C26.0812 14.7509 26.121 14.9192 26.2516 14.8851C26.3021 14.8719 26.3843 14.8895 26.4342 14.9241C26.4841 14.9589 26.6037 15.0037 26.7 15.024C26.9407 15.0745 27.6731 15.4351 27.969 15.6487C30.3897 17.3971 31.6788 19.3704 32.3002 22.278C32.3965 22.7282 32.4503 23.0912 32.6558 24.675C32.704 25.0465 32.7226 26.2742 32.7281 29.45C32.7352 33.5599 32.7711 34.8447 32.9051 35.7869C32.9335 35.9859 32.9765 36.3234 33.0008 36.5369C33.0252 36.7504 33.0911 37.15 33.1473 37.425C33.3413 38.3735 33.235 39.131 32.822 39.7416C32.7228 39.8884 32.6552 40.022 32.6718 40.0385C32.711 40.0777 32.9671 39.7716 33.07 39.5625C33.114 39.4731 33.187 39.3246 33.2322 39.2326C33.2777 39.14 33.3031 39.0054 33.289 38.9314C33.2748 38.8579 33.2828 38.7856 33.3067 38.7709C33.3305 38.7561 33.35 38.6216 33.35 38.472C33.35 38.2197 33.4077 38.1161 33.4668 38.2625C33.4807 38.2969 33.4912 38.2462 33.4902 38.15C33.4892 38.0537 33.4781 38.0144 33.4655 38.0625C33.4247 38.2187 33.35 38.155 33.3483 37.9625C33.3473 37.8594 33.3031 37.5612 33.2498 37.3C33.1966 37.0387 33.1273 36.5775 33.0958 36.275C33.0645 35.9725 33.0211 35.68 32.9995 35.625C32.9025 35.3775 32.8381 32.9715 32.8383 29.6C32.8385 27.6337 32.8203 25.7304 32.7981 25.3702C32.7287 24.2489 32.7033 23.9895 32.6575 23.9314C32.633 23.9004 32.6096 23.7396 32.6053 23.5741C32.5982 23.2966 32.5706 23.1054 32.45 22.5C32.4253 22.3762 32.3801 22.14 32.3495 21.975C32.3187 21.81 32.2753 21.63 32.253 21.575C32.2307 21.52 32.1868 21.4115 32.1556 21.3337C32.1243 21.2561 32.1107 21.1731 32.1253 21.1495C32.14 21.1259 32.1065 21.0256 32.051 20.9267C31.9953 20.8279 31.95 20.6966 31.95 20.6352C31.95 20.5737 31.908 20.4451 31.8566 20.3492C31.8053 20.2534 31.7471 20.1012 31.7273 20.0111C31.6951 19.8642 31.474 19.4135 31.403 19.35C31.3876 19.3362 31.3093 19.1956 31.2291 19.0375C31.149 18.8794 31.0646 18.75 31.0416 18.75C31.0187 18.75 31 18.7141 31 18.6704C31 18.6266 30.955 18.5336 30.9 18.4636C30.845 18.3937 30.8 18.3096 30.8 18.2767C30.8 18.2437 30.7437 18.1867 30.675 18.15C30.6062 18.1132 30.55 18.0522 30.55 18.0145C30.55 17.9001 30.2311 17.504 30.1375 17.502C30.0893 17.5009 30.05 17.4662 30.05 17.4251C30.05 17.2852 29.0131 16.2526 28.871 16.2507C28.8412 16.2504 28.7867 16.1937 28.75 16.125C28.7132 16.0562 28.666 16 28.6451 16C28.6242 16 28.5773 15.9719 28.5411 15.9374C28.5047 15.903 28.3737 15.8095 28.25 15.7297C28.1262 15.65 27.9628 15.5206 27.8871 15.4424C27.8112 15.3641 27.7208 15.3 27.6863 15.3C27.6517 15.3 27.482 15.231 27.3091 15.1466C27.1362 15.0622 26.9565 14.9855 26.9098 14.9761C26.8632 14.9666 26.7575 14.9234 26.675 14.8797C26.5925 14.8362 26.4521 14.7867 26.3628 14.7697C26.1872 14.7365 26.189 14.7507 26.3046 14.3C26.4306 13.8084 26.3461 12.6225 26.1496 12.125C26.1278 12.07 26.0817 11.9462 26.0471 11.85C25.9175 11.4896 25.7931 11.2442 25.7271 11.2189C25.6896 11.2045 25.6462 11.1437 25.6306 11.0839C25.6151 11.024 25.5366 10.9056 25.4563 10.8209C25.3762 10.7361 25.3022 10.6239 25.2922 10.5715C25.2821 10.5191 25.1755 10.4221 25.0553 10.3557C24.9351 10.2895 24.8258 10.1935 24.8125 10.1426C24.7992 10.0916 24.7675 10.05 24.7418 10.05C24.7163 10.05 24.6368 9.99137 24.5652 9.91975C24.4936 9.84812 24.3708 9.76725 24.2925 9.73987C24.2141 9.71262 24.15 9.66987 24.15 9.64512C24.15 9.62025 24.117 9.6 24.0767 9.6C24.0363 9.6 23.9182 9.56312 23.8142 9.51812C23.1487 9.22987 22.7843 9.14225 22.175 9.1235C21.8725 9.11425 21.4763 9.1255 21.2947 9.1485ZM4.03035 12.0291C3.97735 12.167 3.99547 12.216 4.07497 12.15C4.15685 12.0821 4.17685 11.95 4.10535 11.95C4.08072 11.95 4.04697 11.9856 4.03035 12.0291ZM48.2 16.85C48.2 16.9434 48.2133 16.9566 48.26 16.91C48.3066 16.8634 48.3066 16.8366 48.26 16.79C48.2133 16.7434 48.2 16.7566 48.2 16.85ZM49.774 26.7125C49.7517 26.9119 49.7368 27.1969 49.7408 27.3459C49.745 27.4949 49.7257 27.644 49.6982 27.6771C49.6707 27.7104 49.6388 27.9371 49.6276 28.1812C49.6163 28.4252 49.5695 28.7825 49.5233 28.975C49.4773 29.1675 49.4302 29.3812 49.4187 29.45C49.2506 30.455 49.0842 31.2314 49.0002 31.4019C48.9794 31.4442 48.9456 31.5792 48.9252 31.7019C48.9048 31.8246 48.8571 31.9857 48.8191 32.06C48.7811 32.1342 48.75 32.2599 48.75 32.3391C48.75 32.4185 48.7331 32.5002 48.7125 32.5209C48.6918 32.5415 48.674 32.5734 48.6728 32.5916C48.6717 32.61 48.6211 32.7347 48.5603 32.8689C48.4996 33.003 48.45 33.1316 48.45 33.1547C48.45 33.229 48.2049 33.9507 48.1322 34.0904C48.0937 34.1644 48.0111 34.36 47.9485 34.525C47.886 34.69 47.737 35.0257 47.6173 35.271C47.4978 35.5162 47.4 35.7554 47.4 35.8024C47.4 35.8494 47.3662 35.9157 47.325 35.95C47.2837 35.9842 47.25 36.031 47.25 36.0539C47.25 36.0769 47.187 36.2035 47.11 36.3352C47.0331 36.4671 46.9387 36.6537 46.9002 36.75C46.8618 36.8462 46.7931 36.9812 46.7473 37.05C46.6122 37.2532 46.515 37.4215 46.5015 37.475C46.4887 37.526 46.3028 37.8047 46.2513 37.85C46.2357 37.8637 46.1955 37.9312 46.1618 38C46.0657 38.1966 45.9803 38.3216 45.9125 38.365C45.8781 38.387 45.85 38.4432 45.85 38.49C45.8498 38.5367 45.7936 38.6404 45.725 38.7202C45.6562 38.8001 45.6 38.8919 45.6 38.924C45.6 38.9562 45.5437 39.0354 45.475 39.1C45.4062 39.1646 45.35 39.2364 45.35 39.2594C45.35 39.2825 45.2487 39.4257 45.125 39.5776C45.0012 39.7296 44.9 39.8814 44.9 39.9149C44.9 39.9485 44.8556 40.0036 44.8013 40.0376C44.7471 40.0715 44.5992 40.2562 44.4727 40.4481C44.3463 40.6401 44.177 40.8525 44.0963 40.9204C44.0158 40.9881 43.95 41.0669 43.95 41.0955C43.95 41.1241 43.815 41.276 43.65 41.4331C43.485 41.5902 43.35 41.7339 43.35 41.7525C43.35 41.8304 41.2373 43.9 41.1578 43.9C41.1385 43.9 40.9995 44.012 40.8488 44.1487C40.6982 44.2856 40.5567 44.3981 40.5345 44.3987C40.4856 44.4002 40.5411 44.5 40.591 44.5C40.6102 44.5 40.6925 44.4381 40.7737 44.3625C40.8551 44.2869 41.0123 44.1495 41.1232 44.0572C42.1973 43.1644 43.7242 41.5946 44.5106 40.575C44.5318 40.5475 44.6446 40.4012 44.7613 40.25C45.1311 39.7706 46.3 38.0771 46.3 38.0206C46.3 38.0079 46.39 37.855 46.5 37.6809C46.61 37.5067 46.7 37.3492 46.7 37.3311C46.7 37.3129 46.7528 37.2141 46.8175 37.1115C47.221 36.4707 48.1286 34.4941 48.4298 33.6C48.4993 33.3937 48.5765 33.18 48.6013 33.125C48.7963 32.6927 49.3796 30.5011 49.4995 29.75C49.5236 29.5987 49.5797 29.2725 49.6243 29.025C49.7126 28.534 49.8351 27.4784 49.8839 26.7875C49.922 26.2476 49.8327 26.1867 49.774 26.7125ZM21.7 33.05C21.7 33.105 21.7225 33.15 21.75 33.15C21.7775 33.15 21.8 33.105 21.8 33.05C21.8 32.995 21.7775 32.95 21.75 32.95C21.7225 32.95 21.7 32.995 21.7 33.05ZM21.7616 34.15C21.7616 34.2462 21.7718 34.2856 21.7845 34.2375C21.797 34.1894 21.797 34.1106 21.7845 34.0625C21.7718 34.0144 21.7616 34.0537 21.7616 34.15ZM40.258 44.5375C40.2765 44.625 40.1823 44.75 40.098 44.75C40.0478 44.75 39.9923 44.7954 39.9747 44.8509C39.9571 44.9064 39.8712 44.983 39.7838 45.0214C39.6965 45.0596 39.5575 45.1561 39.475 45.2357C39.3925 45.3152 39.2237 45.4355 39.1 45.5027C38.9762 45.57 38.8675 45.6419 38.8583 45.6625C38.8491 45.6831 38.8125 45.7 38.777 45.7C38.7413 45.7 38.6855 45.7322 38.6527 45.7717C38.5457 45.9006 38.2098 46.0517 38.1787 45.985C38.1635 45.952 38.1626 45.9729 38.1768 46.0312C38.1946 46.104 38.1747 46.147 38.1138 46.1674C38.065 46.1837 37.9803 46.2259 37.9258 46.261C37.8712 46.2962 37.7362 46.384 37.6258 46.456C37.5153 46.528 37.3503 46.6032 37.2591 46.6232C37.1678 46.6431 37.0807 46.6919 37.0655 46.7316C37.0503 46.7712 36.9675 46.8375 36.8813 46.8789C36.7953 46.9201 36.6458 46.9957 36.5492 47.0469C36.4525 47.098 36.3087 47.1477 36.2296 47.1574C36.1506 47.1671 36.0071 47.247 35.9108 47.3351C35.8145 47.4231 35.6657 47.5096 35.5803 47.5271C35.4948 47.5447 35.3393 47.6145 35.2347 47.6821C35.1191 47.7569 35.0075 47.7932 34.9498 47.775C34.8912 47.7564 34.8186 47.7814 34.7592 47.8407C34.7065 47.8935 34.5535 47.9779 34.4192 48.0282C34.2848 48.0786 34.1637 48.1346 34.15 48.1527C34.1362 48.1707 34.0406 48.2011 33.9375 48.22C33.8343 48.239 33.75 48.276 33.75 48.3022C33.75 48.3285 33.7077 48.35 33.6561 48.35C33.6045 48.35 33.4813 48.3837 33.3827 48.425C33.284 48.4662 33.1403 48.5 33.0636 48.5C32.9812 48.5 32.9 48.5385 32.8655 48.5939C32.8102 48.6821 32.7323 48.7094 32.3375 48.7784C32.2481 48.794 32.13 48.8266 32.075 48.8509C31.8623 48.9446 31.4908 49.05 31.3732 49.05C31.3055 49.05 31.25 49.0725 31.25 49.1C31.25 49.1275 31.1897 49.15 31.116 49.15C30.9861 49.15 30.3551 49.322 30.1965 49.4006C30.1533 49.4221 30.0577 49.4281 29.9841 49.414C29.9105 49.3999 29.7433 49.4229 29.6126 49.465C29.482 49.5071 29.1613 49.5671 28.9001 49.5984C28.639 49.6295 28.3465 49.6724 28.2501 49.6935C28.1538 49.7146 27.8623 49.7376 27.6023 49.7446C27.2996 49.7527 27.084 49.7837 27.0023 49.8306C26.7832 49.9567 28.1948 49.8311 29.3 49.626C29.5337 49.5826 29.8411 49.5269 29.983 49.502C30.1248 49.4771 30.3273 49.4337 30.433 49.4056C30.5386 49.3776 30.9062 49.2835 31.25 49.1967C31.8158 49.0537 32.1978 48.9455 32.475 48.8499C32.53 48.8309 32.8337 48.7292 33.15 48.624C33.9063 48.3722 34.9617 47.9284 34.915 47.8816C34.8946 47.8614 34.9145 47.8586 34.959 47.8757C35.0413 47.9074 36.7765 47.0715 37.137 46.8265C37.2393 46.7569 37.3401 46.7 37.3608 46.7C37.416 46.7 37.9221 46.3859 37.9416 46.3395C37.9508 46.3177 37.9822 46.3 38.0115 46.3C38.0407 46.3 38.1907 46.2184 38.3448 46.1185C38.4988 46.0187 38.715 45.8787 38.825 45.8075C39.5537 45.3352 40.5081 44.5789 40.4192 44.544C40.2927 44.4944 40.2483 44.4925 40.258 44.5375ZM19.555 49.3716C19.6127 49.4294 20.9296 49.6687 21.8 49.7796C22.8093 49.9082 23.154 49.9207 22.9815 49.8224C22.8817 49.7655 22.6687 49.7332 22.2815 49.7166C21.9755 49.7035 21.6687 49.6736 21.6 49.6502C21.5312 49.6269 21.3025 49.594 21.0917 49.5772C20.881 49.5604 20.6447 49.5159 20.5667 49.4782C20.4322 49.4132 19.4982 49.315 19.555 49.3716Z" fill="#EE7406"/>
</g>
<defs>
<clipPath id="clip0_9:86">
<rect width="50" height="50" fill="white"/>
</clipPath>
</defs>
</svg>
