<svg width="37" height="36" viewBox="0 0 37 36" fill="none" xmlns="http://www.w3.org/2000/svg">
<path d="M12.875 27L8.375 30.375V23.625H3.875C3.27826 23.625 2.70597 23.3879 2.28401 22.966C1.86205 22.544 1.625 21.9717 1.625 21.375V3.375C1.625 2.77826 1.86205 2.20597 2.28401 1.78401C2.70597 1.36205 3.27826 1.125 3.875 1.125H28.625C29.2217 1.125 29.794 1.36205 30.216 1.78401C30.6379 2.20597 30.875 2.77826 30.875 3.375V10.125" stroke="#80ABFF" stroke-width="2" stroke-linecap="round" stroke-linejoin="round"/>
<path d="M8.375 7.875H24.125" stroke="#80ABFF" stroke-width="2" stroke-linecap="round" stroke-linejoin="round"/>
<path d="M8.375 14.625H12.875" stroke="#80ABFF" stroke-width="2" stroke-linecap="round" stroke-linejoin="round"/>
<path d="M35.375 28.125H30.875V34.875L24.125 28.125H17.375V14.625H35.375V28.125Z" stroke="#0258FF" stroke-width="2" stroke-linecap="round" stroke-linejoin="round"/>
<path d="M30.875 19.125H21.875" stroke="#0258FF" stroke-width="2" stroke-linecap="round" stroke-linejoin="round"/>
<path d="M30.875 23.625H21.875" stroke="#0258FF" stroke-width="2" stroke-linecap="round" stroke-linejoin="round"/>
</svg>
