<svg width="50" height="50" viewBox="0 0 50 50" fill="none" xmlns="http://www.w3.org/2000/svg">
<path fill-rule="evenodd" clip-rule="evenodd" d="M0 25V50H25H50V25V0H25H0V25ZM26.157 10.8096C26.5725 10.8516 26.8716 10.9057 26.9228 10.9481C26.9688 10.9864 27.1307 11.0345 27.2827 11.0551C27.4346 11.0758 27.5978 11.1277 27.6453 11.1707C27.6928 11.2136 27.8089 11.2634 27.9032 11.2812C27.9977 11.2991 28.1087 11.3425 28.15 11.3776C28.1912 11.4129 28.3206 11.4797 28.4375 11.5262C28.5544 11.5727 28.65 11.6309 28.65 11.6554C28.65 11.68 28.6918 11.7 28.7428 11.7C28.7936 11.7 28.8961 11.7562 28.9702 11.825C29.0445 11.8937 29.1236 11.95 29.1462 11.95C29.2039 11.95 29.8164 12.4439 29.865 12.5295C29.887 12.5683 29.9361 12.6 29.9741 12.6C30.0121 12.6 30.0571 12.6439 30.0742 12.6975C30.0912 12.751 30.149 12.8088 30.2025 12.8258C30.2561 12.8429 30.3 12.8785 30.3 12.9052C30.3 12.9319 30.3956 13.0516 30.5125 13.1713C30.6294 13.291 30.7642 13.442 30.8121 13.507C30.9856 13.7421 31.1983 14.0759 31.1991 14.1146C31.1996 14.1364 31.245 14.2025 31.3 14.2615C31.355 14.3205 31.4008 14.404 31.4015 14.4469C31.4024 14.4899 31.4585 14.615 31.5263 14.725C31.594 14.835 31.6496 14.9596 31.6497 15.0019C31.6499 15.0442 31.695 15.1671 31.75 15.275C31.805 15.3829 31.85 15.5687 31.85 15.688C31.85 15.8074 31.8876 15.977 31.9338 16.065C32.0763 16.3375 32.0916 17.5084 31.9579 17.9101C31.9002 18.0833 31.8398 18.3528 31.8234 18.509C31.807 18.6653 31.7614 18.8199 31.7219 18.8526C31.6824 18.8854 31.65 18.967 31.65 19.034C31.65 19.205 31.5458 19.6 31.5006 19.6C31.4799 19.6 31.4369 19.7329 31.405 19.8951C31.373 20.0575 31.3163 20.2157 31.2789 20.2467C31.2415 20.2779 31.1951 20.4085 31.1758 20.5371C31.1565 20.6657 31.0978 20.8256 31.0454 20.8923C30.9929 20.9589 30.95 21.0749 30.95 21.15C30.95 21.2251 30.9069 21.3414 30.8541 21.4084C30.8014 21.4755 30.7422 21.6191 30.7227 21.7276C30.7032 21.8362 30.6581 21.9587 30.6225 22C30.587 22.0413 30.5421 22.1425 30.523 22.225C30.5038 22.3075 30.4518 22.4312 30.4074 22.5C30.0568 23.0434 30.1623 23.15 31.0505 23.15C31.6024 23.15 31.8046 23.1674 31.878 23.221C31.9726 23.2903 31.9752 23.4029 31.9867 27.8525C31.9999 32.9155 31.9916 32.8004 32.2954 32.1889C32.4731 31.8312 32.5729 31.6585 32.7571 31.3895C32.8083 31.315 32.85 31.2211 32.85 31.1809C32.85 31.1406 32.9062 31.0409 32.975 30.9591C33.0437 30.8774 33.1 30.7779 33.1 30.738C33.1 30.6981 33.143 30.6266 33.1955 30.5791C33.248 30.5315 33.3052 30.4361 33.3225 30.367C33.3399 30.298 33.3981 30.1941 33.452 30.1362C33.5059 30.0785 33.55 29.9883 33.55 29.936C33.55 29.8836 33.595 29.7836 33.65 29.7136C33.7469 29.5905 33.75 29.5107 33.75 27.1351V24.6839L34.05 24.409L34.35 24.1343V23.4451C34.35 22.6601 34.3356 22.6871 34.775 22.6502L35.075 22.625L35.0884 21.4929C35.105 20.0922 35.1004 20.1004 35.5882 20.6227C35.9954 21.0587 36.0081 21.0997 35.9981 21.939C35.9885 22.7419 35.957 22.7 36.5704 22.7C37.2521 22.7 37.2 22.5794 37.2 24.1551V25.4902L37.3503 25.5426C37.5411 25.6091 37.6 25.7641 37.6 26.2003C37.6 26.6173 37.5723 26.5987 38.2911 26.6607C38.9479 26.7174 39.0215 26.7545 39.1046 27.0706C39.1343 27.183 39.1885 27.3425 39.2254 27.425C39.2623 27.5075 39.3186 27.665 39.3505 27.775C39.3825 27.885 39.446 28.0537 39.4917 28.15C39.5654 28.3049 39.5779 28.6546 39.6 31.1834C39.6137 32.7555 39.6363 34.0519 39.65 34.0641C39.8001 34.1983 40.7238 34.2625 40.9 34.1511C40.9656 34.1095 40.9765 33.5053 40.9874 29.2894L40.9996 24.475L41.1054 24.3875C41.1635 24.3394 41.2736 24.3 41.3503 24.3C41.5509 24.3 41.55 24.3078 41.55 22.4309C41.55 21.1669 41.5656 20.7044 41.61 20.66C41.6993 20.5707 43.0185 20.5769 43.0933 20.6669C43.1311 20.7125 43.1529 21.3187 43.1619 22.5794L43.175 24.425L43.5316 24.4396C44.0732 24.4617 44.0743 24.4636 44.0783 25.5362C44.0819 26.5362 44.0854 26.5437 44.55 26.549C44.9295 26.5532 44.9236 26.5386 44.9356 27.5106C44.9415 27.986 44.9471 28.3919 44.9481 28.4125C44.9491 28.4331 45.3516 28.45 45.8425 28.45C46.3616 28.45 46.801 28.473 46.8925 28.5049L47.05 28.5597V31.1281V33.6965L47.1594 33.755C47.2322 33.794 47.4236 33.8044 47.7323 33.7859C48.4079 33.7456 48.4976 33.7852 48.3 34.0364C48.245 34.1062 48.2 34.2001 48.2 34.245C48.2 34.2897 48.1585 34.4049 48.1076 34.5008C48.0569 34.5966 47.9989 34.7425 47.9787 34.825C47.9586 34.9075 47.9141 35.0087 47.8797 35.05C47.8454 35.0912 47.7907 35.218 47.7584 35.3316C47.726 35.4451 47.6659 35.566 47.6247 35.6003C47.5836 35.6344 47.55 35.6889 47.55 35.7214C47.55 35.7854 47.081 36.7381 47.003 36.8324C46.977 36.864 46.9241 36.9653 46.8855 37.0574C46.847 37.1496 46.7782 37.2559 46.7327 37.2936C46.6872 37.3314 46.6495 37.3989 46.6489 37.4436C46.6483 37.4884 46.6037 37.5813 46.55 37.65C46.4962 37.7188 46.4518 37.7995 46.4511 37.8296C46.4505 37.8596 46.404 37.9384 46.3478 38.0046C46.2101 38.1667 45.8 38.7979 45.8 38.8475C45.8 38.8694 45.6875 39.028 45.55 39.2C45.4125 39.372 45.2994 39.538 45.2985 39.5689C45.2966 39.6426 45.0362 39.9271 44.9076 39.9959C44.7725 40.0683 5.267 40.073 5.077 40.0008C5.00575 39.9736 4.93313 39.9118 4.91563 39.8633C4.89813 39.8148 4.852 39.7413 4.81325 39.7C4.7745 39.6588 4.69387 39.5478 4.63387 39.4533C4.574 39.3588 4.48588 39.2238 4.43813 39.1533C4.39025 39.0828 4.313 38.9519 4.26638 38.8625C4.21963 38.7731 4.16362 38.7 4.14175 38.7C4.11987 38.7 4.051 38.607 3.9885 38.4933C3.8205 38.187 3.77862 38.1195 3.698 38.0245C3.61637 37.9281 3.29725 37.3688 3.171 37.1009C3.12588 37.005 3.04637 36.8726 2.9945 36.8066C2.9425 36.7405 2.9 36.648 2.9 36.601C2.9 36.554 2.855 36.4747 2.8 36.425C2.745 36.3752 2.7 36.3043 2.7 36.2673C2.7 36.2108 2.55537 35.899 2.39062 35.6C2.36788 35.5587 2.32513 35.4688 2.2955 35.4C2.26588 35.3313 2.20275 35.1962 2.15512 35.1C1.77475 34.3319 1.72662 34.3535 3.81375 34.3516L5.5025 34.35L5.55125 34.2217C5.57912 34.1484 5.6 33.4247 5.6 32.5295V30.9655L5.83862 30.7313C5.96987 30.6024 6.1395 30.4561 6.21575 30.4061C6.292 30.3561 6.476 30.198 6.62463 30.0549C7.06238 29.6331 7.21062 29.6279 7.95 30.0074C8.15625 30.1131 8.36138 30.1999 8.40575 30.1999C8.45013 30.2 8.542 30.2436 8.60975 30.2969C8.6775 30.3502 8.79213 30.4086 8.86438 30.4268C9.09038 30.4835 9.09762 30.5244 9.11162 31.829L9.125 33.075L10.175 33.0865L11.225 33.0979L11.5015 32.7619C11.8511 32.337 11.8921 32.3308 12.2292 32.6495C12.6521 33.0495 12.6219 33.2634 12.65 29.6709L12.675 26.475L13.1722 26.4606C13.7819 26.4429 13.8 26.4296 13.8 26.0001C13.8 25.8145 13.8313 25.5739 13.8695 25.4655C13.9078 25.3571 13.9666 24.9777 14.0002 24.6225C14.0661 23.9271 14.0948 23.8081 14.2219 23.7026C14.3575 23.5901 14.4111 23.7069 14.4549 24.2097C14.4771 24.4656 14.5306 24.7916 14.5736 24.9342C14.6166 25.0767 14.6712 25.3468 14.695 25.5343C14.7497 25.9679 14.9067 26.2502 15.0925 26.2494C15.4189 26.2476 15.5481 26.117 15.5518 25.7851C15.5528 25.6971 15.5836 25.5706 15.6205 25.5041C15.7875 25.2028 15.8 25.4915 15.8 29.6437C15.8 32.7081 15.8144 33.703 15.8591 33.7306C15.9668 33.7971 16.9256 33.8165 17.0415 33.7546L17.1495 33.6968L17.1623 29.3109L17.175 24.925L18.2598 24.9115L19.3445 24.8981L19.5989 25.124C19.7389 25.2484 19.8715 25.35 19.8936 25.35C20.0391 25.35 20.05 25.6654 20.05 29.8794C20.05 34.0714 20.0519 34.1569 20.15 34.302C20.205 34.3834 20.2919 34.5123 20.343 34.5885C20.3941 34.6646 20.453 34.7828 20.4739 34.851C20.4948 34.9191 20.5414 35.0088 20.5774 35.0501C20.6135 35.0914 20.6688 35.1926 20.7003 35.2751C20.8611 35.6965 20.9 35.3209 20.9 33.3466V31.4624L21.1125 31.2255C21.2294 31.0951 21.4262 30.8865 21.55 30.7617L21.775 30.5349L21.8 29.855L21.825 29.175L22 29.162C22.0962 29.1549 22.31 29.192 22.475 29.2445C22.8185 29.3536 22.8867 29.301 22.7036 29.0683C22.6466 28.9959 22.6 28.8972 22.6 28.8494C22.6 28.8015 22.5674 28.7353 22.5275 28.7021C22.4878 28.669 22.4286 28.5594 22.3962 28.4585C22.3639 28.3576 22.3091 28.2413 22.2746 28.2C22.2401 28.1588 22.1949 28.0688 22.174 28C22.1532 27.9312 22.0944 27.8214 22.0431 27.7558C21.9919 27.6901 21.95 27.5976 21.95 27.55C21.95 27.5024 21.9081 27.4099 21.8569 27.3442C21.8056 27.2786 21.7467 27.1688 21.726 27.1C21.7051 27.0313 21.6589 26.9412 21.623 26.9C21.5871 26.8587 21.5414 26.7575 21.5212 26.675C21.5011 26.5925 21.4431 26.4714 21.3924 26.4058C21.3416 26.3401 21.3 26.2489 21.3 26.203C21.3 26.157 21.2437 26.0431 21.175 25.95C21.1062 25.8569 21.05 25.7315 21.05 25.6714C21.05 25.6114 21.0164 25.5344 20.9754 25.5002C20.9342 25.4662 20.8759 25.3461 20.8455 25.2334C20.8153 25.1208 20.7475 24.9741 20.6951 24.9075C20.6429 24.841 20.6 24.736 20.6 24.6744C20.6 24.6128 20.5664 24.5344 20.5252 24.5002C20.4841 24.466 20.4242 24.3505 20.3921 24.2435C20.36 24.1364 20.3037 24.0239 20.2669 23.9932C20.2301 23.9627 20.2 23.8989 20.2 23.8514C20.2 23.8038 20.1438 23.6591 20.075 23.5298C20.0063 23.4005 19.95 23.2539 19.95 23.2041C19.95 23.1542 19.9036 23.0545 19.847 22.9825C19.7904 22.9105 19.7311 22.7725 19.7155 22.6758C19.6997 22.5791 19.6682 22.5 19.6454 22.5C19.6225 22.5 19.571 22.3894 19.5309 22.2542C19.4907 22.1191 19.4241 21.956 19.3826 21.8918C19.3413 21.8275 19.2921 21.6914 19.2735 21.5893C19.2548 21.4871 19.2088 21.378 19.1711 21.3468C19.1335 21.3155 19.0882 21.2079 19.0707 21.1075C19.0531 21.0071 19.0084 20.8765 18.9713 20.8171C18.9341 20.7579 18.8764 20.6004 18.8429 20.4671C18.8094 20.334 18.755 20.198 18.722 20.165C18.689 20.132 18.6471 20.0055 18.629 19.884C18.6107 19.7624 18.5518 19.5765 18.4979 19.4709C18.444 19.3652 18.4 19.2099 18.4 19.1255C18.4 19.0412 18.363 18.9194 18.3178 18.8547C18.2725 18.7901 18.2059 18.532 18.1698 18.2811C18.1336 18.0302 18.0654 17.6805 18.018 17.5039C17.929 17.172 17.9741 16.3815 18.0904 16.2335C18.1156 16.2014 18.1496 16.025 18.1659 15.8415C18.1826 15.6533 18.24 15.425 18.2978 15.3173C18.354 15.2124 18.4 15.0672 18.4 14.995C18.4 14.9226 18.4419 14.8099 18.4931 14.7443C18.5444 14.6786 18.6036 14.5688 18.625 14.5C18.6464 14.4312 18.7056 14.3214 18.7569 14.2557C18.8081 14.1901 18.85 14.1093 18.85 14.076C18.85 14.0428 18.895 13.9748 18.95 13.925C19.005 13.8753 19.05 13.8061 19.05 13.7715C19.05 13.7089 19.1805 13.534 19.3787 13.3311C19.4357 13.2728 19.497 13.1856 19.5146 13.1375C19.5324 13.0894 19.5814 13.05 19.6234 13.05C19.6655 13.05 19.7 13.0241 19.7 12.9925C19.7 12.9234 20.0246 12.6 20.0941 12.6C20.1211 12.6 20.1575 12.555 20.175 12.5C20.1925 12.445 20.2387 12.4 20.278 12.4C20.3171 12.4 20.3772 12.355 20.4116 12.3C20.446 12.245 20.4926 12.2 20.5154 12.2C20.5381 12.2 20.6304 12.1437 20.7205 12.075C20.8108 12.0062 20.9096 11.95 20.9405 11.95C20.9713 11.95 21.0196 11.9069 21.0479 11.8541C21.0761 11.8013 21.1684 11.7429 21.253 11.7244C21.3375 11.7057 21.4184 11.6604 21.4325 11.6234C21.4468 11.5864 21.5229 11.5419 21.6019 11.5246C21.6808 11.5072 21.797 11.4531 21.8601 11.4043C21.9234 11.3555 22.0522 11.3005 22.1467 11.2821C22.2411 11.2639 22.3562 11.2146 22.4024 11.1729C22.4485 11.1311 22.6075 11.0831 22.7556 11.0664C22.9037 11.0496 23.1038 10.9967 23.2 10.9487C23.303 10.8975 23.5674 10.8467 23.8428 10.8251C24.1 10.805 24.37 10.7699 24.4428 10.747C24.607 10.6952 25.2634 10.7192 26.157 10.8096ZM24.125 12.7323C24.015 12.7445 23.8296 12.7985 23.713 12.8523C23.5965 12.906 23.4446 12.95 23.3756 12.95C23.2703 12.95 22.9897 13.0699 22.65 13.26C22.6087 13.2831 22.5075 13.3357 22.425 13.3771C22.3425 13.4184 22.1737 13.531 22.05 13.6272C21.9262 13.7236 21.7864 13.8155 21.7391 13.8316C21.692 13.8476 21.6401 13.9023 21.6241 13.9529C21.608 14.0035 21.5535 14.058 21.5029 14.0741C21.4522 14.0901 21.3992 14.1476 21.3851 14.2016C21.3709 14.2557 21.3235 14.3 21.2796 14.3C21.2359 14.3 21.2 14.3274 21.2 14.3608C21.2 14.3941 21.1545 14.4672 21.0989 14.5232C20.9495 14.6736 20.573 15.262 20.5094 15.4445C20.479 15.5316 20.4195 15.6376 20.3771 15.68C20.3346 15.7225 20.3 15.8108 20.3 15.8763C20.3 16.0053 20.2031 16.2564 20.1344 16.3055C19.9417 16.4433 19.9929 18.8314 20.1969 19.2231C20.2536 19.332 20.3 19.4811 20.3 19.5545C20.3 19.6278 20.3326 19.7148 20.3725 19.7479C20.4122 19.781 20.4717 19.8906 20.5045 19.9915C20.5372 20.0924 20.593 20.192 20.6281 20.2127C20.6634 20.2336 20.707 20.3181 20.7251 20.4007C20.7432 20.4832 20.8012 20.5739 20.8541 20.6021C20.9069 20.6304 20.95 20.679 20.95 20.7101C20.95 20.7411 20.9833 20.8023 21.024 20.8458C21.0648 20.8894 21.2289 21.0656 21.3888 21.2375C21.5486 21.4094 21.6953 21.55 21.7148 21.55C21.7468 21.55 21.807 21.5994 22.0581 21.8315C22.1376 21.905 22.3296 22.02 22.6 22.1564C22.6688 22.191 22.7587 22.2466 22.8 22.28C22.8412 22.3134 22.9743 22.3671 23.0955 22.3994C23.2168 22.4318 23.363 22.4875 23.4205 22.5235C23.478 22.5594 23.6703 22.6041 23.8479 22.623C24.0254 22.6419 24.2475 22.6894 24.3415 22.7286C24.5341 22.8091 25.4527 22.8286 25.5907 22.7551C25.6371 22.7305 25.855 22.6831 26.075 22.6499C26.295 22.6166 26.5675 22.5468 26.6805 22.4946C26.7935 22.4426 26.9199 22.4 26.9613 22.4C27.0026 22.4 27.0938 22.355 27.1636 22.3C27.2336 22.245 27.3249 22.2 27.3665 22.2C27.4083 22.2 27.5091 22.1438 27.5909 22.075C27.6726 22.0063 27.7748 21.95 27.818 21.95C27.8611 21.95 27.9206 21.905 27.95 21.85C27.9794 21.795 28.0283 21.75 28.0585 21.75C28.0888 21.75 28.1624 21.6994 28.222 21.6375C28.2815 21.5756 28.4079 21.4554 28.5026 21.3703C28.7349 21.1618 29.05 20.8025 29.05 20.7464C29.05 20.7214 29.095 20.6727 29.15 20.6384C29.205 20.604 29.25 20.5508 29.25 20.52C29.25 20.4891 29.3062 20.3811 29.375 20.2798C29.4438 20.1785 29.5 20.0659 29.5 20.0295C29.5 19.9932 29.545 19.9062 29.6 19.8364C29.655 19.7664 29.7 19.67 29.7 19.622C29.7 19.5739 29.7534 19.42 29.8186 19.2799C30.0804 18.7179 30.0914 16.5889 29.8346 16.1966C29.7909 16.1297 29.74 15.9808 29.7216 15.8656C29.7032 15.7504 29.6592 15.645 29.6239 15.6315C29.5884 15.6179 29.5446 15.5396 29.5266 15.4575C29.5086 15.3754 29.4503 15.2579 29.3969 15.1965C29.3436 15.135 29.3 15.0584 29.3 15.0261C29.3 14.9939 29.2437 14.9146 29.175 14.85C29.1062 14.7854 29.05 14.711 29.05 14.6845C29.05 14.6581 28.9994 14.5869 28.9375 14.5262C28.8756 14.4656 28.7575 14.3341 28.675 14.2341C28.5925 14.134 28.4969 14.0516 28.4625 14.0511C28.4281 14.0505 28.4 14.0158 28.4 13.9738C28.4 13.9319 28.3437 13.8761 28.275 13.85C28.2062 13.8239 28.15 13.78 28.15 13.7525C28.15 13.725 28.0769 13.6651 27.9875 13.6193C27.8981 13.5735 27.8137 13.5192 27.8 13.4986C27.7862 13.4781 27.6906 13.4261 27.5875 13.3831C27.4844 13.3403 27.4 13.2815 27.4 13.2525C27.4 13.2236 27.3584 13.2 27.3075 13.2C27.2565 13.2 27.1091 13.1437 26.9797 13.075C26.8505 13.0062 26.6887 12.95 26.6204 12.95C26.552 12.95 26.4019 12.902 26.2869 12.8434C26.0769 12.7361 24.7179 12.6664 24.125 12.7323ZM25.7391 14.0459C25.8964 14.0985 26.115 14.1576 26.225 14.1771C26.335 14.1967 26.4587 14.2407 26.5 14.275C26.5413 14.3092 26.6594 14.3645 26.7625 14.3975C26.8656 14.4306 26.95 14.4791 26.95 14.5051C26.95 14.5311 27.0006 14.5726 27.0625 14.5971C27.3158 14.6978 28.0326 15.394 28.0821 15.5875C28.0979 15.6494 28.1314 15.7 28.1565 15.7C28.1816 15.7 28.2289 15.7619 28.2616 15.8375C28.2943 15.9131 28.3594 16.0263 28.4064 16.089C28.4533 16.1516 28.5076 16.2974 28.5271 16.4129C28.5466 16.5284 28.5991 16.6786 28.6439 16.7467C28.7618 16.9267 28.7637 18.5691 28.6462 18.7523C28.6029 18.8198 28.5385 18.9804 28.5031 19.1092C28.4677 19.2381 28.4076 19.3556 28.3694 19.3703C28.3313 19.3849 28.3 19.4409 28.3 19.4946C28.3 19.5484 28.2476 19.6559 28.1835 19.7336C28.1195 19.8114 28.0526 19.9144 28.0351 19.9625C28.0175 20.0106 27.9794 20.05 27.9504 20.05C27.9212 20.05 27.8761 20.1062 27.85 20.175C27.8239 20.2437 27.7681 20.3 27.7262 20.3C27.6842 20.3 27.65 20.3343 27.65 20.3761C27.65 20.4179 27.5937 20.4777 27.525 20.5091C27.4562 20.5404 27.4 20.5962 27.4 20.633C27.4 20.6699 27.3695 20.7 27.3323 20.7C27.2951 20.7 27.2039 20.7563 27.1297 20.825C27.0555 20.8938 26.9652 20.95 26.9291 20.95C26.893 20.95 26.808 20.9936 26.7402 21.0469C26.6725 21.1002 26.5514 21.1595 26.471 21.1786C26.3908 21.1978 26.2913 21.2424 26.25 21.2776C25.9978 21.4935 24.0503 21.4955 23.8026 21.2801C23.7599 21.243 23.6437 21.1981 23.5444 21.1804C23.445 21.1626 23.3234 21.1035 23.2741 21.049C23.2249 20.9945 23.156 20.95 23.1211 20.95C23.0862 20.95 22.9909 20.8938 22.9091 20.825C22.8274 20.7563 22.744 20.7 22.7236 20.7C22.579 20.7 21.7 19.615 21.7 19.4364C21.7 19.3947 21.6675 19.3483 21.6278 19.333C21.588 19.3178 21.5396 19.2205 21.5201 19.1169C21.5007 19.0131 21.4419 18.8311 21.3892 18.7124C21.2405 18.3761 21.2442 17.0038 21.3946 16.7231C21.4526 16.615 21.5 16.4879 21.5 16.4406C21.5 16.3265 21.6051 16.1 21.658 16.1C21.6811 16.1 21.7 16.0568 21.7 16.0039C21.7 15.951 21.7563 15.8409 21.825 15.7591C21.8938 15.6774 21.95 15.5863 21.95 15.5566C21.95 15.4668 22.8464 14.6 22.9394 14.6C22.987 14.6 23.0527 14.557 23.0856 14.5045C23.1184 14.452 23.2194 14.3932 23.3101 14.3739C23.4008 14.3546 23.5087 14.3095 23.55 14.2736C23.5912 14.2378 23.7375 14.1857 23.875 14.1581C24.0125 14.1305 24.215 14.0734 24.325 14.0311C24.6216 13.9173 25.379 13.9251 25.7391 14.0459ZM24.517 15.819C24.3143 15.8506 24.1172 15.913 24.063 15.9625C24.0102 16.0106 23.9456 16.05 23.9194 16.05C23.8512 16.05 23.35 16.5664 23.35 16.6366C23.35 16.6688 23.3207 16.713 23.285 16.735C23.094 16.8526 22.9359 17.8884 23.0667 18.1653C23.1082 18.2531 23.1587 18.391 23.1789 18.4716C23.2821 18.8857 23.6555 19.2655 24.25 19.561C24.5699 19.7201 25.5299 19.7698 25.6432 19.6331C25.6739 19.5963 25.7903 19.5388 25.902 19.5053C26.0139 19.4718 26.117 19.414 26.1313 19.3768C26.1455 19.3395 26.2091 19.296 26.2726 19.28C26.3361 19.2641 26.3999 19.2059 26.4144 19.1505C26.4288 19.0952 26.4715 19.05 26.5094 19.05C26.5471 19.05 26.6055 18.9881 26.6391 18.9125C26.6726 18.8369 26.7316 18.7187 26.7701 18.65C27.1191 18.027 27.0935 17.1036 26.7145 16.6521C26.3703 16.2419 26.2615 16.1326 26.1287 16.0641C26.0442 16.0204 25.9525 15.957 25.925 15.9231C25.883 15.8714 25.0681 15.7361 24.9216 15.7565C24.896 15.76 24.7139 15.7881 24.517 15.819ZM25.59 17.039C25.949 17.3495 25.9999 17.9641 25.6949 18.3057C25.4725 18.5549 25.0127 18.7102 24.8119 18.6041C24.7641 18.579 24.6575 18.5322 24.575 18.5005C24.2943 18.3922 24.1772 18.1778 24.157 17.7348L24.139 17.3405L24.4001 17.0952L24.6614 16.85L25.0181 16.8515C25.3573 16.8529 25.3858 16.8622 25.59 17.039ZM23.1782 30.0946C23.1347 30.165 23.1389 33.9628 23.1825 34.0766C23.1978 34.1164 23.2924 34.1715 23.3926 34.199C23.493 34.2265 23.6425 34.2941 23.725 34.3493C23.8075 34.4043 23.9316 34.4495 24.0007 34.4496C24.0699 34.4499 24.2075 34.4934 24.3065 34.5465C24.5462 34.675 24.8279 34.7263 24.875 34.65C25.0011 34.4459 24.867 33.1259 24.6982 32.9114C24.6442 32.8427 24.6 32.7439 24.6 32.6917C24.6 32.6395 24.5674 32.5844 24.5274 32.569C24.4875 32.5538 24.4288 32.4587 24.3969 32.3581C24.365 32.2574 24.311 32.1524 24.2768 32.1247C24.2425 32.0972 24.1971 32.0185 24.1758 31.9498C24.1544 31.8811 24.0949 31.7652 24.0435 31.6922C23.992 31.6192 23.95 31.5271 23.95 31.4874C23.95 31.4478 23.9044 31.3627 23.8486 31.2984C23.7929 31.2341 23.7332 31.1239 23.716 31.0532C23.6989 30.9827 23.6431 30.8714 23.5924 30.8057C23.5416 30.7401 23.5 30.6574 23.5 30.6219C23.5 30.5863 23.4652 30.5225 23.4229 30.48C23.3805 30.4376 23.3169 30.3194 23.2815 30.2173C23.2387 30.0936 23.2042 30.0528 23.1782 30.0946ZM1.61063 32.7125C1.66863 32.758 1.6995 32.9059 1.72438 33.2569C1.76188 33.7857 1.71263 33.9096 1.58375 33.6111C1.5395 33.5088 1.48263 33.3912 1.45738 33.35C1.19738 32.9267 1.30625 32.4739 1.61063 32.7125Z" fill="#F6F6F6"/>
<path fill-rule="evenodd" clip-rule="evenodd" d="M24.25 10.9461C23.9613 10.962 23.6761 11.003 23.6165 11.0371C23.5569 11.0712 23.3466 11.1221 23.1493 11.1501C22.952 11.1781 22.7426 11.2345 22.6841 11.2755C22.6256 11.3165 22.5325 11.35 22.4771 11.35C22.4218 11.35 22.2636 11.4035 22.1258 11.4689C21.9879 11.5344 21.8188 11.6141 21.75 11.6464C21.6813 11.6785 21.535 11.7595 21.425 11.8264C21.315 11.8932 21.1688 11.9759 21.1 12.01C21.0313 12.0441 20.9271 12.1177 20.8688 12.1735C20.8103 12.2294 20.6788 12.3312 20.5764 12.4C20.474 12.4687 20.3538 12.5644 20.309 12.6125C20.2644 12.6606 20.2108 12.7 20.19 12.7C20.1421 12.7 19.6275 13.2127 19.5821 13.3056C19.5635 13.3437 19.4805 13.465 19.3976 13.575C19.3148 13.685 19.2088 13.8312 19.1621 13.9C19.1155 13.9687 19.0488 14.043 19.0138 14.065C18.9786 14.087 18.95 14.1569 18.95 14.2201C18.95 14.2835 18.8938 14.3961 18.825 14.4702C18.7563 14.5445 18.7 14.6552 18.7 14.7165C18.7 14.7776 18.6665 14.8756 18.6255 14.9341C18.5845 14.9926 18.5258 15.1607 18.4949 15.3077C18.464 15.4547 18.4093 15.6087 18.3731 15.65C18.1866 15.8631 18.1909 18.0854 18.3783 18.3739C18.4145 18.4295 18.4594 18.5987 18.4783 18.75C18.497 18.9012 18.5546 19.0951 18.6063 19.1809C18.6578 19.2666 18.7 19.4082 18.7 19.4957C18.7 19.5831 18.7563 19.7602 18.825 19.8894C18.8938 20.0185 18.95 20.1812 18.95 20.251C18.95 20.3207 18.9873 20.4309 19.0328 20.4959C19.0783 20.5609 19.1341 20.7134 19.1568 20.8346C19.1794 20.9559 19.2321 21.0892 19.274 21.1311C19.3158 21.1729 19.3501 21.2561 19.3503 21.3161C19.3504 21.376 19.406 21.515 19.4738 21.625C19.5415 21.735 19.5976 21.8946 19.5985 21.9797C19.5993 22.066 19.6415 22.1721 19.6938 22.2194C19.7454 22.2661 19.8 22.3807 19.8153 22.4742C19.8304 22.5677 19.8873 22.7075 19.9418 22.7846C19.9961 22.8619 20.0546 23.0072 20.0716 23.1076C20.0888 23.2081 20.1336 23.3022 20.1714 23.3167C20.2091 23.3311 20.2558 23.4361 20.275 23.55C20.2943 23.6639 20.3393 23.7681 20.3749 23.7819C20.4106 23.7956 20.4641 23.9034 20.4939 24.0214C20.5236 24.1395 20.5821 24.2644 20.624 24.2991C20.6658 24.3339 20.7008 24.4101 20.7015 24.4686C20.7024 24.5271 20.7585 24.665 20.8263 24.775C20.894 24.885 20.9496 25.0114 20.9498 25.0557C20.9499 25.1001 20.9921 25.1901 21.0435 25.2557C21.0949 25.3214 21.1526 25.4466 21.1718 25.534C21.1908 25.6215 21.2381 25.7194 21.2769 25.7516C21.3156 25.7837 21.3614 25.8851 21.3786 25.9767C21.3959 26.0685 21.4526 26.1821 21.505 26.2295C21.5573 26.2767 21.6 26.376 21.6 26.45C21.6 26.524 21.6424 26.6229 21.6943 26.6697C21.7461 26.7167 21.8016 26.8207 21.8178 26.901C21.8338 26.9812 21.8926 27.0926 21.9484 27.1485C22.0043 27.2042 22.05 27.3027 22.05 27.3672C22.05 27.4317 22.093 27.5234 22.1455 27.5709C22.198 27.6185 22.256 27.7176 22.2744 27.7911C22.2928 27.8647 22.337 27.9587 22.3726 28C22.4083 28.0412 22.4639 28.1576 22.4963 28.2585C22.5286 28.3594 22.5878 28.469 22.6275 28.5021C22.6674 28.5352 22.7 28.6069 22.7 28.6614C22.7 28.716 22.7563 28.8274 22.825 28.9091C22.8938 28.9909 22.95 29.103 22.95 29.1585C22.95 29.2139 22.995 29.3164 23.05 29.3864C23.105 29.4562 23.15 29.5546 23.15 29.6047C23.15 29.655 23.1919 29.7364 23.243 29.7855C23.2941 29.8347 23.3509 29.9375 23.3693 30.0137C23.3875 30.0901 23.447 30.197 23.5013 30.2512C23.5556 30.3056 23.6 30.405 23.6 30.4721C23.6 30.5394 23.6449 30.6257 23.6996 30.6641C23.7545 30.7025 23.8133 30.8039 23.8304 30.8894C23.8475 30.9749 23.9039 31.0832 23.9558 31.1302C24.0076 31.1771 24.05 31.265 24.05 31.3255C24.05 31.3859 24.1063 31.4961 24.175 31.5702C24.2438 31.6445 24.3 31.7445 24.3 31.7926C24.3 31.8406 24.3274 31.9074 24.3608 31.9407C24.3943 31.9742 24.4674 32.0919 24.5233 32.2022C24.5793 32.3125 24.7038 32.5591 24.8 32.7501C24.9925 33.1321 25.0296 33.16 25.1 32.975C25.1261 32.9062 25.1698 32.85 25.1969 32.85C25.224 32.85 25.2698 32.7624 25.2986 32.6551C25.3275 32.548 25.3818 32.4485 25.4193 32.4341C25.4568 32.4197 25.5015 32.3324 25.5189 32.2399C25.5363 32.1475 25.5954 32.0334 25.6503 31.9864C25.7051 31.9394 25.75 31.8566 25.75 31.8024C25.75 31.7482 25.7924 31.6636 25.8441 31.6145C25.896 31.5652 25.9535 31.4542 25.972 31.3676C25.9905 31.2811 26.0494 31.1707 26.1029 31.1224C26.1563 31.0741 26.2 30.9852 26.2 30.925C26.2 30.8647 26.245 30.7747 26.3 30.725C26.355 30.6752 26.4 30.5974 26.4 30.552C26.4 30.5066 26.4563 30.3931 26.525 30.3C26.5938 30.2069 26.65 30.0915 26.65 30.0439C26.65 29.9961 26.6846 29.9225 26.7271 29.88C26.7695 29.8376 26.8294 29.7291 26.8601 29.639C26.8909 29.5487 26.9574 29.4214 27.008 29.3557C27.0586 29.2901 27.1 29.2037 27.1 29.1636C27.1 29.1236 27.145 29.0336 27.2 28.9636C27.255 28.8937 27.3 28.7989 27.3 28.753C27.3 28.707 27.3563 28.5931 27.425 28.5C27.4938 28.4069 27.55 28.2927 27.55 28.2464C27.55 28.2001 27.5826 28.1352 27.6225 28.1021C27.6623 28.069 27.7214 27.9594 27.7538 27.8585C27.7861 27.7576 27.8405 27.6412 27.8746 27.6C27.9086 27.5587 27.9503 27.4672 27.9669 27.3967C27.9836 27.3261 28.0429 27.2159 28.0986 27.1516C28.1544 27.0872 28.2 26.9854 28.2 26.9251C28.2 26.8649 28.2428 26.7767 28.295 26.7295C28.3474 26.6821 28.404 26.5692 28.421 26.4786C28.438 26.3879 28.4965 26.2734 28.551 26.2241C28.6055 26.1749 28.65 26.0851 28.65 26.0249C28.65 25.9646 28.6926 25.8661 28.7448 25.8061C28.7969 25.746 28.8544 25.6176 28.8725 25.5207C28.8906 25.424 28.938 25.3322 28.9778 25.317C29.0175 25.3017 29.05 25.2526 29.05 25.2079C29.05 25.1631 29.1086 25.0024 29.1803 24.8507C29.2518 24.6991 29.3643 24.4602 29.4303 24.32C29.4961 24.1797 29.55 24.037 29.55 24.0029C29.55 23.9687 29.595 23.8836 29.65 23.8136C29.705 23.7437 29.75 23.6476 29.75 23.6C29.75 23.5524 29.795 23.4562 29.85 23.3864C29.905 23.3164 29.95 23.2039 29.95 23.1364C29.95 23.0687 29.9931 22.9586 30.0459 22.8916C30.0986 22.8245 30.1574 22.6862 30.1765 22.5844C30.1956 22.4825 30.2505 22.3487 30.2984 22.2871C30.3463 22.2254 30.4006 22.0929 30.4191 21.9925C30.4375 21.8921 30.4853 21.783 30.525 21.75C30.5648 21.717 30.6119 21.6079 30.6298 21.5075C30.6476 21.4071 30.7044 21.2549 30.7561 21.1691C30.8078 21.0834 30.85 20.9705 30.85 20.9184C30.85 20.8662 30.892 20.7451 30.9434 20.6492C30.9946 20.5534 31.0539 20.3962 31.075 20.3C31.0961 20.2037 31.1554 20.0466 31.2066 19.9507C31.258 19.8549 31.3 19.715 31.3 19.6397C31.3 19.5646 31.3448 19.4171 31.3995 19.3122C31.4543 19.2072 31.5131 19.0096 31.5305 18.8731C31.5478 18.7366 31.5926 18.5757 31.6301 18.5156C31.8423 18.175 31.844 15.749 31.6321 15.5045C31.5943 15.4607 31.5483 15.3264 31.53 15.2057C31.5116 15.0852 31.4524 14.9302 31.3984 14.8615C31.3443 14.7927 31.3 14.698 31.3 14.6509C31.3 14.6039 31.2534 14.5115 31.1964 14.4459C31.1394 14.3801 31.0804 14.2641 31.0651 14.1881C31.0499 14.1121 31.0208 14.05 31.0004 14.05C30.98 14.05 30.8544 13.8869 30.7213 13.6875C30.5061 13.3654 29.8011 12.6081 29.5924 12.475C29.373 12.3351 29.2034 12.2119 28.993 12.0397C28.8655 11.9354 28.7266 11.85 28.6844 11.85C28.6423 11.85 28.5409 11.7937 28.4591 11.725C28.3774 11.6562 28.2663 11.6 28.212 11.6C28.1579 11.6 28.0586 11.5569 27.9916 11.5041C27.9245 11.4514 27.7809 11.3922 27.6724 11.3727C27.5638 11.3532 27.438 11.3051 27.3928 11.2656C27.3475 11.2262 27.1563 11.1722 26.9678 11.1459C26.7793 11.1194 26.535 11.066 26.425 11.0272C26.1926 10.9455 25.0426 10.9025 24.25 10.9461ZM25.5504 12.5045C25.6464 12.5345 25.912 12.5885 26.1405 12.6245C26.3691 12.6605 26.5959 12.726 26.6445 12.77C26.6931 12.814 26.8008 12.85 26.8838 12.85C26.9684 12.85 27.0723 12.8916 27.1205 12.945C27.1679 12.9974 27.2835 13.0545 27.3776 13.0722C27.472 13.0899 27.5723 13.1482 27.6011 13.2021C27.63 13.256 27.6988 13.3 27.754 13.3C27.9158 13.3 29.15 14.403 29.15 14.5475C29.15 14.5732 29.1949 14.6257 29.2499 14.6642C29.3048 14.7027 29.3745 14.8052 29.4048 14.8921C29.435 14.979 29.4776 15.05 29.4995 15.05C29.5213 15.05 29.5755 15.1344 29.6199 15.2375C29.6641 15.3406 29.7215 15.4587 29.7473 15.5C29.8896 15.7285 30.05 16.1892 30.05 16.3699C30.05 16.4874 30.088 16.6315 30.1375 16.7014C30.2684 16.8862 30.2953 18.3259 30.1739 18.65C30.1276 18.7737 30.0725 18.9875 30.0515 19.125C30.0305 19.2625 29.9654 19.4641 29.9066 19.5731C29.848 19.682 29.8 19.8079 29.8 19.8529C29.8 19.8977 29.755 19.9752 29.7 20.025C29.645 20.0747 29.6 20.1482 29.6 20.1882C29.6 20.2731 29.3004 20.75 29.247 20.75C29.2271 20.75 29.1979 20.8017 29.182 20.8649C29.131 21.068 28.2321 21.9054 27.9125 22.0475C27.8506 22.075 27.8 22.1181 27.8 22.1434C27.8 22.1685 27.7156 22.2262 27.6125 22.2716C27.5094 22.317 27.3688 22.3841 27.3 22.4207C26.9716 22.5956 26.7061 22.6972 26.509 22.7235C26.3901 22.7394 26.2336 22.7911 26.1611 22.8386C25.9623 22.969 24.1026 22.9674 23.8634 22.8366C23.7745 22.7881 23.5945 22.734 23.4634 22.7165C23.3323 22.6991 23.1746 22.6457 23.1129 22.598C23.0513 22.5504 22.9208 22.4962 22.8228 22.4779C22.7249 22.4595 22.6323 22.412 22.617 22.3722C22.6018 22.3325 22.5484 22.3 22.4985 22.3C22.4485 22.3 22.3409 22.2437 22.2591 22.175C22.1774 22.1062 22.0865 22.05 22.057 22.05C22.0276 22.05 21.9794 22.005 21.95 21.95C21.9206 21.895 21.8665 21.85 21.8298 21.85C21.6223 21.85 20.4964 20.5054 20.3789 20.117C20.3609 20.0576 20.3133 19.9817 20.2731 19.9484C20.2329 19.915 20.2 19.8477 20.2 19.7989C20.2 19.75 20.144 19.5896 20.0755 19.4425C20.007 19.2954 19.9508 19.0844 19.9505 18.9736C19.9503 18.8629 19.9106 18.7166 19.8625 18.6486C19.7443 18.4815 19.7319 16.9996 19.8471 16.8C19.8869 16.7312 19.9353 16.5442 19.9546 16.3846C19.974 16.2249 20.0234 16.0561 20.0644 16.0096C20.1054 15.963 20.1551 15.8462 20.175 15.75C20.1949 15.6537 20.2401 15.5412 20.2756 15.5C20.311 15.4587 20.3749 15.3406 20.4175 15.2375C20.46 15.1344 20.5158 15.05 20.5413 15.05C20.5666 15.05 20.6006 14.9881 20.6166 14.9125C20.64 14.802 20.8996 14.4632 21.1349 14.2364C21.9119 13.4869 22.135 13.3 22.2531 13.3C22.2979 13.3 22.3741 13.2562 22.4224 13.2029C22.4708 13.1494 22.5779 13.0909 22.6603 13.0727C22.7428 13.0546 22.8529 12.9971 22.9051 12.9449C22.9573 12.8927 23.0593 12.85 23.1316 12.85C23.204 12.85 23.3343 12.8061 23.421 12.7525C23.5129 12.6956 23.7241 12.6401 23.9269 12.6195C24.1184 12.6 24.3425 12.5549 24.425 12.519C24.6089 12.4392 25.312 12.4301 25.5504 12.5045ZM24.175 14.257C23.9825 14.2854 23.7913 14.3376 23.75 14.3734C23.7088 14.409 23.6188 14.4551 23.55 14.4759C23.1505 14.5961 22.05 15.51 22.05 15.7212C22.05 15.7561 22.0063 15.8241 21.9529 15.8724C21.8994 15.9207 21.8403 16.0309 21.8213 16.117C21.8024 16.2031 21.7558 16.2964 21.7176 16.3242C21.6795 16.3521 21.6254 16.5212 21.5973 16.7C21.5691 16.8787 21.51 17.1212 21.4658 17.2389C21.3773 17.4741 21.4005 18.2051 21.5003 18.3252C21.5291 18.36 21.5668 18.5394 21.584 18.7237C21.603 18.9277 21.6408 19.0687 21.6803 19.0839C21.716 19.0976 21.7716 19.1912 21.8039 19.2919C21.8363 19.3926 21.8971 19.5145 21.9394 19.5629C21.9816 19.6111 22.0406 19.6925 22.0705 19.7437C22.1995 19.9641 22.3324 20.1349 22.484 20.275C22.7623 20.5322 22.8165 20.5732 22.9603 20.6351C23.0371 20.6681 23.1 20.7157 23.1 20.7407C23.1 20.7659 23.2013 20.8251 23.325 20.8724C23.4488 20.9196 23.55 20.9775 23.55 21.0011C23.55 21.0246 23.6561 21.0597 23.7858 21.0792C23.9155 21.0986 24.0899 21.1562 24.1733 21.2071C24.3969 21.3435 25.5936 21.3435 25.8611 21.2071C25.9614 21.156 26.124 21.1011 26.2225 21.0851C26.321 21.0691 26.4605 21.0096 26.5325 20.953C26.6045 20.8964 26.702 20.85 26.749 20.85C26.796 20.85 26.8748 20.8056 26.9239 20.7512C26.973 20.697 27.0609 20.6377 27.1191 20.6196C27.249 20.5792 27.95 19.8637 27.95 19.7716C27.95 19.735 28.0063 19.6445 28.075 19.5702C28.1438 19.4961 28.2 19.3967 28.2 19.3495C28.2 19.3021 28.2421 19.2099 28.2936 19.1442C28.3451 19.0786 28.4043 18.9017 28.4249 18.7512C28.4456 18.6006 28.4968 18.425 28.5388 18.361C28.6656 18.1674 28.6506 17.3962 28.5125 17.0122C28.4506 16.8404 28.4 16.6356 28.4 16.5575C28.4 16.4792 28.3564 16.365 28.3031 16.3035C28.2498 16.2421 28.1923 16.1285 28.1753 16.0511C28.1583 15.9736 28.1006 15.8707 28.0471 15.8224C27.9938 15.7741 27.9499 15.7099 27.9498 15.6797C27.9494 15.5969 27.0219 14.7 26.9366 14.7C26.8958 14.7 26.8344 14.6664 26.8003 14.6252C26.766 14.5841 26.6451 14.5234 26.5316 14.4901C26.418 14.457 26.3114 14.4102 26.2949 14.3864C26.2008 14.2506 24.7998 14.1652 24.175 14.257ZM25.5764 15.6157C25.6306 15.6519 25.768 15.7082 25.8816 15.741C25.9951 15.7737 26.116 15.8341 26.1503 15.8752C26.1844 15.9164 26.2419 15.95 26.2781 15.95C26.3778 15.95 26.866 16.528 26.9351 16.7277C26.9685 16.8241 27.0305 16.9376 27.0729 16.98C27.2005 17.1076 27.1826 18.2747 27.05 18.475C26.9954 18.5575 26.9505 18.6557 26.9504 18.6934C26.9495 18.868 26.3943 19.4266 25.9805 19.6691C25.5681 19.9107 24.4069 19.9306 24.1149 19.701C24.0443 19.6455 23.9614 19.5996 23.9308 19.5992C23.8551 19.5982 23.3 19.0789 23.3 19.0091C23.3 18.9785 23.2569 18.9304 23.2041 18.9021C23.1513 18.8739 23.0921 18.7775 23.0725 18.6879C23.053 18.5982 22.9949 18.4714 22.9435 18.4057C22.8064 18.2307 22.8066 17.2467 22.944 17.0215C22.9954 16.9371 23.0546 16.8134 23.0756 16.7465C23.1414 16.5367 23.6514 15.95 23.7681 15.95C23.8064 15.95 23.8656 15.9164 23.8998 15.8752C23.934 15.8341 24.0549 15.7737 24.1684 15.741C24.282 15.7082 24.4194 15.6519 24.4736 15.6157C24.537 15.5735 24.7341 15.55 25.025 15.55C25.3159 15.55 25.513 15.5735 25.5764 15.6157ZM24.7449 17.064C23.9343 17.5635 24.277 18.5687 25.2004 18.4C25.3124 18.3795 25.4124 18.3542 25.4226 18.3439C25.9134 17.8487 25.8584 17.3665 25.2758 17.0561C25.0284 16.9244 24.9703 16.9252 24.7449 17.064Z" fill="#F36307"/>
<path fill-rule="evenodd" clip-rule="evenodd" d="M19.965 17.7C19.965 17.8513 19.9744 17.9131 19.9859 17.8375C19.9972 17.7619 19.9972 17.6381 19.9859 17.5625C19.9744 17.4869 19.965 17.5488 19.965 17.7ZM35.1625 20.3099C35.12 20.3611 35.0979 20.7175 35.0885 21.504L35.075 22.625L34.775 22.6503C34.3356 22.6871 34.35 22.6601 34.35 23.4451V24.1343L34.05 24.409L33.75 24.6839V27.1351C33.75 29.5108 33.7469 29.5905 33.65 29.7136C33.595 29.7836 33.55 29.8836 33.55 29.936C33.55 29.9883 33.5059 30.0785 33.452 30.1363C33.3981 30.1941 33.3399 30.298 33.3225 30.367C33.3052 30.4361 33.248 30.5315 33.1955 30.5791C33.143 30.6266 33.1 30.6981 33.1 30.738C33.1 30.7779 33.0437 30.8774 32.975 30.9591C32.9062 31.0409 32.85 31.1406 32.85 31.1809C32.85 31.2211 32.8082 31.315 32.7571 31.3895C32.5729 31.6585 32.4731 31.8313 32.2954 32.1889C31.9916 32.8004 31.9999 32.9155 31.9867 27.8525C31.9752 23.4029 31.9726 23.2903 31.878 23.221C31.8046 23.1674 31.6024 23.15 31.0505 23.15C30.5807 23.15 30.3001 23.1301 30.2644 23.0944C30.1817 23.0118 30.108 23.0815 30.0712 23.2773C30.0534 23.3728 29.9996 23.5013 29.952 23.5629C29.9042 23.6246 29.8489 23.7425 29.8287 23.825C29.8086 23.9075 29.7641 24.0088 29.7297 24.05C29.6954 24.0913 29.64 24.2206 29.6066 24.3375C29.5732 24.4544 29.5254 24.55 29.5002 24.55C29.4751 24.55 29.4397 24.629 29.4216 24.7254C29.4035 24.8219 29.3496 24.9513 29.302 25.0129C29.2542 25.0746 29.1991 25.1908 29.1795 25.271C29.1599 25.3514 29.1002 25.4725 29.0469 25.5403C28.9936 25.608 28.95 25.7024 28.95 25.75C28.95 25.7976 28.9064 25.892 28.8531 25.9598C28.7997 26.0275 28.7405 26.1486 28.7214 26.229C28.7022 26.3093 28.6586 26.4088 28.6246 26.45C28.5905 26.4913 28.535 26.611 28.5012 26.716C28.4675 26.821 28.4085 26.9191 28.37 26.9339C28.3315 26.9486 28.3 27.0115 28.3 27.0736C28.3 27.1358 28.2564 27.242 28.2031 27.3098C28.1497 27.3775 28.0901 27.4986 28.0705 27.579C28.0509 27.6593 27.9947 27.7766 27.9459 27.8399C27.8969 27.903 27.842 28.0226 27.8237 28.1058C27.8055 28.1888 27.7615 28.2679 27.7259 28.2816C27.6904 28.2953 27.6476 28.3743 27.631 28.4573C27.6145 28.5403 27.5556 28.6656 27.5005 28.7358C27.4452 28.806 27.4 28.9013 27.4 28.9474C27.4 28.9934 27.3576 29.0766 27.3057 29.1323C27.254 29.1879 27.1965 29.3023 27.178 29.3865C27.1595 29.4708 27.1006 29.5793 27.0471 29.6276C26.9937 29.6759 26.95 29.7685 26.95 29.8333C26.95 29.898 26.905 29.9895 26.85 30.0366C26.795 30.0838 26.75 30.1593 26.75 30.2044C26.75 30.2495 26.7082 30.3401 26.6572 30.4058C26.6062 30.4714 26.5365 30.611 26.5022 30.716C26.468 30.821 26.4085 30.9191 26.37 30.9339C26.3315 30.9486 26.3 31.0103 26.3 31.0709C26.3 31.1315 26.2545 31.23 26.199 31.2896C26.1434 31.3493 26.0845 31.4649 26.0682 31.5465C26.0519 31.6281 25.9961 31.7333 25.9442 31.7803C25.8924 31.8271 25.85 31.9028 25.85 31.9484C25.85 31.9939 25.8076 32.0766 25.7557 32.1323C25.704 32.1879 25.6462 32.303 25.6276 32.3883C25.6089 32.4734 25.5594 32.5715 25.5175 32.6063C25.4756 32.6409 25.4071 32.755 25.3652 32.8596C25.3234 32.9644 25.2691 33.05 25.2446 33.05C25.22 33.05 25.2 33.0803 25.2 33.1173C25.2 33.2533 25.0114 33.3716 24.9176 33.2944C24.8419 33.2319 24.8365 33.2375 24.8644 33.35C24.9092 33.5318 24.9179 34.5806 24.875 34.65C24.8279 34.7263 24.5462 34.675 24.3065 34.5465C24.2075 34.4934 24.0699 34.4499 24.0007 34.4496C23.9316 34.4495 23.8075 34.4043 23.725 34.3493C23.6425 34.2941 23.493 34.2265 23.3926 34.199C23.2924 34.1715 23.1977 34.1164 23.1825 34.0766C23.1247 33.926 23.1374 30.1505 23.1959 30.0799C23.239 30.028 23.2354 30.0051 23.181 29.9843C23.1416 29.9691 23.0934 29.8821 23.0739 29.7909C23.0544 29.6996 22.996 29.5848 22.9441 29.5355C22.8924 29.4864 22.8496 29.3964 22.8492 29.3355C22.8487 29.2699 22.8336 29.2481 22.8117 29.2821C22.785 29.3236 22.6932 29.3133 22.475 29.2441C22.31 29.1919 22.0962 29.1549 22 29.162L21.825 29.175L21.8 29.855L21.775 30.5349L21.55 30.7618C21.4262 30.8865 21.2294 31.0951 21.1125 31.2255L20.9 31.4624V33.3466C20.9 35.3209 20.8611 35.6965 20.7002 35.2751C20.6687 35.1926 20.6135 35.0914 20.5774 35.0501C20.5414 35.0088 20.4947 34.9191 20.4739 34.851C20.453 34.7828 20.3941 34.6646 20.343 34.5885C20.2919 34.5123 20.205 34.3834 20.15 34.302C20.0519 34.1569 20.05 34.0714 20.05 29.8794C20.05 25.6654 20.0391 25.35 19.8936 25.35C19.8715 25.35 19.7389 25.2484 19.5989 25.124L19.3445 24.8981L18.2597 24.9115L17.175 24.925L17.1622 29.3109L17.1495 33.6968L17.0415 33.7546C16.9256 33.8165 15.9667 33.7971 15.8591 33.7306C15.8144 33.703 15.8 32.7081 15.8 29.6438C15.8 25.4915 15.7875 25.2028 15.6205 25.5041C15.5836 25.5706 15.5527 25.6971 15.5517 25.7851C15.5481 26.117 15.4189 26.2476 15.0925 26.2494C14.9067 26.2503 14.7497 25.9679 14.695 25.5343C14.6712 25.3468 14.6166 25.0768 14.5736 24.9343C14.5306 24.7916 14.4771 24.4656 14.4549 24.2098C14.4111 23.7069 14.3575 23.5901 14.2219 23.7026C14.0947 23.8081 14.0661 23.9271 14.0002 24.6225C13.9666 24.9778 13.9077 25.3571 13.8695 25.4655C13.8312 25.5739 13.8 25.8145 13.8 26.0001C13.8 26.4296 13.7819 26.4429 13.1722 26.4606L12.675 26.475L12.65 29.6709C12.6219 33.2634 12.6521 33.0495 12.2292 32.6495C11.8921 32.3308 11.8511 32.337 11.5015 32.7619L11.225 33.0979L10.175 33.0865L9.12499 33.075L9.11161 31.829C9.09761 30.5244 9.09036 30.4835 8.86436 30.4268C8.79211 30.4086 8.67749 30.3503 8.60974 30.2969C8.54199 30.2436 8.45011 30.2 8.40574 30.1999C8.36136 30.1999 8.15624 30.1131 7.94999 30.0074C7.21061 29.6279 7.06236 29.6331 6.62461 30.0549C6.47599 30.198 6.29199 30.3561 6.21574 30.4061C6.13949 30.4561 5.96986 30.6024 5.83861 30.7313L5.59999 30.9655V32.5295C5.59999 33.4248 5.57911 34.1484 5.55124 34.2218L5.50249 34.35L3.81374 34.3516C1.72661 34.3535 1.77474 34.3319 2.15511 35.1C2.20274 35.1963 2.26586 35.3313 2.29549 35.4C2.32511 35.4688 2.36786 35.5588 2.39061 35.6C2.55536 35.899 2.69999 36.2108 2.69999 36.2673C2.69999 36.3043 2.74499 36.3753 2.79999 36.425C2.85499 36.4748 2.89999 36.554 2.89999 36.601C2.89999 36.648 2.94249 36.7405 2.99449 36.8066C3.04636 36.8726 3.12586 37.005 3.17099 37.1009C3.29724 37.3688 3.61636 37.9281 3.69799 38.0245C3.77861 38.1195 3.82049 38.187 3.98849 38.4933C4.05099 38.607 4.11986 38.7 4.14174 38.7C4.16361 38.7 4.21961 38.7731 4.26636 38.8625C4.31299 38.9519 4.39024 39.0828 4.43811 39.1533C4.48586 39.2238 4.57399 39.3588 4.63386 39.4533C4.69386 39.5478 4.77449 39.6588 4.81324 39.7C4.85199 39.7413 4.89811 39.8148 4.91561 39.8633C4.93311 39.9118 5.00574 39.9736 5.07699 40.0008C5.26699 40.073 44.7725 40.0683 44.9076 39.9959C45.0362 39.9271 45.2966 39.6426 45.2985 39.5689C45.2994 39.538 45.4125 39.372 45.55 39.2C45.6875 39.028 45.8 38.8694 45.8 38.8475C45.8 38.7979 46.2101 38.1668 46.3477 38.0046C46.404 37.9384 46.4505 37.8596 46.4511 37.8296C46.4517 37.7995 46.4962 37.7188 46.55 37.65C46.6037 37.5813 46.6482 37.4884 46.6489 37.4436C46.6495 37.3989 46.6872 37.3314 46.7327 37.2936C46.7782 37.2559 46.847 37.1496 46.8855 37.0574C46.9241 36.9653 46.977 36.864 47.003 36.8324C47.081 36.7381 47.55 35.7854 47.55 35.7214C47.55 35.6889 47.5836 35.6344 47.6247 35.6003C47.6659 35.566 47.726 35.4451 47.7584 35.3316C47.7907 35.218 47.8454 35.0913 47.8797 35.05C47.9141 35.0088 47.9586 34.9075 47.9787 34.825C47.9989 34.7425 48.0569 34.5966 48.1076 34.5008C48.1585 34.4049 48.2 34.2898 48.2 34.245C48.2 34.2001 48.245 34.1063 48.3 34.0364C48.4976 33.7853 48.4079 33.7456 47.7322 33.7859C47.4236 33.8044 47.2322 33.794 47.1594 33.755L47.05 33.6965V31.1281V28.5598L46.8925 28.5049C46.801 28.473 46.3616 28.45 45.8425 28.45C45.3516 28.45 44.9491 28.4331 44.9481 28.4125C44.9471 28.3919 44.9415 27.986 44.9356 27.5106C44.9236 26.5386 44.9295 26.5533 44.55 26.549C44.0854 26.5438 44.0819 26.5363 44.0782 25.5363C44.0742 24.4636 44.0732 24.4618 43.5316 24.4396L43.175 24.425L43.1619 22.5794C43.1529 21.3188 43.1311 20.7125 43.0932 20.6669C43.0185 20.5769 41.6992 20.5708 41.61 20.66C41.5656 20.7044 41.55 21.1669 41.55 22.4309C41.55 24.3078 41.5509 24.3 41.3502 24.3C41.2736 24.3 41.1635 24.3394 41.1054 24.3875L40.9996 24.475L40.9874 29.2894C40.9765 33.5053 40.9656 34.1095 40.9 34.1511C40.7237 34.2625 39.8001 34.1983 39.65 34.0641C39.6362 34.0519 39.6137 32.7555 39.6 31.1834C39.5779 28.6546 39.5654 28.3049 39.4917 28.15C39.446 28.0538 39.3825 27.885 39.3505 27.775C39.3186 27.665 39.2622 27.5075 39.2254 27.425C39.1885 27.3425 39.1342 27.183 39.1046 27.0706C39.0215 26.7545 38.9479 26.7174 38.2911 26.6608C37.5722 26.5988 37.6 26.6173 37.6 26.2003C37.6 25.7641 37.5411 25.6091 37.3502 25.5426L37.2 25.4903V24.1551C37.2 22.5794 37.2521 22.7 36.5704 22.7C35.957 22.7 35.9885 22.7419 35.9981 21.939C36.0082 21.095 35.996 21.0564 35.5805 20.6159C35.2799 20.2971 35.2134 20.2486 35.1625 20.3099ZM1.34211 32.7015C1.25711 32.751 1.32536 33.1351 1.45736 33.35C1.48261 33.3913 1.53949 33.5088 1.58374 33.6111C1.71261 33.9096 1.76186 33.7858 1.72436 33.2569C1.68424 32.69 1.59174 32.5556 1.34211 32.7015Z" fill="#CCE3EB"/>
<path fill-rule="evenodd" clip-rule="evenodd" d="M24.525 10.7449C24.47 10.7679 24.2 10.8032 23.925 10.8232C23.6392 10.8441 23.3286 10.8987 23.2 10.9507C23.0762 11.0007 22.885 11.0542 22.775 11.0696C22.665 11.085 22.4859 11.1431 22.3769 11.1987C22.268 11.2545 22.1442 11.3019 22.1019 11.3041C22.0596 11.3062 21.89 11.3837 21.725 11.476C21.56 11.5684 21.3575 11.6755 21.275 11.7142C21.1925 11.7529 21.0941 11.8217 21.0564 11.8672C21.0186 11.9127 20.964 11.95 20.9349 11.95C20.8625 11.95 20.15 12.4995 20.15 12.5552C20.15 12.5799 20.1264 12.6 20.0975 12.6C20.0255 12.6 19.7 12.9215 19.7 12.9925C19.7 13.0241 19.6657 13.05 19.6237 13.05C19.5819 13.05 19.5261 13.1062 19.5 13.175C19.4739 13.2437 19.4289 13.3 19.4 13.3C19.3711 13.3 19.3261 13.3562 19.3 13.425C19.2739 13.4937 19.2282 13.55 19.1986 13.55C19.1691 13.55 19.1126 13.6272 19.0732 13.7216C19.0337 13.816 18.9784 13.9075 18.95 13.925C18.9216 13.9425 18.8655 14.0284 18.8252 14.1159C18.785 14.2034 18.7314 14.3087 18.706 14.35C18.5735 14.5664 18.4 14.9726 18.3999 15.0671C18.3997 15.1265 18.356 15.2465 18.3027 15.334C18.2494 15.4214 18.1909 15.6351 18.1726 15.809C18.1545 15.9827 18.1062 16.2262 18.0656 16.35C17.9634 16.6606 17.9617 17.4189 18.0627 17.675C18.1061 17.785 18.1557 18.0302 18.173 18.22C18.1902 18.4097 18.2454 18.6572 18.2956 18.77C18.3457 18.8827 18.4016 19.0722 18.4196 19.191C18.4376 19.3099 18.4839 19.4561 18.5225 19.516C18.561 19.576 18.608 19.715 18.6269 19.825C18.6457 19.935 18.6916 20.0735 18.7287 20.1329C18.7659 20.1921 18.8227 20.3496 18.8551 20.4829C18.8876 20.616 18.9416 20.7587 18.9752 20.8C19.0089 20.8412 19.0497 20.9621 19.0661 21.0687C19.0824 21.1752 19.1301 21.3005 19.1722 21.347C19.2144 21.3935 19.2632 21.5089 19.281 21.6032C19.2986 21.6977 19.3527 21.8425 19.4011 21.925C19.4496 22.0075 19.5044 22.1466 19.5229 22.234C19.5412 22.3215 19.5887 22.4199 19.6282 22.4526C19.6677 22.4854 19.7 22.5511 19.7 22.5986C19.7 22.6462 19.7562 22.7909 19.825 22.9202C19.8937 23.0495 19.95 23.1961 19.95 23.2459C19.95 23.2957 19.9916 23.3901 20.0424 23.4557C20.0931 23.5214 20.1511 23.6425 20.1712 23.725C20.1914 23.8075 20.2377 23.9087 20.2742 23.95C20.3107 23.9912 20.3655 24.118 20.3957 24.2316C20.426 24.3454 20.482 24.4642 20.5201 24.496C20.5582 24.5276 20.6037 24.6292 20.6211 24.7217C20.6385 24.8142 20.6852 24.917 20.725 24.95C20.7647 24.983 20.8115 25.0857 20.8289 25.1782C20.8462 25.2707 20.8917 25.3724 20.9299 25.404C20.968 25.4357 21.0225 25.548 21.051 25.6536C21.0794 25.7591 21.134 25.8769 21.1724 25.9152C21.2107 25.9536 21.2665 26.0757 21.2964 26.1866C21.3262 26.2976 21.3816 26.414 21.4194 26.4452C21.4571 26.4766 21.5007 26.5665 21.5165 26.6451C21.5322 26.7236 21.58 26.8227 21.6225 26.8654C21.6651 26.908 21.7 26.9751 21.7 27.0145C21.7 27.0539 21.7562 27.1689 21.825 27.2702C21.8937 27.3715 21.95 27.4894 21.95 27.532C21.95 27.5746 21.992 27.6692 22.0435 27.7422C22.0949 27.8152 22.1541 27.9312 22.1754 28C22.1965 28.0687 22.2556 28.1786 22.3069 28.2442C22.3581 28.3099 22.4 28.402 22.4 28.449C22.4 28.496 22.445 28.5752 22.5 28.625C22.555 28.6747 22.6 28.7682 22.6 28.8327C22.6 28.8972 22.6439 28.9939 22.6974 29.0474C22.7509 29.1009 22.8186 29.2336 22.8479 29.3422C22.8771 29.4509 22.9317 29.5515 22.9692 29.5659C23.0067 29.5802 23.0515 29.6676 23.0689 29.7601C23.0862 29.8525 23.1454 29.9666 23.2002 30.0136C23.2551 30.0606 23.3 30.1294 23.3 30.1665C23.3 30.2036 23.3731 30.3742 23.4625 30.5455C23.5519 30.7169 23.6542 30.9174 23.6901 30.991C23.7259 31.0647 23.7767 31.1587 23.803 31.2C23.8292 31.2412 23.8755 31.3312 23.9057 31.4C23.936 31.4687 23.9814 31.5587 24.0066 31.6C24.0319 31.6412 24.0976 31.7697 24.1526 31.8854C24.2077 32.0011 24.273 32.1082 24.2976 32.1235C24.3221 32.1387 24.3566 32.216 24.374 32.2954C24.3914 32.3747 24.4494 32.4792 24.5029 32.5276C24.5562 32.5759 24.6 32.6526 24.6 32.698C24.6 32.7434 24.6562 32.8569 24.725 32.95C24.7937 33.0431 24.85 33.146 24.85 33.1786C24.85 33.2111 24.8841 33.2661 24.926 33.3007C25.0112 33.3716 25.2 33.2452 25.2 33.1172C25.2 33.0802 25.22 33.05 25.2446 33.05C25.2691 33.05 25.3234 32.9644 25.3652 32.8596C25.4071 32.755 25.4756 32.6409 25.5175 32.6062C25.5594 32.5715 25.6089 32.4734 25.6276 32.3882C25.6462 32.303 25.704 32.1879 25.7557 32.1322C25.8076 32.0766 25.85 31.9939 25.85 31.9484C25.85 31.9027 25.8924 31.8271 25.9442 31.7802C25.9961 31.7332 26.0519 31.6281 26.0682 31.5465C26.0845 31.4649 26.1434 31.3492 26.199 31.2896C26.2545 31.23 26.3 31.1315 26.3 31.0709C26.3 31.0102 26.3315 30.9486 26.37 30.9339C26.4085 30.9191 26.468 30.821 26.5022 30.716C26.5365 30.611 26.6062 30.4714 26.6572 30.4057C26.7082 30.3401 26.75 30.2495 26.75 30.2044C26.75 30.1592 26.795 30.0837 26.85 30.0366C26.905 29.9895 26.95 29.898 26.95 29.8332C26.95 29.7685 26.9937 29.6759 27.0471 29.6276C27.1006 29.5792 27.1595 29.4707 27.178 29.3865C27.1965 29.3022 27.254 29.1879 27.3057 29.1322C27.3576 29.0766 27.4 28.9934 27.4 28.9474C27.4 28.9012 27.4452 28.806 27.5005 28.7357C27.5556 28.6656 27.6145 28.5402 27.631 28.4572C27.6476 28.3742 27.6904 28.2952 27.7259 28.2816C27.7615 28.2679 27.8055 28.1887 27.8237 28.1057C27.842 28.0226 27.8969 27.903 27.9459 27.8399C27.9947 27.7766 28.0509 27.6592 28.0705 27.579C28.0901 27.4986 28.1497 27.3775 28.2031 27.3097C28.2564 27.242 28.3 27.1357 28.3 27.0736C28.3 27.0115 28.3315 26.9486 28.37 26.9339C28.4085 26.9191 28.4675 26.821 28.5012 26.716C28.535 26.611 28.5905 26.4912 28.6246 26.45C28.6586 26.4087 28.7022 26.3092 28.7214 26.229C28.7405 26.1486 28.7997 26.0275 28.8531 25.9597C28.9064 25.892 28.95 25.7976 28.95 25.75C28.95 25.7024 28.9936 25.608 29.0469 25.5402C29.1002 25.4725 29.1599 25.3514 29.1795 25.271C29.1991 25.1907 29.2542 25.0746 29.302 25.0129C29.3496 24.9512 29.4035 24.8219 29.4216 24.7254C29.4397 24.629 29.4751 24.55 29.5002 24.55C29.5254 24.55 29.5732 24.4544 29.6066 24.3375C29.64 24.2206 29.6954 24.0912 29.7297 24.05C29.7641 24.0087 29.8086 23.9075 29.8287 23.825C29.8489 23.7425 29.9069 23.6214 29.9576 23.5557C30.0084 23.4901 30.05 23.4 30.05 23.3554C30.05 23.3107 30.1062 23.1685 30.175 23.0394C30.2437 22.9102 30.3 22.7612 30.3 22.7084C30.3 22.6555 30.3317 22.5859 30.3706 22.5536C30.4095 22.5214 30.4679 22.3836 30.5006 22.2475C30.5332 22.1114 30.5794 22 30.603 22C30.6267 22 30.6695 21.9044 30.6981 21.7875C30.7267 21.6706 30.7951 21.4917 30.8501 21.3901C30.905 21.2884 30.95 21.1672 30.95 21.121C30.95 21.0747 30.9931 20.9666 31.0457 20.8809C31.0985 20.7951 31.1582 20.6355 31.1785 20.526C31.1989 20.4166 31.2569 20.2591 31.3075 20.176C31.3581 20.093 31.3997 19.9684 31.3999 19.8992C31.3999 19.8301 31.4431 19.6931 31.4957 19.595C31.5484 19.4967 31.6074 19.3059 31.6269 19.1707C31.6462 19.0355 31.6921 18.8907 31.7285 18.8489C31.765 18.807 31.8104 18.6157 31.8292 18.4239C31.8482 18.232 31.8984 18.0075 31.9407 17.925C32.0584 17.6957 32.0795 16.7639 31.977 16.325C31.9321 16.1325 31.8742 15.831 31.8486 15.6551C31.823 15.4791 31.7679 15.2974 31.726 15.2511C31.6842 15.205 31.65 15.1216 31.65 15.066C31.65 15.0104 31.5937 14.8591 31.525 14.7297C31.4562 14.6005 31.4 14.4656 31.4 14.4301C31.4 14.3946 31.355 14.3247 31.3 14.275C31.245 14.2252 31.2 14.156 31.2 14.1211C31.2 14.0862 31.1437 13.9909 31.075 13.9091C31.0062 13.8274 30.95 13.7355 30.95 13.705C30.95 13.6744 30.8937 13.6004 30.825 13.5406C30.7562 13.4809 30.7 13.4117 30.7 13.3871C30.7 13.3624 30.61 13.2557 30.5 13.15C30.39 13.0442 30.3 12.9351 30.3 12.9072C30.3 12.8795 30.2561 12.8429 30.2025 12.8257C30.149 12.8087 30.0912 12.751 30.0742 12.6975C30.0571 12.6439 30.0205 12.6 29.9927 12.6C29.965 12.6 29.8726 12.5302 29.7874 12.4451C29.7022 12.3599 29.5429 12.2305 29.4332 12.1576C29.3237 12.0846 29.1847 11.9912 29.1245 11.95C28.6582 11.6309 28.0775 11.325 27.8381 11.2724C27.7492 11.2529 27.6536 11.2056 27.6257 11.1675C27.5979 11.1294 27.4512 11.0844 27.3 11.0674C27.1487 11.0505 26.9859 11.0026 26.9381 10.9611C26.7971 10.8386 24.7405 10.6542 24.525 10.7449ZM26.247 10.909C26.479 10.9387 26.7427 10.9939 26.8329 11.0315C26.923 11.0691 27.0602 11.1 27.1379 11.1C27.2154 11.1 27.3671 11.145 27.475 11.2C27.5829 11.255 27.6942 11.3 27.7224 11.3C27.7717 11.3 28.2462 11.5142 28.4 11.6059C28.4412 11.6305 28.5537 11.6897 28.65 11.7376C29.2674 12.0446 30.4285 13.0722 30.7899 13.6312C30.8765 13.7654 30.9737 13.9056 31.006 13.9432C31.0382 13.9807 31.1066 14.0932 31.158 14.1932C31.2094 14.2931 31.2736 14.4087 31.3007 14.45C31.3279 14.4912 31.3725 14.5812 31.3999 14.65C31.4274 14.7187 31.4704 14.8087 31.4955 14.85C32.0371 15.7386 32.0366 17.7885 31.4942 19.325C31.4651 19.4075 31.4076 19.5976 31.3665 19.7475C31.3254 19.8974 31.2597 20.0655 31.2209 20.1211C31.1819 20.1767 31.15 20.2687 31.15 20.3255C31.15 20.3824 31.1062 20.5145 31.0529 20.6192C30.9995 20.724 30.9409 20.8807 30.9225 20.9674C30.9042 21.0541 30.8495 21.1925 30.801 21.275C30.7525 21.3575 30.6977 21.4925 30.6794 21.575C30.6609 21.6575 30.6034 21.815 30.5515 21.925C30.4996 22.035 30.3987 22.2712 30.3271 22.45C30.2556 22.6287 30.164 22.8387 30.1235 22.9165C30.0831 22.9944 30.05 23.0924 30.05 23.1341C30.05 23.176 29.9966 23.3149 29.9314 23.4426C29.7857 23.728 29.6455 24.0312 29.4769 24.425C29.4062 24.59 29.3037 24.8082 29.2492 24.9099C29.1946 25.0116 29.15 25.1267 29.15 25.1656C29.15 25.2046 29.1084 25.2901 29.0576 25.3557C29.0069 25.4214 28.9491 25.5411 28.9292 25.622C28.9095 25.7027 28.8499 25.83 28.7966 25.9046C28.7435 25.9794 28.7 26.059 28.7 26.0817C28.7 26.1202 28.3807 26.778 27.4291 28.7C27.218 29.1262 27.0245 29.5087 26.9989 29.55C26.9734 29.5912 26.9186 29.7037 26.8772 29.8C26.8359 29.8962 26.7802 30.0087 26.7536 30.05C26.727 30.0912 26.6719 30.1925 26.6312 30.275C26.5009 30.5392 26.1497 31.2225 26.1044 31.3C26.0801 31.3412 25.985 31.5262 25.8927 31.711C25.8005 31.8959 25.6641 32.1546 25.5897 32.286C25.5154 32.4175 25.4184 32.6006 25.3741 32.6931C25.0782 33.3131 25.0147 33.3266 24.7544 32.825C24.6687 32.66 24.5762 32.4912 24.5486 32.45C24.4705 32.3327 24.1094 31.6442 24.0242 31.45C23.9821 31.3537 23.9269 31.2412 23.9016 31.2C23.8556 31.1247 23.4819 30.4056 23.3599 30.1575C23.3241 30.0846 23.274 29.9912 23.2485 29.95C23.223 29.9087 23.1216 29.7062 23.0231 29.5C22.9246 29.2937 22.8224 29.0912 22.796 29.05C22.7696 29.0087 22.7141 28.8962 22.6727 28.8C22.6314 28.7037 22.5774 28.5912 22.5527 28.55C22.528 28.5087 22.4362 28.3287 22.3486 28.15C22.2611 27.9712 22.1652 27.78 22.1355 27.725C22.1059 27.67 22.0506 27.5575 22.0126 27.475C21.9747 27.3925 21.9225 27.2912 21.8967 27.25C21.8709 27.2087 21.8274 27.1187 21.7999 27.05C21.7725 26.9812 21.7274 26.8912 21.6996 26.85C21.672 26.8087 21.6242 26.7187 21.5935 26.65C21.5629 26.5812 21.4844 26.4121 21.4189 26.2742C21.3535 26.1364 21.2995 26.0014 21.2989 25.9742C21.2982 25.9471 21.2537 25.8687 21.2 25.8C21.1462 25.7312 21.1017 25.6279 21.1011 25.5701C21.1005 25.5125 21.055 25.4134 21 25.35C20.945 25.2866 20.9 25.2115 20.9 25.1831C20.9 25.1547 20.8526 25.0289 20.7946 24.9032C20.7366 24.7777 20.6347 24.5512 20.5682 24.4C20.5017 24.2487 20.3916 24.0181 20.3236 23.8875C20.2556 23.7569 20.2 23.6141 20.2 23.5704C20.2 23.5266 20.155 23.4336 20.1 23.3636C20.045 23.2937 20 23.2044 20 23.1651C20 23.0896 19.8124 22.6497 19.6481 22.3401C19.5941 22.2384 19.5499 22.1146 19.5499 22.0651C19.5497 22.0155 19.5074 21.9056 19.4556 21.8209C19.4039 21.736 19.3454 21.5897 19.3254 21.4959C19.3055 21.4019 19.2466 21.2549 19.1946 21.1691C19.1426 21.0834 19.0992 20.9709 19.0982 20.9191C19.0974 20.8674 19.0531 20.735 19 20.625C18.9469 20.515 18.9026 20.3904 18.9017 20.3481C18.9007 20.3057 18.8565 20.1857 18.8032 20.0814C18.75 19.977 18.6825 19.7799 18.6532 19.6432C18.624 19.5067 18.5689 19.3342 18.5309 19.26C18.4929 19.1857 18.4462 19.0237 18.4272 18.9C18.4082 18.7762 18.3591 18.601 18.3181 18.5105C18.277 18.4201 18.2236 18.1541 18.1994 17.9195C18.1752 17.6849 18.1311 17.4191 18.1012 17.3289C18.0604 17.2047 18.0657 17.0506 18.1234 16.695C18.1652 16.4365 18.2001 16.135 18.2009 16.025C18.2016 15.915 18.2457 15.7291 18.299 15.6117C18.3521 15.4945 18.4111 15.3145 18.4297 15.2117C18.462 15.0352 18.5307 14.8711 18.7174 14.525C18.7619 14.4425 18.8312 14.3054 18.8715 14.2202C18.9537 14.0467 19.3677 13.4187 19.4774 13.3012C19.8914 12.8575 20.2375 12.5381 20.55 12.3112C20.7562 12.1616 20.9812 11.9969 21.05 11.945C21.1187 11.8932 21.2489 11.8177 21.3392 11.7772C21.4296 11.7367 21.5381 11.6691 21.5804 11.6269C21.6226 11.5846 21.6881 11.55 21.7259 11.55C21.7637 11.55 21.9005 11.4937 22.0297 11.425C22.1591 11.3562 22.2929 11.3 22.327 11.3C22.3611 11.3 22.4871 11.2555 22.607 11.2011C22.7269 11.1467 22.884 11.1017 22.956 11.1011C23.028 11.1005 23.2305 11.0529 23.406 10.9954C23.9467 10.8179 25.2301 10.7789 26.247 10.909ZM24.625 12.6044C23.8557 12.7112 23.6525 12.7517 23.3447 12.8594C23.1631 12.923 22.9831 13.0002 22.9447 13.031C22.9064 13.0617 22.7906 13.1141 22.6875 13.1474C22.5844 13.1806 22.5 13.227 22.5 13.2505C22.5 13.274 22.4494 13.3082 22.3875 13.3266C21.8851 13.4756 20.8442 14.5697 20.4789 15.3329C20.4109 15.4747 20.3341 15.6039 20.3084 15.6199C20.2825 15.6359 20.2455 15.7335 20.2262 15.837C20.2069 15.9404 20.1684 16.0525 20.1405 16.0861C19.8184 16.476 19.808 18.6214 20.1249 19.325C20.162 19.4075 20.2196 19.565 20.2527 19.675C20.2859 19.785 20.3345 19.9021 20.3607 19.9352C20.387 19.9684 20.4481 20.0696 20.4966 20.1602C20.6849 20.5124 20.7324 20.5862 20.9569 20.8759C21.2905 21.3064 21.768 21.7402 22.2765 22.075C22.5686 22.2674 23.3874 22.65 23.5066 22.65C23.548 22.65 23.749 22.6945 23.9534 22.7489C24.4844 22.89 25.5832 22.8906 26.075 22.75C26.2674 22.695 26.4672 22.65 26.5194 22.65C26.6117 22.65 26.783 22.5784 27.3571 22.2997C27.6815 22.1422 27.7691 22.0836 28.2834 21.6796C28.6146 21.4195 28.8312 21.1871 29.2346 20.6595C29.2949 20.5806 29.4017 20.408 29.472 20.2759C29.5422 20.1436 29.6202 20.0106 29.6452 19.9802C29.7914 19.8029 30.0769 18.7559 30.1552 18.1102C30.222 17.5595 30.062 16.39 29.8724 16.0422C29.8326 15.9692 29.7992 15.8792 29.7984 15.8422C29.7956 15.7217 29.531 15.2251 29.2045 14.7277C29.0699 14.5226 28.1687 13.6 28.103 13.6C28.0824 13.6 28.0001 13.5437 27.9202 13.475C27.8404 13.4064 27.7499 13.3501 27.7192 13.35C27.6886 13.35 27.6099 13.3082 27.5442 13.2572C27.4786 13.2062 27.3406 13.137 27.2375 13.1034C27.1344 13.0697 27.05 13.0215 27.05 12.9961C27.05 12.9707 27.0157 12.95 26.9737 12.95C26.9319 12.95 26.7687 12.9026 26.6112 12.8447C26.4539 12.7869 26.0437 12.6974 25.7 12.6457C25.0165 12.5434 25.0537 12.5447 24.625 12.6044ZM26.3166 12.8437C26.4495 12.9022 26.6002 12.95 26.6515 12.95C26.7027 12.95 26.8505 13.0062 26.9797 13.075C27.1091 13.1437 27.2572 13.2 27.309 13.2C27.3607 13.2 27.4156 13.2326 27.431 13.2726C27.4462 13.3125 27.5356 13.3705 27.6294 13.4015C27.7232 13.4324 27.8 13.477 27.8 13.5006C27.8 13.5242 27.8787 13.572 27.975 13.6067C28.0712 13.6416 28.15 13.7 28.15 13.7366C28.15 13.7732 28.1894 13.8175 28.2375 13.8351C28.337 13.8714 28.9 14.443 28.9 14.5076C28.9 14.5309 28.9337 14.55 28.975 14.55C29.0162 14.55 29.05 14.582 29.05 14.6211C29.05 14.6602 29.1062 14.7591 29.175 14.8409C29.2437 14.9226 29.3 15.0115 29.3 15.0386C29.3 15.0656 29.3326 15.1147 29.3725 15.1479C29.4122 15.181 29.4721 15.2906 29.5054 15.3915C29.5385 15.4924 29.5931 15.5975 29.6265 15.625C29.6599 15.6525 29.7142 15.7872 29.7474 15.9244C29.7804 16.0615 29.8306 16.2016 29.859 16.2359C30.094 16.519 30.0726 18.8899 29.8319 19.2577C29.7896 19.3222 29.7397 19.4706 29.7211 19.5875C29.7025 19.7044 29.6706 19.8 29.6502 19.8C29.63 19.8 29.565 19.9069 29.5059 20.0375C29.3519 20.378 29.2377 20.5645 29.1375 20.6399C29.0894 20.6761 29.05 20.7269 29.05 20.7529C29.05 20.7787 29.0106 20.841 28.9625 20.8911C28.9144 20.9412 28.8055 21.0594 28.7205 21.1536C28.5886 21.3 28.2006 21.6582 27.9526 21.8627C27.8687 21.9319 27.6434 22.0616 27.4159 22.1715C27.3284 22.2139 27.2441 22.2691 27.2286 22.2942C27.213 22.3194 27.0889 22.3667 26.9526 22.3994C26.8164 22.432 26.6786 22.4905 26.6464 22.5294C26.6141 22.5682 26.5061 22.6007 26.4064 22.6017C26.3066 22.6027 26.09 22.6405 25.925 22.6855C25.501 22.8014 24.5439 22.8284 24.3015 22.7314C24.1986 22.6902 23.9706 22.6411 23.7947 22.6222C23.6189 22.6032 23.4075 22.548 23.325 22.4992C23.2425 22.4506 23.1034 22.3956 23.016 22.3771C22.9285 22.3587 22.8301 22.3112 22.7974 22.2717C22.7646 22.2322 22.712 22.2 22.6805 22.2C22.649 22.2 22.5404 22.1437 22.4392 22.075C22.3381 22.0062 22.2324 21.95 22.2044 21.95C22.101 21.95 20.95 20.8231 20.95 20.7219C20.95 20.6842 20.905 20.6294 20.85 20.6C20.795 20.5706 20.75 20.5165 20.75 20.48C20.75 20.4434 20.7042 20.3552 20.6482 20.2841C20.5922 20.2129 20.5206 20.0805 20.4891 19.9899C20.4575 19.8991 20.4021 19.7952 20.3659 19.7589C20.3296 19.7226 20.3 19.643 20.3 19.582C20.3 19.521 20.2559 19.3846 20.202 19.279C20.0512 18.9832 19.9276 17.796 19.9937 17.2782C20.0221 17.0565 20.0577 16.7612 20.0731 16.6222C20.0884 16.4832 20.1456 16.2816 20.2004 16.1741C20.2552 16.0667 20.3 15.9196 20.3 15.8471C20.3 15.7747 20.3427 15.6767 20.395 15.6295C20.4474 15.5821 20.5046 15.4661 20.5224 15.3717C20.54 15.2772 20.5767 15.2 20.6039 15.2C20.631 15.2 20.6674 15.1606 20.6849 15.1125C20.7334 14.9789 21.014 14.5832 21.1125 14.5096C21.1606 14.4737 21.2 14.4119 21.2 14.3721C21.2 14.3325 21.2322 14.3 21.2716 14.3C21.311 14.3 21.3571 14.2561 21.3742 14.2025C21.3912 14.149 21.4479 14.0916 21.5 14.075C21.5521 14.0584 21.6087 14.001 21.6257 13.9475C21.6429 13.8939 21.6775 13.85 21.7027 13.85C21.7281 13.85 21.8785 13.7534 22.037 13.6354C22.1954 13.5172 22.3812 13.3937 22.45 13.3607C22.5187 13.3277 22.6087 13.2821 22.65 13.2594C22.9905 13.0717 23.2665 12.95 23.3516 12.95C23.4075 12.95 23.5369 12.9127 23.6391 12.8671C24.0885 12.6669 25.8786 12.6512 26.3166 12.8437ZM24.475 13.9931C24.365 14.0136 24.23 14.0542 24.175 14.0834C24.12 14.1125 23.9744 14.1517 23.8512 14.1705C23.7282 14.1894 23.5932 14.2346 23.5512 14.271C23.5094 14.3075 23.389 14.365 23.284 14.3987C23.179 14.4325 23.0809 14.4915 23.0661 14.53C23.0514 14.5685 23.0047 14.6 22.9624 14.6C22.8749 14.6 22.8149 14.6512 22.3125 15.1555C22.1131 15.3555 21.95 15.5545 21.95 15.5976C21.95 15.6407 21.9079 15.7022 21.8562 15.7345C21.8047 15.7666 21.7467 15.8564 21.7274 15.934C21.708 16.0115 21.6622 16.1087 21.6257 16.15C21.5892 16.1912 21.5344 16.3187 21.5039 16.4334C21.4734 16.5479 21.4151 16.7054 21.3745 16.7834C21.2711 16.9815 21.2684 18.4632 21.371 18.66C21.4097 18.7341 21.4777 18.9197 21.5221 19.0725C21.5665 19.2251 21.6246 19.35 21.6514 19.35C21.6781 19.35 21.7 19.3932 21.7 19.4461C21.7 19.499 21.7562 19.6091 21.825 19.6909C21.8937 19.7726 21.95 19.862 21.95 19.8896C21.95 19.9529 22.6772 20.7 22.7389 20.7C22.764 20.7 22.8245 20.7441 22.8732 20.7981C22.9221 20.8521 23.0381 20.9214 23.131 20.952C23.224 20.9826 23.3 21.0276 23.3 21.0519C23.3 21.0761 23.3956 21.1237 23.5125 21.1576C23.6294 21.1916 23.771 21.2484 23.8274 21.2837C24.1649 21.4962 26.1036 21.4779 26.2449 21.2609C26.2614 21.2352 26.3562 21.1995 26.4556 21.1812C26.555 21.163 26.6766 21.1035 26.7259 21.049C26.7751 20.9945 26.8514 20.95 26.8952 20.95C26.9671 20.9499 27.1236 20.8426 27.3587 20.6324C27.4047 20.5912 27.4891 20.5326 27.5462 20.502C27.6032 20.4715 27.65 20.4135 27.65 20.3732C27.65 20.333 27.6822 20.3 27.7216 20.3C27.761 20.3 27.8075 20.255 27.825 20.2C27.8425 20.1449 27.9002 20.0766 27.9534 20.0482C28.0065 20.0197 28.05 19.9724 28.05 19.943C28.05 19.9135 28.1062 19.8226 28.175 19.7409C28.2437 19.6591 28.3 19.5582 28.3 19.5165C28.3 19.4749 28.3425 19.3867 28.3944 19.3209C28.4462 19.2549 28.5046 19.1164 28.524 19.013C28.5434 18.9097 28.581 18.8117 28.6076 18.7952C28.767 18.6967 28.7826 16.9894 28.6266 16.708C28.5861 16.6349 28.5296 16.482 28.5011 16.3684C28.4726 16.2546 28.4157 16.1337 28.3746 16.0997C28.3336 16.0656 28.3 15.9955 28.3 15.9439C28.3 15.8922 28.255 15.805 28.2 15.75C28.145 15.695 28.1 15.6319 28.1 15.6096C28.1 15.4697 27.2155 14.6034 27.0702 14.6009C27.0401 14.6004 26.9759 14.5562 26.9276 14.5029C26.8792 14.4494 26.776 14.3917 26.6982 14.3746C26.6205 14.3575 26.5321 14.3137 26.5019 14.2772C26.4715 14.2407 26.3454 14.1956 26.2215 14.1771C26.0975 14.1585 25.9165 14.11 25.8191 14.0694C25.617 13.9849 24.7746 13.9371 24.475 13.9931ZM25.575 14.1259C25.7675 14.1666 25.97 14.2002 26.025 14.2005C26.08 14.2007 26.2375 14.2562 26.375 14.3239C26.5125 14.3915 26.6451 14.4476 26.6699 14.4484C26.7864 14.4525 27.3115 14.8547 27.6377 15.19C27.9952 15.557 28.0657 15.6537 28.2289 16C28.2741 16.0962 28.3311 16.1875 28.3554 16.2029C28.405 16.2341 28.5767 16.8312 28.6565 17.25C28.8895 18.472 28.156 20.0636 27.0269 20.7862C26.8884 20.8749 26.7542 20.948 26.7289 20.9487C26.7036 20.9494 26.6474 20.9815 26.6039 21.02C26.5605 21.0585 26.4462 21.1134 26.35 21.142C26.2537 21.1706 26.085 21.2281 25.975 21.2697C25.3787 21.4959 23.8955 21.3267 23.3104 20.966C22.6079 20.5329 22.197 20.1729 22.0014 19.819C21.9424 19.7122 21.8186 19.49 21.7261 19.325C21.6337 19.16 21.5562 18.9746 21.5541 18.913C21.5519 18.8515 21.505 18.6827 21.45 18.538C21.3087 18.1662 21.3087 17.315 21.45 16.913C21.505 16.7565 21.55 16.5906 21.55 16.5442C21.55 16.4664 21.7719 16 21.9137 15.7797C22.4041 15.0182 23.366 14.3117 24.075 14.1924C24.2125 14.1691 24.415 14.1302 24.525 14.1059C24.8327 14.0376 25.1905 14.0444 25.575 14.1259ZM24.5519 15.7017C24.4017 15.7557 24.2402 15.8 24.193 15.8C24.1457 15.8 24.0762 15.8309 24.0386 15.8685C24.001 15.9062 23.9037 15.9722 23.8225 16.0152C22.9639 16.4701 22.6355 18.1117 23.26 18.8282C23.3095 18.885 23.35 18.9499 23.35 18.9724C23.35 19.0084 23.5065 19.1626 23.7839 19.4C24.2672 19.8137 25.3604 19.931 25.8755 19.6242C26.3624 19.3342 26.4291 19.2841 26.5515 19.1167C26.6194 19.0237 26.7256 18.8907 26.7875 18.8212C26.8494 18.7517 26.9 18.656 26.9 18.6085C26.9 18.5611 26.9394 18.4666 26.9875 18.3986C27.058 18.299 27.075 18.1684 27.075 17.725C27.075 17.2816 27.058 17.151 26.9875 17.0514C26.9394 16.9834 26.8996 16.8934 26.8991 16.8514C26.8975 16.713 26.3787 16.05 26.2721 16.05C26.2514 16.05 26.1607 15.9937 26.0705 15.925C25.9804 15.8562 25.8657 15.7992 25.8159 15.7984C25.7659 15.7975 25.6012 15.7532 25.45 15.7C25.1026 15.5779 24.8955 15.5782 24.5519 15.7017ZM25.4972 15.8104C25.7272 15.8444 25.9154 15.9022 25.9782 15.9581C26.035 16.0086 26.1049 16.05 26.1335 16.05C26.1776 16.05 26.5511 16.4317 26.7297 16.6594C26.9866 16.9867 27.1197 17.9201 26.9539 18.2297C26.8967 18.3364 26.85 18.4589 26.85 18.502C26.85 18.5452 26.7937 18.6569 26.725 18.75C26.6562 18.8431 26.6 18.9487 26.6 18.9847C26.6 19.0206 26.5641 19.05 26.5204 19.05C26.4765 19.05 26.43 19.0894 26.417 19.1375C26.3912 19.2327 25.9199 19.55 25.8042 19.55C25.765 19.55 25.6941 19.5851 25.6466 19.628C25.5251 19.738 24.4785 19.7411 24.3572 19.6319C24.312 19.5911 24.2147 19.5427 24.1411 19.5244C24.0676 19.506 23.9685 19.448 23.9209 19.3955C23.8734 19.343 23.8092 19.3 23.7784 19.3C23.7126 19.3 23.4854 19.0502 23.3636 18.8441C23.3167 18.7649 23.2627 18.7 23.2436 18.7C23.2245 18.7 23.1939 18.6121 23.1757 18.5046C23.1576 18.3971 23.1114 18.2677 23.073 18.2171C22.9114 18.0037 23.0935 16.7771 23.2969 16.7094C23.3261 16.6996 23.35 16.6661 23.35 16.6349C23.35 16.5579 23.8561 16.05 23.933 16.05C23.9667 16.05 24.0239 16.0079 24.06 15.9564C24.1066 15.8897 24.2194 15.8517 24.4502 15.825C24.6289 15.8044 24.82 15.7691 24.875 15.7469C24.93 15.7245 25.0075 15.7171 25.0472 15.7302C25.087 15.7435 25.2895 15.7795 25.4972 15.8104ZM24.4249 17.0827L24.175 17.3155V17.73C24.175 18.75 25.5876 18.9742 25.8511 17.996C26.0936 17.0951 25.097 16.4569 24.4249 17.0827ZM25.3485 16.9875C25.8486 17.3555 25.9717 17.8306 25.665 18.2086C25.5907 18.3001 25.5236 18.384 25.5159 18.395C25.339 18.6444 24.5904 18.5055 24.3674 18.182C23.9056 17.5119 24.7177 16.5232 25.3485 16.9875Z" fill="#F2B69C"/>
<path fill-rule="evenodd" clip-rule="evenodd" d="M24.35 10.8534C23.9394 10.8779 23.6155 10.9266 23.406 10.9954C23.2305 11.0529 23.028 11.1005 22.956 11.1011C22.884 11.1018 22.7269 11.1468 22.607 11.2011C22.4871 11.2555 22.3611 11.3 22.327 11.3C22.2929 11.3 22.1591 11.3563 22.0297 11.425C21.9005 11.4938 21.7637 11.55 21.7259 11.55C21.6881 11.55 21.6226 11.5846 21.5804 11.6269C21.5381 11.6691 21.4296 11.7368 21.3392 11.7773C21.2489 11.8178 21.1187 11.8933 21.05 11.945C20.9812 11.9969 20.7562 12.1616 20.55 12.3112C20.2375 12.5381 19.8914 12.8575 19.4774 13.3013C19.3677 13.4188 18.9537 14.0467 18.8715 14.2202C18.8312 14.3054 18.7619 14.4425 18.7174 14.525C18.5307 14.8711 18.462 15.0352 18.4297 15.2117C18.4111 15.3145 18.3521 15.4945 18.299 15.6117C18.2457 15.7291 18.2016 15.915 18.2009 16.025C18.2001 16.135 18.1652 16.4365 18.1234 16.695C18.0657 17.0506 18.0604 17.2047 18.1012 17.3289C18.1311 17.4191 18.1752 17.6849 18.1994 17.9195C18.2236 18.1541 18.277 18.4201 18.3181 18.5105C18.3591 18.601 18.4082 18.7762 18.4272 18.9C18.4462 19.0237 18.4929 19.1857 18.5309 19.26C18.5689 19.3342 18.624 19.5067 18.6532 19.6432C18.6825 19.7799 18.75 19.977 18.8032 20.0814C18.8565 20.1857 18.9007 20.3057 18.9017 20.3481C18.9026 20.3904 18.9469 20.515 19 20.625C19.0531 20.735 19.0974 20.8674 19.0982 20.9191C19.0992 20.9709 19.1426 21.0834 19.1946 21.1691C19.2466 21.2549 19.3055 21.4019 19.3254 21.4959C19.3454 21.5897 19.4039 21.736 19.4556 21.8209C19.5074 21.9056 19.5497 22.0155 19.5499 22.0651C19.5499 22.1146 19.5941 22.2384 19.6481 22.3401C19.8124 22.6497 20 23.0896 20 23.1651C20 23.2044 20.045 23.2937 20.1 23.3636C20.155 23.4336 20.2 23.5266 20.2 23.5704C20.2 23.6141 20.2556 23.7569 20.3236 23.8875C20.3916 24.0181 20.5017 24.2487 20.5682 24.4C20.6347 24.5512 20.7366 24.7777 20.7946 24.9032C20.8526 25.0289 20.9 25.1547 20.9 25.1831C20.9 25.2115 20.945 25.2866 21 25.35C21.055 25.4134 21.1005 25.5125 21.1011 25.5701C21.1017 25.6279 21.1462 25.7312 21.2 25.8C21.2537 25.8687 21.2982 25.9471 21.2989 25.9742C21.2995 26.0014 21.3535 26.1364 21.4189 26.2742C21.4844 26.4121 21.5629 26.5812 21.5935 26.65C21.6242 26.7187 21.672 26.8087 21.6996 26.85C21.7274 26.8912 21.7725 26.9812 21.7999 27.05C21.8274 27.1187 21.8709 27.2087 21.8967 27.25C21.9225 27.2912 21.9747 27.3925 22.0126 27.475C22.0506 27.5575 22.1059 27.67 22.1355 27.725C22.1652 27.78 22.2611 27.9712 22.3486 28.15C22.4362 28.3287 22.528 28.5087 22.5527 28.55C22.5774 28.5912 22.6314 28.7037 22.6727 28.8C22.7141 28.8962 22.7696 29.0087 22.796 29.05C22.8224 29.0912 22.9246 29.2937 23.0231 29.5C23.1216 29.7062 23.223 29.9087 23.2485 29.95C23.274 29.9912 23.3241 30.0846 23.3599 30.1575C23.4819 30.4056 23.8556 31.1247 23.9016 31.2C23.9269 31.2412 23.9821 31.3537 24.0242 31.45C24.1094 31.6442 24.4705 32.3327 24.5486 32.45C24.5762 32.4912 24.6687 32.66 24.7544 32.825C25.0147 33.3266 25.0782 33.3131 25.3741 32.6931C25.4184 32.6006 25.5154 32.4175 25.5897 32.286C25.6641 32.1546 25.8005 31.8959 25.8927 31.711C25.985 31.5262 26.0801 31.3412 26.1044 31.3C26.1497 31.2225 26.5009 30.5392 26.6312 30.275C26.6719 30.1925 26.727 30.0912 26.7536 30.05C26.7802 30.0087 26.8359 29.8962 26.8772 29.8C26.9186 29.7037 26.9734 29.5912 26.9989 29.55C27.0245 29.5087 27.218 29.1262 27.4291 28.7C28.3807 26.778 28.7 26.1202 28.7 26.0817C28.7 26.059 28.7435 25.9794 28.7966 25.9046C28.8499 25.83 28.9095 25.7027 28.9292 25.622C28.9491 25.5411 29.0069 25.4214 29.0576 25.3557C29.1084 25.2901 29.15 25.2046 29.15 25.1656C29.15 25.1267 29.1946 25.0116 29.2492 24.9099C29.3037 24.8082 29.4062 24.59 29.4769 24.425C29.6455 24.0312 29.7857 23.728 29.9314 23.4426C29.9966 23.3149 30.05 23.176 30.05 23.1341C30.05 23.0924 30.0831 22.9944 30.1235 22.9165C30.164 22.8387 30.2556 22.6287 30.3271 22.45C30.3987 22.2712 30.4996 22.035 30.5515 21.925C30.6034 21.815 30.6609 21.6575 30.6794 21.575C30.6977 21.4925 30.7525 21.3575 30.801 21.275C30.8495 21.1925 30.9043 21.0541 30.9225 20.9674C30.9409 20.8807 30.9995 20.724 31.0529 20.6192C31.1063 20.5145 31.15 20.3824 31.15 20.3255C31.15 20.2687 31.1819 20.1767 31.2209 20.1211C31.2597 20.0655 31.3254 19.8974 31.3665 19.7475C31.4076 19.5976 31.4651 19.4075 31.4942 19.325C32.0366 17.7885 32.0371 15.7386 31.4955 14.85C31.4704 14.8087 31.4274 14.7187 31.3999 14.65C31.3725 14.5812 31.3279 14.4912 31.3008 14.45C31.2736 14.4087 31.2094 14.2931 31.158 14.1932C31.1066 14.0932 31.0383 13.9807 31.006 13.9432C30.9737 13.9056 30.8765 13.7654 30.7899 13.6313C30.4285 13.0723 29.2674 12.0446 28.65 11.7376C28.5537 11.6898 28.4412 11.6305 28.4 11.6059C28.2462 11.5143 27.7717 11.3 27.7224 11.3C27.6942 11.3 27.5829 11.255 27.475 11.2C27.3671 11.145 27.2154 11.1 27.1379 11.1C27.0602 11.1 26.923 11.0691 26.8329 11.0315C26.4657 10.8781 25.3169 10.7956 24.35 10.8534ZM26.425 11.0273C26.535 11.066 26.7792 11.1194 26.9677 11.1459C27.1562 11.1723 27.3475 11.2263 27.3927 11.2656C27.438 11.3051 27.5637 11.3533 27.6724 11.3728C27.7809 11.3923 27.9245 11.4514 27.9916 11.5041C28.0586 11.5569 28.1579 11.6 28.212 11.6C28.2662 11.6 28.3774 11.6563 28.4591 11.725C28.5409 11.7938 28.6422 11.85 28.6844 11.85C28.7266 11.85 28.8655 11.9354 28.993 12.0398C29.2034 12.2119 29.373 12.3351 29.5924 12.475C29.8011 12.6081 30.5061 13.3654 30.7212 13.6875C30.8544 13.8869 30.98 14.05 31.0004 14.05C31.0208 14.05 31.0499 14.1121 31.0651 14.1881C31.0804 14.2641 31.1394 14.3801 31.1964 14.4459C31.2534 14.5115 31.3 14.6039 31.3 14.6509C31.3 14.698 31.3442 14.7927 31.3984 14.8615C31.4524 14.9302 31.5116 15.0852 31.53 15.2057C31.5483 15.3264 31.5943 15.4607 31.6321 15.5045C31.844 15.749 31.8422 18.175 31.6301 18.5156C31.5926 18.5757 31.5478 18.7366 31.5305 18.8731C31.5131 19.0096 31.4542 19.2072 31.3995 19.3122C31.3447 19.4171 31.3 19.5646 31.3 19.6397C31.3 19.715 31.258 19.8549 31.2066 19.9507C31.1554 20.0466 31.0961 20.2037 31.075 20.3C31.0539 20.3962 30.9946 20.5534 30.9434 20.6492C30.892 20.7451 30.85 20.8662 30.85 20.9184C30.85 20.9705 30.8077 21.0834 30.7561 21.1691C30.7044 21.2549 30.6476 21.4071 30.6297 21.5075C30.6119 21.6079 30.5647 21.717 30.525 21.75C30.4852 21.783 30.4375 21.8921 30.4191 21.9925C30.4006 22.0929 30.3462 22.2254 30.2984 22.2871C30.2505 22.3487 30.1956 22.4825 30.1765 22.5844C30.1574 22.6862 30.0986 22.8245 30.0459 22.8916C29.9931 22.9586 29.95 23.0687 29.95 23.1364C29.95 23.2039 29.905 23.3164 29.85 23.3864C29.795 23.4562 29.75 23.5524 29.75 23.6C29.75 23.6476 29.705 23.7437 29.65 23.8136C29.595 23.8836 29.55 23.9687 29.55 24.0029C29.55 24.037 29.4961 24.1797 29.4302 24.32C29.3642 24.4602 29.2517 24.6991 29.1802 24.8507C29.1086 25.0024 29.05 25.1631 29.05 25.2079C29.05 25.2526 29.0175 25.3017 28.9777 25.317C28.938 25.3322 28.8906 25.424 28.8725 25.5207C28.8544 25.6176 28.7969 25.746 28.7447 25.8061C28.6926 25.8661 28.65 25.9646 28.65 26.0249C28.65 26.0851 28.6055 26.1749 28.551 26.2241C28.4965 26.2734 28.438 26.3879 28.421 26.4786C28.404 26.5692 28.3474 26.6821 28.295 26.7295C28.2427 26.7767 28.2 26.8649 28.2 26.9251C28.2 26.9854 28.1544 27.0872 28.0986 27.1516C28.0429 27.2159 27.9836 27.3261 27.9669 27.3967C27.9502 27.4672 27.9086 27.5587 27.8746 27.6C27.8405 27.6412 27.7861 27.7576 27.7537 27.8585C27.7214 27.9594 27.6622 28.069 27.6225 28.1021C27.5826 28.1352 27.55 28.2001 27.55 28.2464C27.55 28.2927 27.4937 28.4069 27.425 28.5C27.3562 28.5931 27.3 28.707 27.3 28.753C27.3 28.7989 27.255 28.8937 27.2 28.9636C27.145 29.0336 27.1 29.1236 27.1 29.1636C27.1 29.2037 27.0586 29.2901 27.008 29.3557C26.9574 29.4214 26.8909 29.5487 26.8601 29.639C26.8294 29.7291 26.7695 29.8376 26.7271 29.88C26.6846 29.9225 26.65 29.9961 26.65 30.0439C26.65 30.0915 26.5937 30.2069 26.525 30.3C26.4562 30.3931 26.4 30.5066 26.4 30.552C26.4 30.5974 26.355 30.6752 26.3 30.725C26.245 30.7747 26.2 30.8647 26.2 30.925C26.2 30.9852 26.1562 31.0741 26.1029 31.1224C26.0494 31.1707 25.9905 31.2811 25.972 31.3676C25.9535 31.4542 25.896 31.5652 25.8441 31.6145C25.7924 31.6636 25.75 31.7482 25.75 31.8024C25.75 31.8566 25.7051 31.9394 25.6502 31.9864C25.5954 32.0334 25.5362 32.1475 25.5189 32.2399C25.5015 32.3324 25.4567 32.4197 25.4192 32.4341C25.3817 32.4485 25.3275 32.548 25.2986 32.6551C25.2697 32.7624 25.224 32.85 25.1969 32.85C25.1697 32.85 25.1261 32.9062 25.1 32.975C25.0296 33.16 24.9925 33.1321 24.8 32.7501C24.7037 32.5591 24.5792 32.3125 24.5232 32.2022C24.4674 32.0919 24.3942 31.9742 24.3607 31.9407C24.3274 31.9074 24.3 31.8406 24.3 31.7926C24.3 31.7445 24.2437 31.6445 24.175 31.5702C24.1062 31.4961 24.05 31.3859 24.05 31.3255C24.05 31.265 24.0076 31.1771 23.9557 31.1302C23.9039 31.0832 23.8475 30.9749 23.8304 30.8894C23.8132 30.8039 23.7545 30.7025 23.6996 30.6641C23.6449 30.6257 23.6 30.5394 23.6 30.4721C23.6 30.405 23.5556 30.3056 23.5012 30.2512C23.447 30.197 23.3875 30.0901 23.3692 30.0137C23.3509 29.9375 23.2941 29.8347 23.243 29.7855C23.1919 29.7364 23.15 29.655 23.15 29.6047C23.15 29.5546 23.105 29.4562 23.05 29.3864C22.995 29.3164 22.95 29.2139 22.95 29.1585C22.95 29.103 22.8937 28.9909 22.825 28.9091C22.7562 28.8274 22.7 28.716 22.7 28.6614C22.7 28.6069 22.6674 28.5352 22.6275 28.5021C22.5877 28.469 22.5286 28.3594 22.4962 28.2585C22.4639 28.1576 22.4082 28.0412 22.3726 28C22.337 27.9587 22.2927 27.8647 22.2744 27.7911C22.256 27.7176 22.198 27.6185 22.1455 27.5709C22.093 27.5234 22.05 27.4317 22.05 27.3672C22.05 27.3027 22.0042 27.2042 21.9484 27.1485C21.8926 27.0926 21.8337 26.9812 21.8177 26.901C21.8016 26.8207 21.7461 26.7167 21.6942 26.6697C21.6424 26.6229 21.6 26.524 21.6 26.45C21.6 26.376 21.5572 26.2767 21.505 26.2295C21.4526 26.1821 21.3959 26.0685 21.3786 25.9767C21.3614 25.8851 21.3156 25.7837 21.2769 25.7516C21.2381 25.7194 21.1907 25.6215 21.1717 25.534C21.1526 25.4466 21.0949 25.3214 21.0435 25.2557C20.9921 25.1901 20.9499 25.1001 20.9497 25.0557C20.9496 25.0114 20.894 24.885 20.8262 24.775C20.7585 24.665 20.7024 24.5271 20.7015 24.4686C20.7007 24.4101 20.6657 24.3339 20.624 24.2991C20.5821 24.2644 20.5236 24.1395 20.4939 24.0214C20.4641 23.9034 20.4106 23.7956 20.3749 23.7819C20.3392 23.7681 20.2942 23.6639 20.275 23.55C20.2557 23.4361 20.2091 23.3311 20.1714 23.3167C20.1336 23.3022 20.0887 23.2081 20.0716 23.1076C20.0546 23.0072 19.9961 22.8619 19.9417 22.7846C19.8872 22.7075 19.8304 22.5677 19.8152 22.4742C19.8 22.3807 19.7454 22.2661 19.6937 22.2194C19.6415 22.1721 19.5992 22.066 19.5985 21.9797C19.5976 21.8946 19.5415 21.735 19.4737 21.625C19.406 21.515 19.3504 21.376 19.3502 21.3161C19.3501 21.2561 19.3157 21.1729 19.274 21.1311C19.2321 21.0892 19.1794 20.9559 19.1567 20.8346C19.1341 20.7134 19.0782 20.5609 19.0327 20.4959C18.9872 20.4309 18.95 20.3207 18.95 20.251C18.95 20.1812 18.8937 20.0185 18.825 19.8894C18.7562 19.7602 18.7 19.5831 18.7 19.4957C18.7 19.4082 18.6577 19.2666 18.6062 19.1809C18.5546 19.0951 18.497 18.9012 18.4782 18.75C18.4594 18.5987 18.4145 18.4295 18.3782 18.3739C18.1909 18.0854 18.1866 15.8631 18.3731 15.65C18.4092 15.6087 18.464 15.4547 18.4949 15.3077C18.5257 15.1607 18.5845 14.9926 18.6255 14.9341C18.6665 14.8756 18.7 14.7776 18.7 14.7165C18.7 14.6552 18.7562 14.5445 18.825 14.4702C18.8937 14.3961 18.95 14.2835 18.95 14.2201C18.95 14.1569 18.9786 14.087 19.0137 14.065C19.0487 14.043 19.1155 13.9687 19.1621 13.9C19.2087 13.8312 19.3147 13.685 19.3976 13.575C19.4805 13.465 19.5635 13.3437 19.5821 13.3056C19.6275 13.2127 20.1421 12.7 20.19 12.7C20.2107 12.7 20.2644 12.6606 20.309 12.6125C20.3537 12.5644 20.474 12.4687 20.5764 12.4C20.6787 12.3312 20.8102 12.2294 20.8687 12.1735C20.9271 12.1178 21.0312 12.0441 21.1 12.01C21.1687 11.9759 21.315 11.8933 21.425 11.8264C21.535 11.7595 21.6812 11.6785 21.75 11.6464C21.8187 11.6141 21.9879 11.5344 22.1257 11.4689C22.2636 11.4035 22.4217 11.35 22.4771 11.35C22.5325 11.35 22.6256 11.3165 22.6841 11.2755C22.7426 11.2345 22.952 11.1781 23.1492 11.1501C23.3466 11.1221 23.5569 11.0713 23.6165 11.0371C23.8564 10.8998 26.0412 10.8921 26.425 11.0273ZM24.425 12.519C24.3425 12.5549 24.1184 12.6 23.9269 12.6195C23.7241 12.6401 23.5129 12.6956 23.421 12.7525C23.3342 12.8061 23.204 12.85 23.1316 12.85C23.0592 12.85 22.9572 12.8927 22.9051 12.9449C22.8529 12.9971 22.7427 13.0546 22.6602 13.0728C22.5779 13.0909 22.4707 13.1494 22.4224 13.2029C22.3741 13.2563 22.2979 13.3 22.2531 13.3C22.135 13.3 21.9119 13.4869 21.1349 14.2364C20.8996 14.4632 20.64 14.802 20.6166 14.9125C20.6006 14.9881 20.5666 15.05 20.5412 15.05C20.5157 15.05 20.46 15.1344 20.4175 15.2375C20.3749 15.3406 20.311 15.4587 20.2756 15.5C20.2401 15.5412 20.1949 15.6537 20.175 15.75C20.1551 15.8462 20.1054 15.963 20.0644 16.0096C20.0234 16.0561 19.974 16.2249 19.9546 16.3846C19.9352 16.5442 19.8869 16.7312 19.8471 16.8C19.7319 16.9996 19.7442 18.4815 19.8625 18.6486C19.9106 18.7166 19.9502 18.8629 19.9505 18.9736C19.9507 19.0844 20.007 19.2954 20.0755 19.4425C20.144 19.5896 20.2 19.75 20.2 19.7989C20.2 19.8477 20.2329 19.915 20.2731 19.9484C20.3132 19.9817 20.3609 20.0576 20.3789 20.117C20.4964 20.5054 21.6222 21.85 21.8297 21.85C21.8665 21.85 21.9206 21.895 21.95 21.95C21.9794 22.005 22.0276 22.05 22.057 22.05C22.0865 22.05 22.1774 22.1062 22.2591 22.175C22.3409 22.2437 22.4485 22.3 22.4985 22.3C22.5484 22.3 22.6017 22.3325 22.617 22.3722C22.6322 22.412 22.7249 22.4595 22.8227 22.4779C22.9207 22.4962 23.0512 22.5504 23.1129 22.598C23.1746 22.6457 23.3322 22.6991 23.4634 22.7165C23.5945 22.734 23.7745 22.7881 23.8634 22.8366C24.1026 22.9674 25.9622 22.969 26.1611 22.8386C26.2336 22.7911 26.3901 22.7394 26.509 22.7235C26.7061 22.6972 26.9716 22.5956 27.3 22.4207C27.3687 22.3841 27.5094 22.317 27.6125 22.2716C27.7156 22.2262 27.8 22.1685 27.8 22.1434C27.8 22.1181 27.8506 22.075 27.9125 22.0475C28.2321 21.9054 29.131 21.068 29.182 20.8649C29.1979 20.8017 29.2271 20.75 29.247 20.75C29.3004 20.75 29.6 20.2731 29.6 20.1882C29.6 20.1482 29.645 20.0747 29.7 20.025C29.755 19.9752 29.8 19.8977 29.8 19.8529C29.8 19.8079 29.848 19.682 29.9066 19.5731C29.9654 19.4641 30.0305 19.2625 30.0515 19.125C30.0725 18.9875 30.1276 18.7737 30.1739 18.65C30.2952 18.3259 30.2684 16.8862 30.1375 16.7014C30.088 16.6315 30.05 16.4874 30.05 16.3699C30.05 16.1892 29.8896 15.7285 29.7472 15.5C29.7215 15.4587 29.6641 15.3406 29.6199 15.2375C29.5755 15.1344 29.5212 15.05 29.4995 15.05C29.4776 15.05 29.435 14.979 29.4047 14.8921C29.3745 14.8052 29.3047 14.7027 29.2499 14.6642C29.1949 14.6257 29.15 14.5732 29.15 14.5475C29.15 14.403 27.9157 13.3 27.754 13.3C27.6987 13.3 27.63 13.256 27.6011 13.2021C27.5722 13.1482 27.472 13.0899 27.3776 13.0723C27.2835 13.0545 27.1679 12.9974 27.1205 12.945C27.0722 12.8916 26.9684 12.85 26.8837 12.85C26.8007 12.85 26.6931 12.814 26.6445 12.77C26.5959 12.726 26.3691 12.6605 26.1405 12.6245C25.912 12.5885 25.6464 12.5345 25.5504 12.5045C25.312 12.4301 24.6089 12.4393 24.425 12.519ZM25.7 12.6458C26.0437 12.6974 26.4539 12.7869 26.6112 12.8448C26.7687 12.9026 26.9319 12.95 26.9737 12.95C27.0157 12.95 27.05 12.9708 27.05 12.9961C27.05 13.0215 27.1344 13.0698 27.2375 13.1034C27.3406 13.137 27.4786 13.2062 27.5442 13.2572C27.6099 13.3082 27.6886 13.35 27.7192 13.35C27.7499 13.3501 27.8404 13.4064 27.9202 13.475C28.0001 13.5438 28.0824 13.6 28.103 13.6C28.1687 13.6 29.0699 14.5226 29.2045 14.7277C29.531 15.2251 29.7956 15.7217 29.7984 15.8422C29.7992 15.8792 29.8326 15.9692 29.8724 16.0422C30.062 16.39 30.222 17.5595 30.1552 18.1102C30.0769 18.7559 29.7914 19.8029 29.6452 19.9802C29.6202 20.0106 29.5422 20.1436 29.472 20.2759C29.4017 20.408 29.2949 20.5806 29.2346 20.6595C28.8312 21.1871 28.6146 21.4195 28.2834 21.6796C27.7691 22.0836 27.6815 22.1422 27.3571 22.2997C26.783 22.5784 26.6117 22.65 26.5194 22.65C26.4672 22.65 26.2674 22.695 26.075 22.75C25.5832 22.8906 24.4844 22.89 23.9534 22.7489C23.749 22.6945 23.548 22.65 23.5066 22.65C23.3874 22.65 22.5686 22.2674 22.2765 22.075C21.768 21.7402 21.2905 21.3064 20.9569 20.8759C20.7324 20.5862 20.6849 20.5124 20.4966 20.1602C20.4481 20.0696 20.387 19.9684 20.3607 19.9352C20.3345 19.9021 20.2859 19.785 20.2527 19.675C20.2196 19.565 20.162 19.4075 20.1249 19.325C19.808 18.6214 19.8184 16.476 20.1405 16.0861C20.1684 16.0525 20.2069 15.9404 20.2262 15.837C20.2455 15.7335 20.2825 15.6359 20.3084 15.6199C20.3341 15.6039 20.4109 15.4747 20.4789 15.3329C20.8442 14.5697 21.8851 13.4756 22.3875 13.3266C22.4494 13.3082 22.5 13.274 22.5 13.2505C22.5 13.227 22.5844 13.1806 22.6875 13.1474C22.7906 13.1141 22.9064 13.0618 22.9447 13.031C23.0634 12.9359 23.6584 12.7464 24 12.6949C24.4581 12.626 24.9117 12.5636 25 12.5574C25.0412 12.5545 25.3562 12.5943 25.7 12.6458ZM24.525 14.1059C24.415 14.1302 24.2125 14.1691 24.075 14.1924C23.366 14.3117 22.4041 15.0182 21.9137 15.7797C21.7719 16 21.55 16.4664 21.55 16.5442C21.55 16.5906 21.505 16.7565 21.45 16.913C21.3087 17.315 21.3087 18.1662 21.45 18.538C21.505 18.6827 21.5519 18.8515 21.5541 18.913C21.5562 18.9746 21.6337 19.16 21.7261 19.325C21.8186 19.49 21.9424 19.7122 22.0014 19.819C22.197 20.1729 22.6079 20.5329 23.3104 20.966C23.8955 21.3267 25.3787 21.4959 25.975 21.2697C26.085 21.2281 26.2537 21.1706 26.35 21.142C26.4462 21.1134 26.5605 21.0585 26.6039 21.02C26.6474 20.9815 26.7036 20.9494 26.7289 20.9487C26.7829 20.9472 27.2239 20.6696 27.402 20.525C27.5334 20.4184 27.9092 19.9734 28.0777 19.725C28.5346 19.0515 28.791 17.9554 28.6565 17.25C28.5767 16.8312 28.405 16.2341 28.3554 16.2029C28.3311 16.1875 28.2741 16.0962 28.2289 16C28.0657 15.6537 27.9952 15.557 27.6377 15.19C27.3115 14.8547 26.7864 14.4525 26.6699 14.4484C26.6451 14.4476 26.5125 14.3915 26.375 14.3239C26.2375 14.2562 26.08 14.2007 26.025 14.2005C25.97 14.2002 25.7675 14.1666 25.575 14.1259C25.1905 14.0444 24.8327 14.0376 24.525 14.1059ZM26.0699 14.2959C26.177 14.3216 26.2782 14.3624 26.2949 14.3864C26.3114 14.4102 26.418 14.457 26.5316 14.4901C26.6451 14.5234 26.766 14.5841 26.8002 14.6252C26.8344 14.6664 26.8957 14.7 26.9366 14.7C27.0219 14.7 27.9494 15.5969 27.9497 15.6797C27.9499 15.7099 27.9937 15.7741 28.0471 15.8224C28.1006 15.8707 28.1582 15.9736 28.1752 16.0511C28.1922 16.1285 28.2497 16.2421 28.3031 16.3035C28.3564 16.365 28.4 16.4792 28.4 16.5575C28.4 16.6356 28.4506 16.8404 28.5125 17.0122C28.6506 17.3962 28.6656 18.1674 28.5387 18.361C28.4967 18.425 28.4456 18.6006 28.4249 18.7512C28.4042 18.9017 28.3451 19.0786 28.2936 19.1442C28.2421 19.2099 28.2 19.3021 28.2 19.3495C28.2 19.3967 28.1437 19.4961 28.075 19.5702C28.0062 19.6445 27.95 19.735 27.95 19.7716C27.95 19.8637 27.249 20.5792 27.1191 20.6196C27.0609 20.6377 26.973 20.697 26.9239 20.7512C26.8747 20.8056 26.796 20.85 26.749 20.85C26.702 20.85 26.6045 20.8964 26.5325 20.953C26.4605 21.0096 26.321 21.0691 26.2225 21.0851C26.124 21.1011 25.9614 21.156 25.8611 21.2071C25.5936 21.3435 24.3969 21.3435 24.1732 21.2071C24.0899 21.1562 23.9155 21.0986 23.7857 21.0792C23.6561 21.0597 23.55 21.0246 23.55 21.0011C23.55 20.9775 23.4487 20.9196 23.325 20.8724C23.2012 20.8251 23.1 20.7659 23.1 20.7407C23.1 20.7157 23.0371 20.6681 22.9602 20.6351C22.8165 20.5732 22.7622 20.5322 22.484 20.275C22.3324 20.1349 22.1995 19.9641 22.0705 19.7437C22.0406 19.6925 21.9816 19.6111 21.9394 19.5629C21.8971 19.5145 21.8362 19.3926 21.8039 19.2919C21.7716 19.1912 21.716 19.0976 21.6802 19.0839C21.6407 19.0687 21.603 18.9277 21.584 18.7237C21.5667 18.5394 21.5291 18.36 21.5002 18.3252C21.4005 18.2051 21.3772 17.4741 21.4657 17.2389C21.51 17.1212 21.5691 16.8787 21.5972 16.7C21.6254 16.5212 21.6795 16.3521 21.7176 16.3242C21.7557 16.2964 21.8024 16.2031 21.8212 16.117C21.8402 16.0309 21.8994 15.9207 21.9529 15.8724C22.0062 15.8241 22.05 15.7561 22.05 15.7212C22.05 15.51 23.1505 14.5961 23.55 14.4759C23.6187 14.4551 23.7087 14.409 23.75 14.3734C23.9297 14.2179 25.5245 14.1647 26.0699 14.2959ZM24.4736 15.6157C24.4194 15.6519 24.282 15.7082 24.1684 15.741C24.0549 15.7737 23.934 15.8341 23.8997 15.8752C23.8656 15.9164 23.8064 15.95 23.7681 15.95C23.6514 15.95 23.1414 16.5367 23.0756 16.7465C23.0546 16.8134 22.9954 16.9371 22.944 17.0215C22.8066 17.2467 22.8064 18.2307 22.9435 18.4057C22.9949 18.4714 23.053 18.5982 23.0725 18.6879C23.0921 18.7775 23.1512 18.8739 23.2041 18.9021C23.2569 18.9304 23.3 18.9785 23.3 19.0091C23.3 19.0789 23.8551 19.5982 23.9307 19.5992C23.9614 19.5996 24.0442 19.6455 24.1149 19.701C24.4069 19.9306 25.5681 19.9107 25.9805 19.6691C26.3942 19.4266 26.9495 18.868 26.9504 18.6934C26.9505 18.6557 26.9954 18.5575 27.05 18.475C27.1826 18.2747 27.2005 17.1076 27.0729 16.98C27.0305 16.9376 26.9685 16.8241 26.9351 16.7277C26.866 16.528 26.3777 15.95 26.2781 15.95C26.2419 15.95 26.1844 15.9164 26.1502 15.8752C26.116 15.8341 25.9951 15.7737 25.8816 15.741C25.768 15.7082 25.6306 15.6519 25.5764 15.6157C25.513 15.5735 25.3159 15.55 25.025 15.55C24.7341 15.55 24.537 15.5735 24.4736 15.6157ZM25.45 15.7C25.6012 15.7532 25.7659 15.7975 25.8159 15.7984C25.8657 15.7992 25.9804 15.8562 26.0705 15.925C26.1607 15.9937 26.2514 16.05 26.2721 16.05C26.3787 16.05 26.8975 16.713 26.8991 16.8514C26.8996 16.8934 26.9394 16.9834 26.9875 17.0514C27.058 17.151 27.075 17.2816 27.075 17.725C27.075 18.1684 27.058 18.299 26.9875 18.3986C26.9394 18.4666 26.9 18.5611 26.9 18.6085C26.9 18.656 26.8494 18.7517 26.7875 18.8212C26.7256 18.8907 26.6194 19.0237 26.5515 19.1167C26.4291 19.2841 26.3624 19.3342 25.8755 19.6242C25.3604 19.931 24.2672 19.8137 23.7839 19.4C23.5065 19.1626 23.35 19.0084 23.35 18.9724C23.35 18.9499 23.3095 18.885 23.26 18.8282C22.6355 18.1117 22.9639 16.4701 23.8225 16.0152C23.9037 15.9722 24.001 15.9062 24.0386 15.8685C24.0762 15.8309 24.1457 15.8 24.193 15.8C24.2402 15.8 24.4017 15.7557 24.5519 15.7017C24.8955 15.5782 25.1026 15.5779 25.45 15.7ZM24.65 17.0089C23.7779 17.5294 24.2802 18.7251 25.2657 18.4749C25.3955 18.442 25.508 18.406 25.5159 18.395C25.5236 18.384 25.5907 18.3001 25.665 18.2086C26.1821 17.5715 25.3517 16.59 24.65 17.0089ZM25.2757 17.0561C25.8584 17.3665 25.9134 17.8487 25.4226 18.3439C25.2417 18.5264 24.6144 18.4006 24.4375 18.1464C24.0211 17.5477 24.6539 16.7249 25.2757 17.0561Z" fill="#F49C7C"/>
</svg>
