<svg width="132" height="24" viewBox="0 0 132 24" fill="none" xmlns="http://www.w3.org/2000/svg">
<path d="M12 2.03998C6.5 2.03998 2 6.52998 2 12.06C2 17.06 5.66 21.21 10.44 21.96V14.96H7.9V12.06H10.44V9.84998C10.44 7.33998 11.93 5.95998 14.22 5.95998C15.31 5.95998 16.45 6.14998 16.45 6.14998V8.61998H15.19C13.95 8.61998 13.56 9.38998 13.56 10.18V12.06H16.34L15.89 14.96H13.56V21.96C15.9164 21.5878 18.0622 20.3855 19.6099 18.57C21.1576 16.7546 22.0054 14.4456 22 12.06C22 6.52998 17.5 2.03998 12 2.03998Z" fill="white"/>
<path d="M58.46 6C57.69 6.35 56.86 6.58 56 6.69C56.88 6.16 57.56 5.32 57.88 4.31C57.05 4.81 56.13 5.16 55.16 5.36C54.37 4.5 53.26 4 52 4C49.65 4 47.73 5.92 47.73 8.29C47.73 8.63 47.77 8.96 47.84 9.27C44.28 9.09 41.11 7.38 39 4.79C38.63 5.42 38.42 6.16 38.42 6.94C38.42 8.43 39.17 9.75 40.33 10.5C39.62 10.5 38.96 10.3 38.38 10C38.38 10 38.38 10 38.38 10.03C38.38 12.11 39.86 13.85 41.82 14.24C41.46 14.34 41.08 14.39 40.69 14.39C40.42 14.39 40.15 14.36 39.89 14.31C40.43 16 42 17.26 43.89 17.29C42.43 18.45 40.58 19.13 38.56 19.13C38.22 19.13 37.88 19.11 37.54 19.07C39.44 20.29 41.7 21 44.12 21C52 21 56.33 14.46 56.33 8.79C56.33 8.6 56.33 8.42 56.32 8.23C57.16 7.63 57.88 6.87 58.46 6Z" fill="white"/>
<path d="M79.8 2H88.2C91.4 2 94 4.6 94 7.8V16.2C94 17.7383 93.3889 19.2135 92.3012 20.3012C91.2135 21.3889 89.7383 22 88.2 22H79.8C76.6 22 74 19.4 74 16.2V7.8C74 6.26174 74.6111 4.78649 75.6988 3.69878C76.7865 2.61107 78.2617 2 79.8 2ZM79.6 4C78.6452 4 77.7295 4.37928 77.0544 5.05442C76.3793 5.72955 76 6.64522 76 7.6V16.4C76 18.39 77.61 20 79.6 20H88.4C89.3548 20 90.2705 19.6207 90.9456 18.9456C91.6207 18.2705 92 17.3548 92 16.4V7.6C92 5.61 90.39 4 88.4 4H79.6ZM89.25 5.5C89.5815 5.5 89.8995 5.6317 90.1339 5.86612C90.3683 6.10054 90.5 6.41848 90.5 6.75C90.5 7.08152 90.3683 7.39946 90.1339 7.63388C89.8995 7.8683 89.5815 8 89.25 8C88.9185 8 88.6005 7.8683 88.3661 7.63388C88.1317 7.39946 88 7.08152 88 6.75C88 6.41848 88.1317 6.10054 88.3661 5.86612C88.6005 5.6317 88.9185 5.5 89.25 5.5ZM84 7C85.3261 7 86.5979 7.52678 87.5355 8.46447C88.4732 9.40215 89 10.6739 89 12C89 13.3261 88.4732 14.5979 87.5355 15.5355C86.5979 16.4732 85.3261 17 84 17C82.6739 17 81.4021 16.4732 80.4645 15.5355C79.5268 14.5979 79 13.3261 79 12C79 10.6739 79.5268 9.40215 80.4645 8.46447C81.4021 7.52678 82.6739 7 84 7ZM84 9C83.2044 9 82.4413 9.31607 81.8787 9.87868C81.3161 10.4413 81 11.2044 81 12C81 12.7956 81.3161 13.5587 81.8787 14.1213C82.4413 14.6839 83.2044 15 84 15C84.7956 15 85.5587 14.6839 86.1213 14.1213C86.6839 13.5587 87 12.7956 87 12C87 11.2044 86.6839 10.4413 86.1213 9.87868C85.5587 9.31607 84.7956 9 84 9Z" fill="white"/>
<path d="M127 3C127.53 3 128.039 3.21071 128.414 3.58579C128.789 3.96086 129 4.46957 129 5V19C129 19.5304 128.789 20.0391 128.414 20.4142C128.039 20.7893 127.53 21 127 21H113C112.47 21 111.961 20.7893 111.586 20.4142C111.211 20.0391 111 19.5304 111 19V5C111 4.46957 111.211 3.96086 111.586 3.58579C111.961 3.21071 112.47 3 113 3H127ZM126.5 18.5V13.2C126.5 12.3354 126.157 11.5062 125.545 10.8948C124.934 10.2835 124.105 9.94 123.24 9.94C122.39 9.94 121.4 10.46 120.92 11.24V10.13H118.13V18.5H120.92V13.57C120.92 12.8 121.54 12.17 122.31 12.17C122.681 12.17 123.037 12.3175 123.3 12.5801C123.563 12.8426 123.71 13.1987 123.71 13.57V18.5H126.5ZM114.88 8.56C115.326 8.56 115.753 8.383 116.068 8.06794C116.383 7.75288 116.56 7.32556 116.56 6.88C116.56 5.95 115.81 5.19 114.88 5.19C114.432 5.19 114.002 5.36805 113.685 5.68499C113.368 6.00193 113.19 6.43178 113.19 6.88C113.19 7.81 113.95 8.56 114.88 8.56ZM116.27 18.5V10.13H113.5V18.5H116.27Z" fill="white"/>
</svg>
