<svg width="37" height="52" viewBox="0 0 37 52" fill="none" xmlns="http://www.w3.org/2000/svg">
<g clip-path="url(#clip0)">
<path d="M8.375 26.125C10.8603 26.125 12.875 24.1103 12.875 21.625C12.875 19.1397 10.8603 17.125 8.375 17.125C5.88972 17.125 3.875 19.1397 3.875 21.625C3.875 24.1103 5.88972 26.125 8.375 26.125Z" stroke="#7EAAFF" stroke-width="2" stroke-linecap="round" stroke-linejoin="round"/>
<path d="M11.75 50.875L12.875 39.625H15.125V35.125C15.125 33.3348 14.4138 31.6179 13.148 30.352C11.8821 29.0862 10.1652 28.375 8.375 28.375C6.58479 28.375 4.8679 29.0862 3.60203 30.352C2.33616 31.6179 1.625 33.3348 1.625 35.125V39.625H3.875L5 50.875H11.75Z" stroke="#7EAAFF" stroke-width="2" stroke-linecap="round" stroke-linejoin="round"/>
<path d="M26.375 35.125C31.3456 35.125 35.375 31.0956 35.375 26.125C35.375 21.1544 31.3456 17.125 26.375 17.125C21.4044 17.125 17.375 21.1544 17.375 26.125C17.375 31.0956 21.4044 35.125 26.375 35.125Z" stroke="#0258FF" stroke-width="2" stroke-linecap="round" stroke-linejoin="round"/>
<path d="M30.353 26.1252H26.375V22.1472" stroke="#0258FF" stroke-width="2" stroke-linecap="round" stroke-linejoin="round"/>
</g>
<defs>
<clipPath id="clip0">
<rect width="36" height="36" fill="white" transform="translate(0.5 16)"/>
</clipPath>
</defs>
</svg>
