<svg width="36" height="52" viewBox="0 0 36 52" fill="none" xmlns="http://www.w3.org/2000/svg">
<path d="M28.2375 34.561L30.114 37.939H33.8355C34.0389 37.9359 34.2386 37.9937 34.409 38.105C34.5793 38.2163 34.7125 38.376 34.7914 38.5636C34.8702 38.7511 34.8912 38.958 34.8516 39.1576C34.8119 39.3572 34.7135 39.5403 34.569 39.6835L31.152 43.4125L33.045 47.7625C33.1277 47.9617 33.146 48.1818 33.0972 48.3919C33.0484 48.602 32.9351 48.7915 32.773 48.9338C32.611 49.0762 32.4084 49.1642 32.1938 49.1855C31.9792 49.2067 31.7633 49.1603 31.5765 49.0525L27 46.477L22.4249 49.051C22.2381 49.1593 22.022 49.2063 21.807 49.1852C21.5921 49.1642 21.3891 49.0763 21.2268 48.9338C21.0645 48.7914 20.9509 48.6016 20.9021 48.3912C20.8534 48.1808 20.8718 47.9604 20.955 47.761L22.7849 43.561" stroke="#80ABFF" stroke-width="2" stroke-linecap="round" stroke-linejoin="round"/>
<path d="M7.76267 34.561L5.88617 37.939H2.16467C1.96121 37.9359 1.76148 37.9937 1.59114 38.105C1.42079 38.2163 1.28763 38.376 1.20876 38.5636C1.1299 38.7511 1.10893 38.958 1.14856 39.1576C1.1882 39.3572 1.28661 39.5403 1.43117 39.6835L4.84817 43.4125L2.95517 47.7625C2.87241 47.9617 2.85414 48.1818 2.90292 48.3919C2.95169 48.602 3.06506 48.7915 3.22709 48.9338C3.38913 49.0762 3.59168 49.1642 3.8063 49.1855C4.02093 49.2067 4.23682 49.1603 4.42367 49.0525L9.00017 46.477L13.5752 49.051C13.762 49.1593 13.9782 49.2063 14.1931 49.1852C14.4081 49.1642 14.611 49.0763 14.7733 48.9338C14.9357 48.7914 15.0492 48.6016 15.098 48.3912C15.1467 48.1808 15.1283 47.9604 15.0452 47.761L13.2152 43.561" stroke="#80ABFF" stroke-width="2" stroke-linecap="round" stroke-linejoin="round"/>
<path d="M18.552 19.2115L21.5355 25.177L27.276 25.7515C27.4128 25.7655 27.5428 25.818 27.651 25.9029C27.7592 25.9877 27.8411 26.1015 27.8873 26.231C27.9334 26.3605 27.9419 26.5005 27.9118 26.6346C27.8817 26.7688 27.8141 26.8917 27.717 26.989L22.989 31.717L24.741 38.1415C24.778 38.2768 24.7749 38.4199 24.7322 38.5535C24.6895 38.6871 24.6091 38.8055 24.5006 38.8944C24.392 38.9832 24.2601 39.0387 24.1207 39.0542C23.9813 39.0697 23.8404 39.0444 23.715 38.9815L17.9025 36.076L12.09 38.9815C11.9647 39.044 11.824 39.0689 11.6849 39.0532C11.5458 39.0375 11.4141 38.982 11.3059 38.8932C11.1976 38.8044 11.1173 38.6862 11.0746 38.5529C11.032 38.4195 11.0288 38.2766 11.0655 38.1415L12.8175 31.717L8.08954 26.989C7.99198 26.8917 7.92405 26.7687 7.89365 26.6344C7.86326 26.5 7.87165 26.3597 7.91785 26.2299C7.96405 26.1001 8.04616 25.9861 8.15463 25.9012C8.26309 25.8162 8.39345 25.7638 8.53053 25.75L14.2695 25.1755L17.25 19.2115C17.31 19.0901 17.4027 18.9878 17.5178 18.9163C17.6328 18.8448 17.7656 18.8069 17.901 18.8069C18.0365 18.8069 18.1692 18.8448 18.2843 18.9163C18.3993 18.9878 18.4921 19.0901 18.552 19.2115Z" stroke="#0258FF" stroke-width="2" stroke-linecap="round" stroke-linejoin="round"/>
</svg>
