<svg width="50" height="50" viewBox="0 0 50 50" fill="none" xmlns="http://www.w3.org/2000/svg">
<path fill-rule="evenodd" clip-rule="evenodd" d="M0 25V50H25H50V25V0H25H0V25ZM7.82713 20.7024C7.95438 20.843 7.938 21.0469 7.75525 21.5923C7.66987 21.8471 7.6 22.0769 7.6 22.1029C7.6 22.1297 7.85713 22.15 8.199 22.15C8.895 22.15 8.9245 22.1745 8.77262 22.6274C8.63237 23.0455 8.62312 23.05 7.90225 23.05H7.27012L7.20675 23.2375C7.17187 23.3406 7.12462 23.47 7.10162 23.525C7.07862 23.58 7.01037 23.76 6.95 23.925C6.88962 24.09 6.82225 24.27 6.80013 24.325C6.77813 24.38 6.733 24.5038 6.7 24.6C6.667 24.6963 6.62187 24.82 6.59987 24.875C6.57775 24.93 6.51037 25.11 6.45 25.275C6.38962 25.44 6.3215 25.62 6.2985 25.675C6.1925 25.9291 5.40588 28.1335 5.3975 28.2C5.37225 28.4014 5.36487 28.4 6.47325 28.4C7.44475 28.4 7.55075 28.4082 7.59188 28.4875C7.65713 28.613 7.475 29.1483 7.31987 29.2875L7.19438 29.4H5.19663C2.0045 29.4 1.94838 29.3055 3.249 26.125C3.2715 26.07 3.317 25.9463 3.35 25.85C3.383 25.7538 3.42812 25.63 3.45012 25.575C3.47225 25.52 3.53962 25.34 3.6 25.175C3.66037 25.01 3.72775 24.83 3.74988 24.775C3.77188 24.72 3.817 24.5962 3.85 24.5C3.883 24.4038 3.928 24.28 3.95 24.225C3.972 24.17 4.017 24.0463 4.05 23.95C4.083 23.8538 4.12813 23.73 4.15013 23.675C4.17225 23.62 4.2375 23.4456 4.29513 23.2875C4.35275 23.1294 4.44363 22.8819 4.497 22.7375C4.55038 22.5931 4.70225 22.1728 4.8345 21.8034C5.08425 21.1063 5.288 20.8025 5.6 20.6628C5.8525 20.5496 7.71888 20.5828 7.82713 20.7024ZM20.7178 20.7226C20.8851 20.8778 20.8878 21.0511 20.729 21.462C20.614 21.7596 20.1028 23.1561 19.992 23.475C19.9634 23.5575 19.922 23.67 19.9 23.725C19.878 23.78 19.833 23.9038 19.8 24C19.7272 24.2116 19.6536 24.395 19.5941 24.5119C19.5699 24.5596 19.55 24.633 19.55 24.675C19.55 24.717 19.5301 24.7904 19.5059 24.8381C19.4464 24.955 19.3727 25.1384 19.3 25.35C19.267 25.4463 19.2219 25.57 19.1999 25.625C19.1777 25.68 19.1125 25.8544 19.0549 26.0125C18.9972 26.1706 18.9063 26.4181 18.8528 26.5625C18.7994 26.7069 18.6415 27.14 18.502 27.525C17.8051 29.449 17.8579 29.4001 16.4799 29.3999C15.0124 29.3995 15.0074 29.3902 15.5986 27.8C15.6855 27.5662 15.79 27.2737 15.8309 27.15C15.8716 27.0262 15.9294 26.8687 15.9593 26.8C16.0288 26.6396 16.0754 26.5174 16.15 26.3C16.183 26.2037 16.2293 26.08 16.2525 26.025C16.2759 25.97 16.3278 25.8238 16.3678 25.7C16.4078 25.5763 16.4786 25.3738 16.5251 25.25C16.5716 25.1262 16.6547 24.9013 16.7097 24.75C16.7647 24.5987 16.8289 24.43 16.8524 24.375C16.8758 24.32 16.9286 24.1737 16.9699 24.05C17.0111 23.9262 17.2395 23.2962 17.4774 22.65C17.7154 22.0037 17.921 21.4278 17.9344 21.37C17.9713 21.2111 18.3055 20.7936 18.475 20.6947C18.746 20.5367 20.5411 20.559 20.7178 20.7226ZM24.1343 20.7087C24.2605 20.8272 24.2948 21.1624 24.2 21.3506C24.1725 21.4052 24.1275 21.4948 24.1 21.5494C24.0725 21.604 24.05 21.683 24.05 21.725C24.05 21.767 24.024 21.8516 23.9923 21.9131C23.8708 22.148 23.85 22.2009 23.85 22.275C23.85 22.317 23.8301 22.3904 23.8059 22.4381C23.7464 22.555 23.6728 22.7384 23.6 22.95C23.567 23.0463 23.5219 23.17 23.4999 23.225C23.4777 23.28 23.4125 23.4544 23.3549 23.6125C23.2973 23.7706 23.2065 24.0181 23.1534 24.1625C23.1003 24.3069 22.9524 24.7175 22.8248 25.075C22.6971 25.4325 22.5741 25.77 22.5514 25.825C22.5287 25.88 22.483 26.0038 22.45 26.1C22.417 26.1963 22.3666 26.3312 22.3382 26.4C22.264 26.5797 22.2182 26.7014 22.15 26.9C22.0772 27.1116 22.0036 27.295 21.9441 27.4119C21.9199 27.4596 21.9 27.5395 21.9 27.5894C21.9 27.6392 21.8821 27.7014 21.8603 27.7275C21.8384 27.7536 21.7919 27.865 21.7569 27.975C21.722 28.085 21.6694 28.2312 21.64 28.3C21.6106 28.3687 21.5694 28.47 21.5484 28.525C21.3771 28.9734 21.217 29.1956 20.9631 29.3375C20.7454 29.4592 18.9422 29.4226 18.7776 29.2931C18.5519 29.1156 18.5362 28.9724 18.6992 28.575C18.7604 28.4258 18.9181 27.9891 19.1235 27.4C19.2241 27.1112 19.3255 26.83 19.3486 26.775C19.4236 26.5967 19.5576 26.2305 19.6322 26C19.7066 25.7701 19.7773 25.5928 19.8559 25.4381C19.8801 25.3904 19.9 25.3105 19.9 25.2606C19.9 25.2108 19.9179 25.1486 19.9398 25.1225C19.9616 25.0964 20.0081 24.985 20.0431 24.875C20.1095 24.6657 20.1812 24.4848 20.2559 24.3381C20.2801 24.2904 20.3 24.217 20.3 24.175C20.3 24.133 20.3199 24.0596 20.3441 24.0119C20.4036 23.895 20.4772 23.7116 20.55 23.5C20.583 23.4038 20.6293 23.28 20.6525 23.225C20.6759 23.17 20.7285 23.0237 20.7695 22.9C20.8104 22.7762 20.9262 22.45 21.0269 22.175C21.1275 21.9 21.2444 21.5738 21.2868 21.45C21.379 21.1801 21.6174 20.8519 21.8244 20.7096C22.0624 20.5461 23.9604 20.5454 24.1343 20.7087ZM16.5683 23.1536C16.736 23.2855 16.7364 23.4271 16.5705 23.8752C16.4992 24.0676 16.4221 24.2813 16.3991 24.35C16.3761 24.4188 16.2794 24.6888 16.1841 24.95C16.0889 25.2113 15.9505 25.5937 15.8767 25.8C15.457 26.973 15.4962 26.9544 13.4636 26.9485C11.677 26.9434 11.9108 26.8351 11.5451 27.8375C11.4875 27.9956 11.4165 28.1749 11.3876 28.2358C11.304 28.4116 11.4154 28.5001 11.7186 28.4993C12.0546 28.4983 12.0707 28.4845 12.2506 28.0485C12.5582 27.3025 12.6684 27.25 13.9257 27.25C15.3354 27.25 15.3526 27.2699 14.9257 28.4C14.687 29.0319 14.6463 29.101 14.4288 29.245L14.2324 29.375L11.5004 29.3888L8.76838 29.4025L8.59675 29.2862C8.387 29.1442 8.3695 28.8906 8.539 28.45C8.59712 28.2988 8.73762 27.9163 8.851 27.6C9.40475 26.0555 9.51037 25.7584 9.58 25.55C9.62125 25.4262 9.67425 25.28 9.69788 25.225C9.76975 25.0573 9.90538 24.6874 9.98225 24.45C10.0223 24.3263 10.0742 24.18 10.0976 24.125C10.1211 24.07 10.1889 23.8984 10.2484 23.7437C10.3681 23.4322 10.5358 23.2469 10.8 23.1334C11.1179 22.9968 16.3924 23.0154 16.5683 23.1536ZM29.8395 23.1446C30.1975 23.3274 30.3909 23.9791 30.1565 24.2135C30.1254 24.2446 30.1 24.3172 30.1 24.375C30.1 24.4328 30.0821 24.5014 30.0602 24.5275C30.0384 24.5536 29.9919 24.665 29.9569 24.775C29.922 24.885 29.8735 25.02 29.8493 25.075C29.8249 25.13 29.7716 25.2762 29.7309 25.4C29.69 25.5237 29.5856 25.8162 29.4989 26.05C29.4121 26.2837 29.3229 26.5313 29.3008 26.6C28.8704 27.9341 28.6031 28.501 28.2271 28.8775C27.6821 29.423 27.8196 29.4 25.1104 29.4H22.7698L22.57 29.2531C22.1594 28.9511 22.0797 28.5879 22.3006 28.025C22.3222 27.97 22.367 27.8462 22.4 27.75C22.433 27.6538 22.4834 27.5188 22.5117 27.45C22.586 27.2703 22.6318 27.1486 22.7 26.95C22.733 26.8538 22.7781 26.73 22.8002 26.675C22.8224 26.62 22.9072 26.395 22.9889 26.175C23.0704 25.955 23.2206 25.55 23.3226 25.275C23.4246 25 23.5513 24.6651 23.604 24.5309C23.6569 24.3965 23.7 24.2656 23.7 24.2399C23.7 24.1134 24.1424 23.5557 24.3967 23.3617C24.786 23.0649 24.8585 23.0574 27.3645 23.0535C29.5164 23.0502 29.6651 23.0557 29.8395 23.1446ZM33.1005 23.1625C33.6026 23.5043 33.599 23.6599 33.0524 25.2C32.9109 25.5988 32.7618 26.0262 32.721 26.15C32.6803 26.2737 32.625 26.4141 32.5984 26.4619C32.5717 26.5096 32.55 26.583 32.55 26.625C32.55 26.667 32.5301 26.7404 32.5059 26.7881C32.4464 26.905 32.3727 27.0884 32.3 27.3C32.2272 27.5116 32.1536 27.695 32.0941 27.8119C32.0699 27.8596 32.05 27.933 32.05 27.975C32.05 28.017 32.024 28.0931 31.9921 28.144C31.8884 28.3101 31.9729 28.4 32.2327 28.4C32.4884 28.4 32.7 28.2615 32.7 28.0942C32.7 28.0456 32.7225 27.992 32.75 27.975C32.7775 27.958 32.8 27.9001 32.8 27.8464C32.8 27.7926 32.8199 27.7096 32.8441 27.6619C32.9036 27.545 32.9772 27.3616 33.05 27.15C33.083 27.0537 33.1285 26.93 33.151 26.875C33.194 26.7696 33.552 25.7811 33.6399 25.525C33.6681 25.4425 33.7622 25.1838 33.849 24.95C33.9356 24.7163 34.0415 24.4237 34.0843 24.3C34.2291 23.8799 34.6645 23.4004 35.0923 23.1896C35.6819 22.8992 36.8106 23.0201 37.0105 23.3951C37.0886 23.5417 37.0861 24.0839 37.0069 24.1631C36.9756 24.1944 36.95 24.2704 36.95 24.332C36.95 24.3936 36.932 24.4553 36.9099 24.4689C36.8879 24.4825 36.8384 24.609 36.8 24.75C36.7616 24.891 36.7121 25.0175 36.6901 25.0311C36.668 25.0447 36.65 25.0999 36.65 25.1536C36.65 25.2074 36.6275 25.296 36.6 25.3506C36.5725 25.4052 36.5275 25.4948 36.5 25.5494C36.4725 25.604 36.45 25.6926 36.45 25.7464C36.45 25.8001 36.4275 25.858 36.4 25.875C36.3725 25.892 36.35 25.9595 36.35 26.025C36.35 26.0905 36.332 26.1552 36.3099 26.1689C36.2879 26.1825 36.2384 26.309 36.2 26.45C36.1616 26.591 36.1121 26.7175 36.0901 26.7311C36.068 26.7447 36.05 26.8064 36.05 26.868C36.05 26.9296 36.0314 27.0014 36.0088 27.0275C35.986 27.0536 35.937 27.1762 35.8999 27.3C35.8628 27.4237 35.8201 27.5475 35.8052 27.575C35.6929 27.7825 35.5651 28.2826 35.6105 28.3375C35.757 28.5145 36.3 28.3017 36.3 28.0675C36.3 28.0296 36.3199 27.9596 36.3441 27.9119C36.4036 27.795 36.4772 27.6116 36.55 27.4C36.583 27.3037 36.6304 27.1744 36.655 27.1125C36.8799 26.5497 36.9078 26.4826 36.9559 26.3881C36.9801 26.3404 37 26.267 37 26.225C37 26.183 37.0199 26.1096 37.0441 26.0619C37.1036 25.945 37.1772 25.7616 37.25 25.55C37.308 25.381 37.3483 25.2759 37.4463 25.0375C37.4716 24.9756 37.5733 24.7113 37.672 24.45C37.9318 23.7625 38.3364 23.3062 38.8457 23.1265C39.1905 23.0049 40.5851 23.0201 40.7375 23.1471C40.856 23.246 40.8977 23.5646 40.8 23.625C40.7725 23.642 40.75 23.7095 40.75 23.775C40.75 23.8405 40.732 23.9052 40.7099 23.9189C40.6879 23.9325 40.6384 24.059 40.6 24.2C40.5616 24.341 40.5121 24.4675 40.4901 24.4811C40.468 24.4947 40.45 24.5564 40.45 24.618C40.45 24.6796 40.4314 24.7514 40.4087 24.7775C40.386 24.8036 40.3369 24.9262 40.2998 25.05C40.2625 25.1737 40.2182 25.2975 40.2014 25.325C40.1846 25.3525 40.1421 25.465 40.1071 25.575C40.0721 25.685 40.0236 25.82 39.9995 25.875C39.9754 25.93 39.8438 26.3013 39.707 26.7C39.2456 28.0459 39.172 28.2369 39.0332 28.4465C38.8356 28.7451 38.4824 29.0794 38.183 29.2511L37.925 29.399L33.7794 29.3995L29.6338 29.4L29.4201 29.2747C29.0632 29.0656 28.828 28.4621 29.05 28.325C29.0775 28.308 29.1 28.2501 29.1 28.1964C29.1 28.1426 29.1215 28.0596 29.1479 28.0119C29.1949 27.9265 29.4373 27.2624 29.7816 26.275C29.8775 26 29.9801 25.7187 30.0098 25.65C30.0798 25.4869 30.1265 25.364 30.2 25.15C30.2728 24.9384 30.3464 24.755 30.4059 24.6381C30.4301 24.5904 30.45 24.5074 30.45 24.4536C30.45 24.3999 30.468 24.3448 30.4901 24.3311C30.5121 24.3175 30.5616 24.191 30.6 24.05C30.6384 23.909 30.6879 23.7825 30.7099 23.7689C30.732 23.7553 30.75 23.7058 30.75 23.659C30.75 23.547 31.0354 23.2304 31.225 23.1319C31.4904 22.9941 32.8866 23.0169 33.1005 23.1625ZM47.6375 23.1495C47.8399 23.2729 47.8465 23.4095 47.6777 23.9845C47.3566 25.0785 47.1623 25.2 45.7334 25.2H44.7636L44.6319 25.0681C44.4737 24.9101 44.4685 24.8096 44.6 24.45C44.7702 23.9844 44.7551 23.95 44.3805 23.95H44.061L43.9555 24.1745C43.8975 24.2979 43.8494 24.4272 43.8488 24.462C43.848 24.4966 43.7918 24.693 43.7238 24.8983C43.6556 25.1035 43.6 25.322 43.6 25.3836V25.4959L45.121 25.5104L46.6421 25.525L46.771 25.6462C46.9105 25.7772 46.9497 26.1026 46.85 26.3006C46.8225 26.3552 46.7775 26.4447 46.75 26.4994C46.7225 26.554 46.7 26.633 46.7 26.675C46.7 26.717 46.6801 26.7904 46.6559 26.8381C46.6315 26.8859 46.5895 26.9812 46.5625 27.05C46.5355 27.1187 46.4901 27.2312 46.4618 27.3C46.4334 27.3687 46.383 27.5038 46.35 27.6C46.317 27.6963 46.2666 27.8312 46.2383 27.9C46.2099 27.9687 46.1682 28.07 46.1459 28.125C46.1234 28.18 46.0688 28.3375 46.0244 28.475C45.896 28.8725 45.7174 29.1356 45.4818 29.2736L45.2663 29.4H42.4856H39.7051L39.5751 29.2296C39.3458 28.9289 39.3575 28.8095 39.7034 27.9245C40.2154 26.6145 40.1626 26.65 41.6011 26.65C42.8234 26.65 42.8214 26.6494 42.8151 27.061C42.8131 27.1981 42.7894 27.3586 42.7624 27.4176C42.4119 28.1854 42.4113 28.4 42.7593 28.4C43.0256 28.4 43.25 28.27 43.25 28.1156C43.25 28.0788 43.2699 28.0096 43.2941 27.9619C43.3185 27.9141 43.3605 27.8188 43.3875 27.75C43.4535 27.5821 43.5244 27.4108 43.6151 27.2C43.8196 26.7249 43.8527 26.6175 43.8265 26.5131L43.7981 26.4H42.2564H40.7146L40.5771 26.2726C40.4373 26.143 40.4252 25.86 40.5539 25.7275C40.5792 25.7014 40.6 25.6392 40.6 25.5894C40.6 25.5395 40.6225 25.454 40.65 25.3994C40.6775 25.3448 40.7225 25.2552 40.75 25.2006C40.7775 25.146 40.8 25.067 40.8 25.025C40.8 24.983 40.8225 24.904 40.85 24.8494C40.8775 24.7947 40.9225 24.7053 40.95 24.6506C40.9775 24.596 41 24.5074 41 24.4536C41 24.3999 41.018 24.3448 41.0401 24.3311C41.0621 24.3175 41.1116 24.191 41.15 24.05C41.1884 23.909 41.2379 23.7825 41.2599 23.7689C41.282 23.7553 41.3 23.706 41.3 23.6595C41.3001 23.5483 41.478 23.3456 41.7195 23.1819L41.914 23.05L44.6945 23.0501C47.3782 23.0504 47.4806 23.0539 47.6375 23.1495ZM12.9823 24.071C12.937 24.14 12.9 24.216 12.9 24.24C12.9 24.2639 12.81 24.5046 12.7 24.775C12.59 25.0454 12.5 25.2864 12.5 25.3106C12.5 25.335 12.455 25.448 12.4 25.5618C12.287 25.7956 12.2715 25.9765 12.3595 26.0309C12.4497 26.0866 12.8674 26.053 12.9305 25.985C13.0413 25.8655 13.6629 24.3205 13.6689 24.15L13.675 23.975L13.3698 23.9603C13.091 23.9469 13.0573 23.9565 12.9823 24.071ZM26.8154 24.0005C26.6764 24.0565 26.5775 24.209 26.4756 24.525C26.4312 24.6625 26.3759 24.82 26.3525 24.875C26.3293 24.93 26.283 25.0537 26.25 25.15C26.217 25.2462 26.172 25.37 26.15 25.425C26.128 25.48 26.083 25.6038 26.05 25.7C25.9772 25.9116 25.9036 26.095 25.8441 26.2119C25.8199 26.2596 25.8 26.333 25.8 26.375C25.8 26.417 25.7775 26.496 25.75 26.5506C25.7225 26.6052 25.6775 26.6947 25.65 26.7494C25.6225 26.804 25.6 26.8895 25.6 26.9394C25.6 26.9892 25.5821 27.0514 25.5602 27.0775C25.5384 27.1036 25.4919 27.215 25.4569 27.325C25.422 27.435 25.374 27.57 25.3503 27.625C25.0615 28.2943 25.0739 28.4131 25.4299 28.3905C25.6916 28.374 25.7079 28.3561 25.9014 27.875C25.9345 27.7925 25.9815 27.6859 26.0059 27.6381C26.0301 27.5904 26.05 27.517 26.05 27.475C26.05 27.433 26.0699 27.3596 26.0941 27.3119C26.1536 27.195 26.2272 27.0116 26.3 26.8C26.333 26.7037 26.3834 26.5688 26.4118 26.5C26.486 26.3203 26.5318 26.1986 26.6 26C26.633 25.9038 26.6781 25.78 26.7001 25.725C26.7222 25.67 26.7896 25.49 26.85 25.325C26.9104 25.16 26.978 24.98 27.0002 24.925C27.2565 24.2917 27.3089 24.0959 27.2429 24.0164C27.1809 23.9416 26.98 23.9341 26.8154 24.0005Z" fill="#135BB3"/>
<path fill-rule="evenodd" clip-rule="evenodd" d="M21.8675 20.7464C21.6753 20.8636 21.4394 21.1971 21.3345 21.5C21.2916 21.6238 21.1856 21.9163 21.0989 22.15C21.0121 22.3838 20.9233 22.6313 20.9015 22.7C20.8646 22.8161 20.5715 23.6288 20.3469 24.2375C20.2936 24.3819 20.2027 24.6294 20.1451 24.7875C20.0875 24.9456 20.0223 25.12 20.0001 25.175C19.9781 25.23 19.933 25.3538 19.9 25.45C19.867 25.5463 19.822 25.67 19.8 25.725C19.778 25.78 19.733 25.9038 19.7 26C19.667 26.0963 19.622 26.22 19.6 26.275C19.578 26.33 19.533 26.4538 19.5 26.55C19.4273 26.7616 19.3536 26.945 19.2941 27.0619C19.2699 27.1096 19.25 27.183 19.25 27.225C19.25 27.267 19.2301 27.3404 19.2059 27.3881C19.1288 27.5398 19.0573 27.7183 18.9809 27.95C18.9401 28.0738 18.849 28.3324 18.7784 28.5248C18.5016 29.279 18.5309 29.3 19.8576 29.3C21.208 29.3 21.2215 29.2916 21.5979 28.225C21.6853 27.9775 21.7754 27.73 21.7983 27.675C21.8213 27.62 21.867 27.4963 21.9 27.4C21.9727 27.1884 22.0464 27.005 22.1059 26.8881C22.1301 26.8404 22.15 26.767 22.15 26.725C22.15 26.683 22.1699 26.6096 22.1941 26.5619C22.2536 26.445 22.3272 26.2616 22.4 26.05C22.4727 25.8384 22.5464 25.655 22.6059 25.5381C22.6301 25.4904 22.65 25.417 22.65 25.375C22.65 25.333 22.6707 25.2596 22.696 25.2119C22.7212 25.1641 22.791 24.99 22.8509 24.825C22.9108 24.66 22.979 24.48 23.0025 24.425C23.026 24.37 23.1574 24.01 23.2944 23.625C23.4314 23.24 23.6146 22.7338 23.7016 22.5C23.7886 22.2663 23.8721 22.03 23.8871 21.975C23.9021 21.92 23.9296 21.8525 23.9482 21.825C23.9667 21.7975 24.0125 21.6738 24.0497 21.55C24.0869 21.4263 24.136 21.3036 24.1588 21.2775C24.2503 21.1723 24.204 20.8085 24.0889 20.7279C23.9057 20.5995 22.0834 20.6148 21.8675 20.7464ZM25.05 23.147C24.472 23.2333 23.9482 23.7391 23.7009 24.45C23.6674 24.5463 23.6196 24.6756 23.595 24.7375C23.5702 24.7994 23.5298 24.9006 23.5049 24.9625C23.48 25.0244 23.4104 25.21 23.35 25.375C23.2896 25.54 23.2214 25.72 23.1982 25.775C23.1751 25.83 23.0072 26.28 22.8251 26.775C22.6429 27.27 22.445 27.7988 22.3851 27.95C22.1589 28.5225 22.2636 28.9958 22.6724 29.2484C22.8404 29.3523 22.8775 29.3535 25.184 29.3394L27.525 29.325L27.7544 29.1901C28.1853 28.9369 28.6091 28.4084 28.7493 27.95C28.7871 27.8263 28.8324 27.7025 28.85 27.675C28.8676 27.6475 28.9126 27.5238 28.95 27.4C28.9874 27.2763 29.0318 27.1525 29.0486 27.125C29.0654 27.0975 29.1079 26.985 29.1429 26.875C29.1779 26.765 29.2262 26.63 29.2502 26.575C29.3005 26.4599 29.7873 25.0824 29.9481 24.6C30.0078 24.4213 30.0806 24.2258 30.1101 24.1655C30.3126 23.7514 30.0944 23.246 29.6706 23.1478C29.4484 23.0963 25.3944 23.0955 25.05 23.147ZM31.35 23.151C31.0924 23.211 30.8486 23.5145 30.7035 23.9556C30.6368 24.1588 30.5683 24.3475 30.5515 24.375C30.5346 24.4025 30.4921 24.515 30.4571 24.625C30.3904 24.8346 30.3185 25.0158 30.2441 25.1619C30.2199 25.2096 30.2 25.283 30.2 25.325C30.2 25.367 30.1801 25.4404 30.1559 25.4881C30.0964 25.605 30.0228 25.7884 29.95 26C29.917 26.0963 29.872 26.22 29.85 26.275C29.828 26.33 29.783 26.4538 29.75 26.55C29.717 26.6463 29.6713 26.77 29.6485 26.825C29.6258 26.88 29.5471 27.0938 29.4739 27.3C29.4006 27.5063 29.2758 27.855 29.1963 28.075C28.9709 28.6998 29.0134 28.9451 29.3914 29.2008L29.575 29.325H33.75C37.7256 29.325 37.9344 29.3205 38.1203 29.2315C38.3794 29.1074 38.9661 28.5155 39.0731 28.2703C39.12 28.1629 39.179 28.0359 39.2043 27.9881C39.2294 27.9404 39.25 27.8605 39.25 27.8106C39.25 27.7608 39.2686 27.6986 39.2912 27.6725C39.314 27.6464 39.3631 27.5238 39.4002 27.4C39.4375 27.2763 39.4818 27.1525 39.4986 27.125C39.5154 27.0975 39.5579 26.985 39.5929 26.875C39.6279 26.765 39.6767 26.63 39.7012 26.575C39.7259 26.52 39.7898 26.34 39.8434 26.175C39.897 26.01 40.057 25.5488 40.199 25.15C40.341 24.7513 40.49 24.3238 40.5301 24.2C40.5702 24.0763 40.625 23.9359 40.6516 23.8881C40.6783 23.8404 40.7 23.7574 40.7 23.7036C40.7 23.6499 40.7225 23.592 40.75 23.575C40.8299 23.5256 40.8077 23.2686 40.7171 23.1936C40.6536 23.141 40.4347 23.1259 39.7796 23.1288C38.7946 23.1331 38.7079 23.1573 38.3215 23.5344C37.9364 23.9104 37.9143 23.9468 37.659 24.625C37.4173 25.2678 37.0499 26.2524 36.9409 26.55C36.8855 26.7013 36.8169 26.8813 36.7884 26.95C36.7146 27.1279 36.6686 27.25 36.6 27.45C36.5272 27.6616 36.4536 27.845 36.3941 27.9619C36.3699 28.0096 36.35 28.0796 36.35 28.1175C36.35 28.2621 36.0941 28.45 35.8973 28.45C35.4649 28.45 35.4578 28.3691 35.8045 27.3921C35.9444 26.9978 36.1006 26.5513 36.1517 26.4C36.3765 25.7345 36.537 25.2963 36.5672 25.266C36.5852 25.248 36.6 25.1821 36.6 25.1196C36.6 25.0571 36.618 24.9948 36.6401 24.9811C36.6621 24.9675 36.7116 24.841 36.75 24.7C36.7884 24.559 36.8379 24.4325 36.8599 24.4189C36.882 24.4053 36.9 24.3405 36.9 24.275C36.9 24.2095 36.9225 24.142 36.95 24.125C37.0444 24.0668 37.0089 23.5029 36.9012 23.3519C36.7391 23.124 36.5649 23.0821 35.9098 23.1136C34.9696 23.1588 34.5009 23.4813 34.1491 24.325C34.0241 24.6249 34.0038 24.6788 33.9323 24.9C33.8581 25.1293 33.7244 25.4946 33.6488 25.675C33.6256 25.73 33.4579 26.1913 33.2757 26.7C33.0937 27.2088 32.9009 27.7349 32.8474 27.8691C32.7939 28.0035 32.75 28.1425 32.75 28.178C32.75 28.399 32.1009 28.5569 31.9484 28.373C31.8891 28.3016 32.0281 27.7178 32.1502 27.525C32.1677 27.4975 32.2126 27.3738 32.25 27.25C32.2874 27.1263 32.3324 27.0025 32.35 26.975C32.3676 26.9475 32.4126 26.8238 32.45 26.7C32.4874 26.5763 32.5324 26.4525 32.55 26.425C32.5676 26.3975 32.6125 26.2738 32.6497 26.15C32.6869 26.0263 32.736 25.9036 32.7588 25.8775C32.7814 25.8514 32.8 25.7893 32.8 25.7394C32.8 25.6895 32.8225 25.604 32.85 25.5494C32.8775 25.4948 32.9225 25.4053 32.95 25.3506C32.9775 25.296 33 25.2074 33 25.1536C33 25.0999 33.0225 25.042 33.05 25.025C33.0775 25.008 33.1 24.9429 33.1 24.8804C33.1 24.8179 33.1153 24.7514 33.1339 24.7328C33.3849 24.4819 33.4627 23.5805 33.2525 23.3605C33.0197 23.1169 31.9853 23.003 31.35 23.151ZM42.075 23.1235C42.0475 23.1333 41.9635 23.1548 41.8884 23.1714C41.6961 23.2138 41.4111 23.4789 41.3559 23.6666C41.3302 23.7538 41.2382 24.0163 41.1514 24.25C41.0645 24.4838 40.96 24.7763 40.9191 24.9C40.8784 25.0238 40.8236 25.1756 40.7975 25.2375C40.7714 25.2994 40.7286 25.4006 40.7025 25.4625C40.3301 26.3448 40.3395 26.35 42.2924 26.35C44.0166 26.35 44.0343 26.3554 43.8305 26.8175C43.7924 26.9041 43.6436 27.2675 43.5001 27.625C43.3565 27.9825 43.2043 28.3144 43.1618 28.3625C43.0624 28.475 42.476 28.49 42.4342 28.3811C42.3952 28.2794 42.5733 27.6183 42.7016 27.3881C42.7699 27.2658 42.7619 26.8319 42.69 26.76C42.594 26.664 40.6395 26.677 40.4501 26.775C40.2426 26.8823 40.086 27.11 39.9 27.575C39.8725 27.6438 39.8296 27.7506 39.8047 27.8125C39.3932 28.8359 39.3784 28.9648 39.6425 29.2179L39.7839 29.3533L42.5624 29.3391L45.3408 29.325L45.5329 29.1698C45.7861 28.965 45.821 28.8934 46.2736 27.65C46.715 26.4373 46.755 26.3306 46.804 26.2381C46.8898 26.0763 46.8565 25.8236 46.7342 25.7088C46.6209 25.6023 46.5885 25.6 45.1468 25.5993C44.3354 25.5988 43.6422 25.5778 43.6021 25.5524C43.5211 25.5011 43.5214 25.1586 43.6024 25.0776C43.6286 25.0514 43.65 24.9893 43.65 24.9394C43.65 24.8895 43.6706 24.8096 43.6959 24.7619C43.721 24.7141 43.7783 24.5493 43.823 24.3956C43.9545 23.9433 44.0028 23.9 44.3761 23.9C44.8029 23.9 44.8299 23.9526 44.6626 24.4604C44.5422 24.8261 44.54 24.8523 44.619 24.9729L44.7023 25.1H45.7536C46.582 25.1 46.8351 25.0844 46.9475 25.0263C47.1281 24.9329 47.45 24.5599 47.45 24.444C47.45 24.3955 47.4725 24.342 47.5 24.325C47.5275 24.308 47.55 24.2501 47.55 24.1964C47.55 24.1426 47.5698 24.0596 47.5939 24.0119C47.7693 23.6648 47.7894 23.3511 47.6447 23.2203C47.5484 23.133 42.3051 23.042 42.075 23.1235ZM27.2625 23.9696C27.3945 24.0699 27.3812 24.115 26.6411 26.075C26.558 26.295 26.4451 26.5988 26.3901 26.75C26.3353 26.9013 26.2669 27.0813 26.2384 27.15C26.1646 27.3279 26.1186 27.45 26.05 27.65C25.8059 28.3608 25.7354 28.4461 25.3892 28.4484C25.1436 28.4501 25.0359 28.3614 25.0875 28.2C25.1006 28.1588 25.22 27.8213 25.3526 27.45C25.4852 27.0788 25.653 26.6063 25.7255 26.4C25.7979 26.1938 25.8758 25.98 25.8985 25.925C25.9213 25.87 25.967 25.7463 26 25.65C26.033 25.5538 26.078 25.43 26.1 25.375C26.122 25.32 26.167 25.1963 26.2 25.1C26.233 25.0038 26.278 24.88 26.3 24.825C26.322 24.77 26.367 24.6463 26.4 24.55C26.51 24.2296 26.5672 24.1259 26.6966 24.0128C26.8421 23.8855 27.1235 23.8641 27.2625 23.9696Z" fill="#D2E4F5"/>
<path fill-rule="evenodd" clip-rule="evenodd" d="M5.58749 20.665C5.37862 20.7475 5.42324 20.7978 5.63749 20.7213C5.99174 20.5949 7.67237 20.6245 7.79799 20.7594C7.85412 20.8196 7.89999 20.8456 7.89999 20.8171C7.89999 20.608 6.04112 20.4858 5.58749 20.665ZM18.5826 20.6375C18.5699 20.6581 19.0026 20.6681 19.5444 20.6596C20.832 20.6396 20.898 20.6781 20.7301 21.35C20.7041 21.4543 20.7111 21.4501 20.7722 21.325C20.8896 21.0845 20.8696 20.8635 20.7177 20.7226C20.5842 20.5989 18.6542 20.522 18.5826 20.6375ZM24.0907 20.739C24.1645 20.8155 24.2345 20.8718 24.246 20.8639C24.2749 20.8444 24.0419 20.6 23.9945 20.6C23.9735 20.6 24.0169 20.6626 24.0907 20.739ZM18.2386 20.8976C18.1455 21.0064 18.0446 21.147 18.0142 21.2101C17.8896 21.4699 17.6974 22.014 17.7216 22.0383C17.7359 22.0526 17.7615 22.0218 17.7784 21.9696C17.7952 21.9176 17.828 21.83 17.8512 21.775C17.8744 21.72 17.9219 21.585 17.9567 21.475C18.0295 21.2448 18.2095 20.9741 18.3959 20.8143C18.4669 20.7534 18.4986 20.7028 18.4664 20.7018C18.4341 20.7008 18.3316 20.789 18.2386 20.8976ZM5.21799 20.9708C5.07524 21.1496 4.87812 21.5948 4.92212 21.6388C4.93612 21.6528 4.96112 21.6218 4.97749 21.5696C4.99387 21.5176 5.02812 21.4359 5.05362 21.3881C5.07912 21.3404 5.09999 21.2724 5.09999 21.2371C5.09999 21.2018 5.16912 21.0889 5.25362 20.9864C5.33812 20.8839 5.39537 20.8 5.38074 20.8C5.36624 20.8 5.29299 20.8769 5.21799 20.9708ZM21.46 21.0875C21.4067 21.1631 21.3481 21.2813 21.3297 21.35C21.3099 21.4245 21.3369 21.3971 21.3964 21.2824C21.4514 21.1764 21.5224 21.0583 21.5542 21.0199C21.5861 20.9814 21.5997 20.95 21.5845 20.95C21.5692 20.95 21.5132 21.0119 21.46 21.0875ZM7.82499 21.2C7.80624 21.2591 7.80212 21.3188 7.81587 21.3325C7.82962 21.3463 7.85624 21.3091 7.87499 21.25C7.89374 21.1909 7.89787 21.1313 7.88412 21.1175C7.87037 21.1038 7.84374 21.1409 7.82499 21.2ZM7.72637 21.5088C7.70837 21.5726 7.67437 21.67 7.65074 21.725C7.60749 21.8258 7.54774 22.0674 7.54874 22.1373C7.54912 22.158 7.82412 22.1863 8.15999 22.2C8.75974 22.2245 8.77137 22.2273 8.80537 22.35C8.82487 22.4204 8.84224 22.4385 8.84499 22.3916C8.85862 22.1648 8.81887 22.15 8.19462 22.15C7.83312 22.15 7.59999 22.1305 7.59999 22.1003C7.59999 22.0728 7.64724 21.9139 7.70499 21.7469C7.76274 21.58 7.79862 21.432 7.78462 21.4179C7.77062 21.4039 7.74437 21.4448 7.72637 21.5088ZM4.78462 21.9346C4.73749 22.0616 4.70987 22.1766 4.72337 22.19C4.73674 22.2034 4.76149 22.1718 4.77849 22.1196C4.79549 22.0676 4.83274 21.9624 4.86137 21.8859C4.88999 21.8094 4.90374 21.7371 4.89187 21.7251C4.87999 21.7133 4.83174 21.8075 4.78462 21.9346ZM20.525 21.85C20.5062 21.9091 20.5021 21.9688 20.5159 21.9825C20.5296 21.9963 20.5562 21.9591 20.575 21.9C20.5937 21.8409 20.5979 21.7813 20.5841 21.7675C20.5704 21.7538 20.5437 21.7909 20.525 21.85ZM20.4221 22.1304C20.4055 22.1824 20.3712 22.2766 20.3459 22.3399C20.3206 22.403 20.3012 22.4818 20.3027 22.5149C20.3042 22.5479 20.35 22.4651 20.4045 22.3309C20.459 22.1966 20.492 22.0754 20.4779 22.0613C20.4639 22.0473 20.4387 22.0783 20.4221 22.1304ZM17.5544 22.4284C17.3784 22.9339 17.3791 22.9314 17.434 22.875C17.4607 22.8475 17.5131 22.7238 17.5502 22.6C17.5875 22.4763 17.6384 22.348 17.6631 22.3149C17.688 22.2819 17.7007 22.2159 17.6916 22.1683C17.6824 22.1208 17.6206 22.2378 17.5544 22.4284ZM4.62499 22.35C4.60624 22.4091 4.60212 22.4688 4.61587 22.4825C4.62962 22.4963 4.65624 22.4591 4.67499 22.4C4.69374 22.3409 4.69787 22.2813 4.68412 22.2675C4.67037 22.2538 4.64374 22.2909 4.62499 22.35ZM20.2216 22.6804C20.2047 22.7324 20.1727 22.82 20.1505 22.875C20.1282 22.93 20.083 23.0538 20.05 23.15C20.017 23.2463 19.972 23.37 19.95 23.425C19.928 23.48 19.883 23.6038 19.85 23.7C19.817 23.7963 19.772 23.92 19.75 23.975C19.728 24.03 19.683 24.1538 19.65 24.25C19.617 24.3463 19.5707 24.47 19.5475 24.525C19.4897 24.661 19.0207 25.9473 18.9777 26.0875C18.9134 26.2974 18.986 26.2014 19.0721 25.9625C19.1192 25.8319 19.1762 25.68 19.1989 25.625C19.2214 25.57 19.267 25.4463 19.3 25.35C19.3727 25.1384 19.4464 24.955 19.5059 24.8381C19.5301 24.7904 19.55 24.717 19.55 24.675C19.55 24.633 19.5699 24.5596 19.5941 24.5119C19.6536 24.395 19.7272 24.2116 19.8 24C19.833 23.9038 19.8792 23.78 19.9025 23.725C19.9259 23.67 19.9777 23.5238 20.018 23.4C20.0581 23.2763 20.1389 23.054 20.1972 22.906C20.2557 22.758 20.2921 22.6255 20.278 22.6114C20.2639 22.5973 20.2385 22.6283 20.2216 22.6804ZM4.42499 22.9C4.40624 22.9591 4.40212 23.0188 4.41587 23.0325C4.42962 23.0463 4.45624 23.0091 4.47499 22.95C4.49374 22.8909 4.49787 22.8313 4.48412 22.8175C4.47037 22.8038 4.44374 22.8409 4.42499 22.9ZM8.64999 22.8441C8.64999 22.8775 8.57687 22.9366 8.48749 22.9755C8.36237 23.0299 8.34899 23.0465 8.42974 23.048C8.54212 23.0501 8.73774 22.8711 8.68299 22.8164C8.66487 22.7983 8.64999 22.8106 8.64999 22.8441ZM17.2807 23.1808C17.2365 23.3106 17.211 23.4276 17.224 23.4406C17.237 23.4536 17.2615 23.4218 17.2785 23.3696C17.2955 23.3176 17.3327 23.2124 17.3614 23.1359C17.39 23.0594 17.4017 22.985 17.3874 22.9706C17.373 22.9564 17.325 23.0509 17.2807 23.1808ZM7.18087 23.1355C7.09549 23.3759 7.04774 23.5071 6.90462 23.8956C6.81937 24.127 6.76049 24.3271 6.77362 24.3404C6.78687 24.3535 6.81149 24.3218 6.82862 24.2696C6.86912 24.1456 7.04862 23.6526 7.09987 23.525C7.22349 23.2165 7.26074 23.0941 7.23812 23.0714C7.22412 23.0575 7.19837 23.0863 7.18087 23.1355ZM10.9172 23.0883C10.8854 23.1085 12.1004 23.1193 13.6172 23.1121C16.7726 23.0975 16.6305 23.0803 16.6161 23.4749C16.6101 23.6389 16.6221 23.6956 16.6527 23.6471C16.7462 23.4994 16.7056 23.2616 16.5682 23.1536C16.4326 23.047 11.0796 22.985 10.9172 23.0883ZM24.9894 23.091C24.9422 23.1098 26.0031 23.125 27.347 23.125C28.6909 23.125 29.7645 23.1085 29.7327 23.0883C29.6602 23.0421 25.1059 23.0448 24.9894 23.091ZM31.3172 23.0883C31.2855 23.1085 31.6602 23.125 32.15 23.125C32.6397 23.125 33.0145 23.1085 32.9827 23.0883C32.951 23.068 32.5762 23.0515 32.15 23.0515C31.7237 23.0515 31.349 23.068 31.3172 23.0883ZM35.3391 23.091C35.2919 23.1098 35.5567 23.1171 35.9279 23.1076C36.4894 23.093 36.6254 23.104 36.7387 23.173L36.875 23.2559L36.757 23.153C36.6359 23.0474 35.5675 23.0006 35.3391 23.091ZM38.939 23.091C38.8917 23.1098 39.2664 23.125 39.7716 23.125C40.2769 23.125 40.6799 23.1081 40.6671 23.0875C40.6386 23.041 39.0574 23.0443 38.939 23.091ZM41.8672 23.0883C41.8355 23.1085 43.1102 23.125 44.7 23.125C46.2897 23.125 47.5645 23.1085 47.5327 23.0883C47.501 23.068 46.2262 23.0515 44.7 23.0515C43.1737 23.0515 41.899 23.068 41.8672 23.0883ZM4.27687 23.3269C4.22874 23.453 4.20049 23.5671 4.21412 23.5808C4.22762 23.5944 4.27499 23.4991 4.31924 23.3693C4.42374 23.0624 4.39062 23.0293 4.27687 23.3269ZM10.5325 23.3001C10.3725 23.4406 10.1042 23.971 10.1634 24.03C10.1779 24.0446 10.2261 23.9471 10.2705 23.8135C10.3725 23.5065 10.4706 23.3664 10.6684 23.2459C10.7545 23.1934 10.7976 23.1503 10.7642 23.1501C10.7309 23.1501 10.6265 23.2175 10.5325 23.3001ZM24.4922 23.299C24.3686 23.3809 24.2241 23.4979 24.1712 23.559C24.1182 23.62 24.1762 23.5896 24.3 23.4915C24.4237 23.3933 24.5925 23.2771 24.675 23.2335C24.7575 23.1898 24.8007 23.1531 24.7711 23.152C24.7414 23.1509 24.616 23.217 24.4922 23.299ZM33.1 23.1656C33.1 23.1743 33.1731 23.2474 33.2625 23.3281L33.425 23.475L33.2781 23.3125C33.1412 23.161 33.1 23.127 33.1 23.1656ZM38.5366 23.2768C38.434 23.3465 38.35 23.4144 38.35 23.4275C38.35 23.4406 38.44 23.3919 38.55 23.3191C38.7246 23.2035 38.7837 23.15 38.7366 23.15C38.7292 23.15 38.6392 23.207 38.5366 23.2768ZM47.6837 23.2006C47.7161 23.2423 47.7517 23.366 47.7629 23.4756L47.7832 23.675L47.7916 23.4686C47.7975 23.3241 47.7737 23.2416 47.7125 23.1936C47.6361 23.1338 47.6325 23.1346 47.6837 23.2006ZM36.9 23.2598C36.9 23.2756 36.9336 23.353 36.9747 23.4318C37.0157 23.5105 37.0487 23.5413 37.0481 23.5C37.0474 23.4588 37.0137 23.3814 36.9734 23.328C36.933 23.2745 36.9 23.2439 36.9 23.2598ZM17.0769 23.7269C17.0287 23.853 16.9997 23.9665 17.0125 23.9791C17.0251 23.9919 17.075 23.8991 17.1231 23.7731C17.1712 23.647 17.2002 23.5335 17.1875 23.5209C17.1749 23.5081 17.125 23.6009 17.0769 23.7269ZM33.4222 23.764C33.4237 23.9159 33.4415 24.0143 33.4617 23.9825C33.5076 23.9106 33.5047 23.7051 33.4562 23.5815C33.4341 23.5251 33.4206 23.5975 33.4222 23.764ZM30.2116 23.75C30.2116 23.8463 30.2219 23.8856 30.2345 23.8375C30.247 23.7894 30.247 23.7106 30.2345 23.6625C30.2219 23.6144 30.2116 23.6538 30.2116 23.75ZM37.0616 23.75C37.0616 23.8463 37.0719 23.8856 37.0845 23.8375C37.097 23.7894 37.097 23.7106 37.0845 23.6625C37.0719 23.6144 37.0616 23.6538 37.0616 23.75ZM4.12149 23.7304C4.10449 23.7824 4.06724 23.8876 4.03862 23.9641C4.00999 24.0406 3.99824 24.115 4.01262 24.1294C4.02699 24.1436 4.07499 24.0491 4.11924 23.9193C4.16349 23.7894 4.18899 23.6724 4.17599 23.6594C4.16299 23.6464 4.13849 23.6783 4.12149 23.7304ZM37.9616 23.8375C37.8321 24.0245 37.7901 24.1 37.8154 24.1C37.8271 24.1 37.8962 24.01 37.9691 23.9C38.117 23.6765 38.1105 23.6224 37.9616 23.8375ZM16.4769 23.9769C16.4287 24.103 16.3997 24.2165 16.4125 24.2291C16.4251 24.2419 16.475 24.1491 16.5231 24.0231C16.5712 23.897 16.6002 23.7835 16.5875 23.7709C16.5749 23.7581 16.525 23.8509 16.4769 23.9769ZM34.2724 23.9136C34.1596 24.0996 34.1071 24.2173 34.0457 24.4216C33.9815 24.6358 34.0677 24.5101 34.1466 24.275C34.1834 24.165 34.258 24.0119 34.3122 23.9346C34.3665 23.8574 34.4016 23.785 34.3904 23.7736C34.379 23.7624 34.3259 23.8254 34.2724 23.9136ZM12.9747 24.0003C12.9247 24.0555 12.897 24.1136 12.9129 24.1296C12.9289 24.1455 12.967 24.1116 12.9977 24.0543C13.0447 23.9664 13.1006 23.95 13.3534 23.95C13.7726 23.95 13.7832 24.0016 13.5059 24.6908C13.447 24.837 13.4216 24.9425 13.4494 24.9254C13.4772 24.9081 13.5 24.8726 13.5 24.8465C13.5 24.7984 13.6655 24.4045 13.7589 24.2306C13.916 23.9376 13.2171 23.7324 12.9747 24.0003ZM44.2625 23.9359C44.3381 23.9473 44.4619 23.9473 44.5375 23.9359C44.6131 23.9244 44.5512 23.915 44.4 23.915C44.2487 23.915 44.1869 23.9244 44.2625 23.9359ZM26.6587 24.0658C26.5989 24.1294 26.55 24.2019 26.55 24.2269C26.55 24.2519 26.5861 24.2206 26.6304 24.1575C26.6745 24.0945 26.7589 24.0234 26.8179 23.9996C26.8894 23.9708 26.8989 23.9553 26.8462 23.9531C26.8029 23.9514 26.7185 24.0021 26.6587 24.0658ZM27.2411 24.0061C27.2745 24.0508 27.2884 24.1295 27.2721 24.1811C27.2434 24.2721 27.2442 24.2721 27.3016 24.1823C27.3499 24.1066 27.3441 24.0743 27.2706 24.0073C27.1899 23.9335 27.1867 23.9334 27.2411 24.0061ZM23.7606 24.1016C23.7272 24.155 23.7001 24.2271 23.7002 24.2619C23.7005 24.2966 23.7346 24.2598 23.7762 24.18C23.8629 24.0139 23.8514 23.9563 23.7606 24.1016ZM16.925 24.15C16.9062 24.2091 16.9021 24.2688 16.9159 24.2825C16.9296 24.2963 16.9562 24.2591 16.975 24.2C16.9937 24.1409 16.9979 24.0813 16.9841 24.0675C16.9704 24.0538 16.9437 24.0909 16.925 24.15ZM47.5242 24.3206C47.4764 24.4725 47.3594 24.6931 47.264 24.8109L47.0907 25.025L47.2867 24.8159C47.4585 24.6325 47.6914 24.1246 47.6311 24.0645C47.6201 24.0535 47.572 24.1688 47.5242 24.3206ZM10.079 24.1554C10.0662 24.1936 10.0229 24.3263 9.98262 24.45C9.90487 24.689 9.76887 25.0594 9.69787 25.225C9.67424 25.28 9.62162 25.4263 9.58087 25.55C9.53999 25.6738 9.43749 25.9643 9.35312 26.1956C9.26874 26.427 9.21049 26.6271 9.22362 26.6404C9.23687 26.6535 9.26149 26.6218 9.27849 26.5696C9.40387 26.1854 9.47574 25.9956 9.55587 25.8381C9.58012 25.7904 9.59999 25.7105 9.59999 25.6606C9.59999 25.6108 9.61787 25.5486 9.63974 25.5225C9.66162 25.4964 9.70812 25.385 9.74312 25.275C9.77799 25.165 9.82637 25.03 9.85049 24.975C9.96162 24.7216 10.1502 24.1336 10.1276 24.1109C10.1137 24.097 10.0919 24.117 10.079 24.1554ZM3.92149 24.2804C3.84437 24.5168 3.78674 24.6828 3.74987 24.775C3.72774 24.83 3.66037 25.01 3.59999 25.175C3.53962 25.34 3.47224 25.52 3.45012 25.575C3.42812 25.63 3.38299 25.7538 3.34999 25.85C3.31699 25.9463 3.27174 26.07 3.24962 26.125C3.11237 26.4655 3.04912 26.6658 3.07174 26.6884C3.08599 26.7026 3.11112 26.6718 3.12749 26.6196C3.14387 26.5676 3.17812 26.4859 3.20362 26.4381C3.22912 26.3904 3.24999 26.317 3.24999 26.275C3.24999 26.233 3.26987 26.1596 3.29412 26.1119C3.35362 25.995 3.42724 25.8116 3.49999 25.6C3.53299 25.5038 3.57812 25.38 3.60012 25.325C3.62224 25.27 3.68524 25.1013 3.74024 24.95C3.79524 24.7988 3.87712 24.5766 3.92224 24.4563C3.96724 24.336 3.99249 24.2259 3.97824 24.2116C3.96399 24.1974 3.93849 24.2283 3.92149 24.2804ZM12.7275 24.5525C12.6512 24.7468 12.5991 24.9158 12.6115 24.9281C12.6239 24.9405 12.6962 24.7918 12.7725 24.5975C12.8487 24.4033 12.9009 24.2343 12.8885 24.2219C12.8761 24.2095 12.8037 24.3583 12.7275 24.5525ZM16.325 24.4C16.3062 24.4591 16.3021 24.5188 16.3159 24.5325C16.3296 24.5463 16.3562 24.5091 16.375 24.45C16.3937 24.3909 16.3979 24.3313 16.3841 24.3175C16.3704 24.3038 16.3437 24.3409 16.325 24.4ZM23.5822 24.563C23.466 24.8675 23.485 24.9255 23.6045 24.6309C23.659 24.4966 23.6947 24.378 23.684 24.3673C23.6732 24.3565 23.6275 24.4446 23.5822 24.563ZM6.52862 24.9036C6.42562 25.181 6.35137 25.418 6.36349 25.4301C6.37562 25.4423 6.42424 25.3449 6.47162 25.2136C6.51899 25.0824 6.57624 24.93 6.59887 24.875C6.71537 24.5913 6.76112 24.4444 6.73962 24.4229C6.72649 24.4098 6.63149 24.6261 6.52862 24.9036ZM16.75 24.609C16.75 24.6231 16.681 24.8238 16.5967 25.0548C16.5124 25.2859 16.41 25.5763 16.3691 25.7C16.3284 25.8238 16.2759 25.97 16.2525 26.025C16.2292 26.08 16.183 26.2038 16.15 26.3C16.0754 26.5174 16.0287 26.6396 15.9592 26.8C15.9294 26.8688 15.8716 27.0263 15.8309 27.15C15.757 27.3736 15.5127 28.0431 15.404 28.3194C15.3727 28.3989 15.3585 28.4753 15.3724 28.4891C15.3862 28.503 15.4115 28.4718 15.4284 28.4196C15.4452 28.3676 15.4772 28.28 15.4995 28.225C15.5217 28.17 15.567 28.0463 15.6 27.95C15.633 27.8538 15.678 27.73 15.7 27.675C15.722 27.62 15.767 27.4963 15.8 27.4C15.833 27.3038 15.878 27.18 15.9 27.125C15.922 27.07 15.967 26.9463 16 26.85C16.033 26.7538 16.0781 26.63 16.1001 26.575C16.3547 25.9399 16.8051 24.6384 16.7792 24.6126C16.7631 24.5965 16.75 24.5949 16.75 24.609ZM33.9114 24.7625C33.8262 24.998 33.838 25.0618 33.9282 24.8538C33.9691 24.7596 33.9957 24.6624 33.9876 24.6378C33.9794 24.6131 33.945 24.6693 33.9114 24.7625ZM44.5 24.797C44.5 24.8779 44.5177 24.9551 44.5395 24.9685C44.5612 24.982 44.5701 24.9159 44.5591 24.8215C44.5345 24.6114 44.5 24.5971 44.5 24.797ZM16.1252 24.9625C16.0914 25.0833 16.0155 25.2715 15.9441 25.4119C15.9199 25.4596 15.901 25.5384 15.9021 25.5869C15.9044 25.6811 16.1099 25.2169 16.1674 24.9875C16.2086 24.8234 16.1705 24.8008 16.1252 24.9625ZM43.5811 25.1769C43.564 25.2216 43.5526 25.3183 43.5557 25.3916C43.56 25.4915 43.5712 25.4748 43.6005 25.325C43.6419 25.1125 43.6327 25.0425 43.5811 25.1769ZM44.7327 25.1625C44.7615 25.209 46.6926 25.2058 46.8109 25.159C46.8581 25.1403 46.4047 25.125 45.8032 25.125C45.2017 25.125 44.7201 25.1419 44.7327 25.1625ZM12.3857 25.4521C12.3392 25.5708 12.3107 25.6774 12.3226 25.6893C12.353 25.7198 12.5057 25.3423 12.4864 25.2843C12.4776 25.258 12.4324 25.3335 12.3857 25.4521ZM13.1334 25.5584C13.0601 25.728 13.0107 25.8775 13.0237 25.8904C13.0366 25.9033 13.0717 25.8493 13.1019 25.7701C13.1319 25.6911 13.1917 25.5523 13.2347 25.4615C13.2779 25.3708 13.3026 25.2859 13.2897 25.2731C13.277 25.2603 13.2065 25.3886 13.1334 25.5584ZM23.2346 25.4846C23.1875 25.6116 23.1572 25.7239 23.1672 25.734C23.1774 25.744 23.225 25.6491 23.2731 25.5231C23.3212 25.397 23.3515 25.2849 23.3404 25.2738C23.3294 25.2626 23.2817 25.3575 23.2346 25.4846ZM32.8614 25.6125C32.7762 25.848 32.788 25.9118 32.8782 25.7038C32.9191 25.6096 32.9457 25.5124 32.9376 25.4878C32.9294 25.4631 32.895 25.5193 32.8614 25.6125ZM45.1419 25.5471L46.6587 25.575L46.7794 25.7153C46.8457 25.7925 46.9 25.8358 46.9 25.8115C46.9 25.7873 46.842 25.7129 46.771 25.6463L46.6421 25.525L45.1335 25.5221L43.625 25.5193L45.1419 25.5471ZM22.5734 25.625C22.5605 25.6663 22.539 25.7349 22.5256 25.7776C22.5121 25.8203 22.5207 25.8431 22.5446 25.8284C22.5685 25.8136 22.5989 25.7449 22.6121 25.6758C22.6382 25.5391 22.6112 25.5038 22.5734 25.625ZM15.8225 25.7804C15.8061 25.8324 15.7719 25.9141 15.7464 25.9619C15.7209 26.0096 15.7 26.082 15.7 26.1228C15.7 26.1981 15.5279 26.5359 15.4452 26.6225C15.3697 26.7018 15.3947 26.7624 15.4714 26.6858C15.59 26.5671 15.927 25.7604 15.8782 25.7116C15.864 25.6974 15.8389 25.7283 15.8225 25.7804ZM12.2566 25.875C12.2442 26.12 12.7601 26.2234 12.9495 26.0139C13.017 25.9394 13.0169 25.9365 12.9484 25.9874C12.7416 26.1408 12.3329 26.0715 12.2856 25.875L12.2616 25.775L12.2566 25.875ZM6.07149 26.1304C6.05449 26.1824 6.01724 26.2876 5.98862 26.3641C5.95999 26.4406 5.94824 26.515 5.96262 26.5294C5.97699 26.5436 6.02499 26.4491 6.06924 26.3193C6.11349 26.1894 6.13899 26.0724 6.12599 26.0594C6.11299 26.0464 6.08849 26.0783 6.07149 26.1304ZM18.875 26.35C18.8562 26.4091 18.8521 26.4688 18.8659 26.4825C18.8796 26.4963 18.9062 26.4591 18.925 26.4C18.9437 26.3409 18.9479 26.2813 18.9341 26.2675C18.9204 26.2538 18.8937 26.2909 18.875 26.35ZM19.4614 26.4625C19.3762 26.698 19.388 26.7618 19.4782 26.5538C19.5191 26.4596 19.5457 26.3624 19.5376 26.3378C19.5294 26.3131 19.495 26.3693 19.4614 26.4625ZM40.6932 26.3633C40.7142 26.3843 41.4162 26.3955 42.2532 26.3883L43.775 26.3749L42.215 26.35C41.3569 26.3363 40.6721 26.3423 40.6932 26.3633ZM5.87149 26.6804C5.85449 26.7324 5.81724 26.8376 5.78862 26.9141C5.75999 26.9906 5.74824 27.065 5.76262 27.0794C5.77699 27.0936 5.82499 26.9991 5.86924 26.8693C5.91349 26.7394 5.93899 26.6224 5.92599 26.6094C5.91299 26.5964 5.88849 26.6283 5.87149 26.6804ZM9.15574 26.7334C9.15262 26.7655 9.13549 26.833 9.11762 26.8834C9.09249 26.9545 9.09924 26.9621 9.14737 26.9178C9.18149 26.8864 9.19862 26.8189 9.18549 26.7678C9.17237 26.7168 9.15899 26.7013 9.15574 26.7334ZM2.93462 26.9846C2.88749 27.1116 2.85987 27.2266 2.87337 27.24C2.88674 27.2534 2.91149 27.2218 2.92849 27.1696C2.94549 27.1176 2.98274 27.0124 3.01137 26.9359C3.03999 26.8594 3.05374 26.7871 3.04187 26.7751C3.02999 26.7633 2.98174 26.8575 2.93462 26.9846ZM15.25 26.8C15.2056 26.8286 14.5244 26.8488 13.5825 26.8493L11.9901 26.85L11.845 27.0053C11.7652 27.0908 11.7011 27.2089 11.7026 27.2678C11.7045 27.3466 11.7254 27.3264 11.7814 27.1914C11.8862 26.9388 11.8504 26.9439 13.4636 26.9485C14.8397 26.9525 15.2512 26.9194 15.3259 26.7986C15.3634 26.7379 15.3456 26.7383 15.25 26.8ZM40.1579 26.9314C40.0126 27.1075 39.9132 27.3286 40.0046 27.2721C40.0296 27.2568 40.05 27.2168 40.05 27.1835C40.05 27.1501 40.1191 27.0389 40.2036 26.9364C40.2881 26.8339 40.346 26.75 40.3322 26.75C40.3185 26.75 40.24 26.8316 40.1579 26.9314ZM18.675 26.9C18.6562 26.9591 18.6521 27.0188 18.6659 27.0325C18.6796 27.0463 18.7062 27.0091 18.725 26.95C18.7437 26.8909 18.7479 26.8313 18.7341 26.8175C18.7204 26.8038 18.6937 26.8409 18.675 26.9ZM8.92624 27.3763C8.85024 27.5844 8.80099 27.7676 8.81662 27.7833C8.83224 27.799 8.86062 27.7473 8.87949 27.6684C8.89837 27.5895 8.92849 27.5025 8.94649 27.475C9.00399 27.3869 9.10999 27.0433 9.08674 27.02C9.07437 27.0078 9.00212 27.168 8.92624 27.3763ZM5.67162 27.2304C5.65474 27.2824 5.62274 27.37 5.60049 27.425C5.57824 27.48 5.53299 27.6038 5.49999 27.7C5.46699 27.7963 5.42149 27.92 5.39912 27.975C5.21187 28.4341 5.23712 28.4451 6.50774 28.4613C7.10337 28.4689 7.58012 28.4581 7.56737 28.4375C7.55449 28.4169 7.06162 28.4 6.47199 28.4C5.65087 28.4 5.39862 28.3854 5.39412 28.3375C5.38249 28.2153 5.40837 28.1194 5.57837 27.6544C5.67299 27.3955 5.73962 27.1729 5.72637 27.1598C5.71312 27.1465 5.68849 27.1783 5.67162 27.2304ZM12.8672 27.2883C12.8354 27.3085 13.3011 27.325 13.9021 27.325C15.1822 27.325 15.2184 27.3415 15.076 27.8626C15.0482 27.9639 15.0509 27.9659 15.1027 27.8829C15.2062 27.7168 15.1822 27.447 15.0545 27.3436C14.9337 27.2458 13.0106 27.1971 12.8672 27.2883ZM2.67999 27.655C2.60687 27.8523 2.55837 28.0251 2.57237 28.039C2.58624 28.0529 2.61149 28.0218 2.62862 27.9696C2.64562 27.9176 2.70524 27.7561 2.76124 27.6108C2.81724 27.4654 2.85174 27.3351 2.83799 27.3214C2.82424 27.3076 2.75312 27.4578 2.67999 27.655ZM12.5621 27.5125C12.4755 27.6019 12.3354 27.8429 12.2509 28.048C12.0707 28.4846 12.0547 28.4983 11.7186 28.4993C11.4151 28.5001 11.3039 28.4115 11.3879 28.2358C11.5504 27.8953 11.7135 27.3858 11.6467 27.427C11.621 27.4429 11.6 27.4886 11.6 27.5286C11.6 27.5686 11.5792 27.6404 11.554 27.6881C11.3997 27.9794 11.2867 28.3679 11.3344 28.4438C11.4929 28.696 12.25 28.513 12.25 28.2224C12.25 28.0854 12.4637 27.6671 12.6129 27.5125C12.6991 27.4231 12.7584 27.35 12.7446 27.35C12.7309 27.35 12.6487 27.4231 12.5621 27.5125ZM25.8734 27.925C25.8605 27.9663 25.839 28.0349 25.8256 28.0776C25.8121 28.1203 25.8207 28.1431 25.8446 28.1284C25.8685 28.1136 25.8989 28.0449 25.9121 27.9758C25.9382 27.8391 25.9112 27.8038 25.8734 27.925ZM18.2834 27.9334C18.265 27.9516 18.2514 28.0135 18.2531 28.0709C18.2561 28.1666 18.2602 28.1654 18.3042 28.0553C18.3532 27.9329 18.343 27.8736 18.2834 27.9334ZM14.9307 28.2308C14.8262 28.5376 14.8594 28.5708 14.9731 28.2731C15.0212 28.147 15.0495 28.0329 15.0359 28.0193C15.0224 28.0056 14.975 28.1009 14.9307 28.2308ZM2.48599 28.1666C2.46624 28.217 2.45137 28.307 2.45312 28.3666C2.45612 28.4695 2.45887 28.4688 2.50499 28.3531C2.53174 28.2861 2.54662 28.1961 2.53787 28.1531C2.52487 28.0889 2.51562 28.0913 2.48599 28.1666ZM8.62499 28.2C8.60624 28.2591 8.60212 28.3188 8.61587 28.3325C8.62962 28.3463 8.65624 28.3091 8.67499 28.25C8.69374 28.1909 8.69787 28.1313 8.68412 28.1175C8.67037 28.1038 8.64374 28.1409 8.62499 28.2ZM36.15 28.284C36.0391 28.4013 36.0371 28.4098 36.1316 28.3595C36.1902 28.3283 36.2514 28.2684 36.2675 28.2264C36.3067 28.1243 36.296 28.1295 36.15 28.284ZM42.4701 28.3C42.4746 28.4163 42.4934 28.4253 42.7377 28.4294L43.0006 28.4338L42.7534 28.4144C42.5459 28.3981 42.5029 28.3774 42.4857 28.285C42.4689 28.1939 42.4661 28.1964 42.4701 28.3ZM18.1716 28.2804C18.0431 28.6766 17.8825 28.9773 17.7139 29.1375C17.6199 29.2269 17.5652 29.3 17.5925 29.3C17.7467 29.3 18.3257 28.3091 18.2284 28.2118C18.2141 28.1974 18.1885 28.2283 18.1716 28.2804ZM22.1697 28.4281C22.152 28.4986 22.1572 28.6005 22.1812 28.6544C22.2142 28.7283 22.225 28.6966 22.225 28.5261C22.225 28.2668 22.2147 28.2486 22.1697 28.4281ZM28.5249 28.464C28.4727 28.5526 28.3282 28.7375 28.204 28.875C28.0046 29.0955 28.0004 29.1044 28.1687 28.95C28.3662 28.7689 28.6747 28.3581 28.6397 28.323C28.6287 28.312 28.577 28.3755 28.5249 28.464ZM8.48487 28.6063C8.43812 28.7284 8.40099 28.8614 8.40237 28.9016C8.40362 28.942 8.44862 28.8625 8.50224 28.725C8.55599 28.5875 8.59312 28.4545 8.58474 28.4295C8.57649 28.4045 8.53149 28.484 8.48487 28.6063ZM7.55174 28.6468C7.52324 28.6999 7.49999 28.779 7.49999 28.8224C7.49999 28.8659 7.47399 28.9516 7.44224 29.0131C7.41049 29.0746 7.36862 29.1588 7.34924 29.2C7.31899 29.2646 7.02162 29.2766 5.19462 29.287C2.75537 29.3008 2.78887 29.3064 2.56449 28.8498C2.49212 28.7023 2.45337 28.6598 2.45199 28.7261C2.44887 28.8796 2.71974 29.1748 2.97299 29.2938C3.19149 29.3965 3.26449 29.4 5.18837 29.4C7.55287 29.4 7.36374 29.4505 7.57499 28.7625C7.64474 28.5351 7.63574 28.4899 7.55174 28.6468ZM15.3057 28.5834C15.3026 28.6155 15.2855 28.683 15.2676 28.7334C15.2425 28.8045 15.2492 28.8121 15.2974 28.7678C15.3315 28.7364 15.3486 28.6689 15.3355 28.6178C15.3224 28.5668 15.309 28.5513 15.3057 28.5834ZM39.4116 28.8C39.4116 28.8963 39.4219 28.9356 39.4345 28.8875C39.447 28.8394 39.447 28.7606 39.4345 28.7125C39.4219 28.6644 39.4116 28.7038 39.4116 28.8ZM14.634 28.9648C14.4464 29.3133 14.5705 29.3001 11.4672 29.2984C8.53737 29.2968 8.59424 29.301 8.45699 29.075C8.39762 28.9771 8.39662 28.977 8.41099 29.0733C8.41912 29.1273 8.50199 29.2229 8.59524 29.2858L8.76474 29.4H11.4416C14.053 29.4 14.1237 29.3975 14.3339 29.2958C14.5481 29.192 14.7731 28.9445 14.741 28.848C14.7317 28.8201 14.6836 28.8728 14.634 28.9648ZM18.5886 28.8883C18.5759 28.9369 18.5829 29.0213 18.6042 29.0758C18.6337 29.1514 18.6437 29.1304 18.6465 28.9875C18.6502 28.7866 18.626 28.7451 18.5886 28.8883ZM15.2059 28.9408C15.1975 29.1061 15.2806 29.2374 15.449 29.3245C15.6229 29.4144 17.4212 29.437 17.475 29.35C17.4952 29.3173 17.1504 29.3 16.4775 29.3C15.3431 29.3 15.3202 29.2938 15.2434 28.9616C15.215 28.839 15.2112 28.8369 15.2059 28.9408ZM21.25 29.05C21.1912 29.1325 21.1545 29.2 21.1682 29.2C21.182 29.2 21.2412 29.1325 21.3 29.05C21.3587 28.9675 21.3955 28.9 21.3817 28.9C21.368 28.9 21.3087 28.9675 21.25 29.05ZM18.8672 29.3618C18.9435 29.4103 20.8874 29.411 20.9172 29.3625C20.93 29.3419 20.4609 29.325 19.8749 29.325C19.2889 29.325 18.8354 29.3415 18.8672 29.3618Z" fill="#659BD5"/>
<path fill-rule="evenodd" clip-rule="evenodd" d="M5.62498 20.7246C5.42336 20.7954 5.09998 21.1092 5.09998 21.234C5.09998 21.271 5.08011 21.3404 5.05586 21.3881C4.99636 21.505 4.92273 21.6884 4.84998 21.9C4.81698 21.9962 4.77198 22.12 4.74998 22.175C4.72798 22.23 4.68298 22.3537 4.64998 22.45C4.61698 22.5462 4.57123 22.67 4.54836 22.725C4.52548 22.78 4.35761 23.2412 4.17536 23.75C3.84111 24.6831 3.67373 25.1415 3.60011 25.325C3.57811 25.38 3.53298 25.5037 3.49998 25.6C3.42723 25.8116 3.35361 25.995 3.29411 26.1119C3.26986 26.1596 3.24998 26.233 3.24998 26.275C3.24998 26.317 3.23011 26.3904 3.20586 26.4381C3.14636 26.555 3.07273 26.7384 2.99998 26.95C2.96698 27.0462 2.92186 27.17 2.89986 27.225C2.87773 27.28 2.81036 27.46 2.74998 27.625C2.68961 27.79 2.62198 27.97 2.59973 28.025C2.38498 28.5555 2.48236 28.9666 2.87498 29.1867C3.13411 29.3321 7.27973 29.3444 7.35123 29.2C7.47536 28.9494 7.60136 28.5427 7.57048 28.4926C7.55598 28.4692 7.06273 28.45 6.47448 28.45C5.22998 28.45 5.20911 28.4407 5.39911 27.975C5.42148 27.92 5.46698 27.7962 5.49998 27.7C5.53298 27.6037 5.58036 27.4744 5.60498 27.4125C5.62973 27.3506 5.67023 27.2494 5.69498 27.1875C5.71961 27.1256 5.76698 26.9962 5.79998 26.9C5.83298 26.8037 5.87798 26.68 5.89998 26.625C5.92198 26.57 5.96698 26.4462 5.99998 26.35C6.03298 26.2537 6.08036 26.1244 6.10498 26.0625C6.12973 26.0006 6.17023 25.8994 6.19498 25.8375C6.21961 25.7756 6.26298 25.6575 6.29111 25.575C6.41236 25.2201 7.07461 23.4175 7.16836 23.1875L7.22436 23.05H7.76373C8.49011 23.05 8.61448 22.9965 8.72848 22.6346C8.86273 22.2087 8.85136 22.2 8.15986 22.2C7.43436 22.2 7.45873 22.2229 7.65423 21.725C8.06698 20.673 8.04723 20.6491 6.76048 20.6522C6.09036 20.6537 5.76823 20.6742 5.62498 20.7246ZM18.575 20.7007C18.331 20.8091 18.0601 21.1484 17.9567 21.475C17.8906 21.6839 17.819 21.8647 17.7441 22.0119C17.7199 22.0596 17.7 22.1395 17.7 22.1894C17.7 22.2392 17.6814 22.3014 17.6587 22.3275C17.636 22.3536 17.5869 22.4762 17.5497 22.6C17.5125 22.7237 17.4682 22.8475 17.4514 22.875C17.4346 22.9025 17.3921 23.015 17.3571 23.125C17.3221 23.235 17.2746 23.37 17.2516 23.425C17.2286 23.48 17.1625 23.6544 17.1049 23.8125C17.0472 23.9706 16.9565 24.2181 16.9034 24.3625C16.8502 24.5069 16.7022 24.9175 16.5745 25.275C16.3175 25.9942 16.161 26.4232 16.1001 26.575C16.0781 26.63 16.033 26.7537 16 26.85C15.967 26.9462 15.922 27.07 15.9 27.125C15.878 27.18 15.833 27.3037 15.8 27.4C15.767 27.4962 15.722 27.62 15.7 27.675C15.678 27.73 15.633 27.8537 15.6 27.95C15.5272 28.1616 15.4536 28.345 15.3941 28.4619C15.3699 28.5096 15.35 28.5926 15.35 28.6464C15.35 28.7001 15.3275 28.758 15.3 28.775C15.2142 28.828 15.2452 29.076 15.352 29.1906C15.4505 29.2962 15.4886 29.3 16.4847 29.3C17.7602 29.3 17.7795 29.2899 18.1121 28.45C18.1394 28.3812 18.1815 28.2859 18.2059 28.2381C18.2301 28.1904 18.25 28.117 18.25 28.075C18.25 28.033 18.2699 27.9596 18.2941 27.9119C18.3536 27.795 18.4272 27.6116 18.5 27.4C18.533 27.3037 18.578 27.18 18.6 27.125C18.622 27.07 18.667 26.9462 18.7 26.85C18.733 26.7537 18.7792 26.63 18.8027 26.575C18.8262 26.52 18.9114 26.2837 18.992 26.05C19.1534 25.5825 19.4814 24.6824 19.5477 24.525C19.5709 24.47 19.617 24.3462 19.65 24.25C19.683 24.1537 19.728 24.03 19.75 23.975C19.772 23.92 19.817 23.7962 19.85 23.7C19.883 23.6037 19.928 23.48 19.95 23.425C19.972 23.37 20.017 23.2462 20.05 23.15C20.083 23.0537 20.1334 22.9187 20.1617 22.85C20.236 22.6702 20.2817 22.5486 20.35 22.35C20.383 22.2537 20.428 22.13 20.45 22.075C20.472 22.02 20.517 21.8962 20.55 21.8C20.6126 21.6176 20.6495 21.5195 20.7437 21.2851C20.8389 21.0485 20.8132 20.8676 20.6682 20.7536C20.5256 20.6414 18.8064 20.598 18.575 20.7007ZM10.9137 23.1479C10.5179 23.2435 10.4286 23.3652 10.124 24.2257C9.99748 24.5829 9.87436 24.92 9.85036 24.975C9.82623 25.03 9.77798 25.165 9.74311 25.275C9.70811 25.385 9.66161 25.4964 9.63973 25.5225C9.61786 25.5486 9.59998 25.6107 9.59998 25.6606C9.59998 25.7105 9.58011 25.7904 9.55586 25.8381C9.48123 25.9847 9.40948 26.1657 9.34311 26.375C9.30811 26.485 9.26161 26.5964 9.23973 26.6225C9.21786 26.6486 9.19998 26.7172 9.19998 26.775C9.19998 26.8327 9.18136 26.9014 9.15873 26.9275C9.13598 26.9536 9.08686 27.0762 9.04973 27.2C9.01248 27.3237 8.96823 27.4475 8.95136 27.475C8.93461 27.5025 8.89211 27.615 8.85711 27.725C8.82211 27.835 8.77386 27.97 8.74998 28.025C8.43161 28.7589 8.39123 29.077 8.59636 29.2359C8.73286 29.3416 14.2174 29.325 14.398 29.2182C14.73 29.0221 15.2482 27.5781 15.0556 27.3856C15.0117 27.3417 14.6917 27.325 13.9007 27.325H12.8065L12.6467 27.475C12.4947 27.6177 12.25 28.0772 12.25 28.2196C12.25 28.5126 11.4939 28.6976 11.3344 28.4437C11.2834 28.3625 11.4489 27.845 11.6559 27.4381C11.6801 27.3904 11.7 27.3084 11.7 27.256C11.7 27.2035 11.7652 27.0907 11.845 27.0052L11.9901 26.85H13.5677C15.2001 26.85 15.322 26.8364 15.4449 26.6396C15.6056 26.3821 15.7 26.191 15.7 26.1227C15.7 26.082 15.7225 26.004 15.75 25.9494C15.7775 25.8947 15.8225 25.8052 15.85 25.7506C15.8775 25.696 15.9 25.617 15.9 25.575C15.9 25.533 15.9199 25.4596 15.9441 25.4119C16.0036 25.295 16.0772 25.1116 16.15 24.9C16.183 24.8037 16.2287 24.68 16.2515 24.625C16.5794 23.833 16.6982 23.3267 16.5832 23.2117C16.4892 23.1177 11.2815 23.0591 10.9137 23.1479ZM13.7462 24.0181C13.7909 24.1012 13.7945 24.164 13.759 24.2306C13.7311 24.2825 13.6727 24.4094 13.6292 24.5125C13.5856 24.6156 13.514 24.7844 13.4699 24.8875C13.4259 24.9906 13.3719 25.12 13.3499 25.175C13.3279 25.23 13.2627 25.3816 13.205 25.512C13.1472 25.6422 13.0999 25.766 13.0997 25.787C13.0987 25.9455 12.862 26.1 12.608 26.1079C12.1654 26.1216 12.1586 25.995 12.5501 25.025C12.5722 24.97 12.6636 24.7337 12.7531 24.5C12.9735 23.9241 12.9985 23.9 13.3742 23.9C13.6477 23.9 13.6904 23.9135 13.7462 24.0181Z" fill="#80B6E9"/>
<path fill-rule="evenodd" clip-rule="evenodd" d="M22.5125 20.6373C22.7806 20.6463 23.2194 20.6463 23.4875 20.6373C23.7556 20.6283 23.5363 20.6209 23 20.6209C22.4638 20.6209 22.2444 20.6283 22.5125 20.6373ZM30.0076 23.325C30.0806 23.4075 30.1511 23.52 30.1644 23.575C30.1878 23.6724 30.1885 23.6724 30.1943 23.5719C30.1975 23.5138 30.1291 23.4046 30.0375 23.3219L29.875 23.175L30.0076 23.325ZM24.1473 23.6375L23.975 23.825L24.1625 23.6528C24.2656 23.5579 24.35 23.4735 24.35 23.4653C24.35 23.427 24.3078 23.463 24.1473 23.6375ZM37.0136 23.75C37.0136 23.8738 37.0234 23.9244 37.0353 23.8625C37.0473 23.8006 37.0473 23.6994 37.0353 23.6375C37.0234 23.5756 37.0136 23.6263 37.0136 23.75ZM26.8875 23.9353C26.9494 23.9473 27.0506 23.9473 27.1125 23.9353C27.1744 23.9234 27.1238 23.9136 27 23.9136C26.8763 23.9136 26.8256 23.9234 26.8875 23.9353ZM47.1719 24.8625L47.025 25.025L47.1875 24.8781C47.2769 24.7974 47.35 24.7243 47.35 24.7156C47.35 24.677 47.3088 24.711 47.1719 24.8625ZM45.2375 25.1373C45.5194 25.1463 45.9807 25.1463 46.2625 25.1373C46.5444 25.1284 46.3138 25.1211 45.75 25.1211C45.1863 25.1211 44.9556 25.1284 45.2375 25.1373ZM43.6172 25.5618C43.649 25.582 44.3275 25.5943 45.125 25.589C46.6653 25.579 46.4885 25.5594 44.6672 25.538C44.0578 25.5309 43.5853 25.5415 43.6172 25.5618ZM41.5962 26.6875C42.3077 26.6976 42.6413 26.7208 42.6961 26.7636C42.7658 26.8178 42.767 26.8148 42.7064 26.7375C42.6444 26.6585 42.5374 26.6511 41.6064 26.6614L40.575 26.6728L41.5962 26.6875ZM40.2463 26.8875L40.125 27.025L40.275 26.9C40.3575 26.8313 40.4344 26.7694 40.4459 26.7625C40.4573 26.7556 40.4444 26.75 40.417 26.75C40.3898 26.75 40.3129 26.8119 40.2463 26.8875ZM42.7637 27.05C42.7637 27.1738 42.7734 27.2244 42.7853 27.1625C42.7973 27.1006 42.7973 26.9994 42.7853 26.9375C42.7734 26.8756 42.7637 26.9263 42.7637 27.05ZM32.704 28.1461C32.7018 28.1851 32.6615 28.2639 32.6144 28.3211C32.5336 28.4191 32.5354 28.4189 32.6453 28.3178C32.7094 28.2588 32.7496 28.18 32.7349 28.1428C32.713 28.0879 32.7071 28.0885 32.704 28.1461ZM35.875 28.4L35.625 28.4343L35.8595 28.4421C35.9885 28.4465 36.108 28.4275 36.125 28.4C36.142 28.3725 36.149 28.3535 36.1405 28.3579C36.132 28.3621 36.0125 28.3811 35.875 28.4ZM25.2625 28.4359C25.3381 28.4473 25.4619 28.4473 25.5375 28.4359C25.6131 28.4244 25.5513 28.415 25.4 28.415C25.2488 28.415 25.1869 28.4244 25.2625 28.4359ZM32.1125 28.4359C32.1881 28.4473 32.3119 28.4473 32.3875 28.4359C32.4631 28.4244 32.4013 28.415 32.25 28.415C32.0988 28.415 32.0369 28.4244 32.1125 28.4359ZM29.0126 28.625C29.0131 28.735 29.0234 28.7741 29.0354 28.7119C29.0474 28.6498 29.0469 28.5598 29.0344 28.5119C29.0219 28.4641 29.012 28.515 29.0126 28.625ZM38.6473 28.8375L38.475 29.025L38.6625 28.8528C38.837 28.6923 38.873 28.65 38.8348 28.65C38.8265 28.65 38.7421 28.7344 38.6473 28.8375ZM22.3455 28.9916C22.3725 29.042 22.4339 29.1151 22.4819 29.1541C22.5359 29.198 22.5238 29.163 22.4501 29.0625C22.3189 28.8831 22.2696 28.8498 22.3455 28.9916ZM39.6463 29.2625L39.7674 29.4L42.4713 29.388L45.175 29.3759L42.4778 29.3625L39.7805 29.3491L39.6528 29.237L39.525 29.125L39.6463 29.2625ZM19.3875 29.3373C19.6694 29.3463 20.1306 29.3463 20.4125 29.3373C20.6944 29.3284 20.4638 29.3211 19.9 29.3211C19.3363 29.3211 19.1056 29.3284 19.3875 29.3373ZM22.793 29.363C22.8139 29.3839 23.8534 29.3951 25.103 29.388L27.375 29.375L25.065 29.35C23.7945 29.3363 22.7721 29.3421 22.793 29.363ZM33.775 29.35L29.675 29.3759L33.75 29.3871C36.316 29.3943 37.8528 29.3805 37.9 29.35C37.9413 29.3234 37.9525 29.3066 37.925 29.3129C37.8975 29.319 36.03 29.3358 33.775 29.35Z" fill="#96B4DC"/>
</svg>
