<svg width="50" height="50" viewBox="0 0 50 50" fill="none" xmlns="http://www.w3.org/2000/svg">
<g clip-path="url(#clip0_8:79)">
<path fill-rule="evenodd" clip-rule="evenodd" d="M0.0181116 26.4354C0.768611 41.2661 14.4807 52.1483 29.2797 49.6581C40.6642 47.7425 49.3995 37.9436 49.982 26.4354L50.0137 25.8056L41.8037 25.8181C37.2882 25.825 33.5937 25.847 33.5937 25.867C33.5938 25.887 33.8136 27.1667 34.0822 28.711C34.3508 30.2551 34.631 31.8679 34.7047 32.2949L34.8388 33.0711L35.2896 33.2804C36.3907 33.7915 37.8472 34.7141 38.7375 35.4648L38.8427 35.5534L38.7207 35.4944C38.6536 35.4619 38.4008 35.3198 38.1591 35.1785C31.754 31.4359 23.2418 31.1489 14.2267 34.3716C13.7764 34.5326 13.3986 34.6551 13.3872 34.6438C13.3531 34.6096 15.1167 33.768 15.7959 33.4945C21.6871 31.1219 27.9346 30.7185 33.0486 32.3805C33.3798 32.4881 33.6602 32.567 33.6716 32.5556C33.6868 32.5403 32.9573 28.3167 32.5373 25.9889L32.5087 25.8304L16.2475 25.818L-0.0137634 25.8056L0.0181116 26.4354Z" fill="#2889C9"/>
<path fill-rule="evenodd" clip-rule="evenodd" d="M24.3286 14.551C22.8615 14.7046 21.7905 15.1708 20.9468 16.0229C20.719 16.253 20.6055 16.4058 20.6055 16.4822C20.6055 16.7706 21.2108 19.79 21.344 20.166C21.5726 20.8114 20.7113 19.0716 20.4125 18.2844L20.2078 17.7455L19.5156 18.0919C17.0621 19.3194 14.0917 19.5654 11.5591 18.751C11.0053 18.5729 11.0135 18.5414 11.4572 19.1449C13.9555 22.5435 16.9876 24.0935 21.1426 24.0959L22.5341 24.0966L22.9982 23.9395C24.3761 23.473 24.5811 22.8206 23.485 22.3906C23.2947 22.3159 23.1466 22.2472 23.1558 22.238C23.1651 22.2287 23.5061 22.1429 23.9136 22.0471C26.7537 21.38 28.969 21.7342 31.514 23.2627L32.0287 23.5719L31.7821 23.1262C30.0671 20.0275 29.5321 17.3214 30.3725 15.9967C30.5526 15.7129 30.5612 15.724 29.9995 15.51C28.1097 14.7898 25.7916 14.3978 24.3286 14.551ZM26.086 17.4109C26.0943 17.4192 26.5066 17.3628 27.002 17.2851C27.4972 17.2076 27.9087 17.1502 27.9162 17.1577C27.9237 17.1652 27.7811 17.3124 27.5995 17.4846C27.4178 17.6569 27.0765 17.9804 26.8408 18.2034L26.4126 18.609L26.6602 19.4921C26.7963 19.9777 26.9015 20.3929 26.8938 20.4144C26.8861 20.436 26.5558 20.2434 26.1598 19.9862L25.4397 19.5189L24.9736 19.9524C24.1192 20.7466 23.8751 20.9601 23.8983 20.8924C23.911 20.8555 24.0458 20.4189 24.1981 19.9224C24.3503 19.4257 24.485 18.9934 24.4972 18.9614C24.5098 18.9284 24.1992 18.689 23.7787 18.4079C23.3713 18.1354 23.0455 17.9062 23.0546 17.8986C23.0637 17.891 23.4832 17.823 23.9867 17.7475L24.9021 17.6104L25.0767 17.0449C25.1727 16.7339 25.3052 16.3037 25.3711 16.0889C25.437 15.874 25.5038 15.6653 25.5198 15.625C25.5357 15.5848 25.6662 15.9666 25.8097 16.4736C25.9532 16.9807 26.0776 17.4025 26.086 17.4109ZM30.7777 15.8325C30.8183 16.0009 33.6913 32.488 33.6913 32.5532C33.6913 32.5894 33.4795 32.5392 33.1176 32.4176C28.11 30.7339 21.804 31.1152 15.9191 33.4576C15.0405 33.8074 13.3498 34.6064 13.3945 34.651C13.4081 34.6646 13.4647 34.6516 13.5201 34.622C13.6988 34.5262 15.6242 33.8899 16.4795 33.6437C24.9236 31.2136 32.1628 31.7127 38.086 35.1334C38.987 35.6537 38.9921 35.654 38.3301 35.1471C37.4283 34.4569 36.2393 33.7286 35.2905 33.2856C35.0286 33.1634 34.8145 33.0397 34.8145 33.0109C34.8145 32.9554 31.8526 16.0201 31.8101 15.8325C31.7862 15.7271 31.7645 15.7226 31.2682 15.7226C30.7566 15.7226 30.7513 15.7239 30.7777 15.8325Z" fill="#FAFBFB"/>
<path fill-rule="evenodd" clip-rule="evenodd" d="M23.2177 0.0302486C18.693 0.469249 15.3867 1.535 11.8661 3.68937C9.86259 4.91537 7.38534 7.02112 6.12784 8.56712C6.02047 8.69925 5.87159 8.87462 5.79709 8.95687L5.66159 9.1065L15.3308 9.11875C20.6488 9.1255 29.3511 9.1255 34.6691 9.11875L44.3383 9.1065L44.2028 8.95687C44.1283 8.87462 43.9795 8.69925 43.8721 8.56712C40.2443 4.10712 34.0851 0.877874 27.7587 0.119249C27.1123 0.0417486 23.7738 -0.0237514 23.2177 0.0302486Z" fill="#18B8EB"/>
<path fill-rule="evenodd" clip-rule="evenodd" d="M7.27376 7.312L7.00688 7.59275L7.28763 7.32587C7.54838 7.078 7.59076 7.03125 7.55451 7.03125C7.54688 7.03125 7.42051 7.15762 7.27376 7.312ZM42.6758 7.29975C42.8216 7.4475 42.952 7.56838 42.9654 7.56838C42.9789 7.56838 42.8705 7.4475 42.7246 7.29975C42.5788 7.15212 42.4484 7.03125 42.435 7.03125C42.4215 7.03125 42.5299 7.15212 42.6758 7.29975ZM5.23963 9.63138C3.96788 11.2641 2.29426 14.1106 2.06938 15.0229C2.05063 15.0989 2.00288 15.2113 1.96326 15.2725C1.92351 15.3338 1.90126 15.3941 1.91376 15.4065C1.97876 15.4715 21.6496 15.4286 21.7493 15.3632C23.346 14.3171 26.0475 14.2531 29.0511 15.1904L29.8096 15.427L38.9368 15.428C43.9566 15.4285 48.074 15.4187 48.0864 15.4064C48.0988 15.394 48.0765 15.3338 48.0368 15.2725C47.9971 15.2113 47.9494 15.0989 47.9306 15.0229C47.7058 14.1106 46.0321 11.2641 44.7604 9.63138L44.3706 9.13087H25H5.62938L5.23963 9.63138ZM31.2483 15.7095C31.5754 15.7203 31.7744 15.7476 31.8013 15.7855C31.8314 15.8277 31.8376 15.8237 31.8235 15.7715C31.8074 15.7122 31.7013 15.6978 31.2705 15.6955L30.7373 15.6926L31.2483 15.7095ZM27.5374 17.5171L27.2705 17.7979L27.5513 17.531C27.7058 17.3841 27.832 17.2579 27.832 17.2502C27.832 17.214 27.7854 17.2562 27.5374 17.5171ZM26.6823 18.3228L26.4893 18.5303L26.6968 18.3372C26.8898 18.1577 26.9268 18.1152 26.8898 18.1152C26.8819 18.1152 26.7884 18.2086 26.6823 18.3228ZM14.2461 19.224C14.3069 19.2356 14.3948 19.2352 14.4415 19.223C14.4881 19.2107 14.4385 19.2012 14.331 19.2017C14.2236 19.2022 14.1854 19.2123 14.2461 19.224ZM15.0269 19.2239C15.0873 19.2355 15.1861 19.2355 15.2466 19.2239C15.307 19.2123 15.2576 19.2027 15.1368 19.2027C15.0159 19.2027 14.9664 19.2123 15.0269 19.2239ZM25.1439 19.7631L24.9756 19.9463L25.1588 19.778C25.3291 19.6214 25.3643 19.5801 25.327 19.5801C25.3188 19.5801 25.2364 19.6625 25.1439 19.7631ZM24.3626 20.4956L24.1944 20.6787L24.3775 20.5105C24.5479 20.3539 24.583 20.3125 24.5458 20.3125C24.5375 20.3125 24.4551 20.3949 24.3626 20.4956ZM12.8174 20.8008C12.9223 20.9083 13.0191 20.9961 13.0325 20.9961C13.046 20.9961 12.9711 20.9083 12.8663 20.8008C12.7614 20.6934 12.6645 20.6055 12.6511 20.6055C12.6376 20.6055 12.7125 20.6934 12.8174 20.8008Z" fill="#1CACE4"/>
<path fill-rule="evenodd" clip-rule="evenodd" d="M1.59685 16.1132C0.556228 18.8355 0.036103 21.5882 0.028228 24.4141L0.024353 25.8056L16.272 25.818C25.2081 25.8247 32.5195 25.8247 32.5195 25.818C32.5194 25.8112 32.486 25.6189 32.4451 25.3906C32.0226 23.0292 30.7617 15.8065 30.7617 15.7474C30.7617 15.6814 30.8355 15.6725 31.2839 15.6844L31.806 15.6982L32.6734 20.6542C33.1504 23.3801 33.5416 25.6599 33.5427 25.7204L33.5449 25.8304L41.7602 25.818L49.9756 25.8056L49.9717 24.4141C49.9639 21.5882 49.4437 18.8355 48.4031 16.1132L48.1325 15.4052L39.0199 15.4196L29.9072 15.4341L30.1987 15.555C30.5841 15.7147 30.584 15.7145 30.4194 15.9595C29.5365 17.2741 30.1017 20.1855 31.8176 23.1602C32.0896 23.6319 32.0934 23.6287 31.6162 23.3336C29.0625 21.7546 26.7632 21.3846 23.8366 22.0819L23.1859 22.2369L23.5687 22.4136C24.4721 22.8307 24.4206 23.315 23.4232 23.7817C22.3431 24.2871 19.7404 24.2549 17.7735 23.7115C15.2517 23.0149 13.099 21.4546 11.3889 19.0842C11.0115 18.5611 11.0115 18.5405 11.3891 18.6775C13.8291 19.5621 16.966 19.3324 19.485 18.0847C20.3444 17.6591 20.2349 17.6794 20.3095 17.9321C20.4525 18.4164 21.2357 20.166 21.3095 20.166C21.3202 20.166 21.2981 20.0506 21.2602 19.9096C21.1384 19.4551 20.8585 18.1112 20.7291 17.3584C20.6599 16.9556 20.592 16.5756 20.5785 16.514C20.551 16.3895 20.9174 15.9664 21.3541 15.6182L21.5902 15.4301L11.7289 15.4177L1.86748 15.4052L1.59685 16.1132ZM25.5231 15.7072C25.51 15.7291 25.3741 16.1536 25.2212 16.6504C24.8854 17.7414 25.0351 17.6011 24.0461 17.7512C23.5905 17.8204 23.1862 17.8875 23.1477 17.9004C23.1064 17.9142 23.3666 18.116 23.7825 18.3925C24.1701 18.6502 24.4966 18.8692 24.508 18.8791C24.5194 18.8891 24.3925 19.3396 24.2261 19.8804C24.0597 20.4212 23.9295 20.8692 23.9369 20.8761C23.9442 20.883 24.2851 20.573 24.6945 20.1872L25.4387 19.486L26.1594 19.9667C26.5556 20.2312 26.8865 20.4417 26.8946 20.4345C26.9027 20.4272 26.7984 20.0357 26.6626 19.5644C26.527 19.093 26.416 18.6776 26.416 18.6412C26.416 18.6049 26.7454 18.2629 27.1479 17.8812C27.5504 17.4997 27.8525 17.1874 27.8192 17.1871C27.786 17.187 27.3885 17.244 26.936 17.314C26.4834 17.384 26.0952 17.4226 26.0735 17.3999C26.0517 17.377 25.9307 16.9849 25.8046 16.5284C25.5619 15.65 25.5602 15.645 25.5231 15.7072ZM25.672 31.3822C25.7327 31.3939 25.8206 31.3934 25.8672 31.3812C25.914 31.369 25.8642 31.3594 25.7569 31.36C25.6494 31.3605 25.6112 31.3705 25.672 31.3822ZM26.8432 31.3821C26.9036 31.3937 27.0026 31.3937 27.063 31.3821C27.1234 31.3705 27.074 31.361 26.9531 31.361C26.8322 31.361 26.7829 31.3705 26.8432 31.3821Z" fill="#1DA4DB"/>
</g>
<defs>
<clipPath id="clip0_8:79">
<rect width="50" height="50" fill="white"/>
</clipPath>
</defs>
</svg>
