<svg width="18" height="22" viewBox="0 0 18 22" fill="none" xmlns="http://www.w3.org/2000/svg">
<path fill-rule="evenodd" clip-rule="evenodd" d="M0.5 11.5C0.5 10.1193 1.61929 9 3 9H15C16.3807 9 17.5 10.1193 17.5 11.5V19.5C17.5 20.8807 16.3807 22 15 22H3C1.61929 22 0.5 20.8807 0.5 19.5V11.5ZM3 11C2.72386 11 2.5 11.2239 2.5 11.5V19.5C2.5 19.7761 2.72386 20 3 20H15C15.2761 20 15.5 19.7761 15.5 19.5V11.5C15.5 11.2239 15.2761 11 15 11H3Z" fill="#576777"/>
<path fill-rule="evenodd" clip-rule="evenodd" d="M9 2C6.79034 2 5 3.7908 5 6.00006V10C5 10.5523 4.55228 11 4 11C3.44772 11 3 10.5523 3 10V6.00006C3 2.68641 5.68559 0 9 0C12.3134 0 15 2.68371 15 6.00006C15 6.55234 14.5523 7.00006 14 7.00006C13.4477 7.00006 13 6.55234 13 6.00006C13 3.78886 11.2094 2 9 2Z" fill="#576777"/>
</svg>
