<svg width="60" height="60" viewBox="0 0 60 60" fill="none" xmlns="http://www.w3.org/2000/svg">
<path fill-rule="evenodd" clip-rule="evenodd" d="M9.64921 23.9485C9.58231 24.0493 9.48946 24.0822 9.22036 24.1002C8.98081 24.1161 8.84116 24.1588 8.75851 24.2415C8.69326 24.3067 8.59591 24.36 8.54191 24.36C8.48791 24.36 8.38141 24.4207 8.30521 24.495C8.09176 24.703 7.96486 24.8064 7.78231 24.921C7.69006 24.9789 7.58926 25.093 7.55821 25.1746C7.52716 25.2562 7.46086 25.3387 7.41091 25.3579C7.36096 25.3771 7.32001 25.4439 7.32001 25.5064C7.32001 25.5688 7.26301 25.677 7.19341 25.7466C7.10506 25.8349 7.05181 25.993 7.01761 26.2693C6.98731 26.5135 6.93241 26.6919 6.87421 26.7343C6.75346 26.8225 6.74821 27.12 6.86731 27.12C6.95431 27.12 6.98341 27.2287 7.04251 27.7752C7.05871 27.9234 7.11106 28.0626 7.16146 28.0908C7.21561 28.1211 7.26856 28.2783 7.29436 28.4856C7.32331 28.7176 7.37356 28.8555 7.44856 28.9084C7.51291 28.9536 7.56001 29.0593 7.56001 29.1585C7.56001 29.3863 7.61551 29.52 7.71001 29.52C7.80301 29.52 7.86001 29.653 7.86001 29.8704C7.86001 29.9661 7.90861 30.0615 7.98001 30.106C8.05606 30.1536 8.10001 30.246 8.10001 30.3583C8.10001 30.4743 8.14156 30.558 8.22001 30.6C8.30416 30.645 8.34001 30.7257 8.34001 30.87C8.34001 31.0128 8.37586 31.095 8.45746 31.1386C8.52556 31.1751 8.59231 31.2955 8.61661 31.4257C8.63956 31.549 8.70811 31.6852 8.76916 31.7284C8.83006 31.7715 8.88001 31.857 8.88001 31.9185C8.88001 32.0901 8.94466 32.22 9.03001 32.22C9.12406 32.22 9.18001 32.3535 9.18001 32.5779C9.18001 32.6955 9.21601 32.7553 9.30001 32.7774C9.37876 32.7979 9.42001 32.8593 9.42001 32.9556C9.42001 33.0364 9.48751 33.1753 9.57001 33.2643C9.65656 33.3577 9.72001 33.498 9.72001 33.5961C9.72001 33.7155 9.75571 33.7753 9.84001 33.7974C9.91816 33.8178 9.96001 33.8793 9.96001 33.9735C9.96001 34.0533 10.0275 34.177 10.11 34.2487C10.1925 34.3204 10.26 34.4305 10.26 34.4932C10.26 34.5558 10.299 34.6221 10.3467 34.6404C10.3944 34.6587 10.4525 34.7754 10.4759 34.8997C10.5176 35.122 10.5197 35.1235 10.6064 34.9929C10.655 34.9198 10.7319 34.86 10.7774 34.86C10.8315 34.86 10.86 34.7889 10.86 34.6534C10.86 34.5198 10.8996 34.4191 10.9719 34.3684C11.0336 34.3252 11.1036 34.2004 11.1276 34.0909C11.1516 33.9814 11.2091 33.8775 11.255 33.8598C11.301 33.8421 11.3675 33.721 11.4026 33.5907C11.4377 33.4605 11.5053 33.3388 11.5532 33.3205C11.6009 33.3021 11.64 33.2227 11.64 33.1441C11.64 33.0652 11.6946 32.9671 11.7615 32.9254C11.8328 32.8812 11.8979 32.7576 11.9189 32.6266C11.9423 32.4814 11.9942 32.3908 12.0674 32.3676C12.1482 32.3419 12.18 32.2747 12.18 32.1294C12.18 31.995 12.2204 31.8985 12.2996 31.843C12.3654 31.797 12.4373 31.6672 12.4595 31.5546C12.4817 31.4421 12.5493 31.3147 12.6099 31.2715C12.6705 31.2285 12.72 31.1247 12.72 31.041C12.72 30.9393 12.7598 30.8784 12.84 30.8574C12.9296 30.834 12.96 30.7755 12.96 30.6276C12.96 30.5035 13.0163 30.3624 13.11 30.2509C13.1925 30.1528 13.26 30.0022 13.26 29.9163C13.26 29.8303 13.3098 29.7102 13.3707 29.6493C13.4315 29.5885 13.497 29.442 13.5162 29.3238C13.5353 29.2057 13.607 29.053 13.6755 28.9845C13.7534 28.9066 13.8 28.7824 13.8 28.6534C13.8 28.5202 13.8396 28.419 13.9115 28.3684C13.9907 28.3126 14.0312 28.1905 14.0514 27.9459C14.0681 27.7435 14.121 27.5563 14.1798 27.4912C14.3369 27.3177 14.3226 26.4426 14.16 26.28C14.0813 26.2012 14.04 26.08 14.04 25.927C14.04 25.7503 14.013 25.6869 13.9284 25.6648C13.8672 25.6488 13.7978 25.5591 13.7742 25.4655C13.7508 25.3719 13.6794 25.2589 13.6158 25.2142C13.5521 25.1697 13.5 25.0839 13.5 25.0236C13.5 24.9633 13.446 24.8998 13.38 24.8826C13.314 24.8653 13.26 24.8116 13.26 24.763C13.26 24.7132 13.1822 24.6594 13.0809 24.6391C12.9824 24.6195 12.8549 24.5485 12.7976 24.4816C12.7403 24.4147 12.6336 24.36 12.5607 24.36C12.4838 24.36 12.4131 24.3127 12.3924 24.2475C12.3651 24.1614 12.275 24.1258 12.0057 24.0954C11.7704 24.0688 11.6196 24.0169 11.5481 23.9379C11.378 23.7499 9.77521 23.7589 9.64921 23.9485ZM11.7356 24.57C11.795 24.6606 11.8905 24.72 11.9769 24.72C12.0557 24.72 12.1713 24.7713 12.2342 24.8341C12.2969 24.8968 12.4035 24.9657 12.471 24.9871C12.5387 25.0086 12.6105 25.0788 12.6309 25.143C12.6515 25.2073 12.7074 25.26 12.7556 25.26C12.8036 25.26 12.8687 25.3275 12.9 25.41C12.9314 25.4925 12.9953 25.56 13.0421 25.56C13.0887 25.56 13.1432 25.6242 13.1628 25.7028C13.1826 25.7814 13.253 25.8598 13.3194 25.8772C13.4213 25.9038 13.44 25.9587 13.44 26.2299C13.44 26.4861 13.4643 26.5663 13.56 26.626C13.6664 26.6925 13.68 26.766 13.68 27.27C13.68 27.774 13.6664 27.8475 13.56 27.9139C13.4754 27.9667 13.44 28.0539 13.44 28.2096C13.44 28.4871 13.3901 28.62 13.286 28.62C13.2413 28.62 13.1762 28.7254 13.1415 28.8544C13.0955 29.0256 13.0341 29.1052 12.9143 29.1495C12.824 29.1829 12.6473 29.307 12.5217 29.425C12.396 29.5432 12.273 29.64 12.2483 29.64C12.2235 29.64 12.1118 29.7075 12 29.79C11.8881 29.8725 11.7143 29.9401 11.6133 29.9403C11.5125 29.9406 11.349 29.9869 11.25 30.0433C10.9959 30.1881 10.0731 30.1867 9.91261 30.0414C9.84121 29.9767 9.69931 29.94 9.52171 29.94C9.29041 29.94 9.22606 29.9143 9.14446 29.79C9.09046 29.7075 9.00781 29.64 8.96071 29.64C8.91376 29.64 8.76946 29.532 8.64001 29.4C8.51056 29.268 8.36071 29.16 8.30671 29.16C8.25286 29.16 8.19526 29.1085 8.17891 29.0455C8.16241 28.9825 8.09746 28.9176 8.03446 28.9011C7.96711 28.8835 7.92001 28.8187 7.92001 28.7437C7.92001 28.6735 7.88146 28.6014 7.83421 28.5832C7.72156 28.54 7.62001 28.2403 7.62001 27.951C7.62001 27.7999 7.57846 27.6784 7.50001 27.6C7.43401 27.534 7.38001 27.4125 7.38001 27.33C7.38001 27.2475 7.43401 27.126 7.50001 27.06C7.58596 26.974 7.62031 26.8591 7.62076 26.655C7.62196 26.2681 7.67176 26.1106 7.80646 26.0679C7.87771 26.0454 7.92001 25.9764 7.92001 25.8831C7.92001 25.8012 7.98271 25.6747 8.05951 25.6021C8.13616 25.5294 8.21641 25.4227 8.23756 25.365C8.25886 25.3072 8.31451 25.26 8.36116 25.26C8.40781 25.26 8.45941 25.2088 8.47576 25.1463C8.49316 25.0795 8.58151 25.0159 8.68996 24.9922C8.79586 24.969 8.89021 24.9022 8.91136 24.8358C8.93656 24.7566 9.00286 24.72 9.12166 24.72C9.21721 24.72 9.34366 24.6685 9.40261 24.6057C9.63511 24.3582 11.5773 24.3285 11.7356 24.57ZM29.3295 25.1706C29.3127 25.1874 29.063 25.2526 28.7745 25.3156C28.4862 25.3786 28.203 25.473 28.1454 25.5252C28.0877 25.5772 28.0022 25.6204 27.9554 25.6209C27.8522 25.6219 27.24 26.2363 27.24 26.3388C27.24 26.3788 27.1793 26.4966 27.105 26.6007C26.5314 27.405 27.1992 29.0913 28.2807 29.5696C28.4258 29.6338 28.5632 29.7165 28.5858 29.7532C28.6085 29.79 28.6863 29.8203 28.7586 29.8206C28.8309 29.8209 29.025 29.8875 29.19 29.9686C29.355 30.0498 29.5353 30.1171 29.5907 30.118C29.6462 30.1191 29.7276 30.1563 29.772 30.2005C29.8163 30.2448 29.9195 30.3162 30.0012 30.3592C30.3066 30.5196 30.6182 30.8088 30.7022 31.0099C30.7499 31.1241 30.8274 31.2559 30.8745 31.303C31.2699 31.6984 30.7667 32.8213 30.015 33.2211C29.6546 33.4126 28.0067 33.4156 27.7964 33.225C27.7328 33.1672 27.624 33.12 27.5549 33.12C27.4857 33.12 27.3504 33.0537 27.254 32.9725C27.0626 32.8114 26.942 32.8551 26.9379 33.087C26.9367 33.1546 26.8971 33.2775 26.85 33.36C26.72 33.5875 26.7378 33.7656 26.895 33.8098C26.9693 33.8307 27.1785 33.9103 27.36 33.9868C27.9863 34.251 30.0002 34.2379 30.4385 33.9672C30.5516 33.8971 30.6867 33.84 30.7386 33.84C30.8823 33.84 31.74 32.9721 31.74 32.8267C31.74 32.7586 31.7939 32.6145 31.8599 32.5065C31.9584 32.3446 31.9796 32.2039 31.9796 31.71C31.9796 31.216 31.9584 31.0753 31.8599 30.9135C31.7939 30.8055 31.74 30.6748 31.74 30.6232C31.74 30.5131 30.8682 29.64 30.7582 29.64C30.717 29.64 30.5918 29.5725 30.48 29.49C30.3683 29.4075 30.2178 29.34 30.1456 29.34C30.0736 29.34 29.9835 29.3025 29.9455 29.2566C29.9074 29.2108 29.7594 29.1439 29.6166 29.1079C29.4737 29.0719 29.3228 29.0014 29.2811 28.9512C29.2394 28.9011 29.1453 28.86 29.072 28.86C28.9986 28.86 28.8872 28.8028 28.8243 28.7331C28.7615 28.6633 28.6527 28.5843 28.5827 28.5574C28.0569 28.3563 27.7508 27.1444 28.125 26.7459C28.1993 26.667 28.26 26.575 28.26 26.5417C28.26 26.0542 30.4178 25.8321 31.0629 26.2533C31.335 26.4309 31.4208 26.373 31.465 25.9813C31.5207 25.4895 31.4674 25.4134 31.0078 25.33C30.8001 25.2924 30.5085 25.2352 30.36 25.2033C30.0726 25.1415 29.3805 25.1194 29.3295 25.1706ZM18.7164 25.395C18.5498 25.5396 18.6507 31.8753 18.825 32.2068C18.8993 32.3481 18.96 32.5116 18.96 32.5702C18.96 32.6287 19.0275 32.7682 19.11 32.88C19.1925 32.9917 19.26 33.1033 19.26 33.1279C19.26 33.2038 19.5792 33.525 19.8 33.6712C20.5293 34.1539 21.1185 34.2705 22.32 34.1692C23.4423 34.0746 24.78 32.968 24.78 32.134C24.78 32.0826 24.8343 31.8837 24.9006 31.6921C25.016 31.3587 25.0205 31.2148 25.0056 28.3468L24.99 25.35H24.54H24.09L24.0596 28.32C24.0273 31.485 24.0206 31.5571 23.6921 32.25C23.5268 32.5989 23.0973 33.12 22.9752 33.12C22.9422 33.12 22.8338 33.1801 22.7343 33.2536C22.4508 33.4633 21.1089 33.451 20.8182 33.2361C20.4362 32.9536 20.0433 32.5083 19.8789 32.1708L19.7127 31.83L19.6926 28.632L19.6724 25.4341L19.5224 25.377C19.3082 25.2957 18.8184 25.3065 18.7164 25.395Z" fill="#175567"/>
<path fill-rule="evenodd" clip-rule="evenodd" d="M0 30V60H30H60V30V0H30H0V30ZM11.25 23.6426C11.5587 23.6778 11.8872 23.7548 12.0168 23.8221C12.1416 23.8869 12.2906 23.94 12.3479 23.94C12.4053 23.94 12.5516 24.0075 12.6729 24.09C12.7943 24.1725 12.9153 24.24 12.9419 24.24C12.9684 24.24 13.1082 24.348 13.2527 24.48C13.397 24.612 13.5338 24.72 13.5563 24.72C13.6362 24.72 14.1291 25.4258 14.1911 25.6289C14.2148 25.7064 14.2748 25.8162 14.3244 25.8728C14.6345 26.226 14.4837 27.8747 14.066 28.6998C14.0187 28.7933 13.98 28.8963 13.98 28.9287C13.98 28.9821 13.8747 29.2272 13.5582 29.91C13.497 30.042 13.4055 30.2445 13.3547 30.36C13.304 30.4755 13.2371 30.6105 13.2062 30.66C13.1753 30.7095 12.998 31.0605 12.8121 31.44C12.6263 31.8195 12.4532 32.1705 12.4272 32.22C12.4014 32.2695 12.3399 32.391 12.2907 32.49C12.1884 32.6961 12.0651 32.9291 11.9892 33.06C11.9606 33.1095 11.8821 33.258 11.8151 33.39C11.748 33.522 11.6156 33.765 11.5208 33.93C11.426 34.095 11.319 34.2939 11.283 34.3721C11.247 34.4502 11.1642 34.5821 11.0988 34.6652C11.0334 34.7483 10.98 34.8546 10.98 34.9016C10.98 35.0159 10.6193 35.46 10.5264 35.46C10.4861 35.46 10.4098 35.352 10.357 35.22C10.3042 35.088 10.2359 34.98 10.2053 34.98C10.1747 34.98 10.1323 34.9019 10.1113 34.8062C10.0903 34.7106 10.0223 34.5864 9.96 34.53C9.89775 34.4736 9.82965 34.3497 9.8088 34.2545C9.78795 34.1592 9.74355 34.0646 9.7104 34.0442C9.67725 34.0236 9.5967 33.8951 9.5313 33.7584C9.38295 33.4478 9.2145 33.1448 9.1353 33.0458C9.102 33.0041 9.0543 32.9025 9.0294 32.82C9.00465 32.7375 8.93385 32.5983 8.8722 32.5107C8.8104 32.4231 8.76 32.3126 8.76 32.2649C8.76 32.2173 8.70405 32.1138 8.63565 32.0351C8.56725 31.9562 8.49645 31.817 8.47815 31.7258C8.45985 31.6346 8.42055 31.56 8.39055 31.56C8.3607 31.56 8.3202 31.5128 8.3007 31.455C8.2812 31.3973 8.1909 31.188 8.1 30.99C8.0091 30.792 7.9182 30.5895 7.8978 30.54C7.8774 30.4905 7.83585 30.4095 7.80555 30.36C7.7187 30.2184 7.45665 29.6256 7.40775 29.46C7.38345 29.3775 7.31325 29.2457 7.25175 29.1669C7.19025 29.0882 7.14 28.9524 7.14 28.8653C7.14 28.7781 7.0998 28.6493 7.0506 28.5792C7.00155 28.509 6.924 28.2918 6.8784 28.0965C6.83295 27.9011 6.76005 27.6758 6.7167 27.5957C6.61605 27.4095 6.61215 26.3199 6.7119 26.1998C6.75045 26.1534 6.82305 25.977 6.8733 25.8077C6.92355 25.6385 6.9873 25.5 7.01505 25.5C7.0428 25.5 7.09845 25.4205 7.13865 25.3232C7.31625 24.8946 8.4936 23.94 8.84475 23.94C8.922 23.94 9.0171 23.9018 9.05595 23.8548C9.1164 23.7821 9.41295 23.7134 10.08 23.6178C10.3792 23.5749 10.7207 23.5823 11.25 23.6426ZM9.78 24.7649C9.1926 24.9618 8.8686 25.1516 8.55465 25.4828C8.1933 25.8639 8.1 25.974 8.1 26.0192C8.1 26.0408 8.03025 26.2059 7.94505 26.3861C7.755 26.7878 7.74315 27.9681 7.9269 28.1789C7.9803 28.2401 8.0415 28.3643 8.0631 28.455C8.10585 28.6353 8.24565 28.676 8.30355 28.5251C8.32365 28.4729 8.34 28.0596 8.34 27.6068V26.7834L8.5482 26.5562C8.75025 26.3355 8.76735 26.3292 9.1332 26.3414C9.3405 26.3483 9.54375 26.3507 9.585 26.3469C9.6372 26.3421 9.66 26.2121 9.66 25.9188C9.66 25.5723 9.6867 25.4553 9.81075 25.2588L9.9615 25.02H10.3715C10.8303 25.02 10.98 25.1135 10.98 25.3997C10.98 25.5578 10.9859 25.56 11.388 25.56C11.8988 25.56 11.94 25.601 11.94 26.1092C11.94 26.6666 12.0177 26.82 12.3003 26.82C12.6657 26.82 12.72 26.9342 12.72 27.7022C12.72 28.6935 12.8645 29.0699 13.0379 28.53C13.0697 28.431 13.1297 28.3095 13.1712 28.26C13.394 27.9947 13.3997 26.5536 13.1792 26.2863C13.1411 26.2403 13.083 26.1453 13.05 26.0754C12.5631 25.0434 10.9171 24.3839 9.78 24.7649ZM31.0571 25.1462C31.16 25.2089 31.3035 25.26 31.3761 25.26C31.748 25.26 31.9079 25.6413 31.6863 25.9998C31.6169 26.1123 31.56 26.2589 31.56 26.3256C31.56 26.558 30.987 26.5629 30.6948 26.3331C30.498 26.1783 29.0427 26.1623 28.9172 26.3135C28.8744 26.3649 28.7487 26.4449 28.6376 26.4914C28.5038 26.5473 28.4064 26.6459 28.3488 26.7837C28.301 26.8982 28.2344 27.0087 28.2009 27.0294C28.1069 27.0876 28.1274 27.6804 28.2281 27.8136C28.2765 27.8777 28.317 27.9665 28.3181 28.011C28.3203 28.103 28.6616 28.44 28.7528 28.44C28.7858 28.44 28.8929 28.5075 28.991 28.59C29.0891 28.6725 29.2305 28.74 29.3054 28.74C29.3802 28.74 29.4873 28.7907 29.5434 28.8528C29.5997 28.9148 29.7488 28.9821 29.8749 29.0022C30.0012 29.0225 30.1356 29.0765 30.1736 29.1222C30.2117 29.1681 30.3227 29.2215 30.4205 29.2412C30.5183 29.2607 30.6452 29.3315 30.7025 29.3984C30.7598 29.4653 30.8507 29.52 30.9045 29.52C31.0367 29.52 31.86 30.3246 31.86 30.4539C31.86 30.5105 31.9005 30.5868 31.95 30.6234C32.1576 30.7772 32.2005 32.3687 32.0063 32.7108C31.9628 32.7873 31.8842 32.9445 31.8315 33.06C31.7276 33.2882 31.0401 33.9588 30.9095 33.9596C30.8652 33.9599 30.762 34.0127 30.6803 34.077C30.5985 34.1414 30.4052 34.2123 30.2508 34.2348C30.0963 34.2572 29.8971 34.3127 29.808 34.3578C29.582 34.4726 28.2825 34.4702 27.9762 34.3547C27.8519 34.3076 27.6237 34.2522 27.4692 34.2315C27.3149 34.2108 27.1215 34.1414 27.0398 34.077C26.958 34.0127 26.8514 33.96 26.8029 33.96C26.5703 33.96 26.504 33.3263 26.7107 33.0773C26.7518 33.0278 26.8149 32.9294 26.8511 32.8586C26.9315 32.7014 27.2499 32.6961 27.419 32.8491C27.4802 32.9043 27.7079 32.9901 27.9251 33.0398C28.1423 33.0893 28.32 33.1547 28.32 33.185C28.32 33.3033 29.5034 33.2484 29.7135 33.1202C29.8217 33.0543 29.9553 33.0003 30.0108 33.0002C30.5973 32.999 30.9627 31.4328 30.4751 31.0104C30.4118 30.9557 30.36 30.8807 30.36 30.8439C30.36 30.8072 30.2925 30.7514 30.21 30.72C30.1275 30.6887 30.06 30.6353 30.06 30.6015C30.06 30.5676 30.0233 30.54 29.9784 30.54C29.9336 30.54 29.7974 30.4725 29.6757 30.39C29.5542 30.3075 29.4059 30.24 29.3463 30.24C29.2866 30.24 29.111 30.1725 28.9557 30.09C28.8006 30.0075 28.6247 29.94 28.565 29.94C28.5051 29.94 28.3875 29.886 28.3037 29.82C28.2197 29.754 28.1274 29.7 28.0985 29.7C27.993 29.7 27.12 28.9338 27.12 28.8413C27.12 28.8063 27.0674 28.7217 27.0032 28.6533C26.8251 28.4639 26.6253 27.2555 26.7468 27.1031C26.7788 27.0629 26.823 26.9049 26.8451 26.7519C26.868 26.5937 26.9358 26.4281 27.0027 26.3676C27.0672 26.3093 27.12 26.2374 27.12 26.2081C27.12 26.1105 27.7577 25.5 27.8597 25.5C27.9149 25.5 27.96 25.4607 27.96 25.4127C27.96 25.3589 28.0463 25.3103 28.185 25.286C28.3088 25.2644 28.4775 25.2027 28.56 25.1492C28.8923 24.9333 30.7037 24.9312 31.0571 25.1462ZM39.3164 25.2156C39.9113 25.3982 39.9038 25.3881 39.8159 25.8929C39.7082 26.5104 39.6296 26.5513 39.06 26.2873C38.696 26.1186 36.8178 26.1465 36.54 26.3248C36.4245 26.3989 36.2735 26.4597 36.2043 26.4599C36.1352 26.4599 36.0303 26.5133 35.9714 26.5785C35.9124 26.6436 35.8142 26.7129 35.753 26.7323C35.6534 26.7639 35.28 27.0951 35.28 27.152C35.28 27.1644 35.2193 27.2402 35.145 27.3204C34.9431 27.5385 34.757 27.8661 34.7079 28.0896C34.6839 28.1988 34.6206 28.355 34.5672 28.4366C34.4217 28.6584 34.4234 30.8594 34.5692 31.08C34.6236 31.1625 34.6865 31.3175 34.7088 31.4243C34.731 31.5312 34.7745 31.6343 34.8054 31.6535C34.8365 31.6725 34.9134 31.7876 34.9764 31.9091C35.2196 32.3772 35.9519 32.9546 36.4032 33.0336C36.5279 33.0555 36.6975 33.1178 36.78 33.1718C36.9524 33.2846 38.6439 33.3009 38.7776 33.191C38.913 33.0794 39.599 32.975 39.6779 33.0539C39.7835 33.1595 39.8983 33.731 39.837 33.8456C39.6441 34.206 37.3563 34.5527 36.7389 34.3149C36.6461 34.2792 36.408 34.2237 36.21 34.1916C36.012 34.1595 35.7956 34.0979 35.7291 34.0545C35.6627 34.0112 35.5238 33.9572 35.4204 33.9345C35.3171 33.9117 35.1849 33.8408 35.1269 33.7766C35.069 33.7125 34.9874 33.66 34.9458 33.66C34.8614 33.66 34.6719 33.507 34.3145 33.15C33.8966 32.7326 33.84 32.6673 33.84 32.6022C33.84 32.5673 33.786 32.4897 33.72 32.43C33.654 32.3703 33.6 32.2908 33.6 32.2535C33.6 32.216 33.5451 32.0784 33.4779 31.9478C33.4107 31.817 33.3266 31.5885 33.291 31.44C33.2553 31.2915 33.1889 31.0544 33.1431 30.9129C33.0242 30.5448 33.0279 28.833 33.1482 28.6025C33.1962 28.5104 33.2535 28.3349 33.2754 28.2125C33.3392 27.8559 33.5784 27.3797 34.005 26.76C34.2959 26.3376 34.8332 25.8951 35.4 25.611C35.4825 25.5696 35.622 25.4871 35.7099 25.4276C35.7978 25.3679 36.0003 25.3022 36.1599 25.2813C36.3195 25.2605 36.4868 25.2143 36.5318 25.1787C36.7929 24.9722 38.6018 24.9962 39.3164 25.2156ZM19.734 25.1889C19.769 25.254 19.7999 26.5571 19.8113 28.4312C19.8249 30.7157 19.8488 31.5761 19.8993 31.6073C19.9373 31.6308 20.0107 31.8117 20.0623 32.0094C20.1139 32.2071 20.1975 32.3991 20.2481 32.436C20.2986 32.4731 20.34 32.5482 20.34 32.6031C20.34 32.658 20.4075 32.7287 20.49 32.76C20.5725 32.7914 20.64 32.8427 20.64 32.8739C20.64 32.9051 20.7324 32.9612 20.8452 32.9984C20.958 33.0357 21.0828 33.1053 21.1226 33.153C21.2043 33.2516 22.44 33.2829 22.44 33.1865C22.44 33.1571 22.5413 33.0924 22.665 33.0428C22.8699 32.9606 22.9875 32.8653 23.295 32.5334C23.3528 32.471 23.4 32.3904 23.4 32.3543C23.4 32.3181 23.4473 32.2416 23.505 32.1842C23.7183 31.9719 23.7728 31.2528 23.7971 28.32C23.8262 24.8148 23.7651 25.08 24.5429 25.08C25.2701 25.08 25.2153 24.7842 25.1907 28.5732C25.1706 31.6773 25.1664 31.7769 25.0448 32.01C24.9759 32.142 24.9018 32.34 24.8802 32.4498C24.8588 32.5598 24.7868 32.7188 24.7206 32.8029C24.6543 32.8872 24.6 32.9921 24.6 33.036C24.6 33.0798 24.546 33.1448 24.48 33.18C24.414 33.2153 24.36 33.27 24.36 33.3017C24.36 33.3836 23.9965 33.72 23.908 33.72C23.8674 33.72 23.8199 33.774 23.8026 33.84C23.7854 33.906 23.7257 33.96 23.6702 33.96C23.6145 33.96 23.502 34.0127 23.4203 34.077C23.3385 34.1414 23.1452 34.2123 22.9908 34.2348C22.8363 34.2572 22.6371 34.3127 22.548 34.3578C22.3176 34.4747 20.9226 34.4736 20.8254 34.3565C20.7873 34.3106 20.6375 34.2552 20.4923 34.2335C20.3472 34.2117 20.1658 34.145 20.0892 34.0853C20.0127 34.0254 19.8893 33.9575 19.815 33.9342C19.7408 33.911 19.68 33.8562 19.68 33.8124C19.68 33.7688 19.6125 33.7161 19.53 33.6954C19.4331 33.6711 19.38 33.6156 19.38 33.5388C19.38 33.4721 19.3397 33.42 19.2881 33.42C19.2377 33.42 19.179 33.3728 19.1579 33.315C19.1369 33.2573 19.0566 33.1337 18.9798 33.0404C18.9029 32.9471 18.84 32.8151 18.84 32.747C18.84 32.679 18.7992 32.5932 18.7494 32.5566C18.6996 32.52 18.6308 32.3147 18.5964 32.1C18.5621 31.8855 18.5016 31.656 18.462 31.59C18.4092 31.502 18.3855 30.6539 18.3729 28.401L18.356 25.332L18.516 25.206C18.7391 25.0306 19.6425 25.0179 19.734 25.1889ZM42.1722 25.2663C42.317 25.3167 42.3987 25.4093 42.5141 25.6532L42.6657 25.9736L42.5445 26.2112C42.1551 26.9747 41.04 26.8118 41.04 25.9914C41.04 25.4127 41.5871 25.0623 42.1722 25.2663ZM45.765 25.9947C45.8183 26.0373 45.84 26.286 45.84 26.8509C45.84 27.7911 45.7694 27.72 46.703 27.72C47.469 27.72 47.52 27.7448 47.52 28.1181C47.52 28.6613 47.4937 28.68 46.7311 28.68C45.7615 28.68 45.8397 28.5065 45.8415 30.6543C45.8434 33.1368 45.8846 33.2537 46.7637 33.2784C47.3114 33.2939 47.3703 33.3342 47.4204 33.7277C47.5245 34.5459 45.7916 34.6194 45.045 33.8283C44.8882 33.6623 44.7599 33.4823 44.7597 33.4283C44.7594 33.3743 44.7125 33.249 44.6552 33.15C44.5635 32.9918 44.5473 32.7201 44.5205 30.9C44.4861 28.5686 44.5089 28.68 44.0664 28.68C43.634 28.68 43.5 28.554 43.5 28.1474C43.5 27.7758 43.5595 27.7302 44.0725 27.708L44.49 27.69L44.52 26.9402L44.55 26.1903L44.88 26.1002C45.0615 26.0505 45.264 25.9773 45.33 25.9373C45.4523 25.8633 45.63 25.8867 45.765 25.9947ZM42.4436 27.815C42.5094 27.9864 42.485 33.9587 42.4179 34.0839C42.3342 34.2402 41.4062 34.2576 41.2544 34.1057C41.1305 33.9819 41.109 27.915 41.232 27.792C41.349 27.675 42.3975 27.6948 42.4436 27.815ZM49.4082 27.9666C49.4423 28.0856 49.5014 28.2206 49.5396 28.2666C49.578 28.3125 49.6293 28.458 49.6538 28.59C49.6781 28.722 49.7328 28.884 49.7751 28.95C49.8176 29.016 49.884 29.1975 49.9227 29.3532C49.9616 29.5089 50.0309 29.6675 50.0766 29.7056C50.1225 29.7435 50.1603 29.8322 50.1606 29.9024C50.1609 29.9726 50.2284 30.1745 50.3106 30.351C50.3928 30.5276 50.46 30.7091 50.46 30.7544C50.46 30.7997 50.5122 30.9522 50.5758 31.0934C50.7155 31.4027 50.8652 31.8533 50.9501 32.22C51.0641 32.7119 51.1478 32.6064 51.4154 31.6335C51.4724 31.4265 51.5507 31.2254 51.5895 31.1865C51.6282 31.1478 51.66 31.0653 51.66 31.0032C51.66 30.9413 51.7248 30.7239 51.8039 30.5202C51.8831 30.3167 51.9623 30.0825 51.9798 30C52.0148 29.8362 52.2197 29.2269 52.3835 28.8C52.4403 28.6515 52.5063 28.439 52.5299 28.3277C52.5536 28.2162 52.6266 28.034 52.6923 27.9227L52.8119 27.72H53.364C54.0101 27.72 54.0753 27.7578 53.9643 28.0686C53.9208 28.1904 53.8841 28.3284 53.8827 28.3754C53.8812 28.4222 53.8395 28.5053 53.7902 28.5599C53.7407 28.6145 53.6774 28.7816 53.6495 28.9311C53.6216 29.0807 53.5539 29.267 53.4993 29.345C53.4447 29.423 53.4 29.529 53.4 29.5806C53.4 29.6324 53.3475 29.7774 53.2835 29.9031C53.2194 30.0288 53.1492 30.2169 53.1276 30.3209C53.106 30.425 53.0463 30.5759 52.9952 30.6566C52.944 30.7371 52.8818 30.8856 52.8567 30.9866C52.8092 31.1787 52.6226 31.658 52.4322 32.0766C52.3704 32.2122 52.3199 32.3607 52.3197 32.4066C52.3194 32.4525 52.2762 32.571 52.2236 32.67C52.1709 32.769 52.089 32.9783 52.0416 33.135C51.9942 33.2918 51.9306 33.42 51.9005 33.42C51.8702 33.42 51.8268 33.5213 51.804 33.645C51.7812 33.7688 51.7125 33.9344 51.6513 34.0131C51.5901 34.0919 51.54 34.1913 51.54 34.2342C51.54 34.3341 51.4517 34.5276 51.2682 34.83C51.1881 34.962 51.0747 35.1636 51.0162 35.2782C50.9579 35.3927 50.8695 35.5332 50.82 35.5907C50.7705 35.6481 50.6355 35.8128 50.52 35.957C50.4045 36.101 50.1924 36.3113 50.0489 36.4244C49.9052 36.5375 49.754 36.6618 49.7126 36.7005C49.6713 36.7394 49.5458 36.8145 49.4337 36.8678C49.3217 36.9209 49.1549 37.0058 49.0629 37.0565C48.8163 37.1924 48.5867 37.0989 48.5195 36.8354C48.4907 36.7224 48.4286 36.5259 48.3815 36.3987C48.2877 36.1452 48.3305 36.0365 48.5516 35.9663C48.6929 35.9216 49.0683 35.6832 49.2051 35.5515C49.2573 35.5011 49.3212 35.46 49.3472 35.46C49.4198 35.46 49.86 35.0027 49.86 34.9271C49.86 34.8902 49.8864 34.86 49.9185 34.86C49.9508 34.86 50.0316 34.7402 50.0984 34.5936C50.1651 34.4472 50.2467 34.3106 50.2799 34.2902C50.3853 34.2249 50.3492 33.6593 50.2265 33.4571C50.1641 33.3542 50.0947 33.1841 50.0725 33.0792C50.0505 32.9742 49.9935 32.8562 49.9461 32.8169C49.8987 32.7776 49.86 32.6852 49.86 32.6117C49.86 32.538 49.7925 32.351 49.71 32.1957C49.6275 32.0406 49.56 31.8671 49.56 31.8102C49.56 31.7532 49.5225 31.6532 49.4768 31.5879C49.431 31.5225 49.3583 31.3478 49.3152 31.1996C49.272 31.0512 49.2045 30.876 49.1651 30.81C49.1256 30.744 49.0595 30.582 49.0182 30.45C48.9768 30.318 48.9063 30.1568 48.8615 30.0917C48.8166 30.0266 48.78 29.9241 48.78 29.864C48.78 29.8038 48.7125 29.6277 48.63 29.4728C48.5475 29.3178 48.48 29.141 48.48 29.0799C48.48 29.0189 48.426 28.9004 48.36 28.8164C48.294 28.7325 48.24 28.6152 48.24 28.5558C48.24 28.4429 48.1727 28.2713 48.0306 28.0224C47.8824 27.7626 47.997 27.714 48.7122 27.7331L49.3464 27.75L49.4082 27.9666Z" fill="#F5F5F5"/>
<path fill-rule="evenodd" clip-rule="evenodd" d="M9.38999 23.8572C9.25799 23.9079 9.02174 23.9896 8.86499 24.0391C8.70824 24.0886 8.57999 24.154 8.57999 24.1845C8.57999 24.2151 8.55269 24.24 8.51924 24.24C8.42879 24.24 7.73999 24.7219 7.73999 24.7852C7.73999 24.8154 7.70624 24.8407 7.66499 24.8415C7.62374 24.8424 7.49819 24.9841 7.38599 25.1565C7.27379 25.329 7.13609 25.5376 7.07999 25.6204C7.02374 25.7032 6.96194 25.8517 6.94244 25.9504C6.92294 26.0491 6.85919 26.2969 6.80084 26.5009C6.71234 26.8102 6.70589 26.92 6.76259 27.1609C6.87404 27.6349 6.96584 27.979 7.03169 28.17C7.06589 28.269 7.13354 28.4715 7.18229 28.62C7.23089 28.7685 7.32224 28.9882 7.38539 29.1081C7.44839 29.2281 7.49999 29.3662 7.49999 29.4151C7.49999 29.4639 7.55399 29.5725 7.61999 29.6563C7.68599 29.7403 7.73999 29.8618 7.73999 29.9263C7.73999 29.991 7.79399 30.1125 7.85999 30.1963C7.92599 30.2803 7.97999 30.3666 7.97999 30.3882C7.97999 30.4098 8.06474 30.6081 8.16824 30.8287C8.27174 31.0494 8.42579 31.3785 8.51039 31.56C8.59499 31.7415 8.68289 31.9035 8.70539 31.92C8.72804 31.9365 8.78954 32.0445 8.84204 32.16C8.89454 32.2755 8.96234 32.4105 8.99249 32.46C9.02279 32.5095 9.13529 32.7255 9.24269 32.94C9.35009 33.1545 9.51449 33.465 9.60809 33.63C9.70154 33.795 9.83294 34.038 9.89999 34.17C9.96689 34.302 10.0879 34.518 10.1688 34.65C10.2496 34.782 10.3588 34.9809 10.4116 35.0919L10.5075 35.2939L10.6618 35.1519C10.7467 35.0739 10.8684 34.902 10.932 34.77C10.9957 34.638 11.1676 34.314 11.314 34.05C11.4604 33.786 11.6358 33.462 11.7036 33.33C11.7714 33.198 11.9044 32.955 11.9994 32.79C12.0943 32.625 12.1896 32.4495 12.2109 32.4C12.3057 32.1802 12.3631 32.0638 12.418 31.98C12.4506 31.9305 12.5176 31.7955 12.5673 31.68C12.6169 31.5645 12.6807 31.4295 12.709 31.38C12.8272 31.1736 12.9607 30.9205 13.0254 30.78C13.0635 30.6975 13.1587 30.4945 13.2373 30.3291C13.3158 30.1636 13.38 29.9982 13.38 29.9614C13.38 29.9247 13.4205 29.8611 13.47 29.82C13.5195 29.7789 13.56 29.6986 13.56 29.6416C13.56 29.5845 13.6275 29.4109 13.71 29.2557C13.7925 29.1006 13.86 28.9309 13.86 28.8789C13.86 28.8268 13.9117 28.6999 13.9749 28.597C14.0382 28.4941 14.1093 28.302 14.133 28.17C14.1567 28.038 14.2194 27.849 14.2725 27.75C14.5474 27.2365 14.3808 26.1652 13.8961 25.332C13.7857 25.1421 13.2445 24.54 13.1842 24.54C13.1572 24.54 13.0485 24.481 12.9426 24.4089C12.4999 24.1077 12.4362 24.073 12.2446 24.031C12.1342 24.0067 11.9328 23.9364 11.7969 23.8747C11.4657 23.7243 9.76904 23.712 9.38999 23.8572ZM11.548 23.9379C11.6196 24.0169 11.7703 24.0688 12.0057 24.0954C12.2749 24.1258 12.3651 24.1614 12.3924 24.2475C12.4131 24.3127 12.4837 24.36 12.5607 24.36C12.6336 24.36 12.7402 24.4147 12.7975 24.4816C12.8548 24.5485 12.9823 24.6195 13.0809 24.6391C13.1821 24.6594 13.26 24.7132 13.26 24.763C13.26 24.8116 13.314 24.8653 13.38 24.8826C13.446 24.8998 13.5 24.9633 13.5 25.0236C13.5 25.0839 13.552 25.1697 13.6158 25.2142C13.6794 25.2589 13.7508 25.3719 13.7742 25.4655C13.7977 25.5591 13.8672 25.6488 13.9284 25.6648C14.013 25.6869 14.04 25.7503 14.04 25.927C14.04 26.08 14.0812 26.2012 14.16 26.28C14.3226 26.4426 14.3368 27.3177 14.1798 27.4912C14.121 27.5563 14.068 27.7435 14.0514 27.9459C14.0311 28.1905 13.9906 28.3126 13.9114 28.3684C13.8396 28.419 13.8 28.5202 13.8 28.6534C13.8 28.7824 13.7533 28.9066 13.6755 28.9845C13.6069 29.053 13.5352 29.2057 13.5162 29.3238C13.497 29.442 13.4314 29.5885 13.3707 29.6493C13.3098 29.7102 13.26 29.8303 13.26 29.9163C13.26 30.0022 13.1925 30.1528 13.11 30.2509C13.0162 30.3624 12.96 30.5035 12.96 30.6276C12.96 30.7755 12.9295 30.834 12.84 30.8574C12.7597 30.8784 12.72 30.9393 12.72 31.041C12.72 31.1247 12.6705 31.2285 12.6099 31.2715C12.5493 31.3147 12.4816 31.4421 12.4594 31.5546C12.4372 31.6672 12.3654 31.797 12.2995 31.843C12.2203 31.8985 12.18 31.995 12.18 32.1294C12.18 32.2747 12.1482 32.3419 12.0673 32.3676C11.9941 32.3908 11.9422 32.4814 11.9188 32.6266C11.8978 32.7576 11.8327 32.8812 11.7615 32.9254C11.6946 32.9671 11.64 33.0652 11.64 33.1441C11.64 33.2227 11.6008 33.3021 11.5531 33.3205C11.5053 33.3388 11.4376 33.4605 11.4025 33.5907C11.3674 33.721 11.301 33.8421 11.2549 33.8598C11.209 33.8775 11.1516 33.9814 11.1276 34.0909C11.1036 34.2004 11.0335 34.3252 10.9719 34.3684C10.8996 34.4191 10.86 34.5198 10.86 34.6534C10.86 34.7889 10.8315 34.86 10.7773 34.86C10.7319 34.86 10.6549 34.9198 10.6063 34.9929C10.5196 35.1235 10.5175 35.122 10.4758 34.8997C10.4524 34.7754 10.3944 34.6587 10.3467 34.6404C10.299 34.6221 10.26 34.5558 10.26 34.4932C10.26 34.4305 10.1925 34.3204 10.11 34.2487C10.0275 34.177 9.95999 34.0533 9.95999 33.9735C9.95999 33.8793 9.91814 33.8178 9.83999 33.7974C9.75569 33.7753 9.71999 33.7155 9.71999 33.5961C9.71999 33.498 9.65654 33.3577 9.56999 33.2643C9.48749 33.1753 9.41999 33.0364 9.41999 32.9556C9.41999 32.8593 9.37874 32.7979 9.29999 32.7774C9.21599 32.7553 9.17999 32.6955 9.17999 32.5779C9.17999 32.3535 9.12404 32.22 9.02999 32.22C8.94464 32.22 8.87999 32.0901 8.87999 31.9185C8.87999 31.857 8.83004 31.7715 8.76914 31.7284C8.70809 31.6852 8.63954 31.549 8.61659 31.4257C8.59229 31.2955 8.52554 31.1751 8.45744 31.1386C8.37584 31.095 8.33999 31.0128 8.33999 30.87C8.33999 30.7257 8.30414 30.645 8.21999 30.6C8.14154 30.558 8.09999 30.4743 8.09999 30.3583C8.09999 30.246 8.05604 30.1536 7.97999 30.106C7.90859 30.0615 7.85999 29.9661 7.85999 29.8704C7.85999 29.653 7.80299 29.52 7.70999 29.52C7.61549 29.52 7.55999 29.3863 7.55999 29.1585C7.55999 29.0593 7.51289 28.9536 7.44854 28.9084C7.37354 28.8555 7.32329 28.7176 7.29434 28.4856C7.26854 28.2783 7.21559 28.1211 7.16144 28.0908C7.11104 28.0626 7.05869 27.9234 7.04249 27.7752C6.98339 27.2287 6.95429 27.12 6.86729 27.12C6.74819 27.12 6.75344 26.8225 6.87419 26.7343C6.93239 26.6919 6.98729 26.5135 7.01759 26.2693C7.05179 25.993 7.10504 25.8349 7.19339 25.7466C7.26299 25.677 7.31999 25.5688 7.31999 25.5064C7.31999 25.4439 7.36094 25.3771 7.41089 25.3579C7.46084 25.3387 7.52714 25.2562 7.55819 25.1746C7.58924 25.093 7.69004 24.9789 7.78229 24.921C7.96484 24.8064 8.09174 24.703 8.30519 24.495C8.38139 24.4207 8.48789 24.36 8.54189 24.36C8.59589 24.36 8.69324 24.3067 8.75849 24.2415C8.84114 24.1588 8.98079 24.1161 9.22034 24.1002C9.48944 24.0822 9.58229 24.0493 9.64919 23.9485C9.77519 23.7589 11.3779 23.7499 11.548 23.9379ZM9.65999 24.4639C9.57749 24.4789 9.46169 24.5428 9.40259 24.6057C9.34364 24.6685 9.21719 24.72 9.12164 24.72C9.00284 24.72 8.93654 24.7566 8.91134 24.8358C8.89019 24.9022 8.79584 24.969 8.68994 24.9922C8.58149 25.0159 8.49314 25.0795 8.47574 25.1463C8.45939 25.2088 8.40779 25.26 8.36114 25.26C8.31449 25.26 8.25884 25.3072 8.23754 25.365C8.21639 25.4227 8.13614 25.5294 8.05949 25.6021C7.98269 25.6747 7.91999 25.8012 7.91999 25.8831C7.91999 25.9764 7.87769 26.0454 7.80644 26.0679C7.67174 26.1106 7.62194 26.2681 7.62074 26.655C7.62029 26.8591 7.58594 26.974 7.49999 27.06C7.43399 27.126 7.37999 27.2475 7.37999 27.33C7.37999 27.4125 7.43399 27.534 7.49999 27.6C7.57844 27.6784 7.61999 27.7999 7.61999 27.951C7.61999 28.2403 7.72154 28.54 7.83419 28.5832C7.88144 28.6014 7.91999 28.6735 7.91999 28.7437C7.91999 28.8187 7.96709 28.8835 8.03444 28.9011C8.09744 28.9176 8.16239 28.9825 8.17889 29.0455C8.19524 29.1085 8.25284 29.16 8.30669 29.16C8.36069 29.16 8.51054 29.268 8.63999 29.4C8.76944 29.532 8.91374 29.64 8.96069 29.64C9.00779 29.64 9.09044 29.7075 9.14444 29.79C9.22604 29.9143 9.29039 29.94 9.52169 29.94C9.69929 29.94 9.84119 29.9767 9.91259 30.0414C10.0731 30.1867 10.9959 30.1881 11.25 30.0433C11.349 29.9869 11.5125 29.9406 11.6133 29.9403C11.7142 29.9401 11.8881 29.8725 12 29.79C12.1117 29.7075 12.2235 29.64 12.2482 29.64C12.273 29.64 12.396 29.5432 12.5217 29.425C12.6472 29.307 12.8239 29.1829 12.9142 29.1495C13.0341 29.1052 13.0954 29.0256 13.1415 28.8544C13.1761 28.7254 13.2412 28.62 13.2859 28.62C13.39 28.62 13.44 28.4871 13.44 28.2096C13.44 28.0539 13.4754 27.9667 13.56 27.9139C13.6663 27.8475 13.68 27.774 13.68 27.27C13.68 26.766 13.6663 26.6925 13.56 26.626C13.4643 26.5663 13.44 26.4861 13.44 26.2299C13.44 25.9587 13.4212 25.9038 13.3194 25.8772C13.2529 25.8598 13.1826 25.7814 13.1628 25.7028C13.1431 25.6242 13.0887 25.56 13.042 25.56C12.9952 25.56 12.9313 25.4925 12.9 25.41C12.8686 25.3275 12.8035 25.26 12.7555 25.26C12.7074 25.26 12.6514 25.2073 12.6309 25.143C12.6105 25.0788 12.5386 25.0086 12.471 24.9871C12.4035 24.9657 12.2968 24.8968 12.2341 24.8341C12.1713 24.7713 12.0556 24.72 11.9769 24.72C11.8905 24.72 11.7949 24.6606 11.7355 24.57C11.6389 24.4227 10.2666 24.3525 9.65999 24.4639ZM11.5717 24.6964C12.0681 24.895 12.5149 25.1731 12.7423 25.4248C12.7795 25.4661 12.8842 25.5805 12.975 25.6794C13.0657 25.7781 13.14 25.8907 13.14 25.9297C13.14 25.9687 13.1776 26.0431 13.2235 26.0953C13.7205 26.6583 13.4575 28.5871 12.8325 28.9638C12.4914 29.1693 12.4621 29.0856 12.4873 27.9739L12.51 26.97L12.2115 26.9511C11.7808 26.9239 11.76 26.8912 11.76 26.2438C11.76 25.5823 11.7039 25.5339 11.1271 25.698C10.7541 25.804 10.7233 25.7817 10.7496 25.4235L10.768 25.17L10.3969 25.1521C9.87494 25.1272 9.83999 25.2048 9.83999 26.3895C9.83999 26.8821 9.82274 27.3715 9.80159 27.4773C9.74129 27.7786 9.66194 27.5712 9.66089 27.1093C9.65939 26.4784 9.09179 26.1996 8.68124 26.6283L8.51999 26.7966L8.51909 27.8433C8.51864 28.419 8.49749 28.9225 8.47214 28.9624C8.41814 29.0473 7.97999 28.6768 7.97999 28.5463C7.97999 28.5025 7.93274 28.4001 7.87499 28.3185C7.55939 27.8733 7.62884 26.6211 8.00399 25.9918C8.32994 25.4451 9.07124 24.7852 9.36779 24.7779C9.41294 24.7768 9.55799 24.7237 9.68999 24.66C10.0785 24.4723 11.059 24.4914 11.5717 24.6964ZM29.565 25.0633C29.6722 25.0767 29.8477 25.0767 29.955 25.0633C30.0622 25.0501 29.9745 25.0392 29.76 25.0392C29.5455 25.0392 29.4577 25.0501 29.565 25.0633ZM29.055 25.1214C29.1127 25.1364 29.2072 25.1364 29.265 25.1214C29.3227 25.1062 29.2755 25.0939 29.16 25.0939C29.0445 25.0939 28.9972 25.1062 29.055 25.1214ZM30.45 25.1365C30.582 25.1593 30.7575 25.1962 30.84 25.2184C30.9601 25.2508 30.9543 25.2415 30.81 25.1721C30.711 25.1244 30.5355 25.0875 30.42 25.0902L30.21 25.095L30.45 25.1365ZM37.2121 25.2285C37.0704 25.2727 36.7381 25.3381 36.4737 25.3737C36.2028 25.4101 35.9535 25.4779 35.9022 25.5292C35.8522 25.5792 35.7766 25.62 35.734 25.62C35.6916 25.62 35.5573 25.6875 35.4357 25.77C35.3142 25.8525 35.1849 25.92 35.1486 25.92C35.1123 25.92 35.0257 25.9758 34.9563 26.0439C34.8868 26.1121 34.695 26.2971 34.53 26.4549C34.0695 26.8954 33.9246 27.0888 33.7173 27.54C33.6793 27.6225 33.5976 27.798 33.5356 27.93C33.4735 28.062 33.3945 28.3689 33.3598 28.612C33.325 28.855 33.2704 29.103 33.2383 29.163C33.1606 29.3083 33.1636 30.1293 33.2428 30.3373C33.2773 30.4282 33.3342 30.7201 33.3691 30.9862C33.4042 31.2523 33.481 31.551 33.54 31.65C33.5988 31.749 33.6655 31.9177 33.6883 32.025C33.711 32.1322 33.7552 32.22 33.7867 32.22C33.8181 32.22 33.8632 32.2672 33.8869 32.325C33.9511 32.4817 34.2822 32.9667 34.3425 32.9925C34.3713 33.0048 34.4397 33.0589 34.4944 33.1125C34.6461 33.261 35.0262 33.54 35.0772 33.54C35.1019 33.54 35.1808 33.595 35.2525 33.6624C35.3241 33.7297 35.4879 33.8016 35.6164 33.8223C35.7448 33.8428 35.9185 33.9102 36.0022 33.9717C36.1971 34.1151 37.6254 34.1814 38.61 34.093C39.4366 34.0186 39.753 33.8701 39.6957 33.5832C39.676 33.4852 39.66 33.3562 39.66 33.2965C39.66 33.1177 39.4401 33.0955 39.1929 33.2493C38.8908 33.4372 36.7582 33.4674 36.5583 33.2865C36.4954 33.2296 36.3508 33.1612 36.237 33.1345C35.988 33.076 35.6911 32.9088 35.439 32.685C35.3368 32.5942 35.2323 32.52 35.2066 32.52C35.181 32.52 35.16 32.4804 35.16 32.4321C35.16 32.3838 35.1088 32.3169 35.0463 32.2834C34.9837 32.2498 34.9042 32.1409 34.8694 32.0412C34.8346 31.9416 34.7788 31.86 34.7455 31.86C34.7121 31.86 34.6513 31.7452 34.6104 31.605C34.5693 31.4647 34.5111 31.3329 34.4808 31.312C34.2172 31.1304 34.2238 28.3107 34.4881 28.1473C34.5225 28.1262 34.5693 28.0281 34.5921 27.9294C34.6975 27.4756 35.7562 26.3431 36.0774 26.3407C36.1365 26.3403 36.258 26.286 36.3474 26.2198C36.6249 26.0148 37.8912 25.9336 38.73 26.0671C39.7179 26.2243 39.6271 26.2488 39.6477 25.819L39.6655 25.4482L39.3777 25.4082C39.2194 25.3863 38.883 25.3168 38.6299 25.2541C38.0997 25.1226 37.5816 25.1131 37.2121 25.2285ZM25.0044 25.3254C25.0608 25.3978 25.0827 26.1378 25.095 28.3854L25.1112 31.35L25.1256 28.3723C25.1389 25.5978 25.1328 25.3891 25.035 25.3123C24.9421 25.2394 24.9385 25.2409 25.0044 25.3254ZM31.5612 25.5229C31.5952 25.618 31.606 25.7496 31.585 25.8154C31.56 25.8948 31.5696 25.9212 31.6135 25.8939C31.7085 25.8352 31.6956 25.603 31.5897 25.4664C31.5057 25.3582 31.5036 25.3621 31.5612 25.5229ZM41.3104 25.6548C41.115 25.9881 41.1394 26.1369 41.4315 26.3932C41.9718 26.8675 42.564 26.3574 42.3298 25.6195C42.2155 25.2594 41.5282 25.2831 41.3104 25.6548ZM10.0647 27.075C10.0537 27.3802 10.0449 27.1305 10.0449 26.52C10.0449 25.9095 10.0537 25.6597 10.0647 25.965C10.0756 26.2702 10.0756 26.7697 10.0647 27.075ZM18.5077 28.29C18.5077 29.841 18.5154 30.484 18.525 29.7192C18.5344 28.9542 18.5344 27.6852 18.525 26.8992C18.5155 26.113 18.5077 26.739 18.5077 28.29ZM11.16 26.4336C11.16 26.6911 11.1346 26.88 11.1 26.88C11.0649 26.88 11.04 26.6788 11.04 26.3964C11.04 26.0893 11.0619 25.9264 11.1 25.95C11.133 25.9704 11.16 26.188 11.16 26.4336ZM29.34 26.1019C29.2431 26.1343 29.307 26.1399 29.52 26.1178C29.7015 26.0991 29.8612 26.0739 29.875 26.0619C29.923 26.0197 29.4886 26.0524 29.34 26.1019ZM45.042 26.2026C44.7474 26.2348 44.7 26.3578 44.7 27.0904C44.7 27.7698 44.6422 27.84 44.0835 27.84H43.7337L43.7518 28.155L43.77 28.47L44.16 28.5C44.7433 28.5448 44.7 28.3881 44.7 30.4497C44.7 32.3857 44.7889 33.33 44.9931 33.5584C45.4653 34.087 45.6219 34.1478 46.47 34.1323C47.1429 34.12 47.191 34.0942 47.1828 33.7492L47.1756 33.45L46.6576 33.4185C45.6844 33.3592 45.588 33.0924 45.6124 30.5257C45.6333 28.3401 45.54 28.5429 46.5477 28.4923C46.9669 28.4712 47.3167 28.4508 47.325 28.447C47.3332 28.4431 47.34 28.305 47.34 28.14V27.84L46.635 27.8391C45.6114 27.8379 45.6369 27.8601 45.6 26.9383C45.5662 26.0961 45.6006 26.1415 45.042 26.2026ZM8.71394 27.7048C8.68949 29.0457 8.66129 29.1382 8.65004 27.915C8.64449 27.3127 8.66024 26.82 8.68499 26.8198C8.70974 26.8198 8.72279 27.2181 8.71394 27.7048ZM10.9101 27.2481C10.899 27.3261 10.8495 27.39 10.8 27.39C10.6848 27.39 10.6438 27.1194 10.7493 27.0543C10.8588 26.9865 10.9342 27.0774 10.9101 27.2481ZM28.0401 27.42C28.0401 27.6675 28.0507 27.7687 28.0636 27.645C28.0767 27.5212 28.0767 27.3187 28.0636 27.195C28.0507 27.0712 28.0401 27.1725 28.0401 27.42ZM26.8392 27.48C26.8392 27.6945 26.8501 27.7822 26.8633 27.675C26.8767 27.5677 26.8767 27.3922 26.8633 27.285C26.8501 27.1777 26.8392 27.2655 26.8392 27.48ZM12.18 28.3854C12.18 29.2716 12.0705 29.52 11.6796 29.52C11.5593 29.52 11.4994 29.5554 11.4774 29.64C11.4478 29.7529 11.3955 29.76 10.5829 29.76H9.71999V29.34V28.92H9.98999C10.2199 28.92 10.26 28.9021 10.26 28.8C10.26 28.734 10.285 28.68 10.3156 28.68C10.4637 28.68 10.56 28.4772 10.56 28.1656V27.84H10.8279H11.0959L11.1129 28.485L11.13 29.13L11.4543 29.1484C11.872 29.1723 11.8779 29.1604 11.8791 28.305L11.88 27.6H12.03H12.18V28.3854ZM41.3899 30.84C41.3845 32.49 41.3778 33.8872 41.3749 33.945C41.3706 34.0366 41.4309 34.05 41.85 34.05H42.33L42.3456 30.945L42.361 27.84H41.8806H41.4L41.3899 30.84ZM48.12 27.8743C48.12 27.8931 48.1594 27.948 48.2076 27.9961C48.2559 28.0444 48.3132 28.1842 48.3352 28.3069C48.3571 28.4296 48.4098 28.5705 48.4519 28.62C48.4942 28.6695 48.5608 28.8315 48.6 28.98C48.6391 29.1285 48.7054 29.2905 48.7473 29.34C48.7893 29.3895 48.841 29.5227 48.8625 29.6361C48.8839 29.7493 48.9427 29.8878 48.9933 29.9436C49.0438 29.9994 49.101 30.1497 49.1205 30.2775C49.14 30.4054 49.2034 30.564 49.2616 30.63C49.3197 30.696 49.386 30.8647 49.4089 31.005C49.4317 31.1452 49.4709 31.26 49.4956 31.26C49.5619 31.26 49.68 31.5441 49.68 31.7037C49.68 31.7796 49.7305 31.8999 49.7923 31.9713C49.8541 32.0425 49.9215 32.2051 49.9419 32.3326C49.9623 32.4601 50.0184 32.5971 50.0665 32.6371C50.1147 32.677 50.1717 32.8275 50.1933 32.9713C50.2149 33.115 50.2837 33.279 50.3463 33.3357C50.5176 33.4908 50.5129 34.3734 50.34 34.53C50.274 34.5897 50.22 34.675 50.22 34.7197C50.22 34.7643 50.1525 34.8595 50.07 34.9312C49.9875 35.0029 49.92 35.0809 49.92 35.1045C49.92 35.1766 49.5762 35.52 49.504 35.52C49.4667 35.52 49.422 35.5569 49.4047 35.602C49.3642 35.7076 48.8221 36.06 48.7002 36.06C48.5494 36.06 48.5317 36.153 48.604 36.5677C48.673 36.9639 48.9346 37.1488 49.0395 36.8757C49.0573 36.8292 49.1614 36.772 49.2709 36.7485C49.4949 36.7003 49.4706 36.7189 50.145 36.0801C50.4172 35.8221 50.64 35.5836 50.64 35.55C50.64 35.5164 50.694 35.4552 50.76 35.4139C50.826 35.3727 50.88 35.2905 50.88 35.2311C50.88 35.1718 50.9475 35.0317 51.03 34.92C51.1125 34.8082 51.18 34.6789 51.18 34.6327C51.18 34.5867 51.234 34.4803 51.3 34.3963C51.366 34.3125 51.42 34.1971 51.42 34.14C51.42 34.0828 51.4701 33.9718 51.5313 33.8931C51.5925 33.8143 51.6607 33.6514 51.6829 33.531C51.705 33.4105 51.7623 33.2796 51.81 33.24C51.8577 33.2004 51.9142 33.0694 51.9357 32.949C51.9571 32.8285 52.0224 32.649 52.0809 32.55C52.1392 32.451 52.2064 32.2755 52.2301 32.16C52.254 32.0445 52.3093 31.909 52.3531 31.8591C52.3971 31.8091 52.4592 31.6519 52.4911 31.5097C52.5231 31.3677 52.5921 31.2039 52.6446 31.146C52.6971 31.0879 52.74 30.9697 52.74 30.883C52.74 30.7059 52.8547 30.42 52.926 30.42C52.9516 30.42 52.9911 30.2971 53.0136 30.147C53.0361 29.9968 53.0956 29.833 53.1457 29.7828C53.196 29.7325 53.2603 29.5672 53.2887 29.4153C53.317 29.2635 53.3776 29.0965 53.4234 29.0445C53.4691 28.9926 53.5258 28.8555 53.5492 28.74C53.5726 28.6245 53.6337 28.4641 53.6848 28.3834C53.736 28.3029 53.7979 28.1476 53.8225 28.0384L53.8674 27.84H53.3637C52.8741 27.84 52.86 27.8439 52.86 27.9819C52.86 28.0599 52.8085 28.1893 52.7455 28.2693C52.6827 28.3492 52.6119 28.5433 52.5883 28.7004C52.5648 28.8574 52.5115 29.0199 52.47 29.0614C52.4284 29.103 52.3749 29.2569 52.3509 29.4034C52.3269 29.55 52.2595 29.751 52.2012 29.85C52.1428 29.949 52.0804 30.1468 52.0626 30.2896C52.0447 30.4324 51.9903 30.5944 51.9415 30.6496C51.8929 30.7048 51.8337 30.8715 51.8101 31.02C51.7866 31.1685 51.7195 31.371 51.6612 31.47C51.6028 31.569 51.5404 31.7668 51.5226 31.9096C51.5047 32.0524 51.4477 32.2162 51.3958 32.2735C51.3439 32.331 51.2838 32.4661 51.2622 32.5741C51.1914 32.9277 50.88 32.8434 50.88 32.4706C50.88 32.3901 50.8294 32.2399 50.7676 32.137C50.7058 32.0341 50.637 31.8292 50.6148 31.6815C50.5924 31.5339 50.5339 31.3686 50.4846 31.314C50.4352 31.2595 50.3788 31.1103 50.3593 30.9825C50.3397 30.8545 50.289 30.7095 50.2464 30.66C50.2038 30.6105 50.1361 30.435 50.0961 30.27C50.0559 30.105 49.9894 29.9295 49.9482 29.88C49.9071 29.8305 49.854 29.6955 49.8301 29.58C49.8064 29.4645 49.7359 29.2858 49.6735 29.1829C49.6111 29.08 49.56 28.9261 49.56 28.8411C49.56 28.756 49.4925 28.5594 49.41 28.4043C49.3275 28.249 49.26 28.0587 49.26 27.981C49.26 27.8428 49.2483 27.84 48.69 27.84C48.3765 27.84 48.12 27.8554 48.12 27.8743ZM28.5132 28.4119C28.6029 28.5064 28.687 28.5715 28.7002 28.5568C28.7134 28.542 28.6399 28.4647 28.537 28.3851L28.35 28.2403L28.5132 28.4119ZM44.04 28.35C44.1024 28.4251 44.0937 28.44 43.9873 28.44C43.9141 28.44 43.86 28.4017 43.86 28.35C43.86 28.3005 43.8837 28.26 43.9126 28.26C43.9416 28.26 43.9989 28.3005 44.04 28.35ZM26.9406 28.3429C26.9395 28.4364 27.1972 28.8244 27.3837 29.01C27.4831 29.109 27.5266 29.136 27.4801 29.07C27.4338 29.004 27.3658 28.923 27.3292 28.89C27.2925 28.857 27.1902 28.7085 27.1018 28.56C27.0135 28.4115 26.9409 28.3138 26.9406 28.3429ZM9.23999 29.2536C9.23999 29.4606 9.21719 29.5729 9.17999 29.55C9.08429 29.4909 9.11729 28.92 9.21644 28.92C9.22934 28.92 9.23999 29.0701 9.23999 29.2536ZM30.8955 29.6457C31.0084 29.7145 31.2496 29.9236 31.4314 30.1104C31.6636 30.349 31.7116 30.3826 31.5927 30.2235C31.4088 29.9773 30.8653 29.5198 30.7572 29.5201C30.7201 29.5203 30.7824 29.5768 30.8955 29.6457ZM31.8 30.637C31.8 30.67 31.8396 30.7494 31.888 30.8136C31.9365 30.8776 31.9762 30.903 31.9762 30.87C31.9762 30.837 31.9365 30.7576 31.888 30.6936C31.8396 30.6294 31.8 30.604 31.8 30.637ZM30.4543 30.8457C30.5509 30.9643 30.6421 31.0512 30.6568 31.0387C30.6717 31.0263 30.5926 30.9292 30.4813 30.823L30.2787 30.63L30.4543 30.8457ZM19.758 31.26C19.758 31.4415 19.7692 31.5157 19.783 31.425C19.7967 31.3342 19.7967 31.1857 19.783 31.095C19.7692 31.0042 19.758 31.0785 19.758 31.26ZM23.8873 31.08C23.8824 31.1295 23.8633 31.2375 23.845 31.32C23.8162 31.4496 23.821 31.4554 23.8798 31.3632C23.9172 31.3045 23.9362 31.1965 23.9221 31.1232C23.9079 31.05 23.8923 31.0305 23.8873 31.08ZM18.5539 31.32C18.5539 31.4355 18.5662 31.4827 18.5814 31.425C18.5964 31.3672 18.5964 31.2727 18.5814 31.215C18.5662 31.1572 18.5539 31.2045 18.5539 31.32ZM32.0563 31.74C32.0563 31.8885 32.068 31.9492 32.0823 31.875C32.0967 31.8007 32.0967 31.6792 32.0823 31.605C32.068 31.5307 32.0563 31.5915 32.0563 31.74ZM18.6139 31.74C18.6139 31.8555 18.6262 31.9027 18.6414 31.845C18.6564 31.7872 18.6564 31.6927 18.6414 31.635C18.6262 31.5772 18.6139 31.6245 18.6139 31.74ZM30.858 31.86C30.858 32.0415 30.8692 32.1157 30.883 32.025C30.8967 31.9342 30.8967 31.7857 30.883 31.695C30.8692 31.6042 30.858 31.6785 30.858 31.86ZM18.6642 32.13C18.6642 32.163 18.7029 32.2575 18.75 32.34C18.7971 32.4225 18.8358 32.463 18.8358 32.43C18.8358 32.397 18.7971 32.3025 18.75 32.22C18.7029 32.1375 18.6642 32.097 18.6642 32.13ZM31.935 32.535C31.8705 32.7112 31.872 32.7189 31.9518 32.6136C32.0281 32.5128 32.0731 32.34 32.0232 32.34C32.0139 32.34 31.9741 32.4277 31.935 32.535ZM31.392 33.4012C31.2171 33.5868 31.1343 33.6985 31.2081 33.6495C31.3302 33.5685 31.7865 33.0573 31.7328 33.0619C31.7202 33.063 31.5669 33.2157 31.392 33.4012ZM21.435 33.3414C21.4927 33.3564 21.5872 33.3564 21.645 33.3414C21.7027 33.3262 21.6555 33.3139 21.54 33.3139C21.4245 33.3139 21.3772 33.3262 21.435 33.3414ZM21.8857 33.3424C21.9603 33.3568 22.0683 33.3562 22.1257 33.3412C22.183 33.3262 22.122 33.3144 21.99 33.3151C21.858 33.3157 21.811 33.328 21.8857 33.3424ZM26.6481 33.603C26.64 33.7573 26.7337 33.9 26.8434 33.9C26.8762 33.9 26.8591 33.8662 26.8057 33.825C26.7522 33.7837 26.6967 33.6825 26.6824 33.6L26.6563 33.45L26.6481 33.603ZM19.8454 33.825C19.9231 33.8992 20.019 33.9592 20.0583 33.9582C20.0977 33.9571 20.076 33.9264 20.01 33.8898C19.944 33.8532 19.8481 33.7932 19.797 33.7566C19.746 33.72 19.7677 33.7507 19.8454 33.825ZM23.5861 33.8151C23.3643 33.9727 23.3701 33.9984 23.6038 33.8919C23.686 33.8544 23.7675 33.7869 23.7847 33.7419C23.8228 33.6427 23.8353 33.6381 23.5861 33.8151ZM41.61 33.9C41.7154 34.0164 41.7148 34.02 41.5893 34.02C41.5 34.02 41.46 33.9829 41.46 33.9C41.46 33.834 41.4693 33.78 41.4807 33.78C41.4921 33.78 41.5503 33.834 41.61 33.9ZM47.1 33.93C47.1 33.9795 47.0562 34.02 47.0026 34.02C46.923 34.02 46.9188 34.0036 46.98 33.93C47.0211 33.8805 47.0649 33.84 47.0773 33.84C47.0898 33.84 47.1 33.8805 47.1 33.93ZM21.75 34.32L21.39 34.3599L21.72 34.3639C21.9015 34.3662 22.1175 34.3464 22.2 34.32C22.3821 34.2616 22.2769 34.2616 21.75 34.32ZM28.47 34.32C28.569 34.3452 28.731 34.3659 28.83 34.366C28.9813 34.3662 28.9717 34.3582 28.77 34.3165C28.4661 34.2537 28.2205 34.2565 28.47 34.32ZM29.145 34.3023C29.2192 34.3167 29.3407 34.3167 29.415 34.3023C29.4892 34.288 29.4285 34.2763 29.28 34.2763C29.1315 34.2763 29.0707 34.288 29.145 34.3023ZM48.78 36.24C48.7447 36.306 48.7032 36.36 48.6879 36.36C48.6726 36.36 48.66 36.306 48.66 36.24C48.66 36.172 48.7 36.12 48.7521 36.12C48.8256 36.12 48.8313 36.1441 48.78 36.24Z" fill="#8E9B95"/>
<path fill-rule="evenodd" clip-rule="evenodd" d="M29.1603 25.1205C29.0448 25.1367 28.9221 25.1734 28.8873 25.2022C28.8525 25.2312 28.7039 25.2733 28.557 25.296C28.4102 25.3188 28.2183 25.3873 28.1307 25.4487C28.0431 25.5099 27.9443 25.56 27.9111 25.56C27.8091 25.56 27.231 26.1786 27.1439 26.3809C27.0987 26.4859 27.0344 26.5887 27.0009 26.6094C26.9675 26.6301 26.9421 26.7063 26.9448 26.7786C26.948 26.8674 26.9604 26.8809 26.9834 26.82C27.002 26.7705 27.0672 26.6583 27.1286 26.5707C27.1899 26.4831 27.24 26.3788 27.24 26.3388C27.24 26.2363 27.8522 25.6219 27.9554 25.6209C28.0022 25.6204 28.088 25.5771 28.1457 25.5247C28.3995 25.2951 29.7596 25.0864 30.3 25.1943C30.4815 25.2306 30.792 25.29 30.99 25.3264C31.4538 25.4118 31.5162 25.4922 31.4736 25.95L31.4402 26.31L31.5288 25.9954C31.6383 25.606 31.5774 25.3995 31.3371 25.3464C31.2452 25.3261 31.0215 25.2685 30.84 25.2184C30.501 25.125 29.5334 25.0686 29.1603 25.1205ZM18.6392 25.3359C18.5021 25.4362 18.4923 30.6045 18.6276 31.56C18.7641 32.5243 19.1694 33.3292 19.6971 33.6838C20.0888 33.9469 20.4545 34.14 20.5607 34.1397C20.6208 34.1397 20.5215 34.0647 20.34 33.9732C19.7751 33.6885 19.26 33.2856 19.26 33.1282C19.26 33.1035 19.1925 32.9917 19.11 32.88C19.0275 32.7682 18.96 32.6287 18.96 32.5702C18.96 32.5116 18.8993 32.3481 18.825 32.2068C18.6507 31.8753 18.5498 25.5396 18.7164 25.395C18.8192 25.3059 19.3086 25.2958 19.5255 25.3783L19.679 25.4365L19.695 28.4533L19.7112 31.47L19.7256 28.4593C19.7384 25.7896 19.7294 25.4379 19.6457 25.3543C19.5276 25.2361 18.7938 25.2228 18.6392 25.3359ZM24.06 25.3186C23.9828 25.3675 23.9652 25.7976 23.9366 28.3627C23.9073 30.9621 23.8893 31.4007 23.7969 31.74C23.5767 32.5498 23.0159 33.1681 22.38 33.3019L22.17 33.3462L22.3869 33.3531C22.5215 33.3574 22.6617 33.3144 22.7564 33.24C22.8404 33.174 22.9374 33.12 22.9721 33.12C23.0969 33.12 23.5248 32.6029 23.6921 32.25C24.0206 31.5571 24.0273 31.485 24.0596 28.32L24.09 25.35H24.54H24.99L25.0056 28.3468C25.0205 31.2148 25.016 31.3587 24.9006 31.6921C24.8343 31.8837 24.78 32.0826 24.78 32.134C24.78 32.6248 23.9765 33.5812 23.28 33.9195C23.0325 34.0396 22.8738 34.1385 22.9275 34.1389C23.0273 34.14 23.4608 33.9151 23.8007 33.6858C24.219 33.4038 24.8294 32.5419 24.839 32.22C24.8403 32.1705 24.8952 31.9588 24.9608 31.7496C25.1066 31.2844 25.1493 25.4733 25.008 25.332C24.9222 25.2462 24.191 25.236 24.06 25.3186ZM10.0449 26.52C10.0449 27.1305 10.0538 27.3802 10.0647 27.075C10.0757 26.7697 10.0757 26.2702 10.0647 25.965C10.0538 25.6597 10.0449 25.9095 10.0449 26.52ZM11.04 26.3964C11.04 26.6788 11.0649 26.88 11.1 26.88C11.1347 26.88 11.16 26.6911 11.16 26.4336C11.16 26.188 11.133 25.9704 11.1 25.95C11.0619 25.9264 11.04 26.0893 11.04 26.3964ZM29.0928 26.0751C28.749 26.1585 28.26 26.4325 28.26 26.5417C28.26 26.575 28.1993 26.667 28.125 26.7459C28.0061 26.8725 27.99 26.9526 27.99 27.4186V27.9478L28.2335 28.2351C28.3674 28.393 28.5159 28.5342 28.5635 28.5489C28.611 28.5634 28.5668 28.4841 28.4651 28.3726C28.0595 27.9282 28.02 27.8458 28.02 27.4447C28.02 27.0819 28.1073 26.76 28.2056 26.76C28.2311 26.76 28.2681 26.7091 28.2878 26.6469C28.4477 26.1432 30.3992 25.8631 30.9212 26.269C31.0514 26.3703 31.3763 26.4546 31.4123 26.3964C31.4315 26.3653 31.3905 26.34 31.3215 26.34C31.2524 26.34 31.136 26.3017 31.0629 26.2549C30.7164 26.0332 29.6621 25.9369 29.0928 26.0751ZM8.65005 27.915C8.6613 29.1382 8.6895 29.0457 8.71395 27.7048C8.7228 27.2181 8.70975 26.8198 8.685 26.8198C8.66025 26.82 8.6445 27.3127 8.65005 27.915ZM10.7493 27.0543C10.6439 27.1194 10.6848 27.39 10.8 27.39C10.8993 27.39 10.9598 27.1357 10.8797 27.0556C10.8518 27.0277 10.7931 27.0271 10.7493 27.0543ZM26.901 27.48C26.901 27.7605 26.9114 27.8752 26.924 27.735C26.9366 27.5947 26.9366 27.3652 26.924 27.225C26.9114 27.0847 26.901 27.1995 26.901 27.48ZM26.94 28.1647C26.9399 28.5145 27.965 29.64 28.2837 29.64C28.3098 29.64 28.3997 29.694 28.4837 29.76C28.5675 29.826 28.6781 29.88 28.7292 29.88C28.7804 29.88 28.9319 29.9313 29.0661 29.994C29.2002 30.0567 29.4092 30.1392 29.5302 30.1771C29.6513 30.2151 29.7828 30.2853 29.8226 30.333C29.8623 30.3808 29.9214 30.42 29.954 30.42C30.2634 30.42 30.8241 31.2106 30.882 31.7283C30.935 32.2033 30.4758 33.0588 30.167 33.0604C30.1247 33.0606 30.009 33.1144 29.91 33.18C29.6454 33.3552 28.2956 33.3543 27.9084 33.1786C27.7646 33.1134 27.6009 33.06 27.5448 33.06C27.4886 33.06 27.3818 33.0033 27.3074 32.934C27.233 32.8647 27.159 32.821 27.1428 32.8371C27.0915 32.8885 27.4316 33.12 27.5583 33.12C27.6255 33.12 27.7328 33.1672 27.7964 33.225C28.0067 33.4156 29.6546 33.4126 30.015 33.2211C30.7667 32.8213 31.2699 31.6984 30.8745 31.303C30.8274 31.2559 30.7499 31.1241 30.7022 31.0099C30.6182 30.8088 30.3066 30.5196 30.0012 30.3592C29.9195 30.3162 29.8163 30.2448 29.772 30.2005C29.7276 30.1563 29.6462 30.1191 29.5907 30.118C29.5353 30.1171 29.355 30.0498 29.19 29.9686C29.025 29.8875 28.8309 29.8209 28.7586 29.8206C28.6863 29.8203 28.6085 29.79 28.5858 29.7532C28.5632 29.7165 28.4268 29.6343 28.283 29.5707C27.8766 29.391 27.309 28.8289 27.1106 28.41C27.0168 28.212 26.94 28.1016 26.94 28.1647ZM43.86 28.35C43.86 28.4017 43.9142 28.44 43.9874 28.44C44.0937 28.44 44.1024 28.4251 44.04 28.35C43.9989 28.3005 43.9416 28.26 43.9127 28.26C43.8837 28.26 43.86 28.3005 43.86 28.35ZM28.8 28.71C28.8776 28.7925 29.0004 28.86 29.0732 28.86C29.1458 28.86 29.2388 28.9003 29.2797 28.9495C29.3205 28.9989 29.4656 29.0688 29.6021 29.1051C29.7384 29.1414 29.8953 29.2114 29.9505 29.2608C30.0059 29.3101 30.0983 29.3413 30.1557 29.3302C30.2208 29.3176 30.1371 29.2558 29.9352 29.1673C29.7564 29.0889 29.4746 28.9606 29.3091 28.8823C29.1437 28.804 28.9778 28.74 28.9406 28.74C28.9034 28.74 28.8573 28.6995 28.8383 28.65C28.8194 28.6005 28.7712 28.56 28.7315 28.56C28.6917 28.56 28.7225 28.6275 28.8 28.71ZM9.15645 29.0149C9.09885 29.1649 9.114 29.5092 9.18 29.55C9.2172 29.5729 9.24 29.4606 9.24 29.2536C9.24 28.9095 9.21945 28.8507 9.15645 29.0149ZM30.48 29.49C30.5918 29.5725 30.717 29.64 30.7583 29.64C30.8682 29.64 31.74 30.5131 31.74 30.6232C31.74 30.6748 31.7939 30.8055 31.8599 30.9135C31.9584 31.0753 31.9796 31.216 31.9796 31.71C31.9796 32.2039 31.9584 32.3446 31.8599 32.5065C31.7939 32.6145 31.7421 32.7495 31.7448 32.8065C31.7474 32.8633 31.8146 32.775 31.8939 32.61C32.3885 31.5834 31.8431 30.1759 30.7011 29.5314C30.2943 29.3019 30.2015 29.2845 30.48 29.49ZM19.7462 31.6878C19.7244 32.245 20.6981 33.3688 21.1895 33.3538L21.39 33.3477L21.21 33.3043C20.978 33.2484 20.5283 32.9655 20.3538 32.7658C20.279 32.6802 20.1777 32.5672 20.1288 32.5149C20.0801 32.4627 20.0399 32.3817 20.0397 32.3349C20.0394 32.2882 19.9955 32.169 19.9419 32.07C19.8884 31.971 19.8237 31.809 19.7984 31.71C19.7534 31.534 19.7522 31.5334 19.7462 31.6878ZM26.8281 33.1711C26.6438 33.6766 26.6565 33.7689 26.925 33.8749C27.0488 33.9238 27.2217 34.0033 27.3093 34.0519C27.3969 34.1004 27.5184 34.1397 27.5793 34.1394C27.7052 34.1388 27.1793 33.8823 26.9186 33.8172C26.7141 33.7662 26.7459 33.4506 27.0086 32.925C27.0386 32.865 27.0386 32.82 27.0086 32.82C26.9798 32.82 26.8985 32.9779 26.8281 33.1711ZM31.2713 33.4029C31.0299 33.6433 30.7869 33.8401 30.7313 33.8404C30.6756 33.8406 30.549 33.8944 30.45 33.96C30.351 34.0255 30.216 34.0825 30.15 34.0866C30.0488 34.0927 30.0465 34.0981 30.135 34.1214C30.3818 34.1859 31.2074 33.6699 31.5605 33.2304C31.8572 32.8612 31.7522 32.9239 31.2713 33.4029ZM21.6461 33.4035C21.7539 33.4168 21.9159 33.4165 22.0061 33.4029C22.0962 33.3892 22.008 33.3783 21.81 33.3786C21.612 33.3789 21.5382 33.3901 21.6461 33.4035ZM41.46 33.9C41.46 33.9829 41.5001 34.02 41.5893 34.02C41.7149 34.02 41.7155 34.0164 41.61 33.9C41.5503 33.834 41.4921 33.78 41.4807 33.78C41.4693 33.78 41.46 33.834 41.46 33.9ZM46.98 33.93C46.9188 34.0036 46.923 34.02 47.0027 34.02C47.0562 34.02 47.1 33.9795 47.1 33.93C47.1 33.8805 47.0898 33.84 47.0774 33.84C47.0649 33.84 47.0211 33.8805 46.98 33.93ZM20.85 34.1995C21.1995 34.3144 21.9113 34.3306 22.35 34.2337L22.77 34.141L22.29 34.1772C21.6764 34.2234 21.7139 34.2234 21.15 34.1785C20.7965 34.1505 20.7174 34.156 20.85 34.1995ZM28.26 34.2393C28.7052 34.3065 29.8994 34.2606 29.987 34.173C29.9967 34.1632 29.4975 34.1568 28.8774 34.1587L27.75 34.1623L28.26 34.2393ZM48.66 36.24C48.66 36.306 48.6726 36.36 48.6879 36.36C48.7032 36.36 48.7448 36.306 48.78 36.24C48.8313 36.1441 48.8256 36.12 48.7521 36.12C48.7001 36.12 48.66 36.172 48.66 36.24Z" fill="#7C7C7C"/>
<path fill-rule="evenodd" clip-rule="evenodd" d="M10.08 23.6178C9.41295 23.7134 9.1164 23.7821 9.05595 23.8548C9.0171 23.9018 8.922 23.94 8.84475 23.94C8.4936 23.94 7.31625 24.8946 7.13865 25.3232C7.09845 25.4205 7.0428 25.5 7.01505 25.5C6.9873 25.5 6.92355 25.6385 6.8733 25.8077C6.82305 25.977 6.75045 26.1534 6.7119 26.1998C6.61215 26.3199 6.61605 27.4095 6.7167 27.5957C6.76005 27.6758 6.83295 27.9011 6.8784 28.0965C6.924 28.2918 7.00155 28.509 7.0506 28.5792C7.0998 28.6493 7.14 28.7781 7.14 28.8653C7.14 28.9524 7.19025 29.0882 7.25175 29.1669C7.31325 29.2457 7.38345 29.3775 7.40775 29.46C7.45665 29.6256 7.7187 30.2184 7.80555 30.36C7.83585 30.4095 7.8774 30.4905 7.8978 30.54C7.9182 30.5895 8.0091 30.792 8.1 30.99C8.1909 31.188 8.2812 31.3973 8.3007 31.455C8.3202 31.5128 8.3607 31.56 8.39055 31.56C8.42055 31.56 8.45985 31.6346 8.47815 31.7258C8.49645 31.817 8.56725 31.9562 8.63565 32.0351C8.70405 32.1138 8.76 32.2173 8.76 32.2649C8.76 32.3126 8.8104 32.4231 8.8722 32.5107C8.93385 32.5983 9.00465 32.7375 9.0294 32.82C9.0543 32.9025 9.102 33.0041 9.1353 33.0458C9.2145 33.1448 9.38295 33.4478 9.5313 33.7584C9.5967 33.8951 9.67725 34.0236 9.7104 34.0442C9.74355 34.0646 9.78795 34.1592 9.8088 34.2545C9.82965 34.3497 9.89775 34.4736 9.96 34.53C10.0223 34.5864 10.0904 34.7106 10.1114 34.8062C10.1324 34.9019 10.1747 34.98 10.2053 34.98C10.2359 34.98 10.3043 35.088 10.3571 35.22C10.4099 35.352 10.4861 35.46 10.5264 35.46C10.6193 35.46 10.98 35.0159 10.98 34.9016C10.98 34.8546 11.0334 34.7483 11.0988 34.6652C11.1642 34.5821 11.247 34.4502 11.283 34.3721C11.319 34.2939 11.426 34.095 11.5208 33.93C11.6156 33.765 11.748 33.522 11.8151 33.39C11.8821 33.258 11.9606 33.1095 11.9892 33.06C12.0651 32.9291 12.1884 32.6961 12.2907 32.49C12.3399 32.391 12.4014 32.2695 12.4272 32.22C12.4532 32.1705 12.6263 31.8195 12.8121 31.44C12.998 31.0605 13.1753 30.7095 13.2062 30.66C13.2371 30.6105 13.304 30.4755 13.3547 30.36C13.4055 30.2445 13.497 30.042 13.5582 29.91C13.8747 29.2272 13.98 28.9821 13.98 28.9287C13.98 28.8963 14.0187 28.7933 14.066 28.6998C14.4837 27.8747 14.6345 26.226 14.3244 25.8728C14.2748 25.8162 14.2148 25.7064 14.1911 25.6289C14.1291 25.4258 13.6362 24.72 13.5563 24.72C13.5338 24.72 13.397 24.612 13.2527 24.48C13.1082 24.348 12.9684 24.24 12.9419 24.24C12.9153 24.24 12.7943 24.1725 12.6729 24.09C12.5516 24.0075 12.4053 23.94 12.3479 23.94C12.2906 23.94 12.1416 23.8869 12.0168 23.8221C11.693 23.6538 10.6196 23.5406 10.08 23.6178ZM11.7969 23.8748C11.9328 23.9364 12.1343 24.0068 12.2447 24.0311C12.4362 24.0731 12.5 24.1077 12.9426 24.4089C13.0485 24.4811 13.1573 24.54 13.1843 24.54C13.2446 24.54 13.7858 25.1421 13.8962 25.332C14.3808 26.1653 14.5475 27.2366 14.2725 27.75C14.2194 27.849 14.1567 28.038 14.133 28.17C14.1093 28.302 14.0382 28.4942 13.9749 28.5971C13.9118 28.7 13.86 28.8269 13.86 28.8789C13.86 28.931 13.7925 29.1006 13.71 29.2557C13.6275 29.411 13.56 29.5845 13.56 29.6417C13.56 29.6987 13.5195 29.7789 13.47 29.82C13.4205 29.8611 13.38 29.9247 13.38 29.9615C13.38 29.9982 13.3158 30.1637 13.2374 30.3291C13.1588 30.4946 13.0635 30.6975 13.0254 30.78C12.9608 30.9206 12.8273 31.1736 12.7091 31.38C12.6807 31.4295 12.617 31.5645 12.5673 31.68C12.5177 31.7955 12.4506 31.9305 12.4181 31.98C12.3632 32.0639 12.3057 32.1803 12.2109 32.4C12.1896 32.4495 12.0944 32.625 11.9994 32.79C11.9045 32.955 11.7714 33.198 11.7036 33.33C11.6358 33.462 11.4605 33.786 11.3141 34.05C11.1677 34.314 10.9958 34.638 10.932 34.77C10.8684 34.902 10.7468 35.0739 10.6619 35.1519L10.5075 35.294L10.4117 35.0919C10.3589 34.9809 10.2497 34.782 10.1688 34.65C10.088 34.518 9.9669 34.302 9.9 34.17C9.83295 34.038 9.70155 33.795 9.6081 33.63C9.5145 33.465 9.3501 33.1545 9.2427 32.94C9.1353 32.7255 9.0228 32.5095 8.9925 32.46C8.96235 32.4105 8.89455 32.2755 8.84205 32.16C8.78955 32.0445 8.72805 31.9365 8.7054 31.92C8.6829 31.9035 8.595 31.7415 8.5104 31.56C8.4258 31.3785 8.27175 31.0494 8.16825 30.8288C8.06475 30.6081 7.98 30.4098 7.98 30.3882C7.98 30.3666 7.926 30.2804 7.86 30.1964C7.794 30.1125 7.74 29.991 7.74 29.9264C7.74 29.8619 7.686 29.7404 7.62 29.6564C7.554 29.5725 7.5 29.4639 7.5 29.4152C7.5 29.3663 7.4484 29.2281 7.3854 29.1081C7.32225 28.9883 7.2309 28.7685 7.1823 28.62C7.13355 28.4715 7.0659 28.269 7.0317 28.17C6.96585 27.9791 6.87405 27.635 6.7626 27.161C6.7059 26.9201 6.71235 26.8103 6.80085 26.501C6.8592 26.297 6.92295 26.0492 6.94245 25.9505C6.96195 25.8518 7.02375 25.7033 7.08 25.6205C7.1361 25.5377 7.2738 25.329 7.386 25.1565C7.4982 24.9842 7.62375 24.8424 7.665 24.8415C7.70625 24.8408 7.74 24.8154 7.74 24.7853C7.74 24.722 8.4288 24.24 8.51925 24.24C8.5527 24.24 8.58 24.2151 8.58 24.1845C8.58 24.1541 8.70825 24.0887 8.865 24.0392C9.02175 23.9897 9.258 23.9079 9.39 23.8572C9.76905 23.712 11.4657 23.7243 11.7969 23.8748ZM9.69 24.66C9.558 24.7238 9.41295 24.7769 9.3678 24.7779C9.07125 24.7853 8.32995 25.4451 8.004 25.9919C7.62885 26.6211 7.5594 27.8733 7.875 28.3185C7.93275 28.4001 7.98 28.5026 7.98 28.5464C7.98 28.6769 8.41815 29.0474 8.47215 28.9625C8.4975 28.9226 8.51865 28.419 8.5191 27.8433L8.52 26.7966L8.68125 26.6283C9.0918 26.1996 9.6594 26.4785 9.6609 27.1094C9.66195 27.5712 9.7413 27.7787 9.8016 27.4773C9.82275 27.3716 9.84 26.8821 9.84 26.3895C9.84 25.2048 9.87495 25.1273 10.397 25.1522L10.7681 25.17L10.7496 25.4235C10.7234 25.7817 10.7541 25.8041 11.1272 25.698C11.7039 25.5339 11.76 25.5824 11.76 26.2439C11.76 26.8913 11.7809 26.924 12.2115 26.9511L12.51 26.97L12.4874 27.974C12.4622 29.0856 12.4914 29.1693 12.8325 28.9638C13.4576 28.5872 13.7205 26.6583 13.2236 26.0954C13.1777 26.0432 13.14 25.9688 13.14 25.9298C13.14 25.8908 13.0658 25.7781 12.975 25.6794C12.8843 25.5806 12.7796 25.4661 12.7424 25.4249C12.0746 24.6855 10.4697 24.2834 9.69 24.66ZM11.4603 24.7979C12.1479 25.0307 12.807 25.5605 13.05 26.0754C13.083 26.1453 13.1411 26.2403 13.1792 26.2863C13.3997 26.5536 13.394 27.9947 13.1712 28.26C13.1297 28.3095 13.0697 28.431 13.0379 28.53C12.8645 29.0699 12.72 28.6935 12.72 27.7022C12.72 26.9342 12.6657 26.82 12.3003 26.82C12.0177 26.82 11.94 26.6666 11.94 26.1092C11.94 25.601 11.8988 25.56 11.388 25.56C10.9859 25.56 10.98 25.5578 10.98 25.3997C10.98 25.1135 10.8303 25.02 10.3715 25.02H9.9615L9.81075 25.2588C9.6867 25.4553 9.66 25.5723 9.66 25.9188C9.66 26.2121 9.6372 26.3421 9.585 26.3469C9.54375 26.3507 9.3405 26.3483 9.1332 26.3414C8.76735 26.3292 8.75025 26.3355 8.5482 26.5562L8.34 26.7834V27.6068C8.34 28.0596 8.32365 28.4729 8.30355 28.5251C8.24565 28.676 8.10585 28.6353 8.0631 28.455C8.0415 28.3643 7.9803 28.2401 7.9269 28.1789C7.74315 27.9681 7.755 26.7878 7.94505 26.3861C8.03025 26.2059 8.1 26.0408 8.1 26.0192C8.1 25.9233 8.78055 25.2276 8.9817 25.1178C9.8574 24.6401 10.6806 24.5337 11.4603 24.7979ZM29.07 25.0113C28.7106 25.05 28.2608 25.26 28.5375 25.26C28.6058 25.26 28.7535 25.2131 28.8659 25.1558C29.1492 25.0112 30.4593 25.0146 30.8024 25.161C31.1231 25.2977 31.2773 25.2878 31.05 25.145C30.8465 25.017 29.7222 24.9413 29.07 25.0113ZM36.8918 25.0715C36.7388 25.0949 36.5768 25.1432 36.5318 25.1787C36.4868 25.2143 36.3195 25.2605 36.1599 25.2813C36.0003 25.3022 35.7978 25.3679 35.7099 25.4276C35.622 25.4871 35.4825 25.5696 35.4 25.611C34.8332 25.8951 34.2959 26.3376 34.005 26.76C33.5784 27.3797 33.3392 27.8559 33.2754 28.2125C33.2535 28.3349 33.1962 28.5104 33.1482 28.6025C33.0279 28.833 33.0242 30.5448 33.1431 30.9129C33.1889 31.0544 33.2553 31.2915 33.291 31.44C33.3266 31.5885 33.4107 31.817 33.4779 31.9478C33.5451 32.0784 33.6 32.216 33.6 32.2535C33.6 32.2908 33.654 32.3703 33.72 32.43C33.786 32.4897 33.84 32.5673 33.84 32.6022C33.84 32.6673 33.8966 32.7326 34.3145 33.15C34.6719 33.507 34.8614 33.66 34.9458 33.66C34.9874 33.66 35.069 33.7125 35.1269 33.7766C35.1849 33.8408 35.3171 33.9117 35.4204 33.9345C35.5238 33.9572 35.6627 34.0112 35.7291 34.0545C35.7956 34.0979 36.012 34.1595 36.21 34.1916C36.408 34.2237 36.6461 34.2792 36.7389 34.3149C37.3563 34.5527 39.6441 34.206 39.837 33.8456C39.8984 33.731 39.7835 33.1595 39.6779 33.0539C39.599 32.975 38.913 33.0794 38.7776 33.191C38.6439 33.3009 36.9524 33.2846 36.78 33.1718C36.6975 33.1178 36.5279 33.0555 36.4032 33.0336C35.9519 32.9546 35.2196 32.3772 34.9764 31.9091C34.9134 31.7876 34.8365 31.6725 34.8054 31.6535C34.7745 31.6343 34.731 31.5312 34.7088 31.4243C34.6865 31.3175 34.6236 31.1625 34.5692 31.08C34.4234 30.8594 34.4217 28.6584 34.5672 28.4366C34.6206 28.355 34.6839 28.1988 34.7079 28.0896C34.757 27.8661 34.9431 27.5385 35.145 27.3204C35.2193 27.2402 35.28 27.1644 35.28 27.152C35.28 27.0951 35.6534 26.7639 35.753 26.7323C35.8142 26.7129 35.9124 26.6436 35.9714 26.5785C36.0303 26.5133 36.1352 26.4599 36.2043 26.4599C36.2735 26.4597 36.4245 26.399 36.54 26.3249C36.8178 26.1465 38.696 26.1186 39.06 26.2874C39.359 26.426 39.6465 26.4704 39.6987 26.3859C39.78 26.2544 39.8907 25.4712 39.8361 25.4144C39.5873 25.1552 37.7466 24.9407 36.8918 25.0715ZM18.516 25.206L18.356 25.332L18.3729 28.401C18.3855 30.6539 18.4092 31.502 18.462 31.59C18.5016 31.656 18.5618 31.8837 18.596 32.096C18.6552 32.465 18.7373 32.6427 18.8135 32.5667C18.833 32.5472 18.8091 32.4543 18.7605 32.3603C18.5421 31.938 18.48 31.0047 18.48 28.1456C18.48 24.959 18.4098 25.2474 19.179 25.2726L19.71 25.29L19.7468 28.44C19.7825 31.5102 19.7951 31.7222 19.9601 32.0384C20.0037 32.1218 20.0394 32.2224 20.0397 32.2619C20.0399 32.3015 20.1075 32.4066 20.19 32.4957C20.2725 32.5847 20.34 32.6228 20.34 32.5805C20.34 32.538 20.2986 32.4731 20.2481 32.436C20.1975 32.3991 20.114 32.2071 20.0624 32.0094C20.0108 31.8117 19.9373 31.6308 19.8993 31.6073C19.8488 31.5761 19.8249 30.7157 19.8113 28.4312C19.7999 26.5571 19.769 25.254 19.734 25.1889C19.6425 25.0179 18.7391 25.0307 18.516 25.206ZM24.024 25.1259C23.8334 25.2533 23.82 25.4456 23.8188 28.0911C23.8179 30.1443 23.798 30.8594 23.7309 31.23C23.6016 31.9458 23.627 32.1624 23.7767 31.62C23.8917 31.2029 23.9033 30.9555 23.9354 28.23L23.97 25.29L24.4859 25.2728C25.1979 25.2491 25.1363 24.9735 25.155 28.2654L25.1712 31.11L25.1856 28.2284C25.2026 24.8247 25.254 25.0796 24.5516 25.0809C24.2978 25.0814 24.0603 25.1016 24.024 25.1259ZM38.63 25.2542C38.883 25.3169 39.2195 25.3863 39.3777 25.4082L39.6656 25.4483L39.6477 25.8191C39.6272 26.2488 39.7179 26.2244 38.73 26.0672C37.8912 25.9337 36.6249 26.0148 36.3474 26.2199C36.258 26.286 36.1365 26.3403 36.0774 26.3408C35.7563 26.3432 34.6976 27.4757 34.5921 27.9294C34.5693 28.0281 34.5225 28.1262 34.4882 28.1474C34.2239 28.3107 34.2173 31.1304 34.4808 31.3121C34.5111 31.3329 34.5693 31.4648 34.6104 31.605C34.6514 31.7453 34.7121 31.86 34.7456 31.86C34.7789 31.86 34.8347 31.9416 34.8695 32.0412C34.9043 32.141 34.9838 32.2499 35.0463 32.2835C35.1089 32.3169 35.16 32.3838 35.16 32.4321C35.16 32.4804 35.181 32.52 35.2067 32.52C35.2323 32.52 35.3369 32.5943 35.439 32.685C35.6912 32.9088 35.988 33.0761 36.237 33.1346C36.3509 33.1613 36.4955 33.2297 36.5583 33.2865C36.7583 33.4674 38.8908 33.4373 39.1929 33.2493C39.4401 33.0956 39.66 33.1178 39.66 33.2966C39.66 33.3563 39.6761 33.4853 39.6957 33.5832C39.753 33.8702 39.4367 34.0187 38.61 34.0931C37.6254 34.1814 36.1971 34.1151 36.0023 33.9717C35.9186 33.9102 35.7449 33.8429 35.6165 33.8223C35.4879 33.8016 35.3241 33.7298 35.2526 33.6624C35.1809 33.5951 35.102 33.54 35.0772 33.54C35.0262 33.54 34.6461 33.261 34.4945 33.1125C34.4397 33.059 34.3713 33.0048 34.3425 32.9925C34.2822 32.9667 33.9512 32.4818 33.887 32.325C33.8633 32.2673 33.8181 32.22 33.7868 32.22C33.7553 32.22 33.711 32.1323 33.6884 32.025C33.6656 31.9178 33.5988 31.749 33.54 31.65C33.4811 31.551 33.4043 31.2524 33.3692 30.9863C33.3342 30.7202 33.2774 30.4283 33.2429 30.3374C33.1637 30.1293 33.1607 29.3084 33.2384 29.163C33.2705 29.103 33.3251 28.8551 33.3599 28.6121C33.3945 28.3689 33.4736 28.062 33.5357 27.93C33.5976 27.798 33.6794 27.6225 33.7173 27.54C33.9246 27.0888 34.0695 26.8955 34.53 26.4549C34.695 26.2971 34.8869 26.1122 34.9563 26.0439C35.0258 25.9758 35.1123 25.92 35.1486 25.92C35.1849 25.92 35.3142 25.8525 35.4357 25.77C35.5574 25.6875 35.6916 25.62 35.7341 25.62C35.7767 25.62 35.8523 25.5792 35.9022 25.5293C35.9535 25.478 36.2028 25.4102 36.4737 25.3737C36.7382 25.3382 37.0704 25.2728 37.2122 25.2285C37.5816 25.1132 38.0997 25.1226 38.63 25.2542ZM41.537 25.2422C41.3064 25.2867 41.04 25.6884 41.04 25.9914C41.04 26.8118 42.1551 26.9747 42.5445 26.2112L42.6657 25.9736L42.5141 25.6532C42.321 25.2452 42.069 25.1391 41.537 25.2422ZM28.065 25.3014C28.0073 25.3164 27.96 25.3673 27.96 25.4144C27.96 25.4615 27.9149 25.5 27.8597 25.5C27.7577 25.5 27.12 26.1105 27.12 26.2082C27.12 26.2374 27.0672 26.3093 27.0027 26.3676C26.9358 26.4281 26.868 26.5937 26.8451 26.7519C26.823 26.9049 26.7788 27.0629 26.7468 27.1031C26.6253 27.2555 26.8251 28.4639 27.0032 28.6533C27.0674 28.7217 27.12 28.8063 27.12 28.8413C27.12 28.9319 27.9924 29.7 28.0953 29.7C28.1226 29.7 28.2215 29.7566 28.3151 29.8259C28.4087 29.895 28.5338 29.9423 28.593 29.9309C28.6662 29.9166 28.5966 29.8562 28.3754 29.7414C27.7514 29.4182 27.2219 28.9289 26.9994 28.47C26.8319 28.1246 26.789 26.9904 26.9325 26.7C27.1346 26.291 27.2327 26.1495 27.4982 25.8851C27.7857 25.5986 27.8903 25.5227 28.23 25.3541C28.4108 25.2644 28.319 25.235 28.065 25.3014ZM31.4229 25.3485C31.6416 25.4436 31.7396 25.691 31.6289 25.8683C31.5909 25.9289 31.5605 26.0261 31.5611 26.0843C31.5617 26.1573 31.601 26.1293 31.6875 25.9941C31.9127 25.6425 31.7444 25.256 31.3689 25.2624C31.248 25.2644 31.2551 25.2756 31.4229 25.3485ZM42.141 25.4366C42.3152 25.5029 42.3701 25.6428 42.3701 26.0217C42.3701 26.5487 41.8452 26.7564 41.4315 26.3933C40.8581 25.8899 41.4024 25.1558 42.141 25.4366ZM45.33 25.9373C45.264 25.9773 45.0615 26.0505 44.88 26.1002L44.55 26.1903L44.52 26.9402L44.49 27.69L44.0726 27.708C43.5596 27.7302 43.5 27.7758 43.5 28.1474C43.5 28.554 43.634 28.68 44.0664 28.68C44.5089 28.68 44.4861 28.5686 44.5205 30.9C44.5473 32.7201 44.5635 32.9918 44.6552 33.15C44.7125 33.249 44.7594 33.3743 44.7597 33.4283C44.7599 33.4823 44.8883 33.6623 45.045 33.8283C45.7916 34.6194 47.5245 34.5459 47.4204 33.7277C47.3703 33.3342 47.3114 33.2939 46.7637 33.2784C45.8846 33.2537 45.8435 33.1368 45.8415 30.6543C45.8397 28.5065 45.7616 28.68 46.7312 28.68C47.4938 28.68 47.52 28.6613 47.52 28.1181C47.52 27.7448 47.469 27.72 46.703 27.72C45.7694 27.72 45.84 27.7911 45.84 26.8509C45.84 26.286 45.8183 26.0373 45.765 25.9947C45.63 25.8867 45.4523 25.8633 45.33 25.9373ZM29.25 26.1579C29.0831 26.1893 29.2457 26.2056 29.7851 26.2115C30.2112 26.2161 30.5487 26.2098 30.5351 26.1972C30.4796 26.1467 29.474 26.1159 29.25 26.1579ZM45.6 26.9384C45.6369 27.8601 45.6114 27.8379 46.635 27.8391L47.34 27.84V28.14C47.34 28.305 47.3333 28.4432 47.325 28.4471C47.3168 28.4508 46.967 28.4712 46.5477 28.4924C45.54 28.5429 45.6333 28.3401 45.6125 30.5258C45.588 33.0924 45.6845 33.3593 46.6577 33.4185L47.1756 33.45L47.1828 33.7493C47.1911 34.0943 47.1429 34.1201 46.47 34.1324C45.6219 34.1478 45.4653 34.0871 44.9931 33.5585C44.789 33.33 44.7 32.3858 44.7 30.4497C44.7 28.3881 44.7434 28.5449 44.16 28.5L43.77 28.47L43.7519 28.155L43.7337 27.84H44.0835C44.6423 27.84 44.7 27.7698 44.7 27.0905C44.7 26.3579 44.7474 26.2349 45.042 26.2026C45.6006 26.1416 45.5663 26.0961 45.6 26.9384ZM28.6073 26.3874C27.8987 26.9048 27.87 27.8948 28.5494 28.3859C28.6592 28.4652 28.7942 28.5741 28.8494 28.628C28.9047 28.682 29.036 28.7444 29.1408 28.7669C29.2458 28.7894 29.3625 28.8447 29.4 28.89C29.4375 28.9353 29.5542 28.9905 29.6592 29.0126C29.7641 29.0348 29.931 29.1009 30.03 29.1597C30.129 29.2184 30.2775 29.2862 30.36 29.3103C30.4425 29.3345 30.5574 29.3958 30.6153 29.4468C30.6734 29.4977 30.7353 29.5247 30.7532 29.5068C30.8111 29.4489 30.5903 29.2751 30.4142 29.2398C30.3198 29.2209 30.2117 29.1681 30.1736 29.1222C30.1356 29.0765 30.0012 29.0225 29.8749 29.0022C29.7488 28.9821 29.5997 28.9148 29.5434 28.8528C29.4873 28.7907 29.3802 28.74 29.3054 28.74C29.2305 28.74 29.0891 28.6725 28.991 28.59C28.8929 28.5075 28.7858 28.44 28.7528 28.44C28.6616 28.44 28.3203 28.103 28.3181 28.011C28.317 27.9665 28.2765 27.8777 28.2281 27.8136C28.1274 27.6804 28.1069 27.0876 28.2009 27.0294C28.2344 27.0087 28.301 26.8982 28.3488 26.7837C28.4064 26.6459 28.5038 26.5473 28.6376 26.4914C28.8696 26.3943 29.0495 26.2184 28.9124 26.2224C28.8671 26.2238 28.7298 26.298 28.6073 26.3874ZM30.7029 26.3349C30.9813 26.5673 31.5635 26.5562 31.556 26.3186C31.5519 26.1908 31.5515 26.1908 31.4868 26.325C31.4061 26.4923 31.232 26.4974 30.9735 26.3399C30.7107 26.1795 30.5124 26.1759 30.7029 26.3349ZM11.8791 28.305C11.8779 29.1605 11.8721 29.1723 11.4543 29.1485L11.13 29.13L11.1129 28.485L11.096 27.84H10.8279H10.56V28.1657C10.56 28.4772 10.4637 28.68 10.3157 28.68C10.2851 28.68 10.26 28.734 10.26 28.8C10.26 28.9022 10.22 28.92 9.99 28.92H9.72V29.34V29.76H10.583C11.3955 29.76 11.4479 29.753 11.4774 29.64C11.4995 29.5554 11.5593 29.52 11.6796 29.52C12.0705 29.52 12.18 29.2716 12.18 28.3854V27.6H12.03H11.88L11.8791 28.305ZM41.232 27.792C41.109 27.915 41.1305 33.9819 41.2544 34.1057C41.4062 34.2576 42.3342 34.2402 42.4179 34.0839C42.485 33.9587 42.5094 27.9864 42.4436 27.815C42.3975 27.6948 41.349 27.675 41.232 27.792ZM48.0122 27.7955C47.9637 27.8537 47.9687 27.9138 48.0306 28.0224C48.1727 28.2713 48.24 28.4429 48.24 28.5558C48.24 28.6152 48.294 28.7325 48.36 28.8164C48.426 28.9004 48.48 29.0189 48.48 29.0799C48.48 29.141 48.5475 29.3178 48.63 29.4728C48.7125 29.6277 48.78 29.8038 48.78 29.864C48.78 29.9241 48.8166 30.0266 48.8615 30.0917C48.9063 30.1568 48.9768 30.318 49.0182 30.45C49.0595 30.582 49.1256 30.744 49.1651 30.81C49.2045 30.876 49.272 31.0512 49.3152 31.1996C49.3583 31.3478 49.431 31.5225 49.4768 31.5879C49.5225 31.6532 49.56 31.7532 49.56 31.8102C49.56 31.8671 49.6275 32.0406 49.71 32.1957C49.7925 32.351 49.86 32.538 49.86 32.6117C49.86 32.6852 49.8987 32.7776 49.9461 32.8169C49.9935 32.8562 50.0505 32.9742 50.0726 33.0792C50.0948 33.1841 50.1641 33.3542 50.2265 33.4571C50.3492 33.6593 50.3853 34.2249 50.2799 34.2902C50.2467 34.3106 50.1651 34.4472 50.0984 34.5936C50.0316 34.7402 49.9508 34.86 49.9185 34.86C49.8864 34.86 49.86 34.8902 49.86 34.9271C49.86 35.0027 49.4198 35.46 49.3472 35.46C49.3212 35.46 49.2573 35.5011 49.2051 35.5515C49.0683 35.6832 48.6929 35.9216 48.5516 35.9663C48.3305 36.0365 48.2877 36.1452 48.3815 36.3987C48.4286 36.5259 48.4907 36.7224 48.5195 36.8354C48.5867 37.0989 48.8163 37.1924 49.0629 37.0565C49.1549 37.0058 49.3217 36.9209 49.4337 36.8678C49.5458 36.8145 49.6713 36.7394 49.7126 36.7005C49.754 36.6618 49.9052 36.5375 50.0489 36.4244C50.1924 36.3113 50.4045 36.101 50.52 35.957C50.6355 35.8128 50.7705 35.6481 50.82 35.5907C50.8695 35.5332 50.9579 35.3927 51.0162 35.2782C51.0747 35.1636 51.1881 34.962 51.2682 34.83C51.4517 34.5276 51.54 34.3341 51.54 34.2342C51.54 34.1913 51.5901 34.0919 51.6513 34.0131C51.7125 33.9344 51.7812 33.7688 51.804 33.645C51.8268 33.5213 51.8702 33.42 51.9005 33.42C51.9306 33.42 51.9942 33.2918 52.0416 33.135C52.089 32.9783 52.1709 32.769 52.2236 32.67C52.2762 32.571 52.3194 32.4525 52.3197 32.4066C52.3199 32.3607 52.3704 32.2122 52.4322 32.0766C52.6226 31.658 52.8092 31.1787 52.8567 30.9866C52.8818 30.8856 52.944 30.7371 52.9952 30.6566C53.0463 30.5759 53.106 30.425 53.1276 30.3209C53.1492 30.2169 53.2194 30.0288 53.2835 29.9031C53.3475 29.7774 53.4 29.6324 53.4 29.5806C53.4 29.529 53.4447 29.423 53.4993 29.345C53.5539 29.267 53.6216 29.0807 53.6495 28.9311C53.6774 28.7816 53.7407 28.6145 53.7902 28.5599C53.8395 28.5053 53.8812 28.4222 53.8827 28.3754C53.8841 28.3284 53.9208 28.1904 53.9643 28.0686C54.0753 27.7578 54.0101 27.72 53.364 27.72H52.8119L52.6923 27.9227C52.6266 28.034 52.5536 28.2162 52.5299 28.3277C52.5063 28.439 52.4403 28.6515 52.3835 28.8C52.2197 29.2269 52.0148 29.8362 51.9798 30C51.9623 30.0825 51.8831 30.3167 51.8039 30.5202C51.7248 30.7239 51.66 30.9413 51.66 31.0032C51.66 31.0653 51.6282 31.1478 51.5895 31.1865C51.5507 31.2254 51.4724 31.4265 51.4154 31.6335C51.1478 32.6064 51.0641 32.7119 50.9501 32.22C50.8652 31.8533 50.7155 31.4027 50.5758 31.0934C50.5122 30.9522 50.46 30.7997 50.46 30.7544C50.46 30.7091 50.3928 30.5276 50.3106 30.351C50.2284 30.1745 50.1609 29.9726 50.1606 29.9024C50.1603 29.8322 50.1225 29.7435 50.0766 29.7056C50.0309 29.6675 49.9616 29.5089 49.9227 29.3532C49.884 29.1975 49.8176 29.016 49.7751 28.95C49.7328 28.884 49.6781 28.722 49.6538 28.59C49.6293 28.458 49.578 28.3125 49.5396 28.2666C49.5014 28.2206 49.4423 28.0856 49.4082 27.9666L49.3464 27.75L48.7122 27.7331C48.2429 27.7206 48.0608 27.7368 48.0122 27.7955ZM42.3456 30.945L42.33 34.05H41.85C41.4309 34.05 41.3706 34.0367 41.375 33.945C41.3778 33.8873 41.3846 32.49 41.39 30.84L41.4 27.84H41.8806H42.3611L42.3456 30.945ZM49.26 27.981C49.26 28.0587 49.3275 28.2491 49.41 28.4043C49.4925 28.5594 49.56 28.7561 49.56 28.8411C49.56 28.9262 49.6112 29.0801 49.6736 29.183C49.736 29.2859 49.8065 29.4645 49.8302 29.58C49.854 29.6955 49.9071 29.8305 49.9482 29.88C49.9895 29.9295 50.0559 30.105 50.0961 30.27C50.1362 30.435 50.2038 30.6105 50.2464 30.66C50.289 30.7095 50.3397 30.8546 50.3594 30.9825C50.3789 31.1103 50.4353 31.2596 50.4846 31.314C50.534 31.3686 50.5925 31.5339 50.6148 31.6815C50.637 31.8293 50.7059 32.0342 50.7677 32.1371C50.8295 32.24 50.88 32.3901 50.88 32.4707C50.88 32.8434 51.1914 32.9277 51.2622 32.5742C51.2838 32.4662 51.344 32.331 51.3959 32.2736C51.4478 32.2163 51.5048 32.0525 51.5226 31.9097C51.5405 31.7669 51.6029 31.569 51.6612 31.47C51.7196 31.371 51.7866 31.1685 51.8102 31.02C51.8337 30.8715 51.893 30.7049 51.9416 30.6497C51.9903 30.5945 52.0448 30.4325 52.0626 30.2897C52.0805 30.1469 52.1429 29.949 52.2012 29.85C52.2596 29.751 52.3269 29.55 52.3509 29.4035C52.3749 29.2569 52.4285 29.103 52.47 29.0615C52.5116 29.0199 52.5648 28.8575 52.5884 28.7004C52.6119 28.5434 52.6827 28.3493 52.7456 28.2693C52.8086 28.1894 52.86 28.0599 52.86 27.9819C52.86 27.8439 52.8741 27.84 53.3637 27.84H53.8674L53.8226 28.0385C53.798 28.1477 53.736 28.3029 53.6849 28.3835C53.6337 28.4642 53.5727 28.6245 53.5493 28.74C53.5259 28.8555 53.4692 28.9926 53.4234 29.0445C53.3777 29.0966 53.3171 29.2635 53.2887 29.4153C53.2604 29.5673 53.196 29.7326 53.1458 29.7828C53.0957 29.8331 53.0361 29.9969 53.0136 30.147C52.9911 30.2972 52.9517 30.42 52.926 30.42C52.8548 30.42 52.74 30.7059 52.74 30.8831C52.74 30.9698 52.6971 31.088 52.6446 31.146C52.5921 31.2039 52.5231 31.3677 52.4912 31.5098C52.4592 31.652 52.3971 31.8092 52.3532 31.8591C52.3094 31.9091 52.254 32.0445 52.2302 32.16C52.2065 32.2755 52.1393 32.451 52.0809 32.55C52.0224 32.649 51.9572 32.8286 51.9357 32.949C51.9143 33.0695 51.8577 33.2004 51.81 33.24C51.7623 33.2796 51.705 33.4106 51.683 33.531C51.6608 33.6515 51.5925 33.8144 51.5313 33.8931C51.4701 33.9719 51.42 34.0829 51.42 34.14C51.42 34.1972 51.366 34.3125 51.3 34.3964C51.234 34.4804 51.18 34.5867 51.18 34.6328C51.18 34.679 51.1125 34.8083 51.03 34.92C50.9475 35.0318 50.88 35.1719 50.88 35.2311C50.88 35.2905 50.826 35.3727 50.76 35.414C50.694 35.4552 50.64 35.5164 50.64 35.55C50.64 35.5836 50.4173 35.8221 50.145 36.0801C49.4706 36.719 49.4949 36.7004 49.271 36.7485C49.1615 36.7721 49.0574 36.8292 49.0395 36.8757C48.9347 37.1489 48.6731 36.9639 48.6041 36.5678C48.5318 36.153 48.5495 36.06 48.7002 36.06C48.8222 36.06 49.3643 35.7077 49.4048 35.6021C49.422 35.5569 49.4667 35.52 49.5041 35.52C49.5762 35.52 49.92 35.1767 49.92 35.1045C49.92 35.081 49.9875 35.003 50.07 34.9313C50.1525 34.8596 50.22 34.7643 50.22 34.7198C50.22 34.6751 50.274 34.5897 50.34 34.53C50.513 34.3734 50.5176 33.4908 50.3463 33.3357C50.2838 33.279 50.2149 33.1151 50.1933 32.9714C50.1717 32.8275 50.1147 32.6771 50.0666 32.6372C50.0184 32.5971 49.9623 32.4602 49.9419 32.3327C49.9215 32.2052 49.8542 32.0426 49.7924 31.9713C49.7306 31.8999 49.68 31.7796 49.68 31.7037C49.68 31.5441 49.562 31.26 49.4957 31.26C49.4709 31.26 49.4318 31.1453 49.409 31.005C49.386 30.8648 49.3197 30.696 49.2617 30.63C49.2035 30.564 49.14 30.4055 49.1205 30.2775C49.101 30.1497 49.0439 29.9994 48.9933 29.9436C48.9428 29.8878 48.884 29.7494 48.8625 29.6361C48.8411 29.5227 48.7893 29.3895 48.7473 29.34C48.7055 29.2905 48.6392 29.1285 48.6 28.98C48.5609 28.8315 48.4943 28.6695 48.452 28.62C48.4098 28.5705 48.3572 28.4297 48.3353 28.307C48.3132 28.1843 48.2559 28.0445 48.2076 27.9962C48.0626 27.8513 48.0972 27.84 48.69 27.84C49.2483 27.84 49.26 27.8429 49.26 27.981ZM31.124 29.7585C32.3072 30.7007 32.4315 32.4435 31.3884 33.4641C31.0154 33.8291 30.93 33.9 30.8642 33.9C30.8334 33.9 30.7055 33.9551 30.5799 34.0224C29.6997 34.4942 27.7959 34.4046 26.76 33.8427C26.6289 33.7716 26.658 33.4404 26.8262 33.09C26.9876 32.7534 27.0953 32.7026 27.2897 32.871C27.3629 32.9345 27.542 33.0165 27.6878 33.0533C27.8336 33.0899 27.9696 33.147 27.99 33.18C28.0365 33.2553 28.32 33.2595 28.32 33.185C28.32 33.1547 28.1423 33.0893 27.9251 33.0398C27.7079 32.9901 27.4802 32.9043 27.419 32.8491C27.2499 32.6961 26.9315 32.7014 26.8511 32.8586C26.8149 32.9294 26.7518 33.0278 26.7107 33.0773C26.504 33.3263 26.5703 33.96 26.8029 33.96C26.8514 33.96 26.958 34.0127 27.0398 34.077C27.1215 34.1414 27.3149 34.2108 27.4692 34.2315C27.6237 34.2522 27.8519 34.3076 27.9762 34.3547C28.2825 34.4702 29.582 34.4726 29.808 34.3578C29.8971 34.3127 30.0963 34.2572 30.2508 34.2348C30.4052 34.2123 30.5985 34.1414 30.6803 34.077C30.762 34.0127 30.8652 33.9599 30.9095 33.9596C31.0401 33.9588 31.7276 33.2882 31.8315 33.06C31.8842 32.9445 31.9628 32.7873 32.0063 32.7108C32.2005 32.3687 32.1576 30.7772 31.95 30.6234C31.9005 30.5868 31.86 30.5105 31.86 30.4539C31.86 30.3297 31.0392 29.52 30.9134 29.52C30.8643 29.52 30.9591 29.6274 31.124 29.7585ZM28.89 30.0539C28.989 30.1229 29.1623 30.1968 29.2749 30.2183C29.3876 30.2396 29.5737 30.3207 29.6883 30.3986C29.8029 30.4764 29.9336 30.54 29.9784 30.54C30.0233 30.54 30.06 30.5676 30.06 30.6015C30.06 30.6353 30.1275 30.6887 30.21 30.72C30.2925 30.7514 30.36 30.8072 30.36 30.8439C30.36 30.8807 30.4118 30.9557 30.4751 31.0104C30.9627 31.4328 30.5973 32.999 30.0108 33.0002C29.9553 33.0003 29.8232 33.0534 29.7171 33.1181C29.5722 33.2064 29.3859 33.2412 28.9671 33.258C28.4787 33.2778 28.4936 33.2798 29.0876 33.2748C29.4992 33.2712 29.7818 33.2436 29.8076 33.2043C29.831 33.1688 29.9412 33.1085 30.0527 33.0702C30.4715 32.927 30.8385 32.3435 30.8394 31.82C30.8408 31.1277 30.2766 30.5051 29.31 30.1314C28.7762 29.925 28.6799 29.9073 28.89 30.0539ZM25.0914 31.41C25.0611 31.787 24.6312 32.883 24.42 33.1217C24.3705 33.1776 24.249 33.321 24.15 33.4404C24.051 33.5598 23.9354 33.6581 23.8931 33.6587C23.8509 33.6594 23.8017 33.6981 23.7839 33.7445C23.766 33.791 23.6655 33.863 23.5607 33.9044C23.4558 33.9459 23.3295 34.0125 23.28 34.0526C22.8339 34.413 20.6157 34.4081 20.2154 34.0458C20.1633 33.9986 20.0927 33.96 20.0586 33.96C20.0055 33.96 19.7151 33.7571 19.455 33.5384C19.4003 33.4923 19.38 33.4998 19.38 33.5666C19.38 33.6167 19.4475 33.6747 19.53 33.6954C19.6125 33.7161 19.68 33.7688 19.68 33.8124C19.68 33.8562 19.7408 33.911 19.815 33.9342C19.8893 33.9575 20.0127 34.0254 20.0892 34.0853C20.1659 34.145 20.3472 34.2117 20.4923 34.2335C20.6375 34.2552 20.7873 34.3106 20.8254 34.3565C20.9226 34.4736 22.3176 34.4747 22.548 34.3578C22.6371 34.3127 22.8363 34.2572 22.9908 34.2348C23.1452 34.2123 23.3385 34.1414 23.4203 34.077C23.502 34.0127 23.6145 33.96 23.6702 33.96C23.7257 33.96 23.7854 33.906 23.8026 33.84C23.8199 33.774 23.8674 33.72 23.9081 33.72C23.9966 33.72 24.36 33.3836 24.36 33.3017C24.36 33.27 24.414 33.2153 24.48 33.18C24.546 33.1448 24.6 33.0798 24.6 33.036C24.6 32.9921 24.6543 32.8872 24.7206 32.8029C24.7868 32.7188 24.8588 32.5598 24.8802 32.4498C24.9018 32.34 24.9708 32.1509 25.0334 32.0295C25.1103 31.8807 25.1399 31.7249 25.1241 31.5495C25.1114 31.4069 25.0967 31.344 25.0914 31.41ZM23.4972 32.1915C23.4437 32.2449 23.4 32.3181 23.4 32.3543C23.4 32.3904 23.3528 32.471 23.295 32.5334C22.9875 32.8653 22.8699 32.9606 22.665 33.0428C22.5413 33.0924 22.44 33.1571 22.44 33.1865C22.44 33.2723 22.5986 33.2481 22.68 33.15C22.7211 33.1005 22.7948 33.06 22.8438 33.06C22.9371 33.06 23.4582 32.5307 23.4594 32.4347C23.4597 32.4044 23.5049 32.33 23.5596 32.2694C23.6852 32.1308 23.6285 32.0601 23.4972 32.1915ZM18.8448 32.7404C18.8421 32.8121 18.9029 32.9471 18.9798 33.0404C19.0566 33.1337 19.1369 33.2573 19.1579 33.315C19.179 33.3728 19.2444 33.4193 19.3031 33.4182C19.3989 33.4166 19.3998 33.4104 19.3128 33.3596C19.2594 33.3284 19.1819 33.2213 19.1406 33.1214C19.0992 33.0216 19.044 32.94 19.0178 32.94C18.9915 32.94 18.9429 32.8658 18.9098 32.775C18.8573 32.6312 18.8489 32.6267 18.8448 32.7404ZM20.4557 32.8313C20.5992 32.9681 20.8287 33.1098 21.1175 33.24C21.2651 33.3066 22.3065 33.3336 22.3676 33.2724C22.3854 33.2546 22.1366 33.24 21.8145 33.24C21.3198 33.24 21.2052 33.2214 21.0764 33.12C20.9925 33.054 20.888 33 20.8443 33C20.8005 33 20.7164 32.9504 20.6574 32.8896C20.5983 32.8289 20.496 32.7597 20.43 32.7359C20.3262 32.6985 20.3297 32.7114 20.4557 32.8313Z" fill="#B4B4B4"/>
</svg>
