<svg width="23" height="20" viewBox="0 0 23 20" fill="none" xmlns="http://www.w3.org/2000/svg">
<path fill-rule="evenodd" clip-rule="evenodd" d="M11.7998 2.02314C11.7588 2.05857 11.6931 2.1299 11.6188 2.26111L2.91255 17.6365C2.82465 17.7917 2.80411 17.8935 2.80076 17.939C2.80075 17.9392 2.80073 17.9394 2.80072 17.9396C2.84311 17.9628 2.94437 18 3.15308 18H20.4475C20.6564 18 20.7575 17.9626 20.7997 17.9393C20.7996 17.9391 20.7996 17.9389 20.7996 17.9387C20.7963 17.8935 20.776 17.7919 20.688 17.6365L11.9808 2.26115C11.9065 2.12993 11.8408 2.05858 11.7998 2.02314ZM20.8252 17.9212C20.8253 17.9213 20.8242 17.9226 20.8215 17.9248C20.8238 17.9222 20.8251 17.9211 20.8252 17.9212ZM2.77482 17.9213C2.77492 17.9212 2.77631 17.9223 2.77867 17.9251C2.77589 17.9228 2.77472 17.9214 2.77482 17.9213ZM11.8005 2.00022e-07C12.6734 0.000395081 13.3303 0.58552 13.7211 1.2756L22.4283 16.651C22.8269 17.3548 22.9737 18.2216 22.5248 18.9704C22.0801 19.7124 21.2522 20 20.4475 20H3.15308C2.34704 20 1.51855 19.7121 1.07426 18.9689C0.626416 18.2197 0.774478 17.3534 1.1722 16.651L9.87848 1.27564C10.2698 0.584647 10.9272 -0.000394919 11.8005 2.00022e-07Z" fill="#082244"/>
<path fill-rule="evenodd" clip-rule="evenodd" d="M11.8 16.5C12.3523 16.5 12.8 16.0523 12.8 15.5C12.8 14.9477 12.3523 14.5 11.8 14.5C11.2478 14.5 10.8 14.9477 10.8 15.5C10.8 16.0523 11.2478 16.5 11.8 16.5Z" fill="#082244"/>
<path fill-rule="evenodd" clip-rule="evenodd" d="M11.8 6.5C12.3523 6.5 12.8 6.94772 12.8 7.5V12.5C12.8 13.0523 12.3523 13.5 11.8 13.5C11.2478 13.5 10.8 13.0523 10.8 12.5V7.5C10.8 6.94772 11.2478 6.5 11.8 6.5Z" fill="#082244"/>
</svg>
