<svg width="50" height="50" viewBox="0 0 50 50" fill="none" xmlns="http://www.w3.org/2000/svg">
<path fill-rule="evenodd" clip-rule="evenodd" d="M7.77726 15.6128L6.69489 17.3584L9.81714 17.371C11.5344 17.3779 12.9406 17.3999 12.9421 17.4198C12.9436 17.4398 13.2238 21.6529 13.5648 26.7823L14.1848 36.1084L16.4383 36.1211L18.6919 36.1338L22.7119 28.1865C26.6476 20.4056 26.7326 20.2434 26.7696 20.4346C26.8079 20.6326 28.4668 35.8951 28.4668 36.0491C28.4668 36.1269 28.6201 36.1329 30.6336 36.1329H32.8004L35.0481 31.3843C36.2844 28.7726 38.3875 24.3286 39.7219 21.5088C41.0561 18.689 42.4095 15.8301 42.7293 15.1558C43.049 14.4814 43.3105 13.9154 43.3105 13.898C43.3105 13.8805 42.287 13.8719 41.0359 13.8789L38.7614 13.8916L35.2904 21.5958C33.3814 25.833 31.8046 29.2828 31.7864 29.2618C31.7683 29.2408 31.3859 25.8509 30.9368 21.7285C30.4876 17.6063 30.1079 14.1508 30.0929 14.0498L30.0655 13.8663L27.8445 13.8789L25.6234 13.8916L22.9175 19.2628C21.4293 22.2168 19.6905 25.672 19.0536 26.9409C18.4166 28.2098 17.8843 29.2479 17.8704 29.248C17.8566 29.248 17.6634 25.9028 17.441 21.814C17.2186 17.7253 17.0241 14.2645 17.0089 14.1235L16.9809 13.8673H12.9203H8.85951L7.77726 15.6128Z" fill="#36B1CF"/>
<path fill-rule="evenodd" clip-rule="evenodd" d="M17.0524 14.7461C17.0524 14.8401 17.0624 14.8785 17.0746 14.8315C17.087 14.7845 17.087 14.7076 17.0746 14.6606C17.0624 14.6136 17.0524 14.6521 17.0524 14.7461ZM17.1011 15.625C17.1011 15.719 17.1113 15.7575 17.1235 15.7105C17.1358 15.6635 17.1358 15.5865 17.1235 15.5395C17.1113 15.4925 17.1011 15.531 17.1011 15.625ZM8.21888 17.4194C9.10038 17.4269 10.5286 17.4269 11.3928 17.4194C12.2569 17.4119 11.5356 17.4059 9.79001 17.4059C8.04438 17.4059 7.33738 17.412 8.21888 17.4194ZM17.2965 19.1895C17.2965 19.2835 17.3065 19.3219 17.3189 19.2749C17.3311 19.2279 17.3311 19.151 17.3189 19.104C17.3065 19.057 17.2965 19.0955 17.2965 19.1895ZM17.3454 20.0684C17.3454 20.1624 17.3554 20.2007 17.3676 20.1537C17.3799 20.1067 17.3799 20.0299 17.3676 19.9829C17.3554 19.9359 17.3454 19.9744 17.3454 20.0684ZM17.3941 20.9472C17.3941 21.0412 17.4043 21.0797 17.4165 21.0327C17.4288 20.9857 17.4288 20.9089 17.4165 20.8619C17.4043 20.8149 17.3941 20.8532 17.3941 20.9472ZM17.5895 24.5117C17.5895 24.6057 17.5995 24.6441 17.6118 24.5971C17.6241 24.5501 17.6241 24.4732 17.6118 24.4262C17.5995 24.3792 17.5895 24.4177 17.5895 24.5117ZM17.6383 25.3906C17.6383 25.4846 17.6484 25.5231 17.6606 25.4761C17.6729 25.4291 17.6729 25.3521 17.6606 25.3051C17.6484 25.2581 17.6383 25.2966 17.6383 25.3906ZM17.6871 26.2695C17.6871 26.3635 17.6971 26.402 17.7095 26.355C17.7218 26.308 17.7218 26.2311 17.7095 26.1841C17.6971 26.1371 17.6871 26.1755 17.6871 26.2695Z" fill="#1C4C5C"/>
<path fill-rule="evenodd" clip-rule="evenodd" d="M0 25V50H25H50V25V0H25H0V25ZM17.0413 14.0747C17.0413 14.1889 17.0617 14.6228 17.0866 15.0391C17.1116 15.4554 17.1451 16.0596 17.1611 16.3819C17.1773 16.7041 17.2002 17.1216 17.2122 17.3096C17.2404 17.7501 17.2695 18.2731 17.3577 19.9219C17.4357 21.379 17.4682 21.9661 17.5064 22.6074C17.5199 22.8357 17.574 23.8245 17.6266 24.8048C17.6791 25.7849 17.7337 26.7901 17.7477 27.0386C17.7619 27.287 17.785 27.7045 17.799 27.9662C17.8294 28.5321 17.8765 29.1711 17.8888 29.1839C17.8935 29.1889 18.5232 27.9464 19.2881 26.4229C20.0529 24.8992 21.7874 21.4509 23.1425 18.7599L25.6063 13.8673H27.8438C29.5906 13.8673 30.0855 13.8806 30.1007 13.9283C30.1116 13.9618 30.4845 17.3401 30.9295 21.4355C31.3745 25.531 31.755 28.968 31.7751 29.0734C31.8103 29.2585 31.845 29.1904 32.8205 27.0225C33.3754 25.7892 34.701 22.8466 35.7664 20.4834C36.8316 18.1201 37.9378 15.6648 38.2243 15.027L38.7451 13.8674L41.05 13.8673H43.3549L43.1674 14.27C43.0025 14.624 42.5249 15.6383 41.9416 16.8731C41.8394 17.0896 41.4179 17.9795 41.0051 18.8506C40.5924 19.7217 38.5856 23.9661 36.5457 28.2825L32.8369 36.1304L30.6561 36.1316L28.4754 36.1329L28.4466 35.9497C28.4309 35.849 28.0442 32.3169 27.5875 28.1006C27.1309 23.8842 26.7515 20.4016 26.7445 20.3614C26.7375 20.321 26.3378 21.0681 25.8563 22.0215C25.3748 22.9749 24.3972 24.9087 23.6842 26.3191C22.9711 27.7294 21.5638 30.5141 20.5566 32.5074L18.7256 36.1315L16.4429 36.1321L14.1601 36.1329L14.1584 36.023C14.1574 35.9625 14.1459 35.7923 14.1329 35.6445C14.1198 35.4969 14.0216 34.0356 13.9149 32.3975C13.8081 30.7592 13.7092 29.2651 13.6951 29.0771C13.6414 28.3655 12.9395 17.6516 12.9395 17.5445V17.4324L9.78938 17.4198L6.63925 17.4072L7.66825 15.7471C8.23425 14.834 8.7295 14.0375 8.76875 13.977L8.84013 13.8673H12.9406H17.041L17.0413 14.0747Z" fill="#0C1424"/>
</svg>
