<svg width="50" height="50" viewBox="0 0 50 50" fill="none" xmlns="http://www.w3.org/2000/svg">
<path fill-rule="evenodd" clip-rule="evenodd" d="M39.25 21.9003C39.1262 21.9206 38.9037 21.9626 38.7556 21.9936C38.6075 22.0246 38.3994 22.05 38.293 22.05C38.1866 22.05 38.0156 22.095 37.913 22.15C37.8105 22.205 37.6774 22.25 37.6174 22.25C37.3397 22.25 37.2907 22.4618 37.3919 23.225C37.4287 23.5031 37.6115 23.5956 37.7954 23.4291C37.843 23.3861 37.9929 23.3298 38.1285 23.304C38.2641 23.2783 38.4425 23.222 38.525 23.1789C38.7991 23.0359 40.0832 23.0673 40.3785 23.2243C40.9791 23.5436 41.1484 23.8684 41.1475 24.7C41.1465 25.642 41.2466 25.5691 39.9104 25.6004C39.0467 25.6206 38.7944 25.6421 38.675 25.7059C38.5925 25.75 38.3857 25.7999 38.2155 25.8169C38.0425 25.8343 37.833 25.8924 37.7405 25.9488C37.6495 26.0043 37.5395 26.0498 37.4961 26.0499C37.3424 26.0501 36.7002 26.7511 36.6977 26.9211C36.6966 27.0058 36.6631 27.165 36.6235 27.275C36.5301 27.5343 36.5307 27.955 36.625 28.3169C36.6662 28.4753 36.7 28.657 36.7 28.7208C36.7 28.7844 36.7419 28.8901 36.7931 28.9558C36.8444 29.0214 36.9004 29.12 36.9176 29.175C36.9775 29.3658 37.709 29.9494 37.8897 29.9506C37.9366 29.9509 38.155 29.9956 38.375 30.05C38.932 30.1876 39.622 30.121 40 29.8933C40.0412 29.8684 40.1507 29.8133 40.2434 29.7709C40.336 29.7284 40.561 29.5485 40.7434 29.371C40.9257 29.1935 41.1126 29.0128 41.1587 28.9694C41.2607 28.8733 41.4 29.0891 41.4 29.3435C41.4 29.4251 41.4375 29.5669 41.4834 29.6585C41.5294 29.75 41.5824 29.8588 41.6014 29.9C41.6219 29.9445 41.6999 29.9739 41.793 29.9723C41.8794 29.9708 42.1412 29.9651 42.375 29.9598L42.8 29.95V29.785C42.8 29.6943 42.7757 29.5958 42.7461 29.5661C42.7164 29.5364 42.6716 29.3483 42.6464 29.1479C42.6212 28.9474 42.5676 28.733 42.5272 28.6714C42.4867 28.6096 42.4381 28.4053 42.4191 28.2171C42.4001 28.029 42.351 27.8233 42.3099 27.76C42.2057 27.5996 42.2142 26.6478 42.3221 26.3895C42.4417 26.1033 42.4486 23.7113 42.3304 23.5429C42.2847 23.478 42.2239 23.3374 42.1949 23.2303C42.1339 23.0046 41.9869 22.7833 41.7779 22.6024C41.6969 22.5323 41.5956 22.4384 41.5529 22.3938C41.51 22.349 41.4187 22.2958 41.35 22.2755C41.2812 22.2551 41.18 22.199 41.125 22.1506C41.07 22.1024 40.935 22.0493 40.825 22.0328C40.715 22.0161 40.502 21.9683 40.3516 21.9263C40.0674 21.847 39.6367 21.8369 39.25 21.9003ZM25.2875 22.0845C25.1906 22.1098 25.1686 22.2986 25.2526 22.3826C25.2816 22.4116 25.3262 22.7113 25.3519 23.0484C25.3791 23.4075 25.43 23.7248 25.4746 23.8143C25.5166 23.8984 25.572 24.1534 25.5979 24.3811C25.6237 24.6089 25.6799 24.8626 25.7225 24.9451C25.7651 25.0276 25.8 25.1631 25.8 25.2464C25.8 25.3296 25.8562 25.5471 25.925 25.7298C25.9937 25.9125 26.05 26.1443 26.05 26.2449C26.05 26.3454 26.0849 26.4775 26.1274 26.5383C26.17 26.599 26.229 26.7896 26.2585 26.9619C26.288 27.1341 26.3404 27.3088 26.3747 27.35C26.4091 27.3913 26.4529 27.515 26.4719 27.625C26.4909 27.735 26.55 27.9101 26.6032 28.014C26.6565 28.118 26.7 28.2421 26.7 28.2898C26.7 28.3375 26.742 28.4549 26.7934 28.5508C26.8446 28.6466 26.9039 28.8038 26.9249 28.9C26.9459 28.9963 27.0051 29.1286 27.0565 29.1943C27.1079 29.2599 27.15 29.3875 27.15 29.4779C27.15 29.5823 27.1977 29.6991 27.2807 29.7976L27.4114 29.953L28.0162 29.939L28.621 29.925L28.6535 29.766C28.6714 29.6785 28.7209 29.572 28.7634 29.5295C28.806 29.4869 28.8562 29.3611 28.875 29.25C28.8937 29.1389 28.939 29.0181 28.9756 28.9815C29.0121 28.945 29.0667 28.8273 29.0969 28.72C29.127 28.6128 29.185 28.4814 29.2257 28.428C29.2666 28.3745 29.3001 28.262 29.3002 28.178C29.3004 28.0939 29.356 27.935 29.4237 27.825C29.4915 27.715 29.5476 27.5601 29.5485 27.4809C29.5492 27.4016 29.5922 27.2666 29.6439 27.1809C29.6956 27.0951 29.7535 26.9374 29.7725 26.8303C29.7916 26.723 29.837 26.588 29.8732 26.5303C29.9095 26.4724 29.9542 26.3184 29.9725 26.1881C29.9909 26.0578 30.0404 25.9168 30.0824 25.8748C30.1245 25.8328 30.175 25.6794 30.1947 25.534C30.2145 25.3885 30.2687 25.2151 30.3152 25.1486C30.3619 25.0821 30.4 24.975 30.4 24.9106C30.4 24.3276 30.846 24.7594 30.9314 25.425C30.949 25.5625 30.9959 25.7124 31.0355 25.758C31.075 25.8038 31.1244 25.9665 31.1452 26.1198C31.166 26.273 31.2191 26.4383 31.2631 26.4869C31.3072 26.5356 31.3589 26.6931 31.378 26.8369C31.397 26.9806 31.4425 27.123 31.4789 27.1533C31.5152 27.1835 31.5595 27.3133 31.577 27.4416C31.5946 27.57 31.6484 27.7313 31.6966 27.8C31.7449 27.8688 31.8007 28.0126 31.8207 28.1198C31.8409 28.227 31.8924 28.3683 31.9354 28.4339C31.9784 28.4994 32.0325 28.6548 32.0557 28.779C32.0789 28.9034 32.1321 29.0393 32.174 29.0811C32.2157 29.1229 32.25 29.22 32.25 29.2969C32.25 29.3736 32.2936 29.492 32.3469 29.5598C32.4002 29.6275 32.4589 29.743 32.4774 29.8165L32.5109 29.95H33.132C33.6784 29.95 33.7569 29.9395 33.7841 29.8625C33.8012 29.8144 33.8426 29.7413 33.8762 29.7C33.9099 29.6588 33.952 29.5429 33.97 29.4426C33.9879 29.3423 34.047 29.2038 34.1014 29.1346C34.1556 29.0656 34.2 28.9479 34.2 28.873C34.2 28.7981 34.2426 28.6666 34.2946 28.5809C34.3466 28.4951 34.4055 28.3463 34.4254 28.25C34.4452 28.1538 34.492 28.0188 34.5294 27.95C34.5666 27.8813 34.6204 27.732 34.6489 27.6184C34.6774 27.5046 34.7342 27.3838 34.7754 27.3498C34.8167 27.3154 34.85 27.206 34.85 27.1045C34.85 27.0036 34.894 26.8348 34.9479 26.7291C35.0017 26.6235 35.061 26.4331 35.0795 26.306C35.098 26.179 35.152 25.9963 35.1995 25.9C35.247 25.8038 35.2987 25.6125 35.3144 25.475C35.3301 25.3375 35.389 25.1238 35.4454 25C35.5017 24.8763 35.5484 24.685 35.5492 24.575C35.55 24.465 35.5849 24.3094 35.6266 24.2293C35.6685 24.149 35.7331 23.8658 35.7702 23.5998C35.8075 23.3338 35.8605 23.0731 35.8882 23.0205C35.916 22.968 35.9467 22.7338 35.9567 22.5L35.975 22.075H35.35H34.725L34.6935 22.425C34.6762 22.6175 34.6291 22.8539 34.5887 22.9503C34.5484 23.0466 34.499 23.2941 34.4791 23.5003C34.4592 23.7064 34.4137 23.9204 34.378 23.9759C34.3422 24.0314 34.288 24.2623 34.2575 24.4889C34.227 24.7156 34.1677 24.9673 34.126 25.0481C34.0842 25.1289 34.05 25.2701 34.05 25.362C34.05 25.4538 34.0052 25.6168 33.9504 25.7241C33.8956 25.8316 33.8369 26.0333 33.8196 26.1723C33.8025 26.3113 33.753 26.4813 33.7095 26.55C33.666 26.6188 33.614 26.7951 33.594 26.942C33.5739 27.0888 33.5204 27.2499 33.475 27.3C33.4296 27.3501 33.3755 27.517 33.3546 27.671C33.2811 28.2123 32.8511 28.3995 32.8496 27.8908C32.8495 27.8271 32.8046 27.7075 32.75 27.625C32.6954 27.5425 32.6505 27.4214 32.6504 27.3559C32.6501 27.2904 32.6077 27.1666 32.5561 27.0809C32.5044 26.9951 32.4462 26.836 32.4269 26.7274C32.4075 26.6186 32.3485 26.4451 32.2959 26.3419C32.2431 26.2385 32.2 26.096 32.2 26.025C32.2 25.954 32.1546 25.807 32.0991 25.6981C32.0435 25.5894 31.9837 25.3934 31.9661 25.2626C31.9486 25.132 31.9052 24.98 31.8699 24.925C31.8346 24.87 31.7834 24.6859 31.7561 24.5158C31.7289 24.3458 31.674 24.1545 31.6341 24.0908C31.5944 24.0271 31.5497 23.8481 31.535 23.6931C31.5204 23.5381 31.471 23.339 31.4252 23.2506C31.3796 23.1623 31.3247 22.9164 31.3034 22.7043C31.2409 22.0843 31.1952 22.0436 30.5812 22.0609L30.0761 22.075L30.0384 22.3385C30.0176 22.4834 29.9665 22.6834 29.9249 22.783C29.8832 22.8826 29.8355 23.0903 29.8187 23.2445C29.8019 23.3988 29.7556 23.5771 29.7157 23.6408C29.676 23.7045 29.6215 23.8921 29.5949 24.0579C29.5681 24.2235 29.5159 24.4076 29.4786 24.467C29.4414 24.5264 29.3952 24.6855 29.3761 24.8208C29.357 24.9559 29.2984 25.1468 29.2457 25.245C29.1931 25.3431 29.1499 25.5139 29.1499 25.6243C29.1497 25.7346 29.1081 25.893 29.0575 25.976C29.0069 26.0591 28.949 26.2166 28.929 26.326C28.909 26.4355 28.8599 26.5758 28.82 26.6378C28.78 26.6999 28.7257 26.8643 28.6994 27.0031C28.6731 27.142 28.6187 27.2884 28.5787 27.3284C28.5387 27.3685 28.4909 27.5015 28.4725 27.6241C28.454 27.7475 28.3856 27.9093 28.3196 27.9861C28.2539 28.0625 28.2001 28.1419 28.2 28.1625C28.2 28.1831 28.1699 28.2 28.133 28.2C28.063 28.2 27.95 27.9978 27.95 27.8725C27.95 27.8324 27.905 27.7156 27.85 27.613C27.795 27.5105 27.7495 27.3811 27.7489 27.3258C27.7482 27.2704 27.7032 27.1269 27.6489 27.007C27.5945 26.8871 27.55 26.7459 27.55 26.693C27.55 26.6403 27.4937 26.4634 27.425 26.3C27.3562 26.1366 27.3 25.9113 27.3 25.799C27.3 25.6869 27.2641 25.5256 27.2202 25.4409C27.1765 25.3561 27.1197 25.1396 27.0942 24.9598C27.0687 24.78 27.0231 24.6028 26.9926 24.5661C26.9622 24.5295 26.9085 24.2803 26.8732 24.0123C26.838 23.7443 26.7742 23.435 26.7317 23.325C26.6855 23.2054 26.6535 22.9605 26.6522 22.7158C26.6485 22.0373 26.6607 22.0489 25.9637 22.0558C25.6399 22.059 25.3356 22.0719 25.2875 22.0845ZM41.0982 26.5468C41.1799 26.6991 41.157 27.1548 41.0567 27.3755C41.0066 27.4858 40.949 27.6646 40.9287 27.7729C40.9084 27.8811 40.8486 28.0245 40.7959 28.0916C40.7431 28.1586 40.7 28.2356 40.7 28.2626C40.7 28.4138 40.1657 28.869 39.9145 28.9321C39.8415 28.9504 39.7239 28.9956 39.6534 29.0324C39.331 29.2006 38.5369 29.0413 38.2177 28.7444C37.8759 28.4263 37.6829 27.6006 37.8676 27.2466C37.9044 27.1761 37.9486 27.0636 37.9659 26.9966C38.0221 26.7783 38.2529 26.7014 39.0956 26.6208C39.5242 26.5798 39.9425 26.5266 40.025 26.5026C40.3395 26.4113 41.0411 26.4401 41.0982 26.5468Z" fill="#F4B20A"/>
<path fill-rule="evenodd" clip-rule="evenodd" d="M0 25V50H25H50V25V0H25H0V25ZM23.8664 18.5404C23.9416 18.6236 23.9451 19.0856 23.9104 24.2704C23.8668 30.7816 23.9472 30.05 23.275 30.05C22.6476 30.05 22.707 30.3007 22.678 27.525C22.6167 21.6502 22.622 18.6195 22.6936 18.5329C22.7987 18.4058 23.75 18.4119 23.8664 18.5404ZM8.472 19.7875C8.51788 19.8906 8.58488 20.0313 8.62088 20.1C8.657 20.1688 8.7025 20.2925 8.72213 20.375C8.74175 20.4575 8.78775 20.5588 8.82425 20.6C8.86075 20.6413 8.91613 20.7706 8.94725 20.8875C8.97838 21.0044 9.02463 21.1 9.04988 21.1C9.07525 21.1 9.1245 21.1951 9.15925 21.3113C9.19413 21.4275 9.2625 21.5625 9.31125 21.6112C9.36012 21.6601 9.4 21.7549 9.4 21.822C9.4 21.8891 9.42375 21.9588 9.45263 21.9766C9.503 22.0078 9.652 22.2744 9.82887 22.65C9.87412 22.7462 9.92862 22.8363 9.95 22.85C9.97137 22.8638 10.0255 22.9537 10.0702 23.05C10.1855 23.2974 10.3106 23.5015 10.4125 23.6082C10.4606 23.6587 10.5 23.7321 10.5 23.7714C10.5 23.8108 10.5392 23.8821 10.5871 23.93C10.6351 23.978 10.697 24.0541 10.7246 24.0991C10.9947 24.539 10.9975 24.5418 11.1263 24.482C11.1939 24.4506 11.2494 24.413 11.2496 24.3984C11.2503 24.3559 11.5926 23.8356 11.6409 23.8037C11.6887 23.7722 11.7908 23.5911 11.946 23.2625C12.0013 23.1456 12.068 23.05 12.0942 23.05C12.1205 23.05 12.1564 22.9849 12.1739 22.9051C12.1914 22.8255 12.2494 22.7207 12.3029 22.6724C12.3562 22.6241 12.4 22.546 12.4 22.499C12.4 22.452 12.4457 22.3552 12.5017 22.2841C12.5577 22.2129 12.6275 22.0861 12.6566 22.0024C12.6859 21.9185 12.7301 21.85 12.7549 21.85C12.7798 21.85 12.8 21.8206 12.8 21.7849C12.8 21.749 12.8574 21.5971 12.9274 21.4474C12.9974 21.2975 13.1125 21.0512 13.1831 20.9C13.2536 20.7487 13.352 20.545 13.4016 20.4473C13.4512 20.3494 13.5071 20.1881 13.5256 20.0889C13.5909 19.7416 13.7277 19.675 14.3769 19.675C15.0164 19.675 15.1764 19.749 15.02 19.9722C14.9815 20.0272 14.95 20.1295 14.95 20.1994C14.95 20.2693 14.905 20.4105 14.85 20.513C14.795 20.6156 14.7498 20.7279 14.7495 20.7624C14.7493 20.7967 14.6938 20.9375 14.6261 21.075C14.5585 21.2125 14.5024 21.3501 14.5016 21.3808C14.5008 21.4114 14.4583 21.4901 14.4073 21.5557C14.3563 21.6214 14.287 21.7594 14.2534 21.8625C14.2198 21.9656 14.175 22.05 14.154 22.05C14.133 22.05 14.0891 22.139 14.0565 22.2479C14.0239 22.3568 13.975 22.4595 13.9479 22.4764C13.9208 22.4931 13.8645 22.5784 13.8229 22.6659C13.7813 22.7534 13.6801 22.9375 13.598 23.075C13.5159 23.2125 13.4242 23.3869 13.3945 23.4625C13.3646 23.5381 13.3187 23.6 13.2925 23.6C13.2664 23.6 13.2136 23.6749 13.1754 23.7665C13.1371 23.858 13.0707 23.962 13.0279 23.9976C12.985 24.0331 12.95 24.0856 12.95 24.1143C12.95 24.1723 12.6511 24.6588 12.5878 24.7038C12.5655 24.7196 12.4704 24.8546 12.3764 25.0037C12.2824 25.153 12.1741 25.3088 12.1359 25.35C12.0976 25.3913 12.052 25.4644 12.0347 25.5125C12.0174 25.5606 11.9802 25.6 11.9522 25.6C11.8334 25.6 11.7436 25.9745 11.7548 26.425C11.7776 27.3516 11.6872 29.9243 11.6305 29.9618C11.538 30.0229 10.5102 30.007 10.4711 29.9438C10.452 29.9129 10.4273 28.9858 10.416 27.8834C10.3986 26.171 10.3846 25.8681 10.3193 25.8021C10.2773 25.7598 10.1998 25.6575 10.1471 25.575C10.0945 25.4925 10.023 25.3804 9.98825 25.3258C9.9535 25.2711 9.88825 25.1986 9.84325 25.1644C9.79825 25.1303 9.74712 25.0455 9.72975 24.9761C9.71237 24.9068 9.67637 24.85 9.64975 24.85C9.62312 24.85 9.56738 24.7769 9.526 24.6875C9.4845 24.5981 9.3605 24.4013 9.25037 24.25C9.14025 24.0987 9.05013 23.9581 9.05013 23.9375C9.05 23.9169 9.01488 23.8606 8.97188 23.8125C8.85188 23.6781 8.65 23.3519 8.65 23.2925C8.65 23.2634 8.59375 23.1726 8.525 23.0909C8.45625 23.0091 8.4 22.8999 8.4 22.8479C8.4 22.796 8.35762 22.7309 8.30587 22.7031C8.254 22.6754 8.19675 22.5734 8.1785 22.4764C8.16038 22.3794 8.12575 22.3 8.10175 22.3C8.07763 22.3 7.97475 22.1256 7.873 21.9125C7.77138 21.6994 7.66762 21.4913 7.64262 21.45C7.61762 21.4088 7.583 21.3325 7.56588 21.2806C7.54875 21.2286 7.48538 21.0935 7.42525 20.9801C7.365 20.8669 7.30025 20.6922 7.2815 20.5921C7.26275 20.492 7.21525 20.3835 7.17613 20.3509C7.075 20.267 7.0225 19.8684 7.10038 19.7745C7.139 19.728 7.2585 19.6977 7.41862 19.6941C7.55962 19.6909 7.7425 19.671 7.825 19.65C8.21537 19.5506 8.3825 19.5863 8.472 19.7875ZM18.9986 21.8625C19.0666 21.9106 19.1724 21.95 19.2337 21.95C19.3627 21.95 19.6 22.0489 19.6 22.1026C19.6 22.1227 19.6506 22.1524 19.7125 22.1685C19.9259 22.224 20.3478 22.69 20.5728 23.1186C20.8171 23.5843 20.8452 25.0643 20.6409 26.7C20.5554 27.3853 20.5743 27.5905 20.8008 28.4307C20.8535 28.6265 20.9103 28.8853 20.927 29.0058C20.9436 29.1264 20.991 29.3054 21.0321 29.4035C21.1709 29.7341 21.1101 29.9679 20.875 30.0075C20.0581 30.145 19.9138 30.0604 19.804 29.3795C19.7233 28.879 19.719 28.879 19.223 29.3727C18.9869 29.6077 18.7645 29.8 18.7286 29.8C18.6927 29.8 18.6099 29.8415 18.5443 29.8924C18.1388 30.2063 17.0511 30.2973 16.3684 30.0744C15.841 29.9023 15.1137 29.2723 15.0991 28.975C15.0977 28.9475 15.0531 28.835 15 28.725C14.8333 28.3799 14.855 27.1715 15.0336 26.8589C15.2155 26.5403 15.4929 26.2 15.5706 26.2C15.6058 26.2 15.6741 26.1562 15.7224 26.1029C15.7707 26.0494 15.8811 25.9906 15.9676 25.9722C16.0542 25.9539 16.1614 25.9069 16.2059 25.8678C16.2503 25.8286 16.4244 25.7744 16.5926 25.7474C16.761 25.7203 16.9609 25.6731 17.0369 25.6427C17.1129 25.6122 17.6774 25.5705 18.2914 25.5497C19.0174 25.5254 19.4279 25.4921 19.4651 25.4549C19.5951 25.3249 19.5679 23.9768 19.4324 23.8381C19.3985 23.8034 19.3424 23.7075 19.3076 23.625C19.1095 23.1544 17.9357 22.804 17.2892 23.0224C17.1714 23.0621 16.9179 23.1197 16.7259 23.1502C16.5338 23.1807 16.3396 23.2391 16.2945 23.28C16.0493 23.5019 15.7 23.4039 15.7 23.1131C15.7 23.017 15.6619 22.831 15.6152 22.6998C15.4886 22.3434 15.9417 21.956 16.4907 21.9514C16.582 21.9506 16.7029 21.9253 16.7594 21.895C17.0704 21.7285 18.7744 21.7039 18.9986 21.8625ZM40.725 21.85C40.835 21.9031 40.9656 21.9474 41.0151 21.9482C41.0648 21.9492 41.1881 22.0063 41.2892 22.075C41.3904 22.1438 41.4961 22.2001 41.5241 22.2003C41.6141 22.2009 42.3 22.9639 42.3 23.0635C42.3 23.0937 42.346 23.2134 42.4021 23.3294C42.5534 23.6417 42.5746 24.2096 42.5003 25.9447C42.4321 27.5354 42.4609 28.1169 42.6234 28.43C42.6609 28.5023 42.7067 28.6994 42.7255 28.8681C42.7441 29.0369 42.7922 29.2266 42.8324 29.2897C43.0739 29.6699 42.9611 30.0495 42.6064 30.051C42.4791 30.0515 42.2238 30.0739 42.039 30.1006C41.5124 30.1767 41.3 29.9995 41.3 29.484C41.3 29.0874 41.2694 29.0739 40.9825 29.3444C40.5211 29.7795 40.4362 29.85 40.3739 29.85C40.34 29.85 40.2844 29.8836 40.2503 29.9246C40.2163 29.9658 40.0954 30.0226 39.9816 30.0511C39.868 30.0796 39.7188 30.1335 39.65 30.1709C39.3501 30.3339 38.3676 30.3075 38.0216 30.1271C37.941 30.085 37.8139 30.0505 37.7393 30.0502C37.6549 30.0501 37.5832 30.0121 37.55 29.95C37.5206 29.895 37.4676 29.85 37.4323 29.85C37.3491 29.85 36.8 29.3314 36.8 29.2529C36.8 29.2199 36.7662 29.1591 36.7251 29.1179C36.6839 29.0767 36.6378 28.9828 36.6225 28.909C36.6073 28.8353 36.5566 28.698 36.5099 28.6039C36.3846 28.3512 36.3865 27.1794 36.5125 27.0014C36.5606 26.9334 36.6 26.8396 36.6 26.7931C36.6 26.6368 37.2563 25.9509 37.4064 25.9503C37.4511 25.9501 37.5147 25.9175 37.5477 25.8778C37.5807 25.838 37.7354 25.7791 37.8914 25.7469C38.0474 25.7146 38.2466 25.6568 38.3341 25.6184C38.4305 25.576 38.9228 25.5184 39.5841 25.4721C40.1841 25.43 40.7537 25.3789 40.85 25.3585L41.025 25.3214L41.0391 24.793C41.052 24.3117 41.042 24.2422 40.9266 24.0126C40.857 23.8739 40.8 23.7449 40.8 23.7257C40.8 23.6537 40.5637 23.4896 40.251 23.3444C39.7775 23.1245 38.6026 23.2054 37.975 23.5011C37.3629 23.7895 37.2452 23.6356 37.2287 22.525L37.225 22.275L37.525 22.1316C37.69 22.0527 37.9639 21.9708 38.1336 21.9494C38.3034 21.9281 38.4714 21.8926 38.507 21.8708C38.7511 21.7198 40.4231 21.7043 40.725 21.85ZM26.6647 21.9975C26.6866 22.0179 26.7242 22.2236 26.7484 22.4548C26.7724 22.6859 26.8164 22.9382 26.846 23.0156C26.8756 23.0929 26.9141 23.3179 26.9315 23.5156C26.949 23.7132 26.9944 23.9517 27.0324 24.0455C27.0704 24.1392 27.1251 24.3755 27.154 24.5705C27.1829 24.7655 27.2385 24.9953 27.2775 25.0811C27.3166 25.1669 27.3695 25.3806 27.3951 25.5561C27.4206 25.7315 27.4747 25.9537 27.5152 26.05C27.5556 26.1462 27.6054 26.3258 27.6257 26.4489C27.646 26.572 27.6919 26.7182 27.7276 26.7739C27.7634 26.8295 27.8085 26.965 27.828 27.075C27.8476 27.185 27.9055 27.3585 27.9568 27.4605C28.008 27.5625 28.0504 27.6975 28.0508 27.7605C28.0531 28.1222 28.335 27.8025 28.4193 27.3425C28.4376 27.2421 28.4834 27.1345 28.5209 27.1034C28.5584 27.0722 28.605 26.9406 28.6243 26.8109C28.6436 26.6811 28.6998 26.485 28.749 26.375C28.7984 26.265 28.8551 26.0962 28.8754 26C28.8955 25.9038 28.9401 25.7688 28.9745 25.7C29.0089 25.6313 29.0518 25.4731 29.0699 25.3486C29.088 25.2243 29.1361 25.0581 29.1769 24.9795C29.2176 24.901 29.2651 24.7441 29.2826 24.6309C29.3 24.5176 29.356 24.3173 29.4071 24.1856C29.4583 24.054 29.501 23.8965 29.5023 23.8356C29.5034 23.7747 29.5389 23.635 29.5811 23.525C29.6233 23.415 29.6889 23.1454 29.7267 22.9258C29.7647 22.7061 29.8184 22.4811 29.8461 22.4258C29.8739 22.3704 29.9155 22.2462 29.9389 22.15L29.9813 21.975L30.5791 21.961C31.3349 21.9434 31.3488 21.952 31.399 22.4654C31.4198 22.6761 31.4613 22.8784 31.4915 22.9147C31.5218 22.9511 31.5795 23.1596 31.6199 23.378C31.6602 23.5964 31.7276 23.865 31.7695 23.975C31.8114 24.085 31.8466 24.2344 31.8477 24.307C31.849 24.3796 31.8945 24.5371 31.9489 24.657C32.0033 24.7769 32.0482 24.9381 32.0489 25.0152C32.0495 25.0924 32.0967 25.2581 32.154 25.3836C32.2111 25.5091 32.2756 25.7161 32.2971 25.8434C32.3188 25.9707 32.3731 26.1425 32.4179 26.225C32.4627 26.3075 32.4995 26.4204 32.4997 26.4757C32.4999 26.5311 32.545 26.6605 32.6 26.763C32.655 26.8656 32.7003 26.9891 32.7005 27.0374C32.7008 27.0855 32.757 27.2454 32.8255 27.3925C32.894 27.5396 32.95 27.7126 32.95 27.777C32.95 28.0693 33.2147 27.8206 33.2777 27.4694C33.2969 27.3625 33.3526 27.185 33.4016 27.075C33.4505 26.965 33.5066 26.767 33.5264 26.635C33.546 26.503 33.5885 26.368 33.6208 26.335C33.6531 26.302 33.7077 26.1197 33.7424 25.9299C33.777 25.7401 33.8379 25.5219 33.8776 25.4449C33.9174 25.3679 33.95 25.2525 33.95 25.1884C33.95 25.1243 33.9852 24.9487 34.0284 24.7984C34.0715 24.648 34.1375 24.3519 34.1751 24.1402C34.2128 23.9286 34.265 23.7149 34.2911 23.6653C34.3171 23.6156 34.365 23.3725 34.3974 23.125C34.4746 22.5335 34.5963 22.0385 34.6813 21.9696C34.7691 21.8985 35.947 21.94 36.0439 22.0176C36.132 22.0883 36.0819 23.0195 35.9689 23.4118C35.9271 23.5565 35.8712 23.8325 35.8446 24.025C35.818 24.2175 35.7644 24.4329 35.7255 24.5037C35.6866 24.5745 35.63 24.7874 35.5998 24.9767C35.5695 25.1661 35.5259 25.3445 35.5028 25.3731C35.4798 25.4016 35.4336 25.56 35.4005 25.725C35.3673 25.89 35.3108 26.0925 35.275 26.175C35.2393 26.2575 35.184 26.4352 35.1524 26.57C35.1206 26.7049 35.0621 26.8781 35.0224 26.9551C34.9826 27.032 34.95 27.1554 34.95 27.2291C34.95 27.3029 34.9074 27.4334 34.8554 27.5191C34.8034 27.6049 34.7441 27.7534 34.7239 27.8493C34.7035 27.9451 34.6579 28.0689 34.6225 28.1243C34.5871 28.1796 34.5316 28.3256 34.4991 28.4485C34.4668 28.5715 34.4086 28.7171 34.3701 28.7721C34.3315 28.8273 34.2997 28.9179 34.2995 28.9736C34.2992 29.0294 34.2437 29.1875 34.1761 29.325C34.1085 29.4625 34.0517 29.62 34.05 29.675C34.041 29.9617 33.8229 30.0737 33.2381 30.092C32.454 30.1165 32.3262 30.0379 32.1545 29.425C32.1236 29.315 32.065 29.1814 32.0243 29.128C31.9834 29.0745 31.95 28.976 31.95 28.9089C31.95 28.8417 31.9069 28.7166 31.8542 28.6309C31.8015 28.5451 31.7424 28.385 31.7229 28.275C31.7034 28.165 31.6578 28.0409 31.6215 27.9993C31.5854 27.9576 31.5335 27.8339 31.5063 27.7243C31.4539 27.5133 31.3611 27.2319 31.1681 26.6987C31.1031 26.5194 31.05 26.3216 31.05 26.2595C31.05 26.1974 31.0175 26.0966 30.9778 26.0357C30.938 25.9749 30.8815 25.8125 30.8521 25.675C30.8226 25.5375 30.7674 25.3462 30.7291 25.25C30.6909 25.1538 30.6386 24.9962 30.6131 24.9L30.5666 24.725L30.5037 25.025C30.4691 25.19 30.4126 25.37 30.3783 25.425C30.3439 25.48 30.3005 25.6215 30.282 25.7394C30.2634 25.8572 30.2036 26.0369 30.1491 26.1386C30.0946 26.2402 30.05 26.3804 30.05 26.45C30.05 26.5196 30.0079 26.655 29.9565 26.751C29.905 26.847 29.847 27.0197 29.8275 27.1349C29.8081 27.25 29.7626 27.3688 29.7265 27.3988C29.6904 27.4288 29.6466 27.5485 29.6291 27.6649C29.6116 27.7813 29.5531 27.9437 29.499 28.0257C29.4449 28.1079 29.4005 28.2266 29.4004 28.2897C29.4001 28.3529 29.3437 28.5103 29.275 28.6394C29.2062 28.7685 29.15 28.9159 29.15 28.9667C29.15 29.0176 29.105 29.1164 29.05 29.1864C28.995 29.2562 28.95 29.3499 28.9501 29.3943C28.9502 29.5988 28.6759 30.0423 28.5312 30.0713C27.7358 30.2306 27.05 30.0229 27.05 29.6225C27.05 29.5824 27.005 29.4656 26.95 29.363C26.895 29.2605 26.85 29.1421 26.85 29.1C26.85 29.0579 26.808 28.9451 26.7566 28.8493C26.7054 28.7534 26.6461 28.5962 26.625 28.5C26.6039 28.4038 26.5446 28.2466 26.4934 28.1507C26.442 28.0549 26.4 27.9225 26.4 27.8566C26.4 27.7907 26.357 27.6666 26.3044 27.5809C26.2517 27.4951 26.193 27.3178 26.1736 27.1868C26.1543 27.0556 26.096 26.8652 26.0443 26.7636C25.9924 26.662 25.95 26.4965 25.95 26.3958C25.95 26.2951 25.9069 26.1143 25.8541 25.9939C25.8014 25.8735 25.7419 25.6625 25.7218 25.525C25.7018 25.3875 25.6561 25.23 25.6205 25.175C25.5849 25.12 25.5321 24.8864 25.5034 24.6558C25.4746 24.4253 25.4273 24.2078 25.398 24.1725C25.3688 24.1374 25.3234 23.9011 25.2971 23.6476C25.2709 23.3941 25.2159 23.0876 25.1747 22.9666C25.0806 22.6894 25.0748 22.0833 25.1655 22.0079C25.2815 21.9116 26.5629 21.9027 26.6647 21.9975ZM18.05 26.579C17.7887 26.6158 17.3613 26.6681 17.1 26.6954C16.7155 26.7355 16.3 26.8253 16.3 26.8681C16.3 26.8726 16.257 26.994 16.2045 27.1378C15.9561 27.8173 16.1296 28.6151 16.5985 28.9489C16.9725 29.2153 18.0924 29.2155 18.3756 28.9494C18.4339 28.8948 18.5025 28.8496 18.5282 28.8491C18.554 28.8486 18.628 28.7924 18.6928 28.7241C18.7575 28.6559 18.8306 28.6 18.8552 28.6C18.8799 28.6 18.9 28.5754 18.9 28.5454C18.9 28.5154 18.945 28.4336 19 28.3636C19.055 28.2937 19.1 28.198 19.1 28.1509C19.1 28.1039 19.145 28.0134 19.2 27.95C19.255 27.8866 19.3 27.7761 19.3 27.7045C19.3 27.6329 19.3244 27.4958 19.3542 27.3996C19.4314 27.1518 19.5361 26.5527 19.5074 26.5241C19.4608 26.4775 18.5195 26.513 18.05 26.579ZM39.6113 26.7085C39.235 26.7335 38.7586 26.8008 38.5112 26.8638L38.075 26.975L38.0322 27.3424C37.8914 28.5516 38.327 28.9921 39.5451 28.872C39.8125 28.8457 39.9333 28.808 40.0373 28.7186C40.113 28.6535 40.1905 28.6001 40.2094 28.6C40.2811 28.5999 40.6033 28.2195 40.6326 28.1C40.6496 28.0313 40.6946 27.939 40.7327 27.8949C40.7709 27.8509 40.8341 27.6323 40.8734 27.409C40.9126 27.1859 40.9712 26.9536 41.0037 26.8931C41.1355 26.6468 40.9371 26.6205 39.6113 26.7085Z" fill="#F5F5F5"/>
<path fill-rule="evenodd" clip-rule="evenodd" d="M22.864 18.601C22.6919 18.6703 22.6831 18.7964 22.7192 20.6951C22.7802 23.9044 22.81 24.8238 22.8552 24.9093C22.8799 24.9555 22.9 25.23 22.9 25.5193C22.9 26.2238 22.9719 26.5685 23.104 26.4979C23.1569 26.4696 23.2 26.4135 23.2 26.3733C23.2 26.2733 23.431 26.2783 23.4696 26.3791C23.4864 26.4226 23.5 26.5808 23.5 26.7306C23.5 26.9301 23.5206 27.0111 23.5771 27.0328C23.6929 27.0771 23.6875 27.1344 23.7239 25.45C23.7425 24.5838 23.7661 23.65 23.7762 23.375C23.8604 21.0893 23.8631 18.8025 23.7819 18.6785C23.6916 18.5408 23.1312 18.4935 22.864 18.601ZM7.36249 19.7866C7.18549 19.8025 7.14999 19.8234 7.14999 19.9115C7.14999 20.1569 7.90512 21.8714 8.15349 22.1899C8.20274 22.253 8.25762 22.3711 8.27549 22.4524C8.29337 22.5335 8.32837 22.6 8.35324 22.6C8.37824 22.6 8.43387 22.6731 8.47699 22.7625C8.60299 23.0238 8.72049 23.2218 8.83912 23.3726C8.90012 23.4501 8.94999 23.55 8.94999 23.5948C8.94999 23.6394 8.99499 23.704 9.04999 23.7384C9.10499 23.7728 9.14999 23.8309 9.14999 23.8676C9.14999 23.9044 9.19437 23.9748 9.24874 24.0239C9.30299 24.073 9.36237 24.1609 9.38049 24.2191C9.39874 24.2774 9.45649 24.37 9.50874 24.425C9.72874 24.6561 9.84999 24.8189 9.84999 24.8828C9.84999 24.9203 9.89499 24.9895 9.94999 25.0366C10.005 25.0838 10.05 25.1418 10.05 25.1656C10.05 25.1895 10.1569 25.3341 10.2875 25.4869L10.525 25.7648L10.55 26.6949C10.567 27.3263 10.5882 27.573 10.6164 27.4631C10.6391 27.374 10.6785 27.2883 10.7039 27.2726C10.7292 27.2569 10.75 27.0879 10.75 26.897V26.55H11H11.25V26.8941C11.25 27.1905 11.2632 27.2418 11.3452 27.2633C11.4435 27.289 11.4796 27.0431 11.515 26.1086C11.522 25.9213 11.5509 25.8233 11.6125 25.7781C11.6606 25.7429 11.7 25.6889 11.7 25.6581C11.7 25.6274 11.7562 25.5655 11.825 25.5204C11.8937 25.4754 11.95 25.3969 11.95 25.346C11.95 25.2951 11.9947 25.2296 12.0494 25.2004C12.1041 25.171 12.1629 25.0909 12.1801 25.0223C12.1974 24.9535 12.2539 24.8746 12.3057 24.8469C12.3576 24.8191 12.4 24.7534 12.4 24.7008C12.4 24.648 12.4281 24.587 12.4625 24.565C12.5435 24.5133 12.85 24.1181 12.8501 24.0654C12.8501 24.0433 12.9391 23.9013 13.0477 23.75C13.1565 23.5988 13.2909 23.385 13.3465 23.275C13.4449 23.0804 13.4845 23.0133 13.6591 22.7473C13.7882 22.5504 14.2 21.7449 14.2 21.689C14.2 21.6618 14.2562 21.5726 14.325 21.4909C14.3937 21.4091 14.45 21.3004 14.45 21.249C14.45 21.1978 14.4929 21.0813 14.5451 20.9904C14.5975 20.8994 14.6561 20.7491 14.6755 20.6564C14.6949 20.5635 14.7505 20.4173 14.7994 20.3314C15.0602 19.8714 14.9664 19.75 14.35 19.75C13.8377 19.75 13.55 19.9498 13.55 20.3055C13.55 20.3383 13.4912 20.491 13.4195 20.645C13.3476 20.799 13.2589 20.9925 13.2221 21.075C13.1854 21.1575 13.0979 21.353 13.0276 21.5094C12.9575 21.6659 12.9 21.8143 12.9 21.8391C12.9 21.8641 12.855 21.9253 12.8 21.975C12.745 22.0248 12.7 22.1026 12.7 22.148C12.7 22.1934 12.6437 22.3069 12.575 22.4C12.5062 22.4931 12.45 22.596 12.45 22.6286C12.45 22.6611 12.4177 22.7146 12.3782 22.7474C12.3387 22.7801 12.2925 22.8705 12.2754 22.9483C12.2582 23.026 12.2006 23.1293 12.1471 23.1776C12.0937 23.2259 12.05 23.2981 12.05 23.338C12.05 23.3779 11.9937 23.4774 11.925 23.5591C11.8562 23.6409 11.8 23.7421 11.8 23.7841C11.8 23.8545 11.6572 24.0609 11.4747 24.2543C11.4336 24.2978 11.3992 24.3653 11.3984 24.4043C11.396 24.5114 11.2816 24.6405 11.1417 24.6936C10.9742 24.7574 10.9545 24.7406 10.7111 24.3296C10.6637 24.2498 10.5861 24.1434 10.5386 24.0934C10.4911 24.0433 10.4172 23.9286 10.3744 23.8386C10.2347 23.5455 10.1412 23.3913 10.0447 23.2948C9.99262 23.2426 9.94999 23.1564 9.94999 23.103C9.94999 23.0496 9.92499 22.9904 9.89437 22.9715C9.86374 22.9526 9.79549 22.8444 9.74274 22.731C9.63912 22.5083 9.57824 22.3996 9.43949 22.1895C9.39024 22.115 9.34999 22.0208 9.34999 21.98C9.34999 21.9394 9.24874 21.7109 9.12499 21.4723C9.00124 21.2338 8.89999 21.0104 8.89999 20.976C8.89999 20.9416 8.85499 20.8563 8.79999 20.7864C8.74499 20.7164 8.69999 20.6281 8.69999 20.5901C8.69999 20.5523 8.65449 20.432 8.59874 20.3231C8.54312 20.2141 8.47474 20.0406 8.44687 19.9375L8.39612 19.75L7.98562 19.7588C7.75974 19.7635 7.47937 19.7761 7.36249 19.7866ZM17.3112 21.9006C17.2487 21.9265 16.9941 21.9804 16.7455 22.0205C16.4969 22.0605 16.2667 22.1133 16.2342 22.1379C16.2016 22.1624 16.0765 22.2108 15.956 22.2453L15.737 22.3079L15.7681 22.5665C15.7851 22.7086 15.7994 22.9214 15.7996 23.0391C15.8001 23.307 15.898 23.3568 16.1461 23.2154C16.2445 23.1594 16.4309 23.098 16.5602 23.079C16.6897 23.06 16.8697 23.0064 16.9602 22.9598C17.2005 22.8361 18.4955 22.8353 18.6322 22.9586C18.6832 23.0046 18.7816 23.0564 18.8507 23.0736C18.9652 23.1021 19.2195 23.3211 19.4736 23.6101C19.6252 23.7825 19.7065 24.8725 19.6089 25.425L19.5735 25.625L18.7742 25.652C18.2902 25.6683 17.9317 25.7029 17.8652 25.7398C17.8049 25.7731 17.4824 25.8153 17.1485 25.8331C16.572 25.8641 16.5392 25.8718 16.497 25.9829C16.4605 26.0789 16.4162 26.1 16.2512 26.1C16.0834 26.1 16.05 26.1166 16.05 26.2C16.05 26.2831 16.0834 26.3 16.2482 26.3C16.3952 26.3 16.4602 26.2741 16.5 26.2C16.531 26.1421 16.6047 26.1 16.675 26.1C16.7452 26.1 16.819 26.1421 16.85 26.2C16.8806 26.2573 16.9547 26.3 17.0234 26.3C17.0994 26.3 17.1549 26.2634 17.175 26.2C17.2054 26.1041 17.2456 26.1005 18.1409 26.1113L19.075 26.1225L18.2136 26.1374C17.4151 26.1513 17.3484 26.1596 17.2994 26.2511C17.2474 26.3484 17.2667 26.35 18.4482 26.35H19.65V26.7036C19.65 27.0135 19.6609 27.0553 19.7375 27.0408C19.9402 27.0021 19.8829 26.5238 19.6486 26.2986L19.4419 26.1H19.7925C20.0994 26.1 20.1472 26.1125 20.175 26.2C20.2105 26.3119 20.35 26.3376 20.35 26.2323C20.35 26.1951 20.4029 26.1076 20.4675 26.0379C20.6871 25.8009 20.7064 23.6799 20.4927 23.2608C20.4417 23.1608 20.3999 23.0555 20.3997 23.0269C20.3994 22.9219 19.842 22.354 19.6121 22.2245C19.0964 21.9339 17.7045 21.7379 17.3112 21.9006ZM15.65 26.4518C15.65 26.538 15.6652 26.5454 15.75 26.5C15.805 26.4706 15.85 26.4248 15.85 26.3983C15.85 26.3718 15.805 26.35 15.75 26.35C15.6827 26.35 15.65 26.3834 15.65 26.4518ZM16.222 26.424C16.0644 26.5444 16.2169 26.5946 16.6457 26.5638C17.0734 26.5329 17.0734 26.5329 17.0327 26.4271C16.9919 26.3206 16.3607 26.3183 16.222 26.424ZM20.2316 26.414C20.1075 26.5048 20.1327 27.016 20.2625 27.0408C20.3391 27.0553 20.35 27.0135 20.35 26.7036C20.35 26.5091 20.343 26.35 20.3345 26.35C20.3261 26.35 20.2797 26.3788 20.2316 26.414ZM23 26.8441C23 26.8704 22.9856 26.9294 22.968 26.9753C22.9429 27.0408 22.9609 27.0551 23.0515 27.0419C23.2047 27.0195 23.2315 26.9204 23.103 26.8516C23.0429 26.8195 23 26.8164 23 26.8441Z" fill="#4F91CC"/>
<path fill-rule="evenodd" clip-rule="evenodd" d="M22.6936 18.5329C22.622 18.6195 22.6167 21.6503 22.678 27.525C22.707 30.3008 22.6476 30.05 23.275 30.05C23.9472 30.05 23.8668 30.7816 23.9104 24.2704C23.9451 19.0856 23.9416 18.6236 23.8664 18.5404C23.75 18.4119 22.7987 18.4058 22.6936 18.5329ZM23.7819 18.6785C23.8631 18.8025 23.8604 21.0893 23.7763 23.375C23.7661 23.65 23.7425 24.5838 23.7239 25.45C23.6875 27.1344 23.6929 27.0771 23.5771 27.0328C23.5206 27.0111 23.5 26.9301 23.5 26.7306C23.5 26.5808 23.4864 26.4226 23.4696 26.3791C23.431 26.2783 23.2 26.2733 23.2 26.3733C23.2 26.4135 23.1569 26.4696 23.104 26.4979C22.9719 26.5685 22.9 26.2238 22.9 25.5193C22.9 25.23 22.8799 24.9555 22.8552 24.9093C22.81 24.8238 22.7802 23.9044 22.7192 20.6951C22.6761 18.4331 22.6399 18.5593 23.3364 18.5531C23.6709 18.5503 23.704 18.5595 23.7819 18.6785ZM7.825 19.65C7.7425 19.671 7.55962 19.6909 7.41862 19.6941C7.2585 19.6978 7.139 19.728 7.10037 19.7745C7.0225 19.8684 7.075 20.267 7.17612 20.3509C7.21525 20.3835 7.26275 20.492 7.2815 20.5921C7.30025 20.6923 7.365 20.8669 7.42525 20.9801C7.48537 21.0935 7.54875 21.2286 7.56587 21.2806C7.583 21.3325 7.61762 21.4088 7.64262 21.45C7.66762 21.4913 7.77137 21.6994 7.873 21.9125C7.97475 22.1256 8.07762 22.3 8.10175 22.3C8.12575 22.3 8.16037 22.3794 8.1785 22.4764C8.19675 22.5734 8.254 22.6754 8.30587 22.7031C8.35762 22.7309 8.4 22.796 8.4 22.8479C8.4 22.8999 8.45625 23.0091 8.525 23.0909C8.59375 23.1726 8.65 23.2634 8.65 23.2925C8.65 23.3519 8.85187 23.6781 8.97187 23.8125C9.01487 23.8606 9.05 23.9169 9.05012 23.9375C9.05012 23.9581 9.14025 24.0988 9.25037 24.25C9.3605 24.4013 9.4845 24.5981 9.526 24.6875C9.56737 24.7769 9.62312 24.85 9.64975 24.85C9.67637 24.85 9.71237 24.9068 9.72975 24.9761C9.74712 25.0455 9.79825 25.1303 9.84325 25.1644C9.88825 25.1986 9.9535 25.2711 9.98825 25.3258C10.023 25.3804 10.0945 25.4925 10.1471 25.575C10.1997 25.6575 10.2772 25.7598 10.3192 25.8021C10.3846 25.8681 10.3986 26.171 10.416 27.8834C10.4272 28.9858 10.452 29.9129 10.4711 29.9438C10.5102 30.007 11.538 30.0229 11.6305 29.9618C11.6872 29.9243 11.7776 27.3516 11.7547 26.425C11.7436 25.9745 11.8334 25.6 11.9522 25.6C11.9802 25.6 12.0174 25.5606 12.0347 25.5125C12.052 25.4644 12.0976 25.3913 12.1359 25.35C12.1741 25.3088 12.2824 25.153 12.3764 25.0038C12.4704 24.8546 12.5655 24.7196 12.5877 24.7038C12.6511 24.6588 12.95 24.1723 12.95 24.1143C12.95 24.0856 12.985 24.0331 13.0279 23.9976C13.0707 23.962 13.1371 23.858 13.1754 23.7665C13.2136 23.6749 13.2664 23.6 13.2925 23.6C13.3187 23.6 13.3646 23.5381 13.3945 23.4625C13.4242 23.3869 13.5159 23.2125 13.598 23.075C13.6801 22.9375 13.7812 22.7534 13.8229 22.6659C13.8645 22.5784 13.9207 22.4931 13.9479 22.4764C13.975 22.4595 14.0239 22.3568 14.0565 22.2479C14.0891 22.139 14.133 22.05 14.154 22.05C14.175 22.05 14.2197 21.9656 14.2534 21.8625C14.287 21.7594 14.3562 21.6214 14.4072 21.5558C14.4582 21.4901 14.5007 21.4114 14.5016 21.3808C14.5024 21.3501 14.5585 21.2125 14.6261 21.075C14.6937 20.9375 14.7492 20.7968 14.7495 20.7624C14.7497 20.7279 14.795 20.6156 14.85 20.513C14.905 20.4105 14.95 20.2693 14.95 20.1994C14.95 20.1295 14.9815 20.0273 15.02 19.9723C15.1764 19.749 15.0164 19.675 14.3769 19.675C13.7277 19.675 13.5909 19.7416 13.5256 20.0889C13.5071 20.1881 13.4512 20.3494 13.4016 20.4473C13.352 20.545 13.2536 20.7488 13.1831 20.9C13.1125 21.0513 12.9974 21.2975 12.9274 21.4474C12.8574 21.5971 12.8 21.749 12.8 21.7849C12.8 21.8206 12.7797 21.85 12.7549 21.85C12.7301 21.85 12.6859 21.9185 12.6566 22.0024C12.6275 22.0861 12.5577 22.2129 12.5017 22.2841C12.4457 22.3553 12.4 22.452 12.4 22.499C12.4 22.546 12.3562 22.6241 12.3029 22.6724C12.2494 22.7208 12.1914 22.8255 12.1739 22.9051C12.1564 22.9849 12.1205 23.05 12.0942 23.05C12.068 23.05 12.0012 23.1456 11.946 23.2625C11.7907 23.5911 11.6887 23.7723 11.6409 23.8038C11.5926 23.8356 11.2502 24.3559 11.2496 24.3984C11.2494 24.413 11.1939 24.4506 11.1262 24.482C10.9975 24.5418 10.9947 24.539 10.7246 24.0991C10.697 24.0541 10.6351 23.978 10.5871 23.93C10.5392 23.8821 10.5 23.8108 10.5 23.7714C10.5 23.7321 10.4606 23.6588 10.4125 23.6083C10.3106 23.5015 10.1855 23.2974 10.0702 23.05C10.0255 22.9538 9.97137 22.8638 9.95 22.85C9.92862 22.8363 9.87412 22.7463 9.82887 22.65C9.652 22.2744 9.503 22.0078 9.45262 21.9766C9.42375 21.9588 9.4 21.8891 9.4 21.822C9.4 21.7549 9.36012 21.6601 9.31125 21.6113C9.2625 21.5625 9.19412 21.4275 9.15925 21.3113C9.1245 21.1951 9.07525 21.1 9.04987 21.1C9.02462 21.1 8.97837 21.0044 8.94725 20.8875C8.91612 20.7706 8.86075 20.6413 8.82425 20.6C8.78775 20.5588 8.74175 20.4575 8.72212 20.375C8.7025 20.2925 8.657 20.1688 8.62087 20.1C8.58487 20.0313 8.51787 19.8906 8.472 19.7875C8.3825 19.5863 8.21537 19.5506 7.825 19.65ZM8.44687 19.9375C8.47475 20.0406 8.54312 20.2141 8.59875 20.3231C8.6545 20.432 8.7 20.5523 8.7 20.5901C8.7 20.6281 8.745 20.7164 8.8 20.7864C8.855 20.8563 8.9 20.9416 8.9 20.976C8.9 21.0104 9.00125 21.2338 9.125 21.4723C9.24875 21.7109 9.35 21.9394 9.35 21.98C9.35 22.0208 9.39025 22.115 9.4395 22.1895C9.57825 22.3996 9.63912 22.5083 9.74275 22.731C9.7955 22.8444 9.86375 22.9526 9.89437 22.9715C9.925 22.9904 9.95 23.0496 9.95 23.103C9.95 23.1564 9.99262 23.2426 10.0447 23.2948C10.1412 23.3913 10.2347 23.5455 10.3744 23.8386C10.4172 23.9286 10.4911 24.0433 10.5386 24.0934C10.5861 24.1434 10.6637 24.2498 10.7111 24.3296C10.9545 24.7406 10.9742 24.7574 11.1417 24.6936C11.2816 24.6405 11.396 24.5114 11.3984 24.4043C11.3992 24.3653 11.4336 24.2978 11.4747 24.2543C11.6572 24.0609 11.8 23.8545 11.8 23.7841C11.8 23.7421 11.8562 23.6409 11.925 23.5591C11.9937 23.4774 12.05 23.3779 12.05 23.338C12.05 23.2981 12.0937 23.2259 12.1471 23.1776C12.2006 23.1293 12.2582 23.026 12.2754 22.9483C12.2925 22.8705 12.3387 22.7801 12.3782 22.7474C12.4177 22.7146 12.45 22.6611 12.45 22.6286C12.45 22.596 12.5062 22.4931 12.575 22.4C12.6437 22.3069 12.7 22.1934 12.7 22.148C12.7 22.1026 12.745 22.0248 12.8 21.975C12.855 21.9253 12.9 21.8641 12.9 21.8391C12.9 21.8143 12.9575 21.6659 13.0276 21.5094C13.0979 21.353 13.1854 21.1575 13.2221 21.075C13.2589 20.9925 13.3476 20.799 13.4195 20.645C13.4912 20.491 13.55 20.3383 13.55 20.3055C13.55 19.9498 13.8377 19.75 14.35 19.75C14.9664 19.75 15.0602 19.8714 14.7994 20.3314C14.7505 20.4173 14.6949 20.5635 14.6755 20.6564C14.6561 20.7491 14.5975 20.8994 14.5451 20.9904C14.4929 21.0813 14.45 21.1978 14.45 21.249C14.45 21.3004 14.3937 21.4091 14.325 21.4909C14.2562 21.5726 14.2 21.6618 14.2 21.689C14.2 21.7449 13.7882 22.5504 13.6591 22.7473C13.4845 23.0133 13.4449 23.0804 13.3465 23.275C13.2909 23.385 13.1565 23.5988 13.0477 23.75C12.9391 23.9013 12.8501 24.0433 12.8501 24.0654C12.85 24.1181 12.5435 24.5133 12.4625 24.565C12.4281 24.587 12.4 24.648 12.4 24.7008C12.4 24.7534 12.3576 24.8191 12.3057 24.8469C12.2539 24.8746 12.1974 24.9535 12.1801 25.0223C12.1629 25.0909 12.1041 25.171 12.0494 25.2004C11.9947 25.2296 11.95 25.2951 11.95 25.346C11.95 25.3969 11.8937 25.4754 11.825 25.5204C11.7562 25.5655 11.7 25.6274 11.7 25.6581C11.7 25.6889 11.6606 25.7429 11.6125 25.7781C11.5509 25.8233 11.522 25.9213 11.515 26.1086C11.4796 27.0431 11.4435 27.289 11.3452 27.2633C11.2632 27.2418 11.25 27.1905 11.25 26.8941V26.55H11H10.75V26.897C10.75 27.0879 10.7292 27.2569 10.7039 27.2726C10.6785 27.2883 10.6391 27.374 10.6164 27.4631C10.5882 27.573 10.567 27.3263 10.55 26.6949L10.525 25.7648L10.2875 25.4869C10.1569 25.3341 10.05 25.1895 10.05 25.1656C10.05 25.1418 10.005 25.0838 9.95 25.0366C9.895 24.9895 9.85 24.9203 9.85 24.8828C9.85 24.8189 9.72875 24.6561 9.50875 24.425C9.4565 24.37 9.39875 24.2774 9.3805 24.2191C9.36237 24.1609 9.303 24.073 9.24875 24.0239C9.19437 23.9748 9.15 23.9044 9.15 23.8676C9.15 23.8309 9.105 23.7728 9.05 23.7384C8.995 23.704 8.95 23.6394 8.95 23.5948C8.95 23.55 8.90012 23.4501 8.83912 23.3726C8.7205 23.2218 8.603 23.0238 8.477 22.7625C8.43387 22.6731 8.37825 22.6 8.35325 22.6C8.32837 22.6 8.29337 22.5335 8.2755 22.4524C8.25762 22.3711 8.20275 22.253 8.1535 22.1899C7.90512 21.8714 7.15 20.1569 7.15 19.9115C7.15 19.7924 7.24825 19.7744 7.98562 19.7588L8.39612 19.75L8.44687 19.9375ZM17.0936 21.7984C16.9662 21.8213 16.8159 21.8648 16.7594 21.895C16.7029 21.9253 16.582 21.9506 16.4907 21.9514C15.9417 21.956 15.4886 22.3434 15.6152 22.6998C15.6619 22.831 15.7 23.017 15.7 23.1131C15.7 23.4039 16.0492 23.5019 16.2945 23.28C16.3396 23.2391 16.5337 23.1808 16.7259 23.1503C16.9179 23.1198 17.1714 23.0621 17.2892 23.0224C17.9357 22.804 19.1095 23.1544 19.3076 23.625C19.3424 23.7075 19.3985 23.8034 19.4324 23.8381C19.5679 23.9768 19.5951 25.3249 19.4651 25.4549C19.4279 25.4921 19.0174 25.5254 18.2914 25.5498C17.6774 25.5705 17.1129 25.6123 17.0369 25.6428C16.9609 25.6731 16.761 25.7203 16.5926 25.7474C16.4244 25.7744 16.2502 25.8286 16.2059 25.8678C16.1614 25.9069 16.0542 25.9539 15.9676 25.9723C15.8811 25.9906 15.7707 26.0494 15.7224 26.1029C15.6741 26.1563 15.6057 26.2 15.5706 26.2C15.4929 26.2 15.2155 26.5403 15.0336 26.8589C14.855 27.1715 14.8332 28.3799 15 28.725C15.0531 28.835 15.0977 28.9475 15.0991 28.975C15.1137 29.2723 15.841 29.9023 16.3684 30.0744C17.0511 30.2973 18.1387 30.2063 18.5442 29.8924C18.6099 29.8415 18.6927 29.8 18.7286 29.8C18.7645 29.8 18.9869 29.6078 19.223 29.3728C19.719 28.879 19.7233 28.879 19.804 29.3795C19.9138 30.0604 20.0581 30.145 20.875 30.0075C21.1101 29.9679 21.1709 29.7341 21.0321 29.4035C20.991 29.3054 20.9436 29.1264 20.927 29.0058C20.9102 28.8853 20.8535 28.6265 20.8008 28.4308C20.5743 27.5905 20.5554 27.3853 20.6409 26.7C20.8452 25.0643 20.8171 23.5843 20.5727 23.1186C20.3477 22.69 19.9259 22.224 19.7125 22.1685C19.6506 22.1524 19.6 22.1228 19.6 22.1026C19.6 22.0489 19.3627 21.95 19.2337 21.95C19.1724 21.95 19.0666 21.9106 18.9986 21.8625C18.8589 21.7636 17.5346 21.719 17.0936 21.7984ZM19.025 21.9884C19.5947 22.1553 20.3986 22.7626 20.3997 23.0269C20.3999 23.0555 20.4417 23.1608 20.4927 23.2608C20.7064 23.6799 20.6871 25.8009 20.4675 26.0379C20.4029 26.1076 20.35 26.1951 20.35 26.2323C20.35 26.3376 20.2105 26.3119 20.175 26.2C20.1472 26.1125 20.0994 26.1 19.7925 26.1H19.4419L19.6486 26.2986C19.8829 26.5238 19.9402 27.0021 19.7375 27.0408C19.6609 27.0553 19.65 27.0135 19.65 26.7036V26.35H18.4482C17.2667 26.35 17.2474 26.3484 17.2994 26.2511C17.3484 26.1596 17.4151 26.1513 18.2136 26.1374L19.075 26.1225L18.1409 26.1113C17.2456 26.1005 17.2054 26.1041 17.175 26.2C17.1549 26.2634 17.0994 26.3 17.0234 26.3C16.9547 26.3 16.8806 26.2573 16.85 26.2C16.819 26.1421 16.7452 26.1 16.675 26.1C16.6047 26.1 16.531 26.1421 16.5 26.2C16.4602 26.2741 16.3952 26.3 16.2482 26.3C16.0834 26.3 16.05 26.2831 16.05 26.2C16.05 26.1166 16.0834 26.1 16.2512 26.1C16.4162 26.1 16.4605 26.0789 16.497 25.9829C16.5392 25.8718 16.572 25.8641 17.1485 25.8331C17.4824 25.8153 17.8049 25.7731 17.8652 25.7398C17.9317 25.7029 18.2902 25.6683 18.7742 25.652L19.5735 25.625L19.6089 25.425C19.7065 24.8725 19.6252 23.7825 19.4736 23.6101C19.2195 23.3211 18.9652 23.1021 18.8507 23.0736C18.7816 23.0564 18.6832 23.0046 18.6322 22.9586C18.4955 22.8353 17.2005 22.8361 16.9602 22.9598C16.8697 23.0064 16.6897 23.06 16.5602 23.079C16.4309 23.098 16.2445 23.1594 16.1461 23.2154C15.898 23.3568 15.8001 23.307 15.7996 23.0391C15.7994 22.9214 15.7851 22.7086 15.7681 22.5665L15.737 22.3079L15.956 22.2453C16.0765 22.2108 16.2016 22.1624 16.2342 22.1379C16.2667 22.1133 16.4969 22.0605 16.7455 22.0205C16.9941 21.9804 17.2487 21.9265 17.3112 21.9006C17.5134 21.817 18.6365 21.8745 19.025 21.9884ZM15.85 26.3983C15.85 26.4248 15.805 26.4706 15.75 26.5C15.6652 26.5454 15.65 26.538 15.65 26.4518C15.65 26.3834 15.6827 26.35 15.75 26.35C15.805 26.35 15.85 26.3718 15.85 26.3983ZM17.0327 26.4271C17.0734 26.5329 17.0734 26.5329 16.6457 26.5638C16.2169 26.5946 16.0644 26.5444 16.222 26.424C16.3607 26.3183 16.9919 26.3206 17.0327 26.4271ZM20.35 26.7036C20.35 27.0135 20.3391 27.0553 20.2625 27.0408C20.0715 27.0044 20.1397 26.35 20.3345 26.35C20.343 26.35 20.35 26.5091 20.35 26.7036ZM19.5074 26.5241C19.5361 26.5528 19.4314 27.1518 19.3542 27.3996C19.3244 27.4958 19.3 27.6329 19.3 27.7045C19.3 27.7761 19.255 27.8866 19.2 27.95C19.145 28.0134 19.1 28.1039 19.1 28.1509C19.1 28.198 19.055 28.2938 19 28.3636C18.945 28.4336 18.9 28.5154 18.9 28.5454C18.9 28.5754 18.8799 28.6 18.8552 28.6C18.8306 28.6 18.7575 28.6559 18.6927 28.7241C18.628 28.7924 18.554 28.8486 18.5282 28.8491C18.5025 28.8496 18.4339 28.8948 18.3756 28.9494C18.0924 29.2155 16.9725 29.2153 16.5985 28.9489C16.1296 28.6151 15.9561 27.8173 16.2045 27.1378C16.257 26.994 16.3 26.8726 16.3 26.8681C16.3 26.8253 16.7155 26.7355 17.1 26.6954C17.3612 26.6681 17.7887 26.6158 18.05 26.579C18.5195 26.513 19.4607 26.4775 19.5074 26.5241ZM23.1866 26.9659C23.1759 26.9984 23.1151 27.0326 23.0515 27.0419C22.9609 27.0551 22.9429 27.0408 22.968 26.9753C22.9856 26.9294 23 26.8704 23 26.8441C23 26.8164 23.0429 26.8195 23.103 26.8516C23.1598 26.882 23.1974 26.9334 23.1866 26.9659Z" fill="#8AC7EE"/>
<path fill-rule="evenodd" clip-rule="evenodd" d="M38.7482 21.7961C38.6511 21.8151 38.5425 21.8488 38.507 21.8708C38.4714 21.8926 38.3034 21.9281 38.1336 21.9494C37.9639 21.9708 37.69 22.0528 37.525 22.1316L37.225 22.275L37.2287 22.525C37.2452 23.6356 37.3629 23.7895 37.975 23.5011C38.6026 23.2054 39.7775 23.1245 40.251 23.3444C40.5637 23.4896 40.8 23.6538 40.8 23.7258C40.8 23.7449 40.857 23.8739 40.9266 24.0126C41.042 24.2423 41.052 24.3118 41.0391 24.793L41.025 25.3214L40.85 25.3585C40.7537 25.3789 40.1841 25.43 39.5841 25.4721C38.9227 25.5184 38.4305 25.576 38.3341 25.6184C38.2466 25.6568 38.0474 25.7146 37.8914 25.7469C37.7354 25.7791 37.5807 25.838 37.5477 25.8778C37.5147 25.9175 37.4511 25.9501 37.4064 25.9503C37.2562 25.9509 36.6 26.6368 36.6 26.7931C36.6 26.8396 36.5606 26.9334 36.5125 27.0014C36.3865 27.1794 36.3846 28.3513 36.5099 28.6039C36.5566 28.698 36.6072 28.8353 36.6225 28.909C36.6377 28.9828 36.6839 29.0768 36.7251 29.1179C36.7662 29.1591 36.8 29.2199 36.8 29.2529C36.8 29.3314 37.3491 29.85 37.4322 29.85C37.4676 29.85 37.5206 29.895 37.55 29.95C37.5832 30.0121 37.6549 30.0501 37.7392 30.0503C37.8139 30.0505 37.941 30.085 38.0216 30.1271C38.3676 30.3075 39.3501 30.3339 39.65 30.1709C39.7187 30.1335 39.868 30.0796 39.9816 30.0511C40.0954 30.0226 40.2162 29.9658 40.2502 29.9246C40.2844 29.8836 40.34 29.85 40.3739 29.85C40.4362 29.85 40.5211 29.7795 40.9825 29.3444C41.2694 29.0739 41.3 29.0874 41.3 29.484C41.3 29.9995 41.5124 30.1768 42.039 30.1006C42.2237 30.0739 42.4791 30.0515 42.6064 30.051C42.9611 30.0495 43.0739 29.6699 42.8324 29.2898C42.7922 29.2266 42.7441 29.0369 42.7255 28.8681C42.7067 28.6994 42.6609 28.5023 42.6234 28.43C42.4609 28.1169 42.4321 27.5354 42.5002 25.9448C42.5746 24.2096 42.5534 23.6418 42.4021 23.3294C42.346 23.2134 42.3 23.0938 42.3 23.0635C42.3 22.9639 41.6141 22.2009 41.5241 22.2003C41.4961 22.2001 41.3904 22.1438 41.2892 22.075C41.1881 22.0063 41.0647 21.9493 41.0151 21.9483C40.9656 21.9474 40.835 21.9031 40.725 21.85C40.5156 21.7489 39.1757 21.7124 38.7482 21.7961ZM40.3516 21.9263C40.502 21.9683 40.715 22.0161 40.825 22.0328C40.935 22.0493 41.07 22.1024 41.125 22.1506C41.18 22.199 41.2812 22.2551 41.35 22.2755C41.4187 22.2958 41.51 22.349 41.5529 22.3938C41.5956 22.4384 41.6969 22.5323 41.7779 22.6024C41.9869 22.7833 42.1339 23.0046 42.1949 23.2303C42.2239 23.3374 42.2847 23.478 42.3304 23.5429C42.4486 23.7113 42.4417 26.1033 42.3221 26.3895C42.2142 26.6478 42.2057 27.5996 42.3099 27.76C42.351 27.8233 42.4001 28.029 42.4191 28.2171C42.4381 28.4053 42.4867 28.6096 42.5272 28.6714C42.5676 28.733 42.6212 28.9474 42.6464 29.1479C42.6716 29.3483 42.7164 29.5364 42.7461 29.5661C42.7757 29.5958 42.8 29.6943 42.8 29.785V29.95L42.375 29.9598C42.1412 29.9651 41.8794 29.9708 41.793 29.9723C41.6999 29.9739 41.6219 29.9445 41.6014 29.9C41.5824 29.8588 41.5294 29.75 41.4834 29.6585C41.4375 29.5669 41.4 29.4251 41.4 29.3435C41.4 29.0891 41.2607 28.8733 41.1587 28.9694C41.1126 29.0128 40.9257 29.1935 40.7434 29.371C40.561 29.5485 40.336 29.7284 40.2434 29.7709C40.1507 29.8133 40.0412 29.8684 40 29.8933C39.622 30.121 38.932 30.1876 38.375 30.05C38.155 29.9956 37.9366 29.9509 37.8897 29.9506C37.709 29.9494 36.9775 29.3658 36.9176 29.175C36.9004 29.12 36.8444 29.0214 36.7931 28.9558C36.7419 28.8901 36.7 28.7844 36.7 28.7208C36.7 28.657 36.6662 28.4753 36.625 28.3169C36.5307 27.955 36.5301 27.5343 36.6235 27.275C36.6631 27.165 36.6966 27.0058 36.6977 26.9211C36.7002 26.7511 37.3424 26.0501 37.4961 26.0499C37.5395 26.0498 37.6495 26.0043 37.7405 25.9488C37.833 25.8924 38.0425 25.8343 38.2155 25.8169C38.3857 25.7999 38.5925 25.75 38.675 25.7059C38.7944 25.6421 39.0467 25.6206 39.9104 25.6004C41.2466 25.5691 41.1465 25.642 41.1475 24.7C41.1484 23.8684 40.9791 23.5436 40.3785 23.2243C40.0832 23.0673 38.7991 23.0359 38.525 23.1789C38.4425 23.222 38.2641 23.2783 38.1285 23.304C37.9929 23.3298 37.843 23.3861 37.7954 23.4291C37.6115 23.5956 37.4287 23.5031 37.3919 23.225C37.2907 22.4618 37.3397 22.25 37.6174 22.25C37.6774 22.25 37.8105 22.205 37.913 22.15C38.0156 22.095 38.1866 22.05 38.293 22.05C38.3994 22.05 38.6075 22.0246 38.7556 21.9936C39.512 21.8353 39.9579 21.8164 40.3516 21.9263ZM25.778 21.937C25.4771 21.9461 25.2015 21.978 25.1655 22.0079C25.0747 22.0833 25.0806 22.6894 25.1747 22.9666C25.2159 23.0876 25.2709 23.3941 25.2971 23.6476C25.3234 23.9011 25.3687 24.1374 25.398 24.1725C25.4272 24.2078 25.4746 24.4253 25.5034 24.6558C25.5321 24.8864 25.5849 25.12 25.6205 25.175C25.6561 25.23 25.7017 25.3875 25.7217 25.525C25.7419 25.6625 25.8014 25.8735 25.8541 25.9939C25.9069 26.1143 25.95 26.2951 25.95 26.3958C25.95 26.4965 25.9924 26.662 26.0442 26.7636C26.096 26.8653 26.1542 27.0556 26.1736 27.1868C26.193 27.3178 26.2517 27.4951 26.3044 27.5809C26.357 27.6666 26.4 27.7908 26.4 27.8566C26.4 27.9225 26.442 28.0549 26.4934 28.1508C26.5446 28.2466 26.6039 28.4038 26.625 28.5C26.6461 28.5963 26.7054 28.7534 26.7566 28.8493C26.808 28.9451 26.85 29.0579 26.85 29.1C26.85 29.1421 26.895 29.2605 26.95 29.363C27.005 29.4656 27.05 29.5824 27.05 29.6225C27.05 30.0229 27.7357 30.2306 28.5312 30.0713C28.6759 30.0423 28.9502 29.5988 28.9501 29.3943C28.95 29.3499 28.995 29.2563 29.05 29.1864C29.105 29.1164 29.15 29.0176 29.15 28.9668C29.15 28.9159 29.2062 28.7685 29.275 28.6394C29.3437 28.5103 29.4001 28.3529 29.4004 28.2898C29.4005 28.2266 29.4449 28.1079 29.499 28.0258C29.5531 27.9438 29.6116 27.7813 29.6291 27.6649C29.6466 27.5485 29.6904 27.4288 29.7265 27.3988C29.7626 27.3688 29.8081 27.25 29.8275 27.1349C29.847 27.0198 29.905 26.847 29.9565 26.751C30.0079 26.655 30.05 26.5196 30.05 26.45C30.05 26.3804 30.0946 26.2403 30.1491 26.1386C30.2036 26.0369 30.2634 25.8573 30.282 25.7394C30.3005 25.6215 30.3439 25.48 30.3782 25.425C30.4126 25.37 30.4691 25.19 30.5037 25.025L30.5666 24.725L30.6131 24.9C30.6386 24.9963 30.6909 25.1538 30.7291 25.25C30.7674 25.3463 30.8226 25.5375 30.8521 25.675C30.8815 25.8125 30.938 25.9749 30.9777 26.0358C31.0175 26.0966 31.05 26.1974 31.05 26.2595C31.05 26.3216 31.1031 26.5194 31.1681 26.6988C31.3611 27.2319 31.4539 27.5133 31.5062 27.7243C31.5335 27.8339 31.5854 27.9576 31.6215 27.9993C31.6577 28.0409 31.7034 28.165 31.7229 28.275C31.7424 28.385 31.8015 28.5451 31.8542 28.6309C31.9069 28.7166 31.95 28.8418 31.95 28.9089C31.95 28.976 31.9834 29.0745 32.0242 29.128C32.065 29.1814 32.1236 29.315 32.1545 29.425C32.3262 30.0379 32.454 30.1165 33.2381 30.092C33.8229 30.0738 34.041 29.9618 34.05 29.675C34.0517 29.62 34.1085 29.4625 34.1761 29.325C34.2437 29.1875 34.2992 29.0294 34.2995 28.9736C34.2997 28.9179 34.3315 28.8273 34.3701 28.7721C34.4086 28.7171 34.4667 28.5715 34.4991 28.4485C34.5316 28.3256 34.5871 28.1796 34.6225 28.1243C34.6579 28.0689 34.7035 27.9451 34.7239 27.8493C34.7441 27.7534 34.8034 27.6049 34.8554 27.5191C34.9074 27.4334 34.95 27.3029 34.95 27.2291C34.95 27.1554 34.9826 27.032 35.0224 26.9551C35.0621 26.8781 35.1206 26.7049 35.1524 26.57C35.184 26.4353 35.2392 26.2575 35.275 26.175C35.3107 26.0925 35.3672 25.89 35.4005 25.725C35.4336 25.56 35.4797 25.4016 35.5027 25.3731C35.5259 25.3445 35.5695 25.1661 35.5997 24.9768C35.63 24.7874 35.6866 24.5745 35.7255 24.5038C35.7644 24.4329 35.818 24.2175 35.8446 24.025C35.8712 23.8325 35.9271 23.5565 35.9689 23.4118C36.0819 23.0195 36.132 22.0883 36.0439 22.0176C35.947 21.94 34.7691 21.8985 34.6812 21.9696C34.5962 22.0385 34.4746 22.5335 34.3974 23.125C34.365 23.3725 34.3171 23.6156 34.2911 23.6653C34.265 23.7149 34.2127 23.9286 34.1751 24.1403C34.1375 24.3519 34.0715 24.648 34.0284 24.7984C33.9852 24.9488 33.95 25.1243 33.95 25.1884C33.95 25.2525 33.9174 25.3679 33.8776 25.4449C33.8379 25.5219 33.777 25.7401 33.7424 25.9299C33.7077 26.1198 33.6531 26.302 33.6207 26.335C33.5885 26.368 33.546 26.503 33.5264 26.635C33.5066 26.767 33.4505 26.965 33.4016 27.075C33.3526 27.185 33.2969 27.3625 33.2777 27.4694C33.2147 27.8206 32.95 28.0693 32.95 27.777C32.95 27.7126 32.894 27.5396 32.8255 27.3925C32.757 27.2454 32.7007 27.0855 32.7005 27.0374C32.7002 26.9891 32.655 26.8656 32.6 26.763C32.545 26.6605 32.4999 26.5311 32.4997 26.4758C32.4995 26.4204 32.4627 26.3075 32.4179 26.225C32.3731 26.1425 32.3187 25.9708 32.2971 25.8434C32.2756 25.7161 32.2111 25.5091 32.154 25.3836C32.0967 25.2581 32.0495 25.0924 32.0489 25.0153C32.0482 24.9381 32.0032 24.7769 31.9489 24.657C31.8945 24.5371 31.849 24.3796 31.8477 24.307C31.8466 24.2344 31.8114 24.085 31.7695 23.975C31.7276 23.865 31.6602 23.5964 31.6199 23.378C31.5795 23.1596 31.5217 22.9511 31.4915 22.9148C31.4612 22.8784 31.4197 22.6761 31.399 22.4654C31.3487 21.952 31.3349 21.9434 30.5791 21.961L29.9812 21.975L29.9389 22.15C29.9155 22.2463 29.8739 22.3704 29.8461 22.4258C29.8184 22.4811 29.7647 22.7061 29.7267 22.9258C29.6889 23.1454 29.6232 23.415 29.5811 23.525C29.5389 23.635 29.5034 23.7748 29.5022 23.8356C29.501 23.8965 29.4582 24.054 29.4071 24.1856C29.356 24.3173 29.3 24.5176 29.2826 24.6309C29.2651 24.7441 29.2176 24.901 29.1769 24.9795C29.1361 25.0581 29.088 25.2243 29.0699 25.3486C29.0517 25.4731 29.0089 25.6313 28.9745 25.7C28.9401 25.7688 28.8955 25.9038 28.8754 26C28.8551 26.0963 28.7984 26.265 28.749 26.375C28.6997 26.485 28.6436 26.6811 28.6242 26.8109C28.605 26.9406 28.5584 27.0723 28.5209 27.1034C28.4834 27.1345 28.4376 27.2421 28.4192 27.3425C28.335 27.8025 28.0531 28.1223 28.0507 27.7605C28.0504 27.6975 28.008 27.5625 27.9567 27.4605C27.9055 27.3585 27.8476 27.185 27.828 27.075C27.8085 26.965 27.7634 26.8295 27.7276 26.7739C27.6919 26.7183 27.646 26.572 27.6257 26.4489C27.6054 26.3258 27.5556 26.1463 27.5152 26.05C27.4747 25.9538 27.4206 25.7315 27.3951 25.5561C27.3695 25.3806 27.3166 25.1669 27.2775 25.0811C27.2385 24.9953 27.1829 24.7655 27.154 24.5705C27.1251 24.3755 27.0704 24.1393 27.0324 24.0455C26.9944 23.9518 26.949 23.7133 26.9315 23.5156C26.9141 23.3179 26.8756 23.0929 26.846 23.0156C26.8164 22.9383 26.7724 22.6859 26.7484 22.4548C26.6899 21.8935 26.7184 21.9086 25.778 21.937ZM26.6012 22.1783C26.628 22.2488 26.651 22.4906 26.6522 22.7158C26.6535 22.9605 26.6855 23.2054 26.7317 23.325C26.7742 23.435 26.838 23.7443 26.8732 24.0123C26.9085 24.2803 26.9622 24.5295 26.9926 24.5661C27.0231 24.6028 27.0687 24.78 27.0942 24.9598C27.1197 25.1396 27.1765 25.3561 27.2202 25.4409C27.2641 25.5256 27.3 25.6869 27.3 25.799C27.3 25.9113 27.3562 26.1366 27.425 26.3C27.4937 26.4634 27.55 26.6403 27.55 26.693C27.55 26.7459 27.5945 26.8871 27.6489 27.007C27.7032 27.1269 27.7482 27.2704 27.7489 27.3258C27.7495 27.3811 27.795 27.5105 27.85 27.613C27.905 27.7156 27.95 27.8324 27.95 27.8725C27.95 27.9978 28.063 28.2 28.133 28.2C28.1699 28.2 28.2 28.1831 28.2 28.1625C28.2001 28.1419 28.2539 28.0625 28.3196 27.9861C28.3856 27.9093 28.454 27.7475 28.4725 27.6241C28.4909 27.5015 28.5387 27.3685 28.5787 27.3284C28.6187 27.2884 28.6731 27.142 28.6994 27.0031C28.7257 26.8643 28.78 26.6999 28.82 26.6378C28.8599 26.5758 28.909 26.4355 28.929 26.326C28.949 26.2166 29.0069 26.0591 29.0575 25.976C29.1081 25.893 29.1497 25.7346 29.1499 25.6243C29.1499 25.5139 29.1931 25.3431 29.2457 25.245C29.2984 25.1468 29.357 24.9559 29.3761 24.8208C29.3952 24.6855 29.4414 24.5264 29.4786 24.467C29.5159 24.4076 29.5681 24.2235 29.5949 24.0579C29.6215 23.8921 29.676 23.7045 29.7157 23.6408C29.7556 23.5771 29.8019 23.3988 29.8187 23.2445C29.8355 23.0903 29.8832 22.8826 29.9249 22.783C29.9665 22.6834 30.0176 22.4834 30.0384 22.3385L30.0761 22.075L30.5812 22.0609C31.1952 22.0436 31.2409 22.0843 31.3034 22.7043C31.3247 22.9164 31.3796 23.1623 31.4252 23.2506C31.471 23.339 31.5204 23.5381 31.535 23.6931C31.5497 23.8481 31.5944 24.0271 31.6341 24.0908C31.674 24.1545 31.7289 24.3458 31.7561 24.5158C31.7834 24.6859 31.8346 24.87 31.8699 24.925C31.9052 24.98 31.9486 25.132 31.9661 25.2626C31.9837 25.3934 32.0435 25.5894 32.0991 25.6981C32.1546 25.807 32.2 25.954 32.2 26.025C32.2 26.096 32.2431 26.2385 32.2959 26.3419C32.3485 26.4451 32.4075 26.6186 32.4269 26.7274C32.4462 26.836 32.5044 26.9951 32.5561 27.0809C32.6077 27.1666 32.6501 27.2904 32.6504 27.3559C32.6505 27.4214 32.6954 27.5425 32.75 27.625C32.8046 27.7075 32.8495 27.8271 32.8496 27.8908C32.8511 28.3995 33.2811 28.2123 33.3546 27.671C33.3755 27.517 33.4296 27.3501 33.475 27.3C33.5204 27.2499 33.5739 27.0888 33.594 26.942C33.614 26.7951 33.666 26.6188 33.7095 26.55C33.753 26.4813 33.8025 26.3113 33.8196 26.1723C33.8369 26.0333 33.8956 25.8316 33.9504 25.7241C34.0052 25.6168 34.05 25.4538 34.05 25.362C34.05 25.2701 34.0842 25.1289 34.126 25.0481C34.1677 24.9673 34.227 24.7156 34.2575 24.4889C34.288 24.2623 34.3422 24.0314 34.378 23.9759C34.4137 23.9204 34.4592 23.7064 34.4791 23.5003C34.499 23.2941 34.5484 23.0466 34.5887 22.9503C34.6291 22.8539 34.6762 22.6175 34.6935 22.425L34.725 22.075H35.35H35.975L35.9567 22.5C35.9467 22.7338 35.916 22.968 35.8882 23.0205C35.8605 23.0731 35.8075 23.3338 35.7702 23.5998C35.7331 23.8658 35.6685 24.149 35.6266 24.2293C35.5849 24.3094 35.55 24.465 35.5492 24.575C35.5484 24.685 35.5017 24.8763 35.4454 25C35.389 25.1238 35.3301 25.3375 35.3144 25.475C35.2987 25.6125 35.247 25.8038 35.1995 25.9C35.152 25.9963 35.098 26.179 35.0795 26.306C35.061 26.4331 35.0017 26.6235 34.9479 26.7291C34.894 26.8348 34.85 27.0036 34.85 27.1045C34.85 27.206 34.8167 27.3154 34.7754 27.3498C34.7342 27.3838 34.6774 27.5046 34.6489 27.6184C34.6204 27.732 34.5666 27.8813 34.5294 27.95C34.492 28.0188 34.4452 28.1538 34.4254 28.25C34.4055 28.3463 34.3466 28.4951 34.2946 28.5809C34.2426 28.6666 34.2 28.7981 34.2 28.873C34.2 28.9479 34.1556 29.0656 34.1014 29.1346C34.047 29.2038 33.9879 29.3423 33.97 29.4426C33.952 29.5429 33.9099 29.6588 33.8762 29.7C33.8426 29.7413 33.8012 29.8144 33.7841 29.8625C33.7569 29.9395 33.6784 29.95 33.132 29.95H32.5109L32.4774 29.8165C32.4589 29.743 32.4002 29.6275 32.3469 29.5598C32.2936 29.492 32.25 29.3736 32.25 29.2969C32.25 29.22 32.2157 29.1229 32.174 29.0811C32.1321 29.0393 32.0789 28.9034 32.0557 28.779C32.0325 28.6548 31.9784 28.4994 31.9354 28.4339C31.8924 28.3683 31.8409 28.227 31.8207 28.1198C31.8007 28.0126 31.7449 27.8688 31.6966 27.8C31.6484 27.7313 31.5946 27.57 31.577 27.4416C31.5595 27.3133 31.5152 27.1835 31.4789 27.1533C31.4425 27.123 31.397 26.9806 31.378 26.8369C31.3589 26.6931 31.3072 26.5356 31.2631 26.4869C31.2191 26.4383 31.166 26.273 31.1452 26.1198C31.1244 25.9665 31.075 25.8038 31.0355 25.758C30.9959 25.7124 30.949 25.5625 30.9314 25.425C30.846 24.7594 30.4 24.3276 30.4 24.9106C30.4 24.975 30.3619 25.0821 30.3152 25.1486C30.2687 25.2151 30.2145 25.3885 30.1947 25.534C30.175 25.6794 30.1245 25.8328 30.0824 25.8748C30.0404 25.9168 29.9909 26.0578 29.9725 26.1881C29.9542 26.3184 29.9095 26.4724 29.8732 26.5303C29.837 26.588 29.7916 26.723 29.7725 26.8303C29.7535 26.9374 29.6956 27.0951 29.6439 27.1809C29.5922 27.2666 29.5492 27.4016 29.5485 27.4809C29.5476 27.5601 29.4915 27.715 29.4237 27.825C29.356 27.935 29.3004 28.0939 29.3002 28.178C29.3001 28.262 29.2666 28.3745 29.2257 28.428C29.185 28.4814 29.127 28.6128 29.0969 28.72C29.0667 28.8273 29.0121 28.945 28.9756 28.9815C28.939 29.0181 28.8937 29.1389 28.875 29.25C28.8562 29.3611 28.806 29.4869 28.7634 29.5295C28.7209 29.572 28.6714 29.6785 28.6535 29.766L28.621 29.925L28.0162 29.939L27.4114 29.953L27.2807 29.7976C27.1977 29.6991 27.15 29.5823 27.15 29.4779C27.15 29.3875 27.1079 29.2599 27.0565 29.1943C27.0051 29.1286 26.9459 28.9963 26.9249 28.9C26.9039 28.8038 26.8446 28.6466 26.7934 28.5508C26.742 28.4549 26.7 28.3375 26.7 28.2898C26.7 28.2421 26.6565 28.118 26.6032 28.014C26.55 27.9101 26.4909 27.735 26.4719 27.625C26.4529 27.515 26.4091 27.3913 26.3747 27.35C26.3404 27.3088 26.288 27.1341 26.2585 26.9619C26.229 26.7896 26.17 26.599 26.1274 26.5383C26.0849 26.4775 26.05 26.3454 26.05 26.2449C26.05 26.1443 25.9937 25.9125 25.925 25.7298C25.8562 25.5471 25.8 25.3296 25.8 25.2464C25.8 25.1631 25.7651 25.0276 25.7225 24.9451C25.6799 24.8626 25.6237 24.6089 25.5979 24.3811C25.572 24.1534 25.5166 23.8984 25.4746 23.8143C25.43 23.7248 25.3791 23.4075 25.3519 23.0484C25.3262 22.7113 25.2816 22.4116 25.2526 22.3826C25.1686 22.2986 25.1906 22.1098 25.2875 22.0845C25.653 21.989 26.5537 22.0533 26.6012 22.1783ZM40.025 26.5026C39.9425 26.5266 39.5242 26.5798 39.0956 26.6208C38.2529 26.7014 38.0221 26.7783 37.9659 26.9966C37.9486 27.0636 37.9044 27.1761 37.8676 27.2466C37.6829 27.6006 37.8759 28.4263 38.2177 28.7444C38.5369 29.0413 39.331 29.2006 39.6534 29.0324C39.7239 28.9956 39.8415 28.9504 39.9145 28.9321C40.1657 28.869 40.7 28.4138 40.7 28.2626C40.7 28.2356 40.7431 28.1586 40.7959 28.0916C40.8486 28.0245 40.9084 27.8811 40.9287 27.7729C40.949 27.6646 41.0066 27.4858 41.0567 27.3755C41.157 27.1548 41.1799 26.6991 41.0982 26.5468C41.0411 26.4401 40.3395 26.4113 40.025 26.5026ZM40.9717 26.7165C41.0476 26.7719 41.0529 26.8011 41.0037 26.8931C40.9712 26.9536 40.9126 27.1859 40.8734 27.409C40.8341 27.6323 40.7709 27.8509 40.7327 27.8949C40.6946 27.939 40.6496 28.0313 40.6326 28.1C40.6032 28.2195 40.2811 28.5999 40.2094 28.6C40.1905 28.6001 40.113 28.6535 40.0372 28.7186C39.9332 28.808 39.8125 28.8458 39.5451 28.872C38.327 28.9921 37.8914 28.5516 38.0322 27.3424L38.075 26.975L38.5112 26.8638C39.1686 26.6963 40.8097 26.598 40.9717 26.7165Z" fill="#F4D18C"/>
</svg>
