<svg width="55" height="55" viewBox="0 0 55 55" fill="none" xmlns="http://www.w3.org/2000/svg">
<path fill-rule="evenodd" clip-rule="evenodd" d="M26.5375 6.43806C25.116 6.5042 23.8296 6.69313 22.44 7.04004C22.3341 7.06644 22.1238 7.11676 21.9725 7.15183C21.8213 7.18689 21.6356 7.23501 21.56 7.25894C21.4844 7.28273 21.3111 7.33319 21.175 7.371C20.8597 7.45859 20.3004 7.63844 20.1575 7.69825C20.097 7.72355 19.899 7.79959 19.7175 7.86724C18.5314 8.30916 16.6238 9.4071 15.3666 10.3713C11.8749 13.0496 9.39539 17.0546 8.25221 21.8625C7.80479 23.744 7.66825 24.5943 7.51012 26.4825C7.41745 27.5894 7.39256 31.1164 7.47437 31.5535C7.5016 31.6987 7.55289 31.9908 7.5885 32.2025C7.62411 32.4143 7.67306 32.6494 7.6974 32.725C7.7216 32.8007 7.77192 32.9987 7.80932 33.165C8.64409 36.8767 12.5608 42.0559 16.742 44.9768C17.4261 45.4548 18.2134 45.98 18.2456 45.98C18.2639 45.98 18.3179 46.014 18.3657 46.0554C18.4528 46.131 18.6267 46.2306 19.4425 46.6717C20.0177 46.9827 21.0409 47.4184 21.56 47.5734C21.7869 47.641 22.0344 47.7163 22.11 47.7405C22.2408 47.7824 22.4415 47.8311 23.0313 47.9639C23.1749 47.9962 23.4039 48.0519 23.54 48.0876C23.9137 48.1857 29.5599 48.1777 30.2225 48.0783C31.5712 47.8758 33.3197 47.4648 34.2375 47.1345C35.3317 46.7407 36.5728 46.1763 37.2819 45.75C37.474 45.6345 37.6424 45.54 37.6562 45.54C37.711 45.54 39.0565 44.6215 39.5725 44.2319C42.9069 41.7137 45.5661 38.0401 46.7673 34.2925C46.9838 33.6174 47.252 32.5825 47.4942 31.4875C47.8398 29.9246 47.8913 26.9949 47.6028 25.3C47.5846 25.1942 47.5446 24.959 47.5138 24.7775C47.4535 24.4232 47.3784 24.0689 47.2979 23.76C47.2704 23.6542 47.1615 23.2087 47.0562 22.77C46.7943 21.6799 46.4091 20.5152 46.0107 19.6075C45.9708 19.5168 45.8679 19.2817 45.782 19.085C43.9017 14.7816 40.0586 10.6696 35.8766 8.4864C35.1425 8.10319 33.5609 7.42504 33.4011 7.42504C33.3612 7.42504 33.2856 7.40331 33.2331 7.37678C33.0061 7.2621 31.7533 6.92784 30.9375 6.76421C29.4342 6.46281 28.1123 6.36478 26.5375 6.43806ZM28.425 8.13976C30.1373 8.24523 31.5299 8.53191 33.11 9.10433C34.2194 9.50624 36.0194 10.4392 36.9397 11.0894C37.0629 11.1763 37.2849 11.3325 37.433 11.4363C38.5275 12.2032 40.0157 13.5776 40.9804 14.7125C41.0832 14.8335 41.1797 14.9449 41.1949 14.96C41.4536 15.2179 42.955 17.3073 42.955 17.4095C42.955 17.4278 43.0293 17.5507 43.12 17.6825C43.2108 17.8144 43.285 17.9388 43.285 17.9589C43.285 17.9791 43.3323 18.062 43.3902 18.1433C43.5452 18.361 44.1723 19.6345 44.4362 20.2675C44.5624 20.57 44.6865 20.867 44.7124 20.9275C44.7382 20.988 44.8136 21.186 44.88 21.3675C44.9464 21.549 45.0209 21.747 45.0458 21.8075C45.0706 21.868 45.1033 21.967 45.1184 22.0275C45.1337 22.088 45.1991 22.3108 45.2639 22.5225C45.6178 23.6788 45.8459 24.7998 46.0316 26.2929C46.1073 26.9026 46.1072 29.4161 46.0313 29.9328C45.8849 30.9305 45.8528 31.1277 45.7749 31.515C45.6424 32.1726 45.528 32.648 45.4043 33.055C45.2836 33.4524 45.1045 33.9895 45.0468 34.1275C45.0215 34.188 44.9445 34.386 44.8759 34.5675C43.2693 38.8119 39.803 42.6035 35.6125 44.7002C34.9162 45.0485 34.5615 45.21 34.1138 45.3825C34.0457 45.4086 33.9343 45.4531 33.8663 45.4815C33.6498 45.5713 33.0934 45.7529 32.7663 45.8405C32.5923 45.887 32.3201 45.9598 32.1613 46.0023C31.8152 46.0949 30.8957 46.274 30.25 46.3747C29.5706 46.4805 23.9154 46.479 23.485 46.3729C21.3841 45.8544 19.8428 45.108 17.6424 43.5437C16.0454 42.4083 13.8208 40.2339 12.4575 38.4757C12.3668 38.3586 12.2416 38.1986 12.1795 38.1201C11.7993 37.6405 10.34 35.2995 10.34 35.1691C10.34 35.1541 10.2553 34.9631 10.1518 34.7448C9.7852 33.9708 9.50044 33.1492 9.29941 32.285C9.16659 31.7146 9.13015 31.0808 9.13194 29.3798C9.13537 26.2339 9.37215 24.0861 9.95446 21.9175C10.0195 21.6755 10.0922 21.4033 10.1162 21.3125C10.4336 20.1098 11.3513 17.931 12.0274 16.775C12.448 16.0558 12.5826 15.8468 12.9932 15.2745C14.8566 12.6773 17.3702 10.6566 20.1575 9.51518C21.4896 8.96971 23.2909 8.47389 24.4475 8.33446C24.5988 8.31618 24.9081 8.27603 25.135 8.24495C25.3619 8.21401 25.9559 8.16905 26.455 8.14513C26.9541 8.12106 27.412 8.09851 27.4725 8.09466C27.533 8.09095 27.9616 8.1113 28.425 8.13976ZM24.8875 12.2435C20.8068 12.7453 16.3613 15.7839 14.355 19.4425C13.0596 21.8048 12.9583 22.4256 12.9949 27.775C13.0171 31.0405 13.0261 31.3015 13.1318 31.79C14.1929 36.6965 19.9943 42.5104 24.8875 43.5709C25.3304 43.6669 28.2864 43.6655 28.9025 43.5691C31.2329 43.2042 33.2947 42.4526 35.3375 41.2234C35.9649 40.8459 37.3138 39.9063 37.51 39.71C37.5251 39.6949 37.686 39.5595 37.8675 39.4091C42.2199 35.8012 44.2989 31.0547 43.5291 26.4825C43.3983 25.7058 43.3901 25.6607 43.3406 25.465C43.3139 25.3592 43.263 25.1488 43.2277 24.9975C43.0331 24.1651 42.5447 22.7348 42.1571 21.8625C41.9129 21.3127 41.2595 20.0229 41.1411 19.8567C41.0801 19.7708 41.03 19.6884 41.03 19.6734C41.03 19.4656 39.3955 17.1834 38.6936 16.4108C37.3418 14.9235 35.944 13.8218 34.54 13.1373C33.7124 12.7339 33.4291 12.6323 32.3125 12.3376C32.0033 12.256 25.4601 12.1731 24.8875 12.2435ZM28.8248 15.9759C29.1096 16.0203 29.4044 16.0713 29.48 16.0892C29.5556 16.1072 29.7289 16.1479 29.865 16.1797C34.0535 17.1583 38.0766 21.0481 39.0132 25.025C39.0595 25.2217 39.1298 25.5187 39.1692 25.685C39.267 26.096 39.2671 28.1031 39.1695 28.655C39.0849 29.1334 38.899 29.9833 38.8267 30.2225C38.4681 31.4093 37.822 32.8867 37.3918 33.5036C37.3358 33.5839 37.29 33.6654 37.29 33.6848C37.29 33.7636 36.6898 34.6067 36.2115 35.2C34.3046 37.5649 32.1377 38.9388 29.622 39.3783C29.209 39.4503 24.2516 39.4544 23.888 39.3828C23.742 39.3541 23.474 39.3025 23.2925 39.2681C16.9162 38.0605 13.9821 27.7178 18.0975 20.955C19.3849 18.8395 21.8813 16.9402 24.1725 16.3333C24.2633 16.3092 24.4736 16.2532 24.64 16.2088C24.9198 16.1342 25.1588 16.0889 25.96 15.9587C26.471 15.8757 28.2512 15.8864 28.8248 15.9759Z" fill="#FAFAF9"/>
<path fill-rule="evenodd" clip-rule="evenodd" d="M26.6475 8.14605C26.1635 8.16695 25.5571 8.21053 25.3 8.24298C25.0429 8.27543 24.6964 8.31641 24.53 8.33415C24.3636 8.35188 24.1285 8.38763 24.0075 8.41376C23.8865 8.43975 23.639 8.48966 23.4575 8.52458C22.7396 8.66291 21.3012 9.0717 20.7625 9.2906C20.702 9.31521 20.5906 9.36003 20.515 9.39028C19.2994 9.87648 18.2732 10.4167 17.215 11.1275C16.8094 11.4 16.4377 11.6751 16.2903 11.8121C16.2492 11.8503 16.1248 11.9482 16.014 12.0296C15.5518 12.3691 13.9319 14.0359 13.4604 14.6571C12.0424 16.5256 11.0785 18.3825 10.3058 20.735C10.1452 21.2237 9.74836 22.7363 9.67809 23.1275C9.65101 23.2787 9.60219 23.551 9.56974 23.7325C9.25652 25.4858 9.15848 26.8157 9.15793 29.315C9.15752 31.4392 9.20138 31.9641 9.45218 32.835C9.48271 32.9409 9.52368 33.0894 9.54334 33.165C9.56314 33.2406 9.59958 33.352 9.62461 33.4125C9.64963 33.473 9.75729 33.7474 9.86386 34.0224C10.12 34.6834 10.4478 35.368 10.7902 35.9573C10.9436 36.2215 11.1174 36.5222 11.1764 36.6257C11.3464 36.9238 11.7304 37.4807 11.7799 37.5008C11.8048 37.511 11.825 37.5411 11.825 37.568C11.825 37.6469 12.9324 39.0939 13.2803 39.4692C13.3118 39.5032 13.608 39.8298 13.9384 40.1948C15.8568 42.3141 18.3468 44.2336 20.57 45.3072C21.48 45.7465 21.7626 45.87 21.8587 45.87C21.9025 45.87 21.9538 45.8947 21.9725 45.925C21.9912 45.9552 22.0549 45.98 22.114 45.98C22.1731 45.98 22.2644 46.0023 22.317 46.0296C22.427 46.0868 22.7369 46.1748 23.5125 46.3694C23.7032 46.4172 24.504 46.4453 26.125 46.4611C28.8367 46.4874 29.9922 46.4292 31.1575 46.2077C31.3088 46.179 31.5315 46.1387 31.6525 46.1182C31.7735 46.0977 31.9344 46.061 32.01 46.0368C32.0856 46.0126 32.2465 45.966 32.3675 45.9334C32.948 45.7766 33.4175 45.6281 33.4648 45.5863C33.4935 45.5608 33.5618 45.54 33.6167 45.54C33.6716 45.54 33.7594 45.5172 33.812 45.4893C33.8645 45.4613 34.1106 45.36 34.3589 45.264C35.0488 44.9973 36.7439 44.1387 37.015 43.9187C37.0604 43.8819 37.1346 43.8384 37.18 43.8222C37.2888 43.7832 38.5711 42.8817 38.8764 42.6297C40.2677 41.4809 41.5316 40.1719 42.4324 38.9465C43.9573 36.8723 45.1975 34.2089 45.6559 32.0237C45.6829 31.8952 45.7302 31.6724 45.761 31.5287C45.9687 30.5598 46.0613 29.5148 46.062 28.1325C46.0628 26.2515 45.8944 24.911 45.4365 23.155C45.2368 22.3898 44.7961 21.0983 44.5261 20.4875C44.4593 20.3362 44.3699 20.1259 44.3275 20.02C44.0396 19.3 43.3065 17.9737 42.5795 16.8575C42.3233 16.4642 42.0988 16.1301 42.0805 16.115C42.0622 16.0999 41.9359 15.9391 41.7999 15.7578C39.9277 13.2621 37.2314 11.0058 34.6775 9.79742C34.4053 9.66872 34.0874 9.51527 33.971 9.4567C33.8547 9.39798 33.7369 9.35 33.7092 9.35C33.6815 9.35 33.5539 9.30215 33.4257 9.24357C33.0855 9.08847 31.8751 8.69 31.7438 8.69C31.6821 8.69 31.6179 8.66786 31.6011 8.64077C31.5845 8.61368 31.4778 8.57821 31.3642 8.56185C31.2505 8.54548 31.0338 8.50492 30.8825 8.47165C30.2902 8.3413 29.2047 8.19211 28.655 8.1653C28.3374 8.14976 27.9538 8.13065 27.8025 8.12267C27.6513 8.1147 27.1315 8.12515 26.6475 8.14605ZM32.3125 12.3376C33.4292 12.6323 33.7124 12.7339 34.54 13.1373C35.944 13.8218 37.3419 14.9234 38.6936 16.4108C39.3956 17.1834 41.03 19.4656 41.03 19.6734C41.03 19.6883 41.0801 19.7707 41.1411 19.8566C41.2595 20.0229 41.9129 21.3126 42.1571 21.8625C42.5447 22.7348 43.0331 24.1651 43.2277 24.9975C43.263 25.1487 43.3139 25.3591 43.3406 25.465C43.3901 25.6607 43.3983 25.7058 43.5291 26.4825C44.2989 31.0546 42.2199 35.8011 37.8675 39.409C37.686 39.5594 37.5251 39.6949 37.51 39.71C37.3138 39.9062 35.9649 40.8459 35.3375 41.2233C33.2947 42.4526 31.2329 43.2041 28.9025 43.5691C28.2864 43.6655 25.3304 43.6668 24.8875 43.5709C19.9943 42.5103 14.1929 36.6964 13.1318 31.79C12.9942 31.1539 12.918 24.8867 13.032 23.5872C13.1922 21.7618 13.7559 20.2495 14.8946 18.59C17.2446 15.165 21.114 12.7076 24.8875 12.2434C25.4601 12.173 32.0033 12.2559 32.3125 12.3376Z" fill="#3C5CA4"/>
<path fill-rule="evenodd" clip-rule="evenodd" d="M26.2075 15.958C25.3411 16.066 24.281 16.2826 24.0769 16.3931C24.0244 16.4216 23.9366 16.445 23.8817 16.445C23.8268 16.445 23.7585 16.4646 23.7298 16.4887C23.701 16.5128 23.5785 16.5657 23.4575 16.6061C21.8065 17.1587 20.1649 18.3601 18.7839 20.0264C18.2622 20.6558 17.5018 21.9955 17.1354 22.9303C16.8252 23.722 16.7141 24.0922 16.5028 25.0387C16.074 26.9593 16.1314 29.2887 16.6664 31.68C17.2293 34.1962 18.6398 36.5669 20.3532 37.8763C20.6294 38.0873 21.5368 38.665 21.5922 38.665C21.6054 38.665 21.7335 38.717 21.8768 38.7805C23.1362 39.3385 23.8503 39.434 26.7575 39.434C29.6751 39.434 30.4436 39.324 31.7698 38.7167C31.9639 38.6277 32.135 38.555 32.1498 38.555C32.1648 38.555 32.34 38.456 32.5391 38.335C32.7383 38.214 32.9121 38.115 32.9256 38.115C32.9389 38.115 33.1283 37.9941 33.3462 37.8466C35.4863 36.3968 37.3688 34.0157 38.3302 31.5425C38.4594 31.2097 38.585 30.888 38.6089 30.8275C38.6328 30.767 38.6829 30.6061 38.7201 30.47C38.7573 30.3339 38.8073 30.1606 38.8311 30.085C39.4421 28.1475 39.3536 25.6243 38.6121 23.8425C38.4281 23.4007 38.3523 23.2356 38.1333 22.7987C36.6718 19.8851 33.3479 17.13 30.3325 16.3331C30.2418 16.3091 30.0314 16.2525 29.865 16.2074C29.6986 16.1621 29.3645 16.0963 29.1225 16.0609C28.8805 16.0256 28.5484 15.9738 28.3845 15.9459C28.0246 15.8844 26.7399 15.8915 26.2075 15.958Z" fill="#E4242C"/>
<path fill-rule="evenodd" clip-rule="evenodd" d="M0 27.5V55H27.5H55V27.5V0H27.5H0V27.5ZM29.37 6.42469C30.3896 6.55792 30.8806 6.64895 31.7625 6.8684C32.0045 6.92849 32.3634 7.01773 32.56 7.06668C32.7566 7.11549 32.9605 7.17901 33.0131 7.20775C33.0656 7.23649 33.1535 7.26 33.2083 7.26C33.2632 7.26 33.3315 7.27966 33.3603 7.30373C33.389 7.32779 33.5115 7.37894 33.6325 7.41744C33.7535 7.4558 33.9144 7.51369 33.99 7.546C34.1201 7.60155 34.2081 7.63634 34.4987 7.74716C34.5668 7.77315 34.73 7.8474 34.8615 7.91216C34.9929 7.97693 35.1352 8.03 35.1777 8.03C35.2202 8.03 35.255 8.05475 35.255 8.085C35.255 8.11525 35.3045 8.14 35.365 8.14C35.4255 8.14 35.475 8.16475 35.475 8.195C35.475 8.22525 35.5245 8.25 35.585 8.25C35.6455 8.25 35.695 8.27475 35.695 8.305C35.695 8.33525 35.7424 8.36 35.8005 8.36C35.8584 8.36 35.914 8.37856 35.9242 8.40125C35.9343 8.42394 36.1171 8.53215 36.3304 8.64174C36.7483 8.85624 37.6823 9.4226 37.7972 9.53109C37.8359 9.56766 37.9356 9.63256 38.0188 9.6756C38.1019 9.7185 38.17 9.77419 38.17 9.79935C38.17 9.82437 38.1946 9.845 38.2247 9.845C38.275 9.845 39.091 10.4411 39.2611 10.6021C39.3015 10.6403 39.4252 10.739 39.5361 10.8215C39.6469 10.9039 39.7746 11.0095 39.82 11.0561C39.8654 11.1028 40.1252 11.329 40.3975 11.5589C40.8492 11.9404 41.8578 12.9674 42.0496 13.2413C42.093 13.3034 42.2093 13.4397 42.3081 13.5442C42.7683 14.0317 44.495 16.3923 44.495 16.534C44.495 16.5498 44.5692 16.6706 44.66 16.8025C44.7507 16.9344 44.825 17.0688 44.825 17.1012C44.825 17.1335 44.8498 17.16 44.88 17.16C44.9103 17.16 44.935 17.2074 44.935 17.2655C44.935 17.3234 44.9536 17.379 44.9763 17.3892C45.136 17.4602 46.1942 19.7159 46.4813 20.5975C46.5206 20.7185 46.5681 20.8423 46.5865 20.8725C46.6051 20.9028 46.6518 21.0389 46.6905 21.175C46.7291 21.3111 46.783 21.4655 46.8104 21.5181C46.8377 21.5706 46.86 21.6743 46.86 21.7485C46.86 21.8228 46.8848 21.8988 46.915 21.9175C46.9453 21.9362 46.97 22.0228 46.97 22.11C46.97 22.1972 46.9948 22.2838 47.025 22.3025C47.0553 22.3212 47.08 22.4202 47.08 22.5225C47.08 22.6248 47.1047 22.7238 47.135 22.7425C47.1652 22.7612 47.19 22.8602 47.19 22.9625C47.19 23.0648 47.2148 23.1638 47.245 23.1825C47.2753 23.2012 47.3 23.3002 47.3 23.4025C47.3 23.5048 47.3248 23.6038 47.355 23.6225C47.3853 23.6412 47.41 23.7491 47.41 23.8623C47.41 23.9755 47.4323 24.0915 47.4594 24.1203C47.4865 24.149 47.5229 24.2715 47.5402 24.3925C47.5577 24.5135 47.5981 24.7734 47.6303 24.97C47.9685 27.0357 47.9711 29.1749 47.6378 31.13C47.6094 31.2964 47.5694 31.5315 47.5487 31.6525C47.5281 31.7735 47.4902 31.922 47.4643 31.9825C47.4176 32.0924 47.3755 32.2949 47.3186 32.6842C47.3019 32.7977 47.2663 32.9044 47.2392 32.9211C47.2121 32.9379 47.19 33.0367 47.19 33.1408C47.19 33.2449 47.1652 33.33 47.135 33.33C47.1047 33.33 47.08 33.4166 47.08 33.5225C47.08 33.6284 47.0553 33.715 47.025 33.715C46.9948 33.715 46.97 33.8001 46.97 33.9042C46.97 34.0083 46.9453 34.1088 46.915 34.1275C46.8848 34.1462 46.86 34.217 46.86 34.2848C46.86 34.3526 46.8403 34.4315 46.8163 34.4603C46.7922 34.489 46.7411 34.6115 46.7026 34.7325C46.6642 34.8535 46.6096 35.0082 46.5814 35.0763C46.5531 35.1443 46.5083 35.2557 46.4816 35.3237C46.3195 35.738 46.2113 35.9935 46.0248 36.4017C45.9095 36.6543 45.815 36.8812 45.815 36.9058C45.815 36.9306 45.7956 36.959 45.7718 36.9692C45.7482 36.9793 45.6343 37.18 45.5188 37.4154C45.4033 37.6508 45.2803 37.8736 45.2453 37.9104C45.2104 37.9473 45.1224 38.0951 45.0498 38.2388C44.9771 38.3824 44.8969 38.5 44.8713 38.5C44.8459 38.5 44.825 38.5257 44.825 38.5571C44.825 38.6603 43.9623 39.9025 43.3807 40.6368C42.6907 41.5077 41.5892 42.6663 40.8368 43.3125C40.6255 43.494 40.4401 43.655 40.425 43.6703C40.4099 43.6857 40.3109 43.7632 40.205 43.8428C40.0991 43.9225 39.9506 44.0421 39.875 44.1086C39.7994 44.1752 39.6694 44.2699 39.5863 44.3191C39.5031 44.3685 39.435 44.4282 39.435 44.4518C39.435 44.4756 39.3979 44.495 39.3525 44.495C39.3071 44.495 39.2699 44.5136 39.2697 44.5363C39.2696 44.5589 39.1336 44.6641 38.9675 44.77C38.8014 44.8759 38.6654 44.9811 38.6653 45.0037C38.6651 45.0264 38.6317 45.045 38.591 45.045C38.5503 45.045 38.4722 45.0945 38.4175 45.155C38.3628 45.2155 38.2953 45.265 38.2676 45.265C38.24 45.265 38.1094 45.3393 37.9775 45.43C37.8456 45.5208 37.7262 45.595 37.712 45.595C37.6978 45.595 37.5215 45.695 37.3204 45.8173C36.873 46.0892 35.9817 46.53 35.8797 46.53C35.8385 46.53 35.805 46.5547 35.805 46.585C35.805 46.6152 35.7726 46.64 35.7328 46.64C35.6931 46.64 35.5582 46.6895 35.4329 46.75C35.3078 46.8105 35.167 46.86 35.1201 46.86C35.0734 46.86 35.035 46.8848 35.035 46.915C35.035 46.9453 34.9852 46.97 34.9243 46.97C34.8634 46.97 34.7644 46.9948 34.7043 47.025C34.6442 47.0553 34.5458 47.1047 34.4857 47.135C34.4256 47.1652 34.3266 47.19 34.2657 47.19C34.2048 47.19 34.155 47.2148 34.155 47.245C34.155 47.2753 34.0823 47.3 33.9933 47.3C33.9043 47.3 33.8162 47.3248 33.7975 47.355C33.7788 47.3853 33.7046 47.41 33.6325 47.41C33.5605 47.41 33.4879 47.432 33.4712 47.459C33.4546 47.4858 33.3604 47.5211 33.2618 47.5375C33.1632 47.5537 32.9773 47.5936 32.8487 47.626C31.6134 47.9377 31.3361 47.9929 30.03 48.1869C29.8334 48.216 28.537 48.2538 27.1491 48.2709C24.1368 48.3077 23.9631 48.293 22.2338 47.8525C22.1203 47.8236 21.9533 47.7846 21.8625 47.7659C21.7718 47.747 21.648 47.7113 21.5875 47.6864C21.527 47.6615 21.3909 47.6113 21.285 47.575C20.9385 47.4561 20.5773 47.3017 20.111 47.0735C19.9947 47.0166 19.8668 46.97 19.827 46.97C19.7869 46.97 19.746 46.9514 19.7358 46.9287C19.7258 46.9061 19.4824 46.7668 19.195 46.6194C18.9076 46.4718 18.5661 46.28 18.436 46.1931C18.3059 46.1061 18.1875 46.035 18.173 46.035C18.1235 46.035 16.9676 45.2471 16.9492 45.2009C16.939 45.1756 16.9067 45.155 16.8772 45.155C16.8318 45.155 16.4201 44.8608 16.335 44.7674C16.3199 44.7508 16.2209 44.6777 16.115 44.605C16.0091 44.5323 15.9101 44.4569 15.895 44.4375C15.8799 44.4181 15.7506 44.3138 15.6079 44.2057C14.7158 43.5298 12.5987 41.4924 11.9889 40.723C11.943 40.6649 11.7443 40.4195 11.5475 40.1775C11.3508 39.9355 11.0714 39.5766 10.9267 39.38C10.7822 39.1834 10.6281 38.9789 10.5845 38.9256C10.5407 38.8724 10.505 38.8169 10.505 38.8025C10.505 38.7881 10.4695 38.7326 10.4261 38.6794C10.2077 38.4112 9.955 38.0538 9.955 38.0131C9.955 37.9878 9.9055 37.9222 9.845 37.8675C9.7845 37.8128 9.735 37.7488 9.735 37.7255C9.735 37.7022 9.61262 37.4837 9.46316 37.2402C9.13852 36.7113 8.69 35.853 8.69 35.7607C8.69 35.7246 8.66525 35.695 8.635 35.695C8.60475 35.695 8.58 35.6455 8.58 35.585C8.58 35.5245 8.55525 35.475 8.525 35.475C8.49475 35.475 8.47 35.4376 8.47 35.3918C8.47 35.346 8.44525 35.2594 8.415 35.1993C8.38475 35.1392 8.33525 35.0408 8.305 34.9807C8.27475 34.9206 8.25 34.834 8.25 34.7882C8.25 34.7424 8.22525 34.705 8.195 34.705C8.16475 34.705 8.14 34.6308 8.14 34.54C8.14 34.4493 8.11525 34.375 8.085 34.375C8.05475 34.375 8.03 34.3146 8.03 34.2408C8.03 34.167 8.00525 34.0912 7.975 34.0725C7.94475 34.0538 7.92 33.9672 7.92 33.88C7.92 33.7928 7.89525 33.7062 7.865 33.6875C7.83475 33.6688 7.81 33.5822 7.81 33.495C7.81 33.4078 7.78525 33.3212 7.755 33.3025C7.72475 33.2838 7.7 33.1848 7.7 33.0825C7.7 32.9802 7.67786 32.8829 7.65077 32.8661C7.62369 32.8494 7.58808 32.7427 7.57158 32.6292C7.55508 32.5154 7.50915 32.2616 7.46955 32.065C7.36945 31.5685 7.36835 26.7436 7.46804 25.85C7.54628 25.1482 7.61929 24.6014 7.69546 24.145C7.72324 23.9786 7.76229 23.7311 7.78223 23.595C7.80216 23.4589 7.8397 23.298 7.86583 23.2375C7.89181 23.177 7.92798 23.0285 7.94626 22.9075C7.96441 22.7865 7.99329 22.5945 8.01048 22.4808C8.02753 22.3673 8.06369 22.2606 8.09078 22.2439C8.11786 22.2272 8.14 22.1174 8.14 22C8.14 21.8826 8.16475 21.7712 8.195 21.7525C8.22525 21.7338 8.25 21.6348 8.25 21.5325C8.25 21.4302 8.27475 21.3312 8.305 21.3125C8.33525 21.2938 8.36 21.226 8.36 21.1619C8.36 21.0381 8.45144 20.7159 8.53174 20.5569C8.55828 20.5044 8.58 20.4113 8.58 20.35C8.58 20.2887 8.60173 20.1956 8.62826 20.1431C8.6548 20.0905 8.70664 19.9485 8.74335 19.8275C8.86559 19.4257 9.23519 18.4284 9.37613 18.1204C9.45244 17.9534 9.515 17.8017 9.515 17.7832C9.515 17.7389 10.1878 16.3705 10.2271 16.335C10.2803 16.2869 10.4556 15.9812 10.4873 15.8813C10.504 15.8283 10.5397 15.785 10.5665 15.785C10.5931 15.785 10.615 15.7355 10.615 15.675C10.615 15.6145 10.6359 15.565 10.6613 15.565C10.6869 15.565 10.7645 15.4547 10.8338 15.32C10.9031 15.1851 11.0059 15.0253 11.0624 14.9647C11.1188 14.9042 11.1653 14.835 11.1657 14.8111C11.1661 14.7872 11.2159 14.7056 11.2764 14.63C11.3367 14.5544 11.536 14.2821 11.7191 14.025C11.9021 13.7679 12.1067 13.4956 12.1737 13.42C12.2405 13.3444 12.338 13.2213 12.39 13.1467C12.7273 12.6631 14.6937 10.7036 14.9253 10.6201C14.9596 10.6079 15.0246 10.5571 15.07 10.5075C15.1154 10.4578 15.2391 10.3577 15.345 10.285C15.4509 10.2123 15.5499 10.1373 15.565 10.1185C15.5801 10.0996 15.7534 9.97659 15.95 9.845C16.1466 9.71341 16.3199 9.59049 16.335 9.57179C16.3501 9.55309 16.5481 9.42205 16.775 9.28056C17.0019 9.13894 17.2123 9.00364 17.2425 8.97971C17.292 8.94066 17.8079 8.66979 18.3975 8.3732C18.6805 8.23089 19.3474 7.92248 19.525 7.8518C19.6006 7.82183 19.7055 7.77535 19.7581 7.74854C19.8106 7.72186 19.9034 7.7 19.9643 7.7C20.0252 7.7 20.075 7.67525 20.075 7.645C20.075 7.61475 20.1354 7.59 20.2092 7.59C20.283 7.59 20.3588 7.56525 20.3775 7.535C20.3962 7.50475 20.4599 7.48 20.519 7.48C20.5781 7.48 20.6694 7.45773 20.7219 7.43036C20.7745 7.403 20.9289 7.35075 21.065 7.31404C21.2011 7.27746 21.362 7.22838 21.4225 7.205C21.5527 7.15454 22.4812 6.93454 23.3938 6.73777C24.0845 6.58886 24.6617 6.50925 25.5318 6.44284C25.8258 6.42042 26.0847 6.38358 26.1074 6.36103C26.1634 6.30506 28.8567 6.35759 29.37 6.42469Z" fill="#94BC0C"/>
<path fill-rule="evenodd" clip-rule="evenodd" d="M26.1074 6.36102C26.0847 6.38357 25.8258 6.42042 25.5318 6.44283C24.6617 6.50924 24.0845 6.58885 23.3939 6.73777C22.4813 6.93453 21.5527 7.15453 21.4225 7.20499C21.362 7.22837 21.2011 7.27745 21.065 7.31403C20.9289 7.35074 20.7745 7.40299 20.722 7.43035C20.6694 7.45772 20.5781 7.47999 20.519 7.47999C20.4599 7.47999 20.3962 7.50474 20.3775 7.53499C20.3588 7.56524 20.2831 7.58999 20.2092 7.58999C20.1354 7.58999 20.075 7.61474 20.075 7.64499C20.075 7.67524 20.0252 7.69999 19.9643 7.69999C19.9034 7.69999 19.8106 7.72185 19.7581 7.74853C19.7056 7.77534 19.6006 7.82182 19.525 7.85179C19.3474 7.92247 18.6805 8.23088 18.3975 8.37319C17.8079 8.66978 17.292 8.94065 17.2425 8.9797C17.2123 9.00363 17.0019 9.13893 16.775 9.28055C16.5481 9.42204 16.3501 9.55308 16.335 9.57178C16.3199 9.59048 16.1466 9.7134 15.95 9.84499C15.7534 9.97658 15.5801 10.0996 15.565 10.1185C15.5499 10.1373 15.4509 10.2123 15.345 10.285C15.2391 10.3577 15.1154 10.4578 15.07 10.5075C15.0246 10.5571 14.9596 10.6078 14.9254 10.6201C14.6937 10.7035 12.7273 12.6631 12.39 13.1466C12.338 13.2213 12.2405 13.3444 12.1737 13.42C12.1068 13.4956 11.9022 13.7679 11.7191 14.025C11.536 14.2821 11.3368 14.5544 11.2764 14.63C11.2159 14.7056 11.1661 14.7872 11.1657 14.8111C11.1653 14.835 11.1188 14.9042 11.0624 14.9647C11.0059 15.0253 10.9031 15.1851 10.8338 15.32C10.7645 15.4547 10.6869 15.565 10.6614 15.565C10.6359 15.565 10.615 15.6145 10.615 15.675C10.615 15.7355 10.5932 15.785 10.5665 15.785C10.5397 15.785 10.5041 15.8283 10.4873 15.8812C10.4557 15.9812 10.2803 16.2869 10.2271 16.335C10.1878 16.3705 9.51502 17.7389 9.51502 17.7831C9.51502 17.8017 9.45246 17.9534 9.37615 18.1204C9.23521 18.4284 8.86561 19.4257 8.74337 19.8275C8.70666 19.9485 8.65482 20.0905 8.62828 20.1431C8.60174 20.1956 8.58002 20.2887 8.58002 20.35C8.58002 20.4113 8.55829 20.5044 8.53176 20.5569C8.45146 20.7159 8.36002 21.038 8.36002 21.1619C8.36002 21.226 8.33527 21.2938 8.30502 21.3125C8.27477 21.3312 8.25002 21.4302 8.25002 21.5325C8.25002 21.6348 8.22527 21.7338 8.19502 21.7525C8.16477 21.7712 8.14002 21.8826 8.14002 22C8.14002 22.1174 8.11788 22.2271 8.09079 22.2439C8.06371 22.2606 8.02754 22.3673 8.01049 22.4808C7.99331 22.5945 7.96443 22.7865 7.94628 22.9075C7.928 23.0285 7.89183 23.177 7.86585 23.2375C7.83972 23.298 7.80218 23.4589 7.78224 23.595C7.76231 23.7311 7.72326 23.9786 7.69548 24.145C7.61931 24.6014 7.5463 25.1482 7.46806 25.85C7.36837 26.7436 7.36947 31.5685 7.46957 32.065C7.50917 32.2616 7.5551 32.5154 7.5716 32.6292C7.5881 32.7427 7.62371 32.8494 7.65079 32.8661C7.67788 32.8828 7.70002 32.9802 7.70002 33.0825C7.70002 33.1848 7.72477 33.2838 7.75502 33.3025C7.78527 33.3212 7.81002 33.4078 7.81002 33.495C7.81002 33.5822 7.83477 33.6688 7.86502 33.6875C7.89527 33.7062 7.92002 33.7928 7.92002 33.88C7.92002 33.9672 7.94477 34.0538 7.97502 34.0725C8.00527 34.0912 8.03002 34.167 8.03002 34.2408C8.03002 34.3146 8.05477 34.375 8.08502 34.375C8.11527 34.375 8.14002 34.4492 8.14002 34.54C8.14002 34.6307 8.16477 34.705 8.19502 34.705C8.22527 34.705 8.25002 34.7424 8.25002 34.7882C8.25002 34.834 8.27477 34.9206 8.30502 34.9807C8.33527 35.0408 8.38477 35.1392 8.41502 35.1993C8.44527 35.2594 8.47002 35.346 8.47002 35.3918C8.47002 35.4376 8.49477 35.475 8.52502 35.475C8.55527 35.475 8.58002 35.5245 8.58002 35.585C8.58002 35.6455 8.60477 35.695 8.63502 35.695C8.66527 35.695 8.69002 35.7246 8.69002 35.7607C8.69002 35.853 9.13854 36.7113 9.46318 37.2402C9.61264 37.4837 9.73502 37.7022 9.73502 37.7255C9.73502 37.7488 9.78452 37.8128 9.84502 37.8675C9.90552 37.9222 9.95502 37.9878 9.95502 38.0131C9.95502 38.0538 10.2077 38.4112 10.4261 38.6794C10.4695 38.7326 10.505 38.7881 10.505 38.8025C10.505 38.8169 10.5408 38.8723 10.5845 38.9256C10.6281 38.9789 10.7822 39.1834 10.9267 39.38C11.0714 39.5766 11.3508 39.9355 11.5475 40.1775C11.7443 40.4195 11.943 40.6649 11.9889 40.723C12.5987 41.4924 14.7158 43.5297 15.6079 44.2057C15.7506 44.3138 15.8799 44.4181 15.895 44.4375C15.9101 44.4569 16.0091 44.5322 16.115 44.605C16.2209 44.6777 16.3199 44.7507 16.335 44.7674C16.4201 44.8607 16.8318 45.155 16.8772 45.155C16.9067 45.155 16.9391 45.1756 16.9492 45.2009C16.9677 45.2471 18.1235 46.035 18.173 46.035C18.1876 46.035 18.3059 46.1061 18.436 46.1931C18.5661 46.28 18.9076 46.4718 19.195 46.6194C19.4824 46.7668 19.7258 46.906 19.7358 46.9287C19.746 46.9514 19.787 46.97 19.827 46.97C19.8668 46.97 19.9947 47.0166 20.111 47.0735C20.5773 47.3016 20.9385 47.456 21.285 47.575C21.3909 47.6113 21.527 47.6615 21.5875 47.6864C21.648 47.7112 21.7718 47.747 21.8625 47.7658C21.9533 47.7845 22.1203 47.8236 22.2338 47.8525C23.9631 48.293 24.1368 48.3077 27.1491 48.2709C28.537 48.2538 29.8334 48.216 30.03 48.1869C31.3361 47.9929 31.6135 47.9377 32.8488 47.626C32.9773 47.5935 33.1632 47.5537 33.2618 47.5374C33.3604 47.5211 33.4546 47.4857 33.4712 47.4589C33.4879 47.432 33.5605 47.41 33.6325 47.41C33.7046 47.41 33.7788 47.3852 33.7975 47.355C33.8162 47.3247 33.9044 47.3 33.9933 47.3C34.0823 47.3 34.155 47.2752 34.155 47.245C34.155 47.2147 34.2048 47.19 34.2657 47.19C34.3266 47.19 34.4256 47.1652 34.4857 47.135C34.5458 47.1047 34.6442 47.0552 34.7043 47.025C34.7644 46.9947 34.8634 46.97 34.9243 46.97C34.9852 46.97 35.035 46.9452 35.035 46.915C35.035 46.8847 35.0734 46.86 35.1201 46.86C35.167 46.86 35.3078 46.8105 35.4329 46.75C35.5582 46.6895 35.6931 46.64 35.7328 46.64C35.7726 46.64 35.805 46.6152 35.805 46.585C35.805 46.5547 35.8386 46.53 35.8797 46.53C35.9817 46.53 36.873 46.0892 37.3204 45.8173C37.5216 45.695 37.6978 45.595 37.712 45.595C37.7262 45.595 37.8457 45.5207 37.9775 45.43C38.1094 45.3392 38.24 45.265 38.2676 45.265C38.2953 45.265 38.3628 45.2155 38.4175 45.155C38.4722 45.0945 38.5503 45.045 38.591 45.045C38.6317 45.045 38.6652 45.0264 38.6653 45.0037C38.6654 44.981 38.8014 44.8759 38.9675 44.77C39.1336 44.6641 39.2696 44.5589 39.2697 44.5362C39.2699 44.5135 39.3071 44.495 39.3525 44.495C39.3979 44.495 39.435 44.4756 39.435 44.4518C39.435 44.4282 39.5031 44.3685 39.5863 44.3191C39.6695 44.2699 39.7994 44.1752 39.875 44.1086C39.9506 44.0421 40.0991 43.9224 40.205 43.8428C40.3109 43.7632 40.4099 43.6857 40.425 43.6703C40.4401 43.655 40.6255 43.494 40.8368 43.3125C41.5892 42.6662 42.6907 41.5077 43.3807 40.6367C43.9623 39.9025 44.825 38.6603 44.825 38.5571C44.825 38.5257 44.8459 38.5 44.8714 38.5C44.8969 38.5 44.9771 38.3824 45.0498 38.2387C45.1224 38.0951 45.2104 37.9472 45.2454 37.9104C45.2803 37.8735 45.4033 37.6508 45.5188 37.4154C45.6343 37.18 45.7482 36.9792 45.7718 36.9692C45.7956 36.959 45.815 36.9306 45.815 36.9058C45.815 36.8812 45.9095 36.6543 46.0248 36.4017C46.2113 35.9935 46.3195 35.738 46.4816 35.3237C46.5083 35.2557 46.5531 35.1443 46.5814 35.0762C46.6096 35.0082 46.6642 34.8535 46.7026 34.7325C46.7411 34.6115 46.7922 34.489 46.8163 34.4602C46.8404 34.4315 46.86 34.3526 46.86 34.2848C46.86 34.217 46.8848 34.1462 46.915 34.1275C46.9453 34.1088 46.97 34.0083 46.97 33.9042C46.97 33.8001 46.9948 33.715 47.025 33.715C47.0553 33.715 47.08 33.6284 47.08 33.5225C47.08 33.4166 47.1048 33.33 47.135 33.33C47.1653 33.33 47.19 33.2449 47.19 33.1408C47.19 33.0367 47.2122 32.9378 47.2392 32.9211C47.2663 32.9044 47.3019 32.7977 47.3186 32.6842C47.3755 32.2949 47.4176 32.0924 47.4643 31.9825C47.4902 31.922 47.5281 31.7735 47.5488 31.6525C47.5694 31.5315 47.6094 31.2964 47.6379 31.13C47.9712 29.1749 47.9685 27.0357 47.6303 24.97C47.5981 24.7734 47.5577 24.5135 47.5402 24.3925C47.5229 24.2715 47.4865 24.149 47.4594 24.1202C47.4323 24.0915 47.41 23.9755 47.41 23.8623C47.41 23.7491 47.3853 23.6412 47.355 23.6225C47.3248 23.6038 47.3 23.5048 47.3 23.4025C47.3 23.3002 47.2753 23.2012 47.245 23.1825C47.2148 23.1638 47.19 23.0648 47.19 22.9625C47.19 22.8602 47.1653 22.7612 47.135 22.7425C47.1048 22.7238 47.08 22.6248 47.08 22.5225C47.08 22.4202 47.0553 22.3212 47.025 22.3025C46.9948 22.2838 46.97 22.1972 46.97 22.11C46.97 22.0228 46.9453 21.9362 46.915 21.9175C46.8848 21.8988 46.86 21.8228 46.86 21.7485C46.86 21.6743 46.8377 21.5706 46.8104 21.5181C46.783 21.4655 46.7291 21.3111 46.6905 21.175C46.6518 21.0389 46.6051 20.9027 46.5865 20.8725C46.5681 20.8422 46.5207 20.7185 46.4813 20.5975C46.1942 19.7158 45.136 17.4602 44.9763 17.3892C44.9536 17.379 44.935 17.3233 44.935 17.2655C44.935 17.2074 44.9103 17.16 44.88 17.16C44.8498 17.16 44.825 17.1335 44.825 17.1011C44.825 17.0688 44.7508 16.9344 44.66 16.8025C44.5693 16.6706 44.495 16.5498 44.495 16.534C44.495 16.3923 42.7683 14.0317 42.3081 13.5442C42.2094 13.4397 42.093 13.3034 42.0496 13.2412C41.8578 12.9673 40.8492 11.9404 40.3975 11.5589C40.1253 11.329 39.8654 11.1028 39.82 11.0561C39.7746 11.0095 39.6469 10.9039 39.5361 10.8215C39.4253 10.739 39.3015 10.6403 39.2611 10.6021C39.091 10.4411 38.2751 9.84499 38.2247 9.84499C38.1946 9.84499 38.17 9.82437 38.17 9.79934C38.17 9.77418 38.102 9.71849 38.0188 9.67559C37.9356 9.63255 37.8359 9.56765 37.7973 9.53108C37.6823 9.42259 36.7483 8.85623 36.3304 8.64173C36.1171 8.53214 35.9343 8.42393 35.9242 8.40124C35.9141 8.37855 35.8584 8.35999 35.8005 8.35999C35.7425 8.35999 35.695 8.33524 35.695 8.30499C35.695 8.27474 35.6455 8.24999 35.585 8.24999C35.5245 8.24999 35.475 8.22524 35.475 8.19499C35.475 8.16474 35.4255 8.13999 35.365 8.13999C35.3045 8.13999 35.255 8.11524 35.255 8.08499C35.255 8.05474 35.2202 8.02999 35.1777 8.02999C35.1353 8.02999 34.9929 7.97692 34.8615 7.91215C34.73 7.84739 34.5668 7.77314 34.4988 7.74715C34.2081 7.63633 34.1201 7.60154 33.99 7.54599C33.9144 7.51368 33.7535 7.45579 33.6325 7.41743C33.5115 7.37893 33.389 7.32778 33.3603 7.30372C33.3315 7.27965 33.2632 7.25999 33.2083 7.25999C33.1535 7.25999 33.0656 7.23648 33.0131 7.20774C32.9606 7.179 32.7566 7.11548 32.56 7.06667C32.3634 7.01772 32.0045 6.92848 31.7625 6.86839C30.8806 6.64894 30.3896 6.55792 29.37 6.42468C28.8567 6.35758 26.1634 6.30505 26.1074 6.36102ZM28.875 6.46414C29.2703 6.48985 30.3591 6.64812 30.9375 6.76417C31.7533 6.92779 33.0061 7.26205 33.2331 7.37673C33.2856 7.40327 33.3612 7.42499 33.4011 7.42499C33.5609 7.42499 35.1425 8.10314 35.8767 8.48635C40.0586 10.6696 43.9017 14.7815 45.782 19.085C45.868 19.2816 45.9708 19.5167 46.0107 19.6075C46.4092 20.5151 46.7943 21.6799 47.0562 22.77C47.1616 23.2086 47.2705 23.6541 47.298 23.76C47.3784 24.0688 47.4535 24.4232 47.5138 24.7775C47.5446 24.959 47.5846 25.1941 47.6028 25.3C47.8913 26.9948 47.8398 29.9245 47.4942 31.4875C47.252 32.5824 46.9838 33.6174 46.7673 34.2925C45.5661 38.0401 42.9069 41.7136 39.5725 44.2318C39.0565 44.6215 37.711 45.54 37.6562 45.54C37.6424 45.54 37.474 45.6344 37.2819 45.7499C36.5728 46.1762 35.3317 46.7406 34.2375 47.1344C33.3197 47.4647 31.5713 47.8757 30.2225 48.0782C29.5599 48.1776 23.9137 48.1856 23.54 48.0876C23.4039 48.0518 23.175 47.9961 23.0313 47.9638C22.4415 47.831 22.2408 47.7823 22.11 47.7404C22.0344 47.7162 21.7869 47.641 21.56 47.5733C21.041 47.4184 20.0177 46.9826 19.4425 46.6716C18.6267 46.2305 18.4528 46.131 18.3658 46.0553C18.3179 46.0139 18.2639 45.98 18.2456 45.98C18.2134 45.98 17.4261 45.4547 16.742 44.9768C12.5608 42.0559 8.64409 36.8767 7.80933 33.165C7.77193 32.9986 7.72161 32.8006 7.69741 32.725C7.67307 32.6494 7.62412 32.4142 7.58851 32.2025C7.55289 31.9907 7.50161 31.6987 7.47438 31.5535C7.4473 31.4083 7.42557 30.4307 7.42612 29.381C7.42791 26.4704 7.61546 24.5844 8.11637 22.44C8.27945 21.7418 8.30681 21.6338 8.52117 20.8446C10.1389 14.8866 14.5263 9.80113 19.7175 7.86719C19.899 7.79954 20.097 7.7235 20.1575 7.6982C20.3004 7.63839 20.8597 7.45854 21.175 7.37095C21.3111 7.33314 21.4844 7.28268 21.56 7.25889C21.6356 7.23497 21.8213 7.18684 21.9725 7.15178C22.1238 7.11672 22.3341 7.06639 22.44 7.03999C24.5901 6.50319 26.6455 6.31935 28.875 6.46414ZM14.7939 13.1312L14.2725 13.6675L14.8088 13.1461C15.1037 12.8593 15.345 12.618 15.345 12.6098C15.345 12.57 15.2782 12.6332 14.7939 13.1312ZM39.7375 13.42C39.9476 13.6317 40.132 13.805 40.1471 13.805C40.1623 13.805 40.0026 13.6317 39.7925 13.42C39.5824 13.2082 39.398 13.035 39.3829 13.035C39.3678 13.035 39.5274 13.2082 39.7375 13.42ZM26.3038 15.9329C26.3567 15.9467 26.4433 15.9467 26.4963 15.9329C26.5492 15.9191 26.5059 15.9078 26.4 15.9078C26.2941 15.9078 26.2508 15.9191 26.3038 15.9329ZM28.3525 15.95C28.4433 15.9731 28.5918 15.9921 28.6825 15.9922C28.8213 15.9923 28.8125 15.9851 28.6275 15.9468C28.3489 15.8892 28.1239 15.8918 28.3525 15.95ZM20.1541 18.5487L19.9925 18.7275L20.1713 18.5659C20.3379 18.4154 20.3753 18.37 20.3328 18.37C20.3233 18.37 20.2429 18.4504 20.1541 18.5487ZM35.8325 19.69C36.1339 19.9925 36.3928 20.24 36.408 20.24C36.4231 20.24 36.1889 19.9925 35.8875 19.69C35.5861 19.3875 35.3272 19.14 35.3121 19.14C35.297 19.14 35.5311 19.3875 35.8325 19.69ZM16.4765 24.9465C16.4562 25.0271 16.4502 25.1036 16.4632 25.1166C16.4762 25.1295 16.5033 25.0742 16.5235 24.9935C16.5439 24.9129 16.5498 24.8363 16.5369 24.8234C16.5238 24.8105 16.4967 24.8658 16.4765 24.9465ZM39.2278 26.51C39.2278 26.6159 39.2391 26.6592 39.253 26.6062C39.2667 26.5533 39.2667 26.4667 39.253 26.4137C39.2391 26.3608 39.2278 26.4041 39.2278 26.51ZM9.19891 26.6475C9.19946 26.7685 9.21073 26.8115 9.22393 26.7431C9.23713 26.6747 9.23658 26.5757 9.22283 26.5231C9.20908 26.4705 9.19822 26.5265 9.19891 26.6475ZM16.2378 26.62C16.2378 26.7259 16.2491 26.7692 16.263 26.7162C16.2767 26.6633 16.2767 26.5767 16.263 26.5237C16.2491 26.4708 16.2378 26.5141 16.2378 26.62ZM16.1893 27.885C16.1893 28.1421 16.1988 28.2473 16.2103 28.1187C16.2219 27.9902 16.2219 27.7798 16.2103 27.6512C16.1988 27.5227 16.1893 27.6279 16.1893 27.885ZM39.23 27.72C39.23 27.8561 39.2407 27.9118 39.2538 27.8437C39.267 27.7757 39.267 27.6643 39.2538 27.5962C39.2407 27.5282 39.23 27.5839 39.23 27.72ZM16.2389 29.1775C16.2395 29.2985 16.2507 29.3415 16.2639 29.2731C16.2771 29.2047 16.2766 29.1057 16.2628 29.0531C16.2491 29.0005 16.2382 29.0565 16.2389 29.1775ZM16.2928 29.645C16.2928 29.7509 16.3041 29.7942 16.318 29.7412C16.3317 29.6883 16.3317 29.6017 16.318 29.5487C16.3041 29.4958 16.2928 29.5391 16.2928 29.645ZM35.637 35.8462L35.4475 36.0525L35.6538 35.863C35.8457 35.6865 35.8853 35.64 35.8432 35.64C35.8342 35.64 35.7414 35.7328 35.637 35.8462ZM34.6741 36.8087L34.5125 36.9875L34.6913 36.8259C34.7896 36.7371 34.87 36.6567 34.87 36.6472C34.87 36.6047 34.8246 36.6421 34.6741 36.8087ZM23.925 39.3782C24.0613 39.4236 24.4595 39.4536 24.4155 39.4149C24.4028 39.4039 24.2564 39.3808 24.09 39.3636C23.8948 39.3434 23.8362 39.3485 23.925 39.3782ZM29.1638 39.4179C29.2167 39.4317 29.3033 39.4317 29.3563 39.4179C29.4092 39.4041 29.3659 39.3928 29.26 39.3928C29.1541 39.3928 29.1108 39.4041 29.1638 39.4179ZM13.97 40.2772C13.97 40.2867 14.0505 40.3671 14.1488 40.4559L14.3275 40.6175L14.166 40.4387C14.0154 40.2721 13.97 40.2347 13.97 40.2772ZM29.0813 46.4588C29.1493 46.472 29.2607 46.472 29.3288 46.4588C29.3968 46.4457 29.3411 46.435 29.205 46.435C29.0689 46.435 29.0132 46.4457 29.0813 46.4588Z" fill="#B0D04B"/>
</svg>
