<svg width="45" height="45" viewBox="0 0 45 45" fill="none" xmlns="http://www.w3.org/2000/svg">
<path fill-rule="evenodd" clip-rule="evenodd" d="M26.5329 8.45868C26.438 8.58323 26.3446 8.685 26.3255 8.685C26.3062 8.685 26.2799 8.7255 26.267 8.775C26.254 8.8245 26.2112 8.865 26.1717 8.865C26.1323 8.865 26.1 8.88424 26.1 8.90764C26.1 8.93118 26.0545 9 25.9988 9.06064C25.9431 9.12143 25.8138 9.26923 25.7114 9.38928C25.6091 9.50933 25.4572 9.68074 25.3739 9.77019C24.9395 10.2369 24.7934 10.4007 24.7004 10.5267C24.6442 10.6028 24.5715 10.665 24.5391 10.665C24.5066 10.665 24.48 10.6966 24.48 10.7355C24.48 10.7742 24.4305 10.8602 24.37 10.9267C24.3095 10.9931 24.1222 11.1963 23.9537 11.3781C23.4967 11.8715 23.4971 11.889 23.9742 12.3594C24.1287 12.5116 24.255 12.6498 24.255 12.6666C24.255 12.6834 24.3411 12.7852 24.4463 12.8928C24.6753 13.127 25.0273 13.5323 25.0812 13.624C25.1025 13.6601 25.1987 13.7662 25.295 13.8596C25.3913 13.953 25.47 14.052 25.47 14.0797C25.47 14.1074 25.5004 14.13 25.5375 14.13C25.5746 14.13 25.605 14.1496 25.605 14.1735C25.605 14.2113 25.6916 14.3115 26.132 14.7825C26.4004 15.0696 26.685 15.4275 26.685 15.4778C26.685 15.5244 26.6984 15.5249 26.7525 15.4801C26.809 15.4331 26.82 15.2505 26.82 14.3565C26.82 13.3275 26.8235 13.2858 26.915 13.2033C27.1124 13.0249 30.96 13.0931 30.96 13.2749C30.96 13.2958 31.0186 13.3257 31.0904 13.3415C31.162 13.3572 31.2563 13.4094 31.2999 13.4576C31.3433 13.5057 31.4055 13.545 31.4379 13.545C31.5119 13.545 32.04 14.0839 32.04 14.1595C32.04 14.1902 32.0906 14.27 32.1525 14.3368C32.2144 14.4035 32.265 14.4943 32.265 14.5384C32.265 14.5825 32.2978 14.6514 32.3378 14.6913C32.3777 14.7313 32.429 14.8492 32.4519 14.9533C32.4746 15.0573 32.5279 15.2134 32.5703 15.3C32.6483 15.4591 32.7222 29.6565 32.6479 30.1773C32.622 30.3586 32.3053 30.6451 32.1308 30.6451C32.1011 30.6451 32.0273 30.6838 31.967 30.7313C31.9067 30.7788 31.7719 30.8318 31.6674 30.8491C31.563 30.8665 31.4228 30.9086 31.356 30.9428C31.2075 31.0188 30.2636 31.029 30.0742 30.9567C30.0046 30.93 29.8381 30.8879 29.7045 30.8631C29.5708 30.8383 29.389 30.779 29.3002 30.7315C29.2114 30.684 29.1082 30.6447 29.0707 30.6442C29.0098 30.6435 28.6854 30.4507 28.5432 30.3308C28.5133 30.3056 28.4705 30.2851 28.4482 30.2851C28.4258 30.2851 28.336 30.2365 28.2484 30.1771C28.1609 30.1177 28.0417 30.0545 27.9834 30.0367C27.9252 30.0189 27.8471 29.9782 27.81 29.9464C27.7729 29.9145 27.6615 29.8659 27.5625 29.8385C27.4635 29.811 27.3433 29.7586 27.2952 29.7219C27.247 29.685 27.1737 29.6551 27.1322 29.6551C27.0906 29.6551 26.9014 29.6044 26.7119 29.5426C26.064 29.3311 24.9367 29.4126 24.435 29.7073C24.3979 29.7291 24.3001 29.7777 24.2177 29.8155C23.9865 29.9215 23.4367 30.3238 23.1299 30.6113C22.9429 30.7866 22.7695 30.828 22.659 30.7238C22.6262 30.6928 22.5342 30.6169 22.4546 30.5551C22.3749 30.4932 22.2665 30.4007 22.2136 30.3496C22.0567 30.1978 21.487 29.8351 21.4055 29.8351C21.364 29.8351 21.2895 29.7946 21.24 29.7451C21.1905 29.6956 21.1203 29.6551 21.0839 29.6551C21.0475 29.6551 20.8627 29.6044 20.6731 29.5426C20.1046 29.3569 19.2617 29.4445 18.6689 29.7505C18.5789 29.797 18.4537 29.8351 18.3908 29.8351C18.328 29.8351 18.2497 29.8616 18.217 29.8941C18.1377 29.9728 17.6085 30.2401 17.5317 30.2401C17.4984 30.2401 17.4467 30.2694 17.4169 30.3053C17.3871 30.3411 17.2897 30.3946 17.2003 30.4241C17.1108 30.4536 16.9972 30.5155 16.9478 30.5614C16.8984 30.6073 16.8245 30.6451 16.7834 30.6451C16.7424 30.6451 16.6621 30.6856 16.605 30.7351C16.548 30.7846 16.4787 30.8251 16.4512 30.8251C16.4237 30.8251 16.3205 30.8706 16.2218 30.9263C15.991 31.0566 14.9243 31.0724 14.58 30.9507C14.4686 30.9112 14.2915 30.8559 14.1863 30.8278L13.995 30.7765V29.4132C13.995 28.6635 13.9814 28.0364 13.9646 28.0196C13.948 28.0029 13.7506 28.1786 13.5259 28.4099C13.036 28.9144 12.9424 28.9522 12.7158 28.7385C12.6274 28.6552 12.555 28.5647 12.555 28.5375C12.555 28.5105 12.5159 28.4673 12.4681 28.4416C12.4202 28.416 12.3683 28.3546 12.3525 28.3051C12.3368 28.2556 12.2973 28.2151 12.2648 28.2151C12.2321 28.2151 12.1945 28.1728 12.181 28.1211C12.1651 28.0603 12.1275 28.0328 12.0744 28.043C11.8946 28.0776 11.9626 32.2988 12.15 32.7304C12.1946 32.8334 12.245 33.0224 12.2618 33.1504C12.2787 33.2785 12.3193 33.3935 12.3521 33.4061C12.3848 33.4187 12.4261 33.4954 12.444 33.5764C12.4618 33.6576 12.5111 33.7755 12.5537 33.8383C12.5962 33.9011 12.6898 34.0423 12.7617 34.152C12.9302 34.4089 13.0267 34.5241 13.275 34.7637C13.3864 34.8715 13.5308 35.0112 13.5961 35.0747C13.6613 35.1381 13.7474 35.1901 13.7873 35.1901C13.8273 35.1901 13.86 35.2092 13.86 35.2329C13.86 35.2564 14.0372 35.3616 14.2538 35.4666C14.4703 35.5715 14.6576 35.6709 14.67 35.6873C14.6824 35.7036 14.7735 35.7315 14.8725 35.7492C14.9715 35.767 15.1943 35.8255 15.3675 35.8795L15.6825 35.9776H23.4H31.1175L31.3425 35.8811C31.4662 35.828 31.6583 35.7697 31.7692 35.7517C31.8802 35.7334 31.9915 35.6927 32.0167 35.661C32.0419 35.6293 32.1839 35.5397 32.3323 35.4617C32.4807 35.3838 32.6427 35.2837 32.6923 35.2392C32.7419 35.1948 32.818 35.146 32.8612 35.1307C32.9046 35.1154 32.94 35.0733 32.94 35.0371C32.94 35.0007 32.9805 34.9583 33.03 34.9426C33.0795 34.9268 33.12 34.8981 33.12 34.8787C33.12 34.8479 33.1958 34.7557 33.457 34.4688C33.4915 34.431 33.5425 34.35 33.5704 34.2888C33.5983 34.2276 33.6789 34.0763 33.7495 33.9526C33.9923 33.526 34.155 33.1705 34.155 33.0659C34.155 33.0083 34.1961 32.8847 34.2461 32.7912C34.2963 32.6977 34.3496 32.5258 34.3648 32.4093C34.38 32.2928 34.4302 32.0475 34.4762 31.8641C34.6081 31.3396 34.6066 14.9706 34.4747 14.5285C34.4278 14.3712 34.3771 14.1263 34.3619 13.9843C34.3467 13.8423 34.294 13.6601 34.2449 13.5793C34.1956 13.4985 34.1552 13.399 34.1551 13.3579C34.155 13.28 33.934 12.8202 33.8766 12.7785C33.8584 12.7652 33.8121 12.6791 33.7736 12.5872C33.7353 12.4953 33.6852 12.42 33.6625 12.42C33.6397 12.42 33.6084 12.38 33.5929 12.3309C33.5772 12.2819 33.3979 12.0743 33.1944 11.8697C32.8555 11.5291 32.7273 11.4265 32.3325 11.1801C32.1202 11.0478 31.7083 10.848 31.6444 10.8465C31.6125 10.8457 31.5011 10.7994 31.3969 10.7438C31.2103 10.644 31.177 10.6422 29.1278 10.62C27.2099 10.5993 27.0419 10.5912 26.9678 10.5173C26.8965 10.446 26.885 10.3146 26.865 9.34774C26.8394 8.10429 26.8274 8.07244 26.5329 8.45868ZM17.4097 13.5646C17.1981 13.7084 17.19 13.7746 17.19 15.3663C17.19 16.5466 17.2355 17.1451 17.3251 17.1451C17.3431 17.1451 17.3926 17.2362 17.4352 17.3476C17.4777 17.4589 17.5297 17.5501 17.5507 17.5501C17.5717 17.5501 17.6011 17.5883 17.6159 17.6349C17.6308 17.6817 17.6935 17.778 17.7552 17.8487C17.9446 18.0658 17.9632 18.0921 18.0801 18.3083C18.2875 18.6915 18.1135 19.378 17.7055 19.7859C17.6695 19.8219 17.64 19.8795 17.64 19.914C17.64 19.9484 17.602 20.0127 17.5556 20.057C17.5092 20.1013 17.4557 20.1878 17.4367 20.2492C17.4178 20.3106 17.3647 20.4168 17.3187 20.4854C17.2727 20.554 17.1973 20.6661 17.1513 20.7347C17.1053 20.8032 17.0522 20.9095 17.0333 20.971C17.0144 21.0322 16.9772 21.1096 16.9506 21.1429C16.8279 21.2959 16.4486 22.1282 16.4615 22.2166C16.4921 22.4294 17.4448 22.4569 17.7895 22.2549C17.8973 22.1916 18.0197 22.1401 18.0617 22.1401C18.1035 22.1401 18.1495 22.1097 18.1637 22.0726C18.178 22.0354 18.2086 22.0051 18.2319 22.0051C18.2691 22.0051 18.6254 21.7535 19.0103 21.4554C19.1825 21.3218 20.7888 19.7412 20.7895 19.7044C20.7904 19.6567 21.0759 19.3721 21.2019 19.2934C21.3536 19.1985 21.7484 19.376 21.8783 19.5976C22.0793 19.9402 22.1576 20.0688 22.344 20.3626C22.454 20.5358 22.5783 20.7433 22.6204 20.8238C22.6624 20.9042 22.711 20.9701 22.7285 20.9701C22.7459 20.9701 22.7911 21.0471 22.8287 21.1413C22.8664 21.2356 22.9294 21.3393 22.9687 21.3719C23.008 21.4044 23.04 21.4565 23.04 21.4876C23.04 21.5186 23.0687 21.5679 23.1038 21.597C23.1665 21.6489 23.4959 22.1606 23.6212 22.4006C23.6562 22.4677 23.7625 22.6279 23.8574 22.7568C23.9524 22.8858 24.03 23.0043 24.03 23.0203C24.03 23.0365 24.0806 23.1096 24.1425 23.1832C24.2044 23.2568 24.255 23.3427 24.255 23.374C24.255 23.4055 24.2937 23.466 24.341 23.5088C24.3882 23.5517 24.4393 23.6359 24.4544 23.6958C24.4694 23.7558 24.5012 23.8051 24.5249 23.8051C24.5488 23.8051 24.6141 23.8888 24.6704 23.9911C24.8399 24.2999 24.8751 24.3559 24.9178 24.3849C24.9403 24.4 25.0382 24.5442 25.1356 24.7051C25.2329 24.8659 25.348 25.0368 25.3913 25.0847C25.4346 25.1328 25.47 25.1985 25.47 25.2309C25.47 25.2635 25.4871 25.2901 25.5079 25.2901C25.5287 25.2901 25.584 25.3609 25.6307 25.4476C25.6774 25.5342 25.7287 25.6051 25.7447 25.6051C25.7609 25.6051 25.801 25.6699 25.8338 25.7493C25.8668 25.8287 25.9299 25.93 25.9744 25.9743C26.0187 26.0187 26.055 26.0832 26.055 26.1177C26.055 26.1523 26.0856 26.1921 26.1229 26.2065C26.1602 26.2207 26.2158 26.2888 26.2464 26.3575C26.2769 26.4263 26.3176 26.5028 26.3367 26.5276C26.4452 26.6676 26.6004 26.9022 26.6494 27.0001C26.6803 27.0619 26.7314 27.1288 26.7629 27.1486C26.7943 27.1684 26.82 27.2032 26.82 27.226C26.82 27.2692 27.0711 27.6508 27.1688 27.7559C27.1997 27.7892 27.225 27.8429 27.225 27.8753C27.225 27.9075 27.2585 27.9618 27.2995 27.9957C27.3404 28.0297 27.4021 28.1183 27.4364 28.1926C27.6005 28.5472 28.0287 28.9783 28.2177 28.9794C28.2809 28.9797 28.372 29.0098 28.4202 29.046C28.5491 29.1437 29.3964 29.1423 29.4943 29.0442C29.592 28.9466 29.5832 28.8802 29.4525 28.7283C29.3908 28.6563 29.3401 28.5747 29.34 28.5468C29.34 28.5189 29.3096 28.4709 29.2725 28.4401C29.2354 28.4092 29.205 28.349 29.205 28.3062C29.205 28.2634 29.1544 28.1332 29.0925 28.0168C29.0306 27.9005 28.98 27.7849 28.98 27.7602C28.98 27.7354 28.8787 27.5047 28.755 27.2476C28.6313 26.9904 28.53 26.7609 28.53 26.738C28.53 26.715 28.5021 26.673 28.4681 26.6446C28.4341 26.6164 28.3938 26.5154 28.3785 26.42C28.3633 26.3247 28.3216 26.2225 28.2858 26.1928C28.25 26.1631 28.207 26.0762 28.1902 25.9995C28.1734 25.923 28.1144 25.7752 28.0592 25.6714C28.0039 25.5675 27.9461 25.4442 27.9307 25.3974C27.9153 25.3508 27.8854 25.2822 27.8645 25.2451C27.7127 24.9769 27.585 24.6918 27.585 24.6211C27.585 24.575 27.5462 24.4878 27.4987 24.4275C27.4513 24.3671 27.3985 24.2436 27.3815 24.153C27.3645 24.0625 27.3233 23.9657 27.2902 23.938C27.2569 23.9104 27.2058 23.8134 27.1766 23.7227C27.1475 23.6319 27.0977 23.5272 27.0661 23.4901C27.0343 23.4529 26.9855 23.3364 26.9575 23.2313C26.9295 23.1261 26.8897 23.0401 26.8692 23.0401C26.8486 23.0401 26.8063 22.9492 26.7752 22.8385C26.7442 22.7275 26.691 22.6137 26.6569 22.5854C26.6229 22.5572 26.595 22.494 26.595 22.4449C26.595 22.3959 26.5455 22.2616 26.485 22.1466C26.3038 21.8022 26.145 21.4509 26.145 21.3942C26.145 21.365 26.1162 21.3172 26.081 21.288C26.0458 21.2587 26.0038 21.1564 25.9875 21.0603C25.9713 20.9643 25.9191 20.8409 25.8715 20.786C25.8239 20.7312 25.785 20.6515 25.785 20.6092C25.785 20.5669 25.7445 20.4807 25.695 20.4177C25.6455 20.3547 25.605 20.2782 25.605 20.2474C25.605 20.1941 25.4625 19.8694 25.2895 19.5288C25.2451 19.4415 25.1858 19.2846 25.1577 19.18C25.1296 19.0756 25.0897 18.9901 25.0692 18.9901C25.0486 18.9901 25.0063 18.8992 24.9752 18.7885C24.9442 18.6775 24.891 18.5637 24.8569 18.5354C24.8229 18.5072 24.795 18.4551 24.795 18.4197C24.795 18.3844 24.7554 18.2805 24.707 18.1889C24.5653 17.9209 24.345 17.434 24.3451 17.389C24.3452 17.3662 24.3064 17.2666 24.259 17.1676C24.2115 17.0686 24.1508 16.9369 24.1242 16.8751C24.0975 16.8132 24.0585 16.7322 24.0374 16.695C23.9384 16.5204 23.8054 16.2055 23.7617 16.0426C23.7353 15.9436 23.6835 15.8232 23.6468 15.7753C23.6101 15.7271 23.58 15.6436 23.58 15.5897C23.58 15.4596 22.9646 14.67 22.8633 14.67C22.8395 14.67 22.7936 14.6346 22.7614 14.5913C22.729 14.5479 22.6266 14.4774 22.5338 14.4345C22.441 14.3916 22.365 14.3382 22.365 14.3157C22.365 14.2932 22.3109 14.2612 22.2449 14.2446C22.1787 14.228 22.0748 14.1753 22.0138 14.1272C21.9528 14.0793 21.8791 14.04 21.8502 14.04C21.8212 14.04 21.7288 13.9894 21.645 13.9275C21.5612 13.8657 21.4574 13.815 21.4145 13.815C21.3715 13.815 21.3049 13.7835 21.2665 13.7451C21.0355 13.5141 20.4496 13.4184 19.9052 13.5225C19.5053 13.599 18.9629 13.6101 18.6435 13.5482C18.088 13.4405 17.5824 13.4472 17.4097 13.5646ZM21.3748 20.6839C21.3374 20.694 21.2666 20.7718 21.2173 20.8567C21.1679 20.9415 21.0364 21.1663 20.925 21.3562C20.6966 21.7455 20.3882 22.2983 20.2491 22.5676C20.198 22.6666 20.1067 22.8286 20.0463 22.9276C19.9858 23.0266 19.8972 23.1913 19.8494 23.2939C19.8016 23.3963 19.7421 23.4928 19.7172 23.5081C19.6924 23.5234 19.6589 23.5952 19.6431 23.6674C19.6272 23.7396 19.584 23.824 19.547 23.8546C19.5101 23.8852 19.4499 23.9727 19.4134 24.049C19.3768 24.1252 19.2978 24.2686 19.238 24.3676C19.178 24.4666 19.0779 24.6488 19.0154 24.7726C18.9529 24.8963 18.8567 25.0684 18.8015 25.1551C18.7463 25.2417 18.6648 25.3834 18.6203 25.4701C18.5758 25.5567 18.4898 25.7086 18.4292 25.8076C18.3685 25.9066 18.2765 26.0686 18.2248 26.1676C18.1732 26.2666 18.0911 26.4234 18.0425 26.5163C17.9941 26.6091 17.9365 26.6851 17.9145 26.6851C17.8927 26.6851 17.8609 26.7407 17.8439 26.8088C17.8269 26.8768 17.7806 26.9686 17.741 27.0124C17.6598 27.1025 17.5838 27.8853 17.6264 28.1926C17.6622 28.4509 18.1642 28.9351 18.396 28.9351C18.4817 28.9349 18.8861 28.5591 18.99 28.3827C19.0271 28.3197 19.1993 28.0618 19.3725 27.8094C19.5458 27.557 19.7213 27.2856 19.7626 27.2064C19.8038 27.127 19.8697 27.0356 19.9088 27.003C19.948 26.9706 19.98 26.9272 19.98 26.9067C19.98 26.8648 20.24 26.4677 20.3242 26.3811C20.3544 26.3499 20.392 26.2841 20.4076 26.2348C20.4233 26.1854 20.453 26.1451 20.4737 26.1451C20.4943 26.1451 20.5337 26.0893 20.5612 26.0213C20.5886 25.9532 20.6619 25.8267 20.7238 25.7401C20.7857 25.6534 20.8561 25.5522 20.88 25.5151C20.904 25.4779 20.9741 25.3767 21.0357 25.2901C21.0973 25.2034 21.168 25.0869 21.1928 25.0313C21.2175 24.9756 21.2544 24.9301 21.2749 24.9301C21.2953 24.9301 21.3376 24.8592 21.3689 24.7726C21.4002 24.6859 21.4425 24.6151 21.4628 24.6151C21.4934 24.6151 21.7234 24.2668 21.9416 23.8902C21.9685 23.8438 22.0241 23.7684 22.0653 23.723C22.1064 23.6775 22.14 23.6237 22.14 23.6032C22.14 23.5828 22.1906 23.4997 22.2525 23.4185C22.3144 23.3373 22.365 23.2576 22.365 23.2412C22.365 23.2248 22.4083 23.1505 22.4613 23.0761C22.6187 22.8551 22.6361 22.3525 22.4919 22.1941C22.3837 22.075 22.2788 21.9223 22.1414 21.6826C22.0662 21.5517 21.9273 21.318 21.758 21.0376C21.6982 20.9386 21.6249 20.8119 21.595 20.7563C21.5416 20.6569 21.5108 20.6468 21.3748 20.6839ZM20.6775 30.9776C21.1941 31.1898 21.6024 31.4549 21.8359 31.7298C22.276 32.2478 22.36 32.2896 22.8941 32.2563C23.2187 32.236 23.4411 32.1191 23.7363 31.8135C24.7322 30.7824 26.2719 30.6163 27.4699 31.4108C27.9205 31.7098 28.6141 31.975 29.16 32.0572C29.3951 32.0928 29.6483 32.146 29.7225 32.1756C29.8121 32.2113 30.2318 32.2325 30.9701 32.2386C32.0723 32.2476 32.1965 32.2615 32.0932 32.3648C32.064 32.394 32.0397 32.4494 32.0392 32.4878C32.0366 32.7086 31.4538 33.3129 31.1506 33.4092C31.1017 33.4247 31.0257 33.4774 30.9815 33.5262C30.9373 33.5751 30.8627 33.6151 30.8158 33.6151C30.7689 33.6151 30.6758 33.6426 30.609 33.6763C30.3756 33.7939 30.0365 33.7993 23.0447 33.7962C16.1137 33.793 16.0026 33.7915 15.8608 33.704C15.7816 33.6551 15.6484 33.6149 15.5647 33.6148C15.3459 33.6146 14.58 33.0274 14.58 32.86C14.58 32.8333 14.5494 32.781 14.5122 32.7436C14.4748 32.7063 14.4052 32.5846 14.3576 32.4735C14.2297 32.1753 14.2755 32.1537 14.8921 32.2217C15.6413 32.3044 16.6229 32.2624 16.8518 32.1377C16.9505 32.084 17.0619 32.0399 17.0993 32.0399C17.1368 32.0398 17.2384 31.9949 17.325 31.9402C17.6168 31.7559 17.6623 31.7287 17.73 31.6963C17.7671 31.6787 17.956 31.5665 18.1499 31.447C18.3436 31.3277 18.5227 31.2301 18.5479 31.2301C18.5731 31.2301 18.6487 31.1907 18.7161 31.1428C18.8362 31.0573 19.2625 30.8967 19.485 30.8532C19.76 30.7995 20.4086 30.8671 20.6775 30.9776Z" fill="#0F5124"/>
<path fill-rule="evenodd" clip-rule="evenodd" d="M0 22.5V45H22.5H45V22.5V0H22.5H0V22.5ZM27.0094 7.84122C27.0146 7.84745 27.0298 8.40939 27.0432 9.09L27.0675 10.3275L28.98 10.3502C30.635 10.37 30.9136 10.3831 31.05 10.4475C31.1366 10.4886 31.2857 10.5353 31.3811 10.5515C31.5393 10.5783 31.8323 10.6915 32.0625 10.815C32.112 10.8414 32.2132 10.8957 32.2875 10.9356C32.4884 11.0434 32.7244 11.1917 32.8392 11.2823C33.0248 11.4288 33.615 12.0082 33.615 12.0441C33.615 12.0635 33.6561 12.1205 33.7062 12.1709C33.8262 12.2912 34.0631 12.6535 34.0642 12.7182C34.0647 12.7461 34.0953 12.7941 34.1322 12.8248C34.1692 12.8554 34.2216 12.9642 34.2488 13.0665C34.276 13.1688 34.3251 13.2829 34.3578 13.32C34.3906 13.3571 34.431 13.4685 34.4476 13.5675C34.4643 13.6665 34.5048 13.8082 34.5377 13.8825C34.756 14.3755 34.7553 14.3494 34.7726 23.13C34.7835 28.6609 34.7737 31.3948 34.7426 31.5028C34.7173 31.591 34.6742 31.8239 34.6471 32.0203C34.62 32.2167 34.5709 32.4382 34.5382 32.5125C34.5056 32.5867 34.4672 32.7133 34.453 32.7937C34.4388 32.8742 34.3863 33.03 34.3361 33.14C34.2861 33.25 34.245 33.379 34.245 33.4264C34.245 33.474 34.2073 33.5611 34.1612 33.6202C34.1151 33.6792 34.0629 33.774 34.0451 33.8307C34.0114 33.938 33.6698 34.4817 33.5536 34.6129C33.5169 34.6543 33.4635 34.7318 33.435 34.785C33.3691 34.9081 33.223 35.055 33.1666 35.055C33.1427 35.055 33.104 35.0904 33.0807 35.1337C33.0573 35.1771 32.9541 35.2733 32.8511 35.3475C32.7482 35.4218 32.6379 35.5063 32.6061 35.5354C32.5741 35.5645 32.4793 35.6205 32.3953 35.6599C32.3112 35.6994 32.1919 35.7596 32.13 35.7937C31.8664 35.9392 31.6369 36.0178 31.32 36.0711C31.1344 36.1023 30.9015 36.1492 30.8025 36.1753C30.4941 36.2567 16.031 36.2419 15.8739 36.16C15.8059 36.1245 15.6034 36.0815 15.4239 36.0642C15.2444 36.047 15.0266 35.998 14.94 35.9551C14.8534 35.9123 14.7072 35.8635 14.6152 35.8468C14.5232 35.8301 14.4214 35.79 14.389 35.7576C14.3566 35.7252 14.2562 35.6742 14.1661 35.6445C14.076 35.6147 13.9779 35.561 13.9481 35.5252C13.9183 35.4894 13.8711 35.46 13.8432 35.46C13.8153 35.4599 13.7337 35.4093 13.6618 35.3475C13.5899 35.2856 13.519 35.2349 13.5043 35.2348C13.3928 35.2341 12.555 34.302 12.555 34.1787C12.555 34.1486 12.5156 34.0883 12.4676 34.0449C12.4194 34.0013 12.3662 33.902 12.3492 33.8241C12.3321 33.7462 12.2804 33.6342 12.2341 33.5752C12.1879 33.5161 12.15 33.429 12.15 33.3817C12.15 33.3343 12.1185 33.2345 12.0799 33.1599C12.0413 33.0855 11.9816 32.8688 11.947 32.6784C11.9125 32.4882 11.8601 32.2616 11.8305 32.175C11.7444 31.9229 11.7177 27.8599 11.8012 27.7482C11.879 27.6444 12.0942 27.7632 12.285 28.0154C12.4748 28.2662 12.8803 28.7316 12.9237 28.7482C12.9462 28.7569 13.1812 28.5425 13.446 28.2718C14.2311 27.469 14.1748 27.3993 14.1756 29.175C14.1763 30.7494 14.1727 30.7238 14.3937 30.7587C14.4838 30.7729 14.6832 30.814 14.8367 30.8497C15.5168 31.0086 16.0954 30.906 16.785 30.5045C16.8221 30.4828 17.0097 30.3865 17.2017 30.2902C17.3937 30.194 17.576 30.0954 17.6067 30.071C17.6374 30.0466 17.7369 30.0028 17.8276 29.9736C17.9184 29.9443 18.0161 29.8924 18.0445 29.8581C18.0729 29.8239 18.1607 29.782 18.2394 29.7652C18.318 29.7484 18.4331 29.7072 18.495 29.6738C19.3197 29.2275 20.7018 29.2184 21.33 29.655C21.3919 29.698 21.4931 29.7483 21.555 29.7667C21.6169 29.7853 21.708 29.8344 21.7575 29.8762C21.807 29.9179 21.9386 30.0114 22.05 30.0841C22.2442 30.2106 22.3621 30.3032 22.5514 30.478C22.6729 30.5902 22.8601 30.6555 22.9218 30.6071C23.0637 30.4955 23.7522 29.9621 23.85 29.888C23.9119 29.8411 24.0131 29.7869 24.075 29.7676C24.1369 29.7484 24.2358 29.6949 24.2948 29.6488C24.3539 29.6027 24.4298 29.565 24.4637 29.565C24.4977 29.565 24.598 29.5261 24.6869 29.4784C25.1443 29.2332 26.4064 29.217 26.8739 29.4502C26.9482 29.4873 27.0829 29.5311 27.1732 29.5476C27.2636 29.564 27.3881 29.6122 27.45 29.6547C27.5119 29.6972 27.621 29.746 27.6925 29.7633C27.7641 29.7807 27.9787 29.8849 28.1695 29.995C28.3602 30.105 28.5303 30.195 28.5475 30.195C28.5646 30.195 28.6335 30.2326 28.7005 30.2786C28.9844 30.473 29.1114 30.5356 29.4525 30.649C30.4657 30.9859 31.3659 30.9176 32.2787 30.4345C32.4946 30.3202 32.49 30.484 32.49 22.9519C32.49 14.8465 32.5133 15.4018 32.1407 14.6271C31.942 14.2143 31.4151 13.59 31.2651 13.59C31.2373 13.59 31.1826 13.5631 31.1435 13.5303C30.846 13.2798 30.6447 13.2549 28.8042 13.2394C27.4193 13.2279 27.0685 13.2367 27.0386 13.2838C27.0181 13.3161 27.001 13.8724 27.0007 14.52C27 15.6528 26.9872 15.84 26.91 15.84C26.8905 15.84 26.5756 15.5008 26.2104 15.0863C25.845 14.6717 25.508 14.292 25.4614 14.2425C25.2654 14.0337 24.9841 13.7182 24.795 13.4952C24.3151 12.9287 23.6833 12.2202 23.4765 12.0163C23.3527 11.8944 23.4133 11.7607 23.7629 11.3849C23.9354 11.1993 24.1704 10.9311 24.2849 10.7887C24.3996 10.6464 24.5105 10.53 24.5316 10.53C24.5528 10.53 24.5706 10.4946 24.5712 10.4512C24.572 10.4079 24.6783 10.2599 24.8075 10.1222C24.9367 9.9846 25.1134 9.7857 25.2 9.68019C25.2866 9.57475 25.4816 9.36104 25.6331 9.20534C25.7848 9.0495 25.9265 8.89165 25.9481 8.85455C25.9698 8.81744 26.1697 8.59064 26.3925 8.35055C26.6152 8.11032 26.8042 7.89501 26.8125 7.87195C26.8256 7.8354 26.9838 7.81062 27.0094 7.84122ZM21.4395 10.4248C22.439 10.4479 22.7386 10.468 22.7559 10.5132C22.7809 10.5785 22.5467 11.07 22.4905 11.07C22.471 11.07 22.455 11.0934 22.455 11.122C22.455 11.1505 22.4044 11.2403 22.3425 11.3215C22.2806 11.4027 22.23 11.4844 22.23 11.5033C22.23 11.5222 22.1798 11.6101 22.1184 11.6986C21.8952 12.0207 21.9115 12.1002 22.2673 12.4226C22.7928 12.8989 23.008 12.8637 19.4506 12.8828C16.1459 12.9005 16.2289 12.8944 15.7235 13.1552C14.9506 13.5539 14.4579 14.2845 14.1713 15.4575C14.0705 15.87 14.0584 22.8643 14.1583 22.9374C14.217 22.9801 14.4988 22.995 15.2545 22.995C16.4681 22.995 16.5453 23.039 16.0841 23.4675C16.0575 23.4922 15.821 23.7757 15.5586 24.0975C15.2963 24.4192 15.0446 24.723 14.9995 24.7725C14.9202 24.8596 14.1735 25.7739 13.8674 26.1587C13.7848 26.2626 13.6523 26.4184 13.5728 26.505C13.4934 26.5916 13.36 26.7486 13.2767 26.8537C13.0473 27.1429 13.0477 27.1431 12.2848 26.28C12.077 26.0449 11.8755 25.8397 11.8372 25.8239C11.7678 25.7955 11.4621 25.4729 11.3967 25.3592C11.3779 25.3264 11.241 25.1698 11.0925 25.0111C10.944 24.8524 10.6402 24.5124 10.4175 24.2557C10.1947 23.9988 9.91315 23.6808 9.79179 23.5489C9.59082 23.3306 9.57552 23.299 9.62204 23.197L9.67306 23.085H10.5684C11.0609 23.085 11.5271 23.0724 11.6044 23.0569L11.745 23.0287V19.5546C11.745 16.0842 11.7718 15.3035 11.9046 14.8983C11.9406 14.7887 11.9701 14.6368 11.9702 14.5608C11.9703 14.4847 12.0205 14.2807 12.0817 14.1075C12.143 13.9342 12.1935 13.7595 12.1941 13.7193C12.1945 13.679 12.222 13.6235 12.2551 13.5962C12.2881 13.5687 12.3428 13.4599 12.3765 13.3544C12.433 13.1777 12.6165 12.8485 12.9103 12.3975C13.3211 11.7666 14.6811 10.755 15.1185 10.755C15.1465 10.755 15.2278 10.7248 15.299 10.6881C15.4173 10.6269 15.9333 10.5259 16.56 10.4416C16.8879 10.3974 19.8142 10.3873 21.4395 10.4248ZM21.15 13.5341C21.3109 13.6144 21.4729 13.6982 21.51 13.7203C21.5471 13.7423 21.6281 13.7838 21.69 13.8124C22.6143 14.2397 23.664 15.1224 23.6715 15.4784C23.6722 15.5164 23.7026 15.5868 23.739 15.6348C23.7753 15.6829 23.8052 15.7538 23.8054 15.7923C23.8057 15.8309 23.8556 15.9637 23.9165 16.0875C23.9773 16.2112 24.0279 16.3307 24.0285 16.353C24.0299 16.3902 24.1528 16.6623 24.346 17.055C24.3885 17.1416 24.4374 17.2717 24.4545 17.3439C24.4716 17.4162 24.5248 17.5253 24.5728 17.5862C24.6207 17.6472 24.66 17.7157 24.66 17.7385C24.66 17.7613 24.7029 17.875 24.7552 17.9912C24.9626 18.4519 25.0776 18.7064 25.1658 18.9C25.2165 19.0114 25.2843 19.1632 25.3163 19.2375C25.3484 19.3117 25.4376 19.5142 25.5145 19.6875C25.5915 19.8607 25.6889 20.0818 25.731 20.1787C25.7731 20.2755 25.8632 20.465 25.9312 20.5995C25.9993 20.7341 26.055 20.8654 26.055 20.8914C26.055 20.9172 26.1037 21.0418 26.1633 21.168C26.223 21.2942 26.3647 21.5936 26.4783 21.8332C26.592 22.0729 26.685 22.2889 26.685 22.3134C26.685 22.3378 26.714 22.4151 26.7496 22.4851C26.785 22.5551 26.8634 22.7239 26.9238 22.86C26.9842 22.9961 27.0868 23.2192 27.1518 23.3557C27.2168 23.4921 27.27 23.6263 27.27 23.6539C27.27 23.6815 27.2983 23.7275 27.3331 23.7563C27.3678 23.7851 27.4097 23.8635 27.4261 23.9305C27.4556 24.0501 27.5329 24.2329 27.7438 24.6825C27.802 24.8062 27.9038 25.029 27.9701 25.1775C28.0365 25.326 28.1317 25.5386 28.1819 25.65C28.377 26.083 28.4377 26.2204 28.5302 26.4375C28.583 26.5612 28.6785 26.7739 28.7424 26.91C28.8708 27.1831 28.9696 27.403 29.117 27.7425C29.1708 27.8662 29.2632 28.0708 29.3223 28.197C29.3815 28.3232 29.43 28.4418 29.43 28.4605C29.43 28.4791 29.4806 28.5546 29.5425 28.6282C29.6696 28.7793 29.6909 29.0037 29.5911 29.1402C29.5038 29.2594 28.482 29.2719 28.303 29.1558C28.2422 29.1165 28.1413 29.0717 28.0788 29.0563C27.8819 29.0079 27.5922 28.6945 27.3359 28.2527C27.3121 28.2115 27.1659 27.9933 27.0112 27.7677C26.8566 27.5421 26.73 27.3395 26.73 27.3175C26.73 27.2955 26.7148 27.2708 26.6962 27.2625C26.6673 27.2496 26.5063 27.0217 26.3482 26.7697C26.2831 26.6661 25.9409 26.147 25.8805 26.0603C25.7935 25.9355 25.4497 25.4172 25.4025 25.3395C25.3777 25.2989 25.317 25.2052 25.2675 25.1314C25.218 25.0576 25.1572 24.964 25.1325 24.9235C25.1077 24.8829 24.9747 24.6805 24.8367 24.4736C24.6988 24.2667 24.5469 24.039 24.4992 23.9674C24.3601 23.7586 24.3325 23.7165 24.1323 23.4042C24.0276 23.241 23.9112 23.0754 23.8735 23.0362C23.8358 22.997 23.805 22.9441 23.805 22.9186C23.805 22.8932 23.7442 22.796 23.67 22.7025C23.5957 22.609 23.535 22.5169 23.535 22.4976C23.535 22.4784 23.4287 22.3031 23.2987 22.1082C23.1688 21.9132 22.9937 21.6432 22.9094 21.5081C22.8252 21.373 22.6914 21.1612 22.612 21.0375C22.5327 20.9137 22.4094 20.7214 22.3381 20.61C22.2669 20.4986 22.1829 20.3569 22.1516 20.295C22.1202 20.2331 22.0344 20.0914 21.9607 19.98C21.8871 19.8686 21.807 19.7329 21.7829 19.6786C21.662 19.4062 21.2563 19.3356 21.0712 19.5548C19.6144 21.2799 18.0763 22.4743 17.234 22.5346C16.5064 22.5867 16.1728 22.327 16.4089 21.8925C16.4493 21.8182 16.5112 21.6967 16.5465 21.6225C16.5818 21.5482 16.63 21.4571 16.6534 21.42C16.6769 21.3829 16.7356 21.2715 16.7839 21.1725C16.8716 20.9923 17.1872 20.4244 17.38 20.0999C17.4364 20.005 17.516 19.8668 17.5571 19.793C17.5981 19.7192 17.6617 19.6247 17.6983 19.5831C18.1234 19.1006 18.1397 18.552 17.7442 18.0422C17.6374 17.9045 17.55 17.7723 17.55 17.7485C17.55 17.7246 17.5095 17.6704 17.46 17.628C17.4105 17.5855 17.37 17.5228 17.37 17.4885C17.37 17.4541 17.341 17.4019 17.3054 17.3724C17.0863 17.1906 17.0325 16.7911 17.0325 15.345C17.0325 13.2108 16.8561 13.3749 19.1409 13.3824L20.8575 13.3881L21.15 13.5341ZM21.699 20.7112C21.7981 20.8433 22.0058 21.1813 22.185 21.5018C22.2221 21.5682 22.3689 21.7876 22.5112 21.9895C22.8307 22.4427 22.832 22.8464 22.5147 23.2235C22.4819 23.2626 22.455 23.3113 22.455 23.3318C22.455 23.3523 22.4044 23.4353 22.3425 23.5165C22.2806 23.5977 22.23 23.6825 22.23 23.705C22.23 23.7276 22.1895 23.7827 22.14 23.8275C22.0905 23.8723 22.05 23.9322 22.05 23.9607C22.05 23.9892 22.0044 24.0742 21.9487 24.1497C21.6102 24.6084 21.4218 24.8953 21.4208 24.9537C21.4203 24.9792 21.3846 25.0319 21.3412 25.0708C21.2979 25.1099 21.2276 25.2004 21.185 25.2721C21.0738 25.4592 21.0138 25.5496 20.8237 25.8153C20.7309 25.945 20.655 26.0617 20.655 26.0747C20.655 26.0876 20.5841 26.205 20.4975 26.3353C20.411 26.4658 20.2598 26.694 20.1616 26.8425C20.0635 26.991 19.9619 27.1372 19.9359 27.1675C19.9099 27.1979 19.8686 27.2688 19.8442 27.325C19.8197 27.3814 19.7289 27.5186 19.6423 27.63C19.5558 27.7414 19.471 27.8629 19.4539 27.9C19.4368 27.9371 19.371 28.0411 19.3077 28.131C19.2444 28.2208 19.1621 28.3408 19.125 28.3975C18.6936 29.0567 18.3692 29.1675 17.9146 28.8112C17.477 28.4682 17.3855 28.1226 17.5303 27.3593C17.596 27.0129 17.6535 26.8828 17.9738 26.3547C18.0641 26.2056 18.2261 25.9165 18.3684 25.65C18.4148 25.5634 18.4959 25.4216 18.5488 25.335C18.679 25.1216 18.8506 24.8104 18.9581 24.5925C19.0069 24.4935 19.0621 24.4024 19.0809 24.39C19.0996 24.3776 19.1468 24.2966 19.1859 24.21C19.2249 24.1234 19.3081 23.9715 19.3709 23.8725C19.4336 23.7735 19.5252 23.6115 19.5744 23.5125C19.6236 23.4135 19.6837 23.3021 19.708 23.265C19.7564 23.191 20.2281 22.3454 20.4988 21.8475C20.5931 21.6742 20.7168 21.4515 20.7737 21.3525C20.8305 21.2535 20.9113 21.1117 20.953 21.0375C21.2305 20.544 21.4888 20.431 21.699 20.7112Z" fill="#DFDFDF"/>
<path fill-rule="evenodd" clip-rule="evenodd" d="M16.3125 10.5988C15.5486 10.6751 14.3557 11.0906 14.1342 11.3575C14.1011 11.3974 14.0489 11.43 14.0181 11.43C13.6622 11.43 12.3354 13.3535 12.2127 14.0476C12.1982 14.13 12.1589 14.2785 12.1255 14.3775C12.0921 14.4765 12.0437 14.6992 12.0181 14.8725C11.9924 15.0457 11.9509 15.3208 11.9257 15.4837C11.8976 15.6658 11.88 17.1742 11.88 19.3999C11.88 22.6035 11.8719 23.0314 11.81 23.12C11.7413 23.218 11.7204 23.22 10.7862 23.2207C9.56487 23.2216 9.59457 23.1892 10.2023 23.8579C10.5401 24.2294 11.1977 24.9691 11.3357 25.1325C11.4194 25.2315 11.6345 25.4745 11.8138 25.6725C13.0657 27.0551 13.0938 27.0805 13.1879 26.9047C13.241 26.8053 13.3412 26.6755 13.4675 26.542C13.5115 26.4956 13.6186 26.3644 13.7054 26.2505C13.7924 26.1367 13.9219 25.9804 13.9932 25.903C14.0645 25.8257 14.2765 25.5701 14.4641 25.335C14.6519 25.0999 14.8914 24.8098 14.9965 24.6904C15.2052 24.453 15.326 24.3083 15.4447 24.1533C15.5903 23.9632 15.8192 23.6924 15.9674 23.535C16.049 23.4484 16.1492 23.3218 16.19 23.2537C16.231 23.1857 16.2854 23.1297 16.3109 23.1293C16.3366 23.129 16.3271 23.109 16.29 23.085C16.2517 23.0602 15.785 23.0411 15.2073 23.0407C14.4023 23.0401 14.1741 23.0267 14.1048 22.9761C14.0197 22.9138 14.0175 22.8247 14.0175 19.3873V15.8625L14.1218 15.4125C14.1791 15.165 14.2434 14.9298 14.2647 14.8897C14.2859 14.8497 14.3257 14.7341 14.3529 14.633C14.3801 14.5318 14.4296 14.422 14.4628 14.3887C14.496 14.3554 14.5386 14.2796 14.5575 14.2201C14.6432 13.9502 15.2876 13.313 15.6825 13.1075C16.2348 12.8202 16.1726 12.825 19.3615 12.825C22.7941 12.825 22.6195 12.8495 22.1793 12.4297L21.8572 12.1225L21.9112 11.9591C21.9409 11.8692 22.0002 11.7488 22.043 11.6916C22.2404 11.4277 22.6424 10.7041 22.6217 10.6501C22.5747 10.5277 17.4408 10.486 16.3125 10.5988ZM19.485 30.8533C19.2625 30.8967 18.8363 31.0573 18.7161 31.1428C18.6487 31.1908 18.5731 31.23 18.5479 31.23C18.5227 31.23 18.3436 31.3277 18.1499 31.447C17.9561 31.5665 17.7671 31.6787 17.73 31.6963C17.6623 31.7286 17.6168 31.756 17.325 31.9402C17.2384 31.9949 17.1368 32.0398 17.0993 32.0399C17.0619 32.0399 16.9505 32.084 16.8518 32.1377C16.6229 32.2623 15.6413 32.3044 14.8921 32.2217C14.2755 32.1536 14.2297 32.1752 14.3576 32.4735C14.4052 32.5846 14.4749 32.7062 14.5122 32.7436C14.5494 32.7809 14.58 32.8333 14.58 32.8599C14.58 33.0274 15.3459 33.6146 15.5648 33.6148C15.6485 33.6149 15.7817 33.6551 15.8609 33.704C16.0026 33.7915 16.1138 33.793 23.0447 33.7961C30.0365 33.7993 30.3756 33.7939 30.609 33.6762C30.6758 33.6426 30.7689 33.615 30.8158 33.615C30.8627 33.615 30.9373 33.5751 30.9815 33.5261C31.0257 33.4773 31.1018 33.4247 31.1506 33.4091C31.4538 33.313 32.0366 32.7086 32.0393 32.4878C32.0397 32.4494 32.064 32.3941 32.0933 32.3648C32.1965 32.2615 32.0723 32.2476 30.9701 32.2386C30.2318 32.2325 29.8121 32.2114 29.7225 32.1756C29.6483 32.146 29.3951 32.0928 29.16 32.0572C28.6141 31.975 27.9205 31.7097 27.47 31.4108C26.5595 30.807 25.5641 30.7234 24.6825 31.1766C24.3411 31.3522 23.886 31.6584 23.7363 31.8134C23.4411 32.1191 23.2187 32.236 22.8941 32.2562C22.36 32.2895 22.2761 32.2478 21.836 31.7299C21.3284 31.1326 20.2029 30.7129 19.485 30.8533Z" fill="#6CBB23"/>
<path fill-rule="evenodd" clip-rule="evenodd" d="M26.8124 7.87196C26.8042 7.89501 26.6152 8.11032 26.3925 8.35048C26.1697 8.59057 25.9698 8.81737 25.9481 8.85448C25.9265 8.89166 25.7848 9.0495 25.6331 9.20527C25.4815 9.36097 25.2866 9.57476 25.2 9.68012C25.1134 9.7857 24.9367 9.9846 24.8074 10.1222C24.6783 10.2599 24.572 10.4079 24.5712 10.4512C24.5705 10.4946 24.5527 10.53 24.5316 10.53C24.5104 10.53 24.3995 10.6464 24.2849 10.7887C24.1704 10.9311 23.9353 11.1993 23.7629 11.3849C23.4133 11.7607 23.3527 11.8944 23.4765 12.0163C23.6833 12.2202 24.3151 12.9287 24.795 13.4952C24.9841 13.7182 25.2653 14.0337 25.4614 14.2425C25.508 14.292 25.8449 14.6717 26.2103 15.0862C26.5756 15.5008 26.8905 15.84 26.91 15.84C26.9872 15.84 27 15.6528 27.0007 14.52C27.001 13.8723 27.0181 13.3161 27.0385 13.2837C27.0685 13.2367 27.4192 13.2279 28.8041 13.2394C30.6446 13.2549 30.846 13.2798 31.1434 13.5303C31.1826 13.5631 31.2373 13.59 31.2651 13.59C31.415 13.59 31.942 14.2143 32.1406 14.6271C32.5132 15.4018 32.49 14.8465 32.49 22.9519C32.49 30.484 32.4946 30.3202 32.2787 30.4345C31.3659 30.9176 30.4657 30.9859 29.4525 30.649C29.1114 30.5356 28.9843 30.473 28.7005 30.2786C28.6335 30.2326 28.5646 30.195 28.5475 30.195C28.5303 30.195 28.3602 30.105 28.1695 29.995C27.9787 29.8849 27.7641 29.7807 27.6925 29.7633C27.621 29.746 27.5119 29.6972 27.45 29.6547C27.3881 29.6122 27.2635 29.564 27.1732 29.5476C27.0829 29.5311 26.9482 29.4873 26.8738 29.4502C26.4064 29.217 25.1443 29.2332 24.6868 29.4783C24.598 29.526 24.4976 29.565 24.4636 29.565C24.4298 29.565 24.3538 29.6027 24.2948 29.6488C24.2357 29.6949 24.1369 29.7484 24.075 29.7676C24.0131 29.7868 23.9119 29.841 23.85 29.888C23.7522 29.9621 23.0637 30.4955 22.9217 30.6071C22.8601 30.6555 22.6729 30.5902 22.5514 30.478C22.3621 30.3032 22.2442 30.2106 22.05 30.084C21.9386 30.0114 21.807 29.9179 21.7575 29.8762C21.708 29.8344 21.6169 29.7852 21.555 29.7667C21.4931 29.7483 21.3919 29.6979 21.33 29.655C20.7018 29.2184 19.3197 29.2275 18.495 29.6738C18.4331 29.7072 18.318 29.7483 18.2394 29.7652C18.1606 29.782 18.0729 29.8239 18.0445 29.8581C18.016 29.8923 17.9184 29.9443 17.8276 29.9736C17.7368 30.0028 17.6374 30.0466 17.6067 30.071C17.5759 30.0954 17.3937 30.194 17.2017 30.2901C17.0096 30.3864 16.8221 30.4827 16.785 30.5045C16.0954 30.906 15.5167 31.0086 14.8367 30.8497C14.6831 30.8139 14.4838 30.7729 14.3937 30.7587C14.1727 30.7237 14.1763 30.7494 14.1755 29.175C14.1748 27.3993 14.2311 27.469 13.446 28.2718C13.1812 28.5425 12.9461 28.7569 12.9236 28.7482C12.8803 28.7316 12.4747 28.2662 12.285 28.0154C12.0942 27.7632 11.8789 27.6444 11.8012 27.7482C11.7176 27.8599 11.7444 31.9229 11.8305 32.175C11.86 32.2616 11.9125 32.4882 11.947 32.6784C11.9815 32.8688 12.0413 33.0855 12.0799 33.1599C12.1185 33.2345 12.15 33.3343 12.15 33.3817C12.15 33.429 12.1879 33.5161 12.2341 33.5752C12.2803 33.6342 12.3321 33.7462 12.3492 33.8241C12.3662 33.902 12.4194 34.0013 12.4675 34.0449C12.5156 34.0883 12.555 34.1486 12.555 34.1787C12.555 34.302 13.3927 35.2341 13.5043 35.2348C13.519 35.2349 13.5898 35.2856 13.6618 35.3475C13.7336 35.4093 13.8153 35.4599 13.8432 35.46C13.8711 35.46 13.9183 35.4894 13.948 35.5252C13.9779 35.561 14.076 35.6147 14.1661 35.6445C14.2562 35.6742 14.3566 35.7252 14.389 35.7576C14.4214 35.79 14.5231 35.8301 14.6152 35.8468C14.7072 35.8635 14.8534 35.9122 14.94 35.9551C15.0266 35.998 15.2444 36.047 15.4238 36.0642C15.6034 36.0814 15.8059 36.1245 15.8738 36.16C16.031 36.2419 30.4941 36.2567 30.8025 36.1753C30.9015 36.1492 31.1344 36.1023 31.32 36.0711C31.6369 36.0178 31.8664 35.9392 32.13 35.7937C32.1919 35.7596 32.3112 35.6994 32.3953 35.6599C32.4793 35.6205 32.5741 35.5645 32.6061 35.5354C32.6379 35.5063 32.7481 35.4217 32.8511 35.3475C32.954 35.2732 33.0573 35.1771 33.0807 35.1337C33.104 35.0904 33.1427 35.055 33.1666 35.055C33.223 35.055 33.3691 34.9081 33.435 34.785C33.4634 34.7318 33.5169 34.6543 33.5536 34.6129C33.6697 34.4817 34.0114 33.938 34.045 33.8307C34.0628 33.774 34.115 33.6792 34.1611 33.6202C34.2073 33.5611 34.245 33.474 34.245 33.4264C34.245 33.3789 34.286 33.25 34.3361 33.14C34.3863 33.03 34.4388 32.8742 34.453 32.7937C34.4671 32.7133 34.5055 32.5867 34.5382 32.5125C34.5709 32.4382 34.6199 32.2167 34.6471 32.0203C34.6741 31.8239 34.7173 31.591 34.7425 31.5028C34.7737 31.3948 34.7835 28.6609 34.7726 23.13C34.7553 14.3493 34.756 14.3754 34.5377 13.8825C34.5047 13.8082 34.4642 13.6665 34.4476 13.5675C34.4309 13.4685 34.3906 13.3571 34.3578 13.32C34.3251 13.2828 34.276 13.1688 34.2488 13.0665C34.2216 12.9642 34.1692 12.8553 34.1321 12.8247C34.0952 12.7941 34.0646 12.7461 34.0642 12.7182C34.063 12.6535 33.8261 12.2912 33.7062 12.1709C33.656 12.1205 33.615 12.0635 33.615 12.0441C33.615 12.0082 33.0248 11.4288 32.8392 11.2823C32.7244 11.1917 32.4884 11.0434 32.2875 10.9356C32.2132 10.8957 32.112 10.8414 32.0625 10.815C31.8323 10.6915 31.5392 10.5783 31.381 10.5515C31.2856 10.5353 31.1366 10.4886 31.05 10.4475C30.9136 10.383 30.6349 10.37 28.98 10.3502L27.0675 10.3275L27.0432 9.09C27.0298 8.40932 27.0146 7.84738 27.0094 7.84122C26.9838 7.81062 26.8256 7.8354 26.8124 7.87196ZM26.9197 9.20797C26.9089 10.1418 26.9177 10.3326 26.9757 10.4211L27.0445 10.5261L28.8335 10.5427C30.6853 10.5599 31.1947 10.5999 31.4944 10.7515C31.5841 10.7968 31.723 10.8481 31.8031 10.8654C31.8834 10.8828 31.9618 10.9176 31.9774 10.9431C31.9932 10.9684 32.0693 11.0189 32.1467 11.0553C32.2241 11.0917 32.3503 11.1554 32.4272 11.197C32.6 11.2904 33.165 11.7481 33.165 11.7948C33.165 11.8136 33.2055 11.8417 33.255 11.8575C33.3045 11.8732 33.345 11.9139 33.345 11.9479C33.345 11.982 33.381 12.0363 33.4249 12.0687C33.5224 12.1404 33.795 12.5109 33.795 12.5715C33.795 12.5957 33.8224 12.6474 33.856 12.6865C34.0141 12.8708 34.38 13.7409 34.38 13.9326C34.38 13.9963 34.4255 14.1934 34.4812 14.3705L34.5825 14.6925V23.175C34.5825 31.3335 34.5792 31.6686 34.4981 31.95C34.4518 32.1109 34.3976 32.3498 34.378 32.4811C34.3582 32.6123 34.321 32.7451 34.2952 32.7762C34.2694 32.8072 34.219 32.9455 34.183 33.0834C34.0888 33.4452 33.7381 34.1278 33.4593 34.4925C33.4215 34.542 33.3347 34.6578 33.2665 34.7499C33.1983 34.8419 33.1081 34.929 33.066 34.9434C33.024 34.9578 32.9771 35.0091 32.9618 35.0572C32.9464 35.1055 32.9132 35.145 32.8878 35.145C32.8624 35.145 32.7879 35.1866 32.722 35.2374C32.1604 35.6714 31.5466 35.9144 30.7994 35.9989C30.2288 36.0633 16.3186 36.062 15.8745 35.9974C14.762 35.8356 13.8713 35.4248 13.2229 34.7742C12.9259 34.4764 12.5312 33.9095 12.4382 33.6472C12.405 33.5535 12.3469 33.4325 12.3089 33.3784C12.271 33.3243 12.2391 33.2288 12.238 33.1662C12.2369 33.1037 12.2045 32.9715 12.166 32.8725C12.013 32.4789 11.9692 31.9129 11.941 29.9596C11.9066 27.5996 11.8526 27.7165 12.5887 28.558C12.6939 28.6782 12.78 28.792 12.78 28.8108C12.78 29.0062 13.1087 28.8188 13.5139 28.3924C14.0749 27.8021 14.0508 27.7548 14.035 29.4117C14.0278 30.1702 14.0401 30.7061 14.0652 30.7284C14.4167 31.0395 16.0689 31.0365 16.4993 30.7239C16.6077 30.6452 18.3247 29.79 18.3748 29.7897C18.4039 29.7895 18.4801 29.762 18.5446 29.7283C19.3125 29.3276 20.7747 29.3007 21.24 29.6787C21.2771 29.709 21.3809 29.7571 21.4708 29.7859C21.5606 29.8149 21.67 29.8781 21.7141 29.9267C21.7579 29.9753 21.8129 30.015 21.8361 30.015C21.8824 30.015 22.0015 30.1025 22.4224 30.4461C22.7993 30.7538 22.8583 30.7639 23.095 30.561C23.5738 30.1506 24.0762 29.79 24.1696 29.79C24.2003 29.79 24.2588 29.7597 24.2995 29.7228C24.8189 29.2529 26.49 29.2419 27.3688 29.7027C27.4604 29.7507 27.5617 29.7904 27.5938 29.791C27.6638 29.7921 28.0429 29.9871 28.6677 30.3432C29.4262 30.7755 30.3631 31.0233 30.924 30.9399C31.458 30.8604 32.1476 30.6405 32.265 30.5121C32.2774 30.4985 32.3638 30.4487 32.4569 30.4013L32.6263 30.3151L32.6144 22.8594C32.6055 17.2831 32.5893 15.3879 32.5503 15.3406C32.5215 15.306 32.4839 15.1965 32.4666 15.0975C32.4493 14.9985 32.3967 14.8506 32.35 14.7687C32.3032 14.6868 32.265 14.5917 32.265 14.5572C32.265 14.5228 32.2144 14.44 32.1525 14.3732C32.0906 14.3065 32.04 14.2274 32.04 14.1975C32.04 14.152 31.9102 13.9785 31.7802 13.8502C31.588 13.6605 31.4415 13.545 31.3929 13.545C31.3605 13.545 31.2973 13.5045 31.2525 13.455C31.2077 13.4055 31.1485 13.365 31.1211 13.365C31.0936 13.365 30.9904 13.3194 30.8918 13.2637C30.715 13.164 30.686 13.1622 28.8585 13.1493L27.0045 13.1363L26.9323 13.2465C26.8706 13.3406 26.8612 13.5078 26.8682 14.3907C26.8729 14.9595 26.8626 15.4473 26.8456 15.4749C26.8093 15.5337 26.685 15.5427 26.685 15.4865C26.685 15.4655 26.6394 15.3975 26.5837 15.3357C26.528 15.274 26.3988 15.1242 26.2964 15.003C26.194 14.8817 26.0422 14.709 25.9589 14.6191C25.8757 14.5293 25.686 14.3205 25.5375 14.1554C25.389 13.9902 25.1814 13.7629 25.0762 13.6503C24.971 13.5377 24.8848 13.4325 24.8848 13.4165C24.8845 13.4005 24.7435 13.2356 24.571 13.05C24.3986 12.8643 24.257 12.6996 24.2563 12.6836C24.2542 12.638 23.7547 12.15 23.7101 12.15C23.688 12.15 23.67 12.1221 23.67 12.088C23.67 12.0539 23.6407 12.0017 23.605 11.972C23.5004 11.8853 23.5947 11.7163 23.9704 11.3175C24.1569 11.1195 24.3478 10.9163 24.3947 10.8659C24.4416 10.8155 24.48 10.7511 24.48 10.7227C24.48 10.6942 24.5205 10.6582 24.57 10.6425C24.6195 10.6267 24.66 10.59 24.66 10.5606C24.66 10.5313 24.746 10.4143 24.8512 10.3007C25.0221 10.116 25.5229 9.55807 25.7625 9.2853C25.9268 9.09817 26.3905 8.58178 26.5198 8.44186C26.5899 8.36606 26.6608 8.28346 26.6773 8.25826C26.7066 8.21368 26.8646 8.10796 26.91 8.10256C26.9224 8.10111 26.9267 8.5986 26.9197 9.20797ZM16.56 10.4415C15.9332 10.5259 15.4173 10.6269 15.2989 10.6881C15.2278 10.7248 15.1465 10.755 15.1185 10.755C14.6811 10.755 13.3211 11.7666 12.9103 12.3975C12.6165 12.8485 12.433 13.1777 12.3764 13.3544C12.3428 13.4599 12.2881 13.5687 12.2551 13.5962C12.222 13.6235 12.1945 13.679 12.1941 13.7193C12.1935 13.7595 12.143 13.9342 12.0817 14.1075C12.0205 14.2807 11.9703 14.4847 11.9702 14.5608C11.9701 14.6368 11.9406 14.7887 11.9046 14.8983C11.7718 15.3035 11.745 16.0842 11.745 19.5546V23.0287L11.6044 23.0568C11.527 23.0724 11.0608 23.085 10.5683 23.085H9.67304L9.62202 23.197C9.57549 23.2989 9.59079 23.3306 9.79177 23.5489C9.91313 23.6808 10.1947 23.9988 10.4175 24.2556C10.6402 24.5124 10.944 24.8523 11.0925 25.0111C11.241 25.1698 11.3779 25.3264 11.3967 25.3592C11.462 25.4729 11.7678 25.7955 11.8372 25.8239C11.8755 25.8396 12.0769 26.0448 12.2848 26.28C13.0477 27.1431 13.0473 27.1428 13.2766 26.8537C13.36 26.7486 13.4933 26.5916 13.5727 26.505C13.6523 26.4183 13.7848 26.2626 13.8674 26.1587C14.1735 25.7739 14.9202 24.8595 14.9995 24.7725C15.0446 24.723 15.2962 24.4192 15.5586 24.0975C15.8209 23.7757 16.0574 23.4922 16.0841 23.4675C16.5452 23.039 16.468 22.995 15.2545 22.995C14.4988 22.995 14.2169 22.9801 14.1583 22.9374C14.0584 22.8642 14.0704 15.87 14.1712 15.4575C14.4579 14.2845 14.9506 13.5539 15.7234 13.1552C16.2289 12.8944 16.1458 12.9005 19.4506 12.8828C23.008 12.8637 22.7928 12.8989 22.2673 12.4226C21.9115 12.1002 21.8952 12.0207 22.1184 11.6986C22.1798 11.6101 22.23 11.5222 22.23 11.5033C22.23 11.4844 22.2806 11.4027 22.3425 11.3215C22.4044 11.2403 22.455 11.1505 22.455 11.1219C22.455 11.0934 22.471 11.07 22.4905 11.07C22.5466 11.07 22.7809 10.5785 22.7559 10.5132C22.7165 10.4107 17.258 10.3475 16.56 10.4415ZM21.3455 10.5599C22.3306 10.5833 22.6033 10.6026 22.6216 10.65C22.6423 10.7041 22.2403 11.4277 22.043 11.6916C22.0001 11.7488 21.9409 11.8692 21.9112 11.9591L21.8572 12.1225L22.1792 12.4296C22.6195 12.8495 22.7941 12.825 19.3615 12.825C16.1725 12.825 16.2347 12.8202 15.6825 13.1075C15.2875 13.313 14.6431 13.9502 14.5575 14.2201C14.5386 14.2796 14.4959 14.3554 14.4628 14.3886C14.4295 14.4219 14.38 14.5318 14.3528 14.633C14.3256 14.7341 14.2859 14.8497 14.2646 14.8897C14.2434 14.9298 14.179 15.165 14.1217 15.4125L14.0175 15.8625V19.3873C14.0175 22.8246 14.0196 22.9137 14.1048 22.9761C14.1741 23.0267 14.4022 23.0401 15.2073 23.0406C15.7849 23.0411 16.2516 23.0601 16.29 23.085C16.3271 23.109 16.3366 23.129 16.3109 23.1293C16.2853 23.1297 16.2309 23.1857 16.1899 23.2537C16.1491 23.3218 16.0489 23.4483 15.9673 23.535C15.8191 23.6924 15.5902 23.9631 15.4447 24.1533C15.3259 24.3083 15.2051 24.453 14.9965 24.6903C14.8914 24.8097 14.6518 25.0998 14.4641 25.335C14.2765 25.5701 14.0645 25.8257 13.9932 25.903C13.9219 25.9804 13.7923 26.1366 13.7054 26.2505C13.6186 26.3643 13.5115 26.4955 13.4674 26.542C13.3411 26.6754 13.241 26.8053 13.1878 26.9047C13.0937 27.0804 13.0656 27.0551 11.8137 25.6725C11.6345 25.4745 11.4194 25.2315 11.3357 25.1325C11.1976 24.969 10.54 24.2293 10.2022 23.8578C9.59453 23.1891 9.56483 23.2215 10.7861 23.2206C11.7203 23.22 11.7412 23.2179 11.8099 23.12C11.8719 23.0314 11.88 22.6035 11.88 19.3999C11.88 17.1742 11.8975 15.6657 11.9257 15.4837C11.9509 15.3208 11.9923 15.0457 12.018 14.8725C12.0436 14.6992 12.092 14.4765 12.1255 14.3775C12.1588 14.2785 12.1981 14.13 12.2126 14.0476C12.3354 13.3535 13.6621 11.43 14.018 11.43C14.0488 11.43 14.101 11.3973 14.1341 11.3574C14.2162 11.2587 14.9275 10.9239 15.3675 10.7772C16.0542 10.5483 17.9512 10.4793 21.3455 10.5599ZM17.3091 13.4722C16.8987 13.8124 16.8957 17.0324 17.3054 17.3724C17.341 17.4019 17.37 17.4541 17.37 17.4885C17.37 17.5227 17.4105 17.5855 17.46 17.628C17.5095 17.6703 17.55 17.7246 17.55 17.7484C17.55 17.7723 17.6374 17.9045 17.7442 18.0422C18.1397 18.552 18.1234 19.1006 17.6983 19.5831C17.6617 19.6247 17.5981 19.7192 17.557 19.793C17.516 19.8668 17.4364 20.0049 17.38 20.0999C17.1871 20.4243 16.8716 20.9922 16.7839 21.1725C16.7356 21.2715 16.6768 21.3828 16.6534 21.42C16.63 21.4571 16.5818 21.5482 16.5465 21.6225C16.5112 21.6967 16.4493 21.8182 16.4089 21.8925C16.1728 22.3269 16.5064 22.5867 17.2339 22.5346C18.0763 22.4743 19.6144 21.2799 21.0712 19.5547C21.2563 19.3356 21.6619 19.4062 21.7829 19.6786C21.807 19.7329 21.8871 19.8686 21.9607 19.98C22.0343 20.0913 22.1202 20.2331 22.1515 20.295C22.1828 20.3568 22.2669 20.4986 22.3381 20.61C22.4094 20.7213 22.5327 20.9137 22.612 21.0375C22.6913 21.1612 22.8252 21.3729 22.9093 21.5081C22.9936 21.6432 23.1688 21.9132 23.2987 22.1082C23.4286 22.3031 23.535 22.4784 23.535 22.4976C23.535 22.5168 23.5957 22.609 23.67 22.7025C23.7442 22.796 23.805 22.8932 23.805 22.9186C23.805 22.9441 23.8358 22.997 23.8735 23.0361C23.9112 23.0754 24.0276 23.241 24.1322 23.4042C24.3325 23.7165 24.3601 23.7586 24.4992 23.9674C24.5469 24.039 24.6988 24.2667 24.8367 24.4736C24.9746 24.6804 25.1077 24.8829 25.1325 24.9234C25.1572 24.9639 25.218 25.0575 25.2675 25.1313C25.317 25.2051 25.3777 25.2989 25.4025 25.3395C25.4497 25.4172 25.7935 25.9355 25.8805 26.0603C25.9409 26.147 26.2831 26.6661 26.3482 26.7697C26.5063 27.0217 26.6673 27.2496 26.6962 27.2625C26.7148 27.2708 26.73 27.2955 26.73 27.3174C26.73 27.3395 26.8565 27.5421 27.0112 27.7677C27.1659 27.9933 27.3121 28.2115 27.3359 28.2527C27.5922 28.6944 27.8818 29.0079 28.0787 29.0563C28.1413 29.0717 28.2422 29.1165 28.303 29.1558C28.4819 29.2719 29.5038 29.2594 29.5911 29.1402C29.6908 29.0037 29.6696 28.7793 29.5425 28.6282C29.4806 28.5546 29.43 28.4791 29.43 28.4604C29.43 28.4418 29.3815 28.3232 29.3223 28.197C29.2631 28.0707 29.1708 27.8662 29.117 27.7425C28.9696 27.4029 28.8707 27.1831 28.7424 26.91C28.6785 26.7738 28.5829 26.5612 28.5302 26.4375C28.4377 26.2203 28.377 26.083 28.1819 25.65C28.1317 25.5386 28.0364 25.326 27.97 25.1775C27.9038 25.029 27.802 24.8062 27.7438 24.6825C27.5329 24.2329 27.4556 24.0501 27.4261 23.9305C27.4097 23.8635 27.3677 23.7851 27.3331 23.7563C27.2983 23.7275 27.27 23.6814 27.27 23.6539C27.27 23.6263 27.2167 23.4921 27.1517 23.3556C27.0868 23.2192 26.9842 22.9961 26.9238 22.86C26.8634 22.7238 26.785 22.5551 26.7496 22.4851C26.714 22.4151 26.685 22.3377 26.685 22.3134C26.685 22.2889 26.5919 22.0729 26.4783 21.8332C26.3647 21.5936 26.2229 21.2942 26.1633 21.168C26.1037 21.0417 26.055 20.9172 26.055 20.8914C26.055 20.8653 25.9993 20.7341 25.9312 20.5995C25.8631 20.465 25.7731 20.2755 25.731 20.1786C25.6889 20.0818 25.5915 19.8607 25.5145 19.6875C25.4376 19.5142 25.3483 19.3117 25.3163 19.2375C25.2842 19.1632 25.2165 19.0113 25.1658 18.9C25.0776 18.7064 24.9626 18.4519 24.7552 17.9912C24.7028 17.875 24.66 17.7612 24.66 17.7385C24.66 17.7157 24.6207 17.6472 24.5728 17.5862C24.5248 17.5252 24.4715 17.4162 24.4544 17.3439C24.4373 17.2716 24.3885 17.1416 24.346 17.055C24.1528 16.6623 24.0298 16.3902 24.0285 16.353C24.0278 16.3307 23.9773 16.2112 23.9164 16.0875C23.8556 15.9637 23.8057 15.8309 23.8054 15.7923C23.8052 15.7538 23.7753 15.6829 23.7389 15.6348C23.7026 15.5868 23.6722 15.5164 23.6714 15.4784C23.664 15.1224 22.6143 14.2397 21.69 13.8124C21.6281 13.7838 21.5471 13.7423 21.51 13.7202C21.4729 13.6982 21.3109 13.6144 21.15 13.5341L20.8575 13.3881L19.1408 13.3824C17.4541 13.3769 17.4222 13.3785 17.3091 13.4722ZM19.26 13.4732C19.4704 13.4709 19.9057 13.4607 20.2275 13.4507C20.7889 13.4333 20.8215 13.4372 21.0375 13.5504C21.1612 13.6152 21.3334 13.7026 21.42 13.7445C21.5066 13.7864 21.616 13.8417 21.663 13.8674C21.7099 13.8932 21.9013 13.9961 22.0885 14.0964C22.2754 14.1967 22.4496 14.2964 22.4755 14.3181C22.5013 14.3397 22.6168 14.4182 22.732 14.4926C22.9147 14.6106 23.1982 14.8893 23.4559 15.2043C23.499 15.2571 23.6039 15.4774 23.6889 15.6939C23.8682 16.1506 23.9936 16.4472 24.1403 16.7625C24.4038 17.3283 24.435 17.4021 24.435 17.4594C24.435 17.493 24.462 17.5524 24.4951 17.5915C24.5281 17.6305 24.5821 17.7333 24.6151 17.82C24.6479 17.9066 24.7444 18.1293 24.8294 18.315C25.0904 18.8853 25.1419 19.0009 25.2912 19.35C25.3706 19.5356 25.5112 19.8495 25.6037 20.0475C25.6962 20.2455 25.7877 20.4581 25.8071 20.52C25.8265 20.5818 25.88 20.6808 25.9261 20.7398C25.9723 20.7989 26.01 20.8758 26.01 20.911C26.01 20.9721 26.0672 21.1116 26.3066 21.6337C26.3662 21.7637 26.4667 21.9864 26.5298 22.1287C26.593 22.2711 26.6815 22.4685 26.7262 22.5675C26.8572 22.8567 26.9406 23.0421 27.0903 23.3775C27.2686 23.7768 27.365 23.9886 27.5124 24.3045C27.5771 24.4431 27.63 24.5693 27.63 24.585C27.63 24.6006 27.7234 24.8112 27.8374 25.053C28.0406 25.4832 28.1304 25.6808 28.2983 26.0662C28.5496 26.6433 28.694 26.9671 28.8346 27.27C28.9209 27.4556 29.0405 27.7188 29.1006 27.855C29.2131 28.1101 29.4521 28.5979 29.557 28.7862C29.7913 29.2076 29.0644 29.3494 28.215 29.0483C27.9811 28.9653 27.6967 28.7214 27.5322 28.4625C27.2173 27.9672 26.1479 26.3322 26.0899 26.2575C26.0705 26.2327 25.9031 25.9841 25.7178 25.7049C25.5324 25.4258 25.3431 25.1423 25.297 25.0749C25.2511 25.0076 25.0756 24.7398 24.9073 24.48C24.7388 24.2201 24.5092 23.8657 24.3968 23.6925C24.2845 23.5192 24.1409 23.2965 24.0777 23.1975C24.0145 23.0985 23.9526 23.0073 23.9401 22.995C23.9175 22.9725 23.6401 22.5442 23.5566 22.4027C23.4181 22.1682 22.9687 21.474 22.906 21.3975C22.8654 21.348 22.8078 21.2568 22.7779 21.195C22.7482 21.1331 22.6582 20.9792 22.5781 20.853C22.498 20.7269 22.3009 20.4069 22.14 20.1422C21.7611 19.5187 21.7015 19.4481 21.4954 19.3776C21.3031 19.3119 21.0364 19.3917 20.993 19.5281C20.9809 19.5662 20.8746 19.7016 20.7567 19.8287C20.6389 19.9558 20.4796 20.1279 20.4028 20.2112C19.0893 21.6341 17.8774 22.4592 17.1133 22.4505C16.1834 22.4399 16.1845 22.3408 17.1299 20.6682C17.2867 20.3908 17.415 20.1453 17.415 20.1225C17.415 20.0997 17.447 20.0544 17.4862 20.022C17.5253 19.9894 17.5912 19.8987 17.6324 19.8202C17.6737 19.7417 17.7667 19.5886 17.8391 19.48C18.223 18.9037 18.2131 18.5402 17.7989 18.0019C17.6868 17.8561 17.595 17.716 17.595 17.6906C17.595 17.6652 17.5678 17.6283 17.5348 17.6085C17.2084 17.4132 17.0822 16.6647 17.1122 15.103C17.1457 13.3671 17.1336 13.3854 18.2025 13.4418C18.5737 13.4614 19.0496 13.4756 19.26 13.4732ZM21.1645 20.7337C21.0899 20.8266 20.9947 20.9632 20.953 21.0375C20.9113 21.1117 20.8305 21.2535 20.7736 21.3525C20.7167 21.4515 20.5931 21.6742 20.4988 21.8475C20.228 22.3454 19.7563 23.1909 19.708 23.265C19.6837 23.3021 19.6236 23.4135 19.5744 23.5125C19.5251 23.6115 19.4335 23.7735 19.3709 23.8725C19.3081 23.9715 19.2249 24.1233 19.1858 24.21C19.1468 24.2966 19.0996 24.3776 19.0809 24.39C19.0621 24.4023 19.0069 24.4935 18.958 24.5925C18.8506 24.8104 18.679 25.1216 18.5488 25.335C18.4959 25.4216 18.4147 25.5633 18.3684 25.65C18.2261 25.9165 18.0641 26.2056 17.9737 26.3547C17.6535 26.8827 17.596 27.0129 17.5303 27.3593C17.3855 28.1226 17.4769 28.4682 17.9146 28.8112C18.3692 29.1675 18.6935 29.0567 19.125 28.3974C19.1621 28.3407 19.2443 28.2208 19.3077 28.131C19.371 28.041 19.4368 27.9371 19.4539 27.9C19.471 27.8628 19.5557 27.7413 19.6423 27.63C19.7289 27.5186 19.8196 27.3813 19.8442 27.325C19.8686 27.2688 19.9099 27.1979 19.9359 27.1675C19.9618 27.1372 20.0635 26.991 20.1616 26.8425C20.2597 26.694 20.4109 26.4658 20.4975 26.3353C20.5841 26.205 20.655 26.0876 20.655 26.0747C20.655 26.0617 20.7309 25.9449 20.8237 25.8153C21.0137 25.5496 21.0738 25.4592 21.1849 25.2721C21.2276 25.2004 21.2979 25.1099 21.3412 25.0708C21.3845 25.0319 21.4203 24.9792 21.4207 24.9537C21.4218 24.8953 21.6102 24.6084 21.9487 24.1497C22.0044 24.0742 22.05 23.9892 22.05 23.9607C22.05 23.9322 22.0905 23.8722 22.14 23.8275C22.1895 23.7827 22.23 23.7276 22.23 23.705C22.23 23.6825 22.2806 23.5977 22.3425 23.5165C22.4044 23.4353 22.455 23.3523 22.455 23.3318C22.455 23.3113 22.4818 23.2626 22.5147 23.2235C22.8319 22.8464 22.8307 22.4427 22.5112 21.9894C22.3689 21.7876 22.2221 21.5682 22.185 21.5018C21.6202 20.4915 21.4574 20.3691 21.1645 20.7337ZM21.6554 20.7562C21.7166 20.8367 21.8007 20.9632 21.8422 21.0375C21.8837 21.1117 21.9577 21.2332 22.0066 21.3075C22.0556 21.3817 22.1355 21.5235 22.1842 21.6225C22.2329 21.7215 22.3644 21.9235 22.4764 22.0716C22.8018 22.5018 22.7563 22.7598 22.2037 23.6166C22.0078 23.9205 21.8272 24.2037 21.8025 24.2459C21.7777 24.288 21.6947 24.4035 21.6178 24.5025C21.5411 24.6015 21.442 24.7533 21.3978 24.84C21.3536 24.9266 21.305 25.0076 21.2898 25.02C21.2746 25.0323 21.2099 25.1235 21.1459 25.2225C21.082 25.3215 20.9302 25.5531 20.8087 25.7373C20.687 25.9215 20.5672 26.1078 20.5425 26.1517C20.5177 26.1956 20.3634 26.4297 20.1994 26.6719C20.0354 26.9142 19.8676 27.1732 19.8264 27.2475C19.7852 27.3217 19.6417 27.5343 19.5075 27.72C19.3734 27.9056 19.2352 28.1182 19.2006 28.1925C19.0776 28.4564 18.5452 28.98 18.3998 28.98C18.1413 28.98 17.6788 28.5916 17.596 28.305C17.4979 27.9656 17.5792 27.1216 17.7305 26.9092C17.7797 26.8401 17.82 26.7628 17.82 26.7375C17.82 26.7121 17.8471 26.6643 17.8801 26.6312C17.9132 26.5981 18.0211 26.4195 18.1199 26.2343C18.2187 26.049 18.3472 25.8165 18.4053 25.7175C18.4636 25.6185 18.5443 25.4767 18.5846 25.4025C18.625 25.3282 18.7027 25.1966 18.7574 25.11C18.812 25.0233 18.9085 24.8512 18.9716 24.7275C19.0348 24.6037 19.1354 24.4215 19.195 24.3225C19.2548 24.2235 19.3453 24.0615 19.3962 23.9625C19.4472 23.8635 19.5377 23.7015 19.5975 23.6025C19.6572 23.5035 19.7482 23.3415 19.7996 23.2425C19.8511 23.1435 19.9397 22.9815 19.9965 22.8825C20.0533 22.7835 20.161 22.5911 20.2358 22.455C20.9815 21.0987 21.2428 20.6653 21.33 20.64C21.4858 20.5947 21.5501 20.6178 21.6554 20.7562Z" fill="#72947D"/>
<path fill-rule="evenodd" clip-rule="evenodd" d="M26.7838 8.16605C26.6842 8.22102 26.6836 8.2242 26.7703 8.24677C26.8567 8.26941 26.8609 8.31351 26.874 9.35917C26.8916 10.7853 26.6232 10.6213 28.9287 10.6147C29.9345 10.6118 30.6967 10.5939 30.6225 10.575C30.5482 10.5561 29.7133 10.5382 28.7672 10.5353L27.047 10.53L26.9769 10.423C26.9174 10.332 26.9087 10.1503 26.9197 9.20797C26.9267 8.5986 26.9224 8.10187 26.91 8.10436C26.8976 8.10686 26.8408 8.13455 26.7838 8.16605ZM26.415 8.55C26.3621 8.62422 26.329 8.685 26.3414 8.685C26.3538 8.685 26.4071 8.62422 26.46 8.55C26.5129 8.47572 26.5459 8.415 26.5336 8.415C26.5212 8.415 26.4679 8.47572 26.415 8.55ZM25.4686 9.61415C25.3607 9.72921 25.2929 9.81526 25.3177 9.80536C25.3683 9.78536 25.7171 9.405 25.6851 9.405C25.6738 9.405 25.5764 9.49916 25.4686 9.61415ZM31.41 10.755C31.4966 10.8024 31.5877 10.8411 31.6125 10.8411C31.6372 10.8411 31.5866 10.8024 31.5 10.755C31.4134 10.7075 31.3222 10.6688 31.2975 10.6688C31.2727 10.6688 31.3234 10.7075 31.41 10.755ZM32.4675 11.2576C32.517 11.2851 32.5888 11.3301 32.6272 11.3575C32.6655 11.385 32.6491 11.3619 32.5909 11.3062C32.5326 11.2506 32.4607 11.2056 32.4313 11.2063C32.4016 11.2071 32.418 11.2302 32.4675 11.2576ZM23.8258 11.4862L23.6025 11.7225L23.8387 11.4992C24.0582 11.2917 24.0955 11.25 24.062 11.25C24.055 11.25 23.9486 11.3563 23.8258 11.4862ZM33.469 12.1668C33.5493 12.2582 33.615 12.3504 33.615 12.3717C33.615 12.393 33.6445 12.4217 33.6805 12.4355C33.7684 12.4692 33.529 12.1314 33.4127 12.0574C33.3604 12.0242 33.3839 12.07 33.469 12.1668ZM33.9754 12.9375C33.9755 12.9622 34.0158 13.0432 34.065 13.1175C34.1815 13.2934 34.1816 13.2309 34.0651 13.0399C34.0157 12.9588 33.9754 12.9127 33.9754 12.9375ZM27.8183 13.1286C28.2313 13.1361 28.9198 13.1361 29.3483 13.1286C29.7768 13.1213 29.439 13.1152 28.5975 13.1152C27.756 13.1151 27.4053 13.1212 27.8183 13.1286ZM26.8945 13.2222C26.8297 13.2939 26.82 13.4412 26.82 14.3607C26.82 15.1222 26.8049 15.4321 26.766 15.471C26.7271 15.5099 26.7264 15.525 26.7633 15.525C26.8655 15.525 26.8765 15.4081 26.8682 14.3907C26.8612 13.515 26.8709 13.3401 26.931 13.2483C27.0154 13.1196 26.9983 13.1075 26.8945 13.2222ZM34.1586 13.356C34.1545 13.421 34.2795 13.68 34.3148 13.68C34.3272 13.68 34.3092 13.6243 34.2748 13.5562C34.2405 13.4882 34.201 13.4021 34.1872 13.365C34.1703 13.3197 34.1609 13.3167 34.1586 13.356ZM17.3824 13.5018C17.1634 13.646 17.1373 13.8009 17.1122 15.103C17.0822 16.6647 17.2084 17.4132 17.5348 17.6085C17.5678 17.6283 17.595 17.6652 17.595 17.6906C17.595 17.716 17.6868 17.8561 17.7989 18.0019C18.2131 18.5402 18.223 18.9037 17.8391 19.48C17.7667 19.5886 17.6737 19.7417 17.6324 19.8202C17.5912 19.8987 17.5253 19.9894 17.4862 20.022C17.447 20.0545 17.415 20.0997 17.415 20.1226C17.415 20.1453 17.2867 20.3908 17.1299 20.6683C16.1845 22.3408 16.1834 22.4399 17.1133 22.4505C17.8774 22.4592 19.0893 21.6341 20.4028 20.2112C20.4796 20.128 20.6389 19.9558 20.7567 19.8287C20.8746 19.7016 20.9809 19.5662 20.993 19.5281C21.0364 19.3918 21.3031 19.3119 21.4954 19.3777C21.7015 19.4481 21.7611 19.5187 22.14 20.1422C22.3009 20.407 22.498 20.7269 22.5781 20.853C22.6582 20.9792 22.7482 21.1331 22.7779 21.195C22.8078 21.2568 22.8654 21.348 22.906 21.3975C22.9687 21.474 23.4181 22.1683 23.5566 22.4027C23.6401 22.5442 23.9175 22.9725 23.9401 22.995C23.9526 23.0073 24.0145 23.0985 24.0777 23.1975C24.1409 23.2965 24.2845 23.5192 24.3968 23.6925C24.5092 23.8657 24.7388 24.2201 24.9073 24.48C25.0756 24.7399 25.2511 25.0076 25.297 25.0749C25.3431 25.1423 25.5324 25.4258 25.7178 25.7049C25.9031 25.9841 26.0705 26.2327 26.0899 26.2575C26.1479 26.3322 27.2173 27.9672 27.5322 28.4625C27.8404 28.9476 28.3662 29.2072 29.025 29.1995C29.5276 29.1935 29.7064 29.0548 29.557 28.7863C29.4521 28.5979 29.2131 28.1101 29.1006 27.855C29.0405 27.7189 28.9209 27.4556 28.8346 27.27C28.694 26.9671 28.5496 26.6433 28.2983 26.0662C28.1304 25.6808 28.0406 25.4832 27.8374 25.053C27.7234 24.8112 27.63 24.6006 27.63 24.585C27.63 24.5693 27.5771 24.4431 27.5124 24.3045C27.365 23.9886 27.2686 23.7768 27.0903 23.3775C26.9406 23.0422 26.8572 22.8568 26.7262 22.5675C26.6815 22.4685 26.593 22.2711 26.5298 22.1287C26.4667 21.9865 26.3662 21.7637 26.3066 21.6337C26.0672 21.1117 26.01 20.9722 26.01 20.911C26.01 20.8759 25.9723 20.7989 25.9261 20.7398C25.88 20.6808 25.8265 20.5818 25.8071 20.52C25.7877 20.4581 25.6962 20.2455 25.6037 20.0475C25.5112 19.8495 25.3706 19.5356 25.2912 19.35C25.1419 19.0009 25.0904 18.8854 24.8294 18.315C24.7444 18.1294 24.6479 17.9066 24.6151 17.82C24.5821 17.7333 24.5281 17.6305 24.4951 17.5915C24.462 17.5524 24.435 17.493 24.435 17.4595C24.435 17.4021 24.4038 17.3284 24.1403 16.7625C23.9936 16.4473 23.8682 16.1506 23.6889 15.6939C23.6039 15.4774 23.499 15.2571 23.4559 15.2043C23.1982 14.8893 22.9147 14.6106 22.732 14.4926C22.6168 14.4182 22.5013 14.3397 22.4755 14.3181C22.4496 14.2964 22.2754 14.1967 22.0885 14.0964C21.9013 13.9961 21.7099 13.8932 21.663 13.8674C21.616 13.8417 21.5066 13.7864 21.42 13.7446C21.3334 13.7026 21.1612 13.6152 21.0375 13.5504C20.8215 13.4372 20.7889 13.4333 20.2275 13.4507C19.2637 13.4808 18.9104 13.4792 18.2025 13.4418C17.5581 13.4079 17.5208 13.4106 17.3824 13.5018ZM18.6435 13.5481C18.9628 13.61 19.5052 13.599 19.9051 13.5225C20.4496 13.4183 21.0355 13.5141 21.2664 13.745C21.3049 13.7835 21.3715 13.815 21.4144 13.815C21.4573 13.815 21.5611 13.8656 21.645 13.9275C21.7288 13.9894 21.8212 14.04 21.8502 14.04C21.8791 14.04 21.9528 14.0793 22.0138 14.1272C22.0747 14.1752 22.1787 14.228 22.2448 14.2446C22.3108 14.2612 22.365 14.2931 22.365 14.3156C22.365 14.3381 22.4409 14.3916 22.5337 14.4344C22.6265 14.4774 22.7289 14.5479 22.7613 14.5912C22.7936 14.6346 22.8395 14.67 22.8632 14.67C22.9646 14.67 23.58 15.4595 23.58 15.5897C23.58 15.6435 23.61 15.727 23.6468 15.7752C23.6835 15.8232 23.7352 15.9435 23.7616 16.0425C23.8053 16.2054 23.9384 16.5204 24.0374 16.695C24.0584 16.7321 24.0975 16.8131 24.1241 16.875C24.1508 16.9369 24.2114 17.0685 24.2589 17.1675C24.3064 17.2665 24.3452 17.3661 24.3451 17.3889C24.345 17.4339 24.5653 17.9209 24.707 18.1889C24.7554 18.2805 24.795 18.3843 24.795 18.4196C24.795 18.4551 24.8229 18.5071 24.8569 18.5354C24.8909 18.5636 24.9442 18.6774 24.9752 18.7884C25.0063 18.8992 25.0486 18.99 25.0691 18.99C25.0896 18.99 25.1296 19.0755 25.1577 19.18C25.1858 19.2845 25.2451 19.4415 25.2894 19.5288C25.4624 19.8693 25.605 20.1941 25.605 20.2474C25.605 20.2781 25.6455 20.3548 25.695 20.4178C25.7445 20.4806 25.785 20.5668 25.785 20.6092C25.785 20.6515 25.8239 20.7312 25.8715 20.7859C25.9191 20.8408 25.9713 20.9643 25.9875 21.0604C26.0038 21.1563 26.0458 21.2587 26.0809 21.2879C26.1162 21.3172 26.145 21.365 26.145 21.3941C26.145 21.4508 26.3037 21.8022 26.485 22.1467C26.5455 22.2616 26.595 22.3958 26.595 22.4448C26.595 22.4939 26.6229 22.5571 26.6569 22.5854C26.6909 22.6136 26.7442 22.7274 26.7752 22.8384C26.8063 22.9492 26.8486 23.04 26.8691 23.04C26.8896 23.04 26.9294 23.1261 26.9575 23.2312C26.9854 23.3364 27.0343 23.4529 27.066 23.49C27.0976 23.5271 27.1474 23.6319 27.1766 23.7226C27.2057 23.8135 27.2568 23.9104 27.2901 23.9379C27.3233 23.9656 27.3645 24.0624 27.3814 24.153C27.3985 24.2435 27.4512 24.367 27.4987 24.4275C27.5461 24.4878 27.585 24.5749 27.585 24.6211C27.585 24.6917 27.7126 24.9768 27.8644 25.245C27.8854 25.2821 27.9153 25.3507 27.9307 25.3975C27.9461 25.4443 28.0039 25.5674 28.0591 25.6714C28.1144 25.7752 28.1734 25.9229 28.1901 25.9996C28.207 26.0761 28.2499 26.1631 28.2857 26.1927C28.3215 26.2224 28.3633 26.3247 28.3784 26.4199C28.3937 26.5153 28.434 26.6164 28.4681 26.6446C28.5021 26.673 28.53 26.7149 28.53 26.738C28.53 26.761 28.6312 26.9903 28.755 27.2475C28.8787 27.5046 28.98 27.7354 28.98 27.7602C28.98 27.7849 29.0306 27.9004 29.0925 28.0167C29.1544 28.1332 29.205 28.2633 29.205 28.3063C29.205 28.349 29.2354 28.4092 29.2725 28.44C29.3096 28.4708 29.34 28.5189 29.34 28.5468C29.3401 28.5747 29.3907 28.6564 29.4525 28.7282C29.5832 28.8802 29.592 28.9466 29.4942 29.0443C29.3963 29.1422 28.5491 29.1437 28.4202 29.0461C28.372 29.0097 28.2809 28.9797 28.2177 28.9793C28.0287 28.9783 27.6005 28.5471 27.4363 28.1925C27.4021 28.1182 27.3404 28.0297 27.2995 27.9958C27.2585 27.9618 27.225 27.9076 27.225 27.8752C27.225 27.8428 27.1996 27.7892 27.1687 27.7559C27.0711 27.6508 26.82 27.2692 26.82 27.2259C26.82 27.2031 26.7942 27.1683 26.7628 27.1485C26.7313 27.1287 26.6803 27.0618 26.6493 27C26.6004 26.9023 26.4451 26.6676 26.3367 26.5275C26.3176 26.5027 26.2768 26.4262 26.2463 26.3575C26.2157 26.2888 26.1601 26.2207 26.1228 26.2064C26.0856 26.1922 26.055 26.1522 26.055 26.1177C26.055 26.0833 26.0186 26.0187 25.9743 25.9744C25.9299 25.9299 25.8667 25.8286 25.8338 25.7494C25.801 25.6699 25.7609 25.605 25.7447 25.605C25.7286 25.605 25.6773 25.5341 25.6306 25.4475C25.5839 25.3608 25.5287 25.29 25.5079 25.29C25.4871 25.29 25.47 25.2634 25.47 25.231C25.47 25.1986 25.4345 25.1327 25.3912 25.0847C25.3479 25.0368 25.2328 24.8659 25.1355 24.705C25.0382 24.5441 24.9402 24.4 24.9177 24.3848C24.8751 24.3559 24.8398 24.2999 24.6703 23.991C24.6141 23.8887 24.5487 23.805 24.5248 23.805C24.5011 23.805 24.4694 23.7559 24.4543 23.6958C24.4393 23.6358 24.3882 23.5516 24.3409 23.5088C24.2937 23.4661 24.255 23.4054 24.255 23.374C24.255 23.3426 24.2044 23.2568 24.1425 23.1832C24.0806 23.1097 24.03 23.0364 24.03 23.0203C24.03 23.0044 23.9524 22.8858 23.8574 22.7569C23.7625 22.6279 23.6561 22.4676 23.6212 22.4005C23.4958 22.1606 23.1664 21.649 23.1037 21.597C23.0686 21.5678 23.04 21.5185 23.04 21.4875C23.04 21.4564 23.0079 21.4044 22.9687 21.3718C22.9294 21.3392 22.8664 21.2355 22.8287 21.1414C22.791 21.0471 22.7459 20.97 22.7284 20.97C22.7109 20.97 22.6623 20.9042 22.6204 20.8237C22.5783 20.7433 22.4539 20.5357 22.3439 20.3625C22.1575 20.0688 22.0792 19.9402 21.8783 19.5975C21.7483 19.376 21.3536 19.1985 21.2018 19.2933C21.0758 19.372 20.7903 19.6566 20.7894 19.7043C20.7887 19.7412 19.1824 21.3218 19.0102 21.4553C18.6253 21.7534 18.2691 22.005 18.2318 22.005C18.2086 22.005 18.178 22.0354 18.1636 22.0725C18.1495 22.1096 18.1035 22.14 18.0616 22.14C18.0196 22.14 17.8972 22.1917 17.7895 22.2549C17.4448 22.4568 16.492 22.4293 16.4614 22.2166C16.4486 22.1282 16.8278 21.2959 16.9506 21.1428C16.9771 21.1096 17.0143 21.0322 17.0332 20.9709C17.0521 20.9095 17.1052 20.8032 17.1513 20.7346C17.1973 20.666 17.2726 20.5539 17.3187 20.4853C17.3647 20.4169 17.4178 20.3105 17.4367 20.2491C17.4557 20.1878 17.5091 20.1013 17.5556 20.0569C17.602 20.0128 17.64 19.9484 17.64 19.914C17.64 19.8796 17.6695 19.822 17.7055 19.786C18.1135 19.378 18.2874 18.6914 18.0801 18.3082C17.9632 18.0921 17.9445 18.0657 17.7552 17.8487C17.6934 17.7779 17.6308 17.6818 17.6159 17.635C17.6011 17.5882 17.5717 17.55 17.5507 17.55C17.5296 17.55 17.4776 17.4588 17.4351 17.3475C17.3926 17.2361 17.3431 17.145 17.3251 17.145C17.2084 17.145 17.1247 14.5737 17.219 13.886C17.2753 13.4745 17.7199 13.3692 18.6435 13.5481ZM34.3852 14.175C34.3831 14.2121 34.4203 14.364 34.4682 14.5125C34.516 14.661 34.555 14.742 34.5548 14.6925C34.5544 14.5811 34.3908 14.0816 34.3852 14.175ZM34.582 23.1975C34.582 27.702 34.5873 29.5381 34.5937 27.2776C34.6001 25.0173 34.6001 21.3318 34.5937 19.0876C34.5873 16.8436 34.582 18.693 34.582 23.1975ZM32.6469 22.9275C32.6469 26.937 32.6522 28.5706 32.6587 26.5576C32.6653 24.5448 32.6653 21.2643 32.6587 19.2676C32.6522 17.2711 32.6469 18.918 32.6469 22.9275ZM21.33 20.6401C21.2428 20.6653 20.9815 21.0987 20.2358 22.455C20.161 22.5911 20.0533 22.7835 19.9965 22.8825C19.9397 22.9815 19.8511 23.1435 19.7996 23.2425C19.7482 23.3415 19.6572 23.5035 19.5975 23.6025C19.5377 23.7015 19.4472 23.8635 19.3962 23.9625C19.3453 24.0615 19.2548 24.2235 19.195 24.3225C19.1354 24.4215 19.0348 24.6037 18.9716 24.7275C18.9085 24.8512 18.812 25.0233 18.7574 25.11C18.7027 25.1966 18.625 25.3282 18.5846 25.4025C18.5443 25.4767 18.4636 25.6185 18.4053 25.7175C18.3472 25.8165 18.2187 26.0491 18.1199 26.2343C18.0211 26.4195 17.9132 26.5981 17.8801 26.6312C17.8471 26.6643 17.82 26.7121 17.82 26.7376C17.82 26.7628 17.7797 26.8402 17.7305 26.9092C17.5792 27.1216 17.4979 27.9656 17.596 28.305C17.6788 28.5916 18.1413 28.98 18.3998 28.98C18.5452 28.98 19.0776 28.4564 19.2006 28.1925C19.2352 28.1182 19.3734 27.9056 19.5075 27.72C19.6417 27.5343 19.7852 27.3217 19.8264 27.2475C19.8676 27.1732 20.0354 26.9142 20.1994 26.6719C20.3634 26.4298 20.5177 26.1956 20.5425 26.1517C20.5672 26.1079 20.687 25.9215 20.8087 25.7373C20.9302 25.5532 21.082 25.3215 21.1459 25.2225C21.2099 25.1235 21.2746 25.0323 21.2898 25.02C21.305 25.0076 21.3536 24.9266 21.3978 24.84C21.442 24.7534 21.5411 24.6015 21.6178 24.5025C21.6947 24.4035 21.7777 24.288 21.8025 24.2459C21.8272 24.2037 22.0078 23.9206 22.2037 23.6166C22.7563 22.7598 22.8018 22.5018 22.4764 22.0716C22.3644 21.9235 22.2329 21.7215 22.1842 21.6225C22.1355 21.5235 22.0556 21.3817 22.0066 21.3075C21.9577 21.2332 21.8837 21.1117 21.8422 21.0375C21.6344 20.6662 21.5269 20.5827 21.33 20.6401ZM21.5949 20.7562C21.6248 20.812 21.6982 20.9385 21.7579 21.0375C21.9272 21.318 22.0662 21.5518 22.1413 21.6825C22.2788 21.9222 22.3837 22.075 22.4919 22.194C22.6361 22.3524 22.6186 22.855 22.4613 23.0761C22.4083 23.1505 22.365 23.2249 22.365 23.2411C22.365 23.2575 22.3144 23.3374 22.2525 23.4184C22.1906 23.4996 22.14 23.5827 22.14 23.6031C22.14 23.6236 22.1063 23.6776 22.0653 23.723C22.0241 23.7685 21.9684 23.8437 21.9415 23.8902C21.7234 24.2667 21.4933 24.615 21.4627 24.615C21.4425 24.615 21.4002 24.6858 21.3689 24.7725C21.3375 24.8591 21.2952 24.93 21.2749 24.93C21.2544 24.93 21.2175 24.9756 21.1927 25.0312C21.168 25.087 21.0972 25.2034 21.0357 25.29C20.974 25.3766 20.9039 25.4779 20.88 25.515C20.856 25.5521 20.7857 25.6534 20.7237 25.74C20.6618 25.8266 20.5886 25.9532 20.5612 26.0212C20.5337 26.0893 20.4942 26.145 20.4736 26.145C20.4529 26.145 20.4232 26.1854 20.4076 26.2347C20.392 26.284 20.3544 26.3499 20.3241 26.381C20.2399 26.4676 19.98 26.8648 19.98 26.9068C19.98 26.9272 19.9479 26.9705 19.9087 27.0031C19.8696 27.0355 19.8038 27.127 19.7625 27.2063C19.7212 27.2857 19.5457 27.557 19.3725 27.8095C19.1992 28.0618 19.0271 28.3198 18.99 28.3828C18.886 28.559 18.4817 28.9349 18.396 28.935C18.1641 28.9351 17.6621 28.4509 17.6263 28.1925C17.5837 27.8853 17.6598 27.1025 17.741 27.0124C17.7806 26.9685 17.8268 26.8768 17.8438 26.8087C17.8608 26.7407 17.8927 26.685 17.9145 26.685C17.9364 26.685 17.994 26.6091 18.0425 26.5162C18.0911 26.4235 18.1731 26.2665 18.2248 26.1675C18.2765 26.0685 18.3684 25.9065 18.4291 25.8075C18.4898 25.7085 18.5758 25.5566 18.6203 25.47C18.6647 25.3833 18.7463 25.2416 18.8014 25.155C18.8566 25.0684 18.9529 24.8962 19.0154 24.7725C19.0778 24.6487 19.1779 24.4665 19.2379 24.3675C19.2978 24.2685 19.3768 24.1252 19.4133 24.0489C19.4499 23.9728 19.51 23.8852 19.5469 23.8546C19.584 23.8239 19.6272 23.7397 19.643 23.6674C19.6589 23.5952 19.6923 23.5234 19.7172 23.5081C19.742 23.4927 19.8016 23.3963 19.8493 23.2938C19.8972 23.1913 19.9857 23.0265 20.0462 22.9275C20.1067 22.8285 20.198 22.6665 20.2491 22.5675C20.3881 22.2983 20.6966 21.7455 20.925 21.3561C21.0364 21.1662 21.1678 20.9414 21.2173 20.8566C21.3433 20.6398 21.5087 20.5958 21.5949 20.7562ZM11.955 28.0201C11.9176 28.0574 11.9252 30.9109 11.9644 31.5225C11.9802 31.77 11.9851 31.1035 11.9752 30.0415C11.9583 28.2102 11.9615 28.1074 12.0397 28.0503C12.1053 28.0023 12.1081 27.99 12.0535 27.99C12.0159 27.99 11.9714 28.0035 11.955 28.0201ZM14.0146 29.2275C14.0146 29.871 14.0209 30.1279 14.0286 29.7985C14.0364 29.4691 14.0362 28.9426 14.0286 28.6285C14.0209 28.3144 14.0146 28.584 14.0146 29.2275ZM25.155 29.407C24.7977 29.4929 24.3855 29.6451 24.2995 29.7229C24.2588 29.7598 24.2003 29.79 24.1696 29.79C24.0762 29.79 23.5738 30.1506 23.095 30.561C22.8583 30.7639 22.7993 30.7538 22.4224 30.4461C22.0015 30.1025 21.8824 30.015 21.8361 30.015C21.8129 30.015 21.7579 29.9753 21.7141 29.9267C21.67 29.8781 21.5606 29.8149 21.4708 29.7859C21.3809 29.7571 21.2771 29.709 21.24 29.6788C20.7747 29.3008 19.3125 29.3276 18.5446 29.7283C18.4801 29.762 18.4039 29.7895 18.3748 29.7898C18.3247 29.79 16.6077 30.6452 16.4993 30.7239C16.0466 31.0527 14.3248 31.0338 14.0512 30.6971C14.0009 30.6352 13.995 30.6358 13.995 30.7021C13.995 30.7514 14.0592 30.7936 14.1862 30.8277C14.2914 30.856 14.4686 30.9112 14.58 30.9507C14.9242 31.0724 15.991 31.0565 16.2218 30.9262C16.3204 30.8706 16.4236 30.825 16.4512 30.825C16.4786 30.825 16.5479 30.7845 16.605 30.735C16.662 30.6855 16.7423 30.645 16.7834 30.645C16.8244 30.645 16.8984 30.6073 16.9477 30.5614C16.9972 30.5154 17.1108 30.4537 17.2002 30.424C17.2897 30.3946 17.3871 30.341 17.4169 30.3052C17.4467 30.2694 17.4983 30.24 17.5316 30.24C17.6085 30.24 18.1377 29.9728 18.217 29.8941C18.2496 29.8615 18.3279 29.835 18.3908 29.835C18.4537 29.835 18.5789 29.797 18.6689 29.7505C19.2616 29.4444 20.1045 29.3569 20.6731 29.5425C20.8627 29.6044 21.0475 29.655 21.0838 29.655C21.1203 29.655 21.1905 29.6955 21.24 29.745C21.2895 29.7945 21.364 29.835 21.4054 29.835C21.4869 29.835 22.0566 30.1977 22.2136 30.3495C22.2664 30.4006 22.3749 30.4931 22.4545 30.555C22.5342 30.6169 22.6262 30.6928 22.6589 30.7237C22.7694 30.8281 22.9429 30.7865 23.1298 30.6112C23.4367 30.3237 23.9864 29.9215 24.2176 29.8156C24.3001 29.7778 24.3979 29.729 24.435 29.7072C24.9366 29.4126 26.064 29.331 26.7118 29.5425C26.9014 29.6044 27.0905 29.655 27.1321 29.655C27.1737 29.655 27.247 29.6851 27.2952 29.7218C27.3432 29.7585 27.4635 29.8111 27.5625 29.8385C27.6615 29.866 27.7729 29.9144 27.81 29.9464C27.8471 29.9782 27.9252 30.019 27.9833 30.0367C28.0416 30.0545 28.1608 30.1176 28.2484 30.177C28.3359 30.2364 28.4258 30.285 28.4482 30.285C28.4704 30.285 28.5132 30.3056 28.5431 30.3308C28.6853 30.4507 29.0098 30.6434 29.0707 30.6442C29.1081 30.6447 29.2114 30.6839 29.3002 30.7315C29.3889 30.779 29.5708 30.8383 29.7045 30.863C29.8381 30.8879 30.0045 30.93 30.0742 30.9566C30.2636 31.029 31.2075 31.0189 31.356 30.9428C31.4228 30.9086 31.563 30.8664 31.6674 30.849C31.7719 30.8317 31.9066 30.7788 31.9669 30.7313C32.0272 30.6838 32.101 30.645 32.1307 30.645C32.1937 30.645 32.6329 30.3679 32.6086 30.3435C32.5919 30.327 32.3062 30.4672 32.265 30.5122C32.1475 30.6405 31.458 30.8605 30.924 30.9399C30.3631 31.0234 29.4262 30.7755 28.6677 30.3432C28.0429 29.9871 27.6638 29.7922 27.5938 29.791C27.5617 29.7904 27.4604 29.7508 27.3688 29.7027C26.779 29.3935 25.7713 29.2589 25.155 29.407ZM34.4325 32.0251C34.402 32.1389 34.385 32.2402 34.3948 32.2498C34.4046 32.2596 34.4383 32.1754 34.47 32.0625C34.5016 31.9497 34.5184 31.8485 34.5076 31.8376C34.4968 31.8268 34.4629 31.911 34.4325 32.0251ZM12.0263 32.1525C12.0268 32.2515 12.036 32.2867 12.0468 32.2307C12.0576 32.1747 12.0571 32.0937 12.0459 32.0507C12.0346 32.0077 12.0258 32.0535 12.0263 32.1525ZM12.0631 32.6025C12.0631 32.6272 12.0922 32.6981 12.1275 32.76C12.1628 32.8219 12.1918 32.8522 12.1918 32.8275C12.1918 32.8027 12.1628 32.7318 12.1275 32.67C12.0922 32.6081 12.0631 32.5777 12.0631 32.6025ZM34.2253 32.8279C34.1832 32.9166 34.1587 33.0135 34.1708 33.0432C34.1849 33.0781 34.1942 33.0732 34.1967 33.03C34.1989 32.9929 34.2311 32.9037 34.2686 32.832C34.306 32.7604 34.3288 32.6938 34.3192 32.6842C34.3096 32.6746 34.2673 32.7393 34.2253 32.8279ZM33.9953 33.4842C33.9557 33.5607 33.9313 33.6313 33.9411 33.6411C33.9509 33.6509 33.9925 33.5882 34.0337 33.502C34.1262 33.3079 34.0941 33.293 33.9953 33.4842ZM33.8482 33.7598C33.8189 33.7891 33.795 33.8365 33.795 33.8652C33.795 33.8939 33.7444 33.992 33.6825 34.0832C33.5527 34.2744 33.5306 34.3541 33.6514 34.1948C33.8504 33.9324 33.995 33.613 33.8482 33.7598ZM12.5057 33.832C12.533 33.8832 12.5776 33.9387 12.6047 33.9554C12.64 33.9772 12.6398 33.9594 12.6043 33.893C12.5769 33.8418 12.5323 33.7864 12.5053 33.7696C12.4699 33.7477 12.4702 33.7655 12.5057 33.832ZM12.96 34.4925C13.0181 34.5544 13.0727 34.605 13.0813 34.605C13.09 34.605 13.0639 34.5544 13.0233 34.4925C12.9828 34.4306 12.9281 34.38 12.9019 34.38C12.8757 34.38 12.9018 34.4306 12.96 34.4925ZM33.2184 34.7418C33.1643 34.7922 33.12 34.8563 33.12 34.8842C33.12 34.9121 33.125 34.9265 33.1312 34.9163C33.1374 34.906 33.1915 34.8418 33.2516 34.7737C33.3794 34.6288 33.3599 34.6099 33.2184 34.7418ZM13.4964 35.0262C13.5563 35.0914 13.6141 35.136 13.6246 35.1253C13.6569 35.093 13.5907 35.0135 13.4863 34.9591C13.3921 34.9102 13.3925 34.9132 13.4964 35.0262ZM13.8375 35.28C13.8823 35.3295 13.936 35.37 13.957 35.37C13.9779 35.37 13.9545 35.3295 13.905 35.28C13.8555 35.2305 13.8017 35.19 13.7855 35.19C13.7693 35.19 13.7927 35.2305 13.8375 35.28ZM14.1649 35.4601C14.3559 35.5767 14.4184 35.5765 14.2425 35.46C14.1682 35.4109 14.0872 35.3706 14.0625 35.3704C14.0377 35.3704 14.0837 35.4107 14.1649 35.4601ZM32.2099 35.523C31.9692 35.6661 31.9399 35.7124 32.1607 35.6012C32.2642 35.549 32.3616 35.4858 32.377 35.4606C32.4128 35.403 32.411 35.4037 32.2099 35.523ZM31.3875 35.8658C31.2885 35.9144 31.2568 35.9417 31.3171 35.9264C31.4858 35.8837 31.7107 35.7786 31.635 35.7779C31.5979 35.7776 31.4865 35.8172 31.3875 35.8658ZM15.2775 35.8891C15.3517 35.9232 15.453 35.9505 15.5025 35.95C15.552 35.9493 15.5014 35.9203 15.39 35.8852C15.1401 35.8065 15.1 35.8078 15.2775 35.8891ZM15.955 36.006C16.1323 36.044 30.4255 36.0454 30.7125 36.0073C30.8362 35.9909 27.5366 35.9775 23.38 35.9775C19.2235 35.9775 15.8823 35.9903 15.955 36.006Z" fill="#646464"/>
</svg>
