<svg width="50" height="50" viewBox="0 0 50 50" fill="none" xmlns="http://www.w3.org/2000/svg">
<path fill-rule="evenodd" clip-rule="evenodd" d="M0 25V50H25H50V25V0H25H0V25ZM11.6739 17.4086C11.7446 17.4409 11.8738 17.5926 11.961 17.7461C12.0481 17.8995 12.1892 18.1262 12.2747 18.25C12.3601 18.3738 12.5144 18.6212 12.6173 18.8C12.7203 18.9787 12.8706 19.2263 12.9515 19.35C13.0322 19.4738 13.1256 19.6313 13.1589 19.7C13.1921 19.7688 13.2524 19.8645 13.2928 19.9129C13.3731 20.0091 13.4167 20.0801 13.5921 20.4002C13.6565 20.5179 13.73 20.639 13.7555 20.6695C13.8501 20.7829 14.0982 21.1764 14.0991 21.2145C14.0996 21.2363 14.142 21.315 14.1935 21.3895C14.3481 21.6136 14.7299 22.2197 14.7671 22.3C14.7861 22.3412 14.9246 22.5662 15.0747 22.8C15.2249 23.0337 15.4101 23.3319 15.4864 23.4625C15.6502 23.7431 15.6907 23.752 15.8304 23.5371C15.9637 23.3319 16.2941 22.8067 16.425 22.5924C16.48 22.5022 16.5638 22.3715 16.6111 22.3018C16.6585 22.232 16.7436 22.0962 16.8002 22C16.857 21.9038 16.9686 21.7238 17.0483 21.6C17.128 21.4763 17.2653 21.2513 17.3535 21.1C17.4416 20.9488 17.5669 20.7614 17.6319 20.6836C17.6969 20.6059 17.75 20.5206 17.75 20.4941C17.75 20.4676 17.792 20.385 17.8435 20.3105C18.0035 20.0784 18.3806 19.4787 18.416 19.4C18.4345 19.3587 18.562 19.1563 18.6991 18.95C18.8364 18.7438 18.9946 18.4962 19.051 18.4C19.1073 18.3037 19.2196 18.1238 19.3008 18C19.3818 17.8762 19.4694 17.727 19.4955 17.6684C19.637 17.351 19.6619 17.3475 21.6836 17.3619L23.525 17.375L23.5405 17.5088C23.5501 17.5921 23.503 17.7221 23.4155 17.8538C23.3383 17.9699 23.253 18.101 23.226 18.145C23.14 18.2855 22.7573 18.8887 22.5329 19.2375C22.4134 19.4231 22.2369 19.6988 22.1406 19.85C21.8459 20.3129 21.4985 20.8541 21.2097 21.3C20.9107 21.7616 20.622 22.2099 20.2835 22.7375C20.1644 22.9231 19.9656 23.2325 19.8417 23.425C19.6206 23.7685 19.4761 23.9952 19.3756 24.1559C19.3478 24.2004 19.2815 24.3016 19.2284 24.3809C18.8474 24.9496 18.5 25.5021 18.5 25.5397C18.5 25.5644 18.455 25.6252 18.4 25.675C18.345 25.7247 18.3 25.7869 18.3 25.813C18.3 25.8391 18.2437 25.9274 18.175 26.0091C18.1062 26.0909 18.05 26.1862 18.05 26.2211C18.05 26.256 18.005 26.3252 17.95 26.375C17.895 26.4248 17.85 26.4922 17.85 26.525C17.85 26.5577 17.805 26.6252 17.75 26.675C17.695 26.7247 17.65 26.7866 17.65 26.8125C17.65 26.8384 17.5994 26.9305 17.5375 27.0173L17.425 27.175L17.4 30.66C17.3801 33.426 17.3616 34.1585 17.31 34.21C17.2124 34.3077 14.0007 34.3043 13.8827 34.2064C13.8072 34.1438 13.8 33.8391 13.8 30.7264C13.8 27.1958 13.7946 27.0952 13.5931 26.8717C13.5419 26.815 13.5 26.7499 13.5 26.727C13.5 26.7041 13.4246 26.5705 13.3326 26.4301C13.1466 26.1467 12.875 25.7169 12.5806 25.2399C12.4737 25.0668 12.2844 24.7675 12.1599 24.575C12.0355 24.3825 11.8775 24.135 11.809 24.025C11.7404 23.915 11.6429 23.764 11.5921 23.6895C11.5415 23.615 11.5 23.541 11.5 23.525C11.5 23.509 11.4585 23.435 11.4079 23.3605C11.3571 23.286 11.2596 23.135 11.191 23.025C11.0016 22.721 10.5969 22.0919 10.4926 21.9395C10.4418 21.865 10.4 21.7853 10.4 21.7623C10.4 21.7391 10.366 21.6764 10.3244 21.6226C10.2829 21.569 10.1781 21.4125 10.0916 21.275C10.0053 21.1375 9.833 20.8675 9.709 20.675C9.3865 20.1742 9.27912 20.0014 9.14975 19.775C9.03537 19.575 8.7735 19.1641 8.3665 18.5464C8.2475 18.3656 8.15 18.2001 8.15 18.1785C8.15 18.157 8.09462 18.0736 8.02687 17.9931C7.87 17.8068 7.78213 17.5067 7.85763 17.4159C7.93213 17.326 11.478 17.3194 11.6739 17.4086ZM29.1734 17.5199C29.2745 17.627 29.3631 17.7979 29.4135 17.9824C29.5912 18.6337 29.6945 18.985 29.7641 19.175C29.8044 19.285 29.8844 19.5325 29.9417 19.725C29.9992 19.9175 30.0824 20.1875 30.1268 20.325C30.171 20.4625 30.241 20.7097 30.2824 20.8744C30.3236 21.039 30.3766 21.1969 30.4 21.225C30.4234 21.2531 30.4764 21.411 30.5176 21.5756C30.5901 21.8642 30.6959 22.2109 30.8072 22.525C30.8365 22.6075 30.9008 22.81 30.95 22.975C30.9993 23.14 31.063 23.3425 31.0915 23.425C31.1201 23.5075 31.1979 23.755 31.2642 23.975C31.4639 24.6366 31.6551 25.2587 31.7482 25.55C31.9191 26.0841 32.0514 26.5274 32.101 26.7327C32.1288 26.847 32.1941 26.9933 32.2464 27.0578L32.3416 27.175L32.3715 27.025C32.388 26.9425 32.445 26.74 32.4984 26.575C32.5516 26.41 32.6105 26.185 32.6292 26.075C32.648 25.965 32.6914 25.8188 32.7256 25.75C32.7599 25.6812 32.8028 25.5463 32.8208 25.45C32.853 25.2779 32.9699 24.8668 33.1266 24.375C33.1705 24.2375 33.2386 23.983 33.278 23.8095C33.3175 23.6359 33.3697 23.4559 33.3942 23.4095C33.4187 23.363 33.4664 23.19 33.5 23.025C33.5336 22.86 33.5851 22.68 33.6143 22.625C33.6434 22.57 33.6962 22.4013 33.7316 22.25C33.7904 21.9989 33.8594 21.7538 34.1611 20.725C34.2176 20.5325 34.3144 20.1801 34.3763 19.9419C34.4381 19.7036 34.506 19.4806 34.5272 19.4464C34.5484 19.4121 34.5942 19.2584 34.6291 19.1046C34.6639 18.9508 34.7269 18.735 34.769 18.625C34.8111 18.515 34.8467 18.38 34.848 18.325C34.8519 18.1654 35.0834 17.5451 35.1724 17.4561C35.2446 17.3839 35.5199 17.3735 37.6845 17.3611L40.1156 17.3472L40.2327 17.4574L40.35 17.5674V25.8241C40.35 32.6128 40.3381 34.097 40.2835 34.1717C40.2189 34.2602 37.197 34.3032 36.9769 34.2188C36.8548 34.172 36.8514 34.0126 36.8506 28.3775C36.8502 25.2439 36.831 22.8009 36.807 22.8275C36.759 22.8804 36.6279 23.3545 36.5243 23.85C36.4868 24.0288 36.421 24.2586 36.3781 24.3609C36.3351 24.4631 36.3 24.5918 36.3 24.6466C36.3 24.7016 36.2629 24.8541 36.2176 24.9858C36.1724 25.1174 36.1071 25.36 36.0728 25.525C35.9751 25.9939 35.7683 26.7723 35.7129 26.8786C35.6854 26.9316 35.6474 27.0875 35.6286 27.225C35.6097 27.3625 35.5506 27.6045 35.4972 27.7628C35.4437 27.9209 35.3995 28.1121 35.3989 28.1877C35.3983 28.2632 35.3566 28.4157 35.3063 28.5266C35.2559 28.6375 35.1979 28.84 35.1774 28.9766C35.1569 29.1133 35.1189 29.2649 35.0928 29.3135C35.0668 29.3622 35.0025 29.5872 34.9501 29.8135C34.7945 30.4859 34.5201 31.563 34.4121 31.925C34.3711 32.0625 34.3079 32.2988 34.2716 32.45C34.1909 32.7863 34.0604 33.3121 33.997 33.5556C33.9713 33.655 33.8907 33.7956 33.8182 33.8681L33.6864 34H32.2381H30.79L30.624 33.834C30.5161 33.7261 30.4468 33.599 30.426 33.4715C30.4084 33.3634 30.3513 33.1288 30.2989 32.95C30.1834 32.5549 30.0745 32.1481 29.951 31.65C29.764 30.8951 29.692 30.6182 29.6 30.3C29.3791 29.5354 29.3315 29.3591 29.2694 29.075C29.1847 28.6881 28.9754 27.911 28.9125 27.75C28.8856 27.6812 28.8471 27.5128 28.827 27.3756C28.8069 27.2385 28.7609 27.0695 28.725 27C28.6891 26.9305 28.6432 26.7615 28.6232 26.6244C28.6032 26.4872 28.5544 26.2922 28.5145 26.1912C28.4747 26.0901 28.4114 25.8764 28.3739 25.7162C28.2327 25.1142 28.144 24.7704 28.0923 24.625C28.0628 24.5425 27.9979 24.3063 27.9479 24.1C27.8979 23.8938 27.8295 23.6238 27.796 23.5C27.7624 23.3762 27.7147 23.19 27.6901 23.086C27.5665 22.564 27.55 23.1794 27.55 28.3318V33.7077L27.4039 33.8539L27.2577 34H25.7039C24.2166 34 24.1457 33.9958 24.05 33.9C23.925 33.775 23.8881 17.6471 24.0125 17.4902C24.1163 17.3594 24.143 17.358 26.6191 17.354L29.0133 17.35L29.1734 17.5199Z" fill="#F6F6F6"/>
<path fill-rule="evenodd" clip-rule="evenodd" d="M8.07962 17.6425C8.06512 17.6659 8.10887 17.7603 8.17662 17.8523C8.2445 17.9443 8.3 18.0454 8.3 18.077C8.3 18.1086 8.34499 18.1753 8.39999 18.225C8.45499 18.2748 8.5 18.3423 8.5 18.375C8.5 18.4078 8.545 18.4753 8.6 18.525C8.655 18.5748 8.70037 18.6401 8.70087 18.6703C8.70137 18.7004 8.76925 18.8263 8.85162 18.95C8.934 19.0738 9.02325 19.2088 9.05 19.25C9.07675 19.2913 9.166 19.4263 9.24837 19.55C9.33075 19.6738 9.39862 19.7996 9.39912 19.8298C9.39962 19.8599 9.445 19.9253 9.5 19.975C9.555 20.0248 9.6 20.0854 9.6 20.1098C9.6 20.1341 9.6415 20.215 9.69212 20.2895C9.74287 20.364 9.84037 20.515 9.909 20.625C9.9775 20.735 10.1334 20.9825 10.2552 21.175C10.3772 21.3675 10.499 21.5621 10.526 21.6074C10.553 21.6528 10.6479 21.7941 10.737 21.9216C10.8261 22.0491 10.913 22.2095 10.9302 22.278C10.9474 22.3466 11.0039 22.4254 11.0557 22.4531C11.1076 22.4809 11.15 22.526 11.15 22.5534C11.15 22.6009 11.3552 22.9318 11.8326 23.6536C11.9522 23.8344 12.05 24.0188 12.05 24.0633C12.05 24.1078 12.072 24.1576 12.0987 24.1743C12.1452 24.2029 12.2176 24.3103 12.7402 25.125C12.8636 25.3175 13.0064 25.536 13.0574 25.6105C13.1082 25.685 13.15 25.7793 13.15 25.82C13.15 25.8608 13.172 25.9076 13.1987 25.9243C13.2672 25.9665 13.6 26.4744 13.6 26.5365C13.6 26.5648 13.6326 26.6149 13.6725 26.648C13.7124 26.681 13.8136 26.8298 13.8975 26.9783L14.05 27.2485V30.6213C14.05 32.8146 14.0675 34.0049 14.1 34.025C14.1922 34.082 17.0132 34.0513 17.0841 33.9925C17.1374 33.9483 17.15 33.3044 17.15 30.6204C17.15 27.0148 17.145 27.0824 17.4282 26.8473C17.4677 26.8145 17.5 26.7585 17.5 26.7228C17.5 26.687 17.5562 26.5909 17.625 26.5091C17.6937 26.4274 17.75 26.3391 17.75 26.313C17.75 26.2869 17.795 26.2248 17.85 26.175C17.905 26.1253 17.95 26.056 17.95 26.0211C17.95 25.9863 18.0062 25.8909 18.075 25.8091C18.1437 25.7274 18.2 25.646 18.2 25.6283C18.2 25.6105 18.2417 25.535 18.2929 25.4605C18.3439 25.386 18.4282 25.2598 18.4804 25.18C18.5324 25.1004 18.6137 24.9766 18.661 24.905C18.7082 24.8335 18.7826 24.7119 18.8261 24.6349C18.8696 24.5578 18.9491 24.4509 19.0026 24.3974C19.0562 24.3438 19.1 24.2783 19.1 24.2516C19.1 24.2249 19.1864 24.073 19.292 23.9141C19.3975 23.7551 19.585 23.4675 19.7086 23.275C19.9172 22.9504 19.9776 22.8578 20.2111 22.505C20.2585 22.4335 20.3411 22.2948 20.3949 22.1966C20.4487 22.0986 20.5281 21.9889 20.5714 21.953C20.6146 21.9171 20.65 21.8636 20.65 21.8341C20.65 21.765 20.9052 21.3874 20.9874 21.335C21.0217 21.313 21.05 21.2655 21.05 21.2295C21.05 21.1934 21.2469 20.8624 21.4875 20.494C21.7281 20.1255 21.9475 19.788 21.975 19.744C22.0025 19.7 22.0684 19.599 22.1214 19.5195C22.1744 19.44 22.3339 19.195 22.4757 18.975C22.6177 18.755 22.8162 18.4489 22.917 18.2949C23.0176 18.1408 23.1 17.9959 23.1 17.973C23.1 17.9501 23.1492 17.8791 23.2094 17.815C23.4036 17.6081 23.3172 17.5979 21.4987 17.6119L19.779 17.625L19.6646 17.8C19.6017 17.8963 19.5165 18.019 19.4751 18.0726C19.4339 18.1264 19.4 18.1906 19.4 18.2155C19.4 18.2403 19.3437 18.3274 19.275 18.4091C19.2062 18.4909 19.1485 18.5841 19.1466 18.6164C19.1449 18.6486 19.0657 18.7763 18.971 18.9C18.8761 19.0238 18.7646 19.1986 18.7231 19.2886C18.6816 19.3786 18.5582 19.5811 18.4489 19.7386C18.3396 19.8961 18.2501 20.0458 18.2501 20.0711C18.25 20.0964 18.2126 20.1584 18.167 20.2089C18.0794 20.3056 18.0422 20.3644 17.8661 20.6841C17.8062 20.7928 17.7219 20.9111 17.6786 20.947C17.6354 20.9829 17.5999 21.0376 17.5997 21.0686C17.5995 21.0996 17.4984 21.2713 17.375 21.45C17.2516 21.6288 17.1505 21.7996 17.1502 21.8298C17.1501 21.8599 17.1056 21.9248 17.0512 21.9739C16.997 22.023 16.9385 22.1074 16.9214 22.1613C16.9042 22.2153 16.8194 22.3609 16.7326 22.4848C16.646 22.6088 16.553 22.7473 16.526 22.7926C16.499 22.8379 16.3809 23.0229 16.2635 23.2036C16.1461 23.3844 16.05 23.5566 16.05 23.5864C16.05 23.66 15.7445 24 15.6782 24C15.6031 24 15.3541 23.6769 15.2921 23.499C15.2636 23.417 15.2187 23.35 15.1925 23.35C15.1664 23.35 15.1115 23.2769 15.0706 23.1875C15.0297 23.0981 14.9296 22.9238 14.8482 22.8C14.7669 22.6763 14.6661 22.5019 14.6245 22.4125C14.5827 22.3231 14.5286 22.25 14.5042 22.25C14.4797 22.25 14.4349 22.1881 14.4045 22.1125C14.3741 22.0369 14.282 21.8738 14.1997 21.75C14.1175 21.6263 14.0177 21.4558 13.978 21.371C13.9382 21.2864 13.8707 21.188 13.8279 21.1524C13.785 21.1169 13.75 21.0603 13.75 21.0266C13.75 20.993 13.707 20.9266 13.6545 20.8791C13.602 20.8315 13.5439 20.7326 13.5255 20.6593C13.5071 20.5859 13.4595 20.4919 13.4197 20.4504C13.3139 20.3399 13.1149 20.0255 13.0787 19.9118C13.0615 19.8575 13.003 19.773 12.9487 19.7239C12.8944 19.6748 12.8499 19.6099 12.8497 19.5798C12.8495 19.5496 12.7484 19.3788 12.625 19.2C12.5016 19.0213 12.4005 18.8573 12.4002 18.8355C12.4001 18.8138 12.3582 18.735 12.3074 18.6605C12.0134 18.2306 11.7561 17.8105 11.7269 17.7125L11.6932 17.6H9.89962C8.91299 17.6 8.09412 17.6191 8.07962 17.6425ZM24.2125 17.6331C24.1629 17.6531 24.15 19.3091 24.15 25.6783V33.6981L24.2625 33.7255C24.3244 33.7406 25.0275 33.7468 25.825 33.739L27.275 33.725L27.3 27.8356C27.3219 22.6734 27.3342 21.9405 27.4 21.8991C27.4836 21.8464 27.5997 21.9611 27.6002 22.097C27.6005 22.1399 27.6374 22.2425 27.6822 22.325C27.7271 22.4075 27.7925 22.6213 27.8276 22.8C27.8627 22.9788 27.9261 23.215 27.9685 23.325C28.0109 23.435 28.0466 23.6124 28.0477 23.7191C28.049 23.8259 28.0921 23.9834 28.1436 24.0691C28.195 24.1549 28.2506 24.346 28.267 24.4939C28.2834 24.6416 28.3285 24.811 28.3671 24.87C28.4059 24.9291 28.454 25.1006 28.474 25.2513C28.4941 25.4018 28.5512 25.6263 28.6011 25.75C28.6509 25.8738 28.7044 26.0823 28.72 26.2134C28.7355 26.3445 28.7836 26.52 28.8269 26.6035C28.87 26.687 28.9182 26.8723 28.9341 27.0153C28.9499 27.1581 29.0021 27.3425 29.0501 27.425C29.0981 27.5075 29.15 27.7061 29.1655 27.8664C29.1809 28.0266 29.226 28.2071 29.2655 28.2676C29.3051 28.328 29.3541 28.4983 29.3745 28.646C29.3947 28.7936 29.4534 29.0069 29.5046 29.1198C29.5559 29.2326 29.5982 29.4159 29.5989 29.5269C29.5995 29.638 29.6419 29.8111 29.6932 29.9116C29.7445 30.0121 29.8014 30.2071 29.8196 30.3449C29.8379 30.4828 29.8967 30.6921 29.9504 30.8103C30.0039 30.9284 30.0482 31.1236 30.0489 31.2441C30.0495 31.3675 30.0909 31.5313 30.1436 31.6191C30.195 31.7049 30.2501 31.8919 30.2659 32.0348C30.2817 32.1778 30.3286 32.3604 30.3701 32.4406C30.4117 32.521 30.4677 32.7234 30.4946 32.8906C30.5215 33.0578 30.5714 33.2464 30.6055 33.3098C30.6395 33.3731 30.6812 33.4925 30.6982 33.575L30.7291 33.725H32.2247H33.7205L33.7612 33.5289C33.7836 33.4211 33.825 33.3053 33.853 33.2714C33.881 33.2376 33.9261 33.0671 33.9532 32.8925C33.9804 32.7179 34.047 32.4696 34.1012 32.3408C34.1556 32.2119 34.2 32.0254 34.2 31.9263C34.2 31.8271 34.2421 31.6625 34.2935 31.5605C34.345 31.4585 34.4031 31.24 34.4226 31.075C34.4421 30.91 34.49 30.7253 34.529 30.6644C34.568 30.6035 34.6204 30.4123 34.6452 30.2394C34.6702 30.0665 34.7264 29.8575 34.77 29.775C34.8136 29.6925 34.8495 29.5341 34.8497 29.4231C34.8499 29.312 34.8957 29.132 34.9515 29.0231C35.0074 28.9141 35.0727 28.6874 35.0969 28.5191C35.1209 28.3509 35.1765 28.1439 35.2202 28.0591C35.2641 27.9744 35.301 27.8308 35.3022 27.74C35.3034 27.6493 35.3391 27.485 35.3815 27.375C35.4239 27.265 35.4875 27.0288 35.5229 26.85C35.5582 26.6713 35.6239 26.4414 35.6686 26.3391C35.7134 26.2369 35.75 26.0708 35.75 25.97C35.75 25.8693 35.7922 25.7166 35.8439 25.6309C35.8956 25.5451 35.9532 25.3288 35.9722 25.15C35.9911 24.9713 36.0406 24.7724 36.0824 24.708C36.124 24.6438 36.1704 24.4638 36.1854 24.308C36.2004 24.1524 36.252 23.9575 36.3 23.875C36.348 23.7925 36.3996 23.6013 36.4146 23.45C36.4295 23.2988 36.4881 23.0738 36.5447 22.95C36.6015 22.8263 36.6482 22.6199 36.6489 22.4914C36.6502 22.2073 36.9486 21.7786 37.0644 21.8944C37.0865 21.9165 37.1031 24.6365 37.1012 27.9386C37.0989 32.0213 37.1144 33.953 37.1495 33.9746C37.2626 34.0446 40.1101 34.0145 40.1554 33.9429C40.2035 33.8671 40.2175 17.8039 40.1696 17.6791C40.1425 17.6085 39.8779 17.6 37.6964 17.6C34.945 17.6 35.15 17.569 35.15 17.985C35.15 18.0903 35.1084 18.2549 35.0575 18.3508C35.0065 18.4466 34.9501 18.6388 34.932 18.7778C34.9139 18.9168 34.8544 19.1184 34.7996 19.2259C34.7447 19.3333 34.7 19.4981 34.7 19.5921C34.7 19.6863 34.6579 19.8334 34.6064 19.9191C34.555 20.0049 34.4999 20.1921 34.484 20.3353C34.4682 20.4784 34.4205 20.6486 34.3779 20.7135C34.3354 20.7784 34.286 20.9425 34.2682 21.0783C34.2504 21.214 34.194 21.4085 34.1429 21.5105C34.0917 21.6125 34.0495 21.77 34.0489 21.8605C34.0482 21.951 34.0049 22.1198 33.9522 22.2354C33.8997 22.3511 33.8414 22.5536 33.8225 22.6854C33.8036 22.8173 33.7459 22.9951 33.6941 23.0809C33.6424 23.1666 33.6 23.3196 33.6 23.4209C33.6 23.5221 33.5654 23.6719 33.5231 23.7538C33.4807 23.8355 33.4227 24.029 33.3941 24.1838C33.3655 24.3384 33.2989 24.5456 33.2461 24.6443C33.1932 24.7429 33.1499 24.9026 33.1497 24.9993C33.1495 25.0959 33.1139 25.2425 33.0705 25.325C33.0271 25.4075 32.9701 25.6064 32.944 25.767C32.9177 25.9276 32.8636 26.1091 32.8235 26.1703C32.7834 26.2315 32.7357 26.3925 32.7176 26.5283C32.6995 26.664 32.6431 26.8534 32.5924 26.9493C32.5415 27.0451 32.5 27.1873 32.5 27.265C32.5 27.8058 32.0616 27.5698 31.9734 26.9816C31.9541 26.8534 31.896 26.6653 31.8442 26.5636C31.7924 26.462 31.7499 26.3105 31.7499 26.2269C31.7497 26.1434 31.708 26.0068 31.6571 25.9233C31.6062 25.8399 31.5481 25.6618 31.528 25.5276C31.5079 25.3934 31.4484 25.2033 31.3957 25.105C31.3431 25.0069 31.3 24.8634 31.3 24.7863C31.3 24.7091 31.255 24.5578 31.2 24.45C31.145 24.3423 31.1 24.1909 31.1 24.1138C31.1 24.0366 31.0554 23.8903 31.0009 23.7886C30.9464 23.6869 30.8872 23.5073 30.8695 23.3894C30.8517 23.2715 30.7951 23.1049 30.7436 23.0191C30.6921 22.9334 30.6495 22.7984 30.6489 22.7191C30.6482 22.6399 30.6031 22.4765 30.5485 22.356C30.4939 22.2356 30.4352 22.0444 30.4182 21.931C30.4011 21.8178 30.3451 21.6549 30.2936 21.5691C30.2421 21.4834 30.2 21.3475 30.2 21.2671C30.2 21.1869 30.156 21.0348 30.1021 20.9291C30.0482 20.8235 29.9894 20.6384 29.9712 20.5178C29.9532 20.3971 29.896 20.2153 29.8442 20.1136C29.7924 20.012 29.75 19.8714 29.75 19.8011C29.75 19.731 29.7079 19.595 29.6565 19.499C29.605 19.403 29.5462 19.2259 29.5259 19.1053C29.5055 18.9846 29.4469 18.7935 29.3955 18.6805C29.3442 18.5675 29.3017 18.4184 29.3011 18.3493C29.3005 18.2801 29.2585 18.1451 29.2076 18.0493C29.1569 17.9534 29.1002 17.8131 29.0817 17.7375L29.0481 17.6L26.6615 17.604C25.349 17.6061 24.2469 17.6193 24.2125 17.6331ZM28.5509 18.1005C28.6731 18.1659 28.8741 18.5679 28.9162 18.831C28.9342 18.9444 28.9939 19.1356 29.0485 19.256C29.1031 19.3765 29.1482 19.5316 29.1489 19.6008C29.1495 19.6699 29.1915 19.8049 29.2422 19.9008C29.2931 19.9966 29.3477 20.1583 29.3637 20.26C29.3797 20.3616 29.4279 20.5191 29.4707 20.61C29.5136 20.7008 29.5709 20.893 29.598 21.0373C29.6251 21.1814 29.679 21.3501 29.7177 21.4123C29.7565 21.4743 29.8026 21.6223 29.8202 21.741C29.8379 21.8599 29.8834 22.0061 29.9214 22.066C29.9594 22.126 30.0065 22.2763 30.0261 22.4C30.0459 22.5238 30.1042 22.7085 30.156 22.8105C30.2077 22.9125 30.25 23.0591 30.25 23.1363C30.25 23.2134 30.2921 23.355 30.3435 23.451C30.395 23.547 30.4539 23.7266 30.4745 23.8503C30.4951 23.9739 30.5542 24.1585 30.606 24.2605C30.6577 24.3625 30.7 24.5091 30.7 24.5863C30.7 24.6634 30.7416 24.8049 30.7924 24.9008C30.8432 24.9966 30.8999 25.1715 30.9182 25.2894C30.9367 25.4073 30.9964 25.5869 31.0509 25.6886C31.1054 25.7903 31.15 25.9366 31.15 26.0138C31.15 26.0909 31.195 26.2423 31.25 26.35C31.305 26.4578 31.3505 26.5975 31.3511 26.6605C31.3517 26.7235 31.3969 26.8735 31.4515 26.994C31.5061 27.1144 31.5651 27.3056 31.5825 27.419C31.5999 27.5323 31.6559 27.7085 31.707 27.8105C31.7581 27.9125 31.8 28.0426 31.8 28.0996C31.8 28.1566 31.8364 28.2869 31.8809 28.3891C31.9254 28.4914 31.9919 28.6988 32.0286 28.85C32.1302 29.2688 32.3085 29.7506 32.3519 29.7238C32.3732 29.7106 32.4065 29.5818 32.4259 29.4375C32.4451 29.2931 32.5035 29.0806 32.5555 28.9653C32.6075 28.8499 32.65 28.6808 32.65 28.5895C32.65 28.4983 32.6917 28.3451 32.7429 28.2493C32.794 28.1534 32.8524 27.963 32.8726 27.8261C32.8929 27.6894 32.9524 27.4934 33.0047 27.3906C33.0571 27.288 33.1 27.1344 33.1 27.0493C33.1 26.9641 33.1422 26.8001 33.1939 26.6848C33.2455 26.5694 33.3027 26.371 33.321 26.244C33.3392 26.1169 33.3982 25.9265 33.4521 25.8209C33.506 25.7153 33.55 25.554 33.55 25.4624C33.55 25.3709 33.5917 25.2125 33.6429 25.1105C33.694 25.0085 33.7504 24.814 33.7682 24.6783C33.786 24.5425 33.8354 24.3784 33.8779 24.3135C33.9205 24.2486 33.9685 24.0784 33.9847 23.9353C34.0009 23.7921 34.056 23.5915 34.1071 23.4895C34.1581 23.3875 34.2 23.2404 34.2 23.1626C34.2 23.0848 34.2447 22.9333 34.2996 22.8259C34.3544 22.7184 34.4142 22.5168 34.4326 22.3778C34.4511 22.2388 34.507 22.035 34.557 21.925C34.6069 21.815 34.6482 21.6571 34.6489 21.5743C34.6495 21.4914 34.6931 21.3431 34.7457 21.245C34.7984 21.1468 34.8579 20.9565 34.878 20.8224C34.8981 20.6881 34.9559 20.4875 35.0062 20.3766C35.0566 20.2658 35.0987 20.1075 35.1 20.025C35.1012 19.9425 35.1451 19.7803 35.1977 19.6646C35.2502 19.5489 35.3094 19.3464 35.329 19.2146C35.3486 19.0828 35.3935 18.93 35.4286 18.875C35.4639 18.82 35.5075 18.685 35.5256 18.575C35.6167 18.0239 35.5224 18.046 37.7097 18.0619L39.5221 18.075L39.5856 18.2C39.6726 18.3713 39.6557 33.4143 39.5685 33.5015C39.4954 33.5746 37.6992 33.5693 37.6257 33.4958C37.5922 33.4623 37.5665 31.2555 37.55 26.985L37.525 20.525L37.1106 20.5105L36.6962 20.4959L36.6014 20.7105C36.5492 20.8285 36.4902 21.0488 36.4702 21.2C36.4502 21.3513 36.393 21.565 36.343 21.675C36.2931 21.785 36.2517 21.9541 36.2511 22.0508C36.2505 22.1474 36.2084 22.3049 36.1575 22.4008C36.1065 22.4966 36.0489 22.6981 36.0292 22.8485C36.0096 22.999 35.95 23.2514 35.8969 23.4095C35.8436 23.5675 35.8 23.7548 35.8 23.8254C35.8 23.8961 35.7581 24.0375 35.707 24.1395C35.6559 24.2415 35.5999 24.4504 35.5826 24.6036C35.5654 24.7569 35.5185 24.9481 35.4785 25.0286C35.4385 25.1091 35.3839 25.31 35.3571 25.475C35.3304 25.64 35.2729 25.8425 35.2295 25.925C35.1861 26.0075 35.1495 26.1538 35.1481 26.25C35.1467 26.3463 35.1105 26.515 35.0676 26.625C35.0246 26.735 34.9606 26.9713 34.9254 27.15C34.8901 27.3288 34.825 27.5586 34.7806 27.6609C34.7362 27.7631 34.7 27.9158 34.7 28C34.7 28.0843 34.6634 28.2369 34.6186 28.3391C34.5739 28.4414 34.5082 28.6713 34.4729 28.85C34.4375 29.0288 34.3739 29.265 34.3315 29.375C34.2891 29.485 34.2534 29.649 34.2522 29.7395C34.251 29.83 34.2079 29.9875 34.1565 30.0895C34.105 30.1915 34.0469 30.406 34.0274 30.5661C34.0079 30.7261 33.9492 30.9511 33.897 31.0661C33.8449 31.181 33.8016 31.3538 33.8007 31.45C33.8 31.5463 33.7636 31.6925 33.72 31.775C33.6764 31.8575 33.6202 32.0713 33.5952 32.25C33.5702 32.4288 33.5274 32.62 33.5 32.675C33.4726 32.73 33.4199 32.865 33.383 32.975C33.2822 33.2745 33.196 33.2985 32.225 33.2985C31.126 33.2985 30.9924 33.2038 30.8735 32.3395C30.8544 32.1998 30.7966 31.9931 30.7454 31.8803C30.6941 31.7674 30.6512 31.5963 30.65 31.5C30.6487 31.4038 30.6069 31.235 30.557 31.125C30.507 31.015 30.4506 30.8079 30.4316 30.6648C30.4126 30.5216 30.3532 30.3079 30.2996 30.1898C30.2461 30.0716 30.2017 29.9004 30.2011 29.8093C30.2005 29.7181 30.1569 29.5381 30.1042 29.4093C30.0515 29.2804 29.9951 29.064 29.9789 28.9283C29.9626 28.7925 29.9157 28.6303 29.8747 28.5676C29.8337 28.505 29.7797 28.3096 29.7547 28.1335C29.7299 27.9574 29.6766 27.7484 29.6365 27.6691C29.5964 27.5899 29.5481 27.4044 29.5294 27.257C29.5105 27.1096 29.4646 26.9409 29.4272 26.882C29.39 26.8231 29.3436 26.6536 29.3241 26.5053C29.3046 26.3569 29.2466 26.1431 29.1954 26.0303C29.1441 25.9174 29.1012 25.7463 29.1 25.65C29.0987 25.5538 29.0559 25.3826 29.0046 25.2698C28.9534 25.1569 28.895 24.9455 28.875 24.8C28.855 24.6545 28.7966 24.4431 28.7454 24.3303C28.6941 24.2174 28.6512 24.0463 28.65 23.95C28.6487 23.8538 28.6059 23.6826 28.5546 23.5698C28.5034 23.4569 28.4454 23.2431 28.4259 23.0948C28.4064 22.9464 28.3589 22.7753 28.3202 22.7144C28.2817 22.6535 28.2291 22.4551 28.2034 22.2734C28.1776 22.0918 28.1311 21.9125 28.1 21.875C28.0689 21.8375 28.0222 21.6573 27.9964 21.4745C27.9705 21.2916 27.9217 21.0933 27.888 21.0335C27.8544 20.9739 27.8039 20.835 27.7759 20.725L27.725 20.525L27.376 20.51C27.1841 20.5016 26.976 20.5078 26.9135 20.5234L26.8 20.5519V26.8173V33.0826L26.6807 33.1946C26.5104 33.3548 24.8396 33.3405 24.7209 33.178C24.6605 33.0953 24.65 31.9873 24.65 25.675C24.65 17.9565 24.6447 18.1581 24.85 18.0848C24.9931 18.0335 28.4534 18.0483 28.5509 18.1005ZM11.3825 18.2375C11.4527 18.3131 11.5536 18.4538 11.6065 18.55C11.6595 18.6463 11.8031 18.8825 11.9257 19.075C12.0484 19.2675 12.1824 19.4966 12.2236 19.5841C12.2647 19.6716 12.3216 19.7575 12.35 19.775C12.3782 19.7925 12.4467 19.8896 12.5021 19.9909C12.5575 20.0921 12.6465 20.2425 12.7 20.325C12.7535 20.4075 12.8436 20.5538 12.9002 20.65C12.957 20.7463 13.0692 20.9263 13.1499 21.05C13.2304 21.1738 13.3274 21.3425 13.3654 21.425C13.4034 21.5075 13.4717 21.6059 13.5172 21.6436C13.5627 21.6814 13.6 21.7376 13.6001 21.7686C13.6001 21.7996 13.6915 21.9566 13.8032 22.1176C13.915 22.2785 14.0279 22.4585 14.0541 22.5176C14.0805 22.5766 14.1682 22.7263 14.2492 22.85C14.3304 22.9738 14.443 23.1538 14.4997 23.25C14.5564 23.3463 14.6465 23.4925 14.7 23.575C14.7535 23.6575 14.8442 23.8038 14.9019 23.9C15.1885 24.3789 15.2127 24.4173 15.5416 24.9151L15.6672 25.1054L15.7735 24.9901C15.8319 24.9269 15.9349 24.7811 16.0022 24.6663C16.0697 24.5515 16.2101 24.3118 16.3141 24.1335C16.4181 23.9554 16.5362 23.7821 16.5766 23.7486C16.617 23.7151 16.65 23.664 16.65 23.635C16.65 23.606 16.7461 23.4344 16.8635 23.2536C16.9809 23.0729 17.099 22.8879 17.126 22.8426C17.153 22.7973 17.2481 22.6555 17.3375 22.5276C17.4269 22.3996 17.5 22.2766 17.5 22.2543C17.5 22.2319 17.5499 22.1501 17.6109 22.0726C17.6717 21.9951 17.7561 21.8703 17.7984 21.7951C17.917 21.5838 18.0929 21.2903 18.2 21.125C18.2535 21.0425 18.3424 20.8963 18.3976 20.8C18.4529 20.7038 18.5651 20.535 18.647 20.425C18.729 20.315 18.8307 20.1575 18.8731 20.075C18.9156 19.9925 19.0169 19.8238 19.0982 19.7C19.1796 19.5763 19.2774 19.4075 19.3154 19.325C19.3534 19.2425 19.4217 19.1441 19.4672 19.1064C19.5127 19.0686 19.55 19.0171 19.55 18.9919C19.55 18.9666 19.5922 18.885 19.644 18.8105C19.6956 18.736 19.8107 18.5589 19.8996 18.4169C20.1002 18.0964 20.0792 18.1015 21.2025 18.1006C22.267 18.0999 22.4197 18.1591 22.1749 18.4774C22.1335 18.531 21.9837 18.755 21.8421 18.975C21.7004 19.195 21.49 19.5213 21.3746 19.7C21.2591 19.8788 21.0495 20.205 20.9086 20.425C20.7679 20.645 20.6304 20.8588 20.6031 20.9C20.5295 21.0118 20.0826 21.7125 20.025 21.8068C19.9975 21.8516 19.896 22.0091 19.7994 22.1568C19.7029 22.3043 19.6016 22.4613 19.5744 22.5055C19.5472 22.5498 19.4816 22.651 19.4286 22.7305C19.307 22.9129 18.8754 23.5819 18.6255 23.975C18.3621 24.3895 18.182 24.6658 18.1367 24.725C18.0687 24.8141 17.8532 25.1491 17.774 25.2889C17.7316 25.3638 17.6582 25.4833 17.611 25.5545C17.2669 26.073 16.953 26.5619 16.8077 26.8059C16.7005 26.986 16.7 27.0018 16.6992 30.1309C16.6987 32.5641 16.6842 33.3033 16.6354 33.4L16.5721 33.525L15.6181 33.5385C14.7765 33.5505 14.6557 33.5423 14.5945 33.4684C14.5374 33.3995 14.5206 32.8074 14.5 30.1276C14.4757 26.9725 14.4719 26.866 14.375 26.7283C14.32 26.65 14.253 26.5498 14.226 26.5055C14.1691 26.412 13.8025 25.8219 13.71 25.675C13.6755 25.62 13.6084 25.5118 13.5611 25.4344C13.3726 25.1265 13.0742 24.6583 12.8676 24.3464C12.748 24.1656 12.65 23.9946 12.65 23.9666C12.65 23.9385 12.605 23.8748 12.55 23.825C12.495 23.7753 12.45 23.7159 12.45 23.6933C12.45 23.6705 12.3656 23.5259 12.2625 23.3718C12.1594 23.2176 12.0411 23.0316 11.9997 22.9583C11.9584 22.885 11.851 22.7164 11.7612 22.5835C11.6715 22.4508 11.565 22.2708 11.5247 22.1835C11.4844 22.0964 11.3739 21.9238 11.279 21.8C11.1842 21.6763 11.1051 21.5541 11.1034 21.5286C11.1015 21.5031 10.995 21.3231 10.8667 21.1286C10.6604 20.8155 10.5419 20.6266 10.3737 20.3426C10.347 20.2973 10.254 20.1588 10.1674 20.0348C10.0806 19.9109 9.99575 19.7653 9.97862 19.7113C9.9615 19.6574 9.903 19.573 9.84875 19.5239C9.79437 19.4748 9.75 19.4146 9.75 19.3903C9.75 19.3659 9.7085 19.285 9.65787 19.2105C9.60712 19.136 9.50237 18.9738 9.425 18.85C9.34762 18.7263 9.24037 18.5606 9.18662 18.482C9.10749 18.3663 9.09925 18.3164 9.14337 18.2195L9.19787 18.1H10.2264H11.2547L11.3825 18.2375Z" fill="#221D1A"/>
<path fill-rule="evenodd" clip-rule="evenodd" d="M9.32588 18.2985C9.29038 18.356 9.40076 18.5799 9.62051 18.8964C9.70788 19.0221 9.84301 19.2375 9.92076 19.375C9.99851 19.5125 10.1573 19.7713 10.2735 19.95C10.8264 20.8008 10.95 21 10.95 21.0406C10.95 21.0648 10.995 21.1253 11.05 21.175C11.105 21.2248 11.15 21.2885 11.15 21.3166C11.15 21.3446 11.255 21.5269 11.3833 21.7214C11.5115 21.9159 11.6654 22.1538 11.7253 22.25C11.785 22.3463 11.8768 22.4925 11.9289 22.575C11.9811 22.6575 12.0465 22.7619 12.0744 22.8069C12.2099 23.0259 12.59 23.6282 12.7108 23.8149C12.7855 23.9305 12.8926 24.1038 12.9489 24.2C13.1146 24.484 13.1689 24.5664 13.2875 24.716C13.3494 24.7939 13.4 24.8794 13.4 24.9059C13.4 24.9324 13.4418 25.015 13.4926 25.0895C13.5436 25.164 13.6864 25.3825 13.81 25.575C13.9336 25.7675 14.1361 26.0825 14.26 26.275C14.7453 27.0287 14.7 26.6283 14.7 30.163C14.7 32.5207 14.7146 33.2947 14.76 33.34C14.8363 33.4163 16.2628 33.4234 16.4033 33.3483C16.4973 33.2979 16.5 33.2105 16.5 30.2243C16.5 26.9388 16.5015 26.9178 16.7501 26.625C16.7969 26.57 16.8501 26.4913 16.8684 26.45C16.9065 26.3639 17.1019 26.0628 17.3375 25.7268C17.4269 25.5993 17.5 25.4853 17.5 25.4735C17.5 25.4617 17.5844 25.3248 17.6875 25.1693C17.7906 25.0138 17.8975 24.8514 17.925 24.8084C17.9525 24.7654 18.1195 24.504 18.296 24.2277C18.4725 23.9512 18.7628 23.5 18.9409 23.225C19.119 22.95 19.314 22.6463 19.3743 22.55C19.5521 22.2653 19.92 21.6965 20.1296 21.3818C20.2371 21.2204 20.3473 21.0516 20.3745 21.0068C20.4978 20.8036 21.317 19.5271 21.7574 18.8524C22.0023 18.4771 22.081 18.3189 22.0366 18.2908C21.928 18.2218 20.2111 18.2416 20.1511 18.3125C20.122 18.3469 19.9831 18.555 19.8425 18.775C19.7018 18.995 19.5448 19.236 19.4934 19.3105C19.442 19.385 19.4 19.4621 19.4 19.4818C19.4 19.5015 19.3023 19.6656 19.1829 19.8464C19.0634 20.0271 18.8834 20.3044 18.7829 20.4625C18.6823 20.6206 18.5213 20.8705 18.425 21.0176C18.3288 21.1649 18.25 21.3008 18.25 21.3198C18.25 21.3386 18.2083 21.415 18.1574 21.4895C18.0531 21.6419 17.6484 22.271 17.459 22.575C17.3904 22.685 17.2929 22.836 17.2421 22.9105C17.1915 22.985 17.15 23.059 17.15 23.075C17.15 23.091 17.1085 23.165 17.0579 23.2395C16.8911 23.4847 16.3695 24.3205 16.175 24.6544C15.6985 25.4724 15.6973 25.4719 14.8781 24.125C14.7443 23.905 14.5853 23.6463 14.5248 23.55C14.4643 23.4538 14.3159 23.2168 14.1949 23.0233C14.074 22.8299 13.9471 22.6274 13.913 22.5733C13.8789 22.5193 13.8051 22.3963 13.7491 22.3C13.6931 22.2038 13.5523 21.9726 13.4361 21.7864C13.32 21.6001 13.0929 21.2289 12.9313 20.9614C12.7698 20.6939 12.5354 20.3175 12.4106 20.125C12.0988 19.6441 11.983 19.4583 11.85 19.225C11.7244 19.0045 11.5693 18.7551 11.3683 18.45L11.2364 18.25H10.2961C9.74226 18.25 9.34363 18.27 9.32588 18.2985ZM24.8625 18.2828C24.8129 18.3031 24.8 19.8293 24.8 25.6783V33.0482L24.9125 33.0759C24.9744 33.0912 25.385 33.0972 25.825 33.0893L26.625 33.075L26.6374 26.8C26.6489 20.9709 26.6559 20.5205 26.7345 20.4625C26.8636 20.3671 27.721 20.3781 27.8194 20.4765C27.8996 20.5568 27.9574 20.7384 28.1764 21.6C28.2498 21.8888 28.3526 22.2616 28.4049 22.4285C28.4573 22.5955 28.5 22.7803 28.5 22.8392C28.5 22.898 28.5438 23.0653 28.5971 23.2107C28.6505 23.356 28.7173 23.5875 28.7453 23.725C28.798 23.9832 28.9423 24.5379 29.0704 24.975C29.1108 25.1125 29.2038 25.4613 29.2773 25.75C29.3506 26.0388 29.4518 26.4213 29.5019 26.6C29.647 27.1172 29.7506 27.5039 29.8235 27.8C29.8606 27.9513 29.9488 28.2888 30.0191 28.55C30.0895 28.8113 30.1818 29.16 30.2241 29.325C30.3239 29.7132 30.4821 30.2899 30.6016 30.7C30.6536 30.8788 30.7114 31.1263 30.73 31.25C30.7485 31.3738 30.7874 31.52 30.8164 31.575C30.8454 31.63 30.9083 31.8438 30.956 32.05C31.0676 32.5312 31.1513 32.8459 31.2051 32.9875C31.2474 33.0988 31.2588 33.1 32.1954 33.1C33.2083 33.1 33.3 33.0785 33.3 32.8418C33.3 32.786 33.3425 32.5908 33.3944 32.4078C33.4464 32.2248 33.549 31.8388 33.6226 31.55C33.6961 31.2613 33.79 30.9125 33.8311 30.775C33.8723 30.6375 33.9371 30.39 33.9751 30.225C34.0844 29.7519 34.1976 29.3023 34.2965 28.95C34.3466 28.7713 34.413 28.5238 34.4441 28.4C34.4753 28.2763 34.5345 28.04 34.5759 27.875C34.6173 27.71 34.6878 27.4513 34.7324 27.3C34.7771 27.1488 34.8423 26.9013 34.8771 26.75C34.9119 26.5988 34.9996 26.2613 35.072 26C35.1444 25.7388 35.2353 25.3788 35.274 25.2C35.3126 25.0213 35.3794 24.7765 35.4221 24.6563C35.465 24.5359 35.4996 24.4009 35.4993 24.3563C35.4989 24.3115 35.5435 24.1288 35.5983 23.95C35.6883 23.6569 35.771 23.3384 35.975 22.5C36.0491 22.1954 36.1584 21.7928 36.3009 21.3C36.3525 21.1213 36.4091 20.8793 36.4268 20.7623C36.4726 20.4581 36.5806 20.4 37.1 20.4C37.4063 20.4 37.5594 20.4221 37.6389 20.4779L37.75 20.5556V26.9218C37.75 32.2818 37.7609 33.2969 37.8193 33.3452C37.8665 33.3845 38.1391 33.3983 38.6818 33.3888L39.475 33.375V25.825V18.275L37.6854 18.2619C35.6706 18.2471 35.7358 18.2359 35.6511 18.6115C35.6185 18.7564 35.5505 19.01 35.5 19.175C35.4495 19.34 35.3628 19.6325 35.3073 19.825C35.2518 20.0175 35.1486 20.3663 35.078 20.6C35.0074 20.8338 34.9498 21.0475 34.95 21.075C34.9503 21.1025 34.893 21.3163 34.8228 21.55C34.7526 21.7838 34.6504 22.1325 34.5959 22.325C34.5413 22.5175 34.4531 22.8213 34.4001 23C34.3018 23.3315 34.1508 23.86 33.95 24.575C33.8883 24.795 33.7831 25.1663 33.7164 25.4C33.6498 25.6338 33.5506 25.9825 33.4963 26.175C33.4418 26.3675 33.3538 26.6713 33.3006 26.85C33.1021 27.5178 33.0399 27.734 32.9484 28.075C32.8968 28.2675 32.7959 28.6275 32.7243 28.875C32.6526 29.1225 32.5629 29.4464 32.5249 29.5947C32.425 29.9838 32.15 30.0352 32.15 29.6647C32.15 29.6239 32.1171 29.5308 32.0769 29.4578C32.0366 29.3848 31.9708 29.2013 31.9306 29.05C31.8615 28.7893 31.7435 28.4009 31.5811 27.9C31.541 27.7763 31.4479 27.4725 31.3741 27.225C31.3004 26.9775 31.2088 26.6963 31.1708 26.6C31.1326 26.5038 31.0799 26.335 31.0535 26.225C31.0273 26.115 30.9725 25.9238 30.932 25.8C30.7269 25.1742 30.6899 25.0562 30.626 24.825C30.5518 24.556 30.4434 24.2098 30.3208 23.85C30.2785 23.7263 30.2131 23.5125 30.1755 23.375C30.1015 23.1049 29.9926 22.7571 29.8704 22.4C29.8279 22.2763 29.7719 22.085 29.7459 21.975C29.7199 21.865 29.6674 21.6963 29.6294 21.6C29.5913 21.5038 29.5028 21.2338 29.4328 21C29.3628 20.7663 29.2689 20.4625 29.2241 20.325C29.1795 20.1875 29.1121 19.9625 29.0745 19.825C29.0369 19.6875 28.971 19.4738 28.9281 19.35C28.8853 19.2263 28.7871 18.9338 28.7099 18.7L28.5696 18.275L26.7474 18.2661C25.745 18.2613 24.8969 18.2688 24.8625 18.2828Z" fill="#F8CB2C"/>
<path fill-rule="evenodd" clip-rule="evenodd" d="M8.04875 17.5765C7.97125 17.6699 7.95575 17.6372 8.475 18.4708C8.705 18.84 8.89562 19.1436 9.12125 19.5C9.40362 19.9461 9.44037 20.0045 9.53887 20.1656C9.63812 20.3276 9.94312 20.8116 10.1752 21.175C10.4941 21.6745 10.7281 22.0446 10.875 22.2823C11.0799 22.6136 11.1712 22.7594 11.5656 23.3849C11.753 23.6819 11.9326 23.97 11.9646 24.025C12.0235 24.126 12.2487 24.4835 12.6577 25.125C12.7805 25.3175 12.9334 25.565 12.9975 25.675C13.1319 25.9058 13.245 26.0873 13.5585 26.575C13.6822 26.7675 13.8209 26.9861 13.8667 27.0608C13.9422 27.1839 13.95 27.5105 13.95 30.5765C13.95 32.8109 13.9675 33.9894 14.0017 34.0533C14.0666 34.1745 17.0052 34.2063 17.1649 34.0875C17.242 34.0301 17.25 33.7406 17.262 30.5978C17.2746 27.2624 17.2776 27.1668 17.375 27.0283C17.43 26.95 17.497 26.8498 17.524 26.8055C17.7325 26.4629 18.3821 25.4536 18.7297 24.9321C18.8921 24.6885 19.047 24.4523 19.074 24.4071C19.101 24.362 19.2191 24.1731 19.3365 23.9875C19.5361 23.6719 19.6707 23.4618 20.2171 22.6125C20.3366 22.4269 20.5202 22.14 20.6252 21.975C20.8434 21.6323 21.226 21.0391 21.6736 20.35C21.8434 20.0888 22.0686 19.74 22.1741 19.575C22.2797 19.41 22.4825 19.095 22.6249 18.875C23.6212 17.3344 23.7477 17.5 21.5741 17.5C19.7516 17.5 19.772 17.4964 19.5389 17.8595C19.161 18.4479 19.1 18.5496 19.1 18.5911C19.1 18.615 19.055 18.6752 19 18.725C18.945 18.7747 18.9 18.836 18.9 18.8611C18.9 18.8861 18.8437 18.9804 18.775 19.0705C18.7062 19.1607 18.65 19.2501 18.65 19.2693C18.65 19.2884 18.608 19.365 18.5565 19.4395C18.5051 19.514 18.3645 19.7333 18.244 19.9268C18.1236 20.1201 17.9971 20.3226 17.963 20.3768C17.9289 20.4308 17.8575 20.5553 17.8041 20.6534C17.7509 20.7514 17.6719 20.8611 17.6286 20.897C17.5854 20.9329 17.55 20.9828 17.55 21.0078C17.55 21.0328 17.4527 21.2044 17.3339 21.3891C16.8615 22.1231 16.8474 22.1458 16.7161 22.3841C16.6562 22.4928 16.5719 22.6111 16.5286 22.647C16.4854 22.6829 16.4495 22.7376 16.4489 22.7686C16.4474 22.8358 16.015 23.504 15.8176 23.7441L15.6785 23.9134L15.5142 23.7234C15.4239 23.6189 15.35 23.5061 15.35 23.4728C15.35 23.4395 15.3184 23.386 15.2796 23.3539C15.2409 23.3218 15.1722 23.2233 15.1271 23.1353C15.0819 23.0471 14.9794 22.8738 14.8991 22.75C14.819 22.6263 14.7074 22.4463 14.6511 22.35C14.5369 22.1544 14.513 22.116 14.2125 21.646C14.0956 21.4633 14 21.2909 14 21.263C14 21.2351 13.967 21.1849 13.9266 21.1514C13.8862 21.1179 13.7697 20.9408 13.6676 20.7578C13.5656 20.5748 13.4117 20.3238 13.3257 20.2C13.2397 20.0763 13.0927 19.84 12.999 19.675C12.9052 19.51 12.7434 19.2467 12.6392 19.0899C12.5351 18.9331 12.45 18.7917 12.45 18.7759C12.45 18.7499 12.1232 18.227 11.9026 17.9C11.8562 17.8312 11.8035 17.7352 11.7854 17.6867C11.7232 17.5196 11.5144 17.5 9.80287 17.5C8.3465 17.5 8.1035 17.5106 8.04875 17.5765ZM24.3 17.5366C24.2312 17.5492 24.1469 17.5826 24.1125 17.6109C24.023 17.6844 24.0205 33.6505 24.11 33.74C24.1541 33.7841 24.5847 33.8 25.7362 33.8H27.3025L27.3539 33.6648C27.3881 33.5746 27.4035 31.6509 27.3999 27.9023C27.3935 21.3796 27.387 22.1 27.4516 22.1C27.4799 22.1 27.5155 22.1394 27.5305 22.1875C27.5455 22.2356 27.5991 22.3763 27.6496 22.5C27.7002 22.6238 27.7769 22.8713 27.82 23.05C27.8631 23.2288 27.9231 23.4763 27.9531 23.6C27.9831 23.7238 28.051 23.9713 28.1039 24.15C28.2201 24.5428 28.3292 24.9638 28.4277 25.4C28.4681 25.5788 28.5261 25.7869 28.5566 25.8626C28.5872 25.9383 28.6411 26.1408 28.6766 26.3126C28.712 26.4844 28.7757 26.715 28.8182 26.825C28.8609 26.935 28.8966 27.085 28.8977 27.1584C28.899 27.2318 28.945 27.3968 29 27.525C29.055 27.6533 29.1 27.8113 29.1 27.876C29.1 27.9409 29.1534 28.1696 29.2185 28.3844C29.328 28.7451 29.3802 28.9388 29.5129 29.475C29.5401 29.585 29.6044 29.8213 29.6556 30C29.775 30.4163 29.8919 30.8643 29.9554 31.15C29.983 31.2738 30.0492 31.5213 30.1027 31.7C30.2254 32.1094 30.3361 32.5331 30.4295 32.95C30.4696 33.1288 30.5496 33.3935 30.6072 33.5383L30.7122 33.8014L32.2361 33.7883L33.7601 33.775L33.854 33.5275C33.9056 33.3914 33.9805 33.1214 34.0202 32.9275C34.1007 32.5354 34.214 32.1025 34.3349 31.725C34.379 31.5875 34.4442 31.34 34.4801 31.175C34.5901 30.6679 34.7011 30.2388 34.8032 29.925C34.857 29.76 34.9017 29.5688 34.9027 29.5C34.9036 29.4313 34.9391 29.285 34.9817 29.175C35.0242 29.065 35.0882 28.84 35.1241 28.675C35.1599 28.51 35.2252 28.2765 35.2695 28.1563C35.3137 28.0359 35.35 27.8841 35.35 27.8189C35.35 27.7538 35.3934 27.5709 35.4464 27.4128C35.4994 27.2545 35.5584 27.0238 35.5772 26.9C35.5962 26.7763 35.6407 26.6185 35.6761 26.5494C35.7114 26.4803 35.7562 26.3115 35.7757 26.1744C35.7951 26.0373 35.8536 25.8265 35.9055 25.7061C35.9575 25.5858 36 25.4221 36 25.3424C36 25.2628 36.0439 25.0728 36.0975 24.9201C36.1511 24.7676 36.2104 24.5376 36.2291 24.4089C36.248 24.2803 36.3024 24.0738 36.35 23.95C36.3976 23.8263 36.4531 23.6128 36.4731 23.4756C36.4932 23.3385 36.54 23.1676 36.5771 23.096C36.6141 23.0243 36.66 22.844 36.679 22.6954C36.7219 22.3585 36.7761 22.25 36.9017 22.25C36.9989 22.25 37 22.3183 37 28.0905C37 33.0535 37.0106 33.9455 37.0709 34.028C37.1512 34.138 39.9893 34.2065 40.15 34.1023C40.2396 34.0441 40.2904 17.7401 40.2014 17.6C40.1474 17.5151 35.882 17.459 35.4144 17.537C35.1852 17.5752 35.1732 17.5855 35.1344 17.776C35.112 17.8855 35.0587 18.0762 35.016 18.2C34.9732 18.3237 34.9166 18.5366 34.89 18.6731C34.8634 18.8095 34.8127 18.9782 34.7775 19.0481C34.7422 19.1179 34.698 19.265 34.6792 19.375C34.6605 19.485 34.6027 19.71 34.5507 19.875C34.2569 20.8088 34.2 21.0063 34.2 21.0933C34.2 21.1459 34.1555 21.2871 34.1011 21.407C34.0467 21.5269 34.0017 21.67 34.0014 21.725C34.0009 21.78 33.9426 22.0163 33.872 22.25C33.7276 22.7279 33.5846 23.2188 33.4495 23.7C33.3992 23.8788 33.2997 24.2163 33.2282 24.45C33.1567 24.6838 33.0986 24.9155 33.0991 24.965C33.0996 25.0145 33.069 25.1158 33.031 25.19C32.9931 25.2643 32.9466 25.4038 32.9277 25.5C32.8959 25.6634 32.7806 26.0746 32.5495 26.85C32.4962 27.0288 32.4404 27.2369 32.4254 27.3125C32.3682 27.6009 32.1009 27.3105 32.0226 26.875C32.0027 26.765 31.9559 26.6143 31.9184 26.54C31.8807 26.4658 31.8249 26.2858 31.7941 26.14C31.7635 25.9943 31.7082 25.8188 31.6715 25.75C31.6347 25.6813 31.5827 25.5238 31.556 25.4C31.5292 25.2763 31.472 25.0681 31.4287 24.9375C31.2329 24.3464 31.1897 24.2095 31.1261 23.975C31.0887 23.8375 31.0236 23.635 30.9812 23.525C30.939 23.415 30.9034 23.2844 30.9022 23.2348C30.901 23.1851 30.857 23.0501 30.8045 22.9348C30.752 22.8194 30.6922 22.6353 30.6717 22.5255C30.6511 22.4158 30.5934 22.2358 30.5432 22.1255C30.4931 22.0153 30.4517 21.8684 30.4511 21.7993C30.4505 21.7301 30.405 21.5895 30.35 21.487C30.295 21.3844 30.25 21.2679 30.25 21.2283C30.25 21.1585 30.0525 20.4804 29.9432 20.175C29.9137 20.0925 29.8492 19.89 29.8 19.725C29.7507 19.56 29.6867 19.3575 29.658 19.275C29.6291 19.1925 29.5459 18.9225 29.473 18.675C29.2731 17.9961 29.1486 17.6842 29.0385 17.5875C28.9426 17.5032 24.7279 17.458 24.3 17.5366ZM11.7269 17.7125C11.7561 17.8105 12.0134 18.2306 12.3074 18.6605C12.3582 18.735 12.4001 18.8138 12.4002 18.8355C12.4005 18.8573 12.5016 19.0213 12.625 19.2C12.7484 19.3788 12.8495 19.5496 12.8497 19.5798C12.8499 19.6099 12.8944 19.6748 12.9487 19.7239C13.003 19.773 13.0615 19.8575 13.0787 19.9118C13.1149 20.0255 13.3139 20.3399 13.4197 20.4504C13.4595 20.4919 13.5071 20.5859 13.5255 20.6593C13.5439 20.7326 13.602 20.8315 13.6545 20.8791C13.707 20.9266 13.75 20.993 13.75 21.0266C13.75 21.0603 13.785 21.1169 13.8279 21.1524C13.8707 21.188 13.9382 21.2864 13.978 21.371C14.0177 21.4558 14.1175 21.6263 14.1997 21.75C14.282 21.8738 14.3741 22.0369 14.4045 22.1125C14.4349 22.1881 14.4797 22.25 14.5042 22.25C14.5286 22.25 14.5827 22.3231 14.6245 22.4125C14.6661 22.5019 14.7669 22.6763 14.8482 22.8C14.9296 22.9238 15.0297 23.0981 15.0706 23.1875C15.1115 23.2769 15.1664 23.35 15.1925 23.35C15.2187 23.35 15.2636 23.417 15.2921 23.499C15.3541 23.6769 15.6031 24 15.6782 24C15.7445 24 16.05 23.66 16.05 23.5864C16.05 23.5566 16.1461 23.3844 16.2635 23.2036C16.3809 23.0229 16.499 22.8379 16.526 22.7926C16.553 22.7473 16.646 22.6088 16.7326 22.4848C16.8194 22.3609 16.9042 22.2153 16.9214 22.1613C16.9385 22.1074 16.997 22.023 17.0512 21.9739C17.1056 21.9248 17.1501 21.8599 17.1502 21.8298C17.1505 21.7996 17.2516 21.6288 17.375 21.45C17.4984 21.2713 17.5995 21.0996 17.5997 21.0686C17.5999 21.0376 17.6354 20.9829 17.6786 20.947C17.7219 20.9111 17.8062 20.7928 17.8661 20.6841C18.0422 20.3644 18.0794 20.3056 18.167 20.2089C18.2126 20.1584 18.25 20.0964 18.2501 20.0711C18.2501 20.0458 18.3396 19.8961 18.4489 19.7386C18.5582 19.5811 18.6816 19.3786 18.7231 19.2886C18.7646 19.1986 18.8761 19.0237 18.971 18.9C19.0657 18.7762 19.1449 18.6486 19.1466 18.6164C19.1485 18.5841 19.2062 18.4909 19.275 18.4091C19.3437 18.3274 19.4 18.2402 19.4 18.2155C19.4 18.1906 19.4339 18.1264 19.4751 18.0726C19.5165 18.019 19.6017 17.8962 19.6646 17.8L19.779 17.625L21.4987 17.6119C23.3172 17.5979 23.4036 17.6081 23.2094 17.815C23.1492 17.8791 23.1 17.9501 23.1 17.973C23.1 17.9959 23.0176 18.1407 22.917 18.2949C22.8162 18.4489 22.6177 18.755 22.4757 18.975C22.3339 19.195 22.1744 19.44 22.1214 19.5195C22.0684 19.599 22.0025 19.7 21.975 19.744C21.9475 19.788 21.7281 20.1255 21.4875 20.494C21.2469 20.8624 21.05 21.1934 21.05 21.2295C21.05 21.2655 21.0217 21.313 20.9874 21.335C20.9052 21.3874 20.65 21.765 20.65 21.8341C20.65 21.8636 20.6146 21.9171 20.5714 21.953C20.5281 21.9889 20.4487 22.0986 20.3949 22.1966C20.3411 22.2948 20.2585 22.4335 20.2111 22.505C19.9776 22.8578 19.9172 22.9504 19.7086 23.275C19.585 23.4675 19.3975 23.7551 19.292 23.9141C19.1864 24.073 19.1 24.2249 19.1 24.2516C19.1 24.2783 19.0562 24.3438 19.0026 24.3974C18.9491 24.4509 18.8696 24.5578 18.8261 24.6349C18.7826 24.7119 18.7082 24.8335 18.661 24.905C18.6137 24.9766 18.5324 25.1004 18.4804 25.18C18.4282 25.2598 18.3439 25.386 18.2929 25.4605C18.2417 25.535 18.2 25.6105 18.2 25.6283C18.2 25.646 18.1437 25.7274 18.075 25.8091C18.0062 25.8909 17.95 25.9863 17.95 26.0211C17.95 26.056 17.905 26.1253 17.85 26.175C17.795 26.2248 17.75 26.2869 17.75 26.313C17.75 26.3391 17.6937 26.4274 17.625 26.5091C17.5562 26.5909 17.5 26.687 17.5 26.7228C17.5 26.7585 17.4677 26.8145 17.4282 26.8473C17.145 27.0824 17.15 27.0148 17.15 30.6204C17.15 33.3044 17.1374 33.9483 17.0841 33.9925C17.0132 34.0513 14.1922 34.082 14.1 34.025C14.0675 34.0049 14.05 32.8146 14.05 30.6213V27.2485L13.8975 26.9783C13.8136 26.8298 13.7124 26.681 13.6725 26.648C13.6326 26.6149 13.6 26.5648 13.6 26.5365C13.6 26.4744 13.2672 25.9665 13.1987 25.9243C13.172 25.9076 13.15 25.8608 13.15 25.82C13.15 25.7793 13.1082 25.685 13.0574 25.6105C13.0064 25.536 12.8636 25.3175 12.7402 25.125C12.2176 24.3103 12.1452 24.2029 12.0987 24.1743C12.072 24.1576 12.05 24.1078 12.05 24.0633C12.05 24.0188 11.9522 23.8344 11.8326 23.6536C11.3552 22.9318 11.15 22.6009 11.15 22.5534C11.15 22.526 11.1076 22.4809 11.0557 22.4531C11.0039 22.4254 10.9474 22.3466 10.9302 22.278C10.913 22.2095 10.8261 22.0491 10.737 21.9216C10.6479 21.7941 10.553 21.6528 10.526 21.6074C10.499 21.5621 10.3772 21.3675 10.2552 21.175C10.1334 20.9825 9.9775 20.735 9.909 20.625C9.84037 20.515 9.74287 20.364 9.69212 20.2895C9.6415 20.215 9.6 20.1341 9.6 20.1098C9.6 20.0854 9.555 20.0248 9.5 19.975C9.445 19.9253 9.39962 19.8599 9.39912 19.8298C9.39862 19.7996 9.33075 19.6737 9.24837 19.55C9.166 19.4262 9.07675 19.2912 9.05 19.25C9.02325 19.2087 8.934 19.0738 8.85162 18.95C8.76925 18.8263 8.70137 18.7004 8.70087 18.6702C8.70037 18.6401 8.655 18.5747 8.6 18.525C8.545 18.4752 8.5 18.4077 8.5 18.375C8.5 18.3422 8.455 18.2747 8.4 18.225C8.345 18.1752 8.3 18.1086 8.3 18.077C8.3 18.0454 8.2445 17.9442 8.17662 17.8522C7.98975 17.5989 7.98175 17.6 9.89962 17.6H11.6932L11.7269 17.7125ZM29.0817 17.7375C29.1002 17.8131 29.1569 17.9534 29.2076 18.0492C29.2585 18.1451 29.3005 18.2801 29.3011 18.3493C29.3017 18.4184 29.3442 18.5675 29.3955 18.6805C29.4469 18.7935 29.5055 18.9846 29.5259 19.1052C29.5462 19.2259 29.605 19.403 29.6565 19.499C29.7079 19.595 29.75 19.731 29.75 19.8011C29.75 19.8714 29.7924 20.012 29.8442 20.1136C29.896 20.2153 29.9532 20.3971 29.9712 20.5178C29.9894 20.6384 30.0482 20.8235 30.1021 20.9291C30.156 21.0348 30.2 21.1869 30.2 21.2671C30.2 21.3475 30.2421 21.4834 30.2936 21.5691C30.3451 21.6549 30.4011 21.8178 30.4182 21.931C30.4352 22.0444 30.4939 22.2356 30.5485 22.356C30.6031 22.4765 30.6482 22.6399 30.6489 22.7191C30.6495 22.7984 30.6921 22.9334 30.7436 23.0191C30.7951 23.1049 30.8517 23.2715 30.8695 23.3894C30.8872 23.5073 30.9464 23.6869 31.0009 23.7886C31.0554 23.8903 31.1 24.0366 31.1 24.1138C31.1 24.1909 31.145 24.3423 31.2 24.45C31.255 24.5578 31.3 24.7091 31.3 24.7863C31.3 24.8634 31.3431 25.0069 31.3957 25.105C31.4484 25.2033 31.5079 25.3934 31.528 25.5276C31.5481 25.6618 31.6062 25.8399 31.6571 25.9233C31.708 26.0068 31.7497 26.1434 31.7499 26.2269C31.7499 26.3105 31.7924 26.462 31.8442 26.5636C31.896 26.6653 31.9541 26.8534 31.9734 26.9816C32.0616 27.5698 32.5 27.8058 32.5 27.265C32.5 27.1873 32.5415 27.0451 32.5924 26.9493C32.6431 26.8534 32.6995 26.664 32.7176 26.5283C32.7357 26.3925 32.7834 26.2315 32.8235 26.1703C32.8636 26.1091 32.9177 25.9276 32.944 25.767C32.9701 25.6064 33.0271 25.4075 33.0705 25.325C33.1139 25.2425 33.1495 25.0959 33.1497 24.9993C33.1499 24.9026 33.1932 24.7429 33.2461 24.6443C33.2989 24.5456 33.3655 24.3384 33.3941 24.1838C33.4227 24.029 33.4807 23.8355 33.5231 23.7538C33.5654 23.6719 33.6 23.5221 33.6 23.4209C33.6 23.3196 33.6424 23.1666 33.6941 23.0809C33.7459 22.9951 33.8036 22.8173 33.8225 22.6854C33.8414 22.5536 33.8997 22.3511 33.9522 22.2354C34.0049 22.1198 34.0482 21.951 34.0489 21.8605C34.0495 21.77 34.0917 21.6125 34.1429 21.5105C34.194 21.4085 34.2504 21.214 34.2682 21.0783C34.286 20.9425 34.3354 20.7784 34.3779 20.7135C34.4205 20.6486 34.4682 20.4784 34.484 20.3353C34.4999 20.1921 34.555 20.0049 34.6064 19.9191C34.6579 19.8334 34.7 19.6863 34.7 19.5921C34.7 19.4981 34.7447 19.3333 34.7996 19.2259C34.8544 19.1184 34.9139 18.9167 34.932 18.7777C34.9501 18.6387 35.0065 18.4466 35.0575 18.3507C35.1084 18.2549 35.15 18.0902 35.15 17.985C35.15 17.569 34.945 17.6 37.6964 17.6C39.8779 17.6 40.1425 17.6085 40.1696 17.6791C40.2175 17.8039 40.2035 33.8671 40.1554 33.9429C40.1101 34.0145 37.2626 34.0446 37.1495 33.9746C37.1144 33.953 37.0989 32.0213 37.1012 27.9386C37.1031 24.6365 37.0865 21.9165 37.0644 21.8944C36.9486 21.7786 36.6502 22.2073 36.6489 22.4914C36.6482 22.6199 36.6015 22.8263 36.5447 22.95C36.4881 23.0738 36.4295 23.2988 36.4146 23.45C36.3996 23.6013 36.348 23.7925 36.3 23.875C36.252 23.9575 36.2004 24.1524 36.1854 24.308C36.1704 24.4638 36.124 24.6438 36.0824 24.708C36.0406 24.7724 35.9911 24.9713 35.9722 25.15C35.9532 25.3288 35.8956 25.5451 35.8439 25.6309C35.7922 25.7166 35.75 25.8693 35.75 25.97C35.75 26.0708 35.7134 26.2369 35.6686 26.3391C35.6239 26.4414 35.5582 26.6713 35.5229 26.85C35.4875 27.0288 35.4239 27.265 35.3815 27.375C35.3391 27.485 35.3034 27.6493 35.3022 27.74C35.301 27.8308 35.2641 27.9744 35.2202 28.0591C35.1765 28.1439 35.1209 28.3509 35.0969 28.5191C35.0727 28.6874 35.0074 28.9141 34.9515 29.0231C34.8957 29.132 34.8499 29.312 34.8497 29.4231C34.8495 29.5341 34.8136 29.6925 34.77 29.775C34.7264 29.8575 34.6702 30.0665 34.6452 30.2394C34.6204 30.4123 34.568 30.6035 34.529 30.6644C34.49 30.7253 34.4421 30.91 34.4226 31.075C34.4031 31.24 34.345 31.4585 34.2935 31.5605C34.2421 31.6625 34.2 31.8271 34.2 31.9263C34.2 32.0254 34.1556 32.2119 34.1012 32.3408C34.047 32.4696 33.9804 32.7179 33.9532 32.8925C33.9261 33.0671 33.881 33.2376 33.853 33.2714C33.825 33.3053 33.7836 33.4211 33.7612 33.5289L33.7205 33.725H32.2247H30.7291L30.6982 33.575C30.6812 33.4925 30.6395 33.3731 30.6055 33.3098C30.5714 33.2464 30.5215 33.0578 30.4946 32.8906C30.4677 32.7234 30.4117 32.521 30.3701 32.4406C30.3286 32.3604 30.2817 32.1778 30.2659 32.0348C30.2501 31.8919 30.195 31.7049 30.1436 31.6191C30.0909 31.5313 30.0495 31.3675 30.0489 31.2441C30.0482 31.1236 30.0039 30.9284 29.9504 30.8103C29.8967 30.6921 29.8379 30.4828 29.8196 30.3449C29.8014 30.2071 29.7445 30.0121 29.6932 29.9116C29.6419 29.8111 29.5995 29.638 29.5989 29.5269C29.5982 29.4159 29.5559 29.2326 29.5046 29.1198C29.4534 29.0069 29.3947 28.7936 29.3745 28.646C29.3541 28.4983 29.3051 28.328 29.2655 28.2676C29.226 28.2071 29.1809 28.0266 29.1655 27.8664C29.15 27.7061 29.0981 27.5075 29.0501 27.425C29.0021 27.3425 28.9499 27.1581 28.9341 27.0153C28.9182 26.8723 28.87 26.687 28.8269 26.6035C28.7836 26.52 28.7355 26.3445 28.72 26.2134C28.7044 26.0823 28.6509 25.8738 28.6011 25.75C28.5512 25.6263 28.4941 25.4018 28.474 25.2513C28.454 25.1006 28.4059 24.9291 28.3671 24.87C28.3285 24.811 28.2834 24.6416 28.267 24.4939C28.2506 24.346 28.195 24.1549 28.1436 24.0691C28.0921 23.9834 28.049 23.8259 28.0477 23.7191C28.0466 23.6124 28.0109 23.435 27.9685 23.325C27.9261 23.215 27.8627 22.9788 27.8276 22.8C27.7925 22.6213 27.7271 22.4075 27.6822 22.325C27.6374 22.2425 27.6005 22.1399 27.6002 22.097C27.5997 21.9611 27.4836 21.8464 27.4 21.8991C27.3342 21.9405 27.3219 22.6734 27.3 27.8356L27.275 33.725L25.825 33.739C25.0275 33.7468 24.3244 33.7406 24.2625 33.7255L24.15 33.6981V25.6783C24.15 19.3091 24.1629 17.6531 24.2125 17.6331C24.2469 17.6192 25.349 17.6061 26.6615 17.604L29.0481 17.6L29.0817 17.7375ZM24.85 18.0847C24.6447 18.1581 24.65 17.9565 24.65 25.675C24.65 31.9873 24.6605 33.0953 24.7209 33.178C24.8396 33.3405 26.5104 33.3548 26.6807 33.1946L26.8 33.0826V26.8173V20.5519L26.9135 20.5234C26.976 20.5078 27.1841 20.5016 27.376 20.51L27.725 20.525L27.7759 20.725C27.8039 20.835 27.8544 20.9739 27.888 21.0335C27.9217 21.0933 27.9705 21.2916 27.9964 21.4745C28.0222 21.6573 28.0689 21.8375 28.1 21.875C28.1311 21.9125 28.1776 22.0918 28.2034 22.2734C28.2291 22.4551 28.2817 22.6535 28.3202 22.7144C28.3589 22.7753 28.4064 22.9464 28.4259 23.0948C28.4454 23.2431 28.5034 23.4569 28.5546 23.5698C28.6059 23.6826 28.6487 23.8538 28.65 23.95C28.6512 24.0463 28.6941 24.2174 28.7454 24.3303C28.7966 24.4431 28.855 24.6545 28.875 24.8C28.895 24.9455 28.9534 25.1569 29.0046 25.2698C29.0559 25.3826 29.0987 25.5538 29.1 25.65C29.1012 25.7463 29.1441 25.9174 29.1954 26.0303C29.2466 26.1431 29.3046 26.3569 29.3241 26.5053C29.3436 26.6536 29.39 26.8231 29.4272 26.882C29.4646 26.9409 29.5105 27.1096 29.5294 27.257C29.5481 27.4044 29.5964 27.5899 29.6365 27.6691C29.6766 27.7484 29.7299 27.9574 29.7547 28.1335C29.7797 28.3096 29.8337 28.505 29.8747 28.5676C29.9157 28.6303 29.9626 28.7925 29.9789 28.9283C29.9951 29.064 30.0515 29.2804 30.1042 29.4093C30.1569 29.5381 30.2005 29.7181 30.2011 29.8093C30.2017 29.9004 30.2461 30.0716 30.2996 30.1898C30.3532 30.3079 30.4126 30.5216 30.4316 30.6648C30.4506 30.8079 30.507 31.015 30.557 31.125C30.6069 31.235 30.6487 31.4038 30.65 31.5C30.6512 31.5963 30.6941 31.7674 30.7454 31.8803C30.7966 31.9931 30.8544 32.1998 30.8735 32.3395C30.9924 33.2038 31.126 33.2985 32.225 33.2985C33.196 33.2985 33.2822 33.2745 33.383 32.975C33.4199 32.865 33.4726 32.73 33.5 32.675C33.5274 32.62 33.5702 32.4288 33.5952 32.25C33.6202 32.0713 33.6764 31.8575 33.72 31.775C33.7636 31.6925 33.8 31.5463 33.8007 31.45C33.8016 31.3538 33.8449 31.181 33.897 31.0661C33.9492 30.9511 34.0079 30.7261 34.0274 30.5661C34.0469 30.406 34.105 30.1915 34.1565 30.0895C34.2079 29.9875 34.251 29.83 34.2522 29.7395C34.2534 29.649 34.2891 29.485 34.3315 29.375C34.3739 29.265 34.4375 29.0288 34.4729 28.85C34.5082 28.6713 34.5739 28.4414 34.6186 28.3391C34.6634 28.2369 34.7 28.0843 34.7 28C34.7 27.9158 34.7362 27.7631 34.7806 27.6609C34.825 27.5586 34.8901 27.3288 34.9254 27.15C34.9606 26.9713 35.0246 26.735 35.0676 26.625C35.1105 26.515 35.1467 26.3463 35.1481 26.25C35.1495 26.1538 35.1861 26.0075 35.2295 25.925C35.2729 25.8425 35.3304 25.64 35.3571 25.475C35.3839 25.31 35.4385 25.1091 35.4785 25.0286C35.5185 24.9481 35.5654 24.7569 35.5826 24.6036C35.5999 24.4504 35.6559 24.2415 35.707 24.1395C35.7581 24.0375 35.8 23.8961 35.8 23.8254C35.8 23.7548 35.8436 23.5675 35.8969 23.4095C35.95 23.2514 36.0096 22.999 36.0292 22.8485C36.0489 22.6981 36.1065 22.4966 36.1575 22.4008C36.2084 22.3049 36.2505 22.1474 36.2511 22.0508C36.2517 21.9541 36.2931 21.785 36.343 21.675C36.393 21.565 36.4502 21.3513 36.4702 21.2C36.4902 21.0488 36.5492 20.8285 36.6014 20.7105L36.6962 20.4959L37.1106 20.5105L37.525 20.525L37.55 26.985C37.5665 31.2555 37.5922 33.4623 37.6257 33.4958C37.6992 33.5693 39.4954 33.5746 39.5685 33.5015C39.6557 33.4143 39.6726 18.3713 39.5856 18.2L39.5221 18.075L37.7097 18.0619C35.5224 18.046 35.6167 18.0239 35.5256 18.575C35.5075 18.685 35.4639 18.82 35.4286 18.875C35.3935 18.93 35.3486 19.0827 35.329 19.2146C35.3094 19.3464 35.2502 19.5489 35.1977 19.6646C35.1451 19.7803 35.1012 19.9425 35.1 20.025C35.0987 20.1075 35.0566 20.2658 35.0062 20.3766C34.9559 20.4875 34.8981 20.6881 34.878 20.8224C34.8579 20.9565 34.7984 21.1468 34.7457 21.245C34.6931 21.3431 34.6495 21.4914 34.6489 21.5743C34.6482 21.6571 34.6069 21.815 34.557 21.925C34.507 22.035 34.4511 22.2388 34.4326 22.3778C34.4142 22.5168 34.3544 22.7184 34.2996 22.8259C34.2447 22.9333 34.2 23.0848 34.2 23.1626C34.2 23.2404 34.1581 23.3875 34.1071 23.4895C34.056 23.5915 34.0009 23.7921 33.9847 23.9353C33.9685 24.0784 33.9205 24.2486 33.8779 24.3135C33.8354 24.3784 33.786 24.5425 33.7682 24.6783C33.7504 24.814 33.694 25.0085 33.6429 25.1105C33.5917 25.2125 33.55 25.3709 33.55 25.4624C33.55 25.554 33.506 25.7153 33.4521 25.8209C33.3982 25.9265 33.3392 26.1169 33.321 26.244C33.3027 26.371 33.2455 26.5694 33.1939 26.6848C33.1422 26.8001 33.1 26.9641 33.1 27.0493C33.1 27.1344 33.0571 27.288 33.0047 27.3906C32.9524 27.4934 32.8929 27.6894 32.8726 27.8261C32.8524 27.963 32.794 28.1534 32.7429 28.2493C32.6917 28.3451 32.65 28.4983 32.65 28.5895C32.65 28.6808 32.6075 28.8499 32.5555 28.9653C32.5035 29.0806 32.4451 29.2931 32.4259 29.4375C32.4065 29.5818 32.3732 29.7106 32.3519 29.7238C32.3085 29.7506 32.1302 29.2688 32.0286 28.85C31.9919 28.6988 31.9254 28.4914 31.8809 28.3891C31.8364 28.2869 31.8 28.1566 31.8 28.0996C31.8 28.0426 31.7581 27.9125 31.707 27.8105C31.6559 27.7085 31.5999 27.5323 31.5825 27.419C31.5651 27.3056 31.5061 27.1144 31.4515 26.994C31.3969 26.8735 31.3517 26.7235 31.3511 26.6605C31.3505 26.5975 31.305 26.4578 31.25 26.35C31.195 26.2423 31.15 26.0909 31.15 26.0138C31.15 25.9366 31.1054 25.7903 31.0509 25.6886C30.9964 25.5869 30.9367 25.4073 30.9182 25.2894C30.8999 25.1715 30.8432 24.9966 30.7924 24.9008C30.7416 24.8049 30.7 24.6634 30.7 24.5863C30.7 24.5091 30.6577 24.3625 30.606 24.2605C30.5542 24.1585 30.4951 23.9739 30.4745 23.8503C30.4539 23.7266 30.395 23.547 30.3435 23.451C30.2921 23.355 30.25 23.2134 30.25 23.1363C30.25 23.0591 30.2077 22.9125 30.156 22.8105C30.1042 22.7085 30.0459 22.5238 30.0261 22.4C30.0065 22.2763 29.9594 22.126 29.9214 22.066C29.8834 22.0061 29.8379 21.8599 29.8202 21.741C29.8026 21.6223 29.7565 21.4743 29.7177 21.4123C29.679 21.3501 29.6251 21.1814 29.598 21.0373C29.5709 20.893 29.5136 20.7008 29.4707 20.61C29.4279 20.5191 29.3797 20.3616 29.3637 20.26C29.3477 20.1583 29.2931 19.9966 29.2422 19.9007C29.1915 19.8049 29.1495 19.6699 29.1489 19.6008C29.1482 19.5316 29.1031 19.3765 29.0485 19.256C28.9939 19.1356 28.9342 18.9444 28.9162 18.831C28.8741 18.5679 28.6731 18.1659 28.5509 18.1005C28.4534 18.0482 24.9931 18.0335 24.85 18.0847ZM9.14337 18.2195C9.09925 18.3164 9.1075 18.3662 9.18662 18.482C9.24037 18.5606 9.34762 18.7262 9.425 18.85C9.50237 18.9738 9.60712 19.136 9.65787 19.2105C9.7085 19.285 9.75 19.3659 9.75 19.3902C9.75 19.4146 9.79437 19.4747 9.84875 19.5239C9.903 19.573 9.9615 19.6574 9.97862 19.7113C9.99575 19.7653 10.0806 19.9109 10.1674 20.0348C10.254 20.1588 10.347 20.2973 10.3737 20.3426C10.5419 20.6266 10.6604 20.8155 10.8667 21.1286C10.995 21.3231 11.1015 21.5031 11.1034 21.5286C11.1051 21.5541 11.1842 21.6763 11.279 21.8C11.3739 21.9238 11.4844 22.0964 11.5247 22.1835C11.565 22.2708 11.6715 22.4508 11.7612 22.5835C11.851 22.7164 11.9584 22.885 11.9997 22.9583C12.0411 23.0316 12.1594 23.2176 12.2625 23.3718C12.3656 23.5259 12.45 23.6705 12.45 23.6933C12.45 23.7159 12.495 23.7753 12.55 23.825C12.605 23.8748 12.65 23.9385 12.65 23.9666C12.65 23.9946 12.748 24.1656 12.8676 24.3464C13.0742 24.6583 13.3726 25.1265 13.5611 25.4344C13.6084 25.5118 13.6755 25.62 13.71 25.675C13.8025 25.8219 14.1691 26.412 14.226 26.5055C14.253 26.5498 14.32 26.65 14.375 26.7283C14.4719 26.866 14.4757 26.9725 14.5 30.1276C14.5206 32.8074 14.5374 33.3995 14.5945 33.4684C14.6557 33.5423 14.7765 33.5505 15.6181 33.5385L16.5721 33.525L16.6354 33.4C16.6842 33.3033 16.6987 32.5641 16.6992 30.1309C16.7 27.0018 16.7005 26.986 16.8077 26.8059C16.953 26.5619 17.2669 26.073 17.611 25.5545C17.6582 25.4833 17.7316 25.3638 17.774 25.2889C17.8532 25.1491 18.0687 24.8141 18.1367 24.725C18.182 24.6658 18.3621 24.3895 18.6255 23.975C18.8754 23.5819 19.307 22.9129 19.4286 22.7305C19.4816 22.651 19.5472 22.5498 19.5744 22.5055C19.6016 22.4613 19.7029 22.3043 19.7994 22.1568C19.896 22.0091 19.9975 21.8516 20.025 21.8068C20.0826 21.7125 20.5295 21.0118 20.6031 20.9C20.6304 20.8588 20.7679 20.645 20.9086 20.425C21.0495 20.205 21.2591 19.8788 21.3746 19.7C21.49 19.5213 21.7004 19.195 21.8421 18.975C21.9837 18.755 22.1335 18.531 22.1749 18.4774C22.4197 18.1591 22.267 18.0999 21.2025 18.1006C20.0792 18.1015 20.1002 18.0964 19.8996 18.4169C19.8107 18.5589 19.6956 18.736 19.644 18.8105C19.5922 18.885 19.55 18.9666 19.55 18.9919C19.55 19.0171 19.5127 19.0686 19.4672 19.1064C19.4217 19.1441 19.3534 19.2425 19.3154 19.325C19.2774 19.4075 19.1796 19.5763 19.0982 19.7C19.0169 19.8238 18.9156 19.9925 18.8731 20.075C18.8307 20.1575 18.729 20.315 18.647 20.425C18.5651 20.535 18.4529 20.7038 18.3976 20.8C18.3424 20.8963 18.2535 21.0425 18.2 21.125C18.0929 21.2903 17.917 21.5838 17.7984 21.7951C17.7561 21.8703 17.6717 21.9951 17.6109 22.0726C17.5499 22.1501 17.5 22.2319 17.5 22.2543C17.5 22.2766 17.4269 22.3996 17.3375 22.5276C17.2481 22.6555 17.153 22.7973 17.126 22.8426C17.099 22.8879 16.9809 23.0729 16.8635 23.2536C16.7461 23.4344 16.65 23.606 16.65 23.635C16.65 23.664 16.617 23.7151 16.5766 23.7486C16.5362 23.7821 16.4181 23.9554 16.3141 24.1335C16.2101 24.3118 16.0697 24.5515 16.0022 24.6663C15.9349 24.7811 15.8319 24.9269 15.7735 24.9901L15.6672 25.1054L15.5416 24.9151C15.2127 24.4173 15.1885 24.3789 14.9019 23.9C14.8442 23.8038 14.7535 23.6575 14.7 23.575C14.6465 23.4925 14.5564 23.3463 14.4997 23.25C14.443 23.1538 14.3304 22.9738 14.2492 22.85C14.1682 22.7263 14.0805 22.5766 14.0541 22.5176C14.0279 22.4585 13.915 22.2785 13.8032 22.1176C13.6915 21.9566 13.6001 21.7996 13.6001 21.7686C13.6 21.7376 13.5627 21.6814 13.5172 21.6436C13.4717 21.6059 13.4034 21.5075 13.3654 21.425C13.3274 21.3425 13.2304 21.1738 13.1499 21.05C13.0692 20.9263 12.957 20.7463 12.9002 20.65C12.8436 20.5538 12.7535 20.4075 12.7 20.325C12.6465 20.2425 12.5575 20.0921 12.5021 19.9909C12.4467 19.8896 12.3782 19.7925 12.35 19.775C12.3216 19.7575 12.2647 19.6716 12.2236 19.5841C12.1824 19.4966 12.0484 19.2675 11.9257 19.075C11.8031 18.8825 11.6595 18.6462 11.6065 18.55C11.5536 18.4537 11.4527 18.3131 11.3825 18.2375L11.2547 18.1H10.2264H9.19787L9.14337 18.2195ZM11.3682 18.45C11.5692 18.7551 11.7244 19.0045 11.85 19.225C11.983 19.4583 12.0987 19.6441 12.4106 20.125C12.5354 20.3175 12.7697 20.6939 12.9312 20.9614C13.0929 21.2289 13.32 21.6001 13.4361 21.7864C13.5522 21.9726 13.6931 22.2038 13.7491 22.3C13.8051 22.3963 13.8789 22.5193 13.913 22.5733C13.9471 22.6274 14.074 22.8299 14.1949 23.0233C14.3159 23.2168 14.4642 23.4538 14.5247 23.55C14.5852 23.6463 14.7442 23.905 14.8781 24.125C15.6972 25.4719 15.6985 25.4724 16.175 24.6544C16.3695 24.3205 16.8911 23.4846 17.0579 23.2395C17.1085 23.165 17.15 23.091 17.15 23.075C17.15 23.059 17.1915 22.985 17.2421 22.9105C17.2929 22.836 17.3904 22.685 17.459 22.575C17.6484 22.271 18.0531 21.6419 18.1574 21.4895C18.2082 21.415 18.25 21.3386 18.25 21.3198C18.25 21.3008 18.3287 21.1649 18.425 21.0176C18.5212 20.8705 18.6822 20.6206 18.7829 20.4625C18.8834 20.3044 19.0634 20.0271 19.1829 19.8464C19.3022 19.6656 19.4 19.5015 19.4 19.4818C19.4 19.4621 19.442 19.385 19.4934 19.3105C19.5447 19.236 19.7017 18.995 19.8425 18.775C19.9831 18.555 20.122 18.3469 20.1511 18.3125C20.2111 18.2416 21.928 18.2217 22.0366 18.2907C22.081 18.3189 22.0022 18.4771 21.7574 18.8524C21.317 19.5271 20.4977 20.8036 20.3745 21.0068C20.3472 21.0516 20.2371 21.2204 20.1296 21.3818C19.92 21.6965 19.5521 22.2653 19.3742 22.55C19.314 22.6463 19.119 22.95 18.9409 23.225C18.7627 23.5 18.4725 23.9511 18.296 24.2276C18.1195 24.504 17.9525 24.7654 17.925 24.8084C17.8975 24.8514 17.7906 25.0138 17.6875 25.1693C17.5844 25.3248 17.5 25.4616 17.5 25.4735C17.5 25.4853 17.4269 25.5993 17.3375 25.7268C17.1019 26.0628 16.9065 26.3639 16.8684 26.45C16.8501 26.4913 16.7969 26.57 16.7501 26.625C16.5015 26.9178 16.5 26.9388 16.5 30.2243C16.5 33.2105 16.4972 33.2979 16.4032 33.3483C16.2627 33.4234 14.8362 33.4163 14.76 33.34C14.7146 33.2946 14.7 32.5206 14.7 30.163C14.7 26.6283 14.7452 27.0286 14.26 26.275C14.1361 26.0825 13.9336 25.7675 13.81 25.575C13.6864 25.3825 13.5436 25.164 13.4926 25.0895C13.4417 25.015 13.4 24.9324 13.4 24.9059C13.4 24.8794 13.3494 24.7939 13.2875 24.716C13.1689 24.5664 13.1146 24.484 12.9489 24.2C12.8926 24.1038 12.7855 23.9305 12.7107 23.8149C12.59 23.6281 12.2099 23.0259 12.0744 22.8069C12.0465 22.7619 11.9811 22.6575 11.9289 22.575C11.8767 22.4925 11.785 22.3463 11.7252 22.25C11.6654 22.1538 11.5115 21.9159 11.3832 21.7214C11.255 21.5269 11.15 21.3446 11.15 21.3166C11.15 21.2885 11.105 21.2248 11.05 21.175C10.995 21.1253 10.95 21.0648 10.95 21.0406C10.95 21 10.8264 20.8008 10.2735 19.95C10.1572 19.7713 9.9985 19.5125 9.92075 19.375C9.843 19.2375 9.70787 19.0221 9.6205 18.8964C9.16512 18.2406 9.15525 18.25 10.2961 18.25H11.2364L11.3682 18.45ZM28.7099 18.7C28.7871 18.9338 28.8852 19.2263 28.9281 19.35C28.971 19.4738 29.0369 19.6875 29.0745 19.825C29.1121 19.9625 29.1795 20.1875 29.2241 20.325C29.2689 20.4625 29.3627 20.7663 29.4327 21C29.5027 21.2338 29.5912 21.5038 29.6294 21.6C29.6674 21.6963 29.7199 21.865 29.7459 21.975C29.7719 22.085 29.8279 22.2763 29.8704 22.4C29.9926 22.7571 30.1015 23.1049 30.1755 23.375C30.2131 23.5125 30.2785 23.7263 30.3207 23.85C30.4434 24.2098 30.5517 24.556 30.626 24.825C30.6899 25.0561 30.7269 25.1741 30.932 25.8C30.9725 25.9238 31.0272 26.115 31.0535 26.225C31.0799 26.335 31.1326 26.5038 31.1707 26.6C31.2087 26.6963 31.3004 26.9775 31.3741 27.225C31.4479 27.4725 31.541 27.7763 31.5811 27.9C31.7435 28.4009 31.8615 28.7893 31.9306 29.05C31.9707 29.2013 32.0366 29.3848 32.0769 29.4578C32.1171 29.5308 32.15 29.6239 32.15 29.6646C32.15 30.0351 32.425 29.9838 32.5249 29.5946C32.5629 29.4464 32.6526 29.1225 32.7242 28.875C32.7959 28.6275 32.8967 28.2675 32.9484 28.075C33.0399 27.734 33.1021 27.5178 33.3006 26.85C33.3537 26.6713 33.4417 26.3675 33.4962 26.175C33.5506 25.9825 33.6497 25.6338 33.7164 25.4C33.7831 25.1663 33.8882 24.795 33.95 24.575C34.1507 23.86 34.3017 23.3315 34.4001 23C34.4531 22.8213 34.5412 22.5175 34.5959 22.325C34.6504 22.1325 34.7526 21.7838 34.8227 21.55C34.893 21.3163 34.9502 21.1025 34.95 21.075C34.9497 21.0475 35.0074 20.8338 35.078 20.6C35.1486 20.3663 35.2517 20.0175 35.3072 19.825C35.3627 19.6325 35.4495 19.34 35.5 19.175C35.5505 19.01 35.6185 18.7564 35.6511 18.6115C35.7357 18.2359 35.6706 18.2471 37.6854 18.2619L39.475 18.275V25.825V33.375L38.6817 33.3888C38.1391 33.3983 37.8665 33.3845 37.8192 33.3451C37.7609 33.2969 37.75 32.2818 37.75 26.9218V20.5556L37.6389 20.4779C37.5594 20.4221 37.4062 20.4 37.1 20.4C36.5806 20.4 36.4726 20.4581 36.4267 20.7623C36.4091 20.8793 36.3525 21.1213 36.3009 21.3C36.1584 21.7928 36.0491 22.1954 35.975 22.5C35.771 23.3384 35.6882 23.6569 35.5982 23.95C35.5435 24.1288 35.4989 24.3115 35.4992 24.3563C35.4996 24.4009 35.465 24.5359 35.4221 24.6563C35.3794 24.7765 35.3126 25.0213 35.274 25.2C35.2352 25.3788 35.1444 25.7388 35.072 26C34.9996 26.2613 34.9119 26.5988 34.8771 26.75C34.8422 26.9013 34.7771 27.1488 34.7324 27.3C34.6877 27.4513 34.6172 27.71 34.5759 27.875C34.5345 28.04 34.4752 28.2763 34.4441 28.4C34.413 28.5238 34.3466 28.7713 34.2965 28.95C34.1976 29.3023 34.0844 29.7519 33.9751 30.225C33.9371 30.39 33.8722 30.6375 33.8311 30.775C33.79 30.9125 33.6961 31.2613 33.6226 31.55C33.549 31.8388 33.4464 32.2248 33.3944 32.4078C33.3425 32.5908 33.3 32.786 33.3 32.8418C33.3 33.0785 33.2082 33.1 32.1954 33.1C31.2587 33.1 31.2474 33.0988 31.2051 32.9875C31.1512 32.8459 31.0676 32.5311 30.956 32.05C30.9082 31.8438 30.8454 31.63 30.8164 31.575C30.7874 31.52 30.7485 31.3738 30.73 31.25C30.7114 31.1263 30.6536 30.8788 30.6016 30.7C30.4821 30.2899 30.3239 29.7131 30.2241 29.325C30.1817 29.16 30.0895 28.8113 30.0191 28.55C29.9487 28.2888 29.8606 27.9513 29.8235 27.8C29.7506 27.5039 29.647 27.1171 29.5019 26.6C29.4517 26.4213 29.3506 26.0388 29.2772 25.75C29.2037 25.4613 29.1107 25.1125 29.0704 24.975C28.9422 24.5379 28.798 23.9831 28.7452 23.725C28.7172 23.5875 28.6505 23.356 28.5971 23.2106C28.5437 23.0653 28.5 22.898 28.5 22.8391C28.5 22.7803 28.4572 22.5955 28.4049 22.4285C28.3526 22.2616 28.2497 21.8888 28.1764 21.6C27.9574 20.7384 27.8996 20.5568 27.8194 20.4765C27.721 20.3781 26.8636 20.3671 26.7345 20.4625C26.6559 20.5205 26.6489 20.9709 26.6374 26.8L26.625 33.075L25.825 33.0893C25.385 33.0971 24.9744 33.0911 24.9125 33.0759L24.8 33.0481V25.6783C24.8 19.8293 24.8129 18.3031 24.8625 18.2827C24.8969 18.2687 25.745 18.2612 26.7474 18.2661L28.5696 18.275L28.7099 18.7Z" fill="#846E32"/>
<path fill-rule="evenodd" clip-rule="evenodd" d="M7.85764 17.4159C7.78214 17.5067 7.87001 17.8067 8.02689 17.9931C8.09464 18.0736 8.15001 18.157 8.15001 18.1785C8.15001 18.2001 8.24751 18.3656 8.36651 18.5464C8.77351 19.1641 9.03539 19.575 9.14976 19.775C9.27914 20.0014 9.38651 20.1742 9.70901 20.675C9.83301 20.8675 10.0053 21.1375 10.0916 21.275C10.1781 21.4125 10.2829 21.569 10.3244 21.6226C10.366 21.6764 10.4 21.7391 10.4 21.7622C10.4 21.7852 10.4418 21.865 10.4926 21.9395C10.5969 22.0919 11.0016 22.721 11.191 23.025C11.2596 23.135 11.3571 23.286 11.4079 23.3605C11.4585 23.435 11.5 23.509 11.5 23.525C11.5 23.541 11.5415 23.615 11.5921 23.6895C11.6429 23.764 11.7404 23.915 11.809 24.025C11.8775 24.135 12.0355 24.3825 12.1599 24.575C12.2844 24.7675 12.4738 25.0667 12.5806 25.2399C12.875 25.7169 13.1466 26.1467 13.3326 26.4301C13.4246 26.5705 13.5 26.7041 13.5 26.727C13.5 26.7499 13.5419 26.815 13.5931 26.8717C13.7946 27.0952 13.8 27.1957 13.8 30.7264C13.8 33.8391 13.8073 34.1437 13.8828 34.2064C14.0008 34.3042 17.2124 34.3077 17.31 34.21C17.3616 34.1585 17.3801 33.426 17.4 30.66L17.425 27.175L17.5375 27.0172C17.5994 26.9305 17.65 26.8384 17.65 26.8125C17.65 26.7866 17.695 26.7247 17.75 26.675C17.805 26.6252 17.85 26.5577 17.85 26.525C17.85 26.4922 17.895 26.4247 17.95 26.375C18.005 26.3252 18.05 26.256 18.05 26.2211C18.05 26.1862 18.1063 26.0909 18.175 26.0091C18.2438 25.9274 18.3 25.8391 18.3 25.813C18.3 25.7869 18.345 25.7247 18.4 25.675C18.455 25.6252 18.5 25.5644 18.5 25.5397C18.5 25.5021 18.8474 24.9496 19.2284 24.3809C19.2815 24.3016 19.3478 24.2004 19.3756 24.1559C19.4761 23.9952 19.6206 23.7685 19.8418 23.425C19.9656 23.2325 20.1644 22.9231 20.2835 22.7375C20.622 22.2099 20.9108 21.7616 21.2098 21.3C21.4985 20.8541 21.8459 20.3129 22.1406 19.85C22.2369 19.6987 22.4134 19.4231 22.5329 19.2375C22.7573 18.8887 23.14 18.2855 23.226 18.145C23.253 18.101 23.3383 17.9699 23.4155 17.8537C23.503 17.7221 23.5501 17.5921 23.5405 17.5087L23.525 17.375L21.6836 17.3619C19.6619 17.3475 19.637 17.351 19.4955 17.6684C19.4694 17.727 19.3818 17.8762 19.3008 18C19.2196 18.1237 19.1073 18.3037 19.051 18.4C18.9946 18.4962 18.8364 18.7437 18.6991 18.95C18.562 19.1562 18.4345 19.3587 18.416 19.4C18.3806 19.4787 18.0035 20.0784 17.8435 20.3105C17.792 20.385 17.75 20.4676 17.75 20.4941C17.75 20.5206 17.6969 20.6059 17.6319 20.6836C17.5669 20.7614 17.4416 20.9487 17.3535 21.1C17.2653 21.2512 17.128 21.4762 17.0483 21.6C16.9686 21.7237 16.857 21.9037 16.8003 22C16.7436 22.0962 16.6585 22.232 16.6111 22.3017C16.5638 22.3715 16.48 22.5022 16.425 22.5924C16.2941 22.8067 15.9638 23.3319 15.8304 23.5371C15.6908 23.752 15.6503 23.7431 15.4864 23.4625C15.4101 23.3319 15.2249 23.0337 15.0748 22.8C14.9246 22.5662 14.7861 22.3412 14.7671 22.3C14.7299 22.2197 14.3481 21.6136 14.1935 21.3895C14.142 21.315 14.0996 21.2362 14.0991 21.2145C14.0983 21.1764 13.8501 20.7829 13.7555 20.6695C13.73 20.639 13.6565 20.5179 13.5921 20.4002C13.4168 20.0801 13.3731 20.0091 13.2928 19.9129C13.2524 19.8645 13.1921 19.7687 13.1589 19.7C13.1256 19.6312 13.0323 19.4737 12.9515 19.35C12.8706 19.2262 12.7203 18.9787 12.6173 18.8C12.5144 18.6212 12.3601 18.3737 12.2748 18.25C12.1893 18.1262 12.0481 17.8995 11.961 17.7461C11.8738 17.5926 11.7446 17.4409 11.6739 17.4086C11.478 17.3194 7.93214 17.326 7.85764 17.4159ZM24.15 17.3847C23.9444 17.4582 23.95 17.2234 23.95 25.6845C23.95 33.7334 23.9509 33.8009 24.05 33.9C24.1458 33.9957 24.2166 34 25.7039 34H27.2578L27.4039 33.8539L27.55 33.7077V28.3317C27.55 23.1794 27.5665 22.564 27.6901 23.086C27.7148 23.19 27.7624 23.3762 27.796 23.5C27.8295 23.6237 27.8979 23.8937 27.9479 24.1C27.9979 24.3062 28.0628 24.5425 28.0923 24.625C28.144 24.7704 28.2328 25.1142 28.3739 25.7162C28.4114 25.8764 28.4748 26.0901 28.5145 26.1912C28.5544 26.2922 28.6033 26.4872 28.6233 26.6244C28.6433 26.7615 28.6891 26.9305 28.725 27C28.7609 27.0695 28.8069 27.2385 28.827 27.3756C28.8471 27.5127 28.8856 27.6812 28.9125 27.75C28.9754 27.911 29.1848 28.6881 29.2694 29.075C29.3315 29.3591 29.3791 29.5354 29.6 30.3C29.692 30.6182 29.764 30.8951 29.951 31.65C30.0745 32.1481 30.1834 32.5549 30.2989 32.95C30.3513 33.1287 30.4084 33.3634 30.426 33.4715C30.4468 33.599 30.5161 33.7261 30.624 33.834L30.79 34H32.2381H33.6864L33.8183 33.8681C33.8908 33.7956 33.9713 33.655 33.997 33.5556C34.0604 33.3121 34.1909 32.7862 34.2716 32.45C34.3079 32.2987 34.3711 32.0625 34.4121 31.925C34.5201 31.563 34.7945 30.4859 34.9501 29.8135C35.0025 29.5872 35.0668 29.3622 35.0928 29.3135C35.1189 29.2649 35.1569 29.1132 35.1774 28.9766C35.1979 28.84 35.2559 28.6375 35.3063 28.5266C35.3566 28.4157 35.3983 28.2632 35.3989 28.1877C35.3995 28.1121 35.4438 27.9209 35.4973 27.7627C35.5506 27.6045 35.6098 27.3625 35.6286 27.225C35.6474 27.0875 35.6854 26.9316 35.7129 26.8786C35.7683 26.7722 35.9751 25.9939 36.0728 25.525C36.1071 25.36 36.1724 25.1174 36.2176 24.9857C36.2629 24.8541 36.3 24.7016 36.3 24.6466C36.3 24.5917 36.3351 24.4631 36.3781 24.3609C36.421 24.2586 36.4868 24.0287 36.5243 23.85C36.6279 23.3545 36.759 22.8804 36.807 22.8275C36.831 22.8009 36.8503 25.2439 36.8506 28.3775C36.8514 34.0126 36.8548 34.172 36.9769 34.2187C37.197 34.3032 40.2189 34.2602 40.2835 34.1717C40.3381 34.097 40.35 32.6127 40.35 25.8241V17.5674L40.2328 17.4574L40.1156 17.3472L37.6845 17.3611C35.5199 17.3735 35.2446 17.3839 35.1724 17.4561C35.0834 17.5451 34.8519 18.1654 34.848 18.325C34.8468 18.38 34.8111 18.515 34.769 18.625C34.7269 18.735 34.6639 18.9507 34.6291 19.1046C34.5943 19.2584 34.5484 19.4121 34.5273 19.4464C34.506 19.4806 34.4381 19.7036 34.3763 19.9419C34.3144 20.1801 34.2176 20.5325 34.1611 20.725C33.8594 21.7537 33.7904 21.9989 33.7316 22.25C33.6963 22.4012 33.6434 22.57 33.6143 22.625C33.5851 22.68 33.5336 22.86 33.5 23.025C33.4664 23.19 33.4188 23.363 33.3943 23.4095C33.3698 23.4559 33.3175 23.6359 33.278 23.8095C33.2386 23.983 33.1705 24.2375 33.1266 24.375C32.9699 24.8667 32.853 25.2779 32.8208 25.45C32.8028 25.5462 32.7599 25.6812 32.7256 25.75C32.6914 25.8187 32.648 25.965 32.6293 26.075C32.6105 26.185 32.5516 26.41 32.4984 26.575C32.445 26.74 32.388 26.9425 32.3715 27.025L32.3416 27.175L32.2464 27.0577C32.1941 26.9932 32.1288 26.847 32.101 26.7327C32.0514 26.5274 31.9191 26.0841 31.7483 25.55C31.6551 25.2587 31.4639 24.6366 31.2643 23.975C31.1979 23.755 31.1201 23.5075 31.0915 23.425C31.063 23.3425 30.9993 23.14 30.95 22.975C30.9008 22.81 30.8365 22.6075 30.8073 22.525C30.6959 22.2109 30.5901 21.8642 30.5176 21.5756C30.4764 21.411 30.4234 21.2531 30.4 21.225C30.3766 21.1969 30.3236 21.039 30.2824 20.8744C30.241 20.7097 30.171 20.4625 30.1268 20.325C30.0824 20.1875 29.9993 19.9175 29.9418 19.725C29.8844 19.5325 29.8044 19.285 29.7641 19.175C29.6945 18.985 29.5913 18.6337 29.4135 17.9824C29.3631 17.7979 29.2745 17.627 29.1734 17.5199L29.0133 17.35L26.6191 17.354C25.3024 17.3561 24.1913 17.37 24.15 17.3847ZM11.623 17.5492C11.6943 17.5764 11.7674 17.6382 11.7854 17.6867C11.8035 17.7352 11.8563 17.8312 11.9026 17.9C12.1233 18.227 12.45 18.7499 12.45 18.7759C12.45 18.7917 12.5351 18.9331 12.6393 19.0899C12.7434 19.2467 12.9053 19.51 12.999 19.675C13.0928 19.84 13.2398 20.0762 13.3258 20.2C13.4118 20.3237 13.5656 20.5747 13.6676 20.7577C13.7698 20.9407 13.8863 21.1179 13.9266 21.1514C13.967 21.1849 14 21.2351 14 21.263C14 21.2909 14.0956 21.4632 14.2125 21.646C14.513 22.116 14.5369 22.1544 14.6511 22.35C14.7074 22.4462 14.819 22.6262 14.8991 22.75C14.9794 22.8737 15.0819 23.0471 15.1271 23.1352C15.1723 23.2232 15.2409 23.3217 15.2796 23.3539C15.3184 23.386 15.35 23.4395 15.35 23.4727C15.35 23.5061 15.4239 23.6189 15.5143 23.7234L15.6785 23.9134L15.8176 23.7441C16.015 23.504 16.4474 22.8357 16.4489 22.7686C16.4495 22.7376 16.4854 22.6829 16.5286 22.647C16.5719 22.6111 16.6563 22.4927 16.7161 22.3841C16.8474 22.1457 16.8615 22.1231 17.3339 21.3891C17.4528 21.2044 17.55 21.0327 17.55 21.0077C17.55 20.9827 17.5854 20.9329 17.6286 20.897C17.6719 20.8611 17.7509 20.7514 17.8041 20.6534C17.8575 20.5552 17.9289 20.4307 17.963 20.3767C17.9971 20.3226 18.1236 20.1201 18.244 19.9267C18.3645 19.7332 18.5051 19.514 18.5565 19.4395C18.608 19.365 18.65 19.2884 18.65 19.2692C18.65 19.2501 18.7063 19.1607 18.775 19.0705C18.8438 18.9804 18.9 18.8861 18.9 18.8611C18.9 18.836 18.945 18.7747 19 18.725C19.055 18.6752 19.1 18.615 19.1 18.5911C19.1 18.5496 19.161 18.4479 19.5389 17.8595C19.772 17.4964 19.7516 17.5 21.5741 17.5C23.6081 17.5 23.533 17.4701 23.1168 18.1141C22.9885 18.3126 22.7671 18.655 22.6249 18.875C22.4825 19.095 22.2798 19.41 22.1741 19.575C22.0686 19.74 21.8434 20.0887 21.6736 20.35C21.226 21.0391 20.8434 21.6322 20.6253 21.975C20.5203 22.14 20.3366 22.4269 20.2171 22.6125C19.6708 23.4617 19.5361 23.6719 19.3365 23.9875C19.2191 24.1731 19.101 24.362 19.074 24.4071C19.047 24.4522 18.8921 24.6885 18.7298 24.9321C18.3821 25.4536 17.7325 26.4629 17.524 26.8055C17.497 26.8497 17.43 26.95 17.375 27.0282C17.2776 27.1667 17.2746 27.2624 17.262 30.5977C17.25 33.7406 17.242 34.0301 17.1649 34.0875C17.0053 34.2062 14.0666 34.1745 14.0018 34.0532C13.9675 33.9894 13.95 32.8109 13.95 30.5765C13.95 27.5105 13.9423 27.1839 13.8668 27.0607C13.8209 26.9861 13.6823 26.7675 13.5585 26.575C13.245 26.0872 13.1319 25.9057 12.9975 25.675C12.9334 25.565 12.7805 25.3175 12.6578 25.125C12.2488 24.4835 12.0235 24.126 11.9646 24.025C11.9326 23.97 11.753 23.6819 11.5656 23.3849C11.1713 22.7594 11.0799 22.6136 10.875 22.2822C10.7281 22.0446 10.4941 21.6745 10.1753 21.175C9.94314 20.8116 9.63814 20.3276 9.53889 20.1656C9.44039 20.0045 9.40364 19.9461 9.12126 19.5C8.83014 19.0401 8.54414 18.5832 8.21489 18.0525C7.85289 17.4687 7.76301 17.5 9.80289 17.5C10.7918 17.5 11.5473 17.5205 11.623 17.5492ZM29.0385 17.5875C29.1486 17.6842 29.2731 17.9961 29.473 18.675C29.5459 18.9225 29.6291 19.1925 29.658 19.275C29.6868 19.3575 29.7508 19.56 29.8 19.725C29.8493 19.89 29.9138 20.0925 29.9433 20.175C30.0525 20.4804 30.25 21.1585 30.25 21.2282C30.25 21.2679 30.295 21.3844 30.35 21.487C30.405 21.5895 30.4505 21.7301 30.4511 21.7992C30.4518 21.8684 30.4931 22.0152 30.5433 22.1255C30.5934 22.2357 30.6511 22.4157 30.6718 22.5255C30.6923 22.6352 30.752 22.8194 30.8045 22.9347C30.857 23.0501 30.901 23.1851 30.9023 23.2347C30.9034 23.2844 30.939 23.415 30.9813 23.525C31.0236 23.635 31.0888 23.8375 31.1261 23.975C31.1898 24.2095 31.2329 24.3464 31.4288 24.9375C31.472 25.0681 31.5293 25.2762 31.556 25.4C31.5828 25.5237 31.6348 25.6812 31.6715 25.75C31.7083 25.8187 31.7635 25.9942 31.7941 26.14C31.8249 26.2857 31.8808 26.4657 31.9184 26.54C31.9559 26.6142 32.0028 26.765 32.0226 26.875C32.1009 27.3105 32.3683 27.6009 32.4254 27.3125C32.4404 27.2369 32.4963 27.0287 32.5495 26.85C32.7806 26.0746 32.8959 25.6634 32.9278 25.5C32.9466 25.4037 32.9931 25.2642 33.031 25.19C33.069 25.1157 33.0996 25.0145 33.0991 24.965C33.0986 24.9155 33.1568 24.6837 33.2283 24.45C33.2998 24.2162 33.3993 23.8787 33.4495 23.7C33.5846 23.2187 33.7276 22.7279 33.872 22.25C33.9426 22.0162 34.0009 21.78 34.0014 21.725C34.0018 21.67 34.0468 21.5269 34.1011 21.407C34.1555 21.2871 34.2 21.1459 34.2 21.0932C34.2 21.0062 34.2569 20.8087 34.5508 19.875C34.6028 19.71 34.6605 19.485 34.6793 19.375C34.698 19.265 34.7423 19.1179 34.7775 19.0481C34.8128 18.9782 34.8634 18.8095 34.89 18.6731C34.9166 18.5366 34.9733 18.3237 35.016 18.2C35.0588 18.0762 35.112 17.8855 35.1344 17.776C35.1733 17.5855 35.1853 17.5752 35.4144 17.537C35.882 17.459 40.1474 17.5151 40.2014 17.6C40.2904 17.7401 40.2396 34.0441 40.15 34.1022C39.9893 34.2065 37.1513 34.138 37.0709 34.028C37.0106 33.9455 37 33.0535 37 28.0905C37 22.3182 36.9989 22.25 36.9018 22.25C36.7761 22.25 36.7219 22.3585 36.679 22.6954C36.66 22.844 36.6141 23.0242 36.5771 23.096C36.54 23.1676 36.4933 23.3385 36.4731 23.4756C36.4531 23.6127 36.3976 23.8262 36.35 23.95C36.3024 24.0737 36.248 24.2802 36.2291 24.4089C36.2104 24.5376 36.1511 24.7676 36.0975 24.9201C36.0439 25.0727 36 25.2627 36 25.3424C36 25.4221 35.9575 25.5857 35.9055 25.7061C35.8536 25.8265 35.7951 26.0372 35.7758 26.1744C35.7563 26.3115 35.7114 26.4802 35.6761 26.5494C35.6408 26.6185 35.5963 26.7762 35.5773 26.9C35.5584 27.0237 35.4994 27.2545 35.4464 27.4127C35.3934 27.5709 35.35 27.7537 35.35 27.8189C35.35 27.8841 35.3138 28.0359 35.2695 28.1562C35.2253 28.2765 35.1599 28.51 35.1241 28.675C35.0883 28.84 35.0243 29.065 34.9818 29.175C34.9391 29.285 34.9036 29.4312 34.9028 29.5C34.9018 29.5687 34.857 29.76 34.8033 29.925C34.7011 30.2387 34.5901 30.6679 34.4801 31.175C34.4443 31.34 34.379 31.5875 34.3349 31.725C34.214 32.1025 34.1008 32.5354 34.0203 32.9275C33.9805 33.1214 33.9056 33.3914 33.854 33.5275L33.7601 33.775L32.2361 33.7882L30.7123 33.8014L30.6073 33.5382C30.5496 33.3935 30.4696 33.1287 30.4295 32.95C30.3361 32.5331 30.2254 32.1094 30.1028 31.7C30.0493 31.5212 29.983 31.2737 29.9554 31.15C29.8919 30.8642 29.775 30.4162 29.6556 30C29.6044 29.8212 29.5401 29.585 29.5129 29.475C29.3803 28.9387 29.328 28.7451 29.2185 28.3844C29.1534 28.1696 29.1 27.9409 29.1 27.876C29.1 27.8112 29.055 27.6532 29 27.525C28.945 27.3967 28.899 27.2317 28.8978 27.1584C28.8966 27.085 28.8609 26.935 28.8183 26.825C28.7758 26.715 28.712 26.4844 28.6766 26.3126C28.6411 26.1407 28.5873 25.9382 28.5566 25.8626C28.5261 25.7869 28.4681 25.5787 28.4278 25.4C28.3293 24.9637 28.2201 24.5427 28.1039 24.15C28.051 23.9712 27.9831 23.7237 27.9531 23.6C27.9231 23.4762 27.8631 23.2287 27.82 23.05C27.7769 22.8712 27.7003 22.6237 27.6496 22.5C27.5991 22.3762 27.5455 22.2356 27.5305 22.1875C27.5155 22.1394 27.4799 22.1 27.4516 22.1C27.387 22.1 27.3935 21.3796 27.3999 27.9022C27.4035 31.6509 27.3881 33.5746 27.3539 33.6647L27.3025 33.8H25.7363C24.5848 33.8 24.1541 33.7841 24.11 33.74C24.0205 33.6505 24.023 17.6844 24.1125 17.6109C24.2864 17.4681 28.8779 17.4464 29.0385 17.5875Z" fill="#A2A2A2"/>
</svg>
