<svg width="35" height="35" viewBox="0 0 35 35" fill="none" xmlns="http://www.w3.org/2000/svg">
<g clip-path="url(#clip0_16:16)">
<path d="M33.3667 18.3664L23.6542 20.4562C21.7875 20.8587 20.2708 19.2895 21.3675 18.079L27.0161 11.7965C27.1817 11.6125 27.3978 11.457 27.6496 11.3404C27.9016 11.2238 28.1837 11.1488 28.4773 11.1204C28.771 11.092 29.0692 11.1107 29.3523 11.1756C29.6357 11.2403 29.897 11.3496 30.1194 11.4961C32.0995 12.8033 33.6692 14.4228 34.7161 16.2387C34.8345 16.4426 34.8936 16.6633 34.8893 16.8857C34.885 17.1083 34.8174 17.3274 34.6912 17.5288C34.565 17.7302 34.383 17.909 34.1572 18.0536C33.9315 18.1979 33.6672 18.3045 33.3822 18.3664H33.3667ZM23.5958 22.963L33.2052 25.3051C33.4872 25.3739 33.7462 25.4871 33.9652 25.637C34.1841 25.7869 34.3579 25.9701 34.475 26.1743C34.592 26.3786 34.6496 26.5992 34.644 26.8215C34.6383 27.0439 34.5695 27.2626 34.4419 27.4634C33.3083 29.2475 31.6693 30.8248 29.6392 32.0849C29.4101 32.2264 29.1431 32.3296 28.8565 32.3875C28.5699 32.4456 28.27 32.4569 27.977 32.4211C27.684 32.3851 27.4046 32.3028 27.1575 32.1794C26.9101 32.056 26.7009 31.8946 26.5436 31.7057L21.1769 25.2759C20.1502 24.0407 21.7369 22.5139 23.5802 22.9659L23.5958 22.963ZM14.2703 16.593L4.77173 4.25258C4.62907 4.06612 4.53923 3.85961 4.50779 3.64593C4.47637 3.43226 4.50403 3.21601 4.58908 3.01071C4.67412 2.80542 4.8147 2.61548 5.00203 2.45278C5.18936 2.29007 5.41942 2.1581 5.67784 2.06508C8.89285 0.914337 12.3622 0.215893 15.9134 0.00445774C16.1995 -0.0122407 16.4872 0.0156481 16.7583 0.0863704C17.0294 0.157093 17.2781 0.269117 17.4886 0.415401C17.6992 0.561687 17.8671 0.739064 17.9819 0.93638C18.0966 1.1337 18.1557 1.34669 18.1553 1.56196V15.807C18.1553 17.4053 15.3359 17.9697 14.2703 16.5872V16.593ZM12.604 22.6743L2.80006 24.5089C2.51207 24.5624 2.21218 24.5691 1.9204 24.5288C1.62862 24.4884 1.35167 24.402 1.10802 24.2749C0.864378 24.1479 0.659639 23.9834 0.507477 23.7924C0.355313 23.6015 0.259221 23.3883 0.225614 23.1672C-0.0708602 21.2017 0.214632 19.2115 1.06173 17.3382C1.1561 17.1277 1.30935 16.9345 1.51121 16.772C1.71309 16.6094 1.95892 16.481 2.23228 16.3954C2.50565 16.3098 2.80022 16.269 3.09632 16.2756C3.39242 16.2823 3.68321 16.3364 3.94923 16.434L13.0259 19.7576C14.7759 20.3964 14.5095 22.3243 12.6234 22.6743H12.604ZM14.3267 24.8282C15.6275 23.7432 18.0231 24.4695 17.955 25.9249L17.5856 33.4907C17.5749 33.7128 17.5012 33.9307 17.3695 34.1299C17.2378 34.329 17.0509 34.5047 16.8215 34.6454C16.5921 34.7863 16.3254 34.8887 16.039 34.946C15.7527 35.0035 15.4533 35.0144 15.1609 34.9782C12.5649 34.6513 10.0952 33.9037 7.9237 32.7878C7.67975 32.6614 7.47451 32.4976 7.32177 32.307C7.16896 32.1164 7.07215 31.9036 7.03778 31.6828C7.00334 31.4621 7.03211 31.2382 7.1222 31.0264C7.21229 30.8146 7.36153 30.6195 7.56005 30.4545L14.3209 24.8195L14.3267 24.8282Z" fill="#D32323"/>
</g>
<defs>
<clipPath id="clip0_16:16">
<rect width="35" height="35" fill="white"/>
</clipPath>
</defs>
</svg>
