<svg width="55" height="55" viewBox="0 0 55 55" fill="none" xmlns="http://www.w3.org/2000/svg">
<rect width="55" height="55" fill="#E5E5E5"/>
<path fill-rule="evenodd" clip-rule="evenodd" d="M35.2825 15.4374C34.2944 15.522 33.0751 16.0296 32.4045 16.6356C32.0893 16.9202 32.01 16.8654 32.01 16.3625C32.01 16.0478 31.9913 15.9546 31.923 15.9284C31.7476 15.8612 28.8458 15.8912 28.776 15.961C28.6613 16.0757 28.6822 34.4076 28.797 34.4516C28.9105 34.4952 31.8095 34.4952 31.923 34.4516C32.0006 34.4218 32.01 34.1359 32.01 31.79C32.01 28.7392 31.9461 28.9813 32.6612 29.3207C33.411 29.6762 33.6863 29.7884 34.1825 29.9406C34.3337 29.987 34.5936 30.0685 34.76 30.1217C35.1229 30.2379 36.7243 30.292 37.1554 30.2026C39.1192 29.7954 40.5101 28.9064 41.4613 27.4501C41.5717 27.281 41.6747 27.1301 41.6901 27.115C41.7449 27.0613 42.1226 26.2602 42.157 26.125C42.1762 26.0494 42.2139 25.938 42.2407 25.8775C42.7336 24.7653 42.8405 20.9986 42.4023 20.1798C42.3735 20.1262 42.35 20.04 42.35 19.9884C42.35 19.9368 42.2969 19.7805 42.2319 19.6411C41.9038 18.9364 41.7109 18.5555 41.6488 18.4898C41.6109 18.4499 41.58 18.3927 41.58 18.3627C41.58 18.3329 41.4932 18.1924 41.3874 18.0505C41.2813 17.9086 41.1401 17.7183 41.0735 17.6275C40.8706 17.3514 39.9124 16.4145 39.7371 16.321C39.6466 16.2726 39.4364 16.1678 39.27 16.0882C39.1036 16.0085 38.9209 15.9177 38.864 15.8866C38.2858 15.5705 36.4364 15.3386 35.2825 15.4374ZM13.4567 15.8217C13.3977 15.8807 13.4141 16.0428 13.4988 16.2369C13.5664 16.3921 13.6986 16.7303 14.0525 17.655C14.093 17.7609 14.2168 18.0827 14.3275 18.37C14.6186 19.1255 14.6626 19.2412 14.7981 19.6075C14.8654 19.789 14.9517 20.0118 14.9901 20.1025C15.0637 20.2763 15.1474 20.4951 15.3481 21.0375C15.4154 21.219 15.5017 21.4418 15.5401 21.5325C15.6137 21.7063 15.6974 21.9251 15.8981 22.4675C15.9654 22.649 16.0517 22.8718 16.0901 22.9625C16.1285 23.0533 16.1972 23.2265 16.243 23.3475C16.2888 23.4685 16.4168 23.8026 16.5275 24.09C16.6382 24.3774 16.7619 24.6991 16.8025 24.805C16.843 24.9109 16.9668 25.2327 17.0775 25.52C17.1882 25.8074 17.3119 26.1291 17.3525 26.235C17.393 26.3409 17.5168 26.6626 17.6275 26.95C17.7382 27.2374 17.8619 27.5591 17.9025 27.665C17.943 27.7709 18.0668 28.0926 18.1775 28.38C18.2882 28.6674 18.4119 28.9891 18.4525 29.095C18.4931 29.2009 18.6147 29.5108 18.7231 29.7838C19.0719 30.6627 18.9194 31.0984 18.1393 31.4527C17.8148 31.6001 16.5309 31.6238 16.0882 31.4904C15.9427 31.4467 15.6909 31.3943 15.5284 31.3739L15.2332 31.3371L15.2478 32.7813L15.2625 34.2254L15.51 34.3046C15.6461 34.3482 15.9431 34.4201 16.17 34.4644C19.0114 35.0192 20.585 34.3994 21.7026 32.285C21.7906 32.1186 21.8756 31.9701 21.8916 31.955C21.9077 31.9399 21.9927 31.7419 22.0804 31.515C22.1683 31.2881 22.2603 31.079 22.285 31.0503C22.3098 31.0215 22.33 30.951 22.33 30.8935C22.33 30.8362 22.3644 30.7112 22.4063 30.6158C22.4991 30.405 22.8122 29.472 22.8811 29.2014C22.9086 29.0935 22.9688 28.9326 23.0152 28.8439C23.0615 28.7551 23.0994 28.6318 23.0997 28.5698C23.0999 28.5078 23.1212 28.4335 23.147 28.4048C23.1729 28.376 23.2629 28.1298 23.3469 27.8575C23.4311 27.5853 23.5177 27.3378 23.5394 27.3075C23.5612 27.2773 23.6053 27.1535 23.6376 27.0325C23.6699 26.9115 23.8736 26.3051 24.09 25.685C24.3066 25.0649 24.5077 24.4709 24.537 24.365C24.5663 24.2591 24.6133 24.123 24.6415 24.0625C24.7152 23.9044 25.0229 22.9979 25.0814 22.7665C25.1087 22.6585 25.1688 22.4976 25.2152 22.4089C25.2615 22.3201 25.2994 22.1968 25.2997 22.1348C25.2999 22.0728 25.3212 21.9985 25.347 21.9698C25.3729 21.941 25.4635 21.6948 25.5483 21.4225C25.6332 21.1503 25.7217 20.8904 25.7452 20.845C25.7687 20.7997 25.8507 20.5645 25.9274 20.3225C26.0041 20.0805 26.2052 19.4865 26.3743 19.0025C26.5435 18.5185 26.7066 18.0359 26.737 17.93C26.7673 17.8241 26.8276 17.6596 26.8711 17.5643C26.9145 17.4688 26.95 17.3404 26.95 17.2787C26.95 17.217 26.9723 17.1527 26.9995 17.136C27.0267 17.1192 27.0787 16.9814 27.115 16.83C27.1513 16.6786 27.2033 16.5409 27.2305 16.5241C27.2577 16.5073 27.28 16.4431 27.28 16.3814C27.28 16.3196 27.321 16.1827 27.3712 16.0769C27.5069 15.7911 27.4817 15.7868 25.6752 15.7859C23.925 15.785 23.87 15.7936 23.87 16.0666C23.87 16.1266 23.8362 16.2424 23.7948 16.324C23.7535 16.4057 23.7024 16.5678 23.6813 16.6843C23.6602 16.8007 23.6104 16.974 23.5707 17.0693C23.5309 17.1646 23.4567 17.391 23.4057 17.5725C23.3548 17.754 23.2875 17.9768 23.2565 18.0675C23.2254 18.1583 23.1753 18.3315 23.1452 18.4525C23.1153 18.5735 23.0677 18.722 23.0396 18.7825C23.0117 18.843 22.9514 19.0287 22.9057 19.195C22.8602 19.3614 22.7886 19.6089 22.7465 19.745C22.3998 20.8701 22.3242 21.1229 22.2361 21.45C22.1913 21.6164 22.1321 21.776 22.1048 21.8048C22.0774 21.8335 22.055 21.9014 22.055 21.9557C22.055 22.0102 22.0087 22.1971 21.952 22.371C21.8955 22.5451 21.8056 22.836 21.7525 23.0175C21.6993 23.199 21.6312 23.4094 21.6011 23.485C21.5711 23.5607 21.515 23.7463 21.4764 23.8975C21.4378 24.0488 21.3806 24.2468 21.3491 24.3375C21.3177 24.4283 21.2502 24.651 21.1993 24.8325C21.1483 25.014 21.0741 25.2405 21.0343 25.3358C20.9946 25.4311 20.9447 25.6043 20.9236 25.7208C20.7982 26.4107 20.6045 26.4552 20.4099 25.8385C20.3404 25.6179 20.2489 25.3596 20.2067 25.2643C20.1645 25.1689 20.13 25.0404 20.13 24.9787C20.13 24.9169 20.1077 24.8527 20.0805 24.836C20.0533 24.8192 20.0013 24.6814 19.965 24.53C19.9287 24.3786 19.8767 24.2409 19.8495 24.2241C19.8223 24.2073 19.8 24.1431 19.8 24.0814C19.8 24.0196 19.7655 23.8912 19.7234 23.7958C19.6457 23.6202 19.5792 23.4241 19.3277 22.6325C19.2508 22.3905 19.1687 22.1554 19.1452 22.11C19.1217 22.0647 19.0332 21.8048 18.9483 21.5325C18.8635 21.2603 18.7729 21.014 18.747 20.9853C18.7212 20.9565 18.7 20.886 18.7 20.8285C18.7 20.7712 18.6655 20.6462 18.6234 20.5508C18.5457 20.3752 18.4792 20.1791 18.2277 19.3875C18.1508 19.1455 18.0687 18.9104 18.0452 18.865C18.0217 18.8196 17.9332 18.5598 17.8483 18.2875C17.7635 18.0153 17.6729 17.769 17.647 17.7403C17.6212 17.7115 17.5998 17.6373 17.5997 17.5753C17.5994 17.5133 17.5646 17.3961 17.5223 17.315C17.4799 17.2339 17.4273 17.0854 17.4053 16.9853C17.3833 16.885 17.3335 16.7286 17.2946 16.6378C17.2557 16.5469 17.1693 16.3178 17.1026 16.1288L16.9815 15.785H15.2375C14.2781 15.785 13.4768 15.8015 13.4567 15.8217ZM36.4767 18.5915C36.9108 18.7579 37.0113 18.8109 37.378 19.0658C37.7011 19.2902 38.335 19.9374 38.335 20.0427C38.335 20.0709 38.3698 20.1329 38.4123 20.1808C39.119 20.975 39.384 23.1495 38.9366 24.4838C38.1842 26.7275 35.9143 27.973 34.2573 27.0512C33.4029 26.576 32.5967 25.7583 32.4224 25.19C32.3991 25.1144 32.3631 25.0401 32.3423 25.025C32.3009 24.995 32.1436 24.5611 32.0632 24.255C31.8686 23.5147 32.0732 20.9253 32.3414 20.735C32.3627 20.7199 32.398 20.6503 32.4199 20.5805C32.6169 19.9492 33.8033 18.8122 34.4183 18.6655C34.5004 18.6458 34.5922 18.6112 34.6225 18.5884C34.8206 18.4389 36.0843 18.441 36.4767 18.5915Z" fill="#F9F9F9"/>
<path fill-rule="evenodd" clip-rule="evenodd" d="M24.09 0.055C24.09 0.0884125 23.8447 0.11 23.4642 0.11C22.9752 0.11 22.8235 0.128012 22.77 0.1925C22.7198 0.253 22.5863 0.275 22.2687 0.275C21.8955 0.275 21.8265 0.290125 21.7672 0.385C21.7104 0.476025 21.6389 0.495 21.3543 0.495C21.0849 0.495 21.01 0.513012 21.01 0.5775C21.01 0.6424 20.9336 0.66 20.6525 0.66C20.3715 0.66 20.295 0.6776 20.295 0.7425C20.295 0.806713 20.2217 0.825 19.9654 0.825C19.6955 0.825 19.6235 0.844938 19.5672 0.935C19.5159 1.01723 19.4389 1.045 19.2625 1.045C19.1036 1.045 19.0163 1.07195 18.9949 1.1275C18.9734 1.1836 18.8855 1.21 18.7199 1.21C18.5544 1.21 18.4664 1.2364 18.4449 1.2925C18.4243 1.34626 18.3388 1.375 18.1996 1.375C18.0455 1.375 17.9667 1.40566 17.9172 1.485C17.8756 1.55183 17.7889 1.595 17.6968 1.595C17.5985 1.595 17.545 1.62415 17.545 1.6775C17.545 1.73979 17.4778 1.76 17.27 1.76C17.0622 1.76 16.995 1.78021 16.995 1.8425C16.995 1.90011 16.937 1.925 16.8025 1.925C16.6467 1.925 16.61 1.9459 16.61 2.035C16.61 2.12878 16.5733 2.145 16.3607 2.145C16.1899 2.145 16.1015 2.17099 16.0799 2.2275C16.0618 2.2748 15.9796 2.31 15.8874 2.31C15.7952 2.31 15.7131 2.3452 15.6949 2.3925C15.6768 2.43953 15.5948 2.475 15.5041 2.475C15.3817 2.475 15.345 2.5003 15.345 2.585C15.345 2.6741 15.3083 2.695 15.1525 2.695C15.018 2.695 14.96 2.71989 14.96 2.7775C14.96 2.83264 14.9049 2.86 14.7932 2.86C14.6959 2.86 14.6134 2.89424 14.5949 2.9425C14.5775 2.98788 14.5017 3.025 14.4265 3.025C14.336 3.025 14.2799 3.06226 14.261 3.135C14.2451 3.1955 14.1886 3.245 14.1353 3.245C14.0821 3.245 14.0077 3.28213 13.97 3.3275C13.9323 3.37288 13.8551 3.41 13.7983 3.41C13.7415 3.41 13.695 3.44713 13.695 3.4925C13.695 3.55011 13.637 3.575 13.5025 3.575C13.3467 3.575 13.31 3.5959 13.31 3.685C13.31 3.7697 13.2733 3.795 13.1509 3.795C13.0602 3.795 12.9782 3.83048 12.9601 3.8775C12.9427 3.92288 12.8905 3.96 12.8443 3.96C12.798 3.96 12.76 3.99713 12.76 4.0425C12.76 4.09805 12.7045 4.125 12.5899 4.125C12.466 4.125 12.4118 4.15484 12.3909 4.235C12.3751 4.2955 12.328 4.345 12.286 4.345C12.2442 4.345 12.21 4.38213 12.21 4.4275C12.21 4.48264 12.1549 4.51 12.0432 4.51C11.9459 4.51 11.8634 4.54424 11.8449 4.5925C11.8275 4.63788 11.7788 4.675 11.7366 4.675C11.6945 4.675 11.66 4.7245 11.66 4.785C11.66 4.8708 11.6233 4.895 11.4932 4.895C11.3959 4.895 11.3134 4.92924 11.2949 4.9775C11.2775 5.02288 11.2288 5.06 11.1866 5.06C11.1445 5.06 11.11 5.09713 11.11 5.1425C11.11 5.18788 11.0729 5.225 11.0275 5.225C10.9817 5.225 10.945 5.27395 10.945 5.335C10.945 5.4241 10.9083 5.445 10.7525 5.445C10.618 5.445 10.56 5.46989 10.56 5.5275C10.56 5.57288 10.5229 5.61 10.4775 5.61C10.4321 5.61 10.395 5.64713 10.395 5.6925C10.395 5.73829 10.3461 5.775 10.285 5.775C10.2117 5.775 10.175 5.81171 10.175 5.885C10.175 5.94605 10.1383 5.995 10.0925 5.995C10.0471 5.995 10.01 6.03213 10.01 6.0775C10.01 6.13264 9.95486 6.16 9.84321 6.16C9.74586 6.16 9.66336 6.19424 9.64494 6.2425C9.62747 6.28788 9.5788 6.325 9.53659 6.325C9.49451 6.325 9.46 6.3745 9.46 6.435C9.46 6.49605 9.42329 6.545 9.3775 6.545C9.33212 6.545 9.295 6.58213 9.295 6.6275C9.295 6.67329 9.24605 6.71 9.185 6.71C9.12395 6.71 9.075 6.74671 9.075 6.7925C9.075 6.83788 9.03788 6.875 8.9925 6.875C8.94671 6.875 8.91 6.92395 8.91 6.985C8.91 7.04605 8.87329 7.095 8.8275 7.095C8.78212 7.095 8.745 7.13213 8.745 7.1775C8.745 7.22329 8.69605 7.26 8.635 7.26C8.57395 7.26 8.525 7.29671 8.525 7.3425C8.525 7.38788 8.48788 7.425 8.4425 7.425C8.39671 7.425 8.36 7.47395 8.36 7.535C8.36 7.5955 8.32563 7.645 8.28369 7.645C8.17163 7.645 7.645 8.15746 7.645 8.2665C7.645 8.32329 7.60183 8.36 7.535 8.36C7.47395 8.36 7.425 8.39671 7.425 8.4425C7.425 8.48788 7.38788 8.525 7.3425 8.525C7.29671 8.525 7.26 8.57395 7.26 8.635C7.26 8.69605 7.22329 8.745 7.1775 8.745C7.13213 8.745 7.095 8.78212 7.095 8.8275C7.095 8.87329 7.04605 8.91 6.985 8.91C6.92395 8.91 6.875 8.94671 6.875 8.9925C6.875 9.03788 6.83788 9.075 6.7925 9.075C6.74671 9.075 6.71 9.12395 6.71 9.185C6.71 9.24605 6.67329 9.295 6.6275 9.295C6.58213 9.295 6.545 9.33212 6.545 9.3775C6.545 9.42329 6.49605 9.46 6.435 9.46C6.37285 9.46 6.325 9.49671 6.325 9.54429C6.325 9.59049 6.28788 9.64274 6.2425 9.66006C6.19548 9.67821 6.16 9.76016 6.16 9.85091C6.16 9.95569 6.13181 10.01 6.0775 10.01C6.03213 10.01 5.995 10.0471 5.995 10.0925C5.995 10.1383 5.94605 10.175 5.885 10.175C5.81171 10.175 5.775 10.2117 5.775 10.285C5.775 10.3461 5.73829 10.395 5.6925 10.395C5.64713 10.395 5.61 10.4321 5.61 10.4775C5.61 10.5229 5.57288 10.56 5.5275 10.56C5.46989 10.56 5.445 10.618 5.445 10.7525C5.445 10.9083 5.4241 10.945 5.335 10.945C5.27395 10.945 5.225 10.9817 5.225 11.0275C5.225 11.0729 5.18788 11.11 5.1425 11.11C5.09713 11.11 5.06 11.148 5.06 11.1943C5.06 11.2405 5.02288 11.2927 4.9775 11.3101C4.93048 11.3282 4.895 11.4102 4.895 11.5009C4.895 11.6233 4.8697 11.66 4.785 11.66C4.7245 11.66 4.675 11.6945 4.675 11.7366C4.675 11.7788 4.63788 11.8275 4.5925 11.8449C4.54424 11.8634 4.51 11.9459 4.51 12.0432C4.51 12.1549 4.48264 12.21 4.4275 12.21C4.38213 12.21 4.345 12.2442 4.345 12.286C4.345 12.328 4.2955 12.3751 4.235 12.3909C4.15484 12.4118 4.125 12.466 4.125 12.5899C4.125 12.7045 4.09805 12.76 4.0425 12.76C3.99713 12.76 3.96 12.798 3.96 12.8443C3.96 12.8905 3.92288 12.9427 3.8775 12.9601C3.83048 12.9782 3.795 13.0602 3.795 13.1509C3.795 13.2733 3.7697 13.31 3.685 13.31C3.5959 13.31 3.575 13.3467 3.575 13.5025C3.575 13.637 3.55011 13.695 3.4925 13.695C3.44218 13.695 3.41 13.7463 3.41 13.8266C3.41 13.8991 3.37288 13.9725 3.3275 13.9899C3.28213 14.0073 3.245 14.0719 3.245 14.1332C3.245 14.1967 3.2087 14.245 3.16113 14.245C3.11231 14.245 3.06378 14.3125 3.04494 14.4064C3.0272 14.4953 2.97825 14.5812 2.93631 14.5973C2.89437 14.6134 2.86 14.7016 2.86 14.7932C2.86 14.9049 2.83264 14.96 2.7775 14.96C2.72044 14.96 2.695 15.0173 2.695 15.146C2.695 15.2859 2.66764 15.3394 2.585 15.361C2.51226 15.3799 2.475 15.436 2.475 15.5265C2.475 15.6017 2.43788 15.6775 2.3925 15.6949C2.34534 15.7129 2.31 15.795 2.31 15.8865C2.31 15.9745 2.27288 16.0773 2.2275 16.115C2.18006 16.1543 2.145 16.2742 2.145 16.3967C2.145 16.5733 2.12603 16.61 2.035 16.61C1.9459 16.61 1.925 16.6467 1.925 16.8025C1.925 16.937 1.90011 16.995 1.8425 16.995C1.78021 16.995 1.76 17.0622 1.76 17.27C1.76 17.4778 1.73979 17.545 1.6775 17.545C1.62415 17.545 1.595 17.5985 1.595 17.6968C1.595 17.7889 1.55183 17.8756 1.485 17.9172C1.40566 17.9667 1.375 18.0455 1.375 18.1996C1.375 18.3388 1.34626 18.4243 1.2925 18.4449C1.2364 18.4664 1.21 18.5544 1.21 18.7199C1.21 18.8855 1.1836 18.9734 1.1275 18.9949C1.07181 19.0163 1.045 19.1036 1.045 19.2636C1.045 19.4325 1.01338 19.5276 0.935 19.5947C0.84975 19.6677 0.825 19.757 0.825 19.9919C0.825 20.2246 0.805888 20.295 0.7425 20.295C0.6776 20.295 0.66 20.3715 0.66 20.6525C0.66 20.9336 0.6424 21.01 0.5775 21.01C0.512875 21.01 0.495 21.0851 0.495 21.3553C0.495 21.6325 0.473275 21.7191 0.385 21.7947C0.291913 21.8745 0.275 21.957 0.275 22.3312C0.275 22.6736 0.256438 22.7806 0.1925 22.8051C0.126087 22.8306 0.11 22.9541 0.11 23.4359C0.11 23.7986 0.088275 24.035 0.055 24.035C0.018975 24.035 0 25.2358 0 27.5275C0 29.8192 0.018975 31.02 0.055 31.02C0.0881375 31.02 0.11 31.2472 0.11 31.5916C0.11 32.0491 0.1265 32.1695 0.1925 32.1949C0.2563 32.2194 0.275 32.3264 0.275 32.6682C0.275 33.0367 0.293288 33.1283 0.385 33.22C0.470525 33.3055 0.495 33.4033 0.495 33.66C0.495 33.9167 0.513287 33.99 0.5775 33.99C0.642262 33.99 0.66 34.0658 0.66 34.3416C0.66 34.6034 0.681038 34.7013 0.7425 34.7249C0.800663 34.7472 0.825 34.8381 0.825 35.0332C0.825 35.2367 0.85415 35.3392 0.935 35.42C1.01241 35.4974 1.045 35.6033 1.045 35.7775C1.045 35.9608 1.06645 36.025 1.1275 36.025C1.18979 36.025 1.21 36.0922 1.21 36.3C1.21 36.5078 1.23021 36.575 1.2925 36.575C1.3497 36.575 1.375 36.6326 1.375 36.763C1.375 37.0052 1.42244 37.125 1.51841 37.125C1.56929 37.125 1.595 37.1896 1.595 37.3175C1.595 37.452 1.61989 37.51 1.6775 37.51C1.73828 37.51 1.76 37.5735 1.76 37.7516C1.76 37.9156 1.78654 38.0034 1.8425 38.0249C1.89076 38.0434 1.925 38.1259 1.925 38.2232C1.925 38.3533 1.9492 38.39 2.035 38.39C2.12878 38.39 2.145 38.4267 2.145 38.6393C2.145 38.8101 2.17099 38.8985 2.2275 38.9201C2.2748 38.9382 2.31 39.0204 2.31 39.1126C2.31 39.2048 2.3452 39.2869 2.3925 39.3051C2.43884 39.3229 2.475 39.4048 2.475 39.4922C2.475 39.5993 2.50924 39.6584 2.585 39.6825C2.662 39.707 2.695 39.7657 2.695 39.8787C2.695 39.9854 2.72291 40.04 2.7775 40.04C2.83264 40.04 2.86 40.0951 2.86 40.2068C2.86 40.3041 2.89424 40.3866 2.9425 40.4051C2.98788 40.4225 3.025 40.4983 3.025 40.5735C3.025 40.664 3.06226 40.7201 3.135 40.7391C3.1955 40.7549 3.245 40.8126 3.245 40.8675C3.245 40.9223 3.28213 41.0043 3.3275 41.0497C3.37288 41.095 3.41 41.1835 3.41 41.246C3.41 41.3106 3.44575 41.36 3.4925 41.36C3.5475 41.36 3.575 41.415 3.575 41.525C3.575 41.6533 3.59947 41.69 3.685 41.69C3.7708 41.69 3.795 41.7267 3.795 41.8568C3.795 41.9541 3.82924 42.0366 3.8775 42.0551C3.92288 42.0725 3.96 42.1212 3.96 42.1634C3.96 42.2055 3.99713 42.24 4.0425 42.24C4.09805 42.24 4.125 42.2956 4.125 42.4101C4.125 42.534 4.15484 42.5882 4.235 42.6091C4.2955 42.6249 4.345 42.672 4.345 42.714C4.345 42.7558 4.38213 42.79 4.4275 42.79C4.48511 42.79 4.51 42.848 4.51 42.9825C4.51 43.117 4.53489 43.175 4.5925 43.175C4.63788 43.175 4.675 43.2121 4.675 43.2575C4.675 43.3033 4.72395 43.34 4.785 43.34C4.8708 43.34 4.895 43.3767 4.895 43.5068C4.895 43.6041 4.92924 43.6866 4.9775 43.7051C5.02288 43.7225 5.06 43.7712 5.06 43.8134C5.06 43.8555 5.09713 43.89 5.1425 43.89C5.18788 43.89 5.225 43.9295 5.225 43.9776C5.225 44.0259 5.2745 44.0782 5.335 44.094C5.41296 44.1144 5.445 44.1691 5.445 44.2815C5.445 44.3857 5.47319 44.44 5.5275 44.44C5.57288 44.44 5.61 44.4779 5.61 44.5243C5.61 44.5705 5.64713 44.6227 5.6925 44.6401C5.73788 44.6575 5.775 44.7062 5.775 44.7484C5.775 44.7905 5.8245 44.825 5.885 44.825C5.94605 44.825 5.995 44.8617 5.995 44.9075C5.995 44.9529 6.03213 44.99 6.0775 44.99C6.13264 44.99 6.16 45.0451 6.16 45.1568C6.16 45.2541 6.19424 45.3366 6.2425 45.3551C6.28788 45.3725 6.325 45.4212 6.325 45.4634C6.325 45.5055 6.3745 45.54 6.435 45.54C6.50829 45.54 6.545 45.5767 6.545 45.65C6.545 45.7111 6.58171 45.76 6.6275 45.76C6.67288 45.76 6.71 45.7971 6.71 45.8425C6.71 45.8879 6.74713 45.925 6.7925 45.925C6.83788 45.925 6.875 45.9621 6.875 46.0075C6.875 46.0533 6.92395 46.09 6.985 46.09C7.05829 46.09 7.095 46.1267 7.095 46.2C7.095 46.2611 7.13171 46.31 7.1775 46.31C7.22288 46.31 7.26 46.3471 7.26 46.3925C7.26 46.4379 7.29713 46.475 7.3425 46.475C7.38788 46.475 7.425 46.5121 7.425 46.5575C7.425 46.6033 7.47395 46.64 7.535 46.64C7.60485 46.64 7.645 46.6767 7.645 46.7407C7.645 46.8425 8.20476 47.41 8.30528 47.41C8.33539 47.41 8.36 47.4471 8.36 47.4925C8.36 47.5379 8.39713 47.575 8.4425 47.575C8.48788 47.575 8.525 47.6121 8.525 47.6575C8.525 47.7033 8.57395 47.74 8.635 47.74C8.70829 47.74 8.745 47.7767 8.745 47.85C8.745 47.9111 8.78171 47.96 8.8275 47.96C8.87287 47.96 8.91 47.9971 8.91 48.0425C8.91 48.0879 8.94713 48.125 8.9925 48.125C9.03788 48.125 9.075 48.1621 9.075 48.2075C9.075 48.2533 9.12395 48.29 9.185 48.29C9.25829 48.29 9.295 48.3267 9.295 48.4C9.295 48.4611 9.33171 48.51 9.3775 48.51C9.42287 48.51 9.46 48.5471 9.46 48.5925C9.46 48.6379 9.49451 48.675 9.53659 48.675C9.5788 48.675 9.62747 48.7121 9.64494 48.7575C9.66336 48.8058 9.74586 48.84 9.84321 48.84C9.97329 48.84 10.01 48.8642 10.01 48.95C10.01 49.0111 10.0467 49.06 10.0925 49.06C10.1379 49.06 10.175 49.0971 10.175 49.1425C10.175 49.1883 10.224 49.225 10.285 49.225C10.3461 49.225 10.395 49.2617 10.395 49.3075C10.395 49.3529 10.4321 49.39 10.4775 49.39C10.5229 49.39 10.56 49.426 10.56 49.47C10.56 49.5179 10.6373 49.5645 10.7525 49.5861C10.8628 49.6068 10.945 49.6548 10.945 49.6987C10.945 49.7406 10.9821 49.775 11.0275 49.775C11.0729 49.775 11.11 49.8121 11.11 49.8575C11.11 49.9029 11.1445 49.94 11.1866 49.94C11.2288 49.94 11.2766 49.9748 11.2929 50.0173C11.3092 50.0599 11.3985 50.1113 11.4913 50.1317C11.5841 50.152 11.66 50.2039 11.66 50.2469C11.66 50.2898 11.6945 50.325 11.7366 50.325C11.7788 50.325 11.8275 50.3621 11.8449 50.4075C11.8634 50.4558 11.9459 50.49 12.0432 50.49C12.1733 50.49 12.21 50.5142 12.21 50.6C12.21 50.6605 12.2445 50.71 12.2866 50.71C12.3288 50.71 12.3775 50.7471 12.3949 50.7925C12.4134 50.8408 12.4959 50.875 12.5932 50.875C12.7049 50.875 12.76 50.9024 12.76 50.9575C12.76 51.0029 12.798 51.04 12.8443 51.04C12.8905 51.04 12.9421 51.0756 12.9588 51.1192C12.9755 51.1627 13.0614 51.2141 13.1495 51.2335C13.2378 51.2529 13.31 51.3039 13.31 51.3469C13.31 51.3996 13.3728 51.425 13.5025 51.425C13.637 51.425 13.695 51.4499 13.695 51.5075C13.695 51.5529 13.7332 51.59 13.7798 51.59C13.8265 51.59 13.9178 51.6395 13.9827 51.7C14.0476 51.7605 14.1306 51.81 14.167 51.81C14.2035 51.81 14.2475 51.8471 14.2649 51.8925C14.2823 51.9379 14.3565 51.975 14.4299 51.975C14.5032 51.975 14.5775 52.0121 14.5949 52.0575C14.6134 52.1058 14.6959 52.14 14.7932 52.14C14.8991 52.14 14.96 52.1679 14.96 52.2166C14.96 52.3007 15.0756 52.36 15.2395 52.36C15.2976 52.36 15.345 52.3971 15.345 52.4425C15.345 52.4968 15.3993 52.525 15.5041 52.525C15.5948 52.525 15.6768 52.5605 15.6949 52.6075C15.7123 52.6529 15.7893 52.69 15.8657 52.69C15.9423 52.69 16.0545 52.7395 16.115 52.8C16.1831 52.8681 16.2983 52.91 16.4175 52.91C16.552 52.91 16.61 52.9349 16.61 52.9925C16.61 53.0501 16.668 53.075 16.8025 53.075C16.937 53.075 16.995 53.0999 16.995 53.1575C16.995 53.2198 17.0622 53.24 17.27 53.24C17.5083 53.24 17.545 53.2547 17.545 53.35C17.545 53.4347 17.5817 53.46 17.7041 53.46C17.7948 53.46 17.8768 53.4955 17.8949 53.5425C17.9164 53.5986 18.0044 53.625 18.1699 53.625C18.3355 53.625 18.4234 53.6514 18.4449 53.7075C18.4665 53.764 18.5549 53.79 18.7257 53.79C18.9021 53.79 18.975 53.8124 18.975 53.8666C18.975 53.9617 19.0945 54.01 19.3303 54.01C19.43 54.01 19.5423 54.0471 19.58 54.0925C19.6266 54.1487 19.7515 54.175 19.9717 54.175C20.2224 54.175 20.295 54.1936 20.295 54.2575C20.295 54.3224 20.3715 54.34 20.6525 54.34C20.9215 54.34 21.01 54.359 21.01 54.4166C21.01 54.5198 21.1324 54.56 21.4478 54.56C21.6151 54.56 21.7365 54.5901 21.78 54.6425C21.83 54.7029 21.963 54.725 22.275 54.725C22.587 54.725 22.72 54.7471 22.77 54.8075C22.8235 54.872 22.9752 54.89 23.4642 54.89C23.8447 54.89 24.09 54.9116 24.09 54.945C24.09 54.981 25.2633 55 27.5 55C29.7367 55 30.91 54.981 30.91 54.945C30.91 54.9116 31.1553 54.89 31.5358 54.89C32.0249 54.89 32.1765 54.872 32.23 54.8075C32.2809 54.7462 32.417 54.725 32.761 54.725C33.1213 54.725 33.2305 54.7069 33.2551 54.6425C33.2784 54.5819 33.3741 54.56 33.616 54.56C33.899 54.56 33.9493 54.5446 33.9741 54.45C33.9991 54.3544 34.0491 54.34 34.3556 54.34C34.6185 54.34 34.7166 54.319 34.7401 54.2575C34.7633 54.197 34.8587 54.175 35.0976 54.175C35.3365 54.175 35.432 54.153 35.4551 54.0925C35.4745 54.0422 35.5578 54.01 35.6689 54.01C35.9055 54.01 36.025 53.9619 36.025 53.8666C36.025 53.8113 36.1016 53.79 36.3 53.79C36.5078 53.79 36.575 53.7698 36.575 53.7075C36.575 53.6463 36.6393 53.625 36.8243 53.625C36.9951 53.625 37.0835 53.599 37.1051 53.5425C37.1235 53.4947 37.2057 53.46 37.301 53.46C37.419 53.46 37.4734 53.4291 37.494 53.35C37.5171 53.2616 37.5691 53.24 37.7581 53.24C37.9163 53.24 38.0036 53.2131 38.0249 53.1575C38.0434 53.1092 38.1259 53.075 38.2232 53.075C38.3349 53.075 38.39 53.0476 38.39 52.9925C38.39 52.9349 38.448 52.91 38.5825 52.91C38.7017 52.91 38.8169 52.8681 38.885 52.8C38.9455 52.7395 39.0577 52.69 39.1343 52.69C39.2107 52.69 39.2877 52.6529 39.3051 52.6075C39.3228 52.5614 39.4045 52.525 39.49 52.525C39.5755 52.525 39.6572 52.4886 39.6749 52.4425C39.6923 52.3971 39.7715 52.36 39.8509 52.36C39.949 52.36 40.0045 52.3248 40.0241 52.25C40.0456 52.1674 40.0991 52.14 40.239 52.14C40.3677 52.14 40.425 52.1146 40.425 52.0575C40.425 52.0025 40.48 51.975 40.59 51.975C40.7 51.975 40.755 51.9475 40.755 51.8925C40.755 51.8471 40.799 51.81 40.8529 51.81C40.9067 51.81 40.9864 51.7605 41.03 51.7C41.0736 51.6395 41.1657 51.59 41.2346 51.59C41.3094 51.59 41.36 51.5567 41.36 51.5075C41.36 51.4525 41.415 51.425 41.525 51.425C41.635 51.425 41.69 51.3975 41.69 51.3425C41.69 51.2967 41.739 51.26 41.8 51.26C41.8605 51.26 41.9595 51.2105 42.02 51.15C42.0805 51.0895 42.1547 51.04 42.185 51.04C42.2152 51.04 42.24 51.0029 42.24 50.9575C42.24 50.9024 42.2951 50.875 42.4068 50.875C42.5041 50.875 42.5866 50.8408 42.6051 50.7925C42.6225 50.7471 42.6712 50.71 42.7134 50.71C42.7555 50.71 42.79 50.6605 42.79 50.6C42.79 50.5109 42.8267 50.49 42.9825 50.49C43.117 50.49 43.175 50.4651 43.175 50.4075C43.175 50.3621 43.2121 50.325 43.2575 50.325C43.3029 50.325 43.34 50.2879 43.34 50.2425C43.34 50.1967 43.389 50.16 43.45 50.16C43.5105 50.16 43.6095 50.1105 43.67 50.05C43.7305 49.9895 43.8047 49.94 43.835 49.94C43.8652 49.94 43.89 49.9029 43.89 49.8575C43.89 49.8117 43.939 49.775 44 49.775C44.0605 49.775 44.11 49.741 44.11 49.6994C44.11 49.6579 44.1843 49.6089 44.275 49.5908C44.3718 49.5714 44.44 49.5231 44.44 49.4739C44.44 49.4278 44.4779 49.39 44.5243 49.39C44.5705 49.39 44.6227 49.3529 44.6401 49.3075C44.6575 49.2621 44.7062 49.225 44.7484 49.225C44.7905 49.225 44.825 49.1879 44.825 49.1425C44.825 49.0971 44.8621 49.06 44.9075 49.06C44.9533 49.06 44.99 49.0111 44.99 48.95C44.99 48.8642 45.0267 48.84 45.1568 48.84C45.2541 48.84 45.3366 48.8058 45.3551 48.7575C45.3725 48.7121 45.4212 48.675 45.4634 48.675C45.5055 48.675 45.54 48.6408 45.54 48.599C45.54 48.557 45.5895 48.5099 45.65 48.494C45.7105 48.4782 45.76 48.4259 45.76 48.3776C45.76 48.3295 45.7971 48.29 45.8425 48.29C45.8879 48.29 45.925 48.2529 45.925 48.2075C45.925 48.1621 45.9621 48.125 46.0075 48.125C46.0529 48.125 46.09 48.0908 46.09 48.049C46.09 48.007 46.1395 47.9599 46.2 47.944C46.2605 47.9282 46.31 47.8759 46.31 47.8276C46.31 47.7795 46.3471 47.74 46.3925 47.74C46.4379 47.74 46.475 47.7029 46.475 47.6575C46.475 47.6121 46.5121 47.575 46.5575 47.575C46.6029 47.575 46.64 47.5379 46.64 47.4925C46.64 47.4471 46.6709 47.4099 46.7088 47.4097C46.8034 47.4093 47.41 46.8087 47.41 46.7155C47.41 46.674 47.4471 46.64 47.4925 46.64C47.5379 46.64 47.575 46.6029 47.575 46.5575C47.575 46.5121 47.6121 46.475 47.6575 46.475C47.7029 46.475 47.74 46.4408 47.74 46.399C47.74 46.357 47.7895 46.3099 47.85 46.294C47.9105 46.2782 47.96 46.2259 47.96 46.1776C47.96 46.1295 47.9971 46.09 48.0425 46.09C48.0879 46.09 48.125 46.0529 48.125 46.0075C48.125 45.9621 48.1621 45.925 48.2075 45.925C48.2529 45.925 48.29 45.8908 48.29 45.849C48.29 45.807 48.3395 45.7599 48.4 45.744C48.4605 45.7282 48.51 45.6759 48.51 45.6276C48.51 45.5795 48.5471 45.54 48.5925 45.54C48.6379 45.54 48.675 45.5055 48.675 45.4634C48.675 45.4212 48.7121 45.3725 48.7575 45.3551C48.8058 45.3366 48.84 45.2541 48.84 45.1568C48.84 45.0267 48.8642 44.99 48.95 44.99C49.0111 44.99 49.06 44.9533 49.06 44.9075C49.06 44.8621 49.0971 44.825 49.1425 44.825C49.1879 44.825 49.225 44.7905 49.225 44.7484C49.225 44.7062 49.2621 44.6575 49.3075 44.6401C49.3529 44.6227 49.39 44.5705 49.39 44.5243C49.39 44.4779 49.4252 44.44 49.4681 44.44C49.5111 44.44 49.5626 44.3658 49.5825 44.275C49.6024 44.1843 49.6539 44.11 49.6969 44.11C49.7398 44.11 49.775 44.0605 49.775 44C49.775 43.939 49.8117 43.89 49.8575 43.89C49.9029 43.89 49.94 43.8652 49.94 43.835C49.94 43.8047 49.9895 43.7305 50.05 43.67C50.1105 43.6095 50.16 43.5105 50.16 43.45C50.16 43.389 50.1967 43.34 50.2425 43.34C50.2879 43.34 50.325 43.3029 50.325 43.2575C50.325 43.2121 50.3621 43.175 50.4075 43.175C50.4651 43.175 50.49 43.117 50.49 42.9825C50.49 42.8267 50.5109 42.79 50.6 42.79C50.6605 42.79 50.71 42.7555 50.71 42.7134C50.71 42.6712 50.7471 42.6225 50.7925 42.6051C50.8408 42.5866 50.875 42.5041 50.875 42.4068C50.875 42.2951 50.9024 42.24 50.9575 42.24C51.0029 42.24 51.04 42.2152 51.04 42.185C51.04 42.1547 51.0895 42.0805 51.15 42.02C51.2105 41.9595 51.26 41.8605 51.26 41.8C51.26 41.739 51.2967 41.69 51.3425 41.69C51.3975 41.69 51.425 41.635 51.425 41.525C51.425 41.415 51.4525 41.36 51.5075 41.36C51.5567 41.36 51.59 41.3094 51.59 41.2346C51.59 41.1657 51.6395 41.0736 51.7 41.03C51.7605 40.9864 51.81 40.9093 51.81 40.8587C51.81 40.8082 51.8471 40.7525 51.8925 40.7351C51.9379 40.7177 51.975 40.6435 51.975 40.5701C51.975 40.4968 52.0121 40.4225 52.0575 40.4051C52.1058 40.3866 52.14 40.3041 52.14 40.2068C52.14 40.094 52.1671 40.04 52.2239 40.04C52.2737 40.04 52.3216 39.9708 52.3417 39.8703C52.3604 39.777 52.4092 39.6876 52.4503 39.6719C52.4915 39.6561 52.525 39.5743 52.525 39.49C52.525 39.4045 52.5614 39.3228 52.6075 39.3051C52.6529 39.2877 52.69 39.2107 52.69 39.1343C52.69 39.0577 52.7395 38.9455 52.8 38.885C52.8681 38.8169 52.91 38.7017 52.91 38.5825C52.91 38.448 52.9349 38.39 52.9925 38.39C53.0476 38.39 53.075 38.3349 53.075 38.2232C53.075 38.1259 53.1092 38.0434 53.1575 38.0249C53.2073 38.0058 53.24 37.9228 53.24 37.8151C53.24 37.7069 53.2832 37.598 53.35 37.5375C53.4105 37.4828 53.46 37.3702 53.46 37.2874C53.46 37.2042 53.497 37.1225 53.5425 37.1051C53.599 37.0835 53.625 36.9951 53.625 36.8243C53.625 36.6393 53.6463 36.575 53.7075 36.575C53.7698 36.575 53.79 36.5078 53.79 36.3C53.79 36.1026 53.8114 36.025 53.866 36.025C53.9487 36.025 54.0081 35.8622 54.0093 35.633C54.0097 35.5535 54.0471 35.4577 54.0925 35.42C54.1472 35.3746 54.175 35.2514 54.175 35.054C54.175 34.8403 54.1982 34.7476 54.2575 34.7249C54.319 34.7013 54.34 34.6034 54.34 34.3416C54.34 34.0777 54.3591 33.99 54.4166 33.99C54.5198 33.99 54.56 33.8676 54.56 33.5522C54.56 33.3849 54.5901 33.2635 54.6425 33.22C54.7038 33.1691 54.725 33.033 54.725 32.689C54.725 32.3287 54.7432 32.2196 54.8075 32.1949C54.8735 32.1695 54.89 32.0491 54.89 31.5916C54.89 31.2472 54.9119 31.02 54.945 31.02C54.981 31.02 55 29.8192 55 27.5275C55 25.2358 54.981 24.035 54.945 24.035C54.9117 24.035 54.89 23.7986 54.89 23.4359C54.89 22.9541 54.8739 22.8306 54.8075 22.8051C54.743 22.7803 54.725 22.6705 54.725 22.3025C54.725 21.9346 54.707 21.8247 54.6425 21.7999C54.5835 21.7773 54.56 21.685 54.56 21.4761C54.56 21.1332 54.522 21.01 54.4166 21.01C54.359 21.01 54.34 20.9215 54.34 20.6525C54.34 20.3715 54.3224 20.295 54.2575 20.295C54.1933 20.295 54.175 20.2214 54.175 19.9632C54.175 19.7191 54.1533 19.6232 54.0925 19.5999C54.0387 19.5793 54.01 19.4937 54.01 19.3541C54.01 19.2133 53.9723 19.1023 53.9 19.03C53.8264 18.9564 53.79 18.8467 53.79 18.6982C53.79 18.5519 53.762 18.4658 53.7075 18.4449C53.652 18.4236 53.625 18.3363 53.625 18.1775C53.625 18.0187 53.5981 17.9314 53.5425 17.9101C53.4953 17.8921 53.46 17.81 53.46 17.7181C53.46 17.6041 53.4282 17.5495 53.35 17.5291C53.2601 17.5055 53.24 17.454 53.24 17.2476C53.24 17.0598 53.2188 16.995 53.1575 16.995C53.0999 16.995 53.075 16.937 53.075 16.8025C53.075 16.668 53.0501 16.61 52.9925 16.61C52.9349 16.61 52.91 16.552 52.91 16.4175C52.91 16.2983 52.8681 16.1831 52.8 16.115C52.7395 16.0545 52.69 15.9423 52.69 15.8657C52.69 15.7893 52.6529 15.7123 52.6075 15.6949C52.5605 15.6768 52.525 15.5948 52.525 15.5041C52.525 15.3993 52.4968 15.345 52.4425 15.345C52.3971 15.345 52.36 15.2976 52.36 15.2395C52.36 15.0756 52.3007 14.96 52.2166 14.96C52.1679 14.96 52.14 14.8991 52.14 14.7932C52.14 14.6959 52.1058 14.6134 52.0575 14.5949C52.0121 14.5775 51.975 14.5032 51.975 14.4299C51.975 14.3565 51.9379 14.2823 51.8925 14.2649C51.8471 14.2475 51.81 14.2035 51.81 14.167C51.81 14.1306 51.7605 14.0476 51.7 13.9827C51.6395 13.9178 51.59 13.8265 51.59 13.7798C51.59 13.7332 51.5529 13.695 51.5075 13.695C51.4499 13.695 51.425 13.637 51.425 13.5025C51.425 13.3728 51.3996 13.31 51.3469 13.31C51.3039 13.31 51.2529 13.2378 51.2335 13.1495C51.2141 13.0614 51.1627 12.9755 51.1192 12.9588C51.0756 12.9421 51.04 12.8905 51.04 12.8443C51.04 12.798 51.0029 12.76 50.9575 12.76C50.9024 12.76 50.875 12.7049 50.875 12.5932C50.875 12.4959 50.8408 12.4134 50.7925 12.3949C50.7471 12.3775 50.71 12.3288 50.71 12.2866C50.71 12.2445 50.6605 12.21 50.6 12.21C50.5142 12.21 50.49 12.1733 50.49 12.0432C50.49 11.9459 50.4558 11.8634 50.4075 11.8449C50.3621 11.8275 50.325 11.7788 50.325 11.7366C50.325 11.6945 50.2898 11.66 50.2469 11.66C50.2039 11.66 50.152 11.5841 50.1317 11.4913C50.1113 11.3985 50.0599 11.3092 50.0173 11.2929C49.9748 11.2766 49.94 11.2288 49.94 11.1866C49.94 11.1445 49.9029 11.11 49.8575 11.11C49.8121 11.11 49.775 11.0729 49.775 11.0275C49.775 10.9821 49.7406 10.945 49.6987 10.945C49.6548 10.945 49.6068 10.8628 49.5861 10.7525C49.5645 10.6373 49.5179 10.56 49.47 10.56C49.426 10.56 49.39 10.5229 49.39 10.4775C49.39 10.4321 49.3529 10.395 49.3075 10.395C49.2617 10.395 49.225 10.3461 49.225 10.285C49.225 10.224 49.1883 10.175 49.1425 10.175C49.0971 10.175 49.06 10.1379 49.06 10.0925C49.06 10.0467 49.0111 10.01 48.95 10.01C48.8642 10.01 48.84 9.97329 48.84 9.84321C48.84 9.74586 48.8058 9.66336 48.7575 9.64494C48.7121 9.62747 48.675 9.5788 48.675 9.53659C48.675 9.49451 48.6379 9.46 48.5925 9.46C48.5471 9.46 48.51 9.42287 48.51 9.3775C48.51 9.33171 48.4611 9.295 48.4 9.295C48.3267 9.295 48.29 9.25829 48.29 9.185C48.29 9.12395 48.2533 9.075 48.2075 9.075C48.1621 9.075 48.125 9.03788 48.125 8.9925C48.125 8.94713 48.0879 8.91 48.0425 8.91C47.9971 8.91 47.96 8.87287 47.96 8.8275C47.96 8.78171 47.9111 8.745 47.85 8.745C47.7767 8.745 47.74 8.70829 47.74 8.635C47.74 8.57395 47.7033 8.525 47.6575 8.525C47.6121 8.525 47.575 8.48788 47.575 8.4425C47.575 8.39713 47.5379 8.36 47.4925 8.36C47.4471 8.36 47.41 8.32659 47.41 8.28561C47.41 8.18826 46.8255 7.645 46.7209 7.645C46.6764 7.645 46.64 7.5955 46.64 7.535C46.64 7.47395 46.6033 7.425 46.5575 7.425C46.5121 7.425 46.475 7.38788 46.475 7.3425C46.475 7.29713 46.4379 7.26 46.3925 7.26C46.3471 7.26 46.31 7.22288 46.31 7.1775C46.31 7.13171 46.2611 7.095 46.2 7.095C46.1267 7.095 46.09 7.05829 46.09 6.985C46.09 6.92395 46.0533 6.875 46.0075 6.875C45.9621 6.875 45.925 6.83788 45.925 6.7925C45.925 6.74713 45.8879 6.71 45.8425 6.71C45.7971 6.71 45.76 6.67288 45.76 6.6275C45.76 6.58171 45.7111 6.545 45.65 6.545C45.5767 6.545 45.54 6.50829 45.54 6.435C45.54 6.3745 45.5055 6.325 45.4634 6.325C45.4212 6.325 45.3725 6.28788 45.3551 6.2425C45.3366 6.19424 45.2541 6.16 45.1568 6.16C45.0451 6.16 44.99 6.13264 44.99 6.0775C44.99 6.03213 44.9529 5.995 44.9075 5.995C44.8617 5.995 44.825 5.94605 44.825 5.885C44.825 5.8245 44.7905 5.775 44.7484 5.775C44.7062 5.775 44.6575 5.73788 44.6401 5.6925C44.6227 5.64713 44.5705 5.61 44.5243 5.61C44.4779 5.61 44.44 5.57288 44.44 5.5275C44.44 5.4725 44.385 5.445 44.275 5.445C44.1607 5.445 44.11 5.41805 44.11 5.35741C44.11 5.30915 44.0605 5.25676 44 5.24095C43.9395 5.22514 43.89 5.17798 43.89 5.13604C43.89 5.09424 43.8555 5.06 43.8134 5.06C43.7712 5.06 43.7225 5.02288 43.7051 4.9775C43.6866 4.92924 43.6041 4.895 43.5068 4.895C43.3767 4.895 43.34 4.8708 43.34 4.785C43.34 4.72395 43.3033 4.675 43.2575 4.675C43.2121 4.675 43.175 4.63788 43.175 4.5925C43.175 4.53489 43.117 4.51 42.9825 4.51C42.848 4.51 42.79 4.48511 42.79 4.4275C42.79 4.38213 42.7558 4.345 42.714 4.345C42.672 4.345 42.6249 4.2955 42.6091 4.235C42.5882 4.15484 42.534 4.125 42.4101 4.125C42.2956 4.125 42.24 4.09805 42.24 4.0425C42.24 3.99713 42.2055 3.96 42.1634 3.96C42.1212 3.96 42.0725 3.92288 42.0551 3.8775C42.0366 3.82924 41.9541 3.795 41.8568 3.795C41.7267 3.795 41.69 3.7708 41.69 3.685C41.69 3.59947 41.6533 3.575 41.525 3.575C41.415 3.575 41.36 3.5475 41.36 3.4925C41.36 3.44121 41.308 3.41 41.2225 3.41C41.1469 3.41 41.085 3.38566 41.085 3.3561C41.085 3.3264 41.0224 3.28639 40.946 3.26727C40.8697 3.24802 40.7821 3.18574 40.7516 3.12868C40.7204 3.0701 40.637 3.025 40.5606 3.025C40.4767 3.025 40.425 2.99351 40.425 2.9425C40.425 2.88489 40.367 2.86 40.2325 2.86C40.098 2.86 40.04 2.83511 40.04 2.7775C40.04 2.72291 39.9854 2.695 39.8787 2.695C39.7657 2.695 39.707 2.662 39.6825 2.585C39.6584 2.50924 39.5993 2.475 39.4922 2.475C39.4048 2.475 39.3229 2.43884 39.3051 2.3925C39.2869 2.3452 39.2048 2.31 39.1126 2.31C39.0204 2.31 38.9382 2.2748 38.9201 2.2275C38.8985 2.17099 38.8101 2.145 38.6393 2.145C38.4267 2.145 38.39 2.12878 38.39 2.035C38.39 1.9492 38.3533 1.925 38.2232 1.925C38.1259 1.925 38.0434 1.89076 38.0249 1.8425C38.0034 1.78654 37.9156 1.76 37.7516 1.76C37.5735 1.76 37.51 1.73828 37.51 1.6775C37.51 1.62044 37.4527 1.595 37.324 1.595C37.1841 1.595 37.1306 1.56764 37.1091 1.485C37.0855 1.39508 37.034 1.375 36.8276 1.375C36.6398 1.375 36.575 1.35382 36.575 1.2925C36.575 1.23021 36.5078 1.21 36.3 1.21C36.0922 1.21 36.025 1.18979 36.025 1.1275C36.025 1.06576 35.9593 1.045 35.7632 1.045C35.5611 1.045 35.4859 1.01998 35.4328 0.935C35.3775 0.846588 35.3045 0.825 35.0603 0.825C34.841 0.825 34.7478 0.802038 34.7249 0.7425C34.7013 0.681038 34.6034 0.66 34.3416 0.66C34.0658 0.66 33.99 0.642262 33.99 0.5775C33.99 0.513012 33.9151 0.495 33.6457 0.495C33.3611 0.495 33.2896 0.476025 33.2328 0.385C33.1735 0.290125 33.1045 0.275 32.7313 0.275C32.4137 0.275 32.2802 0.253 32.23 0.1925C32.1765 0.128012 32.0249 0.11 31.5358 0.11C31.1553 0.11 30.91 0.0884125 30.91 0.055C30.91 0.018975 29.7367 0 27.5 0C25.2633 0 24.09 0.018975 24.09 0.055ZM37.565 15.4025C38.485 15.5735 39.2216 15.8489 39.82 16.2456C40.0667 16.4091 41.085 17.3939 41.085 17.4688C41.085 17.4906 41.122 17.5475 41.1672 17.5953C41.6015 18.0554 42.1832 19.1 42.4564 19.91C42.7534 20.7904 42.7592 20.8406 42.7609 22.55C42.7625 24.2151 42.7019 24.8549 42.4815 25.4943C42.4394 25.6164 42.4042 25.7525 42.4031 25.7968C42.4021 25.8412 42.3534 25.9765 42.295 26.0975C42.2366 26.2185 42.1879 26.3449 42.1869 26.3784C42.1843 26.4608 41.8103 27.1758 41.713 27.2843C41.6701 27.3321 41.635 27.3912 41.635 27.4157C41.635 27.4788 41.1004 28.1298 40.7487 28.4951C40.2762 28.9858 39.2037 29.755 38.9921 29.755C38.9531 29.755 38.8821 29.7875 38.8343 29.8269C38.7866 29.8665 38.5619 29.9552 38.335 30.0238C38.1081 30.0926 37.8631 30.1726 37.7906 30.2019C37.1779 30.449 34.8931 30.4439 34.5675 30.1947C34.5372 30.1716 34.4259 30.1361 34.32 30.1159C34.1374 30.081 34.0318 30.0447 33.4813 29.828C33.3015 29.7572 32.5703 29.4183 32.1612 29.2163C32.1386 29.205 32.12 30.3974 32.12 31.866C32.12 34.4495 32.1166 34.5379 32.0136 34.5931C31.8696 34.6702 28.8504 34.6702 28.7064 34.5931C28.539 34.5034 28.539 15.8766 28.7064 15.7869C28.8658 15.7017 31.9681 15.7101 32.054 15.796C32.0921 15.8341 32.12 16.0164 32.12 16.2268C32.12 16.7284 32.1432 16.7376 32.4917 16.3763C32.5427 16.3233 32.6026 16.28 32.6248 16.28C32.6469 16.28 32.759 16.2155 32.8738 16.1369C33.1763 15.9294 33.9409 15.5789 34.1891 15.5341C34.3065 15.5129 34.4469 15.4726 34.5011 15.4445C34.7688 15.3062 36.8904 15.2769 37.565 15.4025ZM16.9195 15.7066C17.0985 15.7425 17.1892 15.9028 17.3833 16.5275C17.449 16.7392 17.5372 16.9905 17.579 17.0858C17.6208 17.1812 17.655 17.2967 17.655 17.3426C17.655 17.3885 17.6899 17.4962 17.7327 17.5818C17.7754 17.6674 17.8658 17.9231 17.9334 18.15C18.0012 18.3769 18.0763 18.5882 18.1005 18.6197C18.1246 18.6511 18.1686 18.7748 18.1983 18.8947C18.2606 19.1456 18.7331 20.5721 18.8354 20.8175C18.8979 20.9675 19.0886 21.5335 19.5399 22.9075C19.6292 23.1798 19.7368 23.4805 19.7787 23.5758C19.8206 23.6712 19.855 23.7867 19.855 23.8326C19.855 23.8785 19.8899 23.9862 19.9327 24.0718C19.9754 24.1574 20.0658 24.4131 20.1334 24.64C20.2012 24.8669 20.274 25.0773 20.2953 25.1075C20.3165 25.1378 20.36 25.2615 20.3919 25.3825C20.4238 25.5035 20.4808 25.6891 20.5183 25.795C20.556 25.9009 20.5975 26.0246 20.6107 26.07C20.6376 26.1627 20.7756 25.8082 20.9534 25.19C21.0185 24.9631 21.1075 24.6777 21.1509 24.5557C21.1944 24.4336 21.23 24.3012 21.23 24.2615C21.23 24.2217 21.2647 24.1112 21.307 24.0158C21.3492 23.9205 21.4093 23.7435 21.4404 23.6225C21.4716 23.5015 21.5383 23.2664 21.5889 23.1C21.6393 22.9336 21.7177 22.6614 21.7631 22.495C21.8083 22.3286 21.8679 22.169 21.8952 22.1403C21.9226 22.1115 21.945 22.0476 21.945 21.9982C21.945 21.8842 22.1464 21.2046 22.2508 20.9668C22.2944 20.8675 22.3301 20.7314 22.3303 20.6643C22.3305 20.5974 22.3641 20.4783 22.4051 20.3999C22.4461 20.3214 22.4971 20.1637 22.5185 20.0494C22.54 19.935 22.5785 19.8012 22.604 19.752C22.6766 19.612 22.88 18.9284 22.8803 18.8227C22.8805 18.7703 22.9153 18.6611 22.9577 18.58C23 18.4988 23.0508 18.3503 23.0706 18.25C23.0902 18.1496 23.1272 18.018 23.1527 17.9575C23.2244 17.7866 23.4171 17.1523 23.4572 16.9544C23.4772 16.8564 23.5164 16.7621 23.5443 16.7449C23.5722 16.7276 23.5962 16.6592 23.5977 16.593C23.6045 16.2983 23.8402 15.7626 23.98 15.724C24.2374 15.6529 27.4164 15.6684 27.489 15.741C27.5822 15.8342 27.5682 15.9976 27.445 16.2525C27.3866 16.3735 27.3379 16.5129 27.3369 16.5624C27.3358 16.6119 27.298 16.7233 27.2528 16.8099C27.2077 16.8966 27.1706 17.0185 27.1703 17.0808C27.1701 17.143 27.1337 17.242 27.0893 17.3008C27.0449 17.3595 27.0077 17.4533 27.0068 17.5092C27.0058 17.5651 26.9695 17.6888 26.9261 17.7842C26.8826 17.8795 26.8227 18.0441 26.793 18.15C26.7245 18.3938 26.6259 18.6806 26.5379 18.8925C26.4778 19.0373 26.1489 20.0144 25.9177 20.735C25.8739 20.8711 25.8078 21.0568 25.7705 21.1475C25.7334 21.2383 25.6586 21.461 25.6044 21.6425C25.5501 21.824 25.4719 22.0382 25.4304 22.1185C25.389 22.1988 25.3549 22.3102 25.3547 22.366C25.3544 22.4219 25.3197 22.5339 25.2773 22.615C25.235 22.6962 25.1829 22.8447 25.1614 22.945C25.1398 23.0454 25.1017 23.1532 25.0766 23.1847C25.0514 23.2161 25.0064 23.3398 24.9766 23.4597C24.9205 23.6859 24.783 24.0918 24.698 24.2825C24.6709 24.343 24.5858 24.5905 24.5086 24.8325C24.4314 25.0745 24.2296 25.6685 24.0603 26.1525C23.8909 26.6365 23.728 27.1305 23.6983 27.2503C23.6686 27.3702 23.6246 27.494 23.6005 27.5253C23.5763 27.5568 23.5012 27.7681 23.4334 27.995C23.3658 28.2219 23.2754 28.4776 23.2327 28.5631C23.1899 28.6488 23.155 28.7565 23.155 28.8024C23.155 28.8483 23.1205 28.9638 23.0784 29.0593C22.9917 29.2555 22.8401 29.7006 22.7755 29.9487C22.7517 30.0403 22.7036 30.1686 22.6687 30.2339C22.6336 30.2992 22.605 30.394 22.605 30.4443C22.605 30.4946 22.5716 30.6138 22.5308 30.7093C22.4899 30.8045 22.4014 31.031 22.334 31.2125C22.2666 31.394 22.1639 31.6443 22.1057 31.7686C22.0476 31.8929 22 32.0207 22 32.0526C22 32.0847 21.9814 32.119 21.9588 32.1292C21.9361 32.1393 21.8582 32.2589 21.7858 32.395C21.2204 33.4576 20.2719 34.3636 19.5668 34.5144C19.4682 34.5355 19.3586 34.576 19.3232 34.6044C19.0796 34.8003 16.8186 34.776 16.005 34.5689C14.9787 34.3075 15.07 34.4846 15.07 32.755C15.07 31.1348 15.1007 31.0259 15.4969 31.2355C15.6574 31.3203 16.7203 31.4604 17.2021 31.4601C18.5809 31.4596 19.1103 30.7902 18.5573 29.7465C18.5148 29.6662 18.4792 29.5548 18.4782 29.499C18.4772 29.4431 18.4401 29.3495 18.3957 29.2908C18.3513 29.232 18.3142 29.1453 18.3131 29.0983C18.3121 29.0511 18.2634 28.9135 18.205 28.7925C18.1466 28.6715 18.0971 28.5354 18.0951 28.49C18.0931 28.4446 18.0551 28.3595 18.0107 28.3008C17.9663 28.242 17.9292 28.143 17.9282 28.0808C17.9272 28.0185 17.8901 27.9195 17.8457 27.8608C17.8013 27.8019 17.7642 27.7153 17.7631 27.6683C17.7621 27.6211 17.7134 27.4835 17.655 27.3625C17.5966 27.2415 17.5471 27.1054 17.5451 27.06C17.5431 27.0146 17.5051 26.9295 17.4607 26.8708C17.4163 26.812 17.3792 26.713 17.3782 26.6508C17.3773 26.5885 17.3401 26.4895 17.2957 26.4308C17.2513 26.372 17.2142 26.2853 17.2131 26.2383C17.2121 26.1911 17.1634 26.0535 17.105 25.9325C17.0466 25.8115 16.9979 25.6836 16.9969 25.6482C16.9958 25.6128 16.9591 25.5138 16.9151 25.4282C16.8711 25.3426 16.7809 25.124 16.7144 24.9425C16.648 24.761 16.5601 24.5345 16.5193 24.4393C16.4784 24.3438 16.445 24.2407 16.445 24.2099C16.445 24.1791 16.4091 24.0838 16.3651 23.9982C16.3211 23.9126 16.2309 23.694 16.1644 23.5125C16.098 23.331 16.0101 23.1045 15.9693 23.0092C15.9284 22.9138 15.895 22.7978 15.895 22.7512C15.895 22.7046 15.8712 22.6517 15.8421 22.6337C15.8129 22.6157 15.7649 22.5215 15.7354 22.4243C15.6504 22.1441 15.5121 21.7676 15.425 21.5793C15.381 21.4838 15.3442 21.3725 15.3432 21.3318C15.3423 21.2909 15.3051 21.2095 15.2607 21.1508C15.2163 21.092 15.1792 20.993 15.1782 20.9308C15.1773 20.8685 15.1401 20.7695 15.0957 20.7108C15.0513 20.6519 15.0142 20.5653 15.0131 20.5183C15.0121 20.4711 14.9634 20.3335 14.905 20.2125C14.8466 20.0915 14.7971 19.9554 14.7951 19.91C14.7931 19.8646 14.7551 19.7795 14.7107 19.7208C14.6663 19.6619 14.6292 19.563 14.6282 19.5008C14.6273 19.4385 14.5901 19.3395 14.5457 19.2808C14.5013 19.222 14.4642 19.1353 14.4631 19.0883C14.4621 19.0411 14.4134 18.9035 14.355 18.7825C14.2966 18.6615 14.2479 18.5336 14.2469 18.4982C14.2458 18.4628 14.2091 18.3638 14.1651 18.2782C14.1211 18.1926 14.0309 17.974 13.9644 17.7925C13.898 17.611 13.8101 17.3845 13.7693 17.2893C13.7284 17.1938 13.695 17.0907 13.695 17.0599C13.695 17.0291 13.6591 16.9338 13.6151 16.8482C13.5711 16.7626 13.4816 16.544 13.4162 16.3625C13.3507 16.181 13.2758 15.9903 13.2496 15.9386C13.1304 15.7033 13.3299 15.675 15.1029 15.675C16.015 15.675 16.8325 15.6893 16.9195 15.7066ZM35.145 18.5901C34.2623 18.7474 33.0296 19.5488 32.8631 20.0735C32.8435 20.1348 32.807 20.185 32.7817 20.185C32.7565 20.185 32.7089 20.2531 32.6762 20.3362C32.6435 20.4194 32.5927 20.5246 32.5634 20.57C32.4746 20.7076 32.3484 21.0187 32.2312 21.3884C32.0803 21.8646 32.0651 23.8959 32.2091 24.3375C32.3081 24.6407 32.483 25.0617 32.5636 25.19C32.592 25.2354 32.6402 25.3304 32.6706 25.4011C32.9106 25.9586 33.7176 26.6731 34.485 27.0072C35.0607 27.2579 36.6923 27.1497 36.96 26.843C36.9751 26.8257 37.0975 26.74 37.2321 26.6527C37.5163 26.4683 37.5713 26.4246 37.773 26.223C38.2493 25.7466 38.756 24.8384 38.8554 24.2825C38.8772 24.1615 38.9235 24.0277 38.9587 23.9854C39.0475 23.8778 39.0475 21.8822 38.9587 21.7746C38.9235 21.7323 38.8765 21.5993 38.8541 21.4794C38.7963 21.1705 38.4882 20.4548 38.3487 20.3057C38.3109 20.2652 38.28 20.2051 38.28 20.1719C38.28 20.0965 38.2269 20.0353 37.7168 19.5218C37.0067 18.8074 35.9909 18.4393 35.145 18.5901ZM42.724 35.981C42.8182 36.0752 42.8182 39.0548 42.724 39.149C42.6058 39.2673 12.3314 39.2424 12.2005 39.124C12.0579 38.9949 12.045 36.143 12.1865 36.0015C12.3007 35.8871 42.6097 35.8667 42.724 35.981Z" fill="#232323"/>
<path fill-rule="evenodd" clip-rule="evenodd" d="M12.3144 36.1142C12.2848 36.15 12.2693 36.7766 12.2778 37.5992L12.2925 39.0225L27.4862 39.0364L42.68 39.0501V37.5653V36.0804L27.5228 36.0664C16.3622 36.0562 12.3522 36.0687 12.3144 36.1142Z" fill="#F7D00B"/>
<path fill-rule="evenodd" clip-rule="evenodd" d="M35.1336 15.3463C34.8399 15.3723 34.5553 15.4166 34.5011 15.4445C34.4469 15.4726 34.3065 15.5129 34.1891 15.534C33.9409 15.5789 33.1763 15.9293 32.8738 16.1368C32.759 16.2155 32.6469 16.28 32.6248 16.28C32.6026 16.28 32.5427 16.3233 32.4917 16.3762C32.1432 16.7376 32.12 16.7284 32.12 16.2268C32.12 16.0164 32.0921 15.8341 32.054 15.796C31.9681 15.71 28.8658 15.7016 28.7064 15.7869C28.539 15.8765 28.539 34.5034 28.7064 34.593C28.8504 34.6702 31.8696 34.6702 32.0136 34.593C32.1166 34.5379 32.12 34.4495 32.12 31.866C32.12 30.3974 32.1386 29.205 32.1613 29.2162C33.1858 29.7224 33.969 30.0488 34.32 30.1159C34.4259 30.1361 34.5373 30.1716 34.5675 30.1947C34.8931 30.4438 37.178 30.4489 37.7907 30.2018C37.8631 30.1726 38.1081 30.0925 38.335 30.0238C38.5619 29.9552 38.7866 29.8665 38.8343 29.8269C38.8821 29.7874 38.9531 29.755 38.9921 29.755C39.2037 29.755 40.2762 28.9858 40.7487 28.4951C41.1004 28.1297 41.635 27.4788 41.635 27.4157C41.635 27.3912 41.6701 27.3321 41.713 27.2842C41.8103 27.1757 42.1843 26.4607 42.1869 26.3784C42.1879 26.3448 42.2366 26.2185 42.295 26.0975C42.3535 25.9765 42.4021 25.8412 42.4031 25.7968C42.4042 25.7525 42.4394 25.6164 42.4815 25.4943C42.7019 24.8549 42.7625 24.2151 42.7609 22.55C42.7592 20.8406 42.7534 20.7904 42.4564 19.91C42.1832 19.1 41.6015 18.0554 41.1672 17.5953C41.122 17.5474 41.085 17.4905 41.085 17.4688C41.085 17.3939 40.0667 16.4091 39.82 16.2456C39.2216 15.8489 38.485 15.5735 37.565 15.4024C37.1672 15.3285 35.7136 15.2949 35.1336 15.3463ZM36.9325 15.4535C37.6012 15.5212 38.6095 15.7474 38.864 15.8866C38.9209 15.9177 39.1036 16.0084 39.27 16.0882C39.4364 16.1678 39.6466 16.2725 39.7371 16.3209C39.9124 16.4144 40.8707 17.3514 41.0735 17.6275C41.1402 17.7182 41.2814 17.9085 41.3874 18.0504C41.4932 18.1923 41.58 18.3328 41.58 18.3627C41.58 18.3927 41.6109 18.4499 41.6488 18.4897C41.7109 18.5555 41.9038 18.9363 42.2319 19.641C42.2969 19.7804 42.35 19.9368 42.35 19.9883C42.35 20.0399 42.3735 20.1261 42.4023 20.1797C42.8405 20.9986 42.7336 24.7652 42.2407 25.8775C42.2139 25.938 42.1762 26.0493 42.157 26.125C42.1226 26.2601 41.7449 27.0612 41.6901 27.115C41.6747 27.1301 41.5718 27.2809 41.4613 27.4501C40.5101 28.9063 39.1192 29.7954 37.1554 30.2025C36.7243 30.2919 35.1229 30.2379 34.76 30.1217C34.5936 30.0685 34.3338 29.9869 34.1825 29.9406C33.6863 29.7884 33.411 29.6762 32.6612 29.3206C31.9461 28.9813 32.01 28.7391 32.01 31.79C32.01 34.1359 32.0007 34.4217 31.923 34.4516C31.8095 34.4951 28.9105 34.4951 28.7971 34.4516C28.6822 34.4076 28.6613 16.0756 28.776 15.961C28.8459 15.8911 31.7477 15.8611 31.923 15.9284C31.9913 15.9545 32.01 16.0477 32.01 16.3625C32.01 16.8653 32.0894 16.9202 32.4045 16.6355C33.4469 15.6937 35.0858 15.2659 36.9325 15.4535ZM13.3232 15.7598C13.2345 15.8221 13.2147 15.8698 13.2497 15.9386C13.2758 15.9903 13.3507 16.181 13.4162 16.3625C13.4816 16.544 13.5711 16.7626 13.6151 16.8481C13.6591 16.9338 13.695 17.0291 13.695 17.0599C13.695 17.0907 13.7284 17.1938 13.7693 17.2892C13.8101 17.3845 13.898 17.611 13.9644 17.7925C14.0309 17.974 14.1211 18.1926 14.1651 18.2781C14.2091 18.3638 14.2458 18.4628 14.2469 18.4981C14.2479 18.5336 14.2966 18.6615 14.355 18.7825C14.4135 18.9035 14.4621 19.0411 14.4631 19.0883C14.4642 19.1353 14.5013 19.2219 14.5457 19.2808C14.5901 19.3395 14.6273 19.4385 14.6282 19.5008C14.6292 19.5629 14.6663 19.6619 14.7107 19.7208C14.7551 19.7795 14.7931 19.8646 14.7952 19.91C14.7971 19.9553 14.8466 20.0915 14.905 20.2125C14.9635 20.3335 15.0121 20.4711 15.0131 20.5183C15.0142 20.5653 15.0513 20.6519 15.0957 20.7108C15.1401 20.7695 15.1773 20.8685 15.1782 20.9308C15.1792 20.9929 15.2163 21.0919 15.2607 21.1508C15.3051 21.2095 15.3423 21.2909 15.3432 21.3317C15.3442 21.3724 15.381 21.4838 15.425 21.5792C15.5121 21.7676 15.6504 22.1441 15.7354 22.4243C15.7649 22.5215 15.8129 22.6157 15.8421 22.6337C15.8712 22.6517 15.895 22.7045 15.895 22.7511C15.895 22.7977 15.9284 22.9138 15.9693 23.0092C16.0101 23.1045 16.098 23.331 16.1644 23.5125C16.2309 23.694 16.3211 23.9126 16.3651 23.9981C16.4091 24.0838 16.445 24.1791 16.445 24.2099C16.445 24.2407 16.4784 24.3438 16.5193 24.4392C16.5601 24.5345 16.648 24.761 16.7144 24.9425C16.7809 25.124 16.8711 25.3426 16.9151 25.4281C16.9591 25.5138 16.9958 25.6128 16.9969 25.6481C16.9979 25.6836 17.0466 25.8115 17.105 25.9325C17.1635 26.0535 17.2121 26.1911 17.2131 26.2383C17.2142 26.2853 17.2513 26.3719 17.2957 26.4308C17.3401 26.4895 17.3773 26.5885 17.3782 26.6508C17.3792 26.7129 17.4163 26.8119 17.4607 26.8708C17.5051 26.9295 17.5431 27.0146 17.5452 27.06C17.5471 27.1053 17.5966 27.2415 17.655 27.3625C17.7134 27.4835 17.7621 27.6211 17.7631 27.6683C17.7642 27.7153 17.8013 27.8019 17.8457 27.8608C17.8901 27.9195 17.9273 28.0185 17.9282 28.0808C17.9292 28.1429 17.9663 28.2419 18.0107 28.3008C18.0551 28.3595 18.0931 28.4446 18.0952 28.49C18.0971 28.5353 18.1466 28.6715 18.205 28.7925C18.2634 28.9135 18.3121 29.0511 18.3131 29.0983C18.3142 29.1453 18.3513 29.2319 18.3957 29.2908C18.4401 29.3495 18.4773 29.4431 18.4782 29.4989C18.4792 29.5548 18.5148 29.6661 18.5573 29.7464C19.1103 30.7902 18.5809 31.4596 17.2021 31.4601C16.7203 31.4604 15.6574 31.3203 15.497 31.2354C15.1007 31.0259 15.07 31.1348 15.07 32.7549C15.07 34.4846 14.9787 34.3075 16.005 34.5688C16.8186 34.7759 19.0797 34.8003 19.3232 34.6043C19.3586 34.576 19.4682 34.5354 19.5668 34.5144C20.2719 34.3636 21.2204 33.4576 21.7858 32.395C21.8583 32.2588 21.9361 32.1392 21.9588 32.1292C21.9815 32.119 22 32.0846 22 32.0526C22 32.0207 22.0476 31.8928 22.1057 31.7685C22.1639 31.6442 22.2666 31.394 22.334 31.2125C22.4014 31.031 22.4899 30.8045 22.5308 30.7092C22.5716 30.6138 22.605 30.4946 22.605 30.4443C22.605 30.3939 22.6336 30.2992 22.6687 30.2339C22.7036 30.1686 22.7517 30.0403 22.7755 29.9487C22.8401 29.7005 22.9917 29.2554 23.0784 29.0592C23.1205 28.9638 23.155 28.8483 23.155 28.8024C23.155 28.7564 23.1899 28.6488 23.2327 28.5631C23.2755 28.4776 23.3658 28.2218 23.4335 27.995C23.5012 27.7681 23.5763 27.5568 23.6005 27.5253C23.6246 27.4939 23.6686 27.3702 23.6983 27.2503C23.728 27.1305 23.8909 26.6365 24.0603 26.1525C24.2296 25.6685 24.4314 25.0745 24.5086 24.8325C24.5858 24.5905 24.6709 24.343 24.698 24.2825C24.783 24.0918 24.9205 23.6859 24.9766 23.4597C25.0064 23.3398 25.0514 23.216 25.0766 23.1847C25.1017 23.1532 25.1398 23.0454 25.1614 22.945C25.1829 22.8446 25.235 22.6961 25.2773 22.615C25.3197 22.5339 25.3545 22.4218 25.3547 22.366C25.3549 22.3102 25.389 22.1988 25.4304 22.1185C25.4719 22.0382 25.5501 21.824 25.6044 21.6425C25.6586 21.461 25.7334 21.2382 25.7705 21.1475C25.8078 21.0567 25.8739 20.8711 25.9177 20.735C26.1489 20.0143 26.4778 19.0373 26.5379 18.8925C26.6259 18.6806 26.7245 18.3938 26.793 18.15C26.8227 18.0441 26.8826 17.8795 26.9261 17.7842C26.9695 17.6888 27.0058 17.565 27.0068 17.5092C27.0078 17.4533 27.0449 17.3595 27.0893 17.3008C27.1337 17.2419 27.1702 17.1429 27.1703 17.0808C27.1706 17.0185 27.2077 16.8965 27.2528 16.8099C27.298 16.7233 27.3358 16.6119 27.3369 16.5624C27.3379 16.5129 27.3866 16.3735 27.445 16.2525C27.5682 15.9975 27.5822 15.8342 27.489 15.741C27.4164 15.6684 24.2374 15.6528 23.98 15.7239C23.8402 15.7626 23.6045 16.2983 23.5978 16.5929C23.5962 16.6592 23.5722 16.7275 23.5443 16.7449C23.5164 16.762 23.4772 16.8564 23.4572 16.9544C23.4171 17.1523 23.2244 17.7866 23.1527 17.9575C23.1272 18.018 23.0902 18.1496 23.0706 18.2499C23.0508 18.3503 23 18.4988 22.9577 18.5799C22.9153 18.6611 22.8806 18.7702 22.8803 18.8226C22.88 18.9284 22.6767 19.612 22.6041 19.752C22.5785 19.8012 22.54 19.935 22.5185 20.0494C22.4971 20.1637 22.4461 20.3214 22.4051 20.3999C22.3641 20.4783 22.3306 20.5973 22.3303 20.6643C22.3301 20.7314 22.2944 20.8675 22.2508 20.9668C22.1465 21.2045 21.945 21.8842 21.945 21.9982C21.945 22.0475 21.9226 22.1115 21.8952 22.1402C21.8679 22.169 21.8083 22.3286 21.7631 22.495C21.7177 22.6613 21.6394 22.9336 21.5889 23.1C21.5383 23.2663 21.4716 23.5015 21.4404 23.6225C21.4093 23.7435 21.3492 23.9204 21.307 24.0157C21.2647 24.1111 21.23 24.2217 21.23 24.2614C21.23 24.3012 21.1944 24.4336 21.151 24.5557C21.1075 24.6776 21.0185 24.9631 20.9534 25.19C20.7756 25.8082 20.6377 26.1626 20.6107 26.07C20.5975 26.0246 20.556 25.9008 20.5183 25.795C20.4808 25.6891 20.4238 25.5035 20.3919 25.3825C20.36 25.2615 20.3165 25.1377 20.2953 25.1075C20.274 25.0772 20.2012 24.8668 20.1335 24.64C20.0658 24.4131 19.9755 24.1573 19.9327 24.0718C19.8899 23.9862 19.855 23.8785 19.855 23.8326C19.855 23.7866 19.8206 23.6711 19.7787 23.5757C19.7368 23.4804 19.6292 23.1797 19.5399 22.9075C19.0886 21.5334 18.8979 20.9675 18.8355 20.8175C18.7332 20.572 18.2606 19.1456 18.1983 18.8947C18.1686 18.7748 18.1246 18.651 18.1005 18.6197C18.0763 18.5882 18.0012 18.3768 17.9335 18.15C17.8658 17.9231 17.7755 17.6673 17.7327 17.5818C17.6899 17.4962 17.655 17.3885 17.655 17.3426C17.655 17.2966 17.6208 17.1811 17.579 17.0857C17.5372 16.9904 17.449 16.7392 17.3833 16.5275C17.1892 15.9028 17.0986 15.7425 16.9195 15.7066C16.5241 15.6275 13.4471 15.673 13.3232 15.7598ZM17.1027 16.1287C17.1694 16.3178 17.2557 16.5469 17.2946 16.6377C17.3335 16.7285 17.3833 16.885 17.4053 16.9852C17.4273 17.0853 17.48 17.2338 17.5223 17.3149C17.5647 17.3961 17.5995 17.5132 17.5997 17.5752C17.5999 17.6372 17.6212 17.7115 17.647 17.7402C17.6729 17.769 17.7635 18.0152 17.8483 18.2875C17.9332 18.5597 18.0217 18.8196 18.0452 18.865C18.0688 18.9103 18.1508 19.1455 18.2277 19.3875C18.4792 20.1791 18.5457 20.3751 18.6234 20.5507C18.6655 20.6461 18.7 20.7711 18.7 20.8285C18.7 20.8859 18.7212 20.9565 18.747 20.9852C18.7729 21.014 18.8635 21.2602 18.9483 21.5325C19.0332 21.8047 19.1217 22.0646 19.1452 22.11C19.1688 22.1553 19.2508 22.3905 19.3277 22.6325C19.5792 23.4241 19.6457 23.6201 19.7234 23.7957C19.7655 23.8911 19.8 24.0196 19.8 24.0813C19.8 24.143 19.8223 24.2073 19.8495 24.224C19.8767 24.2408 19.9287 24.3786 19.965 24.53C20.0013 24.6814 20.0533 24.8191 20.0805 24.8359C20.1077 24.8527 20.13 24.9169 20.13 24.9786C20.13 25.0404 20.1645 25.1688 20.2067 25.2642C20.2489 25.3595 20.3404 25.6179 20.41 25.8384C20.6045 26.4551 20.7983 26.4107 20.9237 25.7207C20.9447 25.6043 20.9946 25.431 21.0344 25.3357C21.0741 25.2404 21.1483 25.014 21.1994 24.8325C21.2502 24.651 21.3177 24.4282 21.3491 24.3375C21.3806 24.2467 21.4378 24.0487 21.4764 23.8975C21.5151 23.7462 21.5712 23.5606 21.6011 23.485C21.6312 23.4093 21.6993 23.199 21.7525 23.0175C21.8056 22.836 21.8955 22.545 21.952 22.3709C22.0087 22.197 22.055 22.0101 22.055 21.9557C22.055 21.9014 22.0774 21.8335 22.1048 21.8047C22.1321 21.776 22.1913 21.6163 22.2361 21.45C22.3242 21.1229 22.3999 20.87 22.7465 19.745C22.7886 19.6088 22.8602 19.3613 22.9057 19.195C22.9514 19.0286 23.0117 18.843 23.0397 18.7825C23.0677 18.722 23.1153 18.5735 23.1452 18.4525C23.1754 18.3315 23.2254 18.1582 23.2565 18.0675C23.2876 17.9767 23.3548 17.754 23.4057 17.5725C23.4567 17.391 23.5309 17.1645 23.5707 17.0692C23.6104 16.9739 23.6602 16.8007 23.6814 16.6842C23.7024 16.5678 23.7535 16.4056 23.7948 16.324C23.8362 16.2423 23.87 16.1265 23.87 16.0666C23.87 15.7935 23.925 15.785 25.6753 15.7858C27.4817 15.7868 27.5069 15.791 27.3712 16.0769C27.321 16.1826 27.28 16.3196 27.28 16.3813C27.28 16.443 27.2577 16.5073 27.2305 16.524C27.2033 16.5408 27.1513 16.6786 27.115 16.83C27.0787 16.9814 27.0267 17.1191 26.9995 17.1359C26.9723 17.1527 26.95 17.2169 26.95 17.2786C26.95 17.3404 26.9145 17.4688 26.8711 17.5642C26.8276 17.6595 26.7673 17.8241 26.737 17.93C26.7066 18.0358 26.5436 18.5185 26.3743 19.0025C26.2052 19.4865 26.0042 20.0805 25.9274 20.3225C25.8507 20.5645 25.7688 20.7996 25.7452 20.845C25.7217 20.8903 25.6332 21.1502 25.5483 21.4225C25.4635 21.6947 25.3729 21.941 25.347 21.9697C25.3212 21.9985 25.2999 22.0727 25.2997 22.1347C25.2995 22.1967 25.2615 22.3201 25.2152 22.4089C25.1688 22.4976 25.1088 22.6585 25.0814 22.7664C25.023 22.9978 24.7152 23.9043 24.6415 24.0625C24.6133 24.123 24.5663 24.2591 24.537 24.365C24.5077 24.4708 24.3066 25.0648 24.09 25.685C23.8736 26.3051 23.67 26.9115 23.6376 27.0325C23.6053 27.1535 23.5612 27.2772 23.5395 27.3075C23.5177 27.3377 23.4311 27.5852 23.347 27.8575C23.263 28.1297 23.1729 28.376 23.147 28.4047C23.1212 28.4335 23.0999 28.5077 23.0997 28.5697C23.0995 28.6317 23.0615 28.7551 23.0152 28.8439C22.9688 28.9326 22.9086 29.0935 22.8811 29.2014C22.8122 29.472 22.4991 30.4049 22.4063 30.6157C22.3644 30.7111 22.33 30.8361 22.33 30.8935C22.33 30.9509 22.3098 31.0215 22.2851 31.0502C22.2603 31.079 22.1683 31.2881 22.0805 31.515C21.9927 31.7418 21.9078 31.9398 21.8917 31.955C21.8756 31.9701 21.7906 32.1186 21.7026 32.285C20.6934 34.1943 19.122 34.947 16.885 34.5928C16.3412 34.5067 15.7623 34.3853 15.51 34.3046L15.2625 34.2254L15.2478 32.7812L15.2332 31.337L15.5284 31.3739C15.691 31.3942 15.9427 31.4466 16.0882 31.4904C16.531 31.6237 17.8148 31.6001 18.1393 31.4527C18.9195 31.0983 19.072 30.6626 18.7231 29.7837C18.6148 29.5108 18.4931 29.2008 18.4525 29.095C18.412 28.9891 18.2882 28.6673 18.1775 28.38C18.0668 28.0926 17.9431 27.7708 17.9025 27.665C17.862 27.5591 17.7382 27.2373 17.6275 26.95C17.5168 26.6626 17.3931 26.3408 17.3525 26.235C17.312 26.1291 17.1882 25.8073 17.0775 25.52C16.9668 25.2326 16.8431 24.9108 16.8025 24.805C16.762 24.6991 16.6382 24.3773 16.5275 24.09C16.4168 23.8026 16.2888 23.4685 16.243 23.3475C16.1972 23.2265 16.1285 23.0532 16.0901 22.9625C16.0518 22.8717 15.9654 22.649 15.8982 22.4675C15.6974 21.925 15.6137 21.7063 15.5401 21.5325C15.5018 21.4417 15.4154 21.219 15.3482 21.0375C15.1474 20.495 15.0637 20.2763 14.9901 20.1025C14.9518 20.0117 14.8654 19.789 14.7982 19.6075C14.6626 19.2412 14.6186 19.1254 14.3275 18.37C14.2168 18.0826 14.0931 17.7608 14.0525 17.655C13.6986 16.7303 13.5665 16.392 13.4988 16.2368C13.4141 16.0428 13.3977 15.8807 13.4567 15.8217C13.4768 15.8015 14.2782 15.785 15.2375 15.785H16.9815L17.1027 16.1287ZM34.7875 18.5197C34.727 18.5347 34.6528 18.5655 34.6225 18.5883C34.5923 18.6111 34.5004 18.6458 34.4183 18.6655C33.8033 18.8122 32.6169 19.9492 32.4199 20.5804C32.398 20.6503 32.3627 20.7198 32.3414 20.735C32.0733 20.9253 31.8687 23.5147 32.0632 24.255C32.1437 24.561 32.301 24.995 32.3423 25.025C32.3631 25.0401 32.3991 25.1143 32.4224 25.19C32.5967 25.7583 33.4029 26.576 34.2573 27.0512C35.9143 27.973 38.1842 26.7275 38.9366 24.4838C39.384 23.1495 39.119 20.9749 38.4123 20.1807C38.3698 20.1329 38.335 20.0708 38.335 20.0427C38.335 19.8572 37.3461 18.9755 36.905 18.7678C36.3318 18.4978 35.3465 18.3823 34.7875 18.5197ZM36.3275 18.6815C36.8797 18.8442 37.2901 19.0925 37.7168 19.5218C38.2269 20.0352 38.28 20.0964 38.28 20.1719C38.28 20.205 38.3109 20.2651 38.3488 20.3057C38.4882 20.4547 38.7963 21.1704 38.8541 21.4794C38.8765 21.5993 38.9235 21.7323 38.9587 21.7746C39.0475 21.8821 39.0475 23.8778 38.9587 23.9853C38.9235 24.0277 38.8772 24.1615 38.8554 24.2825C38.7914 24.6405 38.5206 25.2312 38.2257 25.6561C37.8586 26.1849 37.6855 26.3586 37.2321 26.6527C37.0975 26.74 36.9751 26.8257 36.96 26.843C36.6923 27.1496 35.0607 27.2578 34.485 27.0072C33.7176 26.673 32.9106 25.9586 32.6706 25.401C32.6402 25.3304 32.5921 25.2353 32.5636 25.19C32.483 25.0617 32.3081 24.6407 32.2091 24.3375C32.0652 23.8958 32.0803 21.8645 32.2313 21.3884C32.3484 21.0186 32.4746 20.7076 32.5635 20.57C32.5927 20.5246 32.6435 20.4194 32.6762 20.3362C32.7089 20.253 32.7565 20.185 32.7817 20.185C32.807 20.185 32.8435 20.1348 32.8631 20.0735C32.9265 19.8734 33.6233 19.2245 34.0192 18.9968C34.7808 18.5589 35.5531 18.4533 36.3275 18.6815Z" fill="#726E6E"/>
<path fill-rule="evenodd" clip-rule="evenodd" d="M12.1865 36.0015C12.045 36.1429 12.0579 38.9948 12.2005 39.1239C12.3314 39.2423 42.6057 39.2672 42.724 39.149C42.8182 39.0548 42.8182 36.0752 42.724 35.981C42.6097 35.8667 12.3007 35.8871 12.1865 36.0015ZM42.68 37.5652V39.0501L27.4862 39.0364L12.2925 39.0225L12.2778 37.5992C12.2693 36.7765 12.2848 36.15 12.3144 36.1142C12.3522 36.0687 16.3622 36.0562 27.5228 36.0664L42.68 36.0804V37.5652Z" fill="#816A17"/>
</svg>
